M48
; DRILL file {KiCad 7.0.5-0} date 2024 March 24, Sunday 11:58:50
; FORMAT={-:-/ absolute / inch / decimal}
; #@! TF.CreationDate,2024-03-24T11:58:50-06:00
; #@! TF.GenerationSoftware,Kicad,Pcbnew,7.0.5-0
; #@! TF.FileFunction,Plated,1,2,PTH
FMAT,2
INCH
; #@! TA.AperFunction,Plated,PTH,ViaDrill
T1C0.0157
; #@! TA.AperFunction,Plated,PTH,ComponentDrill
T2C0.0157
; #@! TA.AperFunction,Plated,PTH,ComponentDrill
T3C0.0197
; #@! TA.AperFunction,Plated,PTH,ComponentDrill
T4C0.0217
; #@! TA.AperFunction,Plated,PTH,ComponentDrill
T5C0.0295
; #@! TA.AperFunction,Plated,PTH,ComponentDrill
T6C0.0354
; #@! TA.AperFunction,Plated,PTH,ComponentDrill
T7C0.0394
; #@! TA.AperFunction,Plated,PTH,ComponentDrill
T8C0.0591
; #@! TA.AperFunction,Plated,PTH,ComponentDrill
T9C0.0866
%
G90
G05
T1
X3.3771Y-3.7417
X3.3893Y-3.7843
X3.4885Y-3.4331
X3.5279Y-3.9921
X3.5295Y-3.8337
X3.5782Y-3.5782
X3.5857Y-3.6419
X3.6042Y-3.8339
X3.6525Y-3.8661
X3.6539Y-3.9173
X3.6753Y-3.6735
X3.6987Y-3.9921
X3.7086Y-3.7343
X3.7656Y-3.3964
X3.8937Y-3.939
X3.9212Y-3.8661
X3.937Y-3.4626
X3.9688Y-3.2766
X3.9974Y-3.3089
X4.0105Y-3.7217
X4.0626Y-3.9382
X4.1702Y-3.7146
X4.1775Y-3.6024
X4.2Y-3.541
X4.2015Y-3.437
X4.2323Y-3.6378
X4.2647Y-3.7125
X4.2676Y-3.7953
X4.3428Y-3.8189
X4.3922Y-3.8613
X4.4087Y-3.6953
X4.449Y-3.6953
X4.4649Y-3.9528
X4.4892Y-3.6954
X4.4916Y-3.5276
X4.4989Y-3.626
X4.5304Y-3.8965
X4.6381Y-3.752
X4.6448Y-3.3677
X4.6499Y-3.622
X4.6564Y-3.9843
X4.6574Y-3.94
X4.8563Y-3.9508
X4.9373Y-3.8543
X4.9728Y-3.9016
X5.0176Y-3.5197
X5.0176Y-3.5591
X5.0176Y-3.5984
X5.0176Y-3.6378
X5.0176Y-3.7224
X5.0176Y-3.7579
X5.0176Y-3.7933
X5.0393Y-3.4882
X5.0497Y-3.9843
X5.0786Y-3.4882
X5.1378Y-3.4882
X5.1772Y-3.4882
X5.1889Y-3.7638
X5.1889Y-3.7992
X5.2008Y-3.5197
X5.2008Y-3.5591
X5.2244Y-3.7638
X5.2244Y-3.7992
X5.248Y-3.9508
X5.3345Y-3.8543
X5.3465Y-4.063
X5.368Y-3.9016
X5.4434Y-3.9843
X5.6417Y-3.9508
X5.7273Y-3.8543
X5.7402Y-4.063
X5.7617Y-3.9016
X5.8366Y-3.9843
X6.0354Y-3.9508
X6.118Y-3.8543
X6.1339Y-4.063
X6.1574Y-3.9016
X6.4291Y-3.9508
X6.5137Y-3.8543
X6.5276Y-4.063
X6.5491Y-3.9016
X6.8228Y-3.9508
X6.9015Y-3.8543
X6.9134Y-4.063
X6.9428Y-3.9016
X7.2165Y-3.9508
X7.2952Y-3.8543
X7.315Y-4.063
X7.3345Y-3.9016
X7.6102Y-3.9508
X7.6908Y-3.8543
X7.7087Y-4.063
X7.7302Y-3.9016
X8.0039Y-3.9508
X8.0845Y-3.8543
X8.1024Y-4.063
X8.1239Y-3.9016
X8.3976Y-3.9508
X8.4782Y-3.8543
X8.4961Y-4.063
X8.5176Y-3.9016
X8.7913Y-3.9508
X8.8719Y-3.8543
X8.8898Y-4.063
X8.9113Y-3.9016
T2
X3.6469Y-3.1535
X3.6659Y-3.1076
X3.6659Y-3.1995
X3.7118Y-3.0886
X3.7118Y-3.2185
X3.7578Y-3.1076
X3.7578Y-3.1995
X3.7768Y-3.1535
X4.732Y-3.1531
X4.751Y-3.1071
X4.751Y-3.199
X4.7969Y-3.0881
X4.7969Y-3.218
X4.8429Y-3.1071
X4.8429Y-3.199
X4.8619Y-3.1531
T5
X4.9944Y-3.2949
X5.0731Y-3.2949
T6
X3.3983Y-3.4287
X3.3983Y-3.5075
X3.3983Y-3.5862
T7
X3.5019Y-3.0157
X3.5019Y-3.1157
X4.2677Y-3.9764
X4.2677Y-4.0787
X4.7267Y-3.3039
X4.7267Y-3.4039
X4.7267Y-3.5039
X4.8267Y-3.3039
X4.8267Y-3.4039
X4.8267Y-3.5039
X4.9472Y-3.5059
X4.9472Y-3.6043
X4.9472Y-3.753
X5.2286Y-3.6878
T8
X3.3983Y-3.3461
X3.3983Y-3.6689
T9
X3.7118Y-3.1535
X4.7969Y-3.1531
T3
G00X3.2435Y-3.8031
M15
G01X3.2691Y-3.8031
M16
G05
G00X3.2691Y-4.0787
M15
G01X3.2435Y-4.0787
M16
G05
T4
G00X3.3626Y-3.8366
M15
G01X3.3626Y-3.8484
M16
G05
G00X3.3626Y-4.0335
M15
G01X3.3626Y-4.0453
M16
G05
T0
M30
