%TF.GenerationSoftware,KiCad,Pcbnew,10.0.3*%
%TF.CreationDate,2026-09-29T11:34:46-06:00*%
%TF.ProjectId,rainbow-music-pegasus,7261696e-626f-4772-9d6d-757369632d70,rev?*%
%TF.SameCoordinates,Original*%
%TF.FileFunction,Legend,Top*%
%TF.FilePolarity,Positive*%
%FSLAX46Y46*%
G04 Gerber Fmt 4.6, Leading zero omitted, Abs format (unit mm)*
G04 Created by KiCad (PCBNEW 10.0.3) date 2026-09-29 11:34:46*
%MOMM*%
%LPD*%
G01*
G04 APERTURE LIST*
%ADD10C,0.100000*%
%ADD11C,0.150000*%
%ADD12C,0.120000*%
G04 APERTURE END LIST*
D10*
X110242855Y-77064895D02*
X110433331Y-77864895D01*
X110433331Y-77864895D02*
X110585712Y-77293466D01*
X110585712Y-77293466D02*
X110738093Y-77864895D01*
X110738093Y-77864895D02*
X110928570Y-77064895D01*
X111576189Y-77864895D02*
X111576189Y-77445847D01*
X111576189Y-77445847D02*
X111538094Y-77369657D01*
X111538094Y-77369657D02*
X111461903Y-77331561D01*
X111461903Y-77331561D02*
X111309522Y-77331561D01*
X111309522Y-77331561D02*
X111233332Y-77369657D01*
X111576189Y-77826800D02*
X111499998Y-77864895D01*
X111499998Y-77864895D02*
X111309522Y-77864895D01*
X111309522Y-77864895D02*
X111233332Y-77826800D01*
X111233332Y-77826800D02*
X111195236Y-77750609D01*
X111195236Y-77750609D02*
X111195236Y-77674419D01*
X111195236Y-77674419D02*
X111233332Y-77598228D01*
X111233332Y-77598228D02*
X111309522Y-77560133D01*
X111309522Y-77560133D02*
X111499998Y-77560133D01*
X111499998Y-77560133D02*
X111576189Y-77522038D01*
X111880951Y-77331561D02*
X112071427Y-77864895D01*
X112261904Y-77331561D02*
X112071427Y-77864895D01*
X112071427Y-77864895D02*
X111995237Y-78055371D01*
X111995237Y-78055371D02*
X111957142Y-78093466D01*
X111957142Y-78093466D02*
X111880951Y-78131561D01*
X112490475Y-77064895D02*
X112680951Y-77864895D01*
X112680951Y-77864895D02*
X112833332Y-77293466D01*
X112833332Y-77293466D02*
X112985713Y-77864895D01*
X112985713Y-77864895D02*
X113176190Y-77064895D01*
X113823809Y-77864895D02*
X113823809Y-77445847D01*
X113823809Y-77445847D02*
X113785714Y-77369657D01*
X113785714Y-77369657D02*
X113709523Y-77331561D01*
X113709523Y-77331561D02*
X113557142Y-77331561D01*
X113557142Y-77331561D02*
X113480952Y-77369657D01*
X113823809Y-77826800D02*
X113747618Y-77864895D01*
X113747618Y-77864895D02*
X113557142Y-77864895D01*
X113557142Y-77864895D02*
X113480952Y-77826800D01*
X113480952Y-77826800D02*
X113442856Y-77750609D01*
X113442856Y-77750609D02*
X113442856Y-77674419D01*
X113442856Y-77674419D02*
X113480952Y-77598228D01*
X113480952Y-77598228D02*
X113557142Y-77560133D01*
X113557142Y-77560133D02*
X113747618Y-77560133D01*
X113747618Y-77560133D02*
X113823809Y-77522038D01*
X114128571Y-77331561D02*
X114319047Y-77864895D01*
X114509524Y-77331561D02*
X114319047Y-77864895D01*
X114319047Y-77864895D02*
X114242857Y-78055371D01*
X114242857Y-78055371D02*
X114204762Y-78093466D01*
X114204762Y-78093466D02*
X114128571Y-78131561D01*
X114738095Y-77064895D02*
X114928571Y-77864895D01*
X114928571Y-77864895D02*
X115080952Y-77293466D01*
X115080952Y-77293466D02*
X115233333Y-77864895D01*
X115233333Y-77864895D02*
X115423810Y-77064895D01*
X116071429Y-77864895D02*
X116071429Y-77445847D01*
X116071429Y-77445847D02*
X116033334Y-77369657D01*
X116033334Y-77369657D02*
X115957143Y-77331561D01*
X115957143Y-77331561D02*
X115804762Y-77331561D01*
X115804762Y-77331561D02*
X115728572Y-77369657D01*
X116071429Y-77826800D02*
X115995238Y-77864895D01*
X115995238Y-77864895D02*
X115804762Y-77864895D01*
X115804762Y-77864895D02*
X115728572Y-77826800D01*
X115728572Y-77826800D02*
X115690476Y-77750609D01*
X115690476Y-77750609D02*
X115690476Y-77674419D01*
X115690476Y-77674419D02*
X115728572Y-77598228D01*
X115728572Y-77598228D02*
X115804762Y-77560133D01*
X115804762Y-77560133D02*
X115995238Y-77560133D01*
X115995238Y-77560133D02*
X116071429Y-77522038D01*
X116376191Y-77331561D02*
X116566667Y-77864895D01*
X116757144Y-77331561D02*
X116566667Y-77864895D01*
X116566667Y-77864895D02*
X116490477Y-78055371D01*
X116490477Y-78055371D02*
X116452382Y-78093466D01*
X116452382Y-78093466D02*
X116376191Y-78131561D01*
D11*
X121162279Y-90126121D02*
X121495612Y-90126121D01*
X121638469Y-90649931D02*
X121162279Y-90649931D01*
X121162279Y-90649931D02*
X121162279Y-89649931D01*
X121162279Y-89649931D02*
X121638469Y-89649931D01*
X122067041Y-89983264D02*
X122067041Y-90649931D01*
X122067041Y-90078502D02*
X122114660Y-90030883D01*
X122114660Y-90030883D02*
X122209898Y-89983264D01*
X122209898Y-89983264D02*
X122352755Y-89983264D01*
X122352755Y-89983264D02*
X122447993Y-90030883D01*
X122447993Y-90030883D02*
X122495612Y-90126121D01*
X122495612Y-90126121D02*
X122495612Y-90649931D01*
X121019422Y-91259875D02*
X121590850Y-91259875D01*
X121305136Y-92259875D02*
X121305136Y-91259875D01*
X121828946Y-92259875D02*
X122352755Y-91593208D01*
X121828946Y-91593208D02*
X122352755Y-92259875D01*
X121733707Y-93869819D02*
X121400374Y-93393628D01*
X121162279Y-93869819D02*
X121162279Y-92869819D01*
X121162279Y-92869819D02*
X121543231Y-92869819D01*
X121543231Y-92869819D02*
X121638469Y-92917438D01*
X121638469Y-92917438D02*
X121686088Y-92965057D01*
X121686088Y-92965057D02*
X121733707Y-93060295D01*
X121733707Y-93060295D02*
X121733707Y-93203152D01*
X121733707Y-93203152D02*
X121686088Y-93298390D01*
X121686088Y-93298390D02*
X121638469Y-93346009D01*
X121638469Y-93346009D02*
X121543231Y-93393628D01*
X121543231Y-93393628D02*
X121162279Y-93393628D01*
X122067041Y-93869819D02*
X122590850Y-93203152D01*
X122067041Y-93203152D02*
X122590850Y-93869819D01*
X88566548Y-81123866D02*
X89328453Y-81123866D01*
X88947500Y-81504819D02*
X88947500Y-80742914D01*
X124803006Y-89983264D02*
X124803006Y-90649931D01*
X124803006Y-90078502D02*
X124850625Y-90030883D01*
X124850625Y-90030883D02*
X124945863Y-89983264D01*
X124945863Y-89983264D02*
X125088720Y-89983264D01*
X125088720Y-89983264D02*
X125183958Y-90030883D01*
X125183958Y-90030883D02*
X125231577Y-90126121D01*
X125231577Y-90126121D02*
X125231577Y-90649931D01*
X126136339Y-90602312D02*
X126041101Y-90649931D01*
X126041101Y-90649931D02*
X125850625Y-90649931D01*
X125850625Y-90649931D02*
X125755387Y-90602312D01*
X125755387Y-90602312D02*
X125707768Y-90554692D01*
X125707768Y-90554692D02*
X125660149Y-90459454D01*
X125660149Y-90459454D02*
X125660149Y-90173740D01*
X125660149Y-90173740D02*
X125707768Y-90078502D01*
X125707768Y-90078502D02*
X125755387Y-90030883D01*
X125755387Y-90030883D02*
X125850625Y-89983264D01*
X125850625Y-89983264D02*
X126041101Y-89983264D01*
X126041101Y-89983264D02*
X126136339Y-90030883D01*
X124279196Y-91307494D02*
X124183958Y-91259875D01*
X124183958Y-91259875D02*
X124041101Y-91259875D01*
X124041101Y-91259875D02*
X123898244Y-91307494D01*
X123898244Y-91307494D02*
X123803006Y-91402732D01*
X123803006Y-91402732D02*
X123755387Y-91497970D01*
X123755387Y-91497970D02*
X123707768Y-91688446D01*
X123707768Y-91688446D02*
X123707768Y-91831303D01*
X123707768Y-91831303D02*
X123755387Y-92021779D01*
X123755387Y-92021779D02*
X123803006Y-92117017D01*
X123803006Y-92117017D02*
X123898244Y-92212256D01*
X123898244Y-92212256D02*
X124041101Y-92259875D01*
X124041101Y-92259875D02*
X124136339Y-92259875D01*
X124136339Y-92259875D02*
X124279196Y-92212256D01*
X124279196Y-92212256D02*
X124326815Y-92164636D01*
X124326815Y-92164636D02*
X124326815Y-91831303D01*
X124326815Y-91831303D02*
X124136339Y-91831303D01*
X124755387Y-91593208D02*
X124755387Y-92259875D01*
X124755387Y-91688446D02*
X124803006Y-91640827D01*
X124803006Y-91640827D02*
X124898244Y-91593208D01*
X124898244Y-91593208D02*
X125041101Y-91593208D01*
X125041101Y-91593208D02*
X125136339Y-91640827D01*
X125136339Y-91640827D02*
X125183958Y-91736065D01*
X125183958Y-91736065D02*
X125183958Y-92259875D01*
X126088720Y-92259875D02*
X126088720Y-91259875D01*
X126088720Y-92212256D02*
X125993482Y-92259875D01*
X125993482Y-92259875D02*
X125803006Y-92259875D01*
X125803006Y-92259875D02*
X125707768Y-92212256D01*
X125707768Y-92212256D02*
X125660149Y-92164636D01*
X125660149Y-92164636D02*
X125612530Y-92069398D01*
X125612530Y-92069398D02*
X125612530Y-91783684D01*
X125612530Y-91783684D02*
X125660149Y-91688446D01*
X125660149Y-91688446D02*
X125707768Y-91640827D01*
X125707768Y-91640827D02*
X125803006Y-91593208D01*
X125803006Y-91593208D02*
X125993482Y-91593208D01*
X125993482Y-91593208D02*
X126088720Y-91640827D01*
X123517291Y-93346009D02*
X123660148Y-93393628D01*
X123660148Y-93393628D02*
X123707767Y-93441247D01*
X123707767Y-93441247D02*
X123755386Y-93536485D01*
X123755386Y-93536485D02*
X123755386Y-93679342D01*
X123755386Y-93679342D02*
X123707767Y-93774580D01*
X123707767Y-93774580D02*
X123660148Y-93822200D01*
X123660148Y-93822200D02*
X123564910Y-93869819D01*
X123564910Y-93869819D02*
X123183958Y-93869819D01*
X123183958Y-93869819D02*
X123183958Y-92869819D01*
X123183958Y-92869819D02*
X123517291Y-92869819D01*
X123517291Y-92869819D02*
X123612529Y-92917438D01*
X123612529Y-92917438D02*
X123660148Y-92965057D01*
X123660148Y-92965057D02*
X123707767Y-93060295D01*
X123707767Y-93060295D02*
X123707767Y-93155533D01*
X123707767Y-93155533D02*
X123660148Y-93250771D01*
X123660148Y-93250771D02*
X123612529Y-93298390D01*
X123612529Y-93298390D02*
X123517291Y-93346009D01*
X123517291Y-93346009D02*
X123183958Y-93346009D01*
X124326815Y-93869819D02*
X124231577Y-93822200D01*
X124231577Y-93822200D02*
X124183958Y-93774580D01*
X124183958Y-93774580D02*
X124136339Y-93679342D01*
X124136339Y-93679342D02*
X124136339Y-93393628D01*
X124136339Y-93393628D02*
X124183958Y-93298390D01*
X124183958Y-93298390D02*
X124231577Y-93250771D01*
X124231577Y-93250771D02*
X124326815Y-93203152D01*
X124326815Y-93203152D02*
X124469672Y-93203152D01*
X124469672Y-93203152D02*
X124564910Y-93250771D01*
X124564910Y-93250771D02*
X124612529Y-93298390D01*
X124612529Y-93298390D02*
X124660148Y-93393628D01*
X124660148Y-93393628D02*
X124660148Y-93679342D01*
X124660148Y-93679342D02*
X124612529Y-93774580D01*
X124612529Y-93774580D02*
X124564910Y-93822200D01*
X124564910Y-93822200D02*
X124469672Y-93869819D01*
X124469672Y-93869819D02*
X124326815Y-93869819D01*
X125231577Y-93869819D02*
X125136339Y-93822200D01*
X125136339Y-93822200D02*
X125088720Y-93774580D01*
X125088720Y-93774580D02*
X125041101Y-93679342D01*
X125041101Y-93679342D02*
X125041101Y-93393628D01*
X125041101Y-93393628D02*
X125088720Y-93298390D01*
X125088720Y-93298390D02*
X125136339Y-93250771D01*
X125136339Y-93250771D02*
X125231577Y-93203152D01*
X125231577Y-93203152D02*
X125374434Y-93203152D01*
X125374434Y-93203152D02*
X125469672Y-93250771D01*
X125469672Y-93250771D02*
X125517291Y-93298390D01*
X125517291Y-93298390D02*
X125564910Y-93393628D01*
X125564910Y-93393628D02*
X125564910Y-93679342D01*
X125564910Y-93679342D02*
X125517291Y-93774580D01*
X125517291Y-93774580D02*
X125469672Y-93822200D01*
X125469672Y-93822200D02*
X125374434Y-93869819D01*
X125374434Y-93869819D02*
X125231577Y-93869819D01*
X125850625Y-93203152D02*
X126231577Y-93203152D01*
X125993482Y-92869819D02*
X125993482Y-93726961D01*
X125993482Y-93726961D02*
X126041101Y-93822200D01*
X126041101Y-93822200D02*
X126136339Y-93869819D01*
X126136339Y-93869819D02*
X126231577Y-93869819D01*
D12*
X150686795Y-101082143D02*
X150722510Y-101117857D01*
X150722510Y-101117857D02*
X150758224Y-101225000D01*
X150758224Y-101225000D02*
X150758224Y-101296428D01*
X150758224Y-101296428D02*
X150722510Y-101403571D01*
X150722510Y-101403571D02*
X150651081Y-101475000D01*
X150651081Y-101475000D02*
X150579652Y-101510714D01*
X150579652Y-101510714D02*
X150436795Y-101546428D01*
X150436795Y-101546428D02*
X150329652Y-101546428D01*
X150329652Y-101546428D02*
X150186795Y-101510714D01*
X150186795Y-101510714D02*
X150115367Y-101475000D01*
X150115367Y-101475000D02*
X150043938Y-101403571D01*
X150043938Y-101403571D02*
X150008224Y-101296428D01*
X150008224Y-101296428D02*
X150008224Y-101225000D01*
X150008224Y-101225000D02*
X150043938Y-101117857D01*
X150043938Y-101117857D02*
X150079652Y-101082143D01*
X150758224Y-100367857D02*
X150758224Y-100796428D01*
X150758224Y-100582143D02*
X150008224Y-100582143D01*
X150008224Y-100582143D02*
X150115367Y-100653571D01*
X150115367Y-100653571D02*
X150186795Y-100725000D01*
X150186795Y-100725000D02*
X150222510Y-100796428D01*
X150758224Y-100010714D02*
X150758224Y-99867857D01*
X150758224Y-99867857D02*
X150722510Y-99796428D01*
X150722510Y-99796428D02*
X150686795Y-99760714D01*
X150686795Y-99760714D02*
X150579652Y-99689285D01*
X150579652Y-99689285D02*
X150436795Y-99653571D01*
X150436795Y-99653571D02*
X150151081Y-99653571D01*
X150151081Y-99653571D02*
X150079652Y-99689285D01*
X150079652Y-99689285D02*
X150043938Y-99725000D01*
X150043938Y-99725000D02*
X150008224Y-99796428D01*
X150008224Y-99796428D02*
X150008224Y-99939285D01*
X150008224Y-99939285D02*
X150043938Y-100010714D01*
X150043938Y-100010714D02*
X150079652Y-100046428D01*
X150079652Y-100046428D02*
X150151081Y-100082142D01*
X150151081Y-100082142D02*
X150329652Y-100082142D01*
X150329652Y-100082142D02*
X150401081Y-100046428D01*
X150401081Y-100046428D02*
X150436795Y-100010714D01*
X150436795Y-100010714D02*
X150472510Y-99939285D01*
X150472510Y-99939285D02*
X150472510Y-99796428D01*
X150472510Y-99796428D02*
X150436795Y-99725000D01*
X150436795Y-99725000D02*
X150401081Y-99689285D01*
X150401081Y-99689285D02*
X150329652Y-99653571D01*
D11*
X135061905Y-97554819D02*
X135061905Y-96554819D01*
X135061905Y-96554819D02*
X135300000Y-96554819D01*
X135300000Y-96554819D02*
X135442857Y-96602438D01*
X135442857Y-96602438D02*
X135538095Y-96697676D01*
X135538095Y-96697676D02*
X135585714Y-96792914D01*
X135585714Y-96792914D02*
X135633333Y-96983390D01*
X135633333Y-96983390D02*
X135633333Y-97126247D01*
X135633333Y-97126247D02*
X135585714Y-97316723D01*
X135585714Y-97316723D02*
X135538095Y-97411961D01*
X135538095Y-97411961D02*
X135442857Y-97507200D01*
X135442857Y-97507200D02*
X135300000Y-97554819D01*
X135300000Y-97554819D02*
X135061905Y-97554819D01*
X136538095Y-96554819D02*
X136061905Y-96554819D01*
X136061905Y-96554819D02*
X136014286Y-97031009D01*
X136014286Y-97031009D02*
X136061905Y-96983390D01*
X136061905Y-96983390D02*
X136157143Y-96935771D01*
X136157143Y-96935771D02*
X136395238Y-96935771D01*
X136395238Y-96935771D02*
X136490476Y-96983390D01*
X136490476Y-96983390D02*
X136538095Y-97031009D01*
X136538095Y-97031009D02*
X136585714Y-97126247D01*
X136585714Y-97126247D02*
X136585714Y-97364342D01*
X136585714Y-97364342D02*
X136538095Y-97459580D01*
X136538095Y-97459580D02*
X136490476Y-97507200D01*
X136490476Y-97507200D02*
X136395238Y-97554819D01*
X136395238Y-97554819D02*
X136157143Y-97554819D01*
X136157143Y-97554819D02*
X136061905Y-97507200D01*
X136061905Y-97507200D02*
X136014286Y-97459580D01*
X119645180Y-97861905D02*
X120645180Y-97861905D01*
X120645180Y-97861905D02*
X120645180Y-98100000D01*
X120645180Y-98100000D02*
X120597561Y-98242857D01*
X120597561Y-98242857D02*
X120502323Y-98338095D01*
X120502323Y-98338095D02*
X120407085Y-98385714D01*
X120407085Y-98385714D02*
X120216609Y-98433333D01*
X120216609Y-98433333D02*
X120073752Y-98433333D01*
X120073752Y-98433333D02*
X119883276Y-98385714D01*
X119883276Y-98385714D02*
X119788038Y-98338095D01*
X119788038Y-98338095D02*
X119692800Y-98242857D01*
X119692800Y-98242857D02*
X119645180Y-98100000D01*
X119645180Y-98100000D02*
X119645180Y-97861905D01*
X119645180Y-99385714D02*
X119645180Y-98814286D01*
X119645180Y-99100000D02*
X120645180Y-99100000D01*
X120645180Y-99100000D02*
X120502323Y-99004762D01*
X120502323Y-99004762D02*
X120407085Y-98909524D01*
X120407085Y-98909524D02*
X120359466Y-98814286D01*
X101187919Y-101733333D02*
X101140300Y-101685714D01*
X101140300Y-101685714D02*
X101092680Y-101542857D01*
X101092680Y-101542857D02*
X101092680Y-101447619D01*
X101092680Y-101447619D02*
X101140300Y-101304762D01*
X101140300Y-101304762D02*
X101235538Y-101209524D01*
X101235538Y-101209524D02*
X101330776Y-101161905D01*
X101330776Y-101161905D02*
X101521252Y-101114286D01*
X101521252Y-101114286D02*
X101664109Y-101114286D01*
X101664109Y-101114286D02*
X101854585Y-101161905D01*
X101854585Y-101161905D02*
X101949823Y-101209524D01*
X101949823Y-101209524D02*
X102045061Y-101304762D01*
X102045061Y-101304762D02*
X102092680Y-101447619D01*
X102092680Y-101447619D02*
X102092680Y-101542857D01*
X102092680Y-101542857D02*
X102045061Y-101685714D01*
X102045061Y-101685714D02*
X101997442Y-101733333D01*
X101664109Y-102304762D02*
X101711728Y-102209524D01*
X101711728Y-102209524D02*
X101759347Y-102161905D01*
X101759347Y-102161905D02*
X101854585Y-102114286D01*
X101854585Y-102114286D02*
X101902204Y-102114286D01*
X101902204Y-102114286D02*
X101997442Y-102161905D01*
X101997442Y-102161905D02*
X102045061Y-102209524D01*
X102045061Y-102209524D02*
X102092680Y-102304762D01*
X102092680Y-102304762D02*
X102092680Y-102495238D01*
X102092680Y-102495238D02*
X102045061Y-102590476D01*
X102045061Y-102590476D02*
X101997442Y-102638095D01*
X101997442Y-102638095D02*
X101902204Y-102685714D01*
X101902204Y-102685714D02*
X101854585Y-102685714D01*
X101854585Y-102685714D02*
X101759347Y-102638095D01*
X101759347Y-102638095D02*
X101711728Y-102590476D01*
X101711728Y-102590476D02*
X101664109Y-102495238D01*
X101664109Y-102495238D02*
X101664109Y-102304762D01*
X101664109Y-102304762D02*
X101616490Y-102209524D01*
X101616490Y-102209524D02*
X101568871Y-102161905D01*
X101568871Y-102161905D02*
X101473633Y-102114286D01*
X101473633Y-102114286D02*
X101283157Y-102114286D01*
X101283157Y-102114286D02*
X101187919Y-102161905D01*
X101187919Y-102161905D02*
X101140300Y-102209524D01*
X101140300Y-102209524D02*
X101092680Y-102304762D01*
X101092680Y-102304762D02*
X101092680Y-102495238D01*
X101092680Y-102495238D02*
X101140300Y-102590476D01*
X101140300Y-102590476D02*
X101187919Y-102638095D01*
X101187919Y-102638095D02*
X101283157Y-102685714D01*
X101283157Y-102685714D02*
X101473633Y-102685714D01*
X101473633Y-102685714D02*
X101568871Y-102638095D01*
X101568871Y-102638095D02*
X101616490Y-102590476D01*
X101616490Y-102590476D02*
X101664109Y-102495238D01*
X174585714Y-97554819D02*
X174585714Y-96554819D01*
X174585714Y-96554819D02*
X174823809Y-96554819D01*
X174823809Y-96554819D02*
X174966666Y-96602438D01*
X174966666Y-96602438D02*
X175061904Y-96697676D01*
X175061904Y-96697676D02*
X175109523Y-96792914D01*
X175109523Y-96792914D02*
X175157142Y-96983390D01*
X175157142Y-96983390D02*
X175157142Y-97126247D01*
X175157142Y-97126247D02*
X175109523Y-97316723D01*
X175109523Y-97316723D02*
X175061904Y-97411961D01*
X175061904Y-97411961D02*
X174966666Y-97507200D01*
X174966666Y-97507200D02*
X174823809Y-97554819D01*
X174823809Y-97554819D02*
X174585714Y-97554819D01*
X176109523Y-97554819D02*
X175538095Y-97554819D01*
X175823809Y-97554819D02*
X175823809Y-96554819D01*
X175823809Y-96554819D02*
X175728571Y-96697676D01*
X175728571Y-96697676D02*
X175633333Y-96792914D01*
X175633333Y-96792914D02*
X175538095Y-96840533D01*
X176442857Y-96554819D02*
X177061904Y-96554819D01*
X177061904Y-96554819D02*
X176728571Y-96935771D01*
X176728571Y-96935771D02*
X176871428Y-96935771D01*
X176871428Y-96935771D02*
X176966666Y-96983390D01*
X176966666Y-96983390D02*
X177014285Y-97031009D01*
X177014285Y-97031009D02*
X177061904Y-97126247D01*
X177061904Y-97126247D02*
X177061904Y-97364342D01*
X177061904Y-97364342D02*
X177014285Y-97459580D01*
X177014285Y-97459580D02*
X176966666Y-97507200D01*
X176966666Y-97507200D02*
X176871428Y-97554819D01*
X176871428Y-97554819D02*
X176585714Y-97554819D01*
X176585714Y-97554819D02*
X176490476Y-97507200D01*
X176490476Y-97507200D02*
X176442857Y-97459580D01*
X94802319Y-92742857D02*
X94326128Y-93076190D01*
X94802319Y-93314285D02*
X93802319Y-93314285D01*
X93802319Y-93314285D02*
X93802319Y-92933333D01*
X93802319Y-92933333D02*
X93849938Y-92838095D01*
X93849938Y-92838095D02*
X93897557Y-92790476D01*
X93897557Y-92790476D02*
X93992795Y-92742857D01*
X93992795Y-92742857D02*
X94135652Y-92742857D01*
X94135652Y-92742857D02*
X94230890Y-92790476D01*
X94230890Y-92790476D02*
X94278509Y-92838095D01*
X94278509Y-92838095D02*
X94326128Y-92933333D01*
X94326128Y-92933333D02*
X94326128Y-93314285D01*
X94802319Y-91790476D02*
X94802319Y-92361904D01*
X94802319Y-92076190D02*
X93802319Y-92076190D01*
X93802319Y-92076190D02*
X93945176Y-92171428D01*
X93945176Y-92171428D02*
X94040414Y-92266666D01*
X94040414Y-92266666D02*
X94088033Y-92361904D01*
X93802319Y-91457142D02*
X93802319Y-90790476D01*
X93802319Y-90790476D02*
X94802319Y-91219047D01*
X105080833Y-81509580D02*
X105033214Y-81557200D01*
X105033214Y-81557200D02*
X104890357Y-81604819D01*
X104890357Y-81604819D02*
X104795119Y-81604819D01*
X104795119Y-81604819D02*
X104652262Y-81557200D01*
X104652262Y-81557200D02*
X104557024Y-81461961D01*
X104557024Y-81461961D02*
X104509405Y-81366723D01*
X104509405Y-81366723D02*
X104461786Y-81176247D01*
X104461786Y-81176247D02*
X104461786Y-81033390D01*
X104461786Y-81033390D02*
X104509405Y-80842914D01*
X104509405Y-80842914D02*
X104557024Y-80747676D01*
X104557024Y-80747676D02*
X104652262Y-80652438D01*
X104652262Y-80652438D02*
X104795119Y-80604819D01*
X104795119Y-80604819D02*
X104890357Y-80604819D01*
X104890357Y-80604819D02*
X105033214Y-80652438D01*
X105033214Y-80652438D02*
X105080833Y-80700057D01*
X105414167Y-80604819D02*
X106033214Y-80604819D01*
X106033214Y-80604819D02*
X105699881Y-80985771D01*
X105699881Y-80985771D02*
X105842738Y-80985771D01*
X105842738Y-80985771D02*
X105937976Y-81033390D01*
X105937976Y-81033390D02*
X105985595Y-81081009D01*
X105985595Y-81081009D02*
X106033214Y-81176247D01*
X106033214Y-81176247D02*
X106033214Y-81414342D01*
X106033214Y-81414342D02*
X105985595Y-81509580D01*
X105985595Y-81509580D02*
X105937976Y-81557200D01*
X105937976Y-81557200D02*
X105842738Y-81604819D01*
X105842738Y-81604819D02*
X105557024Y-81604819D01*
X105557024Y-81604819D02*
X105461786Y-81557200D01*
X105461786Y-81557200D02*
X105414167Y-81509580D01*
X145061905Y-97554819D02*
X145061905Y-96554819D01*
X145061905Y-96554819D02*
X145300000Y-96554819D01*
X145300000Y-96554819D02*
X145442857Y-96602438D01*
X145442857Y-96602438D02*
X145538095Y-96697676D01*
X145538095Y-96697676D02*
X145585714Y-96792914D01*
X145585714Y-96792914D02*
X145633333Y-96983390D01*
X145633333Y-96983390D02*
X145633333Y-97126247D01*
X145633333Y-97126247D02*
X145585714Y-97316723D01*
X145585714Y-97316723D02*
X145538095Y-97411961D01*
X145538095Y-97411961D02*
X145442857Y-97507200D01*
X145442857Y-97507200D02*
X145300000Y-97554819D01*
X145300000Y-97554819D02*
X145061905Y-97554819D01*
X145966667Y-96554819D02*
X146633333Y-96554819D01*
X146633333Y-96554819D02*
X146204762Y-97554819D01*
X105795180Y-98457142D02*
X106271371Y-98123809D01*
X105795180Y-97885714D02*
X106795180Y-97885714D01*
X106795180Y-97885714D02*
X106795180Y-98266666D01*
X106795180Y-98266666D02*
X106747561Y-98361904D01*
X106747561Y-98361904D02*
X106699942Y-98409523D01*
X106699942Y-98409523D02*
X106604704Y-98457142D01*
X106604704Y-98457142D02*
X106461847Y-98457142D01*
X106461847Y-98457142D02*
X106366609Y-98409523D01*
X106366609Y-98409523D02*
X106318990Y-98361904D01*
X106318990Y-98361904D02*
X106271371Y-98266666D01*
X106271371Y-98266666D02*
X106271371Y-97885714D01*
X105795180Y-99409523D02*
X105795180Y-98838095D01*
X105795180Y-99123809D02*
X106795180Y-99123809D01*
X106795180Y-99123809D02*
X106652323Y-99028571D01*
X106652323Y-99028571D02*
X106557085Y-98933333D01*
X106557085Y-98933333D02*
X106509466Y-98838095D01*
X106461847Y-100266666D02*
X105795180Y-100266666D01*
X106842800Y-100028571D02*
X106128514Y-99790476D01*
X106128514Y-99790476D02*
X106128514Y-100409523D01*
X164585714Y-97554819D02*
X164585714Y-96554819D01*
X164585714Y-96554819D02*
X164823809Y-96554819D01*
X164823809Y-96554819D02*
X164966666Y-96602438D01*
X164966666Y-96602438D02*
X165061904Y-96697676D01*
X165061904Y-96697676D02*
X165109523Y-96792914D01*
X165109523Y-96792914D02*
X165157142Y-96983390D01*
X165157142Y-96983390D02*
X165157142Y-97126247D01*
X165157142Y-97126247D02*
X165109523Y-97316723D01*
X165109523Y-97316723D02*
X165061904Y-97411961D01*
X165061904Y-97411961D02*
X164966666Y-97507200D01*
X164966666Y-97507200D02*
X164823809Y-97554819D01*
X164823809Y-97554819D02*
X164585714Y-97554819D01*
X166109523Y-97554819D02*
X165538095Y-97554819D01*
X165823809Y-97554819D02*
X165823809Y-96554819D01*
X165823809Y-96554819D02*
X165728571Y-96697676D01*
X165728571Y-96697676D02*
X165633333Y-96792914D01*
X165633333Y-96792914D02*
X165538095Y-96840533D01*
X167061904Y-97554819D02*
X166490476Y-97554819D01*
X166776190Y-97554819D02*
X166776190Y-96554819D01*
X166776190Y-96554819D02*
X166680952Y-96697676D01*
X166680952Y-96697676D02*
X166585714Y-96792914D01*
X166585714Y-96792914D02*
X166490476Y-96840533D01*
D12*
X98528204Y-91517856D02*
X98492490Y-91482142D01*
X98492490Y-91482142D02*
X98456775Y-91374999D01*
X98456775Y-91374999D02*
X98456775Y-91303571D01*
X98456775Y-91303571D02*
X98492490Y-91196428D01*
X98492490Y-91196428D02*
X98563918Y-91124999D01*
X98563918Y-91124999D02*
X98635347Y-91089285D01*
X98635347Y-91089285D02*
X98778204Y-91053571D01*
X98778204Y-91053571D02*
X98885347Y-91053571D01*
X98885347Y-91053571D02*
X99028204Y-91089285D01*
X99028204Y-91089285D02*
X99099632Y-91124999D01*
X99099632Y-91124999D02*
X99171061Y-91196428D01*
X99171061Y-91196428D02*
X99206775Y-91303571D01*
X99206775Y-91303571D02*
X99206775Y-91374999D01*
X99206775Y-91374999D02*
X99171061Y-91482142D01*
X99171061Y-91482142D02*
X99135347Y-91517856D01*
X99206775Y-91767856D02*
X99206775Y-92232142D01*
X99206775Y-92232142D02*
X98921061Y-91982142D01*
X98921061Y-91982142D02*
X98921061Y-92089285D01*
X98921061Y-92089285D02*
X98885347Y-92160714D01*
X98885347Y-92160714D02*
X98849632Y-92196428D01*
X98849632Y-92196428D02*
X98778204Y-92232142D01*
X98778204Y-92232142D02*
X98599632Y-92232142D01*
X98599632Y-92232142D02*
X98528204Y-92196428D01*
X98528204Y-92196428D02*
X98492490Y-92160714D01*
X98492490Y-92160714D02*
X98456775Y-92089285D01*
X98456775Y-92089285D02*
X98456775Y-91874999D01*
X98456775Y-91874999D02*
X98492490Y-91803571D01*
X98492490Y-91803571D02*
X98528204Y-91767856D01*
X99206775Y-92910714D02*
X99206775Y-92553571D01*
X99206775Y-92553571D02*
X98849632Y-92517857D01*
X98849632Y-92517857D02*
X98885347Y-92553571D01*
X98885347Y-92553571D02*
X98921061Y-92625000D01*
X98921061Y-92625000D02*
X98921061Y-92803571D01*
X98921061Y-92803571D02*
X98885347Y-92875000D01*
X98885347Y-92875000D02*
X98849632Y-92910714D01*
X98849632Y-92910714D02*
X98778204Y-92946428D01*
X98778204Y-92946428D02*
X98599632Y-92946428D01*
X98599632Y-92946428D02*
X98528204Y-92910714D01*
X98528204Y-92910714D02*
X98492490Y-92875000D01*
X98492490Y-92875000D02*
X98456775Y-92803571D01*
X98456775Y-92803571D02*
X98456775Y-92625000D01*
X98456775Y-92625000D02*
X98492490Y-92553571D01*
X98492490Y-92553571D02*
X98528204Y-92517857D01*
D11*
X103052319Y-86866666D02*
X102576128Y-87199999D01*
X103052319Y-87438094D02*
X102052319Y-87438094D01*
X102052319Y-87438094D02*
X102052319Y-87057142D01*
X102052319Y-87057142D02*
X102099938Y-86961904D01*
X102099938Y-86961904D02*
X102147557Y-86914285D01*
X102147557Y-86914285D02*
X102242795Y-86866666D01*
X102242795Y-86866666D02*
X102385652Y-86866666D01*
X102385652Y-86866666D02*
X102480890Y-86914285D01*
X102480890Y-86914285D02*
X102528509Y-86961904D01*
X102528509Y-86961904D02*
X102576128Y-87057142D01*
X102576128Y-87057142D02*
X102576128Y-87438094D01*
X102052319Y-86533332D02*
X102052319Y-85914285D01*
X102052319Y-85914285D02*
X102433271Y-86247618D01*
X102433271Y-86247618D02*
X102433271Y-86104761D01*
X102433271Y-86104761D02*
X102480890Y-86009523D01*
X102480890Y-86009523D02*
X102528509Y-85961904D01*
X102528509Y-85961904D02*
X102623747Y-85914285D01*
X102623747Y-85914285D02*
X102861842Y-85914285D01*
X102861842Y-85914285D02*
X102957080Y-85961904D01*
X102957080Y-85961904D02*
X103004700Y-86009523D01*
X103004700Y-86009523D02*
X103052319Y-86104761D01*
X103052319Y-86104761D02*
X103052319Y-86390475D01*
X103052319Y-86390475D02*
X103004700Y-86485713D01*
X103004700Y-86485713D02*
X102957080Y-86533332D01*
X111610833Y-97254819D02*
X111277500Y-96778628D01*
X111039405Y-97254819D02*
X111039405Y-96254819D01*
X111039405Y-96254819D02*
X111420357Y-96254819D01*
X111420357Y-96254819D02*
X111515595Y-96302438D01*
X111515595Y-96302438D02*
X111563214Y-96350057D01*
X111563214Y-96350057D02*
X111610833Y-96445295D01*
X111610833Y-96445295D02*
X111610833Y-96588152D01*
X111610833Y-96588152D02*
X111563214Y-96683390D01*
X111563214Y-96683390D02*
X111515595Y-96731009D01*
X111515595Y-96731009D02*
X111420357Y-96778628D01*
X111420357Y-96778628D02*
X111039405Y-96778628D01*
X112563214Y-97254819D02*
X111991786Y-97254819D01*
X112277500Y-97254819D02*
X112277500Y-96254819D01*
X112277500Y-96254819D02*
X112182262Y-96397676D01*
X112182262Y-96397676D02*
X112087024Y-96492914D01*
X112087024Y-96492914D02*
X111991786Y-96540533D01*
X140603180Y-93158142D02*
X141079371Y-92824809D01*
X140603180Y-92586714D02*
X141603180Y-92586714D01*
X141603180Y-92586714D02*
X141603180Y-92967666D01*
X141603180Y-92967666D02*
X141555561Y-93062904D01*
X141555561Y-93062904D02*
X141507942Y-93110523D01*
X141507942Y-93110523D02*
X141412704Y-93158142D01*
X141412704Y-93158142D02*
X141269847Y-93158142D01*
X141269847Y-93158142D02*
X141174609Y-93110523D01*
X141174609Y-93110523D02*
X141126990Y-93062904D01*
X141126990Y-93062904D02*
X141079371Y-92967666D01*
X141079371Y-92967666D02*
X141079371Y-92586714D01*
X140603180Y-94110523D02*
X140603180Y-93539095D01*
X140603180Y-93824809D02*
X141603180Y-93824809D01*
X141603180Y-93824809D02*
X141460323Y-93729571D01*
X141460323Y-93729571D02*
X141365085Y-93634333D01*
X141365085Y-93634333D02*
X141317466Y-93539095D01*
X141603180Y-94729571D02*
X141603180Y-94824809D01*
X141603180Y-94824809D02*
X141555561Y-94920047D01*
X141555561Y-94920047D02*
X141507942Y-94967666D01*
X141507942Y-94967666D02*
X141412704Y-95015285D01*
X141412704Y-95015285D02*
X141222228Y-95062904D01*
X141222228Y-95062904D02*
X140984133Y-95062904D01*
X140984133Y-95062904D02*
X140793657Y-95015285D01*
X140793657Y-95015285D02*
X140698419Y-94967666D01*
X140698419Y-94967666D02*
X140650800Y-94920047D01*
X140650800Y-94920047D02*
X140603180Y-94824809D01*
X140603180Y-94824809D02*
X140603180Y-94729571D01*
X140603180Y-94729571D02*
X140650800Y-94634333D01*
X140650800Y-94634333D02*
X140698419Y-94586714D01*
X140698419Y-94586714D02*
X140793657Y-94539095D01*
X140793657Y-94539095D02*
X140984133Y-94491476D01*
X140984133Y-94491476D02*
X141222228Y-94491476D01*
X141222228Y-94491476D02*
X141412704Y-94539095D01*
X141412704Y-94539095D02*
X141507942Y-94586714D01*
X141507942Y-94586714D02*
X141555561Y-94634333D01*
X141555561Y-94634333D02*
X141603180Y-94729571D01*
D12*
X101728571Y-97312152D02*
X101657142Y-97276438D01*
X101657142Y-97276438D02*
X101585714Y-97205010D01*
X101585714Y-97205010D02*
X101478571Y-97097867D01*
X101478571Y-97097867D02*
X101407142Y-97062152D01*
X101407142Y-97062152D02*
X101335714Y-97062152D01*
X101371428Y-97240724D02*
X101300000Y-97205010D01*
X101300000Y-97205010D02*
X101228571Y-97133581D01*
X101228571Y-97133581D02*
X101192857Y-96990724D01*
X101192857Y-96990724D02*
X101192857Y-96740724D01*
X101192857Y-96740724D02*
X101228571Y-96597867D01*
X101228571Y-96597867D02*
X101300000Y-96526438D01*
X101300000Y-96526438D02*
X101371428Y-96490724D01*
X101371428Y-96490724D02*
X101514285Y-96490724D01*
X101514285Y-96490724D02*
X101585714Y-96526438D01*
X101585714Y-96526438D02*
X101657142Y-96597867D01*
X101657142Y-96597867D02*
X101692857Y-96740724D01*
X101692857Y-96740724D02*
X101692857Y-96990724D01*
X101692857Y-96990724D02*
X101657142Y-97133581D01*
X101657142Y-97133581D02*
X101585714Y-97205010D01*
X101585714Y-97205010D02*
X101514285Y-97240724D01*
X101514285Y-97240724D02*
X101371428Y-97240724D01*
X102407142Y-97240724D02*
X101978571Y-97240724D01*
X102192856Y-97240724D02*
X102192856Y-96490724D01*
X102192856Y-96490724D02*
X102121428Y-96597867D01*
X102121428Y-96597867D02*
X102049999Y-96669295D01*
X102049999Y-96669295D02*
X101978571Y-96705010D01*
D11*
X127894142Y-84713819D02*
X127560809Y-84237628D01*
X127322714Y-84713819D02*
X127322714Y-83713819D01*
X127322714Y-83713819D02*
X127703666Y-83713819D01*
X127703666Y-83713819D02*
X127798904Y-83761438D01*
X127798904Y-83761438D02*
X127846523Y-83809057D01*
X127846523Y-83809057D02*
X127894142Y-83904295D01*
X127894142Y-83904295D02*
X127894142Y-84047152D01*
X127894142Y-84047152D02*
X127846523Y-84142390D01*
X127846523Y-84142390D02*
X127798904Y-84190009D01*
X127798904Y-84190009D02*
X127703666Y-84237628D01*
X127703666Y-84237628D02*
X127322714Y-84237628D01*
X128846523Y-84713819D02*
X128275095Y-84713819D01*
X128560809Y-84713819D02*
X128560809Y-83713819D01*
X128560809Y-83713819D02*
X128465571Y-83856676D01*
X128465571Y-83856676D02*
X128370333Y-83951914D01*
X128370333Y-83951914D02*
X128275095Y-83999533D01*
X129227476Y-83809057D02*
X129275095Y-83761438D01*
X129275095Y-83761438D02*
X129370333Y-83713819D01*
X129370333Y-83713819D02*
X129608428Y-83713819D01*
X129608428Y-83713819D02*
X129703666Y-83761438D01*
X129703666Y-83761438D02*
X129751285Y-83809057D01*
X129751285Y-83809057D02*
X129798904Y-83904295D01*
X129798904Y-83904295D02*
X129798904Y-83999533D01*
X129798904Y-83999533D02*
X129751285Y-84142390D01*
X129751285Y-84142390D02*
X129179857Y-84713819D01*
X129179857Y-84713819D02*
X129798904Y-84713819D01*
X134970180Y-91263095D02*
X134160657Y-91263095D01*
X134160657Y-91263095D02*
X134065419Y-91310714D01*
X134065419Y-91310714D02*
X134017800Y-91358333D01*
X134017800Y-91358333D02*
X133970180Y-91453571D01*
X133970180Y-91453571D02*
X133970180Y-91644047D01*
X133970180Y-91644047D02*
X134017800Y-91739285D01*
X134017800Y-91739285D02*
X134065419Y-91786904D01*
X134065419Y-91786904D02*
X134160657Y-91834523D01*
X134160657Y-91834523D02*
X134970180Y-91834523D01*
X134636847Y-92739285D02*
X133970180Y-92739285D01*
X135017800Y-92501190D02*
X134303514Y-92263095D01*
X134303514Y-92263095D02*
X134303514Y-92882142D01*
D12*
X160116795Y-101082143D02*
X160152510Y-101117857D01*
X160152510Y-101117857D02*
X160188224Y-101225000D01*
X160188224Y-101225000D02*
X160188224Y-101296428D01*
X160188224Y-101296428D02*
X160152510Y-101403571D01*
X160152510Y-101403571D02*
X160081081Y-101475000D01*
X160081081Y-101475000D02*
X160009652Y-101510714D01*
X160009652Y-101510714D02*
X159866795Y-101546428D01*
X159866795Y-101546428D02*
X159759652Y-101546428D01*
X159759652Y-101546428D02*
X159616795Y-101510714D01*
X159616795Y-101510714D02*
X159545367Y-101475000D01*
X159545367Y-101475000D02*
X159473938Y-101403571D01*
X159473938Y-101403571D02*
X159438224Y-101296428D01*
X159438224Y-101296428D02*
X159438224Y-101225000D01*
X159438224Y-101225000D02*
X159473938Y-101117857D01*
X159473938Y-101117857D02*
X159509652Y-101082143D01*
X159509652Y-100796428D02*
X159473938Y-100760714D01*
X159473938Y-100760714D02*
X159438224Y-100689286D01*
X159438224Y-100689286D02*
X159438224Y-100510714D01*
X159438224Y-100510714D02*
X159473938Y-100439286D01*
X159473938Y-100439286D02*
X159509652Y-100403571D01*
X159509652Y-100403571D02*
X159581081Y-100367857D01*
X159581081Y-100367857D02*
X159652510Y-100367857D01*
X159652510Y-100367857D02*
X159759652Y-100403571D01*
X159759652Y-100403571D02*
X160188224Y-100832143D01*
X160188224Y-100832143D02*
X160188224Y-100367857D01*
X160188224Y-99653571D02*
X160188224Y-100082142D01*
X160188224Y-99867857D02*
X159438224Y-99867857D01*
X159438224Y-99867857D02*
X159545367Y-99939285D01*
X159545367Y-99939285D02*
X159616795Y-100010714D01*
X159616795Y-100010714D02*
X159652510Y-100082142D01*
D11*
X113530833Y-97159580D02*
X113483214Y-97207200D01*
X113483214Y-97207200D02*
X113340357Y-97254819D01*
X113340357Y-97254819D02*
X113245119Y-97254819D01*
X113245119Y-97254819D02*
X113102262Y-97207200D01*
X113102262Y-97207200D02*
X113007024Y-97111961D01*
X113007024Y-97111961D02*
X112959405Y-97016723D01*
X112959405Y-97016723D02*
X112911786Y-96826247D01*
X112911786Y-96826247D02*
X112911786Y-96683390D01*
X112911786Y-96683390D02*
X112959405Y-96492914D01*
X112959405Y-96492914D02*
X113007024Y-96397676D01*
X113007024Y-96397676D02*
X113102262Y-96302438D01*
X113102262Y-96302438D02*
X113245119Y-96254819D01*
X113245119Y-96254819D02*
X113340357Y-96254819D01*
X113340357Y-96254819D02*
X113483214Y-96302438D01*
X113483214Y-96302438D02*
X113530833Y-96350057D01*
X114483214Y-97254819D02*
X113911786Y-97254819D01*
X114197500Y-97254819D02*
X114197500Y-96254819D01*
X114197500Y-96254819D02*
X114102262Y-96397676D01*
X114102262Y-96397676D02*
X114007024Y-96492914D01*
X114007024Y-96492914D02*
X113911786Y-96540533D01*
X95307142Y-95459580D02*
X95259523Y-95507200D01*
X95259523Y-95507200D02*
X95116666Y-95554819D01*
X95116666Y-95554819D02*
X95021428Y-95554819D01*
X95021428Y-95554819D02*
X94878571Y-95507200D01*
X94878571Y-95507200D02*
X94783333Y-95411961D01*
X94783333Y-95411961D02*
X94735714Y-95316723D01*
X94735714Y-95316723D02*
X94688095Y-95126247D01*
X94688095Y-95126247D02*
X94688095Y-94983390D01*
X94688095Y-94983390D02*
X94735714Y-94792914D01*
X94735714Y-94792914D02*
X94783333Y-94697676D01*
X94783333Y-94697676D02*
X94878571Y-94602438D01*
X94878571Y-94602438D02*
X95021428Y-94554819D01*
X95021428Y-94554819D02*
X95116666Y-94554819D01*
X95116666Y-94554819D02*
X95259523Y-94602438D01*
X95259523Y-94602438D02*
X95307142Y-94650057D01*
X96259523Y-95554819D02*
X95688095Y-95554819D01*
X95973809Y-95554819D02*
X95973809Y-94554819D01*
X95973809Y-94554819D02*
X95878571Y-94697676D01*
X95878571Y-94697676D02*
X95783333Y-94792914D01*
X95783333Y-94792914D02*
X95688095Y-94840533D01*
X96878571Y-94554819D02*
X96973809Y-94554819D01*
X96973809Y-94554819D02*
X97069047Y-94602438D01*
X97069047Y-94602438D02*
X97116666Y-94650057D01*
X97116666Y-94650057D02*
X97164285Y-94745295D01*
X97164285Y-94745295D02*
X97211904Y-94935771D01*
X97211904Y-94935771D02*
X97211904Y-95173866D01*
X97211904Y-95173866D02*
X97164285Y-95364342D01*
X97164285Y-95364342D02*
X97116666Y-95459580D01*
X97116666Y-95459580D02*
X97069047Y-95507200D01*
X97069047Y-95507200D02*
X96973809Y-95554819D01*
X96973809Y-95554819D02*
X96878571Y-95554819D01*
X96878571Y-95554819D02*
X96783333Y-95507200D01*
X96783333Y-95507200D02*
X96735714Y-95459580D01*
X96735714Y-95459580D02*
X96688095Y-95364342D01*
X96688095Y-95364342D02*
X96640476Y-95173866D01*
X96640476Y-95173866D02*
X96640476Y-94935771D01*
X96640476Y-94935771D02*
X96688095Y-94745295D01*
X96688095Y-94745295D02*
X96735714Y-94650057D01*
X96735714Y-94650057D02*
X96783333Y-94602438D01*
X96783333Y-94602438D02*
X96878571Y-94554819D01*
X98392680Y-100285714D02*
X99392680Y-100285714D01*
X99392680Y-100285714D02*
X99392680Y-100523809D01*
X99392680Y-100523809D02*
X99345061Y-100666666D01*
X99345061Y-100666666D02*
X99249823Y-100761904D01*
X99249823Y-100761904D02*
X99154585Y-100809523D01*
X99154585Y-100809523D02*
X98964109Y-100857142D01*
X98964109Y-100857142D02*
X98821252Y-100857142D01*
X98821252Y-100857142D02*
X98630776Y-100809523D01*
X98630776Y-100809523D02*
X98535538Y-100761904D01*
X98535538Y-100761904D02*
X98440300Y-100666666D01*
X98440300Y-100666666D02*
X98392680Y-100523809D01*
X98392680Y-100523809D02*
X98392680Y-100285714D01*
X99297442Y-101238095D02*
X99345061Y-101285714D01*
X99345061Y-101285714D02*
X99392680Y-101380952D01*
X99392680Y-101380952D02*
X99392680Y-101619047D01*
X99392680Y-101619047D02*
X99345061Y-101714285D01*
X99345061Y-101714285D02*
X99297442Y-101761904D01*
X99297442Y-101761904D02*
X99202204Y-101809523D01*
X99202204Y-101809523D02*
X99106966Y-101809523D01*
X99106966Y-101809523D02*
X98964109Y-101761904D01*
X98964109Y-101761904D02*
X98392680Y-101190476D01*
X98392680Y-101190476D02*
X98392680Y-101809523D01*
X99392680Y-102714285D02*
X99392680Y-102238095D01*
X99392680Y-102238095D02*
X98916490Y-102190476D01*
X98916490Y-102190476D02*
X98964109Y-102238095D01*
X98964109Y-102238095D02*
X99011728Y-102333333D01*
X99011728Y-102333333D02*
X99011728Y-102571428D01*
X99011728Y-102571428D02*
X98964109Y-102666666D01*
X98964109Y-102666666D02*
X98916490Y-102714285D01*
X98916490Y-102714285D02*
X98821252Y-102761904D01*
X98821252Y-102761904D02*
X98583157Y-102761904D01*
X98583157Y-102761904D02*
X98487919Y-102714285D01*
X98487919Y-102714285D02*
X98440300Y-102666666D01*
X98440300Y-102666666D02*
X98392680Y-102571428D01*
X98392680Y-102571428D02*
X98392680Y-102333333D01*
X98392680Y-102333333D02*
X98440300Y-102238095D01*
X98440300Y-102238095D02*
X98487919Y-102190476D01*
D12*
X140686795Y-101082143D02*
X140722510Y-101117857D01*
X140722510Y-101117857D02*
X140758224Y-101225000D01*
X140758224Y-101225000D02*
X140758224Y-101296428D01*
X140758224Y-101296428D02*
X140722510Y-101403571D01*
X140722510Y-101403571D02*
X140651081Y-101475000D01*
X140651081Y-101475000D02*
X140579652Y-101510714D01*
X140579652Y-101510714D02*
X140436795Y-101546428D01*
X140436795Y-101546428D02*
X140329652Y-101546428D01*
X140329652Y-101546428D02*
X140186795Y-101510714D01*
X140186795Y-101510714D02*
X140115367Y-101475000D01*
X140115367Y-101475000D02*
X140043938Y-101403571D01*
X140043938Y-101403571D02*
X140008224Y-101296428D01*
X140008224Y-101296428D02*
X140008224Y-101225000D01*
X140008224Y-101225000D02*
X140043938Y-101117857D01*
X140043938Y-101117857D02*
X140079652Y-101082143D01*
X140758224Y-100367857D02*
X140758224Y-100796428D01*
X140758224Y-100582143D02*
X140008224Y-100582143D01*
X140008224Y-100582143D02*
X140115367Y-100653571D01*
X140115367Y-100653571D02*
X140186795Y-100725000D01*
X140186795Y-100725000D02*
X140222510Y-100796428D01*
X140008224Y-100117857D02*
X140008224Y-99617857D01*
X140008224Y-99617857D02*
X140758224Y-99939285D01*
X120686795Y-101082143D02*
X120722510Y-101117857D01*
X120722510Y-101117857D02*
X120758224Y-101225000D01*
X120758224Y-101225000D02*
X120758224Y-101296428D01*
X120758224Y-101296428D02*
X120722510Y-101403571D01*
X120722510Y-101403571D02*
X120651081Y-101475000D01*
X120651081Y-101475000D02*
X120579652Y-101510714D01*
X120579652Y-101510714D02*
X120436795Y-101546428D01*
X120436795Y-101546428D02*
X120329652Y-101546428D01*
X120329652Y-101546428D02*
X120186795Y-101510714D01*
X120186795Y-101510714D02*
X120115367Y-101475000D01*
X120115367Y-101475000D02*
X120043938Y-101403571D01*
X120043938Y-101403571D02*
X120008224Y-101296428D01*
X120008224Y-101296428D02*
X120008224Y-101225000D01*
X120008224Y-101225000D02*
X120043938Y-101117857D01*
X120043938Y-101117857D02*
X120079652Y-101082143D01*
X120758224Y-100367857D02*
X120758224Y-100796428D01*
X120758224Y-100582143D02*
X120008224Y-100582143D01*
X120008224Y-100582143D02*
X120115367Y-100653571D01*
X120115367Y-100653571D02*
X120186795Y-100725000D01*
X120186795Y-100725000D02*
X120222510Y-100796428D01*
X120008224Y-100117857D02*
X120008224Y-99653571D01*
X120008224Y-99653571D02*
X120293938Y-99903571D01*
X120293938Y-99903571D02*
X120293938Y-99796428D01*
X120293938Y-99796428D02*
X120329652Y-99725000D01*
X120329652Y-99725000D02*
X120365367Y-99689285D01*
X120365367Y-99689285D02*
X120436795Y-99653571D01*
X120436795Y-99653571D02*
X120615367Y-99653571D01*
X120615367Y-99653571D02*
X120686795Y-99689285D01*
X120686795Y-99689285D02*
X120722510Y-99725000D01*
X120722510Y-99725000D02*
X120758224Y-99796428D01*
X120758224Y-99796428D02*
X120758224Y-100010714D01*
X120758224Y-100010714D02*
X120722510Y-100082142D01*
X120722510Y-100082142D02*
X120686795Y-100117857D01*
D11*
X123144166Y-79874819D02*
X123144166Y-80589104D01*
X123144166Y-80589104D02*
X123096547Y-80731961D01*
X123096547Y-80731961D02*
X123001309Y-80827200D01*
X123001309Y-80827200D02*
X122858452Y-80874819D01*
X122858452Y-80874819D02*
X122763214Y-80874819D01*
X123572738Y-79970057D02*
X123620357Y-79922438D01*
X123620357Y-79922438D02*
X123715595Y-79874819D01*
X123715595Y-79874819D02*
X123953690Y-79874819D01*
X123953690Y-79874819D02*
X124048928Y-79922438D01*
X124048928Y-79922438D02*
X124096547Y-79970057D01*
X124096547Y-79970057D02*
X124144166Y-80065295D01*
X124144166Y-80065295D02*
X124144166Y-80160533D01*
X124144166Y-80160533D02*
X124096547Y-80303390D01*
X124096547Y-80303390D02*
X123525119Y-80874819D01*
X123525119Y-80874819D02*
X124144166Y-80874819D01*
D12*
X100616795Y-95382143D02*
X100652510Y-95417857D01*
X100652510Y-95417857D02*
X100688224Y-95525000D01*
X100688224Y-95525000D02*
X100688224Y-95596428D01*
X100688224Y-95596428D02*
X100652510Y-95703571D01*
X100652510Y-95703571D02*
X100581081Y-95775000D01*
X100581081Y-95775000D02*
X100509652Y-95810714D01*
X100509652Y-95810714D02*
X100366795Y-95846428D01*
X100366795Y-95846428D02*
X100259652Y-95846428D01*
X100259652Y-95846428D02*
X100116795Y-95810714D01*
X100116795Y-95810714D02*
X100045367Y-95775000D01*
X100045367Y-95775000D02*
X99973938Y-95703571D01*
X99973938Y-95703571D02*
X99938224Y-95596428D01*
X99938224Y-95596428D02*
X99938224Y-95525000D01*
X99938224Y-95525000D02*
X99973938Y-95417857D01*
X99973938Y-95417857D02*
X100009652Y-95382143D01*
X100188224Y-94739286D02*
X100688224Y-94739286D01*
X99902510Y-94917857D02*
X100438224Y-95096428D01*
X100438224Y-95096428D02*
X100438224Y-94632143D01*
X100009652Y-94382142D02*
X99973938Y-94346428D01*
X99973938Y-94346428D02*
X99938224Y-94275000D01*
X99938224Y-94275000D02*
X99938224Y-94096428D01*
X99938224Y-94096428D02*
X99973938Y-94025000D01*
X99973938Y-94025000D02*
X100009652Y-93989285D01*
X100009652Y-93989285D02*
X100081081Y-93953571D01*
X100081081Y-93953571D02*
X100152510Y-93953571D01*
X100152510Y-93953571D02*
X100259652Y-93989285D01*
X100259652Y-93989285D02*
X100688224Y-94417857D01*
X100688224Y-94417857D02*
X100688224Y-93953571D01*
D11*
X100680833Y-83804819D02*
X100347500Y-83328628D01*
X100109405Y-83804819D02*
X100109405Y-82804819D01*
X100109405Y-82804819D02*
X100490357Y-82804819D01*
X100490357Y-82804819D02*
X100585595Y-82852438D01*
X100585595Y-82852438D02*
X100633214Y-82900057D01*
X100633214Y-82900057D02*
X100680833Y-82995295D01*
X100680833Y-82995295D02*
X100680833Y-83138152D01*
X100680833Y-83138152D02*
X100633214Y-83233390D01*
X100633214Y-83233390D02*
X100585595Y-83281009D01*
X100585595Y-83281009D02*
X100490357Y-83328628D01*
X100490357Y-83328628D02*
X100109405Y-83328628D01*
X101014167Y-82804819D02*
X101680833Y-82804819D01*
X101680833Y-82804819D02*
X101252262Y-83804819D01*
D12*
X170116795Y-101082143D02*
X170152510Y-101117857D01*
X170152510Y-101117857D02*
X170188224Y-101225000D01*
X170188224Y-101225000D02*
X170188224Y-101296428D01*
X170188224Y-101296428D02*
X170152510Y-101403571D01*
X170152510Y-101403571D02*
X170081081Y-101475000D01*
X170081081Y-101475000D02*
X170009652Y-101510714D01*
X170009652Y-101510714D02*
X169866795Y-101546428D01*
X169866795Y-101546428D02*
X169759652Y-101546428D01*
X169759652Y-101546428D02*
X169616795Y-101510714D01*
X169616795Y-101510714D02*
X169545367Y-101475000D01*
X169545367Y-101475000D02*
X169473938Y-101403571D01*
X169473938Y-101403571D02*
X169438224Y-101296428D01*
X169438224Y-101296428D02*
X169438224Y-101225000D01*
X169438224Y-101225000D02*
X169473938Y-101117857D01*
X169473938Y-101117857D02*
X169509652Y-101082143D01*
X169509652Y-100796428D02*
X169473938Y-100760714D01*
X169473938Y-100760714D02*
X169438224Y-100689286D01*
X169438224Y-100689286D02*
X169438224Y-100510714D01*
X169438224Y-100510714D02*
X169473938Y-100439286D01*
X169473938Y-100439286D02*
X169509652Y-100403571D01*
X169509652Y-100403571D02*
X169581081Y-100367857D01*
X169581081Y-100367857D02*
X169652510Y-100367857D01*
X169652510Y-100367857D02*
X169759652Y-100403571D01*
X169759652Y-100403571D02*
X170188224Y-100832143D01*
X170188224Y-100832143D02*
X170188224Y-100367857D01*
X169438224Y-100117857D02*
X169438224Y-99653571D01*
X169438224Y-99653571D02*
X169723938Y-99903571D01*
X169723938Y-99903571D02*
X169723938Y-99796428D01*
X169723938Y-99796428D02*
X169759652Y-99725000D01*
X169759652Y-99725000D02*
X169795367Y-99689285D01*
X169795367Y-99689285D02*
X169866795Y-99653571D01*
X169866795Y-99653571D02*
X170045367Y-99653571D01*
X170045367Y-99653571D02*
X170116795Y-99689285D01*
X170116795Y-99689285D02*
X170152510Y-99725000D01*
X170152510Y-99725000D02*
X170188224Y-99796428D01*
X170188224Y-99796428D02*
X170188224Y-100010714D01*
X170188224Y-100010714D02*
X170152510Y-100082142D01*
X170152510Y-100082142D02*
X170116795Y-100117857D01*
D11*
X96154642Y-78709580D02*
X96107023Y-78757200D01*
X96107023Y-78757200D02*
X95964166Y-78804819D01*
X95964166Y-78804819D02*
X95868928Y-78804819D01*
X95868928Y-78804819D02*
X95726071Y-78757200D01*
X95726071Y-78757200D02*
X95630833Y-78661961D01*
X95630833Y-78661961D02*
X95583214Y-78566723D01*
X95583214Y-78566723D02*
X95535595Y-78376247D01*
X95535595Y-78376247D02*
X95535595Y-78233390D01*
X95535595Y-78233390D02*
X95583214Y-78042914D01*
X95583214Y-78042914D02*
X95630833Y-77947676D01*
X95630833Y-77947676D02*
X95726071Y-77852438D01*
X95726071Y-77852438D02*
X95868928Y-77804819D01*
X95868928Y-77804819D02*
X95964166Y-77804819D01*
X95964166Y-77804819D02*
X96107023Y-77852438D01*
X96107023Y-77852438D02*
X96154642Y-77900057D01*
X96487976Y-77804819D02*
X97107023Y-77804819D01*
X97107023Y-77804819D02*
X96773690Y-78185771D01*
X96773690Y-78185771D02*
X96916547Y-78185771D01*
X96916547Y-78185771D02*
X97011785Y-78233390D01*
X97011785Y-78233390D02*
X97059404Y-78281009D01*
X97059404Y-78281009D02*
X97107023Y-78376247D01*
X97107023Y-78376247D02*
X97107023Y-78614342D01*
X97107023Y-78614342D02*
X97059404Y-78709580D01*
X97059404Y-78709580D02*
X97011785Y-78757200D01*
X97011785Y-78757200D02*
X96916547Y-78804819D01*
X96916547Y-78804819D02*
X96630833Y-78804819D01*
X96630833Y-78804819D02*
X96535595Y-78757200D01*
X96535595Y-78757200D02*
X96487976Y-78709580D01*
X97678452Y-78233390D02*
X97583214Y-78185771D01*
X97583214Y-78185771D02*
X97535595Y-78138152D01*
X97535595Y-78138152D02*
X97487976Y-78042914D01*
X97487976Y-78042914D02*
X97487976Y-77995295D01*
X97487976Y-77995295D02*
X97535595Y-77900057D01*
X97535595Y-77900057D02*
X97583214Y-77852438D01*
X97583214Y-77852438D02*
X97678452Y-77804819D01*
X97678452Y-77804819D02*
X97868928Y-77804819D01*
X97868928Y-77804819D02*
X97964166Y-77852438D01*
X97964166Y-77852438D02*
X98011785Y-77900057D01*
X98011785Y-77900057D02*
X98059404Y-77995295D01*
X98059404Y-77995295D02*
X98059404Y-78042914D01*
X98059404Y-78042914D02*
X98011785Y-78138152D01*
X98011785Y-78138152D02*
X97964166Y-78185771D01*
X97964166Y-78185771D02*
X97868928Y-78233390D01*
X97868928Y-78233390D02*
X97678452Y-78233390D01*
X97678452Y-78233390D02*
X97583214Y-78281009D01*
X97583214Y-78281009D02*
X97535595Y-78328628D01*
X97535595Y-78328628D02*
X97487976Y-78423866D01*
X97487976Y-78423866D02*
X97487976Y-78614342D01*
X97487976Y-78614342D02*
X97535595Y-78709580D01*
X97535595Y-78709580D02*
X97583214Y-78757200D01*
X97583214Y-78757200D02*
X97678452Y-78804819D01*
X97678452Y-78804819D02*
X97868928Y-78804819D01*
X97868928Y-78804819D02*
X97964166Y-78757200D01*
X97964166Y-78757200D02*
X98011785Y-78709580D01*
X98011785Y-78709580D02*
X98059404Y-78614342D01*
X98059404Y-78614342D02*
X98059404Y-78423866D01*
X98059404Y-78423866D02*
X98011785Y-78328628D01*
X98011785Y-78328628D02*
X97964166Y-78281009D01*
X97964166Y-78281009D02*
X97868928Y-78233390D01*
X92537919Y-90433333D02*
X92490300Y-90385714D01*
X92490300Y-90385714D02*
X92442680Y-90242857D01*
X92442680Y-90242857D02*
X92442680Y-90147619D01*
X92442680Y-90147619D02*
X92490300Y-90004762D01*
X92490300Y-90004762D02*
X92585538Y-89909524D01*
X92585538Y-89909524D02*
X92680776Y-89861905D01*
X92680776Y-89861905D02*
X92871252Y-89814286D01*
X92871252Y-89814286D02*
X93014109Y-89814286D01*
X93014109Y-89814286D02*
X93204585Y-89861905D01*
X93204585Y-89861905D02*
X93299823Y-89909524D01*
X93299823Y-89909524D02*
X93395061Y-90004762D01*
X93395061Y-90004762D02*
X93442680Y-90147619D01*
X93442680Y-90147619D02*
X93442680Y-90242857D01*
X93442680Y-90242857D02*
X93395061Y-90385714D01*
X93395061Y-90385714D02*
X93347442Y-90433333D01*
X93442680Y-90766667D02*
X93442680Y-91433333D01*
X93442680Y-91433333D02*
X92442680Y-91004762D01*
X99592680Y-85538095D02*
X98783157Y-85538095D01*
X98783157Y-85538095D02*
X98687919Y-85585714D01*
X98687919Y-85585714D02*
X98640300Y-85633333D01*
X98640300Y-85633333D02*
X98592680Y-85728571D01*
X98592680Y-85728571D02*
X98592680Y-85919047D01*
X98592680Y-85919047D02*
X98640300Y-86014285D01*
X98640300Y-86014285D02*
X98687919Y-86061904D01*
X98687919Y-86061904D02*
X98783157Y-86109523D01*
X98783157Y-86109523D02*
X99592680Y-86109523D01*
X99497442Y-86538095D02*
X99545061Y-86585714D01*
X99545061Y-86585714D02*
X99592680Y-86680952D01*
X99592680Y-86680952D02*
X99592680Y-86919047D01*
X99592680Y-86919047D02*
X99545061Y-87014285D01*
X99545061Y-87014285D02*
X99497442Y-87061904D01*
X99497442Y-87061904D02*
X99402204Y-87109523D01*
X99402204Y-87109523D02*
X99306966Y-87109523D01*
X99306966Y-87109523D02*
X99164109Y-87061904D01*
X99164109Y-87061904D02*
X98592680Y-86490476D01*
X98592680Y-86490476D02*
X98592680Y-87109523D01*
X117391717Y-97159580D02*
X117344098Y-97207200D01*
X117344098Y-97207200D02*
X117201241Y-97254819D01*
X117201241Y-97254819D02*
X117106003Y-97254819D01*
X117106003Y-97254819D02*
X116963146Y-97207200D01*
X116963146Y-97207200D02*
X116867908Y-97111961D01*
X116867908Y-97111961D02*
X116820289Y-97016723D01*
X116820289Y-97016723D02*
X116772670Y-96826247D01*
X116772670Y-96826247D02*
X116772670Y-96683390D01*
X116772670Y-96683390D02*
X116820289Y-96492914D01*
X116820289Y-96492914D02*
X116867908Y-96397676D01*
X116867908Y-96397676D02*
X116963146Y-96302438D01*
X116963146Y-96302438D02*
X117106003Y-96254819D01*
X117106003Y-96254819D02*
X117201241Y-96254819D01*
X117201241Y-96254819D02*
X117344098Y-96302438D01*
X117344098Y-96302438D02*
X117391717Y-96350057D01*
X117772670Y-96350057D02*
X117820289Y-96302438D01*
X117820289Y-96302438D02*
X117915527Y-96254819D01*
X117915527Y-96254819D02*
X118153622Y-96254819D01*
X118153622Y-96254819D02*
X118248860Y-96302438D01*
X118248860Y-96302438D02*
X118296479Y-96350057D01*
X118296479Y-96350057D02*
X118344098Y-96445295D01*
X118344098Y-96445295D02*
X118344098Y-96540533D01*
X118344098Y-96540533D02*
X118296479Y-96683390D01*
X118296479Y-96683390D02*
X117725051Y-97254819D01*
X117725051Y-97254819D02*
X118344098Y-97254819D01*
X131284142Y-84713819D02*
X130950809Y-84237628D01*
X130712714Y-84713819D02*
X130712714Y-83713819D01*
X130712714Y-83713819D02*
X131093666Y-83713819D01*
X131093666Y-83713819D02*
X131188904Y-83761438D01*
X131188904Y-83761438D02*
X131236523Y-83809057D01*
X131236523Y-83809057D02*
X131284142Y-83904295D01*
X131284142Y-83904295D02*
X131284142Y-84047152D01*
X131284142Y-84047152D02*
X131236523Y-84142390D01*
X131236523Y-84142390D02*
X131188904Y-84190009D01*
X131188904Y-84190009D02*
X131093666Y-84237628D01*
X131093666Y-84237628D02*
X130712714Y-84237628D01*
X132236523Y-84713819D02*
X131665095Y-84713819D01*
X131950809Y-84713819D02*
X131950809Y-83713819D01*
X131950809Y-83713819D02*
X131855571Y-83856676D01*
X131855571Y-83856676D02*
X131760333Y-83951914D01*
X131760333Y-83951914D02*
X131665095Y-83999533D01*
X132569857Y-83713819D02*
X133188904Y-83713819D01*
X133188904Y-83713819D02*
X132855571Y-84094771D01*
X132855571Y-84094771D02*
X132998428Y-84094771D01*
X132998428Y-84094771D02*
X133093666Y-84142390D01*
X133093666Y-84142390D02*
X133141285Y-84190009D01*
X133141285Y-84190009D02*
X133188904Y-84285247D01*
X133188904Y-84285247D02*
X133188904Y-84523342D01*
X133188904Y-84523342D02*
X133141285Y-84618580D01*
X133141285Y-84618580D02*
X133093666Y-84666200D01*
X133093666Y-84666200D02*
X132998428Y-84713819D01*
X132998428Y-84713819D02*
X132712714Y-84713819D01*
X132712714Y-84713819D02*
X132617476Y-84666200D01*
X132617476Y-84666200D02*
X132569857Y-84618580D01*
X224585714Y-97554819D02*
X224585714Y-96554819D01*
X224585714Y-96554819D02*
X224823809Y-96554819D01*
X224823809Y-96554819D02*
X224966666Y-96602438D01*
X224966666Y-96602438D02*
X225061904Y-96697676D01*
X225061904Y-96697676D02*
X225109523Y-96792914D01*
X225109523Y-96792914D02*
X225157142Y-96983390D01*
X225157142Y-96983390D02*
X225157142Y-97126247D01*
X225157142Y-97126247D02*
X225109523Y-97316723D01*
X225109523Y-97316723D02*
X225061904Y-97411961D01*
X225061904Y-97411961D02*
X224966666Y-97507200D01*
X224966666Y-97507200D02*
X224823809Y-97554819D01*
X224823809Y-97554819D02*
X224585714Y-97554819D01*
X225538095Y-96650057D02*
X225585714Y-96602438D01*
X225585714Y-96602438D02*
X225680952Y-96554819D01*
X225680952Y-96554819D02*
X225919047Y-96554819D01*
X225919047Y-96554819D02*
X226014285Y-96602438D01*
X226014285Y-96602438D02*
X226061904Y-96650057D01*
X226061904Y-96650057D02*
X226109523Y-96745295D01*
X226109523Y-96745295D02*
X226109523Y-96840533D01*
X226109523Y-96840533D02*
X226061904Y-96983390D01*
X226061904Y-96983390D02*
X225490476Y-97554819D01*
X225490476Y-97554819D02*
X226109523Y-97554819D01*
X226442857Y-96554819D02*
X227061904Y-96554819D01*
X227061904Y-96554819D02*
X226728571Y-96935771D01*
X226728571Y-96935771D02*
X226871428Y-96935771D01*
X226871428Y-96935771D02*
X226966666Y-96983390D01*
X226966666Y-96983390D02*
X227014285Y-97031009D01*
X227014285Y-97031009D02*
X227061904Y-97126247D01*
X227061904Y-97126247D02*
X227061904Y-97364342D01*
X227061904Y-97364342D02*
X227014285Y-97459580D01*
X227014285Y-97459580D02*
X226966666Y-97507200D01*
X226966666Y-97507200D02*
X226871428Y-97554819D01*
X226871428Y-97554819D02*
X226585714Y-97554819D01*
X226585714Y-97554819D02*
X226490476Y-97507200D01*
X226490476Y-97507200D02*
X226442857Y-97459580D01*
D12*
X106340724Y-103946428D02*
X106340724Y-103517857D01*
X107090724Y-103732142D02*
X106340724Y-103732142D01*
X107090724Y-103267856D02*
X106340724Y-103267856D01*
X106340724Y-103267856D02*
X106340724Y-102982142D01*
X106340724Y-102982142D02*
X106376438Y-102910713D01*
X106376438Y-102910713D02*
X106412152Y-102874999D01*
X106412152Y-102874999D02*
X106483581Y-102839285D01*
X106483581Y-102839285D02*
X106590724Y-102839285D01*
X106590724Y-102839285D02*
X106662152Y-102874999D01*
X106662152Y-102874999D02*
X106697867Y-102910713D01*
X106697867Y-102910713D02*
X106733581Y-102982142D01*
X106733581Y-102982142D02*
X106733581Y-103267856D01*
X106340724Y-102589285D02*
X106340724Y-102124999D01*
X106340724Y-102124999D02*
X106626438Y-102374999D01*
X106626438Y-102374999D02*
X106626438Y-102267856D01*
X106626438Y-102267856D02*
X106662152Y-102196428D01*
X106662152Y-102196428D02*
X106697867Y-102160713D01*
X106697867Y-102160713D02*
X106769295Y-102124999D01*
X106769295Y-102124999D02*
X106947867Y-102124999D01*
X106947867Y-102124999D02*
X107019295Y-102160713D01*
X107019295Y-102160713D02*
X107055010Y-102196428D01*
X107055010Y-102196428D02*
X107090724Y-102267856D01*
X107090724Y-102267856D02*
X107090724Y-102482142D01*
X107090724Y-102482142D02*
X107055010Y-102553570D01*
X107055010Y-102553570D02*
X107019295Y-102589285D01*
D11*
X100742680Y-101138095D02*
X99933157Y-101138095D01*
X99933157Y-101138095D02*
X99837919Y-101185714D01*
X99837919Y-101185714D02*
X99790300Y-101233333D01*
X99790300Y-101233333D02*
X99742680Y-101328571D01*
X99742680Y-101328571D02*
X99742680Y-101519047D01*
X99742680Y-101519047D02*
X99790300Y-101614285D01*
X99790300Y-101614285D02*
X99837919Y-101661904D01*
X99837919Y-101661904D02*
X99933157Y-101709523D01*
X99933157Y-101709523D02*
X100742680Y-101709523D01*
X100742680Y-102090476D02*
X100742680Y-102709523D01*
X100742680Y-102709523D02*
X100361728Y-102376190D01*
X100361728Y-102376190D02*
X100361728Y-102519047D01*
X100361728Y-102519047D02*
X100314109Y-102614285D01*
X100314109Y-102614285D02*
X100266490Y-102661904D01*
X100266490Y-102661904D02*
X100171252Y-102709523D01*
X100171252Y-102709523D02*
X99933157Y-102709523D01*
X99933157Y-102709523D02*
X99837919Y-102661904D01*
X99837919Y-102661904D02*
X99790300Y-102614285D01*
X99790300Y-102614285D02*
X99742680Y-102519047D01*
X99742680Y-102519047D02*
X99742680Y-102233333D01*
X99742680Y-102233333D02*
X99790300Y-102138095D01*
X99790300Y-102138095D02*
X99837919Y-102090476D01*
D12*
X107398571Y-98540724D02*
X107827143Y-98540724D01*
X107612857Y-99290724D02*
X107612857Y-98540724D01*
X108077143Y-99290724D02*
X108077143Y-98540724D01*
X108077143Y-98540724D02*
X108362857Y-98540724D01*
X108362857Y-98540724D02*
X108434286Y-98576438D01*
X108434286Y-98576438D02*
X108470000Y-98612152D01*
X108470000Y-98612152D02*
X108505714Y-98683581D01*
X108505714Y-98683581D02*
X108505714Y-98790724D01*
X108505714Y-98790724D02*
X108470000Y-98862152D01*
X108470000Y-98862152D02*
X108434286Y-98897867D01*
X108434286Y-98897867D02*
X108362857Y-98933581D01*
X108362857Y-98933581D02*
X108077143Y-98933581D01*
X108791429Y-98612152D02*
X108827143Y-98576438D01*
X108827143Y-98576438D02*
X108898572Y-98540724D01*
X108898572Y-98540724D02*
X109077143Y-98540724D01*
X109077143Y-98540724D02*
X109148572Y-98576438D01*
X109148572Y-98576438D02*
X109184286Y-98612152D01*
X109184286Y-98612152D02*
X109220000Y-98683581D01*
X109220000Y-98683581D02*
X109220000Y-98755010D01*
X109220000Y-98755010D02*
X109184286Y-98862152D01*
X109184286Y-98862152D02*
X108755714Y-99290724D01*
X108755714Y-99290724D02*
X109220000Y-99290724D01*
X180116795Y-101082143D02*
X180152510Y-101117857D01*
X180152510Y-101117857D02*
X180188224Y-101225000D01*
X180188224Y-101225000D02*
X180188224Y-101296428D01*
X180188224Y-101296428D02*
X180152510Y-101403571D01*
X180152510Y-101403571D02*
X180081081Y-101475000D01*
X180081081Y-101475000D02*
X180009652Y-101510714D01*
X180009652Y-101510714D02*
X179866795Y-101546428D01*
X179866795Y-101546428D02*
X179759652Y-101546428D01*
X179759652Y-101546428D02*
X179616795Y-101510714D01*
X179616795Y-101510714D02*
X179545367Y-101475000D01*
X179545367Y-101475000D02*
X179473938Y-101403571D01*
X179473938Y-101403571D02*
X179438224Y-101296428D01*
X179438224Y-101296428D02*
X179438224Y-101225000D01*
X179438224Y-101225000D02*
X179473938Y-101117857D01*
X179473938Y-101117857D02*
X179509652Y-101082143D01*
X179509652Y-100796428D02*
X179473938Y-100760714D01*
X179473938Y-100760714D02*
X179438224Y-100689286D01*
X179438224Y-100689286D02*
X179438224Y-100510714D01*
X179438224Y-100510714D02*
X179473938Y-100439286D01*
X179473938Y-100439286D02*
X179509652Y-100403571D01*
X179509652Y-100403571D02*
X179581081Y-100367857D01*
X179581081Y-100367857D02*
X179652510Y-100367857D01*
X179652510Y-100367857D02*
X179759652Y-100403571D01*
X179759652Y-100403571D02*
X180188224Y-100832143D01*
X180188224Y-100832143D02*
X180188224Y-100367857D01*
X179438224Y-99689285D02*
X179438224Y-100046428D01*
X179438224Y-100046428D02*
X179795367Y-100082142D01*
X179795367Y-100082142D02*
X179759652Y-100046428D01*
X179759652Y-100046428D02*
X179723938Y-99975000D01*
X179723938Y-99975000D02*
X179723938Y-99796428D01*
X179723938Y-99796428D02*
X179759652Y-99725000D01*
X179759652Y-99725000D02*
X179795367Y-99689285D01*
X179795367Y-99689285D02*
X179866795Y-99653571D01*
X179866795Y-99653571D02*
X180045367Y-99653571D01*
X180045367Y-99653571D02*
X180116795Y-99689285D01*
X180116795Y-99689285D02*
X180152510Y-99725000D01*
X180152510Y-99725000D02*
X180188224Y-99796428D01*
X180188224Y-99796428D02*
X180188224Y-99975000D01*
X180188224Y-99975000D02*
X180152510Y-100046428D01*
X180152510Y-100046428D02*
X180116795Y-100082142D01*
X126801071Y-91540724D02*
X127229643Y-91540724D01*
X127015357Y-92290724D02*
X127015357Y-91540724D01*
X127479643Y-92290724D02*
X127479643Y-91540724D01*
X127479643Y-91540724D02*
X127765357Y-91540724D01*
X127765357Y-91540724D02*
X127836786Y-91576438D01*
X127836786Y-91576438D02*
X127872500Y-91612152D01*
X127872500Y-91612152D02*
X127908214Y-91683581D01*
X127908214Y-91683581D02*
X127908214Y-91790724D01*
X127908214Y-91790724D02*
X127872500Y-91862152D01*
X127872500Y-91862152D02*
X127836786Y-91897867D01*
X127836786Y-91897867D02*
X127765357Y-91933581D01*
X127765357Y-91933581D02*
X127479643Y-91933581D01*
X128551072Y-91790724D02*
X128551072Y-92290724D01*
X128372500Y-91505010D02*
X128193929Y-92040724D01*
X128193929Y-92040724D02*
X128658214Y-92040724D01*
D11*
X184585714Y-97554819D02*
X184585714Y-96554819D01*
X184585714Y-96554819D02*
X184823809Y-96554819D01*
X184823809Y-96554819D02*
X184966666Y-96602438D01*
X184966666Y-96602438D02*
X185061904Y-96697676D01*
X185061904Y-96697676D02*
X185109523Y-96792914D01*
X185109523Y-96792914D02*
X185157142Y-96983390D01*
X185157142Y-96983390D02*
X185157142Y-97126247D01*
X185157142Y-97126247D02*
X185109523Y-97316723D01*
X185109523Y-97316723D02*
X185061904Y-97411961D01*
X185061904Y-97411961D02*
X184966666Y-97507200D01*
X184966666Y-97507200D02*
X184823809Y-97554819D01*
X184823809Y-97554819D02*
X184585714Y-97554819D01*
X186109523Y-97554819D02*
X185538095Y-97554819D01*
X185823809Y-97554819D02*
X185823809Y-96554819D01*
X185823809Y-96554819D02*
X185728571Y-96697676D01*
X185728571Y-96697676D02*
X185633333Y-96792914D01*
X185633333Y-96792914D02*
X185538095Y-96840533D01*
X187014285Y-96554819D02*
X186538095Y-96554819D01*
X186538095Y-96554819D02*
X186490476Y-97031009D01*
X186490476Y-97031009D02*
X186538095Y-96983390D01*
X186538095Y-96983390D02*
X186633333Y-96935771D01*
X186633333Y-96935771D02*
X186871428Y-96935771D01*
X186871428Y-96935771D02*
X186966666Y-96983390D01*
X186966666Y-96983390D02*
X187014285Y-97031009D01*
X187014285Y-97031009D02*
X187061904Y-97126247D01*
X187061904Y-97126247D02*
X187061904Y-97364342D01*
X187061904Y-97364342D02*
X187014285Y-97459580D01*
X187014285Y-97459580D02*
X186966666Y-97507200D01*
X186966666Y-97507200D02*
X186871428Y-97554819D01*
X186871428Y-97554819D02*
X186633333Y-97554819D01*
X186633333Y-97554819D02*
X186538095Y-97507200D01*
X186538095Y-97507200D02*
X186490476Y-97459580D01*
X194585714Y-97554819D02*
X194585714Y-96554819D01*
X194585714Y-96554819D02*
X194823809Y-96554819D01*
X194823809Y-96554819D02*
X194966666Y-96602438D01*
X194966666Y-96602438D02*
X195061904Y-96697676D01*
X195061904Y-96697676D02*
X195109523Y-96792914D01*
X195109523Y-96792914D02*
X195157142Y-96983390D01*
X195157142Y-96983390D02*
X195157142Y-97126247D01*
X195157142Y-97126247D02*
X195109523Y-97316723D01*
X195109523Y-97316723D02*
X195061904Y-97411961D01*
X195061904Y-97411961D02*
X194966666Y-97507200D01*
X194966666Y-97507200D02*
X194823809Y-97554819D01*
X194823809Y-97554819D02*
X194585714Y-97554819D01*
X196109523Y-97554819D02*
X195538095Y-97554819D01*
X195823809Y-97554819D02*
X195823809Y-96554819D01*
X195823809Y-96554819D02*
X195728571Y-96697676D01*
X195728571Y-96697676D02*
X195633333Y-96792914D01*
X195633333Y-96792914D02*
X195538095Y-96840533D01*
X196442857Y-96554819D02*
X197109523Y-96554819D01*
X197109523Y-96554819D02*
X196680952Y-97554819D01*
X214585714Y-97554819D02*
X214585714Y-96554819D01*
X214585714Y-96554819D02*
X214823809Y-96554819D01*
X214823809Y-96554819D02*
X214966666Y-96602438D01*
X214966666Y-96602438D02*
X215061904Y-96697676D01*
X215061904Y-96697676D02*
X215109523Y-96792914D01*
X215109523Y-96792914D02*
X215157142Y-96983390D01*
X215157142Y-96983390D02*
X215157142Y-97126247D01*
X215157142Y-97126247D02*
X215109523Y-97316723D01*
X215109523Y-97316723D02*
X215061904Y-97411961D01*
X215061904Y-97411961D02*
X214966666Y-97507200D01*
X214966666Y-97507200D02*
X214823809Y-97554819D01*
X214823809Y-97554819D02*
X214585714Y-97554819D01*
X215538095Y-96650057D02*
X215585714Y-96602438D01*
X215585714Y-96602438D02*
X215680952Y-96554819D01*
X215680952Y-96554819D02*
X215919047Y-96554819D01*
X215919047Y-96554819D02*
X216014285Y-96602438D01*
X216014285Y-96602438D02*
X216061904Y-96650057D01*
X216061904Y-96650057D02*
X216109523Y-96745295D01*
X216109523Y-96745295D02*
X216109523Y-96840533D01*
X216109523Y-96840533D02*
X216061904Y-96983390D01*
X216061904Y-96983390D02*
X215490476Y-97554819D01*
X215490476Y-97554819D02*
X216109523Y-97554819D01*
X217061904Y-97554819D02*
X216490476Y-97554819D01*
X216776190Y-97554819D02*
X216776190Y-96554819D01*
X216776190Y-96554819D02*
X216680952Y-96697676D01*
X216680952Y-96697676D02*
X216585714Y-96792914D01*
X216585714Y-96792914D02*
X216490476Y-96840533D01*
X90642680Y-75180476D02*
X91642680Y-75180476D01*
X91642680Y-75180476D02*
X90928395Y-75513809D01*
X90928395Y-75513809D02*
X91642680Y-75847142D01*
X91642680Y-75847142D02*
X90642680Y-75847142D01*
X90642680Y-76323333D02*
X91642680Y-76323333D01*
X90642680Y-76894761D02*
X91214109Y-76466190D01*
X91642680Y-76894761D02*
X91071252Y-76323333D01*
X90642680Y-77847142D02*
X90642680Y-77275714D01*
X90642680Y-77561428D02*
X91642680Y-77561428D01*
X91642680Y-77561428D02*
X91499823Y-77466190D01*
X91499823Y-77466190D02*
X91404585Y-77370952D01*
X91404585Y-77370952D02*
X91356966Y-77275714D01*
X98492680Y-81983333D02*
X98968871Y-81650000D01*
X98492680Y-81411905D02*
X99492680Y-81411905D01*
X99492680Y-81411905D02*
X99492680Y-81792857D01*
X99492680Y-81792857D02*
X99445061Y-81888095D01*
X99445061Y-81888095D02*
X99397442Y-81935714D01*
X99397442Y-81935714D02*
X99302204Y-81983333D01*
X99302204Y-81983333D02*
X99159347Y-81983333D01*
X99159347Y-81983333D02*
X99064109Y-81935714D01*
X99064109Y-81935714D02*
X99016490Y-81888095D01*
X99016490Y-81888095D02*
X98968871Y-81792857D01*
X98968871Y-81792857D02*
X98968871Y-81411905D01*
X98492680Y-82459524D02*
X98492680Y-82650000D01*
X98492680Y-82650000D02*
X98540300Y-82745238D01*
X98540300Y-82745238D02*
X98587919Y-82792857D01*
X98587919Y-82792857D02*
X98730776Y-82888095D01*
X98730776Y-82888095D02*
X98921252Y-82935714D01*
X98921252Y-82935714D02*
X99302204Y-82935714D01*
X99302204Y-82935714D02*
X99397442Y-82888095D01*
X99397442Y-82888095D02*
X99445061Y-82840476D01*
X99445061Y-82840476D02*
X99492680Y-82745238D01*
X99492680Y-82745238D02*
X99492680Y-82554762D01*
X99492680Y-82554762D02*
X99445061Y-82459524D01*
X99445061Y-82459524D02*
X99397442Y-82411905D01*
X99397442Y-82411905D02*
X99302204Y-82364286D01*
X99302204Y-82364286D02*
X99064109Y-82364286D01*
X99064109Y-82364286D02*
X98968871Y-82411905D01*
X98968871Y-82411905D02*
X98921252Y-82459524D01*
X98921252Y-82459524D02*
X98873633Y-82554762D01*
X98873633Y-82554762D02*
X98873633Y-82745238D01*
X98873633Y-82745238D02*
X98921252Y-82840476D01*
X98921252Y-82840476D02*
X98968871Y-82888095D01*
X98968871Y-82888095D02*
X99064109Y-82935714D01*
X204585714Y-97554819D02*
X204585714Y-96554819D01*
X204585714Y-96554819D02*
X204823809Y-96554819D01*
X204823809Y-96554819D02*
X204966666Y-96602438D01*
X204966666Y-96602438D02*
X205061904Y-96697676D01*
X205061904Y-96697676D02*
X205109523Y-96792914D01*
X205109523Y-96792914D02*
X205157142Y-96983390D01*
X205157142Y-96983390D02*
X205157142Y-97126247D01*
X205157142Y-97126247D02*
X205109523Y-97316723D01*
X205109523Y-97316723D02*
X205061904Y-97411961D01*
X205061904Y-97411961D02*
X204966666Y-97507200D01*
X204966666Y-97507200D02*
X204823809Y-97554819D01*
X204823809Y-97554819D02*
X204585714Y-97554819D01*
X206109523Y-97554819D02*
X205538095Y-97554819D01*
X205823809Y-97554819D02*
X205823809Y-96554819D01*
X205823809Y-96554819D02*
X205728571Y-96697676D01*
X205728571Y-96697676D02*
X205633333Y-96792914D01*
X205633333Y-96792914D02*
X205538095Y-96840533D01*
X206585714Y-97554819D02*
X206776190Y-97554819D01*
X206776190Y-97554819D02*
X206871428Y-97507200D01*
X206871428Y-97507200D02*
X206919047Y-97459580D01*
X206919047Y-97459580D02*
X207014285Y-97316723D01*
X207014285Y-97316723D02*
X207061904Y-97126247D01*
X207061904Y-97126247D02*
X207061904Y-96745295D01*
X207061904Y-96745295D02*
X207014285Y-96650057D01*
X207014285Y-96650057D02*
X206966666Y-96602438D01*
X206966666Y-96602438D02*
X206871428Y-96554819D01*
X206871428Y-96554819D02*
X206680952Y-96554819D01*
X206680952Y-96554819D02*
X206585714Y-96602438D01*
X206585714Y-96602438D02*
X206538095Y-96650057D01*
X206538095Y-96650057D02*
X206490476Y-96745295D01*
X206490476Y-96745295D02*
X206490476Y-96983390D01*
X206490476Y-96983390D02*
X206538095Y-97078628D01*
X206538095Y-97078628D02*
X206585714Y-97126247D01*
X206585714Y-97126247D02*
X206680952Y-97173866D01*
X206680952Y-97173866D02*
X206871428Y-97173866D01*
X206871428Y-97173866D02*
X206966666Y-97126247D01*
X206966666Y-97126247D02*
X207014285Y-97078628D01*
X207014285Y-97078628D02*
X207061904Y-96983390D01*
D12*
X102706775Y-90403571D02*
X102706775Y-90832143D01*
X101956775Y-90617857D02*
X102706775Y-90617857D01*
X101956775Y-91082143D02*
X102706775Y-91082143D01*
X102706775Y-91082143D02*
X102706775Y-91367857D01*
X102706775Y-91367857D02*
X102671061Y-91439286D01*
X102671061Y-91439286D02*
X102635347Y-91475000D01*
X102635347Y-91475000D02*
X102563918Y-91510714D01*
X102563918Y-91510714D02*
X102456775Y-91510714D01*
X102456775Y-91510714D02*
X102385347Y-91475000D01*
X102385347Y-91475000D02*
X102349632Y-91439286D01*
X102349632Y-91439286D02*
X102313918Y-91367857D01*
X102313918Y-91367857D02*
X102313918Y-91082143D01*
X101956775Y-92225000D02*
X101956775Y-91796429D01*
X101956775Y-92010714D02*
X102706775Y-92010714D01*
X102706775Y-92010714D02*
X102599632Y-91939286D01*
X102599632Y-91939286D02*
X102528204Y-91867857D01*
X102528204Y-91867857D02*
X102492490Y-91796429D01*
D11*
X125061905Y-97554819D02*
X125061905Y-96554819D01*
X125061905Y-96554819D02*
X125300000Y-96554819D01*
X125300000Y-96554819D02*
X125442857Y-96602438D01*
X125442857Y-96602438D02*
X125538095Y-96697676D01*
X125538095Y-96697676D02*
X125585714Y-96792914D01*
X125585714Y-96792914D02*
X125633333Y-96983390D01*
X125633333Y-96983390D02*
X125633333Y-97126247D01*
X125633333Y-97126247D02*
X125585714Y-97316723D01*
X125585714Y-97316723D02*
X125538095Y-97411961D01*
X125538095Y-97411961D02*
X125442857Y-97507200D01*
X125442857Y-97507200D02*
X125300000Y-97554819D01*
X125300000Y-97554819D02*
X125061905Y-97554819D01*
X125966667Y-96554819D02*
X126585714Y-96554819D01*
X126585714Y-96554819D02*
X126252381Y-96935771D01*
X126252381Y-96935771D02*
X126395238Y-96935771D01*
X126395238Y-96935771D02*
X126490476Y-96983390D01*
X126490476Y-96983390D02*
X126538095Y-97031009D01*
X126538095Y-97031009D02*
X126585714Y-97126247D01*
X126585714Y-97126247D02*
X126585714Y-97364342D01*
X126585714Y-97364342D02*
X126538095Y-97459580D01*
X126538095Y-97459580D02*
X126490476Y-97507200D01*
X126490476Y-97507200D02*
X126395238Y-97554819D01*
X126395238Y-97554819D02*
X126109524Y-97554819D01*
X126109524Y-97554819D02*
X126014286Y-97507200D01*
X126014286Y-97507200D02*
X125966667Y-97459580D01*
D12*
X110716795Y-101082143D02*
X110752510Y-101117857D01*
X110752510Y-101117857D02*
X110788224Y-101225000D01*
X110788224Y-101225000D02*
X110788224Y-101296428D01*
X110788224Y-101296428D02*
X110752510Y-101403571D01*
X110752510Y-101403571D02*
X110681081Y-101475000D01*
X110681081Y-101475000D02*
X110609652Y-101510714D01*
X110609652Y-101510714D02*
X110466795Y-101546428D01*
X110466795Y-101546428D02*
X110359652Y-101546428D01*
X110359652Y-101546428D02*
X110216795Y-101510714D01*
X110216795Y-101510714D02*
X110145367Y-101475000D01*
X110145367Y-101475000D02*
X110073938Y-101403571D01*
X110073938Y-101403571D02*
X110038224Y-101296428D01*
X110038224Y-101296428D02*
X110038224Y-101225000D01*
X110038224Y-101225000D02*
X110073938Y-101117857D01*
X110073938Y-101117857D02*
X110109652Y-101082143D01*
X110788224Y-100367857D02*
X110788224Y-100796428D01*
X110788224Y-100582143D02*
X110038224Y-100582143D01*
X110038224Y-100582143D02*
X110145367Y-100653571D01*
X110145367Y-100653571D02*
X110216795Y-100725000D01*
X110216795Y-100725000D02*
X110252510Y-100796428D01*
X110788224Y-99653571D02*
X110788224Y-100082142D01*
X110788224Y-99867857D02*
X110038224Y-99867857D01*
X110038224Y-99867857D02*
X110145367Y-99939285D01*
X110145367Y-99939285D02*
X110216795Y-100010714D01*
X110216795Y-100010714D02*
X110252510Y-100082142D01*
D11*
X115470833Y-97254819D02*
X115137500Y-96778628D01*
X114899405Y-97254819D02*
X114899405Y-96254819D01*
X114899405Y-96254819D02*
X115280357Y-96254819D01*
X115280357Y-96254819D02*
X115375595Y-96302438D01*
X115375595Y-96302438D02*
X115423214Y-96350057D01*
X115423214Y-96350057D02*
X115470833Y-96445295D01*
X115470833Y-96445295D02*
X115470833Y-96588152D01*
X115470833Y-96588152D02*
X115423214Y-96683390D01*
X115423214Y-96683390D02*
X115375595Y-96731009D01*
X115375595Y-96731009D02*
X115280357Y-96778628D01*
X115280357Y-96778628D02*
X114899405Y-96778628D01*
X116327976Y-96588152D02*
X116327976Y-97254819D01*
X116089881Y-96207200D02*
X115851786Y-96921485D01*
X115851786Y-96921485D02*
X116470833Y-96921485D01*
X91154819Y-83666666D02*
X90678628Y-83999999D01*
X91154819Y-84238094D02*
X90154819Y-84238094D01*
X90154819Y-84238094D02*
X90154819Y-83857142D01*
X90154819Y-83857142D02*
X90202438Y-83761904D01*
X90202438Y-83761904D02*
X90250057Y-83714285D01*
X90250057Y-83714285D02*
X90345295Y-83666666D01*
X90345295Y-83666666D02*
X90488152Y-83666666D01*
X90488152Y-83666666D02*
X90583390Y-83714285D01*
X90583390Y-83714285D02*
X90631009Y-83761904D01*
X90631009Y-83761904D02*
X90678628Y-83857142D01*
X90678628Y-83857142D02*
X90678628Y-84238094D01*
X90154819Y-82809523D02*
X90154819Y-82999999D01*
X90154819Y-82999999D02*
X90202438Y-83095237D01*
X90202438Y-83095237D02*
X90250057Y-83142856D01*
X90250057Y-83142856D02*
X90392914Y-83238094D01*
X90392914Y-83238094D02*
X90583390Y-83285713D01*
X90583390Y-83285713D02*
X90964342Y-83285713D01*
X90964342Y-83285713D02*
X91059580Y-83238094D01*
X91059580Y-83238094D02*
X91107200Y-83190475D01*
X91107200Y-83190475D02*
X91154819Y-83095237D01*
X91154819Y-83095237D02*
X91154819Y-82904761D01*
X91154819Y-82904761D02*
X91107200Y-82809523D01*
X91107200Y-82809523D02*
X91059580Y-82761904D01*
X91059580Y-82761904D02*
X90964342Y-82714285D01*
X90964342Y-82714285D02*
X90726247Y-82714285D01*
X90726247Y-82714285D02*
X90631009Y-82761904D01*
X90631009Y-82761904D02*
X90583390Y-82809523D01*
X90583390Y-82809523D02*
X90535771Y-82904761D01*
X90535771Y-82904761D02*
X90535771Y-83095237D01*
X90535771Y-83095237D02*
X90583390Y-83190475D01*
X90583390Y-83190475D02*
X90631009Y-83238094D01*
X90631009Y-83238094D02*
X90726247Y-83285713D01*
D12*
X90659275Y-95219285D02*
X91409275Y-95219285D01*
X91409275Y-95219285D02*
X91409275Y-95397856D01*
X91409275Y-95397856D02*
X91373561Y-95504999D01*
X91373561Y-95504999D02*
X91302132Y-95576428D01*
X91302132Y-95576428D02*
X91230704Y-95612142D01*
X91230704Y-95612142D02*
X91087847Y-95647856D01*
X91087847Y-95647856D02*
X90980704Y-95647856D01*
X90980704Y-95647856D02*
X90837847Y-95612142D01*
X90837847Y-95612142D02*
X90766418Y-95576428D01*
X90766418Y-95576428D02*
X90694990Y-95504999D01*
X90694990Y-95504999D02*
X90659275Y-95397856D01*
X90659275Y-95397856D02*
X90659275Y-95219285D01*
X91337847Y-95933571D02*
X91373561Y-95969285D01*
X91373561Y-95969285D02*
X91409275Y-96040714D01*
X91409275Y-96040714D02*
X91409275Y-96219285D01*
X91409275Y-96219285D02*
X91373561Y-96290714D01*
X91373561Y-96290714D02*
X91337847Y-96326428D01*
X91337847Y-96326428D02*
X91266418Y-96362142D01*
X91266418Y-96362142D02*
X91194990Y-96362142D01*
X91194990Y-96362142D02*
X91087847Y-96326428D01*
X91087847Y-96326428D02*
X90659275Y-95897856D01*
X90659275Y-95897856D02*
X90659275Y-96362142D01*
X91409275Y-97005000D02*
X91409275Y-96862142D01*
X91409275Y-96862142D02*
X91373561Y-96790714D01*
X91373561Y-96790714D02*
X91337847Y-96755000D01*
X91337847Y-96755000D02*
X91230704Y-96683571D01*
X91230704Y-96683571D02*
X91087847Y-96647857D01*
X91087847Y-96647857D02*
X90802132Y-96647857D01*
X90802132Y-96647857D02*
X90730704Y-96683571D01*
X90730704Y-96683571D02*
X90694990Y-96719285D01*
X90694990Y-96719285D02*
X90659275Y-96790714D01*
X90659275Y-96790714D02*
X90659275Y-96933571D01*
X90659275Y-96933571D02*
X90694990Y-97005000D01*
X90694990Y-97005000D02*
X90730704Y-97040714D01*
X90730704Y-97040714D02*
X90802132Y-97076428D01*
X90802132Y-97076428D02*
X90980704Y-97076428D01*
X90980704Y-97076428D02*
X91052132Y-97040714D01*
X91052132Y-97040714D02*
X91087847Y-97005000D01*
X91087847Y-97005000D02*
X91123561Y-96933571D01*
X91123561Y-96933571D02*
X91123561Y-96790714D01*
X91123561Y-96790714D02*
X91087847Y-96719285D01*
X91087847Y-96719285D02*
X91052132Y-96683571D01*
X91052132Y-96683571D02*
X90980704Y-96647857D01*
D11*
X131554642Y-87859580D02*
X131507023Y-87907200D01*
X131507023Y-87907200D02*
X131364166Y-87954819D01*
X131364166Y-87954819D02*
X131268928Y-87954819D01*
X131268928Y-87954819D02*
X131126071Y-87907200D01*
X131126071Y-87907200D02*
X131030833Y-87811961D01*
X131030833Y-87811961D02*
X130983214Y-87716723D01*
X130983214Y-87716723D02*
X130935595Y-87526247D01*
X130935595Y-87526247D02*
X130935595Y-87383390D01*
X130935595Y-87383390D02*
X130983214Y-87192914D01*
X130983214Y-87192914D02*
X131030833Y-87097676D01*
X131030833Y-87097676D02*
X131126071Y-87002438D01*
X131126071Y-87002438D02*
X131268928Y-86954819D01*
X131268928Y-86954819D02*
X131364166Y-86954819D01*
X131364166Y-86954819D02*
X131507023Y-87002438D01*
X131507023Y-87002438D02*
X131554642Y-87050057D01*
X131887976Y-86954819D02*
X132507023Y-86954819D01*
X132507023Y-86954819D02*
X132173690Y-87335771D01*
X132173690Y-87335771D02*
X132316547Y-87335771D01*
X132316547Y-87335771D02*
X132411785Y-87383390D01*
X132411785Y-87383390D02*
X132459404Y-87431009D01*
X132459404Y-87431009D02*
X132507023Y-87526247D01*
X132507023Y-87526247D02*
X132507023Y-87764342D01*
X132507023Y-87764342D02*
X132459404Y-87859580D01*
X132459404Y-87859580D02*
X132411785Y-87907200D01*
X132411785Y-87907200D02*
X132316547Y-87954819D01*
X132316547Y-87954819D02*
X132030833Y-87954819D01*
X132030833Y-87954819D02*
X131935595Y-87907200D01*
X131935595Y-87907200D02*
X131887976Y-87859580D01*
X133364166Y-86954819D02*
X133173690Y-86954819D01*
X133173690Y-86954819D02*
X133078452Y-87002438D01*
X133078452Y-87002438D02*
X133030833Y-87050057D01*
X133030833Y-87050057D02*
X132935595Y-87192914D01*
X132935595Y-87192914D02*
X132887976Y-87383390D01*
X132887976Y-87383390D02*
X132887976Y-87764342D01*
X132887976Y-87764342D02*
X132935595Y-87859580D01*
X132935595Y-87859580D02*
X132983214Y-87907200D01*
X132983214Y-87907200D02*
X133078452Y-87954819D01*
X133078452Y-87954819D02*
X133268928Y-87954819D01*
X133268928Y-87954819D02*
X133364166Y-87907200D01*
X133364166Y-87907200D02*
X133411785Y-87859580D01*
X133411785Y-87859580D02*
X133459404Y-87764342D01*
X133459404Y-87764342D02*
X133459404Y-87526247D01*
X133459404Y-87526247D02*
X133411785Y-87431009D01*
X133411785Y-87431009D02*
X133364166Y-87383390D01*
X133364166Y-87383390D02*
X133268928Y-87335771D01*
X133268928Y-87335771D02*
X133078452Y-87335771D01*
X133078452Y-87335771D02*
X132983214Y-87383390D01*
X132983214Y-87383390D02*
X132935595Y-87431009D01*
X132935595Y-87431009D02*
X132887976Y-87526247D01*
D12*
X190116795Y-101082143D02*
X190152510Y-101117857D01*
X190152510Y-101117857D02*
X190188224Y-101225000D01*
X190188224Y-101225000D02*
X190188224Y-101296428D01*
X190188224Y-101296428D02*
X190152510Y-101403571D01*
X190152510Y-101403571D02*
X190081081Y-101475000D01*
X190081081Y-101475000D02*
X190009652Y-101510714D01*
X190009652Y-101510714D02*
X189866795Y-101546428D01*
X189866795Y-101546428D02*
X189759652Y-101546428D01*
X189759652Y-101546428D02*
X189616795Y-101510714D01*
X189616795Y-101510714D02*
X189545367Y-101475000D01*
X189545367Y-101475000D02*
X189473938Y-101403571D01*
X189473938Y-101403571D02*
X189438224Y-101296428D01*
X189438224Y-101296428D02*
X189438224Y-101225000D01*
X189438224Y-101225000D02*
X189473938Y-101117857D01*
X189473938Y-101117857D02*
X189509652Y-101082143D01*
X189509652Y-100796428D02*
X189473938Y-100760714D01*
X189473938Y-100760714D02*
X189438224Y-100689286D01*
X189438224Y-100689286D02*
X189438224Y-100510714D01*
X189438224Y-100510714D02*
X189473938Y-100439286D01*
X189473938Y-100439286D02*
X189509652Y-100403571D01*
X189509652Y-100403571D02*
X189581081Y-100367857D01*
X189581081Y-100367857D02*
X189652510Y-100367857D01*
X189652510Y-100367857D02*
X189759652Y-100403571D01*
X189759652Y-100403571D02*
X190188224Y-100832143D01*
X190188224Y-100832143D02*
X190188224Y-100367857D01*
X189438224Y-100117857D02*
X189438224Y-99617857D01*
X189438224Y-99617857D02*
X190188224Y-99939285D01*
D11*
X104712919Y-76583333D02*
X104665300Y-76535714D01*
X104665300Y-76535714D02*
X104617680Y-76392857D01*
X104617680Y-76392857D02*
X104617680Y-76297619D01*
X104617680Y-76297619D02*
X104665300Y-76154762D01*
X104665300Y-76154762D02*
X104760538Y-76059524D01*
X104760538Y-76059524D02*
X104855776Y-76011905D01*
X104855776Y-76011905D02*
X105046252Y-75964286D01*
X105046252Y-75964286D02*
X105189109Y-75964286D01*
X105189109Y-75964286D02*
X105379585Y-76011905D01*
X105379585Y-76011905D02*
X105474823Y-76059524D01*
X105474823Y-76059524D02*
X105570061Y-76154762D01*
X105570061Y-76154762D02*
X105617680Y-76297619D01*
X105617680Y-76297619D02*
X105617680Y-76392857D01*
X105617680Y-76392857D02*
X105570061Y-76535714D01*
X105570061Y-76535714D02*
X105522442Y-76583333D01*
X104617680Y-77059524D02*
X104617680Y-77250000D01*
X104617680Y-77250000D02*
X104665300Y-77345238D01*
X104665300Y-77345238D02*
X104712919Y-77392857D01*
X104712919Y-77392857D02*
X104855776Y-77488095D01*
X104855776Y-77488095D02*
X105046252Y-77535714D01*
X105046252Y-77535714D02*
X105427204Y-77535714D01*
X105427204Y-77535714D02*
X105522442Y-77488095D01*
X105522442Y-77488095D02*
X105570061Y-77440476D01*
X105570061Y-77440476D02*
X105617680Y-77345238D01*
X105617680Y-77345238D02*
X105617680Y-77154762D01*
X105617680Y-77154762D02*
X105570061Y-77059524D01*
X105570061Y-77059524D02*
X105522442Y-77011905D01*
X105522442Y-77011905D02*
X105427204Y-76964286D01*
X105427204Y-76964286D02*
X105189109Y-76964286D01*
X105189109Y-76964286D02*
X105093871Y-77011905D01*
X105093871Y-77011905D02*
X105046252Y-77059524D01*
X105046252Y-77059524D02*
X104998633Y-77154762D01*
X104998633Y-77154762D02*
X104998633Y-77345238D01*
X104998633Y-77345238D02*
X105046252Y-77440476D01*
X105046252Y-77440476D02*
X105093871Y-77488095D01*
X105093871Y-77488095D02*
X105189109Y-77535714D01*
D12*
X210119295Y-101082143D02*
X210155010Y-101117857D01*
X210155010Y-101117857D02*
X210190724Y-101225000D01*
X210190724Y-101225000D02*
X210190724Y-101296428D01*
X210190724Y-101296428D02*
X210155010Y-101403571D01*
X210155010Y-101403571D02*
X210083581Y-101475000D01*
X210083581Y-101475000D02*
X210012152Y-101510714D01*
X210012152Y-101510714D02*
X209869295Y-101546428D01*
X209869295Y-101546428D02*
X209762152Y-101546428D01*
X209762152Y-101546428D02*
X209619295Y-101510714D01*
X209619295Y-101510714D02*
X209547867Y-101475000D01*
X209547867Y-101475000D02*
X209476438Y-101403571D01*
X209476438Y-101403571D02*
X209440724Y-101296428D01*
X209440724Y-101296428D02*
X209440724Y-101225000D01*
X209440724Y-101225000D02*
X209476438Y-101117857D01*
X209476438Y-101117857D02*
X209512152Y-101082143D01*
X209440724Y-100832143D02*
X209440724Y-100367857D01*
X209440724Y-100367857D02*
X209726438Y-100617857D01*
X209726438Y-100617857D02*
X209726438Y-100510714D01*
X209726438Y-100510714D02*
X209762152Y-100439286D01*
X209762152Y-100439286D02*
X209797867Y-100403571D01*
X209797867Y-100403571D02*
X209869295Y-100367857D01*
X209869295Y-100367857D02*
X210047867Y-100367857D01*
X210047867Y-100367857D02*
X210119295Y-100403571D01*
X210119295Y-100403571D02*
X210155010Y-100439286D01*
X210155010Y-100439286D02*
X210190724Y-100510714D01*
X210190724Y-100510714D02*
X210190724Y-100725000D01*
X210190724Y-100725000D02*
X210155010Y-100796428D01*
X210155010Y-100796428D02*
X210119295Y-100832143D01*
X210190724Y-99653571D02*
X210190724Y-100082142D01*
X210190724Y-99867857D02*
X209440724Y-99867857D01*
X209440724Y-99867857D02*
X209547867Y-99939285D01*
X209547867Y-99939285D02*
X209619295Y-100010714D01*
X209619295Y-100010714D02*
X209655010Y-100082142D01*
D11*
X155061905Y-97554819D02*
X155061905Y-96554819D01*
X155061905Y-96554819D02*
X155300000Y-96554819D01*
X155300000Y-96554819D02*
X155442857Y-96602438D01*
X155442857Y-96602438D02*
X155538095Y-96697676D01*
X155538095Y-96697676D02*
X155585714Y-96792914D01*
X155585714Y-96792914D02*
X155633333Y-96983390D01*
X155633333Y-96983390D02*
X155633333Y-97126247D01*
X155633333Y-97126247D02*
X155585714Y-97316723D01*
X155585714Y-97316723D02*
X155538095Y-97411961D01*
X155538095Y-97411961D02*
X155442857Y-97507200D01*
X155442857Y-97507200D02*
X155300000Y-97554819D01*
X155300000Y-97554819D02*
X155061905Y-97554819D01*
X156109524Y-97554819D02*
X156300000Y-97554819D01*
X156300000Y-97554819D02*
X156395238Y-97507200D01*
X156395238Y-97507200D02*
X156442857Y-97459580D01*
X156442857Y-97459580D02*
X156538095Y-97316723D01*
X156538095Y-97316723D02*
X156585714Y-97126247D01*
X156585714Y-97126247D02*
X156585714Y-96745295D01*
X156585714Y-96745295D02*
X156538095Y-96650057D01*
X156538095Y-96650057D02*
X156490476Y-96602438D01*
X156490476Y-96602438D02*
X156395238Y-96554819D01*
X156395238Y-96554819D02*
X156204762Y-96554819D01*
X156204762Y-96554819D02*
X156109524Y-96602438D01*
X156109524Y-96602438D02*
X156061905Y-96650057D01*
X156061905Y-96650057D02*
X156014286Y-96745295D01*
X156014286Y-96745295D02*
X156014286Y-96983390D01*
X156014286Y-96983390D02*
X156061905Y-97078628D01*
X156061905Y-97078628D02*
X156109524Y-97126247D01*
X156109524Y-97126247D02*
X156204762Y-97173866D01*
X156204762Y-97173866D02*
X156395238Y-97173866D01*
X156395238Y-97173866D02*
X156490476Y-97126247D01*
X156490476Y-97126247D02*
X156538095Y-97078628D01*
X156538095Y-97078628D02*
X156585714Y-96983390D01*
X104938095Y-90654819D02*
X104938095Y-91464342D01*
X104938095Y-91464342D02*
X104985714Y-91559580D01*
X104985714Y-91559580D02*
X105033333Y-91607200D01*
X105033333Y-91607200D02*
X105128571Y-91654819D01*
X105128571Y-91654819D02*
X105319047Y-91654819D01*
X105319047Y-91654819D02*
X105414285Y-91607200D01*
X105414285Y-91607200D02*
X105461904Y-91559580D01*
X105461904Y-91559580D02*
X105509523Y-91464342D01*
X105509523Y-91464342D02*
X105509523Y-90654819D01*
X106461904Y-90654819D02*
X105985714Y-90654819D01*
X105985714Y-90654819D02*
X105938095Y-91131009D01*
X105938095Y-91131009D02*
X105985714Y-91083390D01*
X105985714Y-91083390D02*
X106080952Y-91035771D01*
X106080952Y-91035771D02*
X106319047Y-91035771D01*
X106319047Y-91035771D02*
X106414285Y-91083390D01*
X106414285Y-91083390D02*
X106461904Y-91131009D01*
X106461904Y-91131009D02*
X106509523Y-91226247D01*
X106509523Y-91226247D02*
X106509523Y-91464342D01*
X106509523Y-91464342D02*
X106461904Y-91559580D01*
X106461904Y-91559580D02*
X106414285Y-91607200D01*
X106414285Y-91607200D02*
X106319047Y-91654819D01*
X106319047Y-91654819D02*
X106080952Y-91654819D01*
X106080952Y-91654819D02*
X105985714Y-91607200D01*
X105985714Y-91607200D02*
X105938095Y-91559580D01*
D12*
X220119295Y-101082143D02*
X220155010Y-101117857D01*
X220155010Y-101117857D02*
X220190724Y-101225000D01*
X220190724Y-101225000D02*
X220190724Y-101296428D01*
X220190724Y-101296428D02*
X220155010Y-101403571D01*
X220155010Y-101403571D02*
X220083581Y-101475000D01*
X220083581Y-101475000D02*
X220012152Y-101510714D01*
X220012152Y-101510714D02*
X219869295Y-101546428D01*
X219869295Y-101546428D02*
X219762152Y-101546428D01*
X219762152Y-101546428D02*
X219619295Y-101510714D01*
X219619295Y-101510714D02*
X219547867Y-101475000D01*
X219547867Y-101475000D02*
X219476438Y-101403571D01*
X219476438Y-101403571D02*
X219440724Y-101296428D01*
X219440724Y-101296428D02*
X219440724Y-101225000D01*
X219440724Y-101225000D02*
X219476438Y-101117857D01*
X219476438Y-101117857D02*
X219512152Y-101082143D01*
X219440724Y-100832143D02*
X219440724Y-100367857D01*
X219440724Y-100367857D02*
X219726438Y-100617857D01*
X219726438Y-100617857D02*
X219726438Y-100510714D01*
X219726438Y-100510714D02*
X219762152Y-100439286D01*
X219762152Y-100439286D02*
X219797867Y-100403571D01*
X219797867Y-100403571D02*
X219869295Y-100367857D01*
X219869295Y-100367857D02*
X220047867Y-100367857D01*
X220047867Y-100367857D02*
X220119295Y-100403571D01*
X220119295Y-100403571D02*
X220155010Y-100439286D01*
X220155010Y-100439286D02*
X220190724Y-100510714D01*
X220190724Y-100510714D02*
X220190724Y-100725000D01*
X220190724Y-100725000D02*
X220155010Y-100796428D01*
X220155010Y-100796428D02*
X220119295Y-100832143D01*
X219440724Y-100117857D02*
X219440724Y-99653571D01*
X219440724Y-99653571D02*
X219726438Y-99903571D01*
X219726438Y-99903571D02*
X219726438Y-99796428D01*
X219726438Y-99796428D02*
X219762152Y-99725000D01*
X219762152Y-99725000D02*
X219797867Y-99689285D01*
X219797867Y-99689285D02*
X219869295Y-99653571D01*
X219869295Y-99653571D02*
X220047867Y-99653571D01*
X220047867Y-99653571D02*
X220119295Y-99689285D01*
X220119295Y-99689285D02*
X220155010Y-99725000D01*
X220155010Y-99725000D02*
X220190724Y-99796428D01*
X220190724Y-99796428D02*
X220190724Y-100010714D01*
X220190724Y-100010714D02*
X220155010Y-100082142D01*
X220155010Y-100082142D02*
X220119295Y-100117857D01*
D11*
X88853333Y-84119580D02*
X88805714Y-84167200D01*
X88805714Y-84167200D02*
X88662857Y-84214819D01*
X88662857Y-84214819D02*
X88567619Y-84214819D01*
X88567619Y-84214819D02*
X88424762Y-84167200D01*
X88424762Y-84167200D02*
X88329524Y-84071961D01*
X88329524Y-84071961D02*
X88281905Y-83976723D01*
X88281905Y-83976723D02*
X88234286Y-83786247D01*
X88234286Y-83786247D02*
X88234286Y-83643390D01*
X88234286Y-83643390D02*
X88281905Y-83452914D01*
X88281905Y-83452914D02*
X88329524Y-83357676D01*
X88329524Y-83357676D02*
X88424762Y-83262438D01*
X88424762Y-83262438D02*
X88567619Y-83214819D01*
X88567619Y-83214819D02*
X88662857Y-83214819D01*
X88662857Y-83214819D02*
X88805714Y-83262438D01*
X88805714Y-83262438D02*
X88853333Y-83310057D01*
X89710476Y-83214819D02*
X89520000Y-83214819D01*
X89520000Y-83214819D02*
X89424762Y-83262438D01*
X89424762Y-83262438D02*
X89377143Y-83310057D01*
X89377143Y-83310057D02*
X89281905Y-83452914D01*
X89281905Y-83452914D02*
X89234286Y-83643390D01*
X89234286Y-83643390D02*
X89234286Y-84024342D01*
X89234286Y-84024342D02*
X89281905Y-84119580D01*
X89281905Y-84119580D02*
X89329524Y-84167200D01*
X89329524Y-84167200D02*
X89424762Y-84214819D01*
X89424762Y-84214819D02*
X89615238Y-84214819D01*
X89615238Y-84214819D02*
X89710476Y-84167200D01*
X89710476Y-84167200D02*
X89758095Y-84119580D01*
X89758095Y-84119580D02*
X89805714Y-84024342D01*
X89805714Y-84024342D02*
X89805714Y-83786247D01*
X89805714Y-83786247D02*
X89758095Y-83691009D01*
X89758095Y-83691009D02*
X89710476Y-83643390D01*
X89710476Y-83643390D02*
X89615238Y-83595771D01*
X89615238Y-83595771D02*
X89424762Y-83595771D01*
X89424762Y-83595771D02*
X89329524Y-83643390D01*
X89329524Y-83643390D02*
X89281905Y-83691009D01*
X89281905Y-83691009D02*
X89234286Y-83786247D01*
X121752680Y-75278095D02*
X120943157Y-75278095D01*
X120943157Y-75278095D02*
X120847919Y-75325714D01*
X120847919Y-75325714D02*
X120800300Y-75373333D01*
X120800300Y-75373333D02*
X120752680Y-75468571D01*
X120752680Y-75468571D02*
X120752680Y-75659047D01*
X120752680Y-75659047D02*
X120800300Y-75754285D01*
X120800300Y-75754285D02*
X120847919Y-75801904D01*
X120847919Y-75801904D02*
X120943157Y-75849523D01*
X120943157Y-75849523D02*
X121752680Y-75849523D01*
X120752680Y-76849523D02*
X120752680Y-76278095D01*
X120752680Y-76563809D02*
X121752680Y-76563809D01*
X121752680Y-76563809D02*
X121609823Y-76468571D01*
X121609823Y-76468571D02*
X121514585Y-76373333D01*
X121514585Y-76373333D02*
X121466966Y-76278095D01*
D12*
X92159275Y-91917856D02*
X92516418Y-91667856D01*
X92159275Y-91489285D02*
X92909275Y-91489285D01*
X92909275Y-91489285D02*
X92909275Y-91774999D01*
X92909275Y-91774999D02*
X92873561Y-91846428D01*
X92873561Y-91846428D02*
X92837847Y-91882142D01*
X92837847Y-91882142D02*
X92766418Y-91917856D01*
X92766418Y-91917856D02*
X92659275Y-91917856D01*
X92659275Y-91917856D02*
X92587847Y-91882142D01*
X92587847Y-91882142D02*
X92552132Y-91846428D01*
X92552132Y-91846428D02*
X92516418Y-91774999D01*
X92516418Y-91774999D02*
X92516418Y-91489285D01*
X92159275Y-92632142D02*
X92159275Y-92203571D01*
X92159275Y-92417856D02*
X92909275Y-92417856D01*
X92909275Y-92417856D02*
X92802132Y-92346428D01*
X92802132Y-92346428D02*
X92730704Y-92274999D01*
X92730704Y-92274999D02*
X92694990Y-92203571D01*
X92909275Y-93310714D02*
X92909275Y-92953571D01*
X92909275Y-92953571D02*
X92552132Y-92917857D01*
X92552132Y-92917857D02*
X92587847Y-92953571D01*
X92587847Y-92953571D02*
X92623561Y-93025000D01*
X92623561Y-93025000D02*
X92623561Y-93203571D01*
X92623561Y-93203571D02*
X92587847Y-93275000D01*
X92587847Y-93275000D02*
X92552132Y-93310714D01*
X92552132Y-93310714D02*
X92480704Y-93346428D01*
X92480704Y-93346428D02*
X92302132Y-93346428D01*
X92302132Y-93346428D02*
X92230704Y-93310714D01*
X92230704Y-93310714D02*
X92194990Y-93275000D01*
X92194990Y-93275000D02*
X92159275Y-93203571D01*
X92159275Y-93203571D02*
X92159275Y-93025000D01*
X92159275Y-93025000D02*
X92194990Y-92953571D01*
X92194990Y-92953571D02*
X92230704Y-92917857D01*
D11*
X131554142Y-97289580D02*
X131506523Y-97337200D01*
X131506523Y-97337200D02*
X131363666Y-97384819D01*
X131363666Y-97384819D02*
X131268428Y-97384819D01*
X131268428Y-97384819D02*
X131125571Y-97337200D01*
X131125571Y-97337200D02*
X131030333Y-97241961D01*
X131030333Y-97241961D02*
X130982714Y-97146723D01*
X130982714Y-97146723D02*
X130935095Y-96956247D01*
X130935095Y-96956247D02*
X130935095Y-96813390D01*
X130935095Y-96813390D02*
X130982714Y-96622914D01*
X130982714Y-96622914D02*
X131030333Y-96527676D01*
X131030333Y-96527676D02*
X131125571Y-96432438D01*
X131125571Y-96432438D02*
X131268428Y-96384819D01*
X131268428Y-96384819D02*
X131363666Y-96384819D01*
X131363666Y-96384819D02*
X131506523Y-96432438D01*
X131506523Y-96432438D02*
X131554142Y-96480057D01*
X131887476Y-96384819D02*
X132506523Y-96384819D01*
X132506523Y-96384819D02*
X132173190Y-96765771D01*
X132173190Y-96765771D02*
X132316047Y-96765771D01*
X132316047Y-96765771D02*
X132411285Y-96813390D01*
X132411285Y-96813390D02*
X132458904Y-96861009D01*
X132458904Y-96861009D02*
X132506523Y-96956247D01*
X132506523Y-96956247D02*
X132506523Y-97194342D01*
X132506523Y-97194342D02*
X132458904Y-97289580D01*
X132458904Y-97289580D02*
X132411285Y-97337200D01*
X132411285Y-97337200D02*
X132316047Y-97384819D01*
X132316047Y-97384819D02*
X132030333Y-97384819D01*
X132030333Y-97384819D02*
X131935095Y-97337200D01*
X131935095Y-97337200D02*
X131887476Y-97289580D01*
X132839857Y-96384819D02*
X133506523Y-96384819D01*
X133506523Y-96384819D02*
X133077952Y-97384819D01*
D12*
X200116795Y-101082143D02*
X200152510Y-101117857D01*
X200152510Y-101117857D02*
X200188224Y-101225000D01*
X200188224Y-101225000D02*
X200188224Y-101296428D01*
X200188224Y-101296428D02*
X200152510Y-101403571D01*
X200152510Y-101403571D02*
X200081081Y-101475000D01*
X200081081Y-101475000D02*
X200009652Y-101510714D01*
X200009652Y-101510714D02*
X199866795Y-101546428D01*
X199866795Y-101546428D02*
X199759652Y-101546428D01*
X199759652Y-101546428D02*
X199616795Y-101510714D01*
X199616795Y-101510714D02*
X199545367Y-101475000D01*
X199545367Y-101475000D02*
X199473938Y-101403571D01*
X199473938Y-101403571D02*
X199438224Y-101296428D01*
X199438224Y-101296428D02*
X199438224Y-101225000D01*
X199438224Y-101225000D02*
X199473938Y-101117857D01*
X199473938Y-101117857D02*
X199509652Y-101082143D01*
X199509652Y-100796428D02*
X199473938Y-100760714D01*
X199473938Y-100760714D02*
X199438224Y-100689286D01*
X199438224Y-100689286D02*
X199438224Y-100510714D01*
X199438224Y-100510714D02*
X199473938Y-100439286D01*
X199473938Y-100439286D02*
X199509652Y-100403571D01*
X199509652Y-100403571D02*
X199581081Y-100367857D01*
X199581081Y-100367857D02*
X199652510Y-100367857D01*
X199652510Y-100367857D02*
X199759652Y-100403571D01*
X199759652Y-100403571D02*
X200188224Y-100832143D01*
X200188224Y-100832143D02*
X200188224Y-100367857D01*
X200188224Y-100010714D02*
X200188224Y-99867857D01*
X200188224Y-99867857D02*
X200152510Y-99796428D01*
X200152510Y-99796428D02*
X200116795Y-99760714D01*
X200116795Y-99760714D02*
X200009652Y-99689285D01*
X200009652Y-99689285D02*
X199866795Y-99653571D01*
X199866795Y-99653571D02*
X199581081Y-99653571D01*
X199581081Y-99653571D02*
X199509652Y-99689285D01*
X199509652Y-99689285D02*
X199473938Y-99725000D01*
X199473938Y-99725000D02*
X199438224Y-99796428D01*
X199438224Y-99796428D02*
X199438224Y-99939285D01*
X199438224Y-99939285D02*
X199473938Y-100010714D01*
X199473938Y-100010714D02*
X199509652Y-100046428D01*
X199509652Y-100046428D02*
X199581081Y-100082142D01*
X199581081Y-100082142D02*
X199759652Y-100082142D01*
X199759652Y-100082142D02*
X199831081Y-100046428D01*
X199831081Y-100046428D02*
X199866795Y-100010714D01*
X199866795Y-100010714D02*
X199902510Y-99939285D01*
X199902510Y-99939285D02*
X199902510Y-99796428D01*
X199902510Y-99796428D02*
X199866795Y-99725000D01*
X199866795Y-99725000D02*
X199831081Y-99689285D01*
X199831081Y-99689285D02*
X199759652Y-99653571D01*
X130686795Y-101082143D02*
X130722510Y-101117857D01*
X130722510Y-101117857D02*
X130758224Y-101225000D01*
X130758224Y-101225000D02*
X130758224Y-101296428D01*
X130758224Y-101296428D02*
X130722510Y-101403571D01*
X130722510Y-101403571D02*
X130651081Y-101475000D01*
X130651081Y-101475000D02*
X130579652Y-101510714D01*
X130579652Y-101510714D02*
X130436795Y-101546428D01*
X130436795Y-101546428D02*
X130329652Y-101546428D01*
X130329652Y-101546428D02*
X130186795Y-101510714D01*
X130186795Y-101510714D02*
X130115367Y-101475000D01*
X130115367Y-101475000D02*
X130043938Y-101403571D01*
X130043938Y-101403571D02*
X130008224Y-101296428D01*
X130008224Y-101296428D02*
X130008224Y-101225000D01*
X130008224Y-101225000D02*
X130043938Y-101117857D01*
X130043938Y-101117857D02*
X130079652Y-101082143D01*
X130758224Y-100367857D02*
X130758224Y-100796428D01*
X130758224Y-100582143D02*
X130008224Y-100582143D01*
X130008224Y-100582143D02*
X130115367Y-100653571D01*
X130115367Y-100653571D02*
X130186795Y-100725000D01*
X130186795Y-100725000D02*
X130222510Y-100796428D01*
X130008224Y-99689285D02*
X130008224Y-100046428D01*
X130008224Y-100046428D02*
X130365367Y-100082142D01*
X130365367Y-100082142D02*
X130329652Y-100046428D01*
X130329652Y-100046428D02*
X130293938Y-99975000D01*
X130293938Y-99975000D02*
X130293938Y-99796428D01*
X130293938Y-99796428D02*
X130329652Y-99725000D01*
X130329652Y-99725000D02*
X130365367Y-99689285D01*
X130365367Y-99689285D02*
X130436795Y-99653571D01*
X130436795Y-99653571D02*
X130615367Y-99653571D01*
X130615367Y-99653571D02*
X130686795Y-99689285D01*
X130686795Y-99689285D02*
X130722510Y-99725000D01*
X130722510Y-99725000D02*
X130758224Y-99796428D01*
X130758224Y-99796428D02*
X130758224Y-99975000D01*
X130758224Y-99975000D02*
X130722510Y-100046428D01*
X130722510Y-100046428D02*
X130686795Y-100082142D01*
D11*
X119330833Y-97254819D02*
X118997500Y-96778628D01*
X118759405Y-97254819D02*
X118759405Y-96254819D01*
X118759405Y-96254819D02*
X119140357Y-96254819D01*
X119140357Y-96254819D02*
X119235595Y-96302438D01*
X119235595Y-96302438D02*
X119283214Y-96350057D01*
X119283214Y-96350057D02*
X119330833Y-96445295D01*
X119330833Y-96445295D02*
X119330833Y-96588152D01*
X119330833Y-96588152D02*
X119283214Y-96683390D01*
X119283214Y-96683390D02*
X119235595Y-96731009D01*
X119235595Y-96731009D02*
X119140357Y-96778628D01*
X119140357Y-96778628D02*
X118759405Y-96778628D01*
X119711786Y-96350057D02*
X119759405Y-96302438D01*
X119759405Y-96302438D02*
X119854643Y-96254819D01*
X119854643Y-96254819D02*
X120092738Y-96254819D01*
X120092738Y-96254819D02*
X120187976Y-96302438D01*
X120187976Y-96302438D02*
X120235595Y-96350057D01*
X120235595Y-96350057D02*
X120283214Y-96445295D01*
X120283214Y-96445295D02*
X120283214Y-96540533D01*
X120283214Y-96540533D02*
X120235595Y-96683390D01*
X120235595Y-96683390D02*
X119664167Y-97254819D01*
X119664167Y-97254819D02*
X120283214Y-97254819D01*
X91154819Y-88766666D02*
X90678628Y-89099999D01*
X91154819Y-89338094D02*
X90154819Y-89338094D01*
X90154819Y-89338094D02*
X90154819Y-88957142D01*
X90154819Y-88957142D02*
X90202438Y-88861904D01*
X90202438Y-88861904D02*
X90250057Y-88814285D01*
X90250057Y-88814285D02*
X90345295Y-88766666D01*
X90345295Y-88766666D02*
X90488152Y-88766666D01*
X90488152Y-88766666D02*
X90583390Y-88814285D01*
X90583390Y-88814285D02*
X90631009Y-88861904D01*
X90631009Y-88861904D02*
X90678628Y-88957142D01*
X90678628Y-88957142D02*
X90678628Y-89338094D01*
X90154819Y-87861904D02*
X90154819Y-88338094D01*
X90154819Y-88338094D02*
X90631009Y-88385713D01*
X90631009Y-88385713D02*
X90583390Y-88338094D01*
X90583390Y-88338094D02*
X90535771Y-88242856D01*
X90535771Y-88242856D02*
X90535771Y-88004761D01*
X90535771Y-88004761D02*
X90583390Y-87909523D01*
X90583390Y-87909523D02*
X90631009Y-87861904D01*
X90631009Y-87861904D02*
X90726247Y-87814285D01*
X90726247Y-87814285D02*
X90964342Y-87814285D01*
X90964342Y-87814285D02*
X91059580Y-87861904D01*
X91059580Y-87861904D02*
X91107200Y-87909523D01*
X91107200Y-87909523D02*
X91154819Y-88004761D01*
X91154819Y-88004761D02*
X91154819Y-88242856D01*
X91154819Y-88242856D02*
X91107200Y-88338094D01*
X91107200Y-88338094D02*
X91059580Y-88385713D01*
X102957080Y-84866666D02*
X103004700Y-84914285D01*
X103004700Y-84914285D02*
X103052319Y-85057142D01*
X103052319Y-85057142D02*
X103052319Y-85152380D01*
X103052319Y-85152380D02*
X103004700Y-85295237D01*
X103004700Y-85295237D02*
X102909461Y-85390475D01*
X102909461Y-85390475D02*
X102814223Y-85438094D01*
X102814223Y-85438094D02*
X102623747Y-85485713D01*
X102623747Y-85485713D02*
X102480890Y-85485713D01*
X102480890Y-85485713D02*
X102290414Y-85438094D01*
X102290414Y-85438094D02*
X102195176Y-85390475D01*
X102195176Y-85390475D02*
X102099938Y-85295237D01*
X102099938Y-85295237D02*
X102052319Y-85152380D01*
X102052319Y-85152380D02*
X102052319Y-85057142D01*
X102052319Y-85057142D02*
X102099938Y-84914285D01*
X102099938Y-84914285D02*
X102147557Y-84866666D01*
X102385652Y-84009523D02*
X103052319Y-84009523D01*
X102004700Y-84247618D02*
X102718985Y-84485713D01*
X102718985Y-84485713D02*
X102718985Y-83866666D01*
D12*
X92159275Y-94117856D02*
X92516418Y-93867856D01*
X92159275Y-93689285D02*
X92909275Y-93689285D01*
X92909275Y-93689285D02*
X92909275Y-93974999D01*
X92909275Y-93974999D02*
X92873561Y-94046428D01*
X92873561Y-94046428D02*
X92837847Y-94082142D01*
X92837847Y-94082142D02*
X92766418Y-94117856D01*
X92766418Y-94117856D02*
X92659275Y-94117856D01*
X92659275Y-94117856D02*
X92587847Y-94082142D01*
X92587847Y-94082142D02*
X92552132Y-94046428D01*
X92552132Y-94046428D02*
X92516418Y-93974999D01*
X92516418Y-93974999D02*
X92516418Y-93689285D01*
X92159275Y-94832142D02*
X92159275Y-94403571D01*
X92159275Y-94617856D02*
X92909275Y-94617856D01*
X92909275Y-94617856D02*
X92802132Y-94546428D01*
X92802132Y-94546428D02*
X92730704Y-94474999D01*
X92730704Y-94474999D02*
X92694990Y-94403571D01*
X92909275Y-95475000D02*
X92909275Y-95332142D01*
X92909275Y-95332142D02*
X92873561Y-95260714D01*
X92873561Y-95260714D02*
X92837847Y-95225000D01*
X92837847Y-95225000D02*
X92730704Y-95153571D01*
X92730704Y-95153571D02*
X92587847Y-95117857D01*
X92587847Y-95117857D02*
X92302132Y-95117857D01*
X92302132Y-95117857D02*
X92230704Y-95153571D01*
X92230704Y-95153571D02*
X92194990Y-95189285D01*
X92194990Y-95189285D02*
X92159275Y-95260714D01*
X92159275Y-95260714D02*
X92159275Y-95403571D01*
X92159275Y-95403571D02*
X92194990Y-95475000D01*
X92194990Y-95475000D02*
X92230704Y-95510714D01*
X92230704Y-95510714D02*
X92302132Y-95546428D01*
X92302132Y-95546428D02*
X92480704Y-95546428D01*
X92480704Y-95546428D02*
X92552132Y-95510714D01*
X92552132Y-95510714D02*
X92587847Y-95475000D01*
X92587847Y-95475000D02*
X92623561Y-95403571D01*
X92623561Y-95403571D02*
X92623561Y-95260714D01*
X92623561Y-95260714D02*
X92587847Y-95189285D01*
X92587847Y-95189285D02*
X92552132Y-95153571D01*
X92552132Y-95153571D02*
X92480704Y-95117857D01*
D11*
X100637919Y-88357142D02*
X100590300Y-88309523D01*
X100590300Y-88309523D02*
X100542680Y-88166666D01*
X100542680Y-88166666D02*
X100542680Y-88071428D01*
X100542680Y-88071428D02*
X100590300Y-87928571D01*
X100590300Y-87928571D02*
X100685538Y-87833333D01*
X100685538Y-87833333D02*
X100780776Y-87785714D01*
X100780776Y-87785714D02*
X100971252Y-87738095D01*
X100971252Y-87738095D02*
X101114109Y-87738095D01*
X101114109Y-87738095D02*
X101304585Y-87785714D01*
X101304585Y-87785714D02*
X101399823Y-87833333D01*
X101399823Y-87833333D02*
X101495061Y-87928571D01*
X101495061Y-87928571D02*
X101542680Y-88071428D01*
X101542680Y-88071428D02*
X101542680Y-88166666D01*
X101542680Y-88166666D02*
X101495061Y-88309523D01*
X101495061Y-88309523D02*
X101447442Y-88357142D01*
X101542680Y-88690476D02*
X101542680Y-89309523D01*
X101542680Y-89309523D02*
X101161728Y-88976190D01*
X101161728Y-88976190D02*
X101161728Y-89119047D01*
X101161728Y-89119047D02*
X101114109Y-89214285D01*
X101114109Y-89214285D02*
X101066490Y-89261904D01*
X101066490Y-89261904D02*
X100971252Y-89309523D01*
X100971252Y-89309523D02*
X100733157Y-89309523D01*
X100733157Y-89309523D02*
X100637919Y-89261904D01*
X100637919Y-89261904D02*
X100590300Y-89214285D01*
X100590300Y-89214285D02*
X100542680Y-89119047D01*
X100542680Y-89119047D02*
X100542680Y-88833333D01*
X100542680Y-88833333D02*
X100590300Y-88738095D01*
X100590300Y-88738095D02*
X100637919Y-88690476D01*
X100542680Y-89785714D02*
X100542680Y-89976190D01*
X100542680Y-89976190D02*
X100590300Y-90071428D01*
X100590300Y-90071428D02*
X100637919Y-90119047D01*
X100637919Y-90119047D02*
X100780776Y-90214285D01*
X100780776Y-90214285D02*
X100971252Y-90261904D01*
X100971252Y-90261904D02*
X101352204Y-90261904D01*
X101352204Y-90261904D02*
X101447442Y-90214285D01*
X101447442Y-90214285D02*
X101495061Y-90166666D01*
X101495061Y-90166666D02*
X101542680Y-90071428D01*
X101542680Y-90071428D02*
X101542680Y-89880952D01*
X101542680Y-89880952D02*
X101495061Y-89785714D01*
X101495061Y-89785714D02*
X101447442Y-89738095D01*
X101447442Y-89738095D02*
X101352204Y-89690476D01*
X101352204Y-89690476D02*
X101114109Y-89690476D01*
X101114109Y-89690476D02*
X101018871Y-89738095D01*
X101018871Y-89738095D02*
X100971252Y-89785714D01*
X100971252Y-89785714D02*
X100923633Y-89880952D01*
X100923633Y-89880952D02*
X100923633Y-90071428D01*
X100923633Y-90071428D02*
X100971252Y-90166666D01*
X100971252Y-90166666D02*
X101018871Y-90214285D01*
X101018871Y-90214285D02*
X101114109Y-90261904D01*
X93940833Y-78909580D02*
X93893214Y-78957200D01*
X93893214Y-78957200D02*
X93750357Y-79004819D01*
X93750357Y-79004819D02*
X93655119Y-79004819D01*
X93655119Y-79004819D02*
X93512262Y-78957200D01*
X93512262Y-78957200D02*
X93417024Y-78861961D01*
X93417024Y-78861961D02*
X93369405Y-78766723D01*
X93369405Y-78766723D02*
X93321786Y-78576247D01*
X93321786Y-78576247D02*
X93321786Y-78433390D01*
X93321786Y-78433390D02*
X93369405Y-78242914D01*
X93369405Y-78242914D02*
X93417024Y-78147676D01*
X93417024Y-78147676D02*
X93512262Y-78052438D01*
X93512262Y-78052438D02*
X93655119Y-78004819D01*
X93655119Y-78004819D02*
X93750357Y-78004819D01*
X93750357Y-78004819D02*
X93893214Y-78052438D01*
X93893214Y-78052438D02*
X93940833Y-78100057D01*
X94845595Y-78004819D02*
X94369405Y-78004819D01*
X94369405Y-78004819D02*
X94321786Y-78481009D01*
X94321786Y-78481009D02*
X94369405Y-78433390D01*
X94369405Y-78433390D02*
X94464643Y-78385771D01*
X94464643Y-78385771D02*
X94702738Y-78385771D01*
X94702738Y-78385771D02*
X94797976Y-78433390D01*
X94797976Y-78433390D02*
X94845595Y-78481009D01*
X94845595Y-78481009D02*
X94893214Y-78576247D01*
X94893214Y-78576247D02*
X94893214Y-78814342D01*
X94893214Y-78814342D02*
X94845595Y-78909580D01*
X94845595Y-78909580D02*
X94797976Y-78957200D01*
X94797976Y-78957200D02*
X94702738Y-79004819D01*
X94702738Y-79004819D02*
X94464643Y-79004819D01*
X94464643Y-79004819D02*
X94369405Y-78957200D01*
X94369405Y-78957200D02*
X94321786Y-78909580D01*
X91930833Y-79004819D02*
X91597500Y-78528628D01*
X91359405Y-79004819D02*
X91359405Y-78004819D01*
X91359405Y-78004819D02*
X91740357Y-78004819D01*
X91740357Y-78004819D02*
X91835595Y-78052438D01*
X91835595Y-78052438D02*
X91883214Y-78100057D01*
X91883214Y-78100057D02*
X91930833Y-78195295D01*
X91930833Y-78195295D02*
X91930833Y-78338152D01*
X91930833Y-78338152D02*
X91883214Y-78433390D01*
X91883214Y-78433390D02*
X91835595Y-78481009D01*
X91835595Y-78481009D02*
X91740357Y-78528628D01*
X91740357Y-78528628D02*
X91359405Y-78528628D01*
X92502262Y-78433390D02*
X92407024Y-78385771D01*
X92407024Y-78385771D02*
X92359405Y-78338152D01*
X92359405Y-78338152D02*
X92311786Y-78242914D01*
X92311786Y-78242914D02*
X92311786Y-78195295D01*
X92311786Y-78195295D02*
X92359405Y-78100057D01*
X92359405Y-78100057D02*
X92407024Y-78052438D01*
X92407024Y-78052438D02*
X92502262Y-78004819D01*
X92502262Y-78004819D02*
X92692738Y-78004819D01*
X92692738Y-78004819D02*
X92787976Y-78052438D01*
X92787976Y-78052438D02*
X92835595Y-78100057D01*
X92835595Y-78100057D02*
X92883214Y-78195295D01*
X92883214Y-78195295D02*
X92883214Y-78242914D01*
X92883214Y-78242914D02*
X92835595Y-78338152D01*
X92835595Y-78338152D02*
X92787976Y-78385771D01*
X92787976Y-78385771D02*
X92692738Y-78433390D01*
X92692738Y-78433390D02*
X92502262Y-78433390D01*
X92502262Y-78433390D02*
X92407024Y-78481009D01*
X92407024Y-78481009D02*
X92359405Y-78528628D01*
X92359405Y-78528628D02*
X92311786Y-78623866D01*
X92311786Y-78623866D02*
X92311786Y-78814342D01*
X92311786Y-78814342D02*
X92359405Y-78909580D01*
X92359405Y-78909580D02*
X92407024Y-78957200D01*
X92407024Y-78957200D02*
X92502262Y-79004819D01*
X92502262Y-79004819D02*
X92692738Y-79004819D01*
X92692738Y-79004819D02*
X92787976Y-78957200D01*
X92787976Y-78957200D02*
X92835595Y-78909580D01*
X92835595Y-78909580D02*
X92883214Y-78814342D01*
X92883214Y-78814342D02*
X92883214Y-78623866D01*
X92883214Y-78623866D02*
X92835595Y-78528628D01*
X92835595Y-78528628D02*
X92787976Y-78481009D01*
X92787976Y-78481009D02*
X92692738Y-78433390D01*
X141903180Y-93148142D02*
X142379371Y-92814809D01*
X141903180Y-92576714D02*
X142903180Y-92576714D01*
X142903180Y-92576714D02*
X142903180Y-92957666D01*
X142903180Y-92957666D02*
X142855561Y-93052904D01*
X142855561Y-93052904D02*
X142807942Y-93100523D01*
X142807942Y-93100523D02*
X142712704Y-93148142D01*
X142712704Y-93148142D02*
X142569847Y-93148142D01*
X142569847Y-93148142D02*
X142474609Y-93100523D01*
X142474609Y-93100523D02*
X142426990Y-93052904D01*
X142426990Y-93052904D02*
X142379371Y-92957666D01*
X142379371Y-92957666D02*
X142379371Y-92576714D01*
X141903180Y-94100523D02*
X141903180Y-93529095D01*
X141903180Y-93814809D02*
X142903180Y-93814809D01*
X142903180Y-93814809D02*
X142760323Y-93719571D01*
X142760323Y-93719571D02*
X142665085Y-93624333D01*
X142665085Y-93624333D02*
X142617466Y-93529095D01*
X141903180Y-95052904D02*
X141903180Y-94481476D01*
X141903180Y-94767190D02*
X142903180Y-94767190D01*
X142903180Y-94767190D02*
X142760323Y-94671952D01*
X142760323Y-94671952D02*
X142665085Y-94576714D01*
X142665085Y-94576714D02*
X142617466Y-94481476D01*
%TO.C,C19*%
D12*
X151337500Y-100740580D02*
X151337500Y-100459420D01*
X152357500Y-100740580D02*
X152357500Y-100459420D01*
%TO.C,D5*%
X132300000Y-97850000D02*
X139300000Y-97850000D01*
X132300000Y-103350000D02*
X138850000Y-103350000D01*
X133100000Y-101500000D02*
X133100000Y-99700000D01*
X138500000Y-101500000D02*
X138500000Y-99700000D01*
X138850000Y-103350000D02*
X139300000Y-102900000D01*
%TO.C,D1*%
X112300000Y-97850000D02*
X119300000Y-97850000D01*
X112300000Y-103350000D02*
X118850000Y-103350000D01*
X113100000Y-101500000D02*
X113100000Y-99700000D01*
X118500000Y-101500000D02*
X118500000Y-99700000D01*
X118850000Y-103350000D02*
X119300000Y-102900000D01*
%TO.C,C8*%
X96412500Y-101661252D02*
X96412500Y-101138748D01*
X97882500Y-101661252D02*
X97882500Y-101138748D01*
%TO.C,D13*%
X172300000Y-97850000D02*
X179300000Y-97850000D01*
X172300000Y-103350000D02*
X178850000Y-103350000D01*
X173100000Y-101500000D02*
X173100000Y-99700000D01*
X178500000Y-101500000D02*
X178500000Y-99700000D01*
X178850000Y-103350000D02*
X179300000Y-102900000D01*
%TO.C,R17*%
X95112500Y-91852936D02*
X95112500Y-92307064D01*
X96582500Y-91852936D02*
X96582500Y-92307064D01*
%TO.C,C3*%
X104586248Y-81965000D02*
X105108752Y-81965000D01*
X104586248Y-83435000D02*
X105108752Y-83435000D01*
%TO.C,SW1*%
X84097500Y-84500000D02*
X84097500Y-86700000D01*
X84097500Y-90800000D02*
X84097500Y-93100000D01*
X88697500Y-84500000D02*
X88697500Y-93100000D01*
%TO.C,D7*%
X142300000Y-97850000D02*
X149300000Y-97850000D01*
X142300000Y-103350000D02*
X148850000Y-103350000D01*
X143100000Y-101500000D02*
X143100000Y-99700000D01*
X148500000Y-101500000D02*
X148500000Y-99700000D01*
X148850000Y-103350000D02*
X149300000Y-102900000D01*
%TO.C,R14*%
X103990000Y-99327064D02*
X103990000Y-98872936D01*
X105460000Y-99327064D02*
X105460000Y-98872936D01*
%TO.C,D11*%
X162300000Y-97850000D02*
X169300000Y-97850000D01*
X162300000Y-103350000D02*
X168850000Y-103350000D01*
X163100000Y-101500000D02*
X163100000Y-99700000D01*
X168500000Y-101500000D02*
X168500000Y-99700000D01*
X168850000Y-103350000D02*
X169300000Y-102900000D01*
%TO.C,C35*%
X97137500Y-92140580D02*
X97137500Y-91859420D01*
X98157500Y-92140580D02*
X98157500Y-91859420D01*
%TO.C,R3*%
X105074564Y-85965000D02*
X104620436Y-85965000D01*
X105074564Y-87435000D02*
X104620436Y-87435000D01*
%TO.C,R1*%
X111042500Y-94727064D02*
X111042500Y-94272936D01*
X112512500Y-94727064D02*
X112512500Y-94272936D01*
%TO.C,R10*%
X136763000Y-94018064D02*
X136763000Y-93563936D01*
X138233000Y-94018064D02*
X138233000Y-93563936D01*
%TO.C,Q1*%
X101078384Y-97540000D02*
X102598384Y-97540000D01*
X101078384Y-97590000D02*
X101078384Y-97540000D01*
X101078384Y-99490000D02*
X101078384Y-98710000D01*
X101078384Y-100660000D02*
X101078384Y-100610000D01*
X102598384Y-97540000D02*
X102598384Y-98540000D01*
X102598384Y-99660000D02*
X102598384Y-100660000D01*
X102598384Y-100660000D02*
X101078384Y-100660000D01*
X100538384Y-98720000D02*
X100778384Y-99050000D01*
X100298384Y-99050000D01*
X100538384Y-98720000D01*
G36*
X100778384Y-99050000D02*
G01*
X100298384Y-99050000D01*
X100538384Y-98720000D01*
X100778384Y-99050000D01*
G37*
%TO.C,R12*%
X128320436Y-85015000D02*
X128774564Y-85015000D01*
X128320436Y-86485000D02*
X128774564Y-86485000D01*
%TO.C,U4*%
X130638000Y-91128500D02*
X130688000Y-91128500D01*
X130638000Y-92948500D02*
X130638000Y-91128500D01*
X130688000Y-92948500D02*
X130638000Y-92948500D01*
X132588000Y-92948500D02*
X131808000Y-92948500D01*
X133708000Y-91128500D02*
X133758000Y-91128500D01*
X133758000Y-91128500D02*
X133758000Y-92948500D01*
X133758000Y-92948500D02*
X133708000Y-92948500D01*
X133708000Y-90588500D02*
X134038000Y-90348500D01*
X134038000Y-90828500D01*
X133708000Y-90588500D01*
G36*
X134038000Y-90828500D02*
G01*
X133708000Y-90588500D01*
X134038000Y-90348500D01*
X134038000Y-90828500D01*
G37*
%TO.C,C21*%
X161337500Y-100740580D02*
X161337500Y-100459420D01*
X162357500Y-100740580D02*
X162357500Y-100459420D01*
%TO.C,C1*%
X112972500Y-94761252D02*
X112972500Y-94238748D01*
X114442500Y-94761252D02*
X114442500Y-94238748D01*
%TO.C,C10*%
X93187500Y-94040000D02*
X93187500Y-95740000D01*
X93187500Y-99560000D02*
X93187500Y-97860000D01*
X97643063Y-94040000D02*
X93187500Y-94040000D01*
X97643063Y-99560000D02*
X93187500Y-99560000D01*
X98707500Y-95104437D02*
X97643063Y-94040000D01*
X98707500Y-95104437D02*
X98707500Y-95740000D01*
X98707500Y-98495563D02*
X97643063Y-99560000D01*
X98707500Y-98495563D02*
X98707500Y-97860000D01*
X99260000Y-98797500D02*
X99260000Y-98172500D01*
X99572500Y-98485000D02*
X98947500Y-98485000D01*
%TO.C,D25*%
X88468322Y-104602317D02*
X88468322Y-99092317D01*
X88468322Y-104602317D02*
X91768322Y-104602317D01*
X91768322Y-104602317D02*
X91768322Y-99092317D01*
%TO.C,C17*%
X141337500Y-100740580D02*
X141337500Y-100459420D01*
X142357500Y-100740580D02*
X142357500Y-100459420D01*
%TO.C,C13*%
X121337500Y-100740580D02*
X121337500Y-100459420D01*
X122357500Y-100740580D02*
X122357500Y-100459420D01*
%TO.C,J2*%
X121028000Y-89231000D02*
X121028000Y-81391000D01*
X123678000Y-86581000D02*
X123678000Y-89231000D01*
X123678000Y-89231000D02*
X121028000Y-89231000D01*
X126328000Y-81391000D02*
X121028000Y-81391000D01*
X126328000Y-86581000D02*
X123678000Y-86581000D01*
X126328000Y-86581000D02*
X126328000Y-81391000D01*
X126328000Y-87851000D02*
X126328000Y-89231000D01*
X126328000Y-89231000D02*
X124948000Y-89231000D01*
%TO.C,C42*%
X100917500Y-95040580D02*
X100917500Y-94759420D01*
X101937500Y-95040580D02*
X101937500Y-94759420D01*
%TO.C,R7*%
X100112500Y-85372936D02*
X100112500Y-85827064D01*
X101582500Y-85372936D02*
X101582500Y-85827064D01*
%TO.C,C23*%
X171337500Y-100740580D02*
X171337500Y-100459420D01*
X172357500Y-100740580D02*
X172357500Y-100459420D01*
%TO.C,C38*%
X97058752Y-79215000D02*
X96536248Y-79215000D01*
X97058752Y-80685000D02*
X96536248Y-80685000D01*
%TO.C,C7*%
X91061252Y-89865000D02*
X90538748Y-89865000D01*
X91061252Y-91335000D02*
X90538748Y-91335000D01*
%TO.C,U2*%
X93217500Y-84560000D02*
X93312500Y-84560000D01*
X93217500Y-88680000D02*
X93217500Y-84560000D01*
X93312500Y-88680000D02*
X93217500Y-88680000D01*
X98242500Y-84560000D02*
X98337500Y-84560000D01*
X98337500Y-84560000D02*
X98337500Y-88680000D01*
X98337500Y-88680000D02*
X98242500Y-88680000D01*
X98247500Y-84020000D02*
X98577500Y-83780000D01*
X98577500Y-84260000D01*
X98247500Y-84020000D01*
G36*
X98577500Y-84260000D02*
G01*
X98247500Y-84020000D01*
X98577500Y-83780000D01*
X98577500Y-84260000D01*
G37*
%TO.C,C2*%
X116832500Y-94761252D02*
X116832500Y-94238748D01*
X118302500Y-94761252D02*
X118302500Y-94238748D01*
%TO.C,R13*%
X132174564Y-85015000D02*
X131720436Y-85015000D01*
X132174564Y-86485000D02*
X131720436Y-86485000D01*
%TO.C,D23*%
X222300000Y-97850000D02*
X229300000Y-97850000D01*
X222300000Y-103350000D02*
X228850000Y-103350000D01*
X223100000Y-101500000D02*
X223100000Y-99700000D01*
X228500000Y-101500000D02*
X228500000Y-99700000D01*
X228850000Y-103350000D02*
X229300000Y-102900000D01*
%TO.C,TP3*%
X107397500Y-102050000D02*
X109297500Y-102050000D01*
X107397500Y-103950000D02*
X107397500Y-102050000D01*
X109297500Y-102050000D02*
X109297500Y-103950000D01*
X109297500Y-103950000D02*
X107397500Y-103950000D01*
%TO.C,U3*%
X93037500Y-99840000D02*
X94857500Y-99840000D01*
X93037500Y-99890000D02*
X93037500Y-99840000D01*
X93037500Y-102960000D02*
X93037500Y-102910000D01*
X94857500Y-99840000D02*
X94857500Y-99890000D01*
X94857500Y-101010000D02*
X94857500Y-101790000D01*
X94857500Y-102910000D02*
X94857500Y-102960000D01*
X94857500Y-102960000D02*
X93037500Y-102960000D01*
X92497500Y-99890000D02*
X92257500Y-99560000D01*
X92737500Y-99560000D01*
X92497500Y-99890000D01*
G36*
X92497500Y-99890000D02*
G01*
X92257500Y-99560000D01*
X92737500Y-99560000D01*
X92497500Y-99890000D01*
G37*
%TO.C,TP2*%
X107397500Y-99550000D02*
X109297500Y-99550000D01*
X107397500Y-101450000D02*
X107397500Y-99550000D01*
X109297500Y-99550000D02*
X109297500Y-101450000D01*
X109297500Y-101450000D02*
X107397500Y-101450000D01*
%TO.C,C25*%
X181337500Y-100740580D02*
X181337500Y-100459420D01*
X182357500Y-100740580D02*
X182357500Y-100459420D01*
%TO.C,TP4*%
X126797500Y-92600000D02*
X128697500Y-92600000D01*
X126797500Y-94500000D02*
X126797500Y-92600000D01*
X128697500Y-92600000D02*
X128697500Y-94500000D01*
X128697500Y-94500000D02*
X126797500Y-94500000D01*
%TO.C,D15*%
X182300000Y-97850000D02*
X189300000Y-97850000D01*
X182300000Y-103350000D02*
X188850000Y-103350000D01*
X183100000Y-101500000D02*
X183100000Y-99700000D01*
X188500000Y-101500000D02*
X188500000Y-99700000D01*
X188850000Y-103350000D02*
X189300000Y-102900000D01*
%TO.C,D17*%
X192300000Y-97850000D02*
X199300000Y-97850000D01*
X192300000Y-103350000D02*
X198850000Y-103350000D01*
X193100000Y-101500000D02*
X193100000Y-99700000D01*
X198500000Y-101500000D02*
X198500000Y-99700000D01*
X198850000Y-103350000D02*
X199300000Y-102900000D01*
%TO.C,D21*%
X212300000Y-97850000D02*
X219300000Y-97850000D01*
X212300000Y-103350000D02*
X218850000Y-103350000D01*
X213100000Y-101500000D02*
X213100000Y-99700000D01*
X218500000Y-101500000D02*
X218500000Y-99700000D01*
X218850000Y-103350000D02*
X219300000Y-102900000D01*
%TO.C,MK1*%
X87567500Y-75220000D02*
X88947500Y-75220000D01*
X87567500Y-76600000D02*
X87567500Y-75220000D01*
X87567500Y-77870000D02*
X87567500Y-80520000D01*
X87567500Y-77870000D02*
X90327500Y-77870000D01*
X87567500Y-80520000D02*
X90327500Y-80520000D01*
X90327500Y-77870000D02*
X90327500Y-80520000D01*
%TO.C,R9*%
X96570436Y-81165000D02*
X97024564Y-81165000D01*
X96570436Y-82635000D02*
X97024564Y-82635000D01*
%TO.C,D19*%
X202300000Y-97850000D02*
X209300000Y-97850000D01*
X202300000Y-103350000D02*
X208850000Y-103350000D01*
X203100000Y-101500000D02*
X203100000Y-99700000D01*
X208500000Y-101500000D02*
X208500000Y-99700000D01*
X208850000Y-103350000D02*
X209300000Y-102900000D01*
%TO.C,TP1*%
X99850000Y-91150000D02*
X101750000Y-91150000D01*
X99850000Y-93050000D02*
X99850000Y-91150000D01*
X101750000Y-91150000D02*
X101750000Y-93050000D01*
X101750000Y-93050000D02*
X99850000Y-93050000D01*
%TO.C,D3*%
X122300000Y-97850000D02*
X129300000Y-97850000D01*
X122300000Y-103350000D02*
X128850000Y-103350000D01*
X123100000Y-101500000D02*
X123100000Y-99700000D01*
X128500000Y-101500000D02*
X128500000Y-99700000D01*
X128850000Y-103350000D02*
X129300000Y-102900000D01*
%TO.C,C11*%
X111337500Y-100740580D02*
X111337500Y-100459420D01*
X112357500Y-100740580D02*
X112357500Y-100459420D01*
%TO.C,J1*%
X83417500Y-95290000D02*
X85117500Y-95290000D01*
X83417500Y-104630000D02*
X85117500Y-104630000D01*
%TO.C,R4*%
X114902500Y-94272936D02*
X114902500Y-94727064D01*
X116372500Y-94272936D02*
X116372500Y-94727064D01*
%TO.C,R6*%
X91372500Y-84132936D02*
X91372500Y-84587064D01*
X92842500Y-84132936D02*
X92842500Y-84587064D01*
%TO.C,D26*%
X88800000Y-95160000D02*
X89800000Y-95160000D01*
X88800000Y-97100000D02*
X89800000Y-97100000D01*
D10*
X89300000Y-96330000D02*
X89100000Y-96130000D01*
X89300000Y-95930000D01*
X89300000Y-96330000D01*
G36*
X89300000Y-96330000D02*
G01*
X89100000Y-96130000D01*
X89300000Y-95930000D01*
X89300000Y-96330000D01*
G37*
%TO.C,C36*%
D12*
X132459252Y-88216000D02*
X131936748Y-88216000D01*
X132459252Y-89686000D02*
X131936748Y-89686000D01*
%TO.C,C27*%
X191337500Y-100740580D02*
X191337500Y-100459420D01*
X192357500Y-100740580D02*
X192357500Y-100459420D01*
%TO.C,C9*%
X98847500Y-76040000D02*
X100547500Y-76040000D01*
X98847500Y-80495563D02*
X98847500Y-76040000D01*
X99610000Y-82112500D02*
X100235000Y-82112500D01*
X99911937Y-81560000D02*
X98847500Y-80495563D01*
X99911937Y-81560000D02*
X100547500Y-81560000D01*
X99922500Y-82425000D02*
X99922500Y-81800000D01*
X103303063Y-81560000D02*
X102667500Y-81560000D01*
X103303063Y-81560000D02*
X104367500Y-80495563D01*
X104367500Y-76040000D02*
X102667500Y-76040000D01*
X104367500Y-80495563D02*
X104367500Y-76040000D01*
%TO.C,C31*%
X211315000Y-100740580D02*
X211315000Y-100459420D01*
X212335000Y-100740580D02*
X212335000Y-100459420D01*
%TO.C,D9*%
X152300000Y-97850000D02*
X159300000Y-97850000D01*
X152300000Y-103350000D02*
X158850000Y-103350000D01*
X153100000Y-101500000D02*
X153100000Y-99700000D01*
X158500000Y-101500000D02*
X158500000Y-99700000D01*
X158850000Y-103350000D02*
X159300000Y-102900000D01*
%TO.C,U5*%
X103837500Y-92055000D02*
X107957500Y-92055000D01*
X103837500Y-92150000D02*
X103837500Y-92055000D01*
X103837500Y-97175000D02*
X103837500Y-97080000D01*
X107957500Y-92055000D02*
X107957500Y-92150000D01*
X107957500Y-97080000D02*
X107957500Y-97175000D01*
X107957500Y-97175000D02*
X103837500Y-97175000D01*
X108497500Y-97085000D02*
X108737500Y-97415000D01*
X108257500Y-97415000D01*
X108497500Y-97085000D01*
G36*
X108737500Y-97415000D02*
G01*
X108257500Y-97415000D01*
X108497500Y-97085000D01*
X108737500Y-97415000D01*
G37*
%TO.C,C33*%
X221340000Y-100740580D02*
X221340000Y-100459420D01*
X222360000Y-100740580D02*
X222360000Y-100459420D01*
%TO.C,C6*%
X89365000Y-85838748D02*
X89365000Y-86361252D01*
X90835000Y-85838748D02*
X90835000Y-86361252D01*
%TO.C,U1*%
X106855500Y-91010000D02*
X106855500Y-91810000D01*
X106855500Y-91810000D02*
X107655500Y-91810000D01*
X107055500Y-75010000D02*
X120255500Y-75010000D01*
X107055500Y-80410000D02*
X120255500Y-80410000D01*
X107055500Y-91610000D02*
X107055500Y-75010000D01*
X107730500Y-74810000D02*
X106880500Y-74810000D01*
X119705500Y-74810000D02*
X120455500Y-74810000D01*
X120255500Y-75010000D02*
X120255500Y-91610000D01*
X120255500Y-91610000D02*
X107055500Y-91610000D01*
X120455500Y-74810000D02*
X120455500Y-75410000D01*
X120455500Y-91010000D02*
X120455500Y-91810000D01*
X120455500Y-91810000D02*
X119655500Y-91810000D01*
%TO.C,R15*%
X90937258Y-91877500D02*
X90462742Y-91877500D01*
X90937258Y-92922500D02*
X90462742Y-92922500D01*
%TO.C,C37*%
X132458752Y-94565000D02*
X131936248Y-94565000D01*
X132458752Y-96035000D02*
X131936248Y-96035000D01*
%TO.C,C29*%
X201337500Y-100740580D02*
X201337500Y-100459420D01*
X202357500Y-100740580D02*
X202357500Y-100459420D01*
%TO.C,C15*%
X131337500Y-100740580D02*
X131337500Y-100459420D01*
X132357500Y-100740580D02*
X132357500Y-100459420D01*
%TO.C,R2*%
X118762500Y-94727064D02*
X118762500Y-94272936D01*
X120232500Y-94727064D02*
X120232500Y-94272936D01*
%TO.C,R5*%
X91372500Y-87512936D02*
X91372500Y-87967064D01*
X92842500Y-87512936D02*
X92842500Y-87967064D01*
%TO.C,C4*%
X104586248Y-83965000D02*
X105108752Y-83965000D01*
X104586248Y-85435000D02*
X105108752Y-85435000D01*
%TO.C,R16*%
X90462742Y-93477500D02*
X90937258Y-93477500D01*
X90462742Y-94522500D02*
X90937258Y-94522500D01*
%TO.C,C39*%
X98732500Y-88738748D02*
X98732500Y-89261252D01*
X100202500Y-88738748D02*
X100202500Y-89261252D01*
%TO.C,C5*%
X93372500Y-80638748D02*
X93372500Y-81161252D01*
X94842500Y-80638748D02*
X94842500Y-81161252D01*
%TO.C,R8*%
X91362500Y-81127064D02*
X91362500Y-80672936D01*
X92832500Y-81127064D02*
X92832500Y-80672936D01*
%TO.C,R11*%
X138763000Y-94018064D02*
X138763000Y-93563936D01*
X140233000Y-94018064D02*
X140233000Y-93563936D01*
%TD*%
M02*
