M48
; DRILL file {KiCad 7.0.5-0} date 2024 February 12, Monday 14:57:51
; FORMAT={-:-/ absolute / inch / decimal}
; #@! TF.CreationDate,2024-02-12T14:57:51-07:00
; #@! TF.GenerationSoftware,Kicad,Pcbnew,7.0.5-0
; #@! TF.FileFunction,Plated,1,2,PTH
FMAT,2
INCH
; #@! TA.AperFunction,Plated,PTH,ViaDrill
T1C0.0157
; #@! TA.AperFunction,Plated,PTH,ComponentDrill
T2C0.0157
; #@! TA.AperFunction,Plated,PTH,ComponentDrill
T3C0.0197
; #@! TA.AperFunction,Plated,PTH,ComponentDrill
T4C0.0217
; #@! TA.AperFunction,Plated,PTH,ComponentDrill
T5C0.0276
; #@! TA.AperFunction,Plated,PTH,ComponentDrill
T6C0.0354
; #@! TA.AperFunction,Plated,PTH,ComponentDrill
T7C0.0394
; #@! TA.AperFunction,Plated,PTH,ComponentDrill
T8C0.0591
; #@! TA.AperFunction,Plated,PTH,ComponentDrill
T9C0.0866
%
G90
G05
T1
X3.5256Y-3.9921
X3.5782Y-3.5782
X3.5857Y-3.6419
X3.6753Y-3.6735
X3.6987Y-3.8819
X3.6987Y-3.9921
X3.7086Y-3.7343
X3.7656Y-3.3964
X3.8936Y-3.9823
X3.937Y-3.4626
X3.9761Y-3.2766
X4.0048Y-3.2264
X4.0105Y-3.7217
X4.0689Y-3.9508
X4.1702Y-3.6752
X4.1702Y-3.7146
X4.1781Y-3.626
X4.1796Y-3.9016
X4.2Y-3.541
X4.2015Y-3.437
X4.2184Y-3.6555
X4.2371Y-3.7146
X4.2623Y-3.9843
X4.4087Y-3.6953
X4.449Y-3.6953
X4.4606Y-3.9508
X4.4892Y-3.6954
X4.4916Y-3.5276
X4.4989Y-3.6407
X4.5471Y-3.8543
X4.5591Y-4.063
X4.5806Y-3.9016
X4.6344Y-3.7607
X4.6448Y-3.3677
X4.656Y-3.9843
X4.8543Y-3.9508
X4.9389Y-3.8543
X4.9528Y-4.063
X4.9743Y-3.9016
X5.0492Y-3.9843
X5.248Y-3.9508
X5.3306Y-3.8543
X5.3465Y-4.063
X5.37Y-3.9016
X5.4429Y-3.9843
X5.6417Y-3.9508
X5.7263Y-3.8543
X5.7402Y-4.063
X5.7617Y-3.9016
X6.0354Y-3.9508
X6.1141Y-3.8543
X6.126Y-4.063
X6.1554Y-3.9016
X6.4291Y-3.9508
X6.5078Y-3.8543
X6.5276Y-4.063
X6.5471Y-3.9016
X6.8228Y-3.9508
X6.9034Y-3.8543
X6.9213Y-4.063
X6.9428Y-3.9016
X7.2165Y-3.9508
X7.2971Y-3.8543
X7.315Y-4.063
X7.3365Y-3.9016
X7.6102Y-3.9508
X7.6908Y-3.8543
X7.7087Y-4.063
X7.7302Y-3.9016
X8.0039Y-3.9508
X8.0845Y-3.8543
X8.1024Y-4.063
X8.1219Y-3.9016
X8.3976Y-3.9508
X8.4782Y-3.8543
X8.4961Y-4.063
X8.5176Y-3.9016
T2
X3.6469Y-3.1535
X3.6659Y-3.1076
X3.6659Y-3.1995
X3.7118Y-3.0886
X3.7118Y-3.2185
X3.7578Y-3.1076
X3.7578Y-3.1995
X3.7768Y-3.1535
X4.732Y-3.1531
X4.751Y-3.1071
X4.751Y-3.199
X4.7969Y-3.0881
X4.7969Y-3.218
X4.8429Y-3.1071
X4.8429Y-3.199
X4.8619Y-3.1531
T5
X3.5649Y-3.874
X3.9786Y-3.835
X4.3622Y-3.8425
X4.3622Y-4.0787
T6
X3.3983Y-3.4287
X3.3983Y-3.5075
X3.3983Y-3.5862
T7
X3.5019Y-3.0157
X3.5019Y-3.1157
X4.7471Y-3.3054
X4.7471Y-3.4054
X4.7471Y-3.5054
X4.8471Y-3.3054
X4.8471Y-3.4054
X4.8471Y-3.5054
T8
X3.3983Y-3.3461
X3.3983Y-3.6689
T9
X3.7118Y-3.1535
X4.7969Y-3.1531
T3
G00X3.3533Y-3.8002
M15
G01X3.3789Y-3.8002
M16
G05
G00X3.3789Y-4.0758
M15
G01X3.3533Y-4.0758
M16
G05
T4
G00X3.4724Y-3.8337
M15
G01X3.4724Y-3.8455
M16
G05
G00X3.4724Y-4.0305
M15
G01X3.4724Y-4.0423
M16
G05
T0
M30
