%TF.GenerationSoftware,KiCad,Pcbnew,7.0.5-0*%
%TF.CreationDate,2024-03-24T11:58:47-06:00*%
%TF.ProjectId,rainbow-music-pegasus,7261696e-626f-4772-9d6d-757369632d70,rev?*%
%TF.SameCoordinates,Original*%
%TF.FileFunction,Paste,Bot*%
%TF.FilePolarity,Positive*%
%FSLAX46Y46*%
G04 Gerber Fmt 4.6, Leading zero omitted, Abs format (unit mm)*
G04 Created by KiCad (PCBNEW 7.0.5-0) date 2024-03-24 11:58:47*
%MOMM*%
%LPD*%
G01*
G04 APERTURE LIST*
G04 Aperture macros list*
%AMRoundRect*
0 Rectangle with rounded corners*
0 $1 Rounding radius*
0 $2 $3 $4 $5 $6 $7 $8 $9 X,Y pos of 4 corners*
0 Add a 4 corners polygon primitive as box body*
4,1,4,$2,$3,$4,$5,$6,$7,$8,$9,$2,$3,0*
0 Add four circle primitives for the rounded corners*
1,1,$1+$1,$2,$3*
1,1,$1+$1,$4,$5*
1,1,$1+$1,$6,$7*
1,1,$1+$1,$8,$9*
0 Add four rect primitives between the rounded corners*
20,1,$1+$1,$2,$3,$4,$5,0*
20,1,$1+$1,$4,$5,$6,$7,0*
20,1,$1+$1,$6,$7,$8,$9,0*
20,1,$1+$1,$8,$9,$2,$3,0*%
%AMRotRect*
0 Rectangle, with rotation*
0 The origin of the aperture is its center*
0 $1 length*
0 $2 width*
0 $3 Rotation angle, in degrees counterclockwise*
0 Add horizontal line*
21,1,$1,$2,0,0,$3*%
G04 Aperture macros list end*
%ADD10RotRect,2.200000X1.000000X125.000000*%
%ADD11R,1.500000X0.900000*%
%ADD12RoundRect,0.225000X0.250000X-0.225000X0.250000X0.225000X-0.250000X0.225000X-0.250000X-0.225000X0*%
%ADD13RoundRect,0.200000X0.200000X0.275000X-0.200000X0.275000X-0.200000X-0.275000X0.200000X-0.275000X0*%
%ADD14RoundRect,0.200000X-0.200000X-0.275000X0.200000X-0.275000X0.200000X0.275000X-0.200000X0.275000X0*%
G04 APERTURE END LIST*
D10*
%TO.C,SW2*%
X137736848Y-89807964D03*
X133836528Y-84237730D03*
X134460240Y-92102270D03*
X130559920Y-86532036D03*
%TD*%
D11*
%TO.C,D16*%
X188250000Y-98950000D03*
X188250000Y-102250000D03*
X183350000Y-102250000D03*
X183350000Y-98950000D03*
%TD*%
D12*
%TO.C,C28*%
X199747500Y-101375000D03*
X199747500Y-99825000D03*
%TD*%
D11*
%TO.C,D2*%
X118250000Y-98950000D03*
X118250000Y-102250000D03*
X113350000Y-102250000D03*
X113350000Y-98950000D03*
%TD*%
D12*
%TO.C,C12*%
X119747500Y-101375000D03*
X119747500Y-99825000D03*
%TD*%
D11*
%TO.C,D14*%
X178250000Y-98950000D03*
X178250000Y-102250000D03*
X173350000Y-102250000D03*
X173350000Y-98950000D03*
%TD*%
%TO.C,D10*%
X158250000Y-98950000D03*
X158250000Y-102250000D03*
X153350000Y-102250000D03*
X153350000Y-98950000D03*
%TD*%
D12*
%TO.C,C22*%
X169747500Y-101375000D03*
X169747500Y-99825000D03*
%TD*%
D11*
%TO.C,D22*%
X218250000Y-98950000D03*
X218250000Y-102250000D03*
X213350000Y-102250000D03*
X213350000Y-98950000D03*
%TD*%
D12*
%TO.C,C18*%
X149747500Y-101375000D03*
X149747500Y-99825000D03*
%TD*%
%TO.C,C32*%
X219760000Y-101375000D03*
X219760000Y-99825000D03*
%TD*%
D11*
%TO.C,D12*%
X168250000Y-98950000D03*
X168250000Y-102250000D03*
X163350000Y-102250000D03*
X163350000Y-98950000D03*
%TD*%
D12*
%TO.C,C14*%
X129747500Y-101375000D03*
X129747500Y-99825000D03*
%TD*%
D11*
%TO.C,D8*%
X148250000Y-98950000D03*
X148250000Y-102250000D03*
X143350000Y-102250000D03*
X143350000Y-98950000D03*
%TD*%
%TO.C,D4*%
X128250000Y-98950000D03*
X128250000Y-102250000D03*
X123350000Y-102250000D03*
X123350000Y-98950000D03*
%TD*%
D12*
%TO.C,C34*%
X229750000Y-101375000D03*
X229750000Y-99825000D03*
%TD*%
%TO.C,C26*%
X179747500Y-101375000D03*
X179747500Y-99825000D03*
%TD*%
%TO.C,C30*%
X209750000Y-101375000D03*
X209750000Y-99825000D03*
%TD*%
%TO.C,C20*%
X159747500Y-101375000D03*
X159747500Y-99825000D03*
%TD*%
D11*
%TO.C,D18*%
X198250000Y-98950000D03*
X198250000Y-102250000D03*
X193350000Y-102250000D03*
X193350000Y-98950000D03*
%TD*%
D12*
%TO.C,C24*%
X189747500Y-101375000D03*
X189747500Y-99825000D03*
%TD*%
D13*
%TO.C,R15*%
X88712500Y-96710000D03*
X87062500Y-96710000D03*
%TD*%
D12*
%TO.C,C16*%
X139747500Y-101375000D03*
X139747500Y-99825000D03*
%TD*%
D11*
%TO.C,D6*%
X138250000Y-98950000D03*
X138250000Y-102250000D03*
X133350000Y-102250000D03*
X133350000Y-98950000D03*
%TD*%
%TO.C,D24*%
X228250000Y-98950000D03*
X228250000Y-102250000D03*
X223350000Y-102250000D03*
X223350000Y-98950000D03*
%TD*%
D14*
%TO.C,R16*%
X87062500Y-95240000D03*
X88712500Y-95240000D03*
%TD*%
D11*
%TO.C,D20*%
X208250000Y-98950000D03*
X208250000Y-102250000D03*
X203350000Y-102250000D03*
X203350000Y-98950000D03*
%TD*%
M02*
