%TF.GenerationSoftware,KiCad,Pcbnew,7.0.5-0*%
%TF.CreationDate,2024-04-07T22:52:52-06:00*%
%TF.ProjectId,rainbow-music-pegasus,7261696e-626f-4772-9d6d-757369632d70,rev?*%
%TF.SameCoordinates,Original*%
%TF.FileFunction,Legend,Top*%
%TF.FilePolarity,Positive*%
%FSLAX46Y46*%
G04 Gerber Fmt 4.6, Leading zero omitted, Abs format (unit mm)*
G04 Created by KiCad (PCBNEW 7.0.5-0) date 2024-04-07 22:52:52*
%MOMM*%
%LPD*%
G01*
G04 APERTURE LIST*
%ADD10C,0.300000*%
%ADD11C,0.100000*%
%ADD12C,0.150000*%
%ADD13C,0.120000*%
G04 APERTURE END LIST*
D10*
X133938595Y-82423733D02*
X135462405Y-82423733D01*
X134700500Y-83185638D02*
X134700500Y-81661828D01*
D11*
X110456355Y-76864895D02*
X110646831Y-77664895D01*
X110646831Y-77664895D02*
X110799212Y-77093466D01*
X110799212Y-77093466D02*
X110951593Y-77664895D01*
X110951593Y-77664895D02*
X111142070Y-76864895D01*
X111789689Y-77664895D02*
X111789689Y-77245847D01*
X111789689Y-77245847D02*
X111751594Y-77169657D01*
X111751594Y-77169657D02*
X111675403Y-77131561D01*
X111675403Y-77131561D02*
X111523022Y-77131561D01*
X111523022Y-77131561D02*
X111446832Y-77169657D01*
X111789689Y-77626800D02*
X111713498Y-77664895D01*
X111713498Y-77664895D02*
X111523022Y-77664895D01*
X111523022Y-77664895D02*
X111446832Y-77626800D01*
X111446832Y-77626800D02*
X111408736Y-77550609D01*
X111408736Y-77550609D02*
X111408736Y-77474419D01*
X111408736Y-77474419D02*
X111446832Y-77398228D01*
X111446832Y-77398228D02*
X111523022Y-77360133D01*
X111523022Y-77360133D02*
X111713498Y-77360133D01*
X111713498Y-77360133D02*
X111789689Y-77322038D01*
X112094451Y-77131561D02*
X112284927Y-77664895D01*
X112475404Y-77131561D02*
X112284927Y-77664895D01*
X112284927Y-77664895D02*
X112208737Y-77855371D01*
X112208737Y-77855371D02*
X112170642Y-77893466D01*
X112170642Y-77893466D02*
X112094451Y-77931561D01*
X112703975Y-76864895D02*
X112894451Y-77664895D01*
X112894451Y-77664895D02*
X113046832Y-77093466D01*
X113046832Y-77093466D02*
X113199213Y-77664895D01*
X113199213Y-77664895D02*
X113389690Y-76864895D01*
X114037309Y-77664895D02*
X114037309Y-77245847D01*
X114037309Y-77245847D02*
X113999214Y-77169657D01*
X113999214Y-77169657D02*
X113923023Y-77131561D01*
X113923023Y-77131561D02*
X113770642Y-77131561D01*
X113770642Y-77131561D02*
X113694452Y-77169657D01*
X114037309Y-77626800D02*
X113961118Y-77664895D01*
X113961118Y-77664895D02*
X113770642Y-77664895D01*
X113770642Y-77664895D02*
X113694452Y-77626800D01*
X113694452Y-77626800D02*
X113656356Y-77550609D01*
X113656356Y-77550609D02*
X113656356Y-77474419D01*
X113656356Y-77474419D02*
X113694452Y-77398228D01*
X113694452Y-77398228D02*
X113770642Y-77360133D01*
X113770642Y-77360133D02*
X113961118Y-77360133D01*
X113961118Y-77360133D02*
X114037309Y-77322038D01*
X114342071Y-77131561D02*
X114532547Y-77664895D01*
X114723024Y-77131561D02*
X114532547Y-77664895D01*
X114532547Y-77664895D02*
X114456357Y-77855371D01*
X114456357Y-77855371D02*
X114418262Y-77893466D01*
X114418262Y-77893466D02*
X114342071Y-77931561D01*
X114951595Y-76864895D02*
X115142071Y-77664895D01*
X115142071Y-77664895D02*
X115294452Y-77093466D01*
X115294452Y-77093466D02*
X115446833Y-77664895D01*
X115446833Y-77664895D02*
X115637310Y-76864895D01*
X116284929Y-77664895D02*
X116284929Y-77245847D01*
X116284929Y-77245847D02*
X116246834Y-77169657D01*
X116246834Y-77169657D02*
X116170643Y-77131561D01*
X116170643Y-77131561D02*
X116018262Y-77131561D01*
X116018262Y-77131561D02*
X115942072Y-77169657D01*
X116284929Y-77626800D02*
X116208738Y-77664895D01*
X116208738Y-77664895D02*
X116018262Y-77664895D01*
X116018262Y-77664895D02*
X115942072Y-77626800D01*
X115942072Y-77626800D02*
X115903976Y-77550609D01*
X115903976Y-77550609D02*
X115903976Y-77474419D01*
X115903976Y-77474419D02*
X115942072Y-77398228D01*
X115942072Y-77398228D02*
X116018262Y-77360133D01*
X116018262Y-77360133D02*
X116208738Y-77360133D01*
X116208738Y-77360133D02*
X116284929Y-77322038D01*
X116589691Y-77131561D02*
X116780167Y-77664895D01*
X116970644Y-77131561D02*
X116780167Y-77664895D01*
X116780167Y-77664895D02*
X116703977Y-77855371D01*
X116703977Y-77855371D02*
X116665882Y-77893466D01*
X116665882Y-77893466D02*
X116589691Y-77931561D01*
D12*
X121162279Y-89852009D02*
X121495612Y-89852009D01*
X121638469Y-90375819D02*
X121162279Y-90375819D01*
X121162279Y-90375819D02*
X121162279Y-89375819D01*
X121162279Y-89375819D02*
X121638469Y-89375819D01*
X122067041Y-89709152D02*
X122067041Y-90375819D01*
X122067041Y-89804390D02*
X122114660Y-89756771D01*
X122114660Y-89756771D02*
X122209898Y-89709152D01*
X122209898Y-89709152D02*
X122352755Y-89709152D01*
X122352755Y-89709152D02*
X122447993Y-89756771D01*
X122447993Y-89756771D02*
X122495612Y-89852009D01*
X122495612Y-89852009D02*
X122495612Y-90375819D01*
X121019422Y-90985819D02*
X121590850Y-90985819D01*
X121305136Y-91985819D02*
X121305136Y-90985819D01*
X121828946Y-91985819D02*
X122352755Y-91319152D01*
X121828946Y-91319152D02*
X122352755Y-91985819D01*
X121733707Y-93595819D02*
X121400374Y-93119628D01*
X121162279Y-93595819D02*
X121162279Y-92595819D01*
X121162279Y-92595819D02*
X121543231Y-92595819D01*
X121543231Y-92595819D02*
X121638469Y-92643438D01*
X121638469Y-92643438D02*
X121686088Y-92691057D01*
X121686088Y-92691057D02*
X121733707Y-92786295D01*
X121733707Y-92786295D02*
X121733707Y-92929152D01*
X121733707Y-92929152D02*
X121686088Y-93024390D01*
X121686088Y-93024390D02*
X121638469Y-93072009D01*
X121638469Y-93072009D02*
X121543231Y-93119628D01*
X121543231Y-93119628D02*
X121162279Y-93119628D01*
X122067041Y-93595819D02*
X122590850Y-92929152D01*
X122067041Y-92929152D02*
X122590850Y-93595819D01*
X124803006Y-89709152D02*
X124803006Y-90375819D01*
X124803006Y-89804390D02*
X124850625Y-89756771D01*
X124850625Y-89756771D02*
X124945863Y-89709152D01*
X124945863Y-89709152D02*
X125088720Y-89709152D01*
X125088720Y-89709152D02*
X125183958Y-89756771D01*
X125183958Y-89756771D02*
X125231577Y-89852009D01*
X125231577Y-89852009D02*
X125231577Y-90375819D01*
X126136339Y-90328200D02*
X126041101Y-90375819D01*
X126041101Y-90375819D02*
X125850625Y-90375819D01*
X125850625Y-90375819D02*
X125755387Y-90328200D01*
X125755387Y-90328200D02*
X125707768Y-90280580D01*
X125707768Y-90280580D02*
X125660149Y-90185342D01*
X125660149Y-90185342D02*
X125660149Y-89899628D01*
X125660149Y-89899628D02*
X125707768Y-89804390D01*
X125707768Y-89804390D02*
X125755387Y-89756771D01*
X125755387Y-89756771D02*
X125850625Y-89709152D01*
X125850625Y-89709152D02*
X126041101Y-89709152D01*
X126041101Y-89709152D02*
X126136339Y-89756771D01*
X124279196Y-91033438D02*
X124183958Y-90985819D01*
X124183958Y-90985819D02*
X124041101Y-90985819D01*
X124041101Y-90985819D02*
X123898244Y-91033438D01*
X123898244Y-91033438D02*
X123803006Y-91128676D01*
X123803006Y-91128676D02*
X123755387Y-91223914D01*
X123755387Y-91223914D02*
X123707768Y-91414390D01*
X123707768Y-91414390D02*
X123707768Y-91557247D01*
X123707768Y-91557247D02*
X123755387Y-91747723D01*
X123755387Y-91747723D02*
X123803006Y-91842961D01*
X123803006Y-91842961D02*
X123898244Y-91938200D01*
X123898244Y-91938200D02*
X124041101Y-91985819D01*
X124041101Y-91985819D02*
X124136339Y-91985819D01*
X124136339Y-91985819D02*
X124279196Y-91938200D01*
X124279196Y-91938200D02*
X124326815Y-91890580D01*
X124326815Y-91890580D02*
X124326815Y-91557247D01*
X124326815Y-91557247D02*
X124136339Y-91557247D01*
X124755387Y-91319152D02*
X124755387Y-91985819D01*
X124755387Y-91414390D02*
X124803006Y-91366771D01*
X124803006Y-91366771D02*
X124898244Y-91319152D01*
X124898244Y-91319152D02*
X125041101Y-91319152D01*
X125041101Y-91319152D02*
X125136339Y-91366771D01*
X125136339Y-91366771D02*
X125183958Y-91462009D01*
X125183958Y-91462009D02*
X125183958Y-91985819D01*
X126088720Y-91985819D02*
X126088720Y-90985819D01*
X126088720Y-91938200D02*
X125993482Y-91985819D01*
X125993482Y-91985819D02*
X125803006Y-91985819D01*
X125803006Y-91985819D02*
X125707768Y-91938200D01*
X125707768Y-91938200D02*
X125660149Y-91890580D01*
X125660149Y-91890580D02*
X125612530Y-91795342D01*
X125612530Y-91795342D02*
X125612530Y-91509628D01*
X125612530Y-91509628D02*
X125660149Y-91414390D01*
X125660149Y-91414390D02*
X125707768Y-91366771D01*
X125707768Y-91366771D02*
X125803006Y-91319152D01*
X125803006Y-91319152D02*
X125993482Y-91319152D01*
X125993482Y-91319152D02*
X126088720Y-91366771D01*
X123517291Y-93072009D02*
X123660148Y-93119628D01*
X123660148Y-93119628D02*
X123707767Y-93167247D01*
X123707767Y-93167247D02*
X123755386Y-93262485D01*
X123755386Y-93262485D02*
X123755386Y-93405342D01*
X123755386Y-93405342D02*
X123707767Y-93500580D01*
X123707767Y-93500580D02*
X123660148Y-93548200D01*
X123660148Y-93548200D02*
X123564910Y-93595819D01*
X123564910Y-93595819D02*
X123183958Y-93595819D01*
X123183958Y-93595819D02*
X123183958Y-92595819D01*
X123183958Y-92595819D02*
X123517291Y-92595819D01*
X123517291Y-92595819D02*
X123612529Y-92643438D01*
X123612529Y-92643438D02*
X123660148Y-92691057D01*
X123660148Y-92691057D02*
X123707767Y-92786295D01*
X123707767Y-92786295D02*
X123707767Y-92881533D01*
X123707767Y-92881533D02*
X123660148Y-92976771D01*
X123660148Y-92976771D02*
X123612529Y-93024390D01*
X123612529Y-93024390D02*
X123517291Y-93072009D01*
X123517291Y-93072009D02*
X123183958Y-93072009D01*
X124326815Y-93595819D02*
X124231577Y-93548200D01*
X124231577Y-93548200D02*
X124183958Y-93500580D01*
X124183958Y-93500580D02*
X124136339Y-93405342D01*
X124136339Y-93405342D02*
X124136339Y-93119628D01*
X124136339Y-93119628D02*
X124183958Y-93024390D01*
X124183958Y-93024390D02*
X124231577Y-92976771D01*
X124231577Y-92976771D02*
X124326815Y-92929152D01*
X124326815Y-92929152D02*
X124469672Y-92929152D01*
X124469672Y-92929152D02*
X124564910Y-92976771D01*
X124564910Y-92976771D02*
X124612529Y-93024390D01*
X124612529Y-93024390D02*
X124660148Y-93119628D01*
X124660148Y-93119628D02*
X124660148Y-93405342D01*
X124660148Y-93405342D02*
X124612529Y-93500580D01*
X124612529Y-93500580D02*
X124564910Y-93548200D01*
X124564910Y-93548200D02*
X124469672Y-93595819D01*
X124469672Y-93595819D02*
X124326815Y-93595819D01*
X125231577Y-93595819D02*
X125136339Y-93548200D01*
X125136339Y-93548200D02*
X125088720Y-93500580D01*
X125088720Y-93500580D02*
X125041101Y-93405342D01*
X125041101Y-93405342D02*
X125041101Y-93119628D01*
X125041101Y-93119628D02*
X125088720Y-93024390D01*
X125088720Y-93024390D02*
X125136339Y-92976771D01*
X125136339Y-92976771D02*
X125231577Y-92929152D01*
X125231577Y-92929152D02*
X125374434Y-92929152D01*
X125374434Y-92929152D02*
X125469672Y-92976771D01*
X125469672Y-92976771D02*
X125517291Y-93024390D01*
X125517291Y-93024390D02*
X125564910Y-93119628D01*
X125564910Y-93119628D02*
X125564910Y-93405342D01*
X125564910Y-93405342D02*
X125517291Y-93500580D01*
X125517291Y-93500580D02*
X125469672Y-93548200D01*
X125469672Y-93548200D02*
X125374434Y-93595819D01*
X125374434Y-93595819D02*
X125231577Y-93595819D01*
X125850625Y-92929152D02*
X126231577Y-92929152D01*
X125993482Y-92595819D02*
X125993482Y-93452961D01*
X125993482Y-93452961D02*
X126041101Y-93548200D01*
X126041101Y-93548200D02*
X126136339Y-93595819D01*
X126136339Y-93595819D02*
X126231577Y-93595819D01*
%TO.C,SW1*%
X89230300Y-90336667D02*
X89182680Y-90479524D01*
X89182680Y-90479524D02*
X89182680Y-90717619D01*
X89182680Y-90717619D02*
X89230300Y-90812857D01*
X89230300Y-90812857D02*
X89277919Y-90860476D01*
X89277919Y-90860476D02*
X89373157Y-90908095D01*
X89373157Y-90908095D02*
X89468395Y-90908095D01*
X89468395Y-90908095D02*
X89563633Y-90860476D01*
X89563633Y-90860476D02*
X89611252Y-90812857D01*
X89611252Y-90812857D02*
X89658871Y-90717619D01*
X89658871Y-90717619D02*
X89706490Y-90527143D01*
X89706490Y-90527143D02*
X89754109Y-90431905D01*
X89754109Y-90431905D02*
X89801728Y-90384286D01*
X89801728Y-90384286D02*
X89896966Y-90336667D01*
X89896966Y-90336667D02*
X89992204Y-90336667D01*
X89992204Y-90336667D02*
X90087442Y-90384286D01*
X90087442Y-90384286D02*
X90135061Y-90431905D01*
X90135061Y-90431905D02*
X90182680Y-90527143D01*
X90182680Y-90527143D02*
X90182680Y-90765238D01*
X90182680Y-90765238D02*
X90135061Y-90908095D01*
X90182680Y-91241429D02*
X89182680Y-91479524D01*
X89182680Y-91479524D02*
X89896966Y-91670000D01*
X89896966Y-91670000D02*
X89182680Y-91860476D01*
X89182680Y-91860476D02*
X90182680Y-92098572D01*
X89182680Y-93003333D02*
X89182680Y-92431905D01*
X89182680Y-92717619D02*
X90182680Y-92717619D01*
X90182680Y-92717619D02*
X90039823Y-92622381D01*
X90039823Y-92622381D02*
X89944585Y-92527143D01*
X89944585Y-92527143D02*
X89896966Y-92431905D01*
D13*
%TO.C,C42*%
X100376795Y-95112143D02*
X100412510Y-95147857D01*
X100412510Y-95147857D02*
X100448224Y-95255000D01*
X100448224Y-95255000D02*
X100448224Y-95326428D01*
X100448224Y-95326428D02*
X100412510Y-95433571D01*
X100412510Y-95433571D02*
X100341081Y-95505000D01*
X100341081Y-95505000D02*
X100269652Y-95540714D01*
X100269652Y-95540714D02*
X100126795Y-95576428D01*
X100126795Y-95576428D02*
X100019652Y-95576428D01*
X100019652Y-95576428D02*
X99876795Y-95540714D01*
X99876795Y-95540714D02*
X99805367Y-95505000D01*
X99805367Y-95505000D02*
X99733938Y-95433571D01*
X99733938Y-95433571D02*
X99698224Y-95326428D01*
X99698224Y-95326428D02*
X99698224Y-95255000D01*
X99698224Y-95255000D02*
X99733938Y-95147857D01*
X99733938Y-95147857D02*
X99769652Y-95112143D01*
X99948224Y-94469286D02*
X100448224Y-94469286D01*
X99662510Y-94647857D02*
X100198224Y-94826428D01*
X100198224Y-94826428D02*
X100198224Y-94362143D01*
X99769652Y-94112142D02*
X99733938Y-94076428D01*
X99733938Y-94076428D02*
X99698224Y-94005000D01*
X99698224Y-94005000D02*
X99698224Y-93826428D01*
X99698224Y-93826428D02*
X99733938Y-93755000D01*
X99733938Y-93755000D02*
X99769652Y-93719285D01*
X99769652Y-93719285D02*
X99841081Y-93683571D01*
X99841081Y-93683571D02*
X99912510Y-93683571D01*
X99912510Y-93683571D02*
X100019652Y-93719285D01*
X100019652Y-93719285D02*
X100448224Y-94147857D01*
X100448224Y-94147857D02*
X100448224Y-93683571D01*
%TO.C,C19*%
X150686795Y-101082143D02*
X150722510Y-101117857D01*
X150722510Y-101117857D02*
X150758224Y-101225000D01*
X150758224Y-101225000D02*
X150758224Y-101296428D01*
X150758224Y-101296428D02*
X150722510Y-101403571D01*
X150722510Y-101403571D02*
X150651081Y-101475000D01*
X150651081Y-101475000D02*
X150579652Y-101510714D01*
X150579652Y-101510714D02*
X150436795Y-101546428D01*
X150436795Y-101546428D02*
X150329652Y-101546428D01*
X150329652Y-101546428D02*
X150186795Y-101510714D01*
X150186795Y-101510714D02*
X150115367Y-101475000D01*
X150115367Y-101475000D02*
X150043938Y-101403571D01*
X150043938Y-101403571D02*
X150008224Y-101296428D01*
X150008224Y-101296428D02*
X150008224Y-101225000D01*
X150008224Y-101225000D02*
X150043938Y-101117857D01*
X150043938Y-101117857D02*
X150079652Y-101082143D01*
X150758224Y-100367857D02*
X150758224Y-100796428D01*
X150758224Y-100582143D02*
X150008224Y-100582143D01*
X150008224Y-100582143D02*
X150115367Y-100653571D01*
X150115367Y-100653571D02*
X150186795Y-100725000D01*
X150186795Y-100725000D02*
X150222510Y-100796428D01*
X150758224Y-100010714D02*
X150758224Y-99867857D01*
X150758224Y-99867857D02*
X150722510Y-99796428D01*
X150722510Y-99796428D02*
X150686795Y-99760714D01*
X150686795Y-99760714D02*
X150579652Y-99689285D01*
X150579652Y-99689285D02*
X150436795Y-99653571D01*
X150436795Y-99653571D02*
X150151081Y-99653571D01*
X150151081Y-99653571D02*
X150079652Y-99689285D01*
X150079652Y-99689285D02*
X150043938Y-99725000D01*
X150043938Y-99725000D02*
X150008224Y-99796428D01*
X150008224Y-99796428D02*
X150008224Y-99939285D01*
X150008224Y-99939285D02*
X150043938Y-100010714D01*
X150043938Y-100010714D02*
X150079652Y-100046428D01*
X150079652Y-100046428D02*
X150151081Y-100082142D01*
X150151081Y-100082142D02*
X150329652Y-100082142D01*
X150329652Y-100082142D02*
X150401081Y-100046428D01*
X150401081Y-100046428D02*
X150436795Y-100010714D01*
X150436795Y-100010714D02*
X150472510Y-99939285D01*
X150472510Y-99939285D02*
X150472510Y-99796428D01*
X150472510Y-99796428D02*
X150436795Y-99725000D01*
X150436795Y-99725000D02*
X150401081Y-99689285D01*
X150401081Y-99689285D02*
X150329652Y-99653571D01*
D12*
%TO.C,D5*%
X135061905Y-97554819D02*
X135061905Y-96554819D01*
X135061905Y-96554819D02*
X135300000Y-96554819D01*
X135300000Y-96554819D02*
X135442857Y-96602438D01*
X135442857Y-96602438D02*
X135538095Y-96697676D01*
X135538095Y-96697676D02*
X135585714Y-96792914D01*
X135585714Y-96792914D02*
X135633333Y-96983390D01*
X135633333Y-96983390D02*
X135633333Y-97126247D01*
X135633333Y-97126247D02*
X135585714Y-97316723D01*
X135585714Y-97316723D02*
X135538095Y-97411961D01*
X135538095Y-97411961D02*
X135442857Y-97507200D01*
X135442857Y-97507200D02*
X135300000Y-97554819D01*
X135300000Y-97554819D02*
X135061905Y-97554819D01*
X136538095Y-96554819D02*
X136061905Y-96554819D01*
X136061905Y-96554819D02*
X136014286Y-97031009D01*
X136014286Y-97031009D02*
X136061905Y-96983390D01*
X136061905Y-96983390D02*
X136157143Y-96935771D01*
X136157143Y-96935771D02*
X136395238Y-96935771D01*
X136395238Y-96935771D02*
X136490476Y-96983390D01*
X136490476Y-96983390D02*
X136538095Y-97031009D01*
X136538095Y-97031009D02*
X136585714Y-97126247D01*
X136585714Y-97126247D02*
X136585714Y-97364342D01*
X136585714Y-97364342D02*
X136538095Y-97459580D01*
X136538095Y-97459580D02*
X136490476Y-97507200D01*
X136490476Y-97507200D02*
X136395238Y-97554819D01*
X136395238Y-97554819D02*
X136157143Y-97554819D01*
X136157143Y-97554819D02*
X136061905Y-97507200D01*
X136061905Y-97507200D02*
X136014286Y-97459580D01*
%TO.C,D1*%
X119912680Y-97741905D02*
X120912680Y-97741905D01*
X120912680Y-97741905D02*
X120912680Y-97980000D01*
X120912680Y-97980000D02*
X120865061Y-98122857D01*
X120865061Y-98122857D02*
X120769823Y-98218095D01*
X120769823Y-98218095D02*
X120674585Y-98265714D01*
X120674585Y-98265714D02*
X120484109Y-98313333D01*
X120484109Y-98313333D02*
X120341252Y-98313333D01*
X120341252Y-98313333D02*
X120150776Y-98265714D01*
X120150776Y-98265714D02*
X120055538Y-98218095D01*
X120055538Y-98218095D02*
X119960300Y-98122857D01*
X119960300Y-98122857D02*
X119912680Y-97980000D01*
X119912680Y-97980000D02*
X119912680Y-97741905D01*
X119912680Y-99265714D02*
X119912680Y-98694286D01*
X119912680Y-98980000D02*
X120912680Y-98980000D01*
X120912680Y-98980000D02*
X120769823Y-98884762D01*
X120769823Y-98884762D02*
X120674585Y-98789524D01*
X120674585Y-98789524D02*
X120626966Y-98694286D01*
D13*
%TO.C,TP5*%
X126451571Y-85891724D02*
X126880143Y-85891724D01*
X126665857Y-86641724D02*
X126665857Y-85891724D01*
X127130143Y-86641724D02*
X127130143Y-85891724D01*
X127130143Y-85891724D02*
X127415857Y-85891724D01*
X127415857Y-85891724D02*
X127487286Y-85927438D01*
X127487286Y-85927438D02*
X127523000Y-85963152D01*
X127523000Y-85963152D02*
X127558714Y-86034581D01*
X127558714Y-86034581D02*
X127558714Y-86141724D01*
X127558714Y-86141724D02*
X127523000Y-86213152D01*
X127523000Y-86213152D02*
X127487286Y-86248867D01*
X127487286Y-86248867D02*
X127415857Y-86284581D01*
X127415857Y-86284581D02*
X127130143Y-86284581D01*
X128237286Y-85891724D02*
X127880143Y-85891724D01*
X127880143Y-85891724D02*
X127844429Y-86248867D01*
X127844429Y-86248867D02*
X127880143Y-86213152D01*
X127880143Y-86213152D02*
X127951572Y-86177438D01*
X127951572Y-86177438D02*
X128130143Y-86177438D01*
X128130143Y-86177438D02*
X128201572Y-86213152D01*
X128201572Y-86213152D02*
X128237286Y-86248867D01*
X128237286Y-86248867D02*
X128273000Y-86320295D01*
X128273000Y-86320295D02*
X128273000Y-86498867D01*
X128273000Y-86498867D02*
X128237286Y-86570295D01*
X128237286Y-86570295D02*
X128201572Y-86606010D01*
X128201572Y-86606010D02*
X128130143Y-86641724D01*
X128130143Y-86641724D02*
X127951572Y-86641724D01*
X127951572Y-86641724D02*
X127880143Y-86606010D01*
X127880143Y-86606010D02*
X127844429Y-86570295D01*
D12*
%TO.C,C8*%
X102490419Y-101683333D02*
X102442800Y-101635714D01*
X102442800Y-101635714D02*
X102395180Y-101492857D01*
X102395180Y-101492857D02*
X102395180Y-101397619D01*
X102395180Y-101397619D02*
X102442800Y-101254762D01*
X102442800Y-101254762D02*
X102538038Y-101159524D01*
X102538038Y-101159524D02*
X102633276Y-101111905D01*
X102633276Y-101111905D02*
X102823752Y-101064286D01*
X102823752Y-101064286D02*
X102966609Y-101064286D01*
X102966609Y-101064286D02*
X103157085Y-101111905D01*
X103157085Y-101111905D02*
X103252323Y-101159524D01*
X103252323Y-101159524D02*
X103347561Y-101254762D01*
X103347561Y-101254762D02*
X103395180Y-101397619D01*
X103395180Y-101397619D02*
X103395180Y-101492857D01*
X103395180Y-101492857D02*
X103347561Y-101635714D01*
X103347561Y-101635714D02*
X103299942Y-101683333D01*
X102966609Y-102254762D02*
X103014228Y-102159524D01*
X103014228Y-102159524D02*
X103061847Y-102111905D01*
X103061847Y-102111905D02*
X103157085Y-102064286D01*
X103157085Y-102064286D02*
X103204704Y-102064286D01*
X103204704Y-102064286D02*
X103299942Y-102111905D01*
X103299942Y-102111905D02*
X103347561Y-102159524D01*
X103347561Y-102159524D02*
X103395180Y-102254762D01*
X103395180Y-102254762D02*
X103395180Y-102445238D01*
X103395180Y-102445238D02*
X103347561Y-102540476D01*
X103347561Y-102540476D02*
X103299942Y-102588095D01*
X103299942Y-102588095D02*
X103204704Y-102635714D01*
X103204704Y-102635714D02*
X103157085Y-102635714D01*
X103157085Y-102635714D02*
X103061847Y-102588095D01*
X103061847Y-102588095D02*
X103014228Y-102540476D01*
X103014228Y-102540476D02*
X102966609Y-102445238D01*
X102966609Y-102445238D02*
X102966609Y-102254762D01*
X102966609Y-102254762D02*
X102918990Y-102159524D01*
X102918990Y-102159524D02*
X102871371Y-102111905D01*
X102871371Y-102111905D02*
X102776133Y-102064286D01*
X102776133Y-102064286D02*
X102585657Y-102064286D01*
X102585657Y-102064286D02*
X102490419Y-102111905D01*
X102490419Y-102111905D02*
X102442800Y-102159524D01*
X102442800Y-102159524D02*
X102395180Y-102254762D01*
X102395180Y-102254762D02*
X102395180Y-102445238D01*
X102395180Y-102445238D02*
X102442800Y-102540476D01*
X102442800Y-102540476D02*
X102490419Y-102588095D01*
X102490419Y-102588095D02*
X102585657Y-102635714D01*
X102585657Y-102635714D02*
X102776133Y-102635714D01*
X102776133Y-102635714D02*
X102871371Y-102588095D01*
X102871371Y-102588095D02*
X102918990Y-102540476D01*
X102918990Y-102540476D02*
X102966609Y-102445238D01*
%TO.C,D13*%
X174585714Y-97554819D02*
X174585714Y-96554819D01*
X174585714Y-96554819D02*
X174823809Y-96554819D01*
X174823809Y-96554819D02*
X174966666Y-96602438D01*
X174966666Y-96602438D02*
X175061904Y-96697676D01*
X175061904Y-96697676D02*
X175109523Y-96792914D01*
X175109523Y-96792914D02*
X175157142Y-96983390D01*
X175157142Y-96983390D02*
X175157142Y-97126247D01*
X175157142Y-97126247D02*
X175109523Y-97316723D01*
X175109523Y-97316723D02*
X175061904Y-97411961D01*
X175061904Y-97411961D02*
X174966666Y-97507200D01*
X174966666Y-97507200D02*
X174823809Y-97554819D01*
X174823809Y-97554819D02*
X174585714Y-97554819D01*
X176109523Y-97554819D02*
X175538095Y-97554819D01*
X175823809Y-97554819D02*
X175823809Y-96554819D01*
X175823809Y-96554819D02*
X175728571Y-96697676D01*
X175728571Y-96697676D02*
X175633333Y-96792914D01*
X175633333Y-96792914D02*
X175538095Y-96840533D01*
X176442857Y-96554819D02*
X177061904Y-96554819D01*
X177061904Y-96554819D02*
X176728571Y-96935771D01*
X176728571Y-96935771D02*
X176871428Y-96935771D01*
X176871428Y-96935771D02*
X176966666Y-96983390D01*
X176966666Y-96983390D02*
X177014285Y-97031009D01*
X177014285Y-97031009D02*
X177061904Y-97126247D01*
X177061904Y-97126247D02*
X177061904Y-97364342D01*
X177061904Y-97364342D02*
X177014285Y-97459580D01*
X177014285Y-97459580D02*
X176966666Y-97507200D01*
X176966666Y-97507200D02*
X176871428Y-97554819D01*
X176871428Y-97554819D02*
X176585714Y-97554819D01*
X176585714Y-97554819D02*
X176490476Y-97507200D01*
X176490476Y-97507200D02*
X176442857Y-97459580D01*
%TO.C,R17*%
X94202319Y-92672857D02*
X93726128Y-93006190D01*
X94202319Y-93244285D02*
X93202319Y-93244285D01*
X93202319Y-93244285D02*
X93202319Y-92863333D01*
X93202319Y-92863333D02*
X93249938Y-92768095D01*
X93249938Y-92768095D02*
X93297557Y-92720476D01*
X93297557Y-92720476D02*
X93392795Y-92672857D01*
X93392795Y-92672857D02*
X93535652Y-92672857D01*
X93535652Y-92672857D02*
X93630890Y-92720476D01*
X93630890Y-92720476D02*
X93678509Y-92768095D01*
X93678509Y-92768095D02*
X93726128Y-92863333D01*
X93726128Y-92863333D02*
X93726128Y-93244285D01*
X94202319Y-91720476D02*
X94202319Y-92291904D01*
X94202319Y-92006190D02*
X93202319Y-92006190D01*
X93202319Y-92006190D02*
X93345176Y-92101428D01*
X93345176Y-92101428D02*
X93440414Y-92196666D01*
X93440414Y-92196666D02*
X93488033Y-92291904D01*
X93202319Y-91387142D02*
X93202319Y-90720476D01*
X93202319Y-90720476D02*
X94202319Y-91149047D01*
%TO.C,C3*%
X105250833Y-78829580D02*
X105203214Y-78877200D01*
X105203214Y-78877200D02*
X105060357Y-78924819D01*
X105060357Y-78924819D02*
X104965119Y-78924819D01*
X104965119Y-78924819D02*
X104822262Y-78877200D01*
X104822262Y-78877200D02*
X104727024Y-78781961D01*
X104727024Y-78781961D02*
X104679405Y-78686723D01*
X104679405Y-78686723D02*
X104631786Y-78496247D01*
X104631786Y-78496247D02*
X104631786Y-78353390D01*
X104631786Y-78353390D02*
X104679405Y-78162914D01*
X104679405Y-78162914D02*
X104727024Y-78067676D01*
X104727024Y-78067676D02*
X104822262Y-77972438D01*
X104822262Y-77972438D02*
X104965119Y-77924819D01*
X104965119Y-77924819D02*
X105060357Y-77924819D01*
X105060357Y-77924819D02*
X105203214Y-77972438D01*
X105203214Y-77972438D02*
X105250833Y-78020057D01*
X105584167Y-77924819D02*
X106203214Y-77924819D01*
X106203214Y-77924819D02*
X105869881Y-78305771D01*
X105869881Y-78305771D02*
X106012738Y-78305771D01*
X106012738Y-78305771D02*
X106107976Y-78353390D01*
X106107976Y-78353390D02*
X106155595Y-78401009D01*
X106155595Y-78401009D02*
X106203214Y-78496247D01*
X106203214Y-78496247D02*
X106203214Y-78734342D01*
X106203214Y-78734342D02*
X106155595Y-78829580D01*
X106155595Y-78829580D02*
X106107976Y-78877200D01*
X106107976Y-78877200D02*
X106012738Y-78924819D01*
X106012738Y-78924819D02*
X105727024Y-78924819D01*
X105727024Y-78924819D02*
X105631786Y-78877200D01*
X105631786Y-78877200D02*
X105584167Y-78829580D01*
D13*
%TO.C,D27*%
X89636785Y-95590724D02*
X89636785Y-94840724D01*
X89636785Y-94840724D02*
X89815356Y-94840724D01*
X89815356Y-94840724D02*
X89922499Y-94876438D01*
X89922499Y-94876438D02*
X89993928Y-94947867D01*
X89993928Y-94947867D02*
X90029642Y-95019295D01*
X90029642Y-95019295D02*
X90065356Y-95162152D01*
X90065356Y-95162152D02*
X90065356Y-95269295D01*
X90065356Y-95269295D02*
X90029642Y-95412152D01*
X90029642Y-95412152D02*
X89993928Y-95483581D01*
X89993928Y-95483581D02*
X89922499Y-95555010D01*
X89922499Y-95555010D02*
X89815356Y-95590724D01*
X89815356Y-95590724D02*
X89636785Y-95590724D01*
X90351071Y-94912152D02*
X90386785Y-94876438D01*
X90386785Y-94876438D02*
X90458214Y-94840724D01*
X90458214Y-94840724D02*
X90636785Y-94840724D01*
X90636785Y-94840724D02*
X90708214Y-94876438D01*
X90708214Y-94876438D02*
X90743928Y-94912152D01*
X90743928Y-94912152D02*
X90779642Y-94983581D01*
X90779642Y-94983581D02*
X90779642Y-95055010D01*
X90779642Y-95055010D02*
X90743928Y-95162152D01*
X90743928Y-95162152D02*
X90315356Y-95590724D01*
X90315356Y-95590724D02*
X90779642Y-95590724D01*
X91029642Y-94840724D02*
X91529642Y-94840724D01*
X91529642Y-94840724D02*
X91208214Y-95590724D01*
D12*
%TO.C,D7*%
X145061905Y-97554819D02*
X145061905Y-96554819D01*
X145061905Y-96554819D02*
X145300000Y-96554819D01*
X145300000Y-96554819D02*
X145442857Y-96602438D01*
X145442857Y-96602438D02*
X145538095Y-96697676D01*
X145538095Y-96697676D02*
X145585714Y-96792914D01*
X145585714Y-96792914D02*
X145633333Y-96983390D01*
X145633333Y-96983390D02*
X145633333Y-97126247D01*
X145633333Y-97126247D02*
X145585714Y-97316723D01*
X145585714Y-97316723D02*
X145538095Y-97411961D01*
X145538095Y-97411961D02*
X145442857Y-97507200D01*
X145442857Y-97507200D02*
X145300000Y-97554819D01*
X145300000Y-97554819D02*
X145061905Y-97554819D01*
X145966667Y-96554819D02*
X146633333Y-96554819D01*
X146633333Y-96554819D02*
X146204762Y-97554819D01*
%TO.C,R14*%
X105795180Y-98457142D02*
X106271371Y-98123809D01*
X105795180Y-97885714D02*
X106795180Y-97885714D01*
X106795180Y-97885714D02*
X106795180Y-98266666D01*
X106795180Y-98266666D02*
X106747561Y-98361904D01*
X106747561Y-98361904D02*
X106699942Y-98409523D01*
X106699942Y-98409523D02*
X106604704Y-98457142D01*
X106604704Y-98457142D02*
X106461847Y-98457142D01*
X106461847Y-98457142D02*
X106366609Y-98409523D01*
X106366609Y-98409523D02*
X106318990Y-98361904D01*
X106318990Y-98361904D02*
X106271371Y-98266666D01*
X106271371Y-98266666D02*
X106271371Y-97885714D01*
X105795180Y-99409523D02*
X105795180Y-98838095D01*
X105795180Y-99123809D02*
X106795180Y-99123809D01*
X106795180Y-99123809D02*
X106652323Y-99028571D01*
X106652323Y-99028571D02*
X106557085Y-98933333D01*
X106557085Y-98933333D02*
X106509466Y-98838095D01*
X106461847Y-100266666D02*
X105795180Y-100266666D01*
X106842800Y-100028571D02*
X106128514Y-99790476D01*
X106128514Y-99790476D02*
X106128514Y-100409523D01*
%TO.C,D11*%
X164585714Y-97554819D02*
X164585714Y-96554819D01*
X164585714Y-96554819D02*
X164823809Y-96554819D01*
X164823809Y-96554819D02*
X164966666Y-96602438D01*
X164966666Y-96602438D02*
X165061904Y-96697676D01*
X165061904Y-96697676D02*
X165109523Y-96792914D01*
X165109523Y-96792914D02*
X165157142Y-96983390D01*
X165157142Y-96983390D02*
X165157142Y-97126247D01*
X165157142Y-97126247D02*
X165109523Y-97316723D01*
X165109523Y-97316723D02*
X165061904Y-97411961D01*
X165061904Y-97411961D02*
X164966666Y-97507200D01*
X164966666Y-97507200D02*
X164823809Y-97554819D01*
X164823809Y-97554819D02*
X164585714Y-97554819D01*
X166109523Y-97554819D02*
X165538095Y-97554819D01*
X165823809Y-97554819D02*
X165823809Y-96554819D01*
X165823809Y-96554819D02*
X165728571Y-96697676D01*
X165728571Y-96697676D02*
X165633333Y-96792914D01*
X165633333Y-96792914D02*
X165538095Y-96840533D01*
X167061904Y-97554819D02*
X166490476Y-97554819D01*
X166776190Y-97554819D02*
X166776190Y-96554819D01*
X166776190Y-96554819D02*
X166680952Y-96697676D01*
X166680952Y-96697676D02*
X166585714Y-96792914D01*
X166585714Y-96792914D02*
X166490476Y-96840533D01*
D13*
%TO.C,C35*%
X91336795Y-92042143D02*
X91372510Y-92077857D01*
X91372510Y-92077857D02*
X91408224Y-92185000D01*
X91408224Y-92185000D02*
X91408224Y-92256428D01*
X91408224Y-92256428D02*
X91372510Y-92363571D01*
X91372510Y-92363571D02*
X91301081Y-92435000D01*
X91301081Y-92435000D02*
X91229652Y-92470714D01*
X91229652Y-92470714D02*
X91086795Y-92506428D01*
X91086795Y-92506428D02*
X90979652Y-92506428D01*
X90979652Y-92506428D02*
X90836795Y-92470714D01*
X90836795Y-92470714D02*
X90765367Y-92435000D01*
X90765367Y-92435000D02*
X90693938Y-92363571D01*
X90693938Y-92363571D02*
X90658224Y-92256428D01*
X90658224Y-92256428D02*
X90658224Y-92185000D01*
X90658224Y-92185000D02*
X90693938Y-92077857D01*
X90693938Y-92077857D02*
X90729652Y-92042143D01*
X90658224Y-91792143D02*
X90658224Y-91327857D01*
X90658224Y-91327857D02*
X90943938Y-91577857D01*
X90943938Y-91577857D02*
X90943938Y-91470714D01*
X90943938Y-91470714D02*
X90979652Y-91399286D01*
X90979652Y-91399286D02*
X91015367Y-91363571D01*
X91015367Y-91363571D02*
X91086795Y-91327857D01*
X91086795Y-91327857D02*
X91265367Y-91327857D01*
X91265367Y-91327857D02*
X91336795Y-91363571D01*
X91336795Y-91363571D02*
X91372510Y-91399286D01*
X91372510Y-91399286D02*
X91408224Y-91470714D01*
X91408224Y-91470714D02*
X91408224Y-91685000D01*
X91408224Y-91685000D02*
X91372510Y-91756428D01*
X91372510Y-91756428D02*
X91336795Y-91792143D01*
X90658224Y-90649285D02*
X90658224Y-91006428D01*
X90658224Y-91006428D02*
X91015367Y-91042142D01*
X91015367Y-91042142D02*
X90979652Y-91006428D01*
X90979652Y-91006428D02*
X90943938Y-90935000D01*
X90943938Y-90935000D02*
X90943938Y-90756428D01*
X90943938Y-90756428D02*
X90979652Y-90685000D01*
X90979652Y-90685000D02*
X91015367Y-90649285D01*
X91015367Y-90649285D02*
X91086795Y-90613571D01*
X91086795Y-90613571D02*
X91265367Y-90613571D01*
X91265367Y-90613571D02*
X91336795Y-90649285D01*
X91336795Y-90649285D02*
X91372510Y-90685000D01*
X91372510Y-90685000D02*
X91408224Y-90756428D01*
X91408224Y-90756428D02*
X91408224Y-90935000D01*
X91408224Y-90935000D02*
X91372510Y-91006428D01*
X91372510Y-91006428D02*
X91336795Y-91042142D01*
D12*
%TO.C,R3*%
X105350833Y-81524819D02*
X105017500Y-81048628D01*
X104779405Y-81524819D02*
X104779405Y-80524819D01*
X104779405Y-80524819D02*
X105160357Y-80524819D01*
X105160357Y-80524819D02*
X105255595Y-80572438D01*
X105255595Y-80572438D02*
X105303214Y-80620057D01*
X105303214Y-80620057D02*
X105350833Y-80715295D01*
X105350833Y-80715295D02*
X105350833Y-80858152D01*
X105350833Y-80858152D02*
X105303214Y-80953390D01*
X105303214Y-80953390D02*
X105255595Y-81001009D01*
X105255595Y-81001009D02*
X105160357Y-81048628D01*
X105160357Y-81048628D02*
X104779405Y-81048628D01*
X105684167Y-80524819D02*
X106303214Y-80524819D01*
X106303214Y-80524819D02*
X105969881Y-80905771D01*
X105969881Y-80905771D02*
X106112738Y-80905771D01*
X106112738Y-80905771D02*
X106207976Y-80953390D01*
X106207976Y-80953390D02*
X106255595Y-81001009D01*
X106255595Y-81001009D02*
X106303214Y-81096247D01*
X106303214Y-81096247D02*
X106303214Y-81334342D01*
X106303214Y-81334342D02*
X106255595Y-81429580D01*
X106255595Y-81429580D02*
X106207976Y-81477200D01*
X106207976Y-81477200D02*
X106112738Y-81524819D01*
X106112738Y-81524819D02*
X105827024Y-81524819D01*
X105827024Y-81524819D02*
X105731786Y-81477200D01*
X105731786Y-81477200D02*
X105684167Y-81429580D01*
%TO.C,R1*%
X111610833Y-97254819D02*
X111277500Y-96778628D01*
X111039405Y-97254819D02*
X111039405Y-96254819D01*
X111039405Y-96254819D02*
X111420357Y-96254819D01*
X111420357Y-96254819D02*
X111515595Y-96302438D01*
X111515595Y-96302438D02*
X111563214Y-96350057D01*
X111563214Y-96350057D02*
X111610833Y-96445295D01*
X111610833Y-96445295D02*
X111610833Y-96588152D01*
X111610833Y-96588152D02*
X111563214Y-96683390D01*
X111563214Y-96683390D02*
X111515595Y-96731009D01*
X111515595Y-96731009D02*
X111420357Y-96778628D01*
X111420357Y-96778628D02*
X111039405Y-96778628D01*
X112563214Y-97254819D02*
X111991786Y-97254819D01*
X112277500Y-97254819D02*
X112277500Y-96254819D01*
X112277500Y-96254819D02*
X112182262Y-96397676D01*
X112182262Y-96397676D02*
X112087024Y-96492914D01*
X112087024Y-96492914D02*
X111991786Y-96540533D01*
%TO.C,R10*%
X140603180Y-93158142D02*
X141079371Y-92824809D01*
X140603180Y-92586714D02*
X141603180Y-92586714D01*
X141603180Y-92586714D02*
X141603180Y-92967666D01*
X141603180Y-92967666D02*
X141555561Y-93062904D01*
X141555561Y-93062904D02*
X141507942Y-93110523D01*
X141507942Y-93110523D02*
X141412704Y-93158142D01*
X141412704Y-93158142D02*
X141269847Y-93158142D01*
X141269847Y-93158142D02*
X141174609Y-93110523D01*
X141174609Y-93110523D02*
X141126990Y-93062904D01*
X141126990Y-93062904D02*
X141079371Y-92967666D01*
X141079371Y-92967666D02*
X141079371Y-92586714D01*
X140603180Y-94110523D02*
X140603180Y-93539095D01*
X140603180Y-93824809D02*
X141603180Y-93824809D01*
X141603180Y-93824809D02*
X141460323Y-93729571D01*
X141460323Y-93729571D02*
X141365085Y-93634333D01*
X141365085Y-93634333D02*
X141317466Y-93539095D01*
X141603180Y-94729571D02*
X141603180Y-94824809D01*
X141603180Y-94824809D02*
X141555561Y-94920047D01*
X141555561Y-94920047D02*
X141507942Y-94967666D01*
X141507942Y-94967666D02*
X141412704Y-95015285D01*
X141412704Y-95015285D02*
X141222228Y-95062904D01*
X141222228Y-95062904D02*
X140984133Y-95062904D01*
X140984133Y-95062904D02*
X140793657Y-95015285D01*
X140793657Y-95015285D02*
X140698419Y-94967666D01*
X140698419Y-94967666D02*
X140650800Y-94920047D01*
X140650800Y-94920047D02*
X140603180Y-94824809D01*
X140603180Y-94824809D02*
X140603180Y-94729571D01*
X140603180Y-94729571D02*
X140650800Y-94634333D01*
X140650800Y-94634333D02*
X140698419Y-94586714D01*
X140698419Y-94586714D02*
X140793657Y-94539095D01*
X140793657Y-94539095D02*
X140984133Y-94491476D01*
X140984133Y-94491476D02*
X141222228Y-94491476D01*
X141222228Y-94491476D02*
X141412704Y-94539095D01*
X141412704Y-94539095D02*
X141507942Y-94586714D01*
X141507942Y-94586714D02*
X141555561Y-94634333D01*
X141555561Y-94634333D02*
X141603180Y-94729571D01*
%TO.C,Q1*%
X100754761Y-97350057D02*
X100659523Y-97302438D01*
X100659523Y-97302438D02*
X100564285Y-97207200D01*
X100564285Y-97207200D02*
X100421428Y-97064342D01*
X100421428Y-97064342D02*
X100326190Y-97016723D01*
X100326190Y-97016723D02*
X100230952Y-97016723D01*
X100278571Y-97254819D02*
X100183333Y-97207200D01*
X100183333Y-97207200D02*
X100088095Y-97111961D01*
X100088095Y-97111961D02*
X100040476Y-96921485D01*
X100040476Y-96921485D02*
X100040476Y-96588152D01*
X100040476Y-96588152D02*
X100088095Y-96397676D01*
X100088095Y-96397676D02*
X100183333Y-96302438D01*
X100183333Y-96302438D02*
X100278571Y-96254819D01*
X100278571Y-96254819D02*
X100469047Y-96254819D01*
X100469047Y-96254819D02*
X100564285Y-96302438D01*
X100564285Y-96302438D02*
X100659523Y-96397676D01*
X100659523Y-96397676D02*
X100707142Y-96588152D01*
X100707142Y-96588152D02*
X100707142Y-96921485D01*
X100707142Y-96921485D02*
X100659523Y-97111961D01*
X100659523Y-97111961D02*
X100564285Y-97207200D01*
X100564285Y-97207200D02*
X100469047Y-97254819D01*
X100469047Y-97254819D02*
X100278571Y-97254819D01*
X101659523Y-97254819D02*
X101088095Y-97254819D01*
X101373809Y-97254819D02*
X101373809Y-96254819D01*
X101373809Y-96254819D02*
X101278571Y-96397676D01*
X101278571Y-96397676D02*
X101183333Y-96492914D01*
X101183333Y-96492914D02*
X101088095Y-96540533D01*
%TO.C,R12*%
X135707642Y-86155819D02*
X135374309Y-85679628D01*
X135136214Y-86155819D02*
X135136214Y-85155819D01*
X135136214Y-85155819D02*
X135517166Y-85155819D01*
X135517166Y-85155819D02*
X135612404Y-85203438D01*
X135612404Y-85203438D02*
X135660023Y-85251057D01*
X135660023Y-85251057D02*
X135707642Y-85346295D01*
X135707642Y-85346295D02*
X135707642Y-85489152D01*
X135707642Y-85489152D02*
X135660023Y-85584390D01*
X135660023Y-85584390D02*
X135612404Y-85632009D01*
X135612404Y-85632009D02*
X135517166Y-85679628D01*
X135517166Y-85679628D02*
X135136214Y-85679628D01*
X136660023Y-86155819D02*
X136088595Y-86155819D01*
X136374309Y-86155819D02*
X136374309Y-85155819D01*
X136374309Y-85155819D02*
X136279071Y-85298676D01*
X136279071Y-85298676D02*
X136183833Y-85393914D01*
X136183833Y-85393914D02*
X136088595Y-85441533D01*
X137040976Y-85251057D02*
X137088595Y-85203438D01*
X137088595Y-85203438D02*
X137183833Y-85155819D01*
X137183833Y-85155819D02*
X137421928Y-85155819D01*
X137421928Y-85155819D02*
X137517166Y-85203438D01*
X137517166Y-85203438D02*
X137564785Y-85251057D01*
X137564785Y-85251057D02*
X137612404Y-85346295D01*
X137612404Y-85346295D02*
X137612404Y-85441533D01*
X137612404Y-85441533D02*
X137564785Y-85584390D01*
X137564785Y-85584390D02*
X136993357Y-86155819D01*
X136993357Y-86155819D02*
X137612404Y-86155819D01*
%TO.C,U4*%
X134286095Y-90155819D02*
X134286095Y-90965342D01*
X134286095Y-90965342D02*
X134333714Y-91060580D01*
X134333714Y-91060580D02*
X134381333Y-91108200D01*
X134381333Y-91108200D02*
X134476571Y-91155819D01*
X134476571Y-91155819D02*
X134667047Y-91155819D01*
X134667047Y-91155819D02*
X134762285Y-91108200D01*
X134762285Y-91108200D02*
X134809904Y-91060580D01*
X134809904Y-91060580D02*
X134857523Y-90965342D01*
X134857523Y-90965342D02*
X134857523Y-90155819D01*
X135762285Y-90489152D02*
X135762285Y-91155819D01*
X135524190Y-90108200D02*
X135286095Y-90822485D01*
X135286095Y-90822485D02*
X135905142Y-90822485D01*
D13*
%TO.C,C21*%
X160116795Y-101082143D02*
X160152510Y-101117857D01*
X160152510Y-101117857D02*
X160188224Y-101225000D01*
X160188224Y-101225000D02*
X160188224Y-101296428D01*
X160188224Y-101296428D02*
X160152510Y-101403571D01*
X160152510Y-101403571D02*
X160081081Y-101475000D01*
X160081081Y-101475000D02*
X160009652Y-101510714D01*
X160009652Y-101510714D02*
X159866795Y-101546428D01*
X159866795Y-101546428D02*
X159759652Y-101546428D01*
X159759652Y-101546428D02*
X159616795Y-101510714D01*
X159616795Y-101510714D02*
X159545367Y-101475000D01*
X159545367Y-101475000D02*
X159473938Y-101403571D01*
X159473938Y-101403571D02*
X159438224Y-101296428D01*
X159438224Y-101296428D02*
X159438224Y-101225000D01*
X159438224Y-101225000D02*
X159473938Y-101117857D01*
X159473938Y-101117857D02*
X159509652Y-101082143D01*
X159509652Y-100796428D02*
X159473938Y-100760714D01*
X159473938Y-100760714D02*
X159438224Y-100689286D01*
X159438224Y-100689286D02*
X159438224Y-100510714D01*
X159438224Y-100510714D02*
X159473938Y-100439286D01*
X159473938Y-100439286D02*
X159509652Y-100403571D01*
X159509652Y-100403571D02*
X159581081Y-100367857D01*
X159581081Y-100367857D02*
X159652510Y-100367857D01*
X159652510Y-100367857D02*
X159759652Y-100403571D01*
X159759652Y-100403571D02*
X160188224Y-100832143D01*
X160188224Y-100832143D02*
X160188224Y-100367857D01*
X160188224Y-99653571D02*
X160188224Y-100082142D01*
X160188224Y-99867857D02*
X159438224Y-99867857D01*
X159438224Y-99867857D02*
X159545367Y-99939285D01*
X159545367Y-99939285D02*
X159616795Y-100010714D01*
X159616795Y-100010714D02*
X159652510Y-100082142D01*
D12*
%TO.C,C1*%
X113530833Y-97159580D02*
X113483214Y-97207200D01*
X113483214Y-97207200D02*
X113340357Y-97254819D01*
X113340357Y-97254819D02*
X113245119Y-97254819D01*
X113245119Y-97254819D02*
X113102262Y-97207200D01*
X113102262Y-97207200D02*
X113007024Y-97111961D01*
X113007024Y-97111961D02*
X112959405Y-97016723D01*
X112959405Y-97016723D02*
X112911786Y-96826247D01*
X112911786Y-96826247D02*
X112911786Y-96683390D01*
X112911786Y-96683390D02*
X112959405Y-96492914D01*
X112959405Y-96492914D02*
X113007024Y-96397676D01*
X113007024Y-96397676D02*
X113102262Y-96302438D01*
X113102262Y-96302438D02*
X113245119Y-96254819D01*
X113245119Y-96254819D02*
X113340357Y-96254819D01*
X113340357Y-96254819D02*
X113483214Y-96302438D01*
X113483214Y-96302438D02*
X113530833Y-96350057D01*
X114483214Y-97254819D02*
X113911786Y-97254819D01*
X114197500Y-97254819D02*
X114197500Y-96254819D01*
X114197500Y-96254819D02*
X114102262Y-96397676D01*
X114102262Y-96397676D02*
X114007024Y-96492914D01*
X114007024Y-96492914D02*
X113911786Y-96540533D01*
%TO.C,C10*%
X92647080Y-95012857D02*
X92694700Y-95060476D01*
X92694700Y-95060476D02*
X92742319Y-95203333D01*
X92742319Y-95203333D02*
X92742319Y-95298571D01*
X92742319Y-95298571D02*
X92694700Y-95441428D01*
X92694700Y-95441428D02*
X92599461Y-95536666D01*
X92599461Y-95536666D02*
X92504223Y-95584285D01*
X92504223Y-95584285D02*
X92313747Y-95631904D01*
X92313747Y-95631904D02*
X92170890Y-95631904D01*
X92170890Y-95631904D02*
X91980414Y-95584285D01*
X91980414Y-95584285D02*
X91885176Y-95536666D01*
X91885176Y-95536666D02*
X91789938Y-95441428D01*
X91789938Y-95441428D02*
X91742319Y-95298571D01*
X91742319Y-95298571D02*
X91742319Y-95203333D01*
X91742319Y-95203333D02*
X91789938Y-95060476D01*
X91789938Y-95060476D02*
X91837557Y-95012857D01*
X92742319Y-94060476D02*
X92742319Y-94631904D01*
X92742319Y-94346190D02*
X91742319Y-94346190D01*
X91742319Y-94346190D02*
X91885176Y-94441428D01*
X91885176Y-94441428D02*
X91980414Y-94536666D01*
X91980414Y-94536666D02*
X92028033Y-94631904D01*
X91742319Y-93441428D02*
X91742319Y-93346190D01*
X91742319Y-93346190D02*
X91789938Y-93250952D01*
X91789938Y-93250952D02*
X91837557Y-93203333D01*
X91837557Y-93203333D02*
X91932795Y-93155714D01*
X91932795Y-93155714D02*
X92123271Y-93108095D01*
X92123271Y-93108095D02*
X92361366Y-93108095D01*
X92361366Y-93108095D02*
X92551842Y-93155714D01*
X92551842Y-93155714D02*
X92647080Y-93203333D01*
X92647080Y-93203333D02*
X92694700Y-93250952D01*
X92694700Y-93250952D02*
X92742319Y-93346190D01*
X92742319Y-93346190D02*
X92742319Y-93441428D01*
X92742319Y-93441428D02*
X92694700Y-93536666D01*
X92694700Y-93536666D02*
X92647080Y-93584285D01*
X92647080Y-93584285D02*
X92551842Y-93631904D01*
X92551842Y-93631904D02*
X92361366Y-93679523D01*
X92361366Y-93679523D02*
X92123271Y-93679523D01*
X92123271Y-93679523D02*
X91932795Y-93631904D01*
X91932795Y-93631904D02*
X91837557Y-93584285D01*
X91837557Y-93584285D02*
X91789938Y-93536666D01*
X91789938Y-93536666D02*
X91742319Y-93441428D01*
%TO.C,D25*%
X98603564Y-100185714D02*
X99603564Y-100185714D01*
X99603564Y-100185714D02*
X99603564Y-100423809D01*
X99603564Y-100423809D02*
X99555945Y-100566666D01*
X99555945Y-100566666D02*
X99460707Y-100661904D01*
X99460707Y-100661904D02*
X99365469Y-100709523D01*
X99365469Y-100709523D02*
X99174993Y-100757142D01*
X99174993Y-100757142D02*
X99032136Y-100757142D01*
X99032136Y-100757142D02*
X98841660Y-100709523D01*
X98841660Y-100709523D02*
X98746422Y-100661904D01*
X98746422Y-100661904D02*
X98651184Y-100566666D01*
X98651184Y-100566666D02*
X98603564Y-100423809D01*
X98603564Y-100423809D02*
X98603564Y-100185714D01*
X99508326Y-101138095D02*
X99555945Y-101185714D01*
X99555945Y-101185714D02*
X99603564Y-101280952D01*
X99603564Y-101280952D02*
X99603564Y-101519047D01*
X99603564Y-101519047D02*
X99555945Y-101614285D01*
X99555945Y-101614285D02*
X99508326Y-101661904D01*
X99508326Y-101661904D02*
X99413088Y-101709523D01*
X99413088Y-101709523D02*
X99317850Y-101709523D01*
X99317850Y-101709523D02*
X99174993Y-101661904D01*
X99174993Y-101661904D02*
X98603564Y-101090476D01*
X98603564Y-101090476D02*
X98603564Y-101709523D01*
X99603564Y-102614285D02*
X99603564Y-102138095D01*
X99603564Y-102138095D02*
X99127374Y-102090476D01*
X99127374Y-102090476D02*
X99174993Y-102138095D01*
X99174993Y-102138095D02*
X99222612Y-102233333D01*
X99222612Y-102233333D02*
X99222612Y-102471428D01*
X99222612Y-102471428D02*
X99174993Y-102566666D01*
X99174993Y-102566666D02*
X99127374Y-102614285D01*
X99127374Y-102614285D02*
X99032136Y-102661904D01*
X99032136Y-102661904D02*
X98794041Y-102661904D01*
X98794041Y-102661904D02*
X98698803Y-102614285D01*
X98698803Y-102614285D02*
X98651184Y-102566666D01*
X98651184Y-102566666D02*
X98603564Y-102471428D01*
X98603564Y-102471428D02*
X98603564Y-102233333D01*
X98603564Y-102233333D02*
X98651184Y-102138095D01*
X98651184Y-102138095D02*
X98698803Y-102090476D01*
D13*
%TO.C,C17*%
X140686795Y-101082143D02*
X140722510Y-101117857D01*
X140722510Y-101117857D02*
X140758224Y-101225000D01*
X140758224Y-101225000D02*
X140758224Y-101296428D01*
X140758224Y-101296428D02*
X140722510Y-101403571D01*
X140722510Y-101403571D02*
X140651081Y-101475000D01*
X140651081Y-101475000D02*
X140579652Y-101510714D01*
X140579652Y-101510714D02*
X140436795Y-101546428D01*
X140436795Y-101546428D02*
X140329652Y-101546428D01*
X140329652Y-101546428D02*
X140186795Y-101510714D01*
X140186795Y-101510714D02*
X140115367Y-101475000D01*
X140115367Y-101475000D02*
X140043938Y-101403571D01*
X140043938Y-101403571D02*
X140008224Y-101296428D01*
X140008224Y-101296428D02*
X140008224Y-101225000D01*
X140008224Y-101225000D02*
X140043938Y-101117857D01*
X140043938Y-101117857D02*
X140079652Y-101082143D01*
X140758224Y-100367857D02*
X140758224Y-100796428D01*
X140758224Y-100582143D02*
X140008224Y-100582143D01*
X140008224Y-100582143D02*
X140115367Y-100653571D01*
X140115367Y-100653571D02*
X140186795Y-100725000D01*
X140186795Y-100725000D02*
X140222510Y-100796428D01*
X140008224Y-100117857D02*
X140008224Y-99617857D01*
X140008224Y-99617857D02*
X140758224Y-99939285D01*
D12*
%TO.C,J3*%
X129974666Y-78095819D02*
X129974666Y-78810104D01*
X129974666Y-78810104D02*
X129927047Y-78952961D01*
X129927047Y-78952961D02*
X129831809Y-79048200D01*
X129831809Y-79048200D02*
X129688952Y-79095819D01*
X129688952Y-79095819D02*
X129593714Y-79095819D01*
X130355619Y-78095819D02*
X130974666Y-78095819D01*
X130974666Y-78095819D02*
X130641333Y-78476771D01*
X130641333Y-78476771D02*
X130784190Y-78476771D01*
X130784190Y-78476771D02*
X130879428Y-78524390D01*
X130879428Y-78524390D02*
X130927047Y-78572009D01*
X130927047Y-78572009D02*
X130974666Y-78667247D01*
X130974666Y-78667247D02*
X130974666Y-78905342D01*
X130974666Y-78905342D02*
X130927047Y-79000580D01*
X130927047Y-79000580D02*
X130879428Y-79048200D01*
X130879428Y-79048200D02*
X130784190Y-79095819D01*
X130784190Y-79095819D02*
X130498476Y-79095819D01*
X130498476Y-79095819D02*
X130403238Y-79048200D01*
X130403238Y-79048200D02*
X130355619Y-79000580D01*
D13*
%TO.C,C13*%
X120686795Y-101082143D02*
X120722510Y-101117857D01*
X120722510Y-101117857D02*
X120758224Y-101225000D01*
X120758224Y-101225000D02*
X120758224Y-101296428D01*
X120758224Y-101296428D02*
X120722510Y-101403571D01*
X120722510Y-101403571D02*
X120651081Y-101475000D01*
X120651081Y-101475000D02*
X120579652Y-101510714D01*
X120579652Y-101510714D02*
X120436795Y-101546428D01*
X120436795Y-101546428D02*
X120329652Y-101546428D01*
X120329652Y-101546428D02*
X120186795Y-101510714D01*
X120186795Y-101510714D02*
X120115367Y-101475000D01*
X120115367Y-101475000D02*
X120043938Y-101403571D01*
X120043938Y-101403571D02*
X120008224Y-101296428D01*
X120008224Y-101296428D02*
X120008224Y-101225000D01*
X120008224Y-101225000D02*
X120043938Y-101117857D01*
X120043938Y-101117857D02*
X120079652Y-101082143D01*
X120758224Y-100367857D02*
X120758224Y-100796428D01*
X120758224Y-100582143D02*
X120008224Y-100582143D01*
X120008224Y-100582143D02*
X120115367Y-100653571D01*
X120115367Y-100653571D02*
X120186795Y-100725000D01*
X120186795Y-100725000D02*
X120222510Y-100796428D01*
X120008224Y-100117857D02*
X120008224Y-99653571D01*
X120008224Y-99653571D02*
X120293938Y-99903571D01*
X120293938Y-99903571D02*
X120293938Y-99796428D01*
X120293938Y-99796428D02*
X120329652Y-99725000D01*
X120329652Y-99725000D02*
X120365367Y-99689285D01*
X120365367Y-99689285D02*
X120436795Y-99653571D01*
X120436795Y-99653571D02*
X120615367Y-99653571D01*
X120615367Y-99653571D02*
X120686795Y-99689285D01*
X120686795Y-99689285D02*
X120722510Y-99725000D01*
X120722510Y-99725000D02*
X120758224Y-99796428D01*
X120758224Y-99796428D02*
X120758224Y-100010714D01*
X120758224Y-100010714D02*
X120722510Y-100082142D01*
X120722510Y-100082142D02*
X120686795Y-100117857D01*
D12*
%TO.C,J2*%
X123144166Y-79874819D02*
X123144166Y-80589104D01*
X123144166Y-80589104D02*
X123096547Y-80731961D01*
X123096547Y-80731961D02*
X123001309Y-80827200D01*
X123001309Y-80827200D02*
X122858452Y-80874819D01*
X122858452Y-80874819D02*
X122763214Y-80874819D01*
X123572738Y-79970057D02*
X123620357Y-79922438D01*
X123620357Y-79922438D02*
X123715595Y-79874819D01*
X123715595Y-79874819D02*
X123953690Y-79874819D01*
X123953690Y-79874819D02*
X124048928Y-79922438D01*
X124048928Y-79922438D02*
X124096547Y-79970057D01*
X124096547Y-79970057D02*
X124144166Y-80065295D01*
X124144166Y-80065295D02*
X124144166Y-80160533D01*
X124144166Y-80160533D02*
X124096547Y-80303390D01*
X124096547Y-80303390D02*
X123525119Y-80874819D01*
X123525119Y-80874819D02*
X124144166Y-80874819D01*
D13*
%TO.C,TP1*%
X126038724Y-95847428D02*
X126038724Y-95418857D01*
X126788724Y-95633142D02*
X126038724Y-95633142D01*
X126788724Y-95168856D02*
X126038724Y-95168856D01*
X126038724Y-95168856D02*
X126038724Y-94883142D01*
X126038724Y-94883142D02*
X126074438Y-94811713D01*
X126074438Y-94811713D02*
X126110152Y-94775999D01*
X126110152Y-94775999D02*
X126181581Y-94740285D01*
X126181581Y-94740285D02*
X126288724Y-94740285D01*
X126288724Y-94740285D02*
X126360152Y-94775999D01*
X126360152Y-94775999D02*
X126395867Y-94811713D01*
X126395867Y-94811713D02*
X126431581Y-94883142D01*
X126431581Y-94883142D02*
X126431581Y-95168856D01*
X126788724Y-94025999D02*
X126788724Y-94454570D01*
X126788724Y-94240285D02*
X126038724Y-94240285D01*
X126038724Y-94240285D02*
X126145867Y-94311713D01*
X126145867Y-94311713D02*
X126217295Y-94383142D01*
X126217295Y-94383142D02*
X126253010Y-94454570D01*
D12*
%TO.C,R7*%
X100572680Y-84703333D02*
X101048871Y-84370000D01*
X100572680Y-84131905D02*
X101572680Y-84131905D01*
X101572680Y-84131905D02*
X101572680Y-84512857D01*
X101572680Y-84512857D02*
X101525061Y-84608095D01*
X101525061Y-84608095D02*
X101477442Y-84655714D01*
X101477442Y-84655714D02*
X101382204Y-84703333D01*
X101382204Y-84703333D02*
X101239347Y-84703333D01*
X101239347Y-84703333D02*
X101144109Y-84655714D01*
X101144109Y-84655714D02*
X101096490Y-84608095D01*
X101096490Y-84608095D02*
X101048871Y-84512857D01*
X101048871Y-84512857D02*
X101048871Y-84131905D01*
X101572680Y-85036667D02*
X101572680Y-85703333D01*
X101572680Y-85703333D02*
X100572680Y-85274762D01*
D13*
%TO.C,C23*%
X170116795Y-101082143D02*
X170152510Y-101117857D01*
X170152510Y-101117857D02*
X170188224Y-101225000D01*
X170188224Y-101225000D02*
X170188224Y-101296428D01*
X170188224Y-101296428D02*
X170152510Y-101403571D01*
X170152510Y-101403571D02*
X170081081Y-101475000D01*
X170081081Y-101475000D02*
X170009652Y-101510714D01*
X170009652Y-101510714D02*
X169866795Y-101546428D01*
X169866795Y-101546428D02*
X169759652Y-101546428D01*
X169759652Y-101546428D02*
X169616795Y-101510714D01*
X169616795Y-101510714D02*
X169545367Y-101475000D01*
X169545367Y-101475000D02*
X169473938Y-101403571D01*
X169473938Y-101403571D02*
X169438224Y-101296428D01*
X169438224Y-101296428D02*
X169438224Y-101225000D01*
X169438224Y-101225000D02*
X169473938Y-101117857D01*
X169473938Y-101117857D02*
X169509652Y-101082143D01*
X169509652Y-100796428D02*
X169473938Y-100760714D01*
X169473938Y-100760714D02*
X169438224Y-100689286D01*
X169438224Y-100689286D02*
X169438224Y-100510714D01*
X169438224Y-100510714D02*
X169473938Y-100439286D01*
X169473938Y-100439286D02*
X169509652Y-100403571D01*
X169509652Y-100403571D02*
X169581081Y-100367857D01*
X169581081Y-100367857D02*
X169652510Y-100367857D01*
X169652510Y-100367857D02*
X169759652Y-100403571D01*
X169759652Y-100403571D02*
X170188224Y-100832143D01*
X170188224Y-100832143D02*
X170188224Y-100367857D01*
X169438224Y-100117857D02*
X169438224Y-99653571D01*
X169438224Y-99653571D02*
X169723938Y-99903571D01*
X169723938Y-99903571D02*
X169723938Y-99796428D01*
X169723938Y-99796428D02*
X169759652Y-99725000D01*
X169759652Y-99725000D02*
X169795367Y-99689285D01*
X169795367Y-99689285D02*
X169866795Y-99653571D01*
X169866795Y-99653571D02*
X170045367Y-99653571D01*
X170045367Y-99653571D02*
X170116795Y-99689285D01*
X170116795Y-99689285D02*
X170152510Y-99725000D01*
X170152510Y-99725000D02*
X170188224Y-99796428D01*
X170188224Y-99796428D02*
X170188224Y-100010714D01*
X170188224Y-100010714D02*
X170152510Y-100082142D01*
X170152510Y-100082142D02*
X170116795Y-100117857D01*
D12*
%TO.C,C38*%
X96154642Y-78709580D02*
X96107023Y-78757200D01*
X96107023Y-78757200D02*
X95964166Y-78804819D01*
X95964166Y-78804819D02*
X95868928Y-78804819D01*
X95868928Y-78804819D02*
X95726071Y-78757200D01*
X95726071Y-78757200D02*
X95630833Y-78661961D01*
X95630833Y-78661961D02*
X95583214Y-78566723D01*
X95583214Y-78566723D02*
X95535595Y-78376247D01*
X95535595Y-78376247D02*
X95535595Y-78233390D01*
X95535595Y-78233390D02*
X95583214Y-78042914D01*
X95583214Y-78042914D02*
X95630833Y-77947676D01*
X95630833Y-77947676D02*
X95726071Y-77852438D01*
X95726071Y-77852438D02*
X95868928Y-77804819D01*
X95868928Y-77804819D02*
X95964166Y-77804819D01*
X95964166Y-77804819D02*
X96107023Y-77852438D01*
X96107023Y-77852438D02*
X96154642Y-77900057D01*
X96487976Y-77804819D02*
X97107023Y-77804819D01*
X97107023Y-77804819D02*
X96773690Y-78185771D01*
X96773690Y-78185771D02*
X96916547Y-78185771D01*
X96916547Y-78185771D02*
X97011785Y-78233390D01*
X97011785Y-78233390D02*
X97059404Y-78281009D01*
X97059404Y-78281009D02*
X97107023Y-78376247D01*
X97107023Y-78376247D02*
X97107023Y-78614342D01*
X97107023Y-78614342D02*
X97059404Y-78709580D01*
X97059404Y-78709580D02*
X97011785Y-78757200D01*
X97011785Y-78757200D02*
X96916547Y-78804819D01*
X96916547Y-78804819D02*
X96630833Y-78804819D01*
X96630833Y-78804819D02*
X96535595Y-78757200D01*
X96535595Y-78757200D02*
X96487976Y-78709580D01*
X97678452Y-78233390D02*
X97583214Y-78185771D01*
X97583214Y-78185771D02*
X97535595Y-78138152D01*
X97535595Y-78138152D02*
X97487976Y-78042914D01*
X97487976Y-78042914D02*
X97487976Y-77995295D01*
X97487976Y-77995295D02*
X97535595Y-77900057D01*
X97535595Y-77900057D02*
X97583214Y-77852438D01*
X97583214Y-77852438D02*
X97678452Y-77804819D01*
X97678452Y-77804819D02*
X97868928Y-77804819D01*
X97868928Y-77804819D02*
X97964166Y-77852438D01*
X97964166Y-77852438D02*
X98011785Y-77900057D01*
X98011785Y-77900057D02*
X98059404Y-77995295D01*
X98059404Y-77995295D02*
X98059404Y-78042914D01*
X98059404Y-78042914D02*
X98011785Y-78138152D01*
X98011785Y-78138152D02*
X97964166Y-78185771D01*
X97964166Y-78185771D02*
X97868928Y-78233390D01*
X97868928Y-78233390D02*
X97678452Y-78233390D01*
X97678452Y-78233390D02*
X97583214Y-78281009D01*
X97583214Y-78281009D02*
X97535595Y-78328628D01*
X97535595Y-78328628D02*
X97487976Y-78423866D01*
X97487976Y-78423866D02*
X97487976Y-78614342D01*
X97487976Y-78614342D02*
X97535595Y-78709580D01*
X97535595Y-78709580D02*
X97583214Y-78757200D01*
X97583214Y-78757200D02*
X97678452Y-78804819D01*
X97678452Y-78804819D02*
X97868928Y-78804819D01*
X97868928Y-78804819D02*
X97964166Y-78757200D01*
X97964166Y-78757200D02*
X98011785Y-78709580D01*
X98011785Y-78709580D02*
X98059404Y-78614342D01*
X98059404Y-78614342D02*
X98059404Y-78423866D01*
X98059404Y-78423866D02*
X98011785Y-78328628D01*
X98011785Y-78328628D02*
X97964166Y-78281009D01*
X97964166Y-78281009D02*
X97868928Y-78233390D01*
%TO.C,C7*%
X99890419Y-101683333D02*
X99842800Y-101635714D01*
X99842800Y-101635714D02*
X99795180Y-101492857D01*
X99795180Y-101492857D02*
X99795180Y-101397619D01*
X99795180Y-101397619D02*
X99842800Y-101254762D01*
X99842800Y-101254762D02*
X99938038Y-101159524D01*
X99938038Y-101159524D02*
X100033276Y-101111905D01*
X100033276Y-101111905D02*
X100223752Y-101064286D01*
X100223752Y-101064286D02*
X100366609Y-101064286D01*
X100366609Y-101064286D02*
X100557085Y-101111905D01*
X100557085Y-101111905D02*
X100652323Y-101159524D01*
X100652323Y-101159524D02*
X100747561Y-101254762D01*
X100747561Y-101254762D02*
X100795180Y-101397619D01*
X100795180Y-101397619D02*
X100795180Y-101492857D01*
X100795180Y-101492857D02*
X100747561Y-101635714D01*
X100747561Y-101635714D02*
X100699942Y-101683333D01*
X100795180Y-102016667D02*
X100795180Y-102683333D01*
X100795180Y-102683333D02*
X99795180Y-102254762D01*
%TO.C,U2*%
X96736319Y-87361904D02*
X97545842Y-87361904D01*
X97545842Y-87361904D02*
X97641080Y-87314285D01*
X97641080Y-87314285D02*
X97688700Y-87266666D01*
X97688700Y-87266666D02*
X97736319Y-87171428D01*
X97736319Y-87171428D02*
X97736319Y-86980952D01*
X97736319Y-86980952D02*
X97688700Y-86885714D01*
X97688700Y-86885714D02*
X97641080Y-86838095D01*
X97641080Y-86838095D02*
X97545842Y-86790476D01*
X97545842Y-86790476D02*
X96736319Y-86790476D01*
X96831557Y-86361904D02*
X96783938Y-86314285D01*
X96783938Y-86314285D02*
X96736319Y-86219047D01*
X96736319Y-86219047D02*
X96736319Y-85980952D01*
X96736319Y-85980952D02*
X96783938Y-85885714D01*
X96783938Y-85885714D02*
X96831557Y-85838095D01*
X96831557Y-85838095D02*
X96926795Y-85790476D01*
X96926795Y-85790476D02*
X97022033Y-85790476D01*
X97022033Y-85790476D02*
X97164890Y-85838095D01*
X97164890Y-85838095D02*
X97736319Y-86409523D01*
X97736319Y-86409523D02*
X97736319Y-85790476D01*
%TO.C,C2*%
X117391717Y-97159580D02*
X117344098Y-97207200D01*
X117344098Y-97207200D02*
X117201241Y-97254819D01*
X117201241Y-97254819D02*
X117106003Y-97254819D01*
X117106003Y-97254819D02*
X116963146Y-97207200D01*
X116963146Y-97207200D02*
X116867908Y-97111961D01*
X116867908Y-97111961D02*
X116820289Y-97016723D01*
X116820289Y-97016723D02*
X116772670Y-96826247D01*
X116772670Y-96826247D02*
X116772670Y-96683390D01*
X116772670Y-96683390D02*
X116820289Y-96492914D01*
X116820289Y-96492914D02*
X116867908Y-96397676D01*
X116867908Y-96397676D02*
X116963146Y-96302438D01*
X116963146Y-96302438D02*
X117106003Y-96254819D01*
X117106003Y-96254819D02*
X117201241Y-96254819D01*
X117201241Y-96254819D02*
X117344098Y-96302438D01*
X117344098Y-96302438D02*
X117391717Y-96350057D01*
X117772670Y-96350057D02*
X117820289Y-96302438D01*
X117820289Y-96302438D02*
X117915527Y-96254819D01*
X117915527Y-96254819D02*
X118153622Y-96254819D01*
X118153622Y-96254819D02*
X118248860Y-96302438D01*
X118248860Y-96302438D02*
X118296479Y-96350057D01*
X118296479Y-96350057D02*
X118344098Y-96445295D01*
X118344098Y-96445295D02*
X118344098Y-96540533D01*
X118344098Y-96540533D02*
X118296479Y-96683390D01*
X118296479Y-96683390D02*
X117725051Y-97254819D01*
X117725051Y-97254819D02*
X118344098Y-97254819D01*
%TO.C,R13*%
X138607642Y-86155819D02*
X138274309Y-85679628D01*
X138036214Y-86155819D02*
X138036214Y-85155819D01*
X138036214Y-85155819D02*
X138417166Y-85155819D01*
X138417166Y-85155819D02*
X138512404Y-85203438D01*
X138512404Y-85203438D02*
X138560023Y-85251057D01*
X138560023Y-85251057D02*
X138607642Y-85346295D01*
X138607642Y-85346295D02*
X138607642Y-85489152D01*
X138607642Y-85489152D02*
X138560023Y-85584390D01*
X138560023Y-85584390D02*
X138512404Y-85632009D01*
X138512404Y-85632009D02*
X138417166Y-85679628D01*
X138417166Y-85679628D02*
X138036214Y-85679628D01*
X139560023Y-86155819D02*
X138988595Y-86155819D01*
X139274309Y-86155819D02*
X139274309Y-85155819D01*
X139274309Y-85155819D02*
X139179071Y-85298676D01*
X139179071Y-85298676D02*
X139083833Y-85393914D01*
X139083833Y-85393914D02*
X138988595Y-85441533D01*
X139893357Y-85155819D02*
X140512404Y-85155819D01*
X140512404Y-85155819D02*
X140179071Y-85536771D01*
X140179071Y-85536771D02*
X140321928Y-85536771D01*
X140321928Y-85536771D02*
X140417166Y-85584390D01*
X140417166Y-85584390D02*
X140464785Y-85632009D01*
X140464785Y-85632009D02*
X140512404Y-85727247D01*
X140512404Y-85727247D02*
X140512404Y-85965342D01*
X140512404Y-85965342D02*
X140464785Y-86060580D01*
X140464785Y-86060580D02*
X140417166Y-86108200D01*
X140417166Y-86108200D02*
X140321928Y-86155819D01*
X140321928Y-86155819D02*
X140036214Y-86155819D01*
X140036214Y-86155819D02*
X139940976Y-86108200D01*
X139940976Y-86108200D02*
X139893357Y-86060580D01*
%TO.C,D23*%
X224585714Y-97554819D02*
X224585714Y-96554819D01*
X224585714Y-96554819D02*
X224823809Y-96554819D01*
X224823809Y-96554819D02*
X224966666Y-96602438D01*
X224966666Y-96602438D02*
X225061904Y-96697676D01*
X225061904Y-96697676D02*
X225109523Y-96792914D01*
X225109523Y-96792914D02*
X225157142Y-96983390D01*
X225157142Y-96983390D02*
X225157142Y-97126247D01*
X225157142Y-97126247D02*
X225109523Y-97316723D01*
X225109523Y-97316723D02*
X225061904Y-97411961D01*
X225061904Y-97411961D02*
X224966666Y-97507200D01*
X224966666Y-97507200D02*
X224823809Y-97554819D01*
X224823809Y-97554819D02*
X224585714Y-97554819D01*
X225538095Y-96650057D02*
X225585714Y-96602438D01*
X225585714Y-96602438D02*
X225680952Y-96554819D01*
X225680952Y-96554819D02*
X225919047Y-96554819D01*
X225919047Y-96554819D02*
X226014285Y-96602438D01*
X226014285Y-96602438D02*
X226061904Y-96650057D01*
X226061904Y-96650057D02*
X226109523Y-96745295D01*
X226109523Y-96745295D02*
X226109523Y-96840533D01*
X226109523Y-96840533D02*
X226061904Y-96983390D01*
X226061904Y-96983390D02*
X225490476Y-97554819D01*
X225490476Y-97554819D02*
X226109523Y-97554819D01*
X226442857Y-96554819D02*
X227061904Y-96554819D01*
X227061904Y-96554819D02*
X226728571Y-96935771D01*
X226728571Y-96935771D02*
X226871428Y-96935771D01*
X226871428Y-96935771D02*
X226966666Y-96983390D01*
X226966666Y-96983390D02*
X227014285Y-97031009D01*
X227014285Y-97031009D02*
X227061904Y-97126247D01*
X227061904Y-97126247D02*
X227061904Y-97364342D01*
X227061904Y-97364342D02*
X227014285Y-97459580D01*
X227014285Y-97459580D02*
X226966666Y-97507200D01*
X226966666Y-97507200D02*
X226871428Y-97554819D01*
X226871428Y-97554819D02*
X226585714Y-97554819D01*
X226585714Y-97554819D02*
X226490476Y-97507200D01*
X226490476Y-97507200D02*
X226442857Y-97459580D01*
D13*
%TO.C,TP3*%
X110406775Y-102653571D02*
X110406775Y-103082143D01*
X109656775Y-102867857D02*
X110406775Y-102867857D01*
X109656775Y-103332143D02*
X110406775Y-103332143D01*
X110406775Y-103332143D02*
X110406775Y-103617857D01*
X110406775Y-103617857D02*
X110371061Y-103689286D01*
X110371061Y-103689286D02*
X110335347Y-103725000D01*
X110335347Y-103725000D02*
X110263918Y-103760714D01*
X110263918Y-103760714D02*
X110156775Y-103760714D01*
X110156775Y-103760714D02*
X110085347Y-103725000D01*
X110085347Y-103725000D02*
X110049632Y-103689286D01*
X110049632Y-103689286D02*
X110013918Y-103617857D01*
X110013918Y-103617857D02*
X110013918Y-103332143D01*
X110406775Y-104010714D02*
X110406775Y-104475000D01*
X110406775Y-104475000D02*
X110121061Y-104225000D01*
X110121061Y-104225000D02*
X110121061Y-104332143D01*
X110121061Y-104332143D02*
X110085347Y-104403572D01*
X110085347Y-104403572D02*
X110049632Y-104439286D01*
X110049632Y-104439286D02*
X109978204Y-104475000D01*
X109978204Y-104475000D02*
X109799632Y-104475000D01*
X109799632Y-104475000D02*
X109728204Y-104439286D01*
X109728204Y-104439286D02*
X109692490Y-104403572D01*
X109692490Y-104403572D02*
X109656775Y-104332143D01*
X109656775Y-104332143D02*
X109656775Y-104117857D01*
X109656775Y-104117857D02*
X109692490Y-104046429D01*
X109692490Y-104046429D02*
X109728204Y-104010714D01*
D12*
%TO.C,U3*%
X102095180Y-101088095D02*
X101285657Y-101088095D01*
X101285657Y-101088095D02*
X101190419Y-101135714D01*
X101190419Y-101135714D02*
X101142800Y-101183333D01*
X101142800Y-101183333D02*
X101095180Y-101278571D01*
X101095180Y-101278571D02*
X101095180Y-101469047D01*
X101095180Y-101469047D02*
X101142800Y-101564285D01*
X101142800Y-101564285D02*
X101190419Y-101611904D01*
X101190419Y-101611904D02*
X101285657Y-101659523D01*
X101285657Y-101659523D02*
X102095180Y-101659523D01*
X102095180Y-102040476D02*
X102095180Y-102659523D01*
X102095180Y-102659523D02*
X101714228Y-102326190D01*
X101714228Y-102326190D02*
X101714228Y-102469047D01*
X101714228Y-102469047D02*
X101666609Y-102564285D01*
X101666609Y-102564285D02*
X101618990Y-102611904D01*
X101618990Y-102611904D02*
X101523752Y-102659523D01*
X101523752Y-102659523D02*
X101285657Y-102659523D01*
X101285657Y-102659523D02*
X101190419Y-102611904D01*
X101190419Y-102611904D02*
X101142800Y-102564285D01*
X101142800Y-102564285D02*
X101095180Y-102469047D01*
X101095180Y-102469047D02*
X101095180Y-102183333D01*
X101095180Y-102183333D02*
X101142800Y-102088095D01*
X101142800Y-102088095D02*
X101190419Y-102040476D01*
%TO.C,C41*%
X98587919Y-91367142D02*
X98540300Y-91319523D01*
X98540300Y-91319523D02*
X98492680Y-91176666D01*
X98492680Y-91176666D02*
X98492680Y-91081428D01*
X98492680Y-91081428D02*
X98540300Y-90938571D01*
X98540300Y-90938571D02*
X98635538Y-90843333D01*
X98635538Y-90843333D02*
X98730776Y-90795714D01*
X98730776Y-90795714D02*
X98921252Y-90748095D01*
X98921252Y-90748095D02*
X99064109Y-90748095D01*
X99064109Y-90748095D02*
X99254585Y-90795714D01*
X99254585Y-90795714D02*
X99349823Y-90843333D01*
X99349823Y-90843333D02*
X99445061Y-90938571D01*
X99445061Y-90938571D02*
X99492680Y-91081428D01*
X99492680Y-91081428D02*
X99492680Y-91176666D01*
X99492680Y-91176666D02*
X99445061Y-91319523D01*
X99445061Y-91319523D02*
X99397442Y-91367142D01*
X99159347Y-92224285D02*
X98492680Y-92224285D01*
X99540300Y-91986190D02*
X98826014Y-91748095D01*
X98826014Y-91748095D02*
X98826014Y-92367142D01*
X98492680Y-93271904D02*
X98492680Y-92700476D01*
X98492680Y-92986190D02*
X99492680Y-92986190D01*
X99492680Y-92986190D02*
X99349823Y-92890952D01*
X99349823Y-92890952D02*
X99254585Y-92795714D01*
X99254585Y-92795714D02*
X99206966Y-92700476D01*
D13*
%TO.C,TP2*%
X107451071Y-99040724D02*
X107879643Y-99040724D01*
X107665357Y-99790724D02*
X107665357Y-99040724D01*
X108129643Y-99790724D02*
X108129643Y-99040724D01*
X108129643Y-99040724D02*
X108415357Y-99040724D01*
X108415357Y-99040724D02*
X108486786Y-99076438D01*
X108486786Y-99076438D02*
X108522500Y-99112152D01*
X108522500Y-99112152D02*
X108558214Y-99183581D01*
X108558214Y-99183581D02*
X108558214Y-99290724D01*
X108558214Y-99290724D02*
X108522500Y-99362152D01*
X108522500Y-99362152D02*
X108486786Y-99397867D01*
X108486786Y-99397867D02*
X108415357Y-99433581D01*
X108415357Y-99433581D02*
X108129643Y-99433581D01*
X108843929Y-99112152D02*
X108879643Y-99076438D01*
X108879643Y-99076438D02*
X108951072Y-99040724D01*
X108951072Y-99040724D02*
X109129643Y-99040724D01*
X109129643Y-99040724D02*
X109201072Y-99076438D01*
X109201072Y-99076438D02*
X109236786Y-99112152D01*
X109236786Y-99112152D02*
X109272500Y-99183581D01*
X109272500Y-99183581D02*
X109272500Y-99255010D01*
X109272500Y-99255010D02*
X109236786Y-99362152D01*
X109236786Y-99362152D02*
X108808214Y-99790724D01*
X108808214Y-99790724D02*
X109272500Y-99790724D01*
%TO.C,C25*%
X180116795Y-101082143D02*
X180152510Y-101117857D01*
X180152510Y-101117857D02*
X180188224Y-101225000D01*
X180188224Y-101225000D02*
X180188224Y-101296428D01*
X180188224Y-101296428D02*
X180152510Y-101403571D01*
X180152510Y-101403571D02*
X180081081Y-101475000D01*
X180081081Y-101475000D02*
X180009652Y-101510714D01*
X180009652Y-101510714D02*
X179866795Y-101546428D01*
X179866795Y-101546428D02*
X179759652Y-101546428D01*
X179759652Y-101546428D02*
X179616795Y-101510714D01*
X179616795Y-101510714D02*
X179545367Y-101475000D01*
X179545367Y-101475000D02*
X179473938Y-101403571D01*
X179473938Y-101403571D02*
X179438224Y-101296428D01*
X179438224Y-101296428D02*
X179438224Y-101225000D01*
X179438224Y-101225000D02*
X179473938Y-101117857D01*
X179473938Y-101117857D02*
X179509652Y-101082143D01*
X179509652Y-100796428D02*
X179473938Y-100760714D01*
X179473938Y-100760714D02*
X179438224Y-100689286D01*
X179438224Y-100689286D02*
X179438224Y-100510714D01*
X179438224Y-100510714D02*
X179473938Y-100439286D01*
X179473938Y-100439286D02*
X179509652Y-100403571D01*
X179509652Y-100403571D02*
X179581081Y-100367857D01*
X179581081Y-100367857D02*
X179652510Y-100367857D01*
X179652510Y-100367857D02*
X179759652Y-100403571D01*
X179759652Y-100403571D02*
X180188224Y-100832143D01*
X180188224Y-100832143D02*
X180188224Y-100367857D01*
X179438224Y-99689285D02*
X179438224Y-100046428D01*
X179438224Y-100046428D02*
X179795367Y-100082142D01*
X179795367Y-100082142D02*
X179759652Y-100046428D01*
X179759652Y-100046428D02*
X179723938Y-99975000D01*
X179723938Y-99975000D02*
X179723938Y-99796428D01*
X179723938Y-99796428D02*
X179759652Y-99725000D01*
X179759652Y-99725000D02*
X179795367Y-99689285D01*
X179795367Y-99689285D02*
X179866795Y-99653571D01*
X179866795Y-99653571D02*
X180045367Y-99653571D01*
X180045367Y-99653571D02*
X180116795Y-99689285D01*
X180116795Y-99689285D02*
X180152510Y-99725000D01*
X180152510Y-99725000D02*
X180188224Y-99796428D01*
X180188224Y-99796428D02*
X180188224Y-99975000D01*
X180188224Y-99975000D02*
X180152510Y-100046428D01*
X180152510Y-100046428D02*
X180116795Y-100082142D01*
%TO.C,TP4*%
X127051571Y-91591724D02*
X127480143Y-91591724D01*
X127265857Y-92341724D02*
X127265857Y-91591724D01*
X127730143Y-92341724D02*
X127730143Y-91591724D01*
X127730143Y-91591724D02*
X128015857Y-91591724D01*
X128015857Y-91591724D02*
X128087286Y-91627438D01*
X128087286Y-91627438D02*
X128123000Y-91663152D01*
X128123000Y-91663152D02*
X128158714Y-91734581D01*
X128158714Y-91734581D02*
X128158714Y-91841724D01*
X128158714Y-91841724D02*
X128123000Y-91913152D01*
X128123000Y-91913152D02*
X128087286Y-91948867D01*
X128087286Y-91948867D02*
X128015857Y-91984581D01*
X128015857Y-91984581D02*
X127730143Y-91984581D01*
X128801572Y-91841724D02*
X128801572Y-92341724D01*
X128623000Y-91556010D02*
X128444429Y-92091724D01*
X128444429Y-92091724D02*
X128908714Y-92091724D01*
D12*
%TO.C,D15*%
X184585714Y-97554819D02*
X184585714Y-96554819D01*
X184585714Y-96554819D02*
X184823809Y-96554819D01*
X184823809Y-96554819D02*
X184966666Y-96602438D01*
X184966666Y-96602438D02*
X185061904Y-96697676D01*
X185061904Y-96697676D02*
X185109523Y-96792914D01*
X185109523Y-96792914D02*
X185157142Y-96983390D01*
X185157142Y-96983390D02*
X185157142Y-97126247D01*
X185157142Y-97126247D02*
X185109523Y-97316723D01*
X185109523Y-97316723D02*
X185061904Y-97411961D01*
X185061904Y-97411961D02*
X184966666Y-97507200D01*
X184966666Y-97507200D02*
X184823809Y-97554819D01*
X184823809Y-97554819D02*
X184585714Y-97554819D01*
X186109523Y-97554819D02*
X185538095Y-97554819D01*
X185823809Y-97554819D02*
X185823809Y-96554819D01*
X185823809Y-96554819D02*
X185728571Y-96697676D01*
X185728571Y-96697676D02*
X185633333Y-96792914D01*
X185633333Y-96792914D02*
X185538095Y-96840533D01*
X187014285Y-96554819D02*
X186538095Y-96554819D01*
X186538095Y-96554819D02*
X186490476Y-97031009D01*
X186490476Y-97031009D02*
X186538095Y-96983390D01*
X186538095Y-96983390D02*
X186633333Y-96935771D01*
X186633333Y-96935771D02*
X186871428Y-96935771D01*
X186871428Y-96935771D02*
X186966666Y-96983390D01*
X186966666Y-96983390D02*
X187014285Y-97031009D01*
X187014285Y-97031009D02*
X187061904Y-97126247D01*
X187061904Y-97126247D02*
X187061904Y-97364342D01*
X187061904Y-97364342D02*
X187014285Y-97459580D01*
X187014285Y-97459580D02*
X186966666Y-97507200D01*
X186966666Y-97507200D02*
X186871428Y-97554819D01*
X186871428Y-97554819D02*
X186633333Y-97554819D01*
X186633333Y-97554819D02*
X186538095Y-97507200D01*
X186538095Y-97507200D02*
X186490476Y-97459580D01*
D13*
%TO.C,D26*%
X89636785Y-97040724D02*
X89636785Y-96290724D01*
X89636785Y-96290724D02*
X89815356Y-96290724D01*
X89815356Y-96290724D02*
X89922499Y-96326438D01*
X89922499Y-96326438D02*
X89993928Y-96397867D01*
X89993928Y-96397867D02*
X90029642Y-96469295D01*
X90029642Y-96469295D02*
X90065356Y-96612152D01*
X90065356Y-96612152D02*
X90065356Y-96719295D01*
X90065356Y-96719295D02*
X90029642Y-96862152D01*
X90029642Y-96862152D02*
X89993928Y-96933581D01*
X89993928Y-96933581D02*
X89922499Y-97005010D01*
X89922499Y-97005010D02*
X89815356Y-97040724D01*
X89815356Y-97040724D02*
X89636785Y-97040724D01*
X90351071Y-96362152D02*
X90386785Y-96326438D01*
X90386785Y-96326438D02*
X90458214Y-96290724D01*
X90458214Y-96290724D02*
X90636785Y-96290724D01*
X90636785Y-96290724D02*
X90708214Y-96326438D01*
X90708214Y-96326438D02*
X90743928Y-96362152D01*
X90743928Y-96362152D02*
X90779642Y-96433581D01*
X90779642Y-96433581D02*
X90779642Y-96505010D01*
X90779642Y-96505010D02*
X90743928Y-96612152D01*
X90743928Y-96612152D02*
X90315356Y-97040724D01*
X90315356Y-97040724D02*
X90779642Y-97040724D01*
X91422500Y-96290724D02*
X91279642Y-96290724D01*
X91279642Y-96290724D02*
X91208214Y-96326438D01*
X91208214Y-96326438D02*
X91172500Y-96362152D01*
X91172500Y-96362152D02*
X91101071Y-96469295D01*
X91101071Y-96469295D02*
X91065357Y-96612152D01*
X91065357Y-96612152D02*
X91065357Y-96897867D01*
X91065357Y-96897867D02*
X91101071Y-96969295D01*
X91101071Y-96969295D02*
X91136785Y-97005010D01*
X91136785Y-97005010D02*
X91208214Y-97040724D01*
X91208214Y-97040724D02*
X91351071Y-97040724D01*
X91351071Y-97040724D02*
X91422500Y-97005010D01*
X91422500Y-97005010D02*
X91458214Y-96969295D01*
X91458214Y-96969295D02*
X91493928Y-96897867D01*
X91493928Y-96897867D02*
X91493928Y-96719295D01*
X91493928Y-96719295D02*
X91458214Y-96647867D01*
X91458214Y-96647867D02*
X91422500Y-96612152D01*
X91422500Y-96612152D02*
X91351071Y-96576438D01*
X91351071Y-96576438D02*
X91208214Y-96576438D01*
X91208214Y-96576438D02*
X91136785Y-96612152D01*
X91136785Y-96612152D02*
X91101071Y-96647867D01*
X91101071Y-96647867D02*
X91065357Y-96719295D01*
D12*
%TO.C,D17*%
X194585714Y-97554819D02*
X194585714Y-96554819D01*
X194585714Y-96554819D02*
X194823809Y-96554819D01*
X194823809Y-96554819D02*
X194966666Y-96602438D01*
X194966666Y-96602438D02*
X195061904Y-96697676D01*
X195061904Y-96697676D02*
X195109523Y-96792914D01*
X195109523Y-96792914D02*
X195157142Y-96983390D01*
X195157142Y-96983390D02*
X195157142Y-97126247D01*
X195157142Y-97126247D02*
X195109523Y-97316723D01*
X195109523Y-97316723D02*
X195061904Y-97411961D01*
X195061904Y-97411961D02*
X194966666Y-97507200D01*
X194966666Y-97507200D02*
X194823809Y-97554819D01*
X194823809Y-97554819D02*
X194585714Y-97554819D01*
X196109523Y-97554819D02*
X195538095Y-97554819D01*
X195823809Y-97554819D02*
X195823809Y-96554819D01*
X195823809Y-96554819D02*
X195728571Y-96697676D01*
X195728571Y-96697676D02*
X195633333Y-96792914D01*
X195633333Y-96792914D02*
X195538095Y-96840533D01*
X196442857Y-96554819D02*
X197109523Y-96554819D01*
X197109523Y-96554819D02*
X196680952Y-97554819D01*
%TO.C,D21*%
X214585714Y-97554819D02*
X214585714Y-96554819D01*
X214585714Y-96554819D02*
X214823809Y-96554819D01*
X214823809Y-96554819D02*
X214966666Y-96602438D01*
X214966666Y-96602438D02*
X215061904Y-96697676D01*
X215061904Y-96697676D02*
X215109523Y-96792914D01*
X215109523Y-96792914D02*
X215157142Y-96983390D01*
X215157142Y-96983390D02*
X215157142Y-97126247D01*
X215157142Y-97126247D02*
X215109523Y-97316723D01*
X215109523Y-97316723D02*
X215061904Y-97411961D01*
X215061904Y-97411961D02*
X214966666Y-97507200D01*
X214966666Y-97507200D02*
X214823809Y-97554819D01*
X214823809Y-97554819D02*
X214585714Y-97554819D01*
X215538095Y-96650057D02*
X215585714Y-96602438D01*
X215585714Y-96602438D02*
X215680952Y-96554819D01*
X215680952Y-96554819D02*
X215919047Y-96554819D01*
X215919047Y-96554819D02*
X216014285Y-96602438D01*
X216014285Y-96602438D02*
X216061904Y-96650057D01*
X216061904Y-96650057D02*
X216109523Y-96745295D01*
X216109523Y-96745295D02*
X216109523Y-96840533D01*
X216109523Y-96840533D02*
X216061904Y-96983390D01*
X216061904Y-96983390D02*
X215490476Y-97554819D01*
X215490476Y-97554819D02*
X216109523Y-97554819D01*
X217061904Y-97554819D02*
X216490476Y-97554819D01*
X216776190Y-97554819D02*
X216776190Y-96554819D01*
X216776190Y-96554819D02*
X216680952Y-96697676D01*
X216680952Y-96697676D02*
X216585714Y-96792914D01*
X216585714Y-96792914D02*
X216490476Y-96840533D01*
%TO.C,MK1*%
X90882680Y-75180476D02*
X91882680Y-75180476D01*
X91882680Y-75180476D02*
X91168395Y-75513809D01*
X91168395Y-75513809D02*
X91882680Y-75847142D01*
X91882680Y-75847142D02*
X90882680Y-75847142D01*
X90882680Y-76323333D02*
X91882680Y-76323333D01*
X90882680Y-76894761D02*
X91454109Y-76466190D01*
X91882680Y-76894761D02*
X91311252Y-76323333D01*
X90882680Y-77847142D02*
X90882680Y-77275714D01*
X90882680Y-77561428D02*
X91882680Y-77561428D01*
X91882680Y-77561428D02*
X91739823Y-77466190D01*
X91739823Y-77466190D02*
X91644585Y-77370952D01*
X91644585Y-77370952D02*
X91596966Y-77275714D01*
%TO.C,R9*%
X98442680Y-82033333D02*
X98918871Y-81700000D01*
X98442680Y-81461905D02*
X99442680Y-81461905D01*
X99442680Y-81461905D02*
X99442680Y-81842857D01*
X99442680Y-81842857D02*
X99395061Y-81938095D01*
X99395061Y-81938095D02*
X99347442Y-81985714D01*
X99347442Y-81985714D02*
X99252204Y-82033333D01*
X99252204Y-82033333D02*
X99109347Y-82033333D01*
X99109347Y-82033333D02*
X99014109Y-81985714D01*
X99014109Y-81985714D02*
X98966490Y-81938095D01*
X98966490Y-81938095D02*
X98918871Y-81842857D01*
X98918871Y-81842857D02*
X98918871Y-81461905D01*
X98442680Y-82509524D02*
X98442680Y-82700000D01*
X98442680Y-82700000D02*
X98490300Y-82795238D01*
X98490300Y-82795238D02*
X98537919Y-82842857D01*
X98537919Y-82842857D02*
X98680776Y-82938095D01*
X98680776Y-82938095D02*
X98871252Y-82985714D01*
X98871252Y-82985714D02*
X99252204Y-82985714D01*
X99252204Y-82985714D02*
X99347442Y-82938095D01*
X99347442Y-82938095D02*
X99395061Y-82890476D01*
X99395061Y-82890476D02*
X99442680Y-82795238D01*
X99442680Y-82795238D02*
X99442680Y-82604762D01*
X99442680Y-82604762D02*
X99395061Y-82509524D01*
X99395061Y-82509524D02*
X99347442Y-82461905D01*
X99347442Y-82461905D02*
X99252204Y-82414286D01*
X99252204Y-82414286D02*
X99014109Y-82414286D01*
X99014109Y-82414286D02*
X98918871Y-82461905D01*
X98918871Y-82461905D02*
X98871252Y-82509524D01*
X98871252Y-82509524D02*
X98823633Y-82604762D01*
X98823633Y-82604762D02*
X98823633Y-82795238D01*
X98823633Y-82795238D02*
X98871252Y-82890476D01*
X98871252Y-82890476D02*
X98918871Y-82938095D01*
X98918871Y-82938095D02*
X99014109Y-82985714D01*
%TO.C,D19*%
X204585714Y-97554819D02*
X204585714Y-96554819D01*
X204585714Y-96554819D02*
X204823809Y-96554819D01*
X204823809Y-96554819D02*
X204966666Y-96602438D01*
X204966666Y-96602438D02*
X205061904Y-96697676D01*
X205061904Y-96697676D02*
X205109523Y-96792914D01*
X205109523Y-96792914D02*
X205157142Y-96983390D01*
X205157142Y-96983390D02*
X205157142Y-97126247D01*
X205157142Y-97126247D02*
X205109523Y-97316723D01*
X205109523Y-97316723D02*
X205061904Y-97411961D01*
X205061904Y-97411961D02*
X204966666Y-97507200D01*
X204966666Y-97507200D02*
X204823809Y-97554819D01*
X204823809Y-97554819D02*
X204585714Y-97554819D01*
X206109523Y-97554819D02*
X205538095Y-97554819D01*
X205823809Y-97554819D02*
X205823809Y-96554819D01*
X205823809Y-96554819D02*
X205728571Y-96697676D01*
X205728571Y-96697676D02*
X205633333Y-96792914D01*
X205633333Y-96792914D02*
X205538095Y-96840533D01*
X206585714Y-97554819D02*
X206776190Y-97554819D01*
X206776190Y-97554819D02*
X206871428Y-97507200D01*
X206871428Y-97507200D02*
X206919047Y-97459580D01*
X206919047Y-97459580D02*
X207014285Y-97316723D01*
X207014285Y-97316723D02*
X207061904Y-97126247D01*
X207061904Y-97126247D02*
X207061904Y-96745295D01*
X207061904Y-96745295D02*
X207014285Y-96650057D01*
X207014285Y-96650057D02*
X206966666Y-96602438D01*
X206966666Y-96602438D02*
X206871428Y-96554819D01*
X206871428Y-96554819D02*
X206680952Y-96554819D01*
X206680952Y-96554819D02*
X206585714Y-96602438D01*
X206585714Y-96602438D02*
X206538095Y-96650057D01*
X206538095Y-96650057D02*
X206490476Y-96745295D01*
X206490476Y-96745295D02*
X206490476Y-96983390D01*
X206490476Y-96983390D02*
X206538095Y-97078628D01*
X206538095Y-97078628D02*
X206585714Y-97126247D01*
X206585714Y-97126247D02*
X206680952Y-97173866D01*
X206680952Y-97173866D02*
X206871428Y-97173866D01*
X206871428Y-97173866D02*
X206966666Y-97126247D01*
X206966666Y-97126247D02*
X207014285Y-97078628D01*
X207014285Y-97078628D02*
X207061904Y-96983390D01*
%TO.C,D3*%
X125061905Y-97554819D02*
X125061905Y-96554819D01*
X125061905Y-96554819D02*
X125300000Y-96554819D01*
X125300000Y-96554819D02*
X125442857Y-96602438D01*
X125442857Y-96602438D02*
X125538095Y-96697676D01*
X125538095Y-96697676D02*
X125585714Y-96792914D01*
X125585714Y-96792914D02*
X125633333Y-96983390D01*
X125633333Y-96983390D02*
X125633333Y-97126247D01*
X125633333Y-97126247D02*
X125585714Y-97316723D01*
X125585714Y-97316723D02*
X125538095Y-97411961D01*
X125538095Y-97411961D02*
X125442857Y-97507200D01*
X125442857Y-97507200D02*
X125300000Y-97554819D01*
X125300000Y-97554819D02*
X125061905Y-97554819D01*
X125966667Y-96554819D02*
X126585714Y-96554819D01*
X126585714Y-96554819D02*
X126252381Y-96935771D01*
X126252381Y-96935771D02*
X126395238Y-96935771D01*
X126395238Y-96935771D02*
X126490476Y-96983390D01*
X126490476Y-96983390D02*
X126538095Y-97031009D01*
X126538095Y-97031009D02*
X126585714Y-97126247D01*
X126585714Y-97126247D02*
X126585714Y-97364342D01*
X126585714Y-97364342D02*
X126538095Y-97459580D01*
X126538095Y-97459580D02*
X126490476Y-97507200D01*
X126490476Y-97507200D02*
X126395238Y-97554819D01*
X126395238Y-97554819D02*
X126109524Y-97554819D01*
X126109524Y-97554819D02*
X126014286Y-97507200D01*
X126014286Y-97507200D02*
X125966667Y-97459580D01*
D13*
%TO.C,C11*%
X110716795Y-101082143D02*
X110752510Y-101117857D01*
X110752510Y-101117857D02*
X110788224Y-101225000D01*
X110788224Y-101225000D02*
X110788224Y-101296428D01*
X110788224Y-101296428D02*
X110752510Y-101403571D01*
X110752510Y-101403571D02*
X110681081Y-101475000D01*
X110681081Y-101475000D02*
X110609652Y-101510714D01*
X110609652Y-101510714D02*
X110466795Y-101546428D01*
X110466795Y-101546428D02*
X110359652Y-101546428D01*
X110359652Y-101546428D02*
X110216795Y-101510714D01*
X110216795Y-101510714D02*
X110145367Y-101475000D01*
X110145367Y-101475000D02*
X110073938Y-101403571D01*
X110073938Y-101403571D02*
X110038224Y-101296428D01*
X110038224Y-101296428D02*
X110038224Y-101225000D01*
X110038224Y-101225000D02*
X110073938Y-101117857D01*
X110073938Y-101117857D02*
X110109652Y-101082143D01*
X110788224Y-100367857D02*
X110788224Y-100796428D01*
X110788224Y-100582143D02*
X110038224Y-100582143D01*
X110038224Y-100582143D02*
X110145367Y-100653571D01*
X110145367Y-100653571D02*
X110216795Y-100725000D01*
X110216795Y-100725000D02*
X110252510Y-100796428D01*
X110788224Y-99653571D02*
X110788224Y-100082142D01*
X110788224Y-99867857D02*
X110038224Y-99867857D01*
X110038224Y-99867857D02*
X110145367Y-99939285D01*
X110145367Y-99939285D02*
X110216795Y-100010714D01*
X110216795Y-100010714D02*
X110252510Y-100082142D01*
D12*
%TO.C,R4*%
X115470833Y-97254819D02*
X115137500Y-96778628D01*
X114899405Y-97254819D02*
X114899405Y-96254819D01*
X114899405Y-96254819D02*
X115280357Y-96254819D01*
X115280357Y-96254819D02*
X115375595Y-96302438D01*
X115375595Y-96302438D02*
X115423214Y-96350057D01*
X115423214Y-96350057D02*
X115470833Y-96445295D01*
X115470833Y-96445295D02*
X115470833Y-96588152D01*
X115470833Y-96588152D02*
X115423214Y-96683390D01*
X115423214Y-96683390D02*
X115375595Y-96731009D01*
X115375595Y-96731009D02*
X115280357Y-96778628D01*
X115280357Y-96778628D02*
X114899405Y-96778628D01*
X116327976Y-96588152D02*
X116327976Y-97254819D01*
X116089881Y-96207200D02*
X115851786Y-96921485D01*
X115851786Y-96921485D02*
X116470833Y-96921485D01*
%TO.C,R6*%
X90982319Y-83006666D02*
X90506128Y-83339999D01*
X90982319Y-83578094D02*
X89982319Y-83578094D01*
X89982319Y-83578094D02*
X89982319Y-83197142D01*
X89982319Y-83197142D02*
X90029938Y-83101904D01*
X90029938Y-83101904D02*
X90077557Y-83054285D01*
X90077557Y-83054285D02*
X90172795Y-83006666D01*
X90172795Y-83006666D02*
X90315652Y-83006666D01*
X90315652Y-83006666D02*
X90410890Y-83054285D01*
X90410890Y-83054285D02*
X90458509Y-83101904D01*
X90458509Y-83101904D02*
X90506128Y-83197142D01*
X90506128Y-83197142D02*
X90506128Y-83578094D01*
X89982319Y-82149523D02*
X89982319Y-82339999D01*
X89982319Y-82339999D02*
X90029938Y-82435237D01*
X90029938Y-82435237D02*
X90077557Y-82482856D01*
X90077557Y-82482856D02*
X90220414Y-82578094D01*
X90220414Y-82578094D02*
X90410890Y-82625713D01*
X90410890Y-82625713D02*
X90791842Y-82625713D01*
X90791842Y-82625713D02*
X90887080Y-82578094D01*
X90887080Y-82578094D02*
X90934700Y-82530475D01*
X90934700Y-82530475D02*
X90982319Y-82435237D01*
X90982319Y-82435237D02*
X90982319Y-82244761D01*
X90982319Y-82244761D02*
X90934700Y-82149523D01*
X90934700Y-82149523D02*
X90887080Y-82101904D01*
X90887080Y-82101904D02*
X90791842Y-82054285D01*
X90791842Y-82054285D02*
X90553747Y-82054285D01*
X90553747Y-82054285D02*
X90458509Y-82101904D01*
X90458509Y-82101904D02*
X90410890Y-82149523D01*
X90410890Y-82149523D02*
X90363271Y-82244761D01*
X90363271Y-82244761D02*
X90363271Y-82435237D01*
X90363271Y-82435237D02*
X90410890Y-82530475D01*
X90410890Y-82530475D02*
X90458509Y-82578094D01*
X90458509Y-82578094D02*
X90553747Y-82625713D01*
%TO.C,C36*%
X135238419Y-87758142D02*
X135190800Y-87710523D01*
X135190800Y-87710523D02*
X135143180Y-87567666D01*
X135143180Y-87567666D02*
X135143180Y-87472428D01*
X135143180Y-87472428D02*
X135190800Y-87329571D01*
X135190800Y-87329571D02*
X135286038Y-87234333D01*
X135286038Y-87234333D02*
X135381276Y-87186714D01*
X135381276Y-87186714D02*
X135571752Y-87139095D01*
X135571752Y-87139095D02*
X135714609Y-87139095D01*
X135714609Y-87139095D02*
X135905085Y-87186714D01*
X135905085Y-87186714D02*
X136000323Y-87234333D01*
X136000323Y-87234333D02*
X136095561Y-87329571D01*
X136095561Y-87329571D02*
X136143180Y-87472428D01*
X136143180Y-87472428D02*
X136143180Y-87567666D01*
X136143180Y-87567666D02*
X136095561Y-87710523D01*
X136095561Y-87710523D02*
X136047942Y-87758142D01*
X136143180Y-88091476D02*
X136143180Y-88710523D01*
X136143180Y-88710523D02*
X135762228Y-88377190D01*
X135762228Y-88377190D02*
X135762228Y-88520047D01*
X135762228Y-88520047D02*
X135714609Y-88615285D01*
X135714609Y-88615285D02*
X135666990Y-88662904D01*
X135666990Y-88662904D02*
X135571752Y-88710523D01*
X135571752Y-88710523D02*
X135333657Y-88710523D01*
X135333657Y-88710523D02*
X135238419Y-88662904D01*
X135238419Y-88662904D02*
X135190800Y-88615285D01*
X135190800Y-88615285D02*
X135143180Y-88520047D01*
X135143180Y-88520047D02*
X135143180Y-88234333D01*
X135143180Y-88234333D02*
X135190800Y-88139095D01*
X135190800Y-88139095D02*
X135238419Y-88091476D01*
X136143180Y-89567666D02*
X136143180Y-89377190D01*
X136143180Y-89377190D02*
X136095561Y-89281952D01*
X136095561Y-89281952D02*
X136047942Y-89234333D01*
X136047942Y-89234333D02*
X135905085Y-89139095D01*
X135905085Y-89139095D02*
X135714609Y-89091476D01*
X135714609Y-89091476D02*
X135333657Y-89091476D01*
X135333657Y-89091476D02*
X135238419Y-89139095D01*
X135238419Y-89139095D02*
X135190800Y-89186714D01*
X135190800Y-89186714D02*
X135143180Y-89281952D01*
X135143180Y-89281952D02*
X135143180Y-89472428D01*
X135143180Y-89472428D02*
X135190800Y-89567666D01*
X135190800Y-89567666D02*
X135238419Y-89615285D01*
X135238419Y-89615285D02*
X135333657Y-89662904D01*
X135333657Y-89662904D02*
X135571752Y-89662904D01*
X135571752Y-89662904D02*
X135666990Y-89615285D01*
X135666990Y-89615285D02*
X135714609Y-89567666D01*
X135714609Y-89567666D02*
X135762228Y-89472428D01*
X135762228Y-89472428D02*
X135762228Y-89281952D01*
X135762228Y-89281952D02*
X135714609Y-89186714D01*
X135714609Y-89186714D02*
X135666990Y-89139095D01*
X135666990Y-89139095D02*
X135571752Y-89091476D01*
D13*
%TO.C,C27*%
X190116795Y-101082143D02*
X190152510Y-101117857D01*
X190152510Y-101117857D02*
X190188224Y-101225000D01*
X190188224Y-101225000D02*
X190188224Y-101296428D01*
X190188224Y-101296428D02*
X190152510Y-101403571D01*
X190152510Y-101403571D02*
X190081081Y-101475000D01*
X190081081Y-101475000D02*
X190009652Y-101510714D01*
X190009652Y-101510714D02*
X189866795Y-101546428D01*
X189866795Y-101546428D02*
X189759652Y-101546428D01*
X189759652Y-101546428D02*
X189616795Y-101510714D01*
X189616795Y-101510714D02*
X189545367Y-101475000D01*
X189545367Y-101475000D02*
X189473938Y-101403571D01*
X189473938Y-101403571D02*
X189438224Y-101296428D01*
X189438224Y-101296428D02*
X189438224Y-101225000D01*
X189438224Y-101225000D02*
X189473938Y-101117857D01*
X189473938Y-101117857D02*
X189509652Y-101082143D01*
X189509652Y-100796428D02*
X189473938Y-100760714D01*
X189473938Y-100760714D02*
X189438224Y-100689286D01*
X189438224Y-100689286D02*
X189438224Y-100510714D01*
X189438224Y-100510714D02*
X189473938Y-100439286D01*
X189473938Y-100439286D02*
X189509652Y-100403571D01*
X189509652Y-100403571D02*
X189581081Y-100367857D01*
X189581081Y-100367857D02*
X189652510Y-100367857D01*
X189652510Y-100367857D02*
X189759652Y-100403571D01*
X189759652Y-100403571D02*
X190188224Y-100832143D01*
X190188224Y-100832143D02*
X190188224Y-100367857D01*
X189438224Y-100117857D02*
X189438224Y-99617857D01*
X189438224Y-99617857D02*
X190188224Y-99939285D01*
D12*
%TO.C,C9*%
X98307080Y-76866666D02*
X98354700Y-76914285D01*
X98354700Y-76914285D02*
X98402319Y-77057142D01*
X98402319Y-77057142D02*
X98402319Y-77152380D01*
X98402319Y-77152380D02*
X98354700Y-77295237D01*
X98354700Y-77295237D02*
X98259461Y-77390475D01*
X98259461Y-77390475D02*
X98164223Y-77438094D01*
X98164223Y-77438094D02*
X97973747Y-77485713D01*
X97973747Y-77485713D02*
X97830890Y-77485713D01*
X97830890Y-77485713D02*
X97640414Y-77438094D01*
X97640414Y-77438094D02*
X97545176Y-77390475D01*
X97545176Y-77390475D02*
X97449938Y-77295237D01*
X97449938Y-77295237D02*
X97402319Y-77152380D01*
X97402319Y-77152380D02*
X97402319Y-77057142D01*
X97402319Y-77057142D02*
X97449938Y-76914285D01*
X97449938Y-76914285D02*
X97497557Y-76866666D01*
X98402319Y-76390475D02*
X98402319Y-76199999D01*
X98402319Y-76199999D02*
X98354700Y-76104761D01*
X98354700Y-76104761D02*
X98307080Y-76057142D01*
X98307080Y-76057142D02*
X98164223Y-75961904D01*
X98164223Y-75961904D02*
X97973747Y-75914285D01*
X97973747Y-75914285D02*
X97592795Y-75914285D01*
X97592795Y-75914285D02*
X97497557Y-75961904D01*
X97497557Y-75961904D02*
X97449938Y-76009523D01*
X97449938Y-76009523D02*
X97402319Y-76104761D01*
X97402319Y-76104761D02*
X97402319Y-76295237D01*
X97402319Y-76295237D02*
X97449938Y-76390475D01*
X97449938Y-76390475D02*
X97497557Y-76438094D01*
X97497557Y-76438094D02*
X97592795Y-76485713D01*
X97592795Y-76485713D02*
X97830890Y-76485713D01*
X97830890Y-76485713D02*
X97926128Y-76438094D01*
X97926128Y-76438094D02*
X97973747Y-76390475D01*
X97973747Y-76390475D02*
X98021366Y-76295237D01*
X98021366Y-76295237D02*
X98021366Y-76104761D01*
X98021366Y-76104761D02*
X97973747Y-76009523D01*
X97973747Y-76009523D02*
X97926128Y-75961904D01*
X97926128Y-75961904D02*
X97830890Y-75914285D01*
D13*
%TO.C,C31*%
X210119295Y-101082143D02*
X210155010Y-101117857D01*
X210155010Y-101117857D02*
X210190724Y-101225000D01*
X210190724Y-101225000D02*
X210190724Y-101296428D01*
X210190724Y-101296428D02*
X210155010Y-101403571D01*
X210155010Y-101403571D02*
X210083581Y-101475000D01*
X210083581Y-101475000D02*
X210012152Y-101510714D01*
X210012152Y-101510714D02*
X209869295Y-101546428D01*
X209869295Y-101546428D02*
X209762152Y-101546428D01*
X209762152Y-101546428D02*
X209619295Y-101510714D01*
X209619295Y-101510714D02*
X209547867Y-101475000D01*
X209547867Y-101475000D02*
X209476438Y-101403571D01*
X209476438Y-101403571D02*
X209440724Y-101296428D01*
X209440724Y-101296428D02*
X209440724Y-101225000D01*
X209440724Y-101225000D02*
X209476438Y-101117857D01*
X209476438Y-101117857D02*
X209512152Y-101082143D01*
X209440724Y-100832143D02*
X209440724Y-100367857D01*
X209440724Y-100367857D02*
X209726438Y-100617857D01*
X209726438Y-100617857D02*
X209726438Y-100510714D01*
X209726438Y-100510714D02*
X209762152Y-100439286D01*
X209762152Y-100439286D02*
X209797867Y-100403571D01*
X209797867Y-100403571D02*
X209869295Y-100367857D01*
X209869295Y-100367857D02*
X210047867Y-100367857D01*
X210047867Y-100367857D02*
X210119295Y-100403571D01*
X210119295Y-100403571D02*
X210155010Y-100439286D01*
X210155010Y-100439286D02*
X210190724Y-100510714D01*
X210190724Y-100510714D02*
X210190724Y-100725000D01*
X210190724Y-100725000D02*
X210155010Y-100796428D01*
X210155010Y-100796428D02*
X210119295Y-100832143D01*
X210190724Y-99653571D02*
X210190724Y-100082142D01*
X210190724Y-99867857D02*
X209440724Y-99867857D01*
X209440724Y-99867857D02*
X209547867Y-99939285D01*
X209547867Y-99939285D02*
X209619295Y-100010714D01*
X209619295Y-100010714D02*
X209655010Y-100082142D01*
D12*
%TO.C,D9*%
X155061905Y-97554819D02*
X155061905Y-96554819D01*
X155061905Y-96554819D02*
X155300000Y-96554819D01*
X155300000Y-96554819D02*
X155442857Y-96602438D01*
X155442857Y-96602438D02*
X155538095Y-96697676D01*
X155538095Y-96697676D02*
X155585714Y-96792914D01*
X155585714Y-96792914D02*
X155633333Y-96983390D01*
X155633333Y-96983390D02*
X155633333Y-97126247D01*
X155633333Y-97126247D02*
X155585714Y-97316723D01*
X155585714Y-97316723D02*
X155538095Y-97411961D01*
X155538095Y-97411961D02*
X155442857Y-97507200D01*
X155442857Y-97507200D02*
X155300000Y-97554819D01*
X155300000Y-97554819D02*
X155061905Y-97554819D01*
X156109524Y-97554819D02*
X156300000Y-97554819D01*
X156300000Y-97554819D02*
X156395238Y-97507200D01*
X156395238Y-97507200D02*
X156442857Y-97459580D01*
X156442857Y-97459580D02*
X156538095Y-97316723D01*
X156538095Y-97316723D02*
X156585714Y-97126247D01*
X156585714Y-97126247D02*
X156585714Y-96745295D01*
X156585714Y-96745295D02*
X156538095Y-96650057D01*
X156538095Y-96650057D02*
X156490476Y-96602438D01*
X156490476Y-96602438D02*
X156395238Y-96554819D01*
X156395238Y-96554819D02*
X156204762Y-96554819D01*
X156204762Y-96554819D02*
X156109524Y-96602438D01*
X156109524Y-96602438D02*
X156061905Y-96650057D01*
X156061905Y-96650057D02*
X156014286Y-96745295D01*
X156014286Y-96745295D02*
X156014286Y-96983390D01*
X156014286Y-96983390D02*
X156061905Y-97078628D01*
X156061905Y-97078628D02*
X156109524Y-97126247D01*
X156109524Y-97126247D02*
X156204762Y-97173866D01*
X156204762Y-97173866D02*
X156395238Y-97173866D01*
X156395238Y-97173866D02*
X156490476Y-97126247D01*
X156490476Y-97126247D02*
X156538095Y-97078628D01*
X156538095Y-97078628D02*
X156585714Y-96983390D01*
D13*
%TO.C,C33*%
X220119295Y-101082143D02*
X220155010Y-101117857D01*
X220155010Y-101117857D02*
X220190724Y-101225000D01*
X220190724Y-101225000D02*
X220190724Y-101296428D01*
X220190724Y-101296428D02*
X220155010Y-101403571D01*
X220155010Y-101403571D02*
X220083581Y-101475000D01*
X220083581Y-101475000D02*
X220012152Y-101510714D01*
X220012152Y-101510714D02*
X219869295Y-101546428D01*
X219869295Y-101546428D02*
X219762152Y-101546428D01*
X219762152Y-101546428D02*
X219619295Y-101510714D01*
X219619295Y-101510714D02*
X219547867Y-101475000D01*
X219547867Y-101475000D02*
X219476438Y-101403571D01*
X219476438Y-101403571D02*
X219440724Y-101296428D01*
X219440724Y-101296428D02*
X219440724Y-101225000D01*
X219440724Y-101225000D02*
X219476438Y-101117857D01*
X219476438Y-101117857D02*
X219512152Y-101082143D01*
X219440724Y-100832143D02*
X219440724Y-100367857D01*
X219440724Y-100367857D02*
X219726438Y-100617857D01*
X219726438Y-100617857D02*
X219726438Y-100510714D01*
X219726438Y-100510714D02*
X219762152Y-100439286D01*
X219762152Y-100439286D02*
X219797867Y-100403571D01*
X219797867Y-100403571D02*
X219869295Y-100367857D01*
X219869295Y-100367857D02*
X220047867Y-100367857D01*
X220047867Y-100367857D02*
X220119295Y-100403571D01*
X220119295Y-100403571D02*
X220155010Y-100439286D01*
X220155010Y-100439286D02*
X220190724Y-100510714D01*
X220190724Y-100510714D02*
X220190724Y-100725000D01*
X220190724Y-100725000D02*
X220155010Y-100796428D01*
X220155010Y-100796428D02*
X220119295Y-100832143D01*
X219440724Y-100117857D02*
X219440724Y-99653571D01*
X219440724Y-99653571D02*
X219726438Y-99903571D01*
X219726438Y-99903571D02*
X219726438Y-99796428D01*
X219726438Y-99796428D02*
X219762152Y-99725000D01*
X219762152Y-99725000D02*
X219797867Y-99689285D01*
X219797867Y-99689285D02*
X219869295Y-99653571D01*
X219869295Y-99653571D02*
X220047867Y-99653571D01*
X220047867Y-99653571D02*
X220119295Y-99689285D01*
X220119295Y-99689285D02*
X220155010Y-99725000D01*
X220155010Y-99725000D02*
X220190724Y-99796428D01*
X220190724Y-99796428D02*
X220190724Y-100010714D01*
X220190724Y-100010714D02*
X220155010Y-100082142D01*
X220155010Y-100082142D02*
X220119295Y-100117857D01*
D12*
%TO.C,C6*%
X88580833Y-83659580D02*
X88533214Y-83707200D01*
X88533214Y-83707200D02*
X88390357Y-83754819D01*
X88390357Y-83754819D02*
X88295119Y-83754819D01*
X88295119Y-83754819D02*
X88152262Y-83707200D01*
X88152262Y-83707200D02*
X88057024Y-83611961D01*
X88057024Y-83611961D02*
X88009405Y-83516723D01*
X88009405Y-83516723D02*
X87961786Y-83326247D01*
X87961786Y-83326247D02*
X87961786Y-83183390D01*
X87961786Y-83183390D02*
X88009405Y-82992914D01*
X88009405Y-82992914D02*
X88057024Y-82897676D01*
X88057024Y-82897676D02*
X88152262Y-82802438D01*
X88152262Y-82802438D02*
X88295119Y-82754819D01*
X88295119Y-82754819D02*
X88390357Y-82754819D01*
X88390357Y-82754819D02*
X88533214Y-82802438D01*
X88533214Y-82802438D02*
X88580833Y-82850057D01*
X89437976Y-82754819D02*
X89247500Y-82754819D01*
X89247500Y-82754819D02*
X89152262Y-82802438D01*
X89152262Y-82802438D02*
X89104643Y-82850057D01*
X89104643Y-82850057D02*
X89009405Y-82992914D01*
X89009405Y-82992914D02*
X88961786Y-83183390D01*
X88961786Y-83183390D02*
X88961786Y-83564342D01*
X88961786Y-83564342D02*
X89009405Y-83659580D01*
X89009405Y-83659580D02*
X89057024Y-83707200D01*
X89057024Y-83707200D02*
X89152262Y-83754819D01*
X89152262Y-83754819D02*
X89342738Y-83754819D01*
X89342738Y-83754819D02*
X89437976Y-83707200D01*
X89437976Y-83707200D02*
X89485595Y-83659580D01*
X89485595Y-83659580D02*
X89533214Y-83564342D01*
X89533214Y-83564342D02*
X89533214Y-83326247D01*
X89533214Y-83326247D02*
X89485595Y-83231009D01*
X89485595Y-83231009D02*
X89437976Y-83183390D01*
X89437976Y-83183390D02*
X89342738Y-83135771D01*
X89342738Y-83135771D02*
X89152262Y-83135771D01*
X89152262Y-83135771D02*
X89057024Y-83183390D01*
X89057024Y-83183390D02*
X89009405Y-83231009D01*
X89009405Y-83231009D02*
X88961786Y-83326247D01*
%TO.C,U1*%
X121692680Y-79738095D02*
X120883157Y-79738095D01*
X120883157Y-79738095D02*
X120787919Y-79785714D01*
X120787919Y-79785714D02*
X120740300Y-79833333D01*
X120740300Y-79833333D02*
X120692680Y-79928571D01*
X120692680Y-79928571D02*
X120692680Y-80119047D01*
X120692680Y-80119047D02*
X120740300Y-80214285D01*
X120740300Y-80214285D02*
X120787919Y-80261904D01*
X120787919Y-80261904D02*
X120883157Y-80309523D01*
X120883157Y-80309523D02*
X121692680Y-80309523D01*
X120692680Y-81309523D02*
X120692680Y-80738095D01*
X120692680Y-81023809D02*
X121692680Y-81023809D01*
X121692680Y-81023809D02*
X121549823Y-80928571D01*
X121549823Y-80928571D02*
X121454585Y-80833333D01*
X121454585Y-80833333D02*
X121406966Y-80738095D01*
%TO.C,C37*%
X132555142Y-96960580D02*
X132507523Y-97008200D01*
X132507523Y-97008200D02*
X132364666Y-97055819D01*
X132364666Y-97055819D02*
X132269428Y-97055819D01*
X132269428Y-97055819D02*
X132126571Y-97008200D01*
X132126571Y-97008200D02*
X132031333Y-96912961D01*
X132031333Y-96912961D02*
X131983714Y-96817723D01*
X131983714Y-96817723D02*
X131936095Y-96627247D01*
X131936095Y-96627247D02*
X131936095Y-96484390D01*
X131936095Y-96484390D02*
X131983714Y-96293914D01*
X131983714Y-96293914D02*
X132031333Y-96198676D01*
X132031333Y-96198676D02*
X132126571Y-96103438D01*
X132126571Y-96103438D02*
X132269428Y-96055819D01*
X132269428Y-96055819D02*
X132364666Y-96055819D01*
X132364666Y-96055819D02*
X132507523Y-96103438D01*
X132507523Y-96103438D02*
X132555142Y-96151057D01*
X132888476Y-96055819D02*
X133507523Y-96055819D01*
X133507523Y-96055819D02*
X133174190Y-96436771D01*
X133174190Y-96436771D02*
X133317047Y-96436771D01*
X133317047Y-96436771D02*
X133412285Y-96484390D01*
X133412285Y-96484390D02*
X133459904Y-96532009D01*
X133459904Y-96532009D02*
X133507523Y-96627247D01*
X133507523Y-96627247D02*
X133507523Y-96865342D01*
X133507523Y-96865342D02*
X133459904Y-96960580D01*
X133459904Y-96960580D02*
X133412285Y-97008200D01*
X133412285Y-97008200D02*
X133317047Y-97055819D01*
X133317047Y-97055819D02*
X133031333Y-97055819D01*
X133031333Y-97055819D02*
X132936095Y-97008200D01*
X132936095Y-97008200D02*
X132888476Y-96960580D01*
X133840857Y-96055819D02*
X134507523Y-96055819D01*
X134507523Y-96055819D02*
X134078952Y-97055819D01*
D13*
%TO.C,C29*%
X200116795Y-101082143D02*
X200152510Y-101117857D01*
X200152510Y-101117857D02*
X200188224Y-101225000D01*
X200188224Y-101225000D02*
X200188224Y-101296428D01*
X200188224Y-101296428D02*
X200152510Y-101403571D01*
X200152510Y-101403571D02*
X200081081Y-101475000D01*
X200081081Y-101475000D02*
X200009652Y-101510714D01*
X200009652Y-101510714D02*
X199866795Y-101546428D01*
X199866795Y-101546428D02*
X199759652Y-101546428D01*
X199759652Y-101546428D02*
X199616795Y-101510714D01*
X199616795Y-101510714D02*
X199545367Y-101475000D01*
X199545367Y-101475000D02*
X199473938Y-101403571D01*
X199473938Y-101403571D02*
X199438224Y-101296428D01*
X199438224Y-101296428D02*
X199438224Y-101225000D01*
X199438224Y-101225000D02*
X199473938Y-101117857D01*
X199473938Y-101117857D02*
X199509652Y-101082143D01*
X199509652Y-100796428D02*
X199473938Y-100760714D01*
X199473938Y-100760714D02*
X199438224Y-100689286D01*
X199438224Y-100689286D02*
X199438224Y-100510714D01*
X199438224Y-100510714D02*
X199473938Y-100439286D01*
X199473938Y-100439286D02*
X199509652Y-100403571D01*
X199509652Y-100403571D02*
X199581081Y-100367857D01*
X199581081Y-100367857D02*
X199652510Y-100367857D01*
X199652510Y-100367857D02*
X199759652Y-100403571D01*
X199759652Y-100403571D02*
X200188224Y-100832143D01*
X200188224Y-100832143D02*
X200188224Y-100367857D01*
X200188224Y-100010714D02*
X200188224Y-99867857D01*
X200188224Y-99867857D02*
X200152510Y-99796428D01*
X200152510Y-99796428D02*
X200116795Y-99760714D01*
X200116795Y-99760714D02*
X200009652Y-99689285D01*
X200009652Y-99689285D02*
X199866795Y-99653571D01*
X199866795Y-99653571D02*
X199581081Y-99653571D01*
X199581081Y-99653571D02*
X199509652Y-99689285D01*
X199509652Y-99689285D02*
X199473938Y-99725000D01*
X199473938Y-99725000D02*
X199438224Y-99796428D01*
X199438224Y-99796428D02*
X199438224Y-99939285D01*
X199438224Y-99939285D02*
X199473938Y-100010714D01*
X199473938Y-100010714D02*
X199509652Y-100046428D01*
X199509652Y-100046428D02*
X199581081Y-100082142D01*
X199581081Y-100082142D02*
X199759652Y-100082142D01*
X199759652Y-100082142D02*
X199831081Y-100046428D01*
X199831081Y-100046428D02*
X199866795Y-100010714D01*
X199866795Y-100010714D02*
X199902510Y-99939285D01*
X199902510Y-99939285D02*
X199902510Y-99796428D01*
X199902510Y-99796428D02*
X199866795Y-99725000D01*
X199866795Y-99725000D02*
X199831081Y-99689285D01*
X199831081Y-99689285D02*
X199759652Y-99653571D01*
%TO.C,C15*%
X130686795Y-101082143D02*
X130722510Y-101117857D01*
X130722510Y-101117857D02*
X130758224Y-101225000D01*
X130758224Y-101225000D02*
X130758224Y-101296428D01*
X130758224Y-101296428D02*
X130722510Y-101403571D01*
X130722510Y-101403571D02*
X130651081Y-101475000D01*
X130651081Y-101475000D02*
X130579652Y-101510714D01*
X130579652Y-101510714D02*
X130436795Y-101546428D01*
X130436795Y-101546428D02*
X130329652Y-101546428D01*
X130329652Y-101546428D02*
X130186795Y-101510714D01*
X130186795Y-101510714D02*
X130115367Y-101475000D01*
X130115367Y-101475000D02*
X130043938Y-101403571D01*
X130043938Y-101403571D02*
X130008224Y-101296428D01*
X130008224Y-101296428D02*
X130008224Y-101225000D01*
X130008224Y-101225000D02*
X130043938Y-101117857D01*
X130043938Y-101117857D02*
X130079652Y-101082143D01*
X130758224Y-100367857D02*
X130758224Y-100796428D01*
X130758224Y-100582143D02*
X130008224Y-100582143D01*
X130008224Y-100582143D02*
X130115367Y-100653571D01*
X130115367Y-100653571D02*
X130186795Y-100725000D01*
X130186795Y-100725000D02*
X130222510Y-100796428D01*
X130008224Y-99689285D02*
X130008224Y-100046428D01*
X130008224Y-100046428D02*
X130365367Y-100082142D01*
X130365367Y-100082142D02*
X130329652Y-100046428D01*
X130329652Y-100046428D02*
X130293938Y-99975000D01*
X130293938Y-99975000D02*
X130293938Y-99796428D01*
X130293938Y-99796428D02*
X130329652Y-99725000D01*
X130329652Y-99725000D02*
X130365367Y-99689285D01*
X130365367Y-99689285D02*
X130436795Y-99653571D01*
X130436795Y-99653571D02*
X130615367Y-99653571D01*
X130615367Y-99653571D02*
X130686795Y-99689285D01*
X130686795Y-99689285D02*
X130722510Y-99725000D01*
X130722510Y-99725000D02*
X130758224Y-99796428D01*
X130758224Y-99796428D02*
X130758224Y-99975000D01*
X130758224Y-99975000D02*
X130722510Y-100046428D01*
X130722510Y-100046428D02*
X130686795Y-100082142D01*
%TO.C,TP6*%
X136221571Y-91311724D02*
X136650143Y-91311724D01*
X136435857Y-92061724D02*
X136435857Y-91311724D01*
X136900143Y-92061724D02*
X136900143Y-91311724D01*
X136900143Y-91311724D02*
X137185857Y-91311724D01*
X137185857Y-91311724D02*
X137257286Y-91347438D01*
X137257286Y-91347438D02*
X137293000Y-91383152D01*
X137293000Y-91383152D02*
X137328714Y-91454581D01*
X137328714Y-91454581D02*
X137328714Y-91561724D01*
X137328714Y-91561724D02*
X137293000Y-91633152D01*
X137293000Y-91633152D02*
X137257286Y-91668867D01*
X137257286Y-91668867D02*
X137185857Y-91704581D01*
X137185857Y-91704581D02*
X136900143Y-91704581D01*
X137971572Y-91311724D02*
X137828714Y-91311724D01*
X137828714Y-91311724D02*
X137757286Y-91347438D01*
X137757286Y-91347438D02*
X137721572Y-91383152D01*
X137721572Y-91383152D02*
X137650143Y-91490295D01*
X137650143Y-91490295D02*
X137614429Y-91633152D01*
X137614429Y-91633152D02*
X137614429Y-91918867D01*
X137614429Y-91918867D02*
X137650143Y-91990295D01*
X137650143Y-91990295D02*
X137685857Y-92026010D01*
X137685857Y-92026010D02*
X137757286Y-92061724D01*
X137757286Y-92061724D02*
X137900143Y-92061724D01*
X137900143Y-92061724D02*
X137971572Y-92026010D01*
X137971572Y-92026010D02*
X138007286Y-91990295D01*
X138007286Y-91990295D02*
X138043000Y-91918867D01*
X138043000Y-91918867D02*
X138043000Y-91740295D01*
X138043000Y-91740295D02*
X138007286Y-91668867D01*
X138007286Y-91668867D02*
X137971572Y-91633152D01*
X137971572Y-91633152D02*
X137900143Y-91597438D01*
X137900143Y-91597438D02*
X137757286Y-91597438D01*
X137757286Y-91597438D02*
X137685857Y-91633152D01*
X137685857Y-91633152D02*
X137650143Y-91668867D01*
X137650143Y-91668867D02*
X137614429Y-91740295D01*
D12*
%TO.C,R2*%
X119330833Y-97254819D02*
X118997500Y-96778628D01*
X118759405Y-97254819D02*
X118759405Y-96254819D01*
X118759405Y-96254819D02*
X119140357Y-96254819D01*
X119140357Y-96254819D02*
X119235595Y-96302438D01*
X119235595Y-96302438D02*
X119283214Y-96350057D01*
X119283214Y-96350057D02*
X119330833Y-96445295D01*
X119330833Y-96445295D02*
X119330833Y-96588152D01*
X119330833Y-96588152D02*
X119283214Y-96683390D01*
X119283214Y-96683390D02*
X119235595Y-96731009D01*
X119235595Y-96731009D02*
X119140357Y-96778628D01*
X119140357Y-96778628D02*
X118759405Y-96778628D01*
X119711786Y-96350057D02*
X119759405Y-96302438D01*
X119759405Y-96302438D02*
X119854643Y-96254819D01*
X119854643Y-96254819D02*
X120092738Y-96254819D01*
X120092738Y-96254819D02*
X120187976Y-96302438D01*
X120187976Y-96302438D02*
X120235595Y-96350057D01*
X120235595Y-96350057D02*
X120283214Y-96445295D01*
X120283214Y-96445295D02*
X120283214Y-96540533D01*
X120283214Y-96540533D02*
X120235595Y-96683390D01*
X120235595Y-96683390D02*
X119664167Y-97254819D01*
X119664167Y-97254819D02*
X120283214Y-97254819D01*
%TO.C,R5*%
X91002319Y-88266666D02*
X90526128Y-88599999D01*
X91002319Y-88838094D02*
X90002319Y-88838094D01*
X90002319Y-88838094D02*
X90002319Y-88457142D01*
X90002319Y-88457142D02*
X90049938Y-88361904D01*
X90049938Y-88361904D02*
X90097557Y-88314285D01*
X90097557Y-88314285D02*
X90192795Y-88266666D01*
X90192795Y-88266666D02*
X90335652Y-88266666D01*
X90335652Y-88266666D02*
X90430890Y-88314285D01*
X90430890Y-88314285D02*
X90478509Y-88361904D01*
X90478509Y-88361904D02*
X90526128Y-88457142D01*
X90526128Y-88457142D02*
X90526128Y-88838094D01*
X90002319Y-87361904D02*
X90002319Y-87838094D01*
X90002319Y-87838094D02*
X90478509Y-87885713D01*
X90478509Y-87885713D02*
X90430890Y-87838094D01*
X90430890Y-87838094D02*
X90383271Y-87742856D01*
X90383271Y-87742856D02*
X90383271Y-87504761D01*
X90383271Y-87504761D02*
X90430890Y-87409523D01*
X90430890Y-87409523D02*
X90478509Y-87361904D01*
X90478509Y-87361904D02*
X90573747Y-87314285D01*
X90573747Y-87314285D02*
X90811842Y-87314285D01*
X90811842Y-87314285D02*
X90907080Y-87361904D01*
X90907080Y-87361904D02*
X90954700Y-87409523D01*
X90954700Y-87409523D02*
X91002319Y-87504761D01*
X91002319Y-87504761D02*
X91002319Y-87742856D01*
X91002319Y-87742856D02*
X90954700Y-87838094D01*
X90954700Y-87838094D02*
X90907080Y-87885713D01*
%TO.C,C40*%
X103254642Y-89759580D02*
X103207023Y-89807200D01*
X103207023Y-89807200D02*
X103064166Y-89854819D01*
X103064166Y-89854819D02*
X102968928Y-89854819D01*
X102968928Y-89854819D02*
X102826071Y-89807200D01*
X102826071Y-89807200D02*
X102730833Y-89711961D01*
X102730833Y-89711961D02*
X102683214Y-89616723D01*
X102683214Y-89616723D02*
X102635595Y-89426247D01*
X102635595Y-89426247D02*
X102635595Y-89283390D01*
X102635595Y-89283390D02*
X102683214Y-89092914D01*
X102683214Y-89092914D02*
X102730833Y-88997676D01*
X102730833Y-88997676D02*
X102826071Y-88902438D01*
X102826071Y-88902438D02*
X102968928Y-88854819D01*
X102968928Y-88854819D02*
X103064166Y-88854819D01*
X103064166Y-88854819D02*
X103207023Y-88902438D01*
X103207023Y-88902438D02*
X103254642Y-88950057D01*
X104111785Y-89188152D02*
X104111785Y-89854819D01*
X103873690Y-88807200D02*
X103635595Y-89521485D01*
X103635595Y-89521485D02*
X104254642Y-89521485D01*
X104826071Y-88854819D02*
X104921309Y-88854819D01*
X104921309Y-88854819D02*
X105016547Y-88902438D01*
X105016547Y-88902438D02*
X105064166Y-88950057D01*
X105064166Y-88950057D02*
X105111785Y-89045295D01*
X105111785Y-89045295D02*
X105159404Y-89235771D01*
X105159404Y-89235771D02*
X105159404Y-89473866D01*
X105159404Y-89473866D02*
X105111785Y-89664342D01*
X105111785Y-89664342D02*
X105064166Y-89759580D01*
X105064166Y-89759580D02*
X105016547Y-89807200D01*
X105016547Y-89807200D02*
X104921309Y-89854819D01*
X104921309Y-89854819D02*
X104826071Y-89854819D01*
X104826071Y-89854819D02*
X104730833Y-89807200D01*
X104730833Y-89807200D02*
X104683214Y-89759580D01*
X104683214Y-89759580D02*
X104635595Y-89664342D01*
X104635595Y-89664342D02*
X104587976Y-89473866D01*
X104587976Y-89473866D02*
X104587976Y-89235771D01*
X104587976Y-89235771D02*
X104635595Y-89045295D01*
X104635595Y-89045295D02*
X104683214Y-88950057D01*
X104683214Y-88950057D02*
X104730833Y-88902438D01*
X104730833Y-88902438D02*
X104826071Y-88854819D01*
%TO.C,C4*%
X105250833Y-80119580D02*
X105203214Y-80167200D01*
X105203214Y-80167200D02*
X105060357Y-80214819D01*
X105060357Y-80214819D02*
X104965119Y-80214819D01*
X104965119Y-80214819D02*
X104822262Y-80167200D01*
X104822262Y-80167200D02*
X104727024Y-80071961D01*
X104727024Y-80071961D02*
X104679405Y-79976723D01*
X104679405Y-79976723D02*
X104631786Y-79786247D01*
X104631786Y-79786247D02*
X104631786Y-79643390D01*
X104631786Y-79643390D02*
X104679405Y-79452914D01*
X104679405Y-79452914D02*
X104727024Y-79357676D01*
X104727024Y-79357676D02*
X104822262Y-79262438D01*
X104822262Y-79262438D02*
X104965119Y-79214819D01*
X104965119Y-79214819D02*
X105060357Y-79214819D01*
X105060357Y-79214819D02*
X105203214Y-79262438D01*
X105203214Y-79262438D02*
X105250833Y-79310057D01*
X106107976Y-79548152D02*
X106107976Y-80214819D01*
X105869881Y-79167200D02*
X105631786Y-79881485D01*
X105631786Y-79881485D02*
X106250833Y-79881485D01*
%TO.C,C39*%
X100787919Y-87607142D02*
X100740300Y-87559523D01*
X100740300Y-87559523D02*
X100692680Y-87416666D01*
X100692680Y-87416666D02*
X100692680Y-87321428D01*
X100692680Y-87321428D02*
X100740300Y-87178571D01*
X100740300Y-87178571D02*
X100835538Y-87083333D01*
X100835538Y-87083333D02*
X100930776Y-87035714D01*
X100930776Y-87035714D02*
X101121252Y-86988095D01*
X101121252Y-86988095D02*
X101264109Y-86988095D01*
X101264109Y-86988095D02*
X101454585Y-87035714D01*
X101454585Y-87035714D02*
X101549823Y-87083333D01*
X101549823Y-87083333D02*
X101645061Y-87178571D01*
X101645061Y-87178571D02*
X101692680Y-87321428D01*
X101692680Y-87321428D02*
X101692680Y-87416666D01*
X101692680Y-87416666D02*
X101645061Y-87559523D01*
X101645061Y-87559523D02*
X101597442Y-87607142D01*
X101692680Y-87940476D02*
X101692680Y-88559523D01*
X101692680Y-88559523D02*
X101311728Y-88226190D01*
X101311728Y-88226190D02*
X101311728Y-88369047D01*
X101311728Y-88369047D02*
X101264109Y-88464285D01*
X101264109Y-88464285D02*
X101216490Y-88511904D01*
X101216490Y-88511904D02*
X101121252Y-88559523D01*
X101121252Y-88559523D02*
X100883157Y-88559523D01*
X100883157Y-88559523D02*
X100787919Y-88511904D01*
X100787919Y-88511904D02*
X100740300Y-88464285D01*
X100740300Y-88464285D02*
X100692680Y-88369047D01*
X100692680Y-88369047D02*
X100692680Y-88083333D01*
X100692680Y-88083333D02*
X100740300Y-87988095D01*
X100740300Y-87988095D02*
X100787919Y-87940476D01*
X100692680Y-89035714D02*
X100692680Y-89226190D01*
X100692680Y-89226190D02*
X100740300Y-89321428D01*
X100740300Y-89321428D02*
X100787919Y-89369047D01*
X100787919Y-89369047D02*
X100930776Y-89464285D01*
X100930776Y-89464285D02*
X101121252Y-89511904D01*
X101121252Y-89511904D02*
X101502204Y-89511904D01*
X101502204Y-89511904D02*
X101597442Y-89464285D01*
X101597442Y-89464285D02*
X101645061Y-89416666D01*
X101645061Y-89416666D02*
X101692680Y-89321428D01*
X101692680Y-89321428D02*
X101692680Y-89130952D01*
X101692680Y-89130952D02*
X101645061Y-89035714D01*
X101645061Y-89035714D02*
X101597442Y-88988095D01*
X101597442Y-88988095D02*
X101502204Y-88940476D01*
X101502204Y-88940476D02*
X101264109Y-88940476D01*
X101264109Y-88940476D02*
X101168871Y-88988095D01*
X101168871Y-88988095D02*
X101121252Y-89035714D01*
X101121252Y-89035714D02*
X101073633Y-89130952D01*
X101073633Y-89130952D02*
X101073633Y-89321428D01*
X101073633Y-89321428D02*
X101121252Y-89416666D01*
X101121252Y-89416666D02*
X101168871Y-89464285D01*
X101168871Y-89464285D02*
X101264109Y-89511904D01*
%TO.C,C5*%
X93940833Y-79089580D02*
X93893214Y-79137200D01*
X93893214Y-79137200D02*
X93750357Y-79184819D01*
X93750357Y-79184819D02*
X93655119Y-79184819D01*
X93655119Y-79184819D02*
X93512262Y-79137200D01*
X93512262Y-79137200D02*
X93417024Y-79041961D01*
X93417024Y-79041961D02*
X93369405Y-78946723D01*
X93369405Y-78946723D02*
X93321786Y-78756247D01*
X93321786Y-78756247D02*
X93321786Y-78613390D01*
X93321786Y-78613390D02*
X93369405Y-78422914D01*
X93369405Y-78422914D02*
X93417024Y-78327676D01*
X93417024Y-78327676D02*
X93512262Y-78232438D01*
X93512262Y-78232438D02*
X93655119Y-78184819D01*
X93655119Y-78184819D02*
X93750357Y-78184819D01*
X93750357Y-78184819D02*
X93893214Y-78232438D01*
X93893214Y-78232438D02*
X93940833Y-78280057D01*
X94845595Y-78184819D02*
X94369405Y-78184819D01*
X94369405Y-78184819D02*
X94321786Y-78661009D01*
X94321786Y-78661009D02*
X94369405Y-78613390D01*
X94369405Y-78613390D02*
X94464643Y-78565771D01*
X94464643Y-78565771D02*
X94702738Y-78565771D01*
X94702738Y-78565771D02*
X94797976Y-78613390D01*
X94797976Y-78613390D02*
X94845595Y-78661009D01*
X94845595Y-78661009D02*
X94893214Y-78756247D01*
X94893214Y-78756247D02*
X94893214Y-78994342D01*
X94893214Y-78994342D02*
X94845595Y-79089580D01*
X94845595Y-79089580D02*
X94797976Y-79137200D01*
X94797976Y-79137200D02*
X94702738Y-79184819D01*
X94702738Y-79184819D02*
X94464643Y-79184819D01*
X94464643Y-79184819D02*
X94369405Y-79137200D01*
X94369405Y-79137200D02*
X94321786Y-79089580D01*
%TO.C,R8*%
X92034833Y-78986819D02*
X91701500Y-78510628D01*
X91463405Y-78986819D02*
X91463405Y-77986819D01*
X91463405Y-77986819D02*
X91844357Y-77986819D01*
X91844357Y-77986819D02*
X91939595Y-78034438D01*
X91939595Y-78034438D02*
X91987214Y-78082057D01*
X91987214Y-78082057D02*
X92034833Y-78177295D01*
X92034833Y-78177295D02*
X92034833Y-78320152D01*
X92034833Y-78320152D02*
X91987214Y-78415390D01*
X91987214Y-78415390D02*
X91939595Y-78463009D01*
X91939595Y-78463009D02*
X91844357Y-78510628D01*
X91844357Y-78510628D02*
X91463405Y-78510628D01*
X92606262Y-78415390D02*
X92511024Y-78367771D01*
X92511024Y-78367771D02*
X92463405Y-78320152D01*
X92463405Y-78320152D02*
X92415786Y-78224914D01*
X92415786Y-78224914D02*
X92415786Y-78177295D01*
X92415786Y-78177295D02*
X92463405Y-78082057D01*
X92463405Y-78082057D02*
X92511024Y-78034438D01*
X92511024Y-78034438D02*
X92606262Y-77986819D01*
X92606262Y-77986819D02*
X92796738Y-77986819D01*
X92796738Y-77986819D02*
X92891976Y-78034438D01*
X92891976Y-78034438D02*
X92939595Y-78082057D01*
X92939595Y-78082057D02*
X92987214Y-78177295D01*
X92987214Y-78177295D02*
X92987214Y-78224914D01*
X92987214Y-78224914D02*
X92939595Y-78320152D01*
X92939595Y-78320152D02*
X92891976Y-78367771D01*
X92891976Y-78367771D02*
X92796738Y-78415390D01*
X92796738Y-78415390D02*
X92606262Y-78415390D01*
X92606262Y-78415390D02*
X92511024Y-78463009D01*
X92511024Y-78463009D02*
X92463405Y-78510628D01*
X92463405Y-78510628D02*
X92415786Y-78605866D01*
X92415786Y-78605866D02*
X92415786Y-78796342D01*
X92415786Y-78796342D02*
X92463405Y-78891580D01*
X92463405Y-78891580D02*
X92511024Y-78939200D01*
X92511024Y-78939200D02*
X92606262Y-78986819D01*
X92606262Y-78986819D02*
X92796738Y-78986819D01*
X92796738Y-78986819D02*
X92891976Y-78939200D01*
X92891976Y-78939200D02*
X92939595Y-78891580D01*
X92939595Y-78891580D02*
X92987214Y-78796342D01*
X92987214Y-78796342D02*
X92987214Y-78605866D01*
X92987214Y-78605866D02*
X92939595Y-78510628D01*
X92939595Y-78510628D02*
X92891976Y-78463009D01*
X92891976Y-78463009D02*
X92796738Y-78415390D01*
%TO.C,R11*%
X141903180Y-93148142D02*
X142379371Y-92814809D01*
X141903180Y-92576714D02*
X142903180Y-92576714D01*
X142903180Y-92576714D02*
X142903180Y-92957666D01*
X142903180Y-92957666D02*
X142855561Y-93052904D01*
X142855561Y-93052904D02*
X142807942Y-93100523D01*
X142807942Y-93100523D02*
X142712704Y-93148142D01*
X142712704Y-93148142D02*
X142569847Y-93148142D01*
X142569847Y-93148142D02*
X142474609Y-93100523D01*
X142474609Y-93100523D02*
X142426990Y-93052904D01*
X142426990Y-93052904D02*
X142379371Y-92957666D01*
X142379371Y-92957666D02*
X142379371Y-92576714D01*
X141903180Y-94100523D02*
X141903180Y-93529095D01*
X141903180Y-93814809D02*
X142903180Y-93814809D01*
X142903180Y-93814809D02*
X142760323Y-93719571D01*
X142760323Y-93719571D02*
X142665085Y-93624333D01*
X142665085Y-93624333D02*
X142617466Y-93529095D01*
X141903180Y-95052904D02*
X141903180Y-94481476D01*
X141903180Y-94767190D02*
X142903180Y-94767190D01*
X142903180Y-94767190D02*
X142760323Y-94671952D01*
X142760323Y-94671952D02*
X142665085Y-94576714D01*
X142665085Y-94576714D02*
X142617466Y-94481476D01*
%TO.C,U5*%
X100952319Y-93311904D02*
X101761842Y-93311904D01*
X101761842Y-93311904D02*
X101857080Y-93264285D01*
X101857080Y-93264285D02*
X101904700Y-93216666D01*
X101904700Y-93216666D02*
X101952319Y-93121428D01*
X101952319Y-93121428D02*
X101952319Y-92930952D01*
X101952319Y-92930952D02*
X101904700Y-92835714D01*
X101904700Y-92835714D02*
X101857080Y-92788095D01*
X101857080Y-92788095D02*
X101761842Y-92740476D01*
X101761842Y-92740476D02*
X100952319Y-92740476D01*
X100952319Y-91788095D02*
X100952319Y-92264285D01*
X100952319Y-92264285D02*
X101428509Y-92311904D01*
X101428509Y-92311904D02*
X101380890Y-92264285D01*
X101380890Y-92264285D02*
X101333271Y-92169047D01*
X101333271Y-92169047D02*
X101333271Y-91930952D01*
X101333271Y-91930952D02*
X101380890Y-91835714D01*
X101380890Y-91835714D02*
X101428509Y-91788095D01*
X101428509Y-91788095D02*
X101523747Y-91740476D01*
X101523747Y-91740476D02*
X101761842Y-91740476D01*
X101761842Y-91740476D02*
X101857080Y-91788095D01*
X101857080Y-91788095D02*
X101904700Y-91835714D01*
X101904700Y-91835714D02*
X101952319Y-91930952D01*
X101952319Y-91930952D02*
X101952319Y-92169047D01*
X101952319Y-92169047D02*
X101904700Y-92264285D01*
X101904700Y-92264285D02*
X101857080Y-92311904D01*
%TO.C,SW1*%
X88697500Y-84790000D02*
X88697500Y-93390000D01*
X84097500Y-84790000D02*
X84097500Y-86990000D01*
X84097500Y-91090000D02*
X84097500Y-93390000D01*
D13*
%TO.C,C42*%
X100917500Y-95040580D02*
X100917500Y-94759420D01*
X101937500Y-95040580D02*
X101937500Y-94759420D01*
%TO.C,C19*%
X151337500Y-100740580D02*
X151337500Y-100459420D01*
X152357500Y-100740580D02*
X152357500Y-100459420D01*
%TO.C,D5*%
X132150000Y-97850000D02*
X139450000Y-97850000D01*
X132150000Y-103350000D02*
X139450000Y-103350000D01*
X139450000Y-103350000D02*
X139450000Y-102200000D01*
%TO.C,D1*%
X112150000Y-97850000D02*
X119450000Y-97850000D01*
X112150000Y-103350000D02*
X119450000Y-103350000D01*
X119450000Y-103350000D02*
X119450000Y-102200000D01*
%TO.C,TP5*%
X127058884Y-88851000D02*
X127058884Y-86951000D01*
X128958884Y-88851000D02*
X127058884Y-88851000D01*
X127058884Y-86951000D02*
X128958884Y-86951000D01*
X128958884Y-86951000D02*
X128958884Y-88851000D01*
%TO.C,C8*%
X96412500Y-101661252D02*
X96412500Y-101138748D01*
X97882500Y-101661252D02*
X97882500Y-101138748D01*
%TO.C,D13*%
X172150000Y-97850000D02*
X179450000Y-97850000D01*
X172150000Y-103350000D02*
X179450000Y-103350000D01*
X179450000Y-103350000D02*
X179450000Y-102200000D01*
%TO.C,R17*%
X94512500Y-91802936D02*
X94512500Y-92257064D01*
X95982500Y-91802936D02*
X95982500Y-92257064D01*
%TO.C,C3*%
X104586248Y-83435000D02*
X105108752Y-83435000D01*
X104586248Y-81965000D02*
X105108752Y-81965000D01*
%TO.C,D27*%
X89372500Y-95975000D02*
X89372500Y-94505000D01*
X89372500Y-94505000D02*
X87087500Y-94505000D01*
X87087500Y-95975000D02*
X89372500Y-95975000D01*
%TO.C,D7*%
X142150000Y-97850000D02*
X149450000Y-97850000D01*
X142150000Y-103350000D02*
X149450000Y-103350000D01*
X149450000Y-103350000D02*
X149450000Y-102200000D01*
%TO.C,R14*%
X103990000Y-99327064D02*
X103990000Y-98872936D01*
X105460000Y-99327064D02*
X105460000Y-98872936D01*
%TO.C,D11*%
X162150000Y-97850000D02*
X169450000Y-97850000D01*
X162150000Y-103350000D02*
X169450000Y-103350000D01*
X169450000Y-103350000D02*
X169450000Y-102200000D01*
%TO.C,C35*%
X92767500Y-91240580D02*
X92767500Y-90959420D01*
X91747500Y-91240580D02*
X91747500Y-90959420D01*
%TO.C,R3*%
X105074564Y-87435000D02*
X104620436Y-87435000D01*
X105074564Y-85965000D02*
X104620436Y-85965000D01*
%TO.C,R1*%
X111042500Y-94727064D02*
X111042500Y-94272936D01*
X112512500Y-94727064D02*
X112512500Y-94272936D01*
%TO.C,R10*%
X138233000Y-94018064D02*
X138233000Y-93563936D01*
X136763000Y-94018064D02*
X136763000Y-93563936D01*
%TO.C,Q1*%
X101838384Y-97540000D02*
X100163384Y-97540000D01*
X101838384Y-97540000D02*
X102488384Y-97540000D01*
X101838384Y-100660000D02*
X101188384Y-100660000D01*
X101838384Y-100660000D02*
X102488384Y-100660000D01*
%TO.C,R12*%
X129700936Y-86436000D02*
X130155064Y-86436000D01*
X129700936Y-84966000D02*
X130155064Y-84966000D01*
%TO.C,U4*%
X130638000Y-92038500D02*
X130638000Y-92838500D01*
X130638000Y-92038500D02*
X130638000Y-91238500D01*
X133758000Y-92038500D02*
X133758000Y-92838500D01*
X133758000Y-92038500D02*
X133758000Y-90238500D01*
%TO.C,C21*%
X161337500Y-100740580D02*
X161337500Y-100459420D01*
X162357500Y-100740580D02*
X162357500Y-100459420D01*
%TO.C,C1*%
X112972500Y-94761252D02*
X112972500Y-94238748D01*
X114442500Y-94761252D02*
X114442500Y-94238748D01*
%TO.C,C10*%
X99472500Y-98150000D02*
X98847500Y-98150000D01*
X99160000Y-98462500D02*
X99160000Y-97837500D01*
X98607500Y-98495563D02*
X98607500Y-97860000D01*
X98607500Y-98495563D02*
X97543063Y-99560000D01*
X98607500Y-95104437D02*
X98607500Y-95740000D01*
X98607500Y-95104437D02*
X97543063Y-94040000D01*
X97543063Y-99560000D02*
X93087500Y-99560000D01*
X97543063Y-94040000D02*
X93087500Y-94040000D01*
X93087500Y-99560000D02*
X93087500Y-97860000D01*
X93087500Y-94040000D02*
X93087500Y-95740000D01*
%TO.C,D25*%
X86358384Y-104560000D02*
X89658384Y-104560000D01*
X86358384Y-104560000D02*
X86358384Y-99050000D01*
X89658384Y-104560000D02*
X89658384Y-99050000D01*
%TO.C,C17*%
X141337500Y-100740580D02*
X141337500Y-100459420D01*
X142357500Y-100740580D02*
X142357500Y-100459420D01*
%TO.C,J3*%
X127148000Y-79631000D02*
X127148000Y-84351000D01*
X127148000Y-81741000D02*
X127758000Y-81741000D01*
X127148000Y-83041000D02*
X127758000Y-83041000D01*
X127148000Y-84351000D02*
X133268000Y-84351000D01*
X127758000Y-80241000D02*
X127758000Y-83741000D01*
X127758000Y-83741000D02*
X129708000Y-83741000D01*
X129708000Y-83741000D02*
X129708000Y-84351000D01*
X130108000Y-80741000D02*
X130108000Y-80241000D01*
X130208000Y-80241000D02*
X130208000Y-80741000D01*
X130308000Y-80241000D02*
X130308000Y-80741000D01*
X130308000Y-80741000D02*
X130108000Y-80741000D01*
X130708000Y-83741000D02*
X132658000Y-83741000D01*
X130708000Y-84351000D02*
X130708000Y-83741000D01*
X131508000Y-84351000D02*
X131508000Y-84551000D01*
X131508000Y-84451000D02*
X131808000Y-84451000D01*
X131508000Y-84551000D02*
X131808000Y-84551000D01*
X131808000Y-84551000D02*
X131808000Y-84351000D01*
X132318000Y-84651000D02*
X133568000Y-84651000D01*
X132658000Y-80241000D02*
X127758000Y-80241000D01*
X132658000Y-83741000D02*
X132658000Y-80241000D01*
X133268000Y-79631000D02*
X127148000Y-79631000D01*
X133268000Y-81741000D02*
X132658000Y-81741000D01*
X133268000Y-83041000D02*
X132658000Y-83041000D01*
X133268000Y-84351000D02*
X133268000Y-79631000D01*
X133568000Y-84651000D02*
X133568000Y-83401000D01*
%TO.C,C13*%
X121337500Y-100740580D02*
X121337500Y-100459420D01*
X122357500Y-100740580D02*
X122357500Y-100459420D01*
%TO.C,J2*%
X121078000Y-89181000D02*
X121078000Y-81441000D01*
X123678000Y-86581000D02*
X123678000Y-89181000D01*
X123678000Y-89181000D02*
X121078000Y-89181000D01*
X126278000Y-81441000D02*
X121078000Y-81441000D01*
X126278000Y-86581000D02*
X123678000Y-86581000D01*
X126278000Y-86581000D02*
X126278000Y-81441000D01*
X126278000Y-87851000D02*
X126278000Y-89181000D01*
X126278000Y-89181000D02*
X124948000Y-89181000D01*
%TO.C,TP1*%
X128958884Y-95126000D02*
X127058884Y-95126000D01*
X128958884Y-93226000D02*
X128958884Y-95126000D01*
X127058884Y-95126000D02*
X127058884Y-93226000D01*
X127058884Y-93226000D02*
X128958884Y-93226000D01*
%TO.C,R7*%
X100212500Y-84642936D02*
X100212500Y-85097064D01*
X98742500Y-84642936D02*
X98742500Y-85097064D01*
%TO.C,C23*%
X171337500Y-100740580D02*
X171337500Y-100459420D01*
X172357500Y-100740580D02*
X172357500Y-100459420D01*
%TO.C,C38*%
X96536248Y-80765000D02*
X97058752Y-80765000D01*
X96536248Y-79295000D02*
X97058752Y-79295000D01*
%TO.C,C7*%
X90012500Y-101661252D02*
X90012500Y-101138748D01*
X91482500Y-101661252D02*
X91482500Y-101138748D01*
%TO.C,U2*%
X93217500Y-86620000D02*
X93217500Y-88570000D01*
X93217500Y-86620000D02*
X93217500Y-84670000D01*
X98337500Y-86620000D02*
X98337500Y-88570000D01*
X98337500Y-86620000D02*
X98337500Y-83170000D01*
%TO.C,C2*%
X116832500Y-94761252D02*
X116832500Y-94238748D01*
X118302500Y-94761252D02*
X118302500Y-94238748D01*
%TO.C,R13*%
X133525064Y-84966000D02*
X133070936Y-84966000D01*
X133525064Y-86436000D02*
X133070936Y-86436000D01*
%TO.C,D23*%
X222150000Y-97850000D02*
X229450000Y-97850000D01*
X222150000Y-103350000D02*
X229450000Y-103350000D01*
X229450000Y-103350000D02*
X229450000Y-102200000D01*
%TO.C,TP3*%
X107450000Y-104550000D02*
X107450000Y-102650000D01*
X109350000Y-104550000D02*
X107450000Y-104550000D01*
X107450000Y-102650000D02*
X109350000Y-102650000D01*
X109350000Y-102650000D02*
X109350000Y-104550000D01*
%TO.C,U3*%
X93947500Y-99840000D02*
X92147500Y-99840000D01*
X93947500Y-99840000D02*
X94747500Y-99840000D01*
X93947500Y-102960000D02*
X93147500Y-102960000D01*
X93947500Y-102960000D02*
X94747500Y-102960000D01*
%TO.C,C41*%
X96512500Y-91768748D02*
X96512500Y-92291252D01*
X97982500Y-91768748D02*
X97982500Y-92291252D01*
%TO.C,TP2*%
X109350000Y-100050000D02*
X109350000Y-101950000D01*
X107450000Y-100050000D02*
X109350000Y-100050000D01*
X109350000Y-101950000D02*
X107450000Y-101950000D01*
X107450000Y-101950000D02*
X107450000Y-100050000D01*
%TO.C,C25*%
X181337500Y-100740580D02*
X181337500Y-100459420D01*
X182357500Y-100740580D02*
X182357500Y-100459420D01*
%TO.C,TP4*%
X127058884Y-89451000D02*
X128958884Y-89451000D01*
X127058884Y-91351000D02*
X127058884Y-89451000D01*
X128958884Y-89451000D02*
X128958884Y-91351000D01*
X128958884Y-91351000D02*
X127058884Y-91351000D01*
%TO.C,D15*%
X182150000Y-97850000D02*
X189450000Y-97850000D01*
X182150000Y-103350000D02*
X189450000Y-103350000D01*
X189450000Y-103350000D02*
X189450000Y-102200000D01*
%TO.C,D26*%
X86402500Y-95975000D02*
X86402500Y-97445000D01*
X86402500Y-97445000D02*
X88687500Y-97445000D01*
X88687500Y-95975000D02*
X86402500Y-95975000D01*
%TO.C,D17*%
X192150000Y-97850000D02*
X199450000Y-97850000D01*
X192150000Y-103350000D02*
X199450000Y-103350000D01*
X199450000Y-103350000D02*
X199450000Y-102200000D01*
%TO.C,D21*%
X212150000Y-97850000D02*
X219450000Y-97850000D01*
X212150000Y-103350000D02*
X219450000Y-103350000D01*
X219450000Y-103350000D02*
X219450000Y-102200000D01*
%TO.C,MK1*%
X87617500Y-75270000D02*
X88947500Y-75270000D01*
X87617500Y-76600000D02*
X87617500Y-75270000D01*
X87617500Y-77870000D02*
X87617500Y-80470000D01*
X87617500Y-77870000D02*
X90277500Y-77870000D01*
X87617500Y-80470000D02*
X90277500Y-80470000D01*
X90277500Y-77870000D02*
X90277500Y-80470000D01*
%TO.C,R9*%
X96570436Y-82695000D02*
X97024564Y-82695000D01*
X96570436Y-81225000D02*
X97024564Y-81225000D01*
%TO.C,D19*%
X202150000Y-97850000D02*
X209450000Y-97850000D01*
X202150000Y-103350000D02*
X209450000Y-103350000D01*
X209450000Y-103350000D02*
X209450000Y-102200000D01*
%TO.C,D3*%
X122150000Y-97850000D02*
X129450000Y-97850000D01*
X122150000Y-103350000D02*
X129450000Y-103350000D01*
X129450000Y-103350000D02*
X129450000Y-102200000D01*
%TO.C,C11*%
X111337500Y-100740580D02*
X111337500Y-100459420D01*
X112357500Y-100740580D02*
X112357500Y-100459420D01*
%TO.C,R4*%
X114902500Y-94272936D02*
X114902500Y-94727064D01*
X116372500Y-94272936D02*
X116372500Y-94727064D01*
%TO.C,R6*%
X91372500Y-84132936D02*
X91372500Y-84587064D01*
X92842500Y-84132936D02*
X92842500Y-84587064D01*
%TO.C,C36*%
X132459252Y-88216000D02*
X131936748Y-88216000D01*
X132459252Y-89686000D02*
X131936748Y-89686000D01*
%TO.C,C27*%
X191337500Y-100740580D02*
X191337500Y-100459420D01*
X192357500Y-100740580D02*
X192357500Y-100459420D01*
%TO.C,C9*%
X99922500Y-82425000D02*
X99922500Y-81800000D01*
X99610000Y-82112500D02*
X100235000Y-82112500D01*
X99911937Y-81560000D02*
X100547500Y-81560000D01*
X99911937Y-81560000D02*
X98847500Y-80495563D01*
X103303063Y-81560000D02*
X102667500Y-81560000D01*
X103303063Y-81560000D02*
X104367500Y-80495563D01*
X98847500Y-80495563D02*
X98847500Y-76040000D01*
X104367500Y-80495563D02*
X104367500Y-76040000D01*
X98847500Y-76040000D02*
X100547500Y-76040000D01*
X104367500Y-76040000D02*
X102667500Y-76040000D01*
%TO.C,C31*%
X211315000Y-100740580D02*
X211315000Y-100459420D01*
X212335000Y-100740580D02*
X212335000Y-100459420D01*
%TO.C,D9*%
X152150000Y-97850000D02*
X159450000Y-97850000D01*
X152150000Y-103350000D02*
X159450000Y-103350000D01*
X159450000Y-103350000D02*
X159450000Y-102200000D01*
%TO.C,C33*%
X221340000Y-100740580D02*
X221340000Y-100459420D01*
X222360000Y-100740580D02*
X222360000Y-100459420D01*
%TO.C,C6*%
X89342500Y-85188748D02*
X89342500Y-85711252D01*
X90812500Y-85188748D02*
X90812500Y-85711252D01*
%TO.C,U1*%
X106855500Y-91010000D02*
X106855500Y-91810000D01*
X106855500Y-91810000D02*
X107655500Y-91810000D01*
X107055500Y-75010000D02*
X120255500Y-75010000D01*
X107055500Y-80410000D02*
X120255500Y-80410000D01*
X107055500Y-91610000D02*
X107055500Y-75010000D01*
X107730500Y-74810000D02*
X106880500Y-74810000D01*
X119705500Y-74810000D02*
X120455500Y-74810000D01*
X120255500Y-75010000D02*
X120255500Y-91610000D01*
X120255500Y-91610000D02*
X107055500Y-91610000D01*
X120455500Y-74810000D02*
X120455500Y-75410000D01*
X120455500Y-91010000D02*
X120455500Y-91810000D01*
X120455500Y-91810000D02*
X119655500Y-91810000D01*
%TO.C,C37*%
X132459252Y-94336000D02*
X131936748Y-94336000D01*
X132459252Y-95806000D02*
X131936748Y-95806000D01*
%TO.C,C29*%
X201337500Y-100740580D02*
X201337500Y-100459420D01*
X202357500Y-100740580D02*
X202357500Y-100459420D01*
%TO.C,C15*%
X131337500Y-100740580D02*
X131337500Y-100459420D01*
X132357500Y-100740580D02*
X132357500Y-100459420D01*
%TO.C,TP6*%
X134208000Y-93471000D02*
X134208000Y-91571000D01*
X136108000Y-93471000D02*
X134208000Y-93471000D01*
X134208000Y-91571000D02*
X136108000Y-91571000D01*
X136108000Y-91571000D02*
X136108000Y-93471000D01*
%TO.C,R2*%
X118762500Y-94727064D02*
X118762500Y-94272936D01*
X120232500Y-94727064D02*
X120232500Y-94272936D01*
%TO.C,J1*%
X85710000Y-96200000D02*
X85710000Y-96650000D01*
X83860000Y-96200000D02*
X85710000Y-96200000D01*
X81310000Y-96200000D02*
X81560000Y-96200000D01*
X86260000Y-98400000D02*
X85810000Y-98400000D01*
X86260000Y-98400000D02*
X86260000Y-98850000D01*
X85710000Y-104000000D02*
X85710000Y-103550000D01*
X83860000Y-104000000D02*
X85710000Y-104000000D01*
X81310000Y-104000000D02*
X81560000Y-104000000D01*
%TO.C,R5*%
X91372500Y-87512936D02*
X91372500Y-87967064D01*
X92842500Y-87512936D02*
X92842500Y-87967064D01*
%TO.C,C40*%
X104158752Y-91615000D02*
X103636248Y-91615000D01*
X104158752Y-90145000D02*
X103636248Y-90145000D01*
%TO.C,C4*%
X104586248Y-83965000D02*
X105108752Y-83965000D01*
X104586248Y-85435000D02*
X105108752Y-85435000D01*
%TO.C,C39*%
X98732500Y-87988748D02*
X98732500Y-88511252D01*
X100202500Y-87988748D02*
X100202500Y-88511252D01*
%TO.C,C5*%
X93372500Y-80748748D02*
X93372500Y-81271252D01*
X94842500Y-80748748D02*
X94842500Y-81271252D01*
%TO.C,R8*%
X91432500Y-81127064D02*
X91432500Y-80672936D01*
X92902500Y-81127064D02*
X92902500Y-80672936D01*
%TO.C,R11*%
X140233000Y-94018064D02*
X140233000Y-93563936D01*
X138763000Y-94018064D02*
X138763000Y-93563936D01*
%TO.C,U5*%
X105897500Y-97175000D02*
X103947500Y-97175000D01*
X105897500Y-97175000D02*
X109347500Y-97175000D01*
X105897500Y-92055000D02*
X103947500Y-92055000D01*
X105897500Y-92055000D02*
X107847500Y-92055000D01*
%TD*%
M02*
