M48
; DRILL file {KiCad 9.0.3} date 2026-03-23T15:49:30-0600
; FORMAT={-:-/ absolute / metric / decimal}
; #@! TF.CreationDate,2026-03-23T15:49:30-06:00
; #@! TF.GenerationSoftware,Kicad,Pcbnew,9.0.3
; #@! TF.FileFunction,Plated,1,2,PTH
FMAT,2
METRIC
; #@! TA.AperFunction,Plated,PTH,ViaDrill
T1C0.400
; #@! TA.AperFunction,Plated,PTH,ComponentDrill
T2C0.600
; #@! TA.AperFunction,Plated,PTH,ComponentDrill
T3C0.700
; #@! TA.AperFunction,Plated,PTH,ComponentDrill
T4C0.750
; #@! TA.AperFunction,Plated,PTH,ComponentDrill
T5C0.850
; #@! TA.AperFunction,Plated,PTH,ComponentDrill
T6C0.900
; #@! TA.AperFunction,Plated,PTH,ComponentDrill
T7C1.000
; #@! TA.AperFunction,Plated,PTH,ComponentDrill
T8C1.500
%
G90
G05
T1
X85.778Y-95.04
X86.193Y-95.974
X88.638Y-84.25
X89.648Y-97.376
X90.647Y-82.8
X90.697Y-103.8
X91.547Y-97.38
X92.772Y-98.2
X92.808Y-99.5
X92.81Y-103.4
X93.87Y-90.669
X93.947Y-95.1
X93.947Y-101.4
X93.99Y-86.77
X95.792Y-87.495
X96.792Y-87.505
X98.075Y-86.458
X98.777Y-91.35
X98.807Y-99.56
X99.547Y-95.0
X99.6Y-98.2
X99.867Y-90.74
X100.262Y-92.415
X101.608Y-83.9
X103.19Y-100.03
X103.477Y-78.47
X104.097Y-88.0
X105.385Y-95.815
X106.2Y-89.8
X106.4Y-81.06
X106.971Y-95.887
X109.027Y-88.42
X109.881Y-91.934
X109.997Y-87.375
X110.019Y-89.933
X110.137Y-94.374
X110.227Y-95.39
X111.561Y-98.078
X111.975Y-92.327
X113.408Y-100.4
X113.655Y-82.4
X114.901Y-92.514
X115.075Y-98.825
X116.881Y-89.881
X117.584Y-89.156
X118.198Y-87.419
X118.272Y-101.2
X118.297Y-100.075
X118.369Y-89.849
X118.387Y-88.4
X119.747Y-96.575
X120.547Y-90.92
X120.697Y-93.45
X121.3Y-81.06
X121.6Y-94.5
X121.827Y-91.372
X122.547Y-92.096
X122.582Y-93.156
X123.35Y-100.35
X125.147Y-98.024
X126.308Y-99.1
X127.198Y-84.7
X128.262Y-101.2
X129.798Y-88.251
X129.798Y-89.251
X129.798Y-90.251
X129.798Y-91.251
X129.798Y-93.401
X129.798Y-94.301
X129.798Y-95.201
X130.348Y-87.451
X131.348Y-87.451
X132.85Y-87.451
X133.3Y-100.35
X133.85Y-87.451
X134.148Y-94.451
X134.148Y-95.351
X134.451Y-88.251
X134.451Y-89.251
X135.05Y-94.451
X135.05Y-95.351
X135.498Y-97.9
X135.8Y-103.2
X136.347Y-99.1
X138.262Y-101.2
X143.3Y-100.35
X145.472Y-97.9
X145.8Y-103.2
X146.347Y-99.1
X148.25Y-101.2
X153.3Y-100.35
X155.397Y-97.9
X155.8Y-103.2
X156.397Y-99.1
X163.3Y-100.35
X165.447Y-97.9
X165.8Y-103.2
X166.347Y-99.1
X173.3Y-100.35
X175.297Y-97.9
X175.6Y-103.2
X176.347Y-99.1
X183.3Y-100.35
X185.297Y-97.9
X185.8Y-103.2
X186.297Y-99.1
X193.3Y-100.35
X195.347Y-97.9
X195.8Y-103.2
X196.347Y-99.1
X203.3Y-100.35
X205.347Y-97.9
X205.8Y-103.2
X206.347Y-99.1
X213.3Y-100.35
X215.347Y-97.9
X215.8Y-103.2
X216.347Y-99.1
X223.3Y-100.35
X225.347Y-97.9
X225.8Y-103.2
X226.347Y-99.1
T3
X108.347Y-100.37
X108.358Y-102.91
X128.009Y-87.901
X128.009Y-90.401
X128.009Y-94.176
X135.158Y-92.521
T4
X129.237Y-81.2
X131.237Y-81.2
T5
X85.41Y-97.6
X85.41Y-102.6
T6
X86.397Y-87.09
X86.397Y-89.09
X86.397Y-91.09
T7
X88.947Y-76.6
X88.947Y-79.14
X122.408Y-82.771
X122.408Y-85.311
X122.408Y-87.851
X124.948Y-82.771
X124.948Y-85.311
X124.948Y-87.851
T8
X86.397Y-84.99
X86.397Y-93.19
T2
G00X82.36Y-96.6
M15
G01X83.06Y-96.6
M16
G05
G00X83.06Y-103.6
M15
G01X82.36Y-103.6
M16
G05
M30
