%TF.GenerationSoftware,KiCad,Pcbnew,7.0.5-0*%
%TF.CreationDate,2024-02-10T16:06:05-07:00*%
%TF.ProjectId,rainbow-music-pegasus,7261696e-626f-4772-9d6d-757369632d70,rev?*%
%TF.SameCoordinates,Original*%
%TF.FileFunction,Soldermask,Bot*%
%TF.FilePolarity,Negative*%
%FSLAX46Y46*%
G04 Gerber Fmt 4.6, Leading zero omitted, Abs format (unit mm)*
G04 Created by KiCad (PCBNEW 7.0.5-0) date 2024-02-10 16:06:05*
%MOMM*%
%LPD*%
G01*
G04 APERTURE LIST*
G04 Aperture macros list*
%AMRoundRect*
0 Rectangle with rounded corners*
0 $1 Rounding radius*
0 $2 $3 $4 $5 $6 $7 $8 $9 X,Y pos of 4 corners*
0 Add a 4 corners polygon primitive as box body*
4,1,4,$2,$3,$4,$5,$6,$7,$8,$9,$2,$3,0*
0 Add four circle primitives for the rounded corners*
1,1,$1+$1,$2,$3*
1,1,$1+$1,$4,$5*
1,1,$1+$1,$6,$7*
1,1,$1+$1,$8,$9*
0 Add four rect primitives between the rounded corners*
20,1,$1+$1,$2,$3,$4,$5,0*
20,1,$1+$1,$4,$5,$6,$7,0*
20,1,$1+$1,$6,$7,$8,$9,0*
20,1,$1+$1,$8,$9,$2,$3,0*%
%AMFreePoly0*
4,1,6,1.000000,0.000000,0.500000,-0.750000,-0.500000,-0.750000,-0.500000,0.750000,0.500000,0.750000,1.000000,0.000000,1.000000,0.000000,$1*%
%AMFreePoly1*
4,1,6,0.500000,-0.750000,-0.650000,-0.750000,-0.150000,0.000000,-0.650000,0.750000,0.500000,0.750000,0.500000,-0.750000,0.500000,-0.750000,$1*%
G04 Aperture macros list end*
%ADD10C,0.300000*%
%ADD11O,3.500000X2.200000*%
%ADD12R,2.500000X1.500000*%
%ADD13O,2.500000X1.500000*%
%ADD14R,1.700000X1.700000*%
%ADD15O,1.700000X1.700000*%
%ADD16R,1.500000X1.500000*%
%ADD17C,0.700000*%
%ADD18C,4.400000*%
%ADD19O,1.550000X1.000000*%
%ADD20O,0.950000X1.250000*%
%ADD21R,1.500000X0.900000*%
%ADD22FreePoly0,0.000000*%
%ADD23FreePoly1,0.000000*%
%ADD24RoundRect,0.225000X0.250000X-0.225000X0.250000X0.225000X-0.250000X0.225000X-0.250000X-0.225000X0*%
G04 APERTURE END LIST*
D10*
G36*
X101228885Y-94461792D02*
G01*
X101253233Y-94463063D01*
X101275291Y-94465312D01*
X101295059Y-94468540D01*
X101315759Y-94473703D01*
X101335741Y-94481507D01*
X101346220Y-94487094D01*
X101363686Y-94498108D01*
X101379841Y-94509700D01*
X101397450Y-94523486D01*
X101412586Y-94536095D01*
X101428652Y-94550109D01*
X101445650Y-94565526D01*
X101453100Y-94567726D01*
X101475448Y-94574350D01*
X101497796Y-94581007D01*
X101520144Y-94587699D01*
X101542493Y-94594425D01*
X101564841Y-94601186D01*
X101570010Y-94603067D01*
X101589046Y-94612196D01*
X101605456Y-94623889D01*
X101619240Y-94638147D01*
X101630399Y-94654969D01*
X101638932Y-94674356D01*
X101644840Y-94696307D01*
X101648122Y-94720823D01*
X101648860Y-94740893D01*
X101648723Y-94748823D01*
X101646670Y-94771064D01*
X101642152Y-94790978D01*
X101632294Y-94813910D01*
X101618056Y-94832706D01*
X101599436Y-94847364D01*
X101576435Y-94857886D01*
X101556309Y-94863062D01*
X101533719Y-94865911D01*
X101508665Y-94866434D01*
X101480821Y-94866434D01*
X101484748Y-94894382D01*
X101488591Y-94921442D01*
X101492350Y-94947612D01*
X101496025Y-94972893D01*
X101499616Y-94997285D01*
X101503124Y-95020787D01*
X101506547Y-95043401D01*
X101509886Y-95065125D01*
X101513141Y-95085960D01*
X101516313Y-95105906D01*
X101520912Y-95134158D01*
X101525323Y-95160408D01*
X101529545Y-95184659D01*
X101533578Y-95206908D01*
X101534847Y-95218046D01*
X101537304Y-95243401D01*
X101539077Y-95265113D01*
X101540790Y-95289134D01*
X101542443Y-95315465D01*
X101544036Y-95344106D01*
X101545065Y-95364483D01*
X101546066Y-95385887D01*
X101547042Y-95408317D01*
X101547990Y-95431774D01*
X101548912Y-95456257D01*
X101549806Y-95481767D01*
X101550675Y-95508304D01*
X101552031Y-95531921D01*
X101553415Y-95554901D01*
X101554825Y-95577243D01*
X101556262Y-95598948D01*
X101557725Y-95620016D01*
X101559216Y-95640447D01*
X101560733Y-95660240D01*
X101563058Y-95688735D01*
X101565444Y-95715796D01*
X101567889Y-95741423D01*
X101570395Y-95765616D01*
X101572961Y-95788374D01*
X101575587Y-95809699D01*
X101603981Y-95817074D01*
X101630542Y-95825033D01*
X101655272Y-95833576D01*
X101678169Y-95842703D01*
X101699235Y-95852413D01*
X101718469Y-95862708D01*
X101735872Y-95873586D01*
X101758541Y-95890998D01*
X101777088Y-95909725D01*
X101791513Y-95929764D01*
X101801817Y-95951118D01*
X101808000Y-95973785D01*
X101810061Y-95997766D01*
X101809972Y-96001759D01*
X101806866Y-96021506D01*
X101799324Y-96040895D01*
X101787346Y-96059926D01*
X101774569Y-96074894D01*
X101758953Y-96089632D01*
X101740497Y-96104142D01*
X101719202Y-96118422D01*
X101714172Y-96121247D01*
X101694194Y-96131651D01*
X101674444Y-96140619D01*
X101654924Y-96148152D01*
X101635633Y-96154251D01*
X101611840Y-96159856D01*
X101588406Y-96163219D01*
X101565329Y-96164340D01*
X101565261Y-96202410D01*
X101565054Y-96239441D01*
X101564711Y-96275431D01*
X101564230Y-96310382D01*
X101563612Y-96344293D01*
X101562856Y-96377163D01*
X101561963Y-96408994D01*
X101560933Y-96439785D01*
X101559765Y-96469536D01*
X101558460Y-96498247D01*
X101557017Y-96525918D01*
X101555437Y-96552549D01*
X101553720Y-96578140D01*
X101551865Y-96602691D01*
X101549873Y-96626202D01*
X101547744Y-96648674D01*
X101545477Y-96670105D01*
X101540531Y-96709848D01*
X101535035Y-96745431D01*
X101528990Y-96776854D01*
X101522396Y-96804118D01*
X101515252Y-96827222D01*
X101507558Y-96846166D01*
X101494987Y-96866782D01*
X101485595Y-96878376D01*
X101470635Y-96894365D01*
X101454626Y-96908670D01*
X101437570Y-96921293D01*
X101419467Y-96932232D01*
X101400316Y-96941488D01*
X101380117Y-96949062D01*
X101358871Y-96954952D01*
X101336577Y-96959160D01*
X101313235Y-96961684D01*
X101288846Y-96962526D01*
X101277156Y-96962152D01*
X101254521Y-96959164D01*
X101232883Y-96953188D01*
X101212240Y-96944223D01*
X101192594Y-96932271D01*
X101176983Y-96920027D01*
X101168166Y-96911940D01*
X101153134Y-96894504D01*
X101141570Y-96875384D01*
X101133476Y-96854581D01*
X101128851Y-96832096D01*
X101127646Y-96812072D01*
X101132631Y-96794491D01*
X101141492Y-96776974D01*
X101152261Y-96758835D01*
X101163092Y-96742005D01*
X101175892Y-96723114D01*
X101190661Y-96702163D01*
X101199663Y-96682207D01*
X101205865Y-96661313D01*
X101210689Y-96640614D01*
X101215390Y-96616372D01*
X101218836Y-96595868D01*
X101222214Y-96573370D01*
X101225523Y-96548881D01*
X101228763Y-96522400D01*
X101230892Y-96507442D01*
X101233829Y-96485699D01*
X101236456Y-96464789D01*
X101238775Y-96444712D01*
X101241385Y-96419238D01*
X101243446Y-96395245D01*
X101244957Y-96372733D01*
X101245919Y-96351701D01*
X101246348Y-96327494D01*
X101246348Y-96184856D01*
X101241463Y-96184795D01*
X101220947Y-96183879D01*
X101199789Y-96182471D01*
X101179914Y-96180949D01*
X101177516Y-96180949D01*
X101157178Y-96180949D01*
X101137210Y-96180949D01*
X101116899Y-96180949D01*
X101107852Y-96181239D01*
X101088045Y-96183563D01*
X101065957Y-96188211D01*
X101041586Y-96195184D01*
X101014933Y-96204480D01*
X100985998Y-96216101D01*
X100954780Y-96230046D01*
X100921281Y-96246315D01*
X100903675Y-96255321D01*
X100885499Y-96264908D01*
X100866753Y-96275076D01*
X100847436Y-96285825D01*
X100827548Y-96297155D01*
X100807090Y-96309066D01*
X100786061Y-96321558D01*
X100764462Y-96334631D01*
X100742292Y-96348285D01*
X100719552Y-96362521D01*
X100696241Y-96377337D01*
X100672359Y-96392734D01*
X100647907Y-96408713D01*
X100622885Y-96425272D01*
X100597292Y-96442412D01*
X100571128Y-96460134D01*
X100544394Y-96478436D01*
X100517766Y-96496838D01*
X100491922Y-96514916D01*
X100466861Y-96532673D01*
X100442583Y-96550106D01*
X100419088Y-96567218D01*
X100396377Y-96584007D01*
X100374449Y-96600473D01*
X100353305Y-96616617D01*
X100332943Y-96632438D01*
X100313365Y-96647937D01*
X100294570Y-96663114D01*
X100276559Y-96677967D01*
X100259331Y-96692499D01*
X100242886Y-96706708D01*
X100227224Y-96720595D01*
X100198251Y-96747400D01*
X100172411Y-96772916D01*
X100149704Y-96797142D01*
X100130130Y-96820078D01*
X100113690Y-96841724D01*
X100100382Y-96862080D01*
X100090208Y-96881146D01*
X100080821Y-96907327D01*
X100072790Y-96917191D01*
X100058717Y-96931476D01*
X100040697Y-96945060D01*
X100021440Y-96954763D01*
X100000946Y-96960585D01*
X99979216Y-96962526D01*
X99955705Y-96960629D01*
X99933411Y-96954941D01*
X99912333Y-96945460D01*
X99892472Y-96932186D01*
X99877459Y-96918837D01*
X99863224Y-96903060D01*
X99849767Y-96884856D01*
X99849767Y-96867271D01*
X99849834Y-96851223D01*
X99851647Y-96819376D01*
X99855699Y-96787861D01*
X99861992Y-96756678D01*
X99870526Y-96725827D01*
X99881299Y-96695308D01*
X99894313Y-96665121D01*
X99909566Y-96635266D01*
X99927060Y-96605744D01*
X99946794Y-96576553D01*
X99968769Y-96547694D01*
X99992983Y-96519167D01*
X100019438Y-96490972D01*
X100033505Y-96477000D01*
X100048132Y-96463110D01*
X100063320Y-96449303D01*
X100079067Y-96435579D01*
X100095375Y-96421938D01*
X100112242Y-96408380D01*
X100129670Y-96394905D01*
X100160336Y-96375120D01*
X100191028Y-96355330D01*
X100221747Y-96335537D01*
X100252493Y-96315740D01*
X100283266Y-96295939D01*
X100314065Y-96276135D01*
X100344892Y-96256326D01*
X100375744Y-96236514D01*
X100406624Y-96216698D01*
X100437530Y-96196878D01*
X100468463Y-96177054D01*
X100499423Y-96157226D01*
X100530409Y-96137395D01*
X100561422Y-96117560D01*
X100592462Y-96097721D01*
X100623529Y-96077878D01*
X100604236Y-96067773D01*
X100585312Y-96057730D01*
X100566760Y-96047749D01*
X100548577Y-96037830D01*
X100530764Y-96027973D01*
X100513322Y-96018178D01*
X100479548Y-95998774D01*
X100447254Y-95979618D01*
X100416441Y-95960710D01*
X100387109Y-95942050D01*
X100359258Y-95923639D01*
X100332887Y-95905475D01*
X100307998Y-95887559D01*
X100284588Y-95869892D01*
X100262660Y-95852472D01*
X100242212Y-95835301D01*
X100223245Y-95818378D01*
X100205759Y-95801702D01*
X100189754Y-95785275D01*
X100167690Y-95761065D01*
X100147049Y-95736060D01*
X100127832Y-95710262D01*
X100110039Y-95683670D01*
X100093669Y-95656284D01*
X100078722Y-95628105D01*
X100065199Y-95599132D01*
X100053100Y-95569364D01*
X100042424Y-95538804D01*
X100033171Y-95507449D01*
X100025342Y-95475300D01*
X100018936Y-95442358D01*
X100013954Y-95408622D01*
X100010395Y-95374092D01*
X100008260Y-95338769D01*
X100007548Y-95302651D01*
X100007894Y-95279014D01*
X100008168Y-95272854D01*
X100329460Y-95272854D01*
X100330130Y-95300356D01*
X100332139Y-95327419D01*
X100335488Y-95354043D01*
X100340177Y-95380229D01*
X100346204Y-95405976D01*
X100353572Y-95431283D01*
X100362279Y-95456152D01*
X100372325Y-95480582D01*
X100383711Y-95504573D01*
X100396436Y-95528126D01*
X100410501Y-95551239D01*
X100425906Y-95573913D01*
X100442650Y-95596149D01*
X100460733Y-95617946D01*
X100480156Y-95639304D01*
X100500919Y-95660223D01*
X100519626Y-95677949D01*
X100538990Y-95695104D01*
X100559011Y-95711686D01*
X100579687Y-95727695D01*
X100601020Y-95743132D01*
X100623010Y-95757996D01*
X100645656Y-95772288D01*
X100668958Y-95786008D01*
X100692917Y-95799155D01*
X100717532Y-95811730D01*
X100742803Y-95823732D01*
X100768731Y-95835162D01*
X100795315Y-95846019D01*
X100822556Y-95856304D01*
X100850453Y-95866016D01*
X100879007Y-95875157D01*
X100893780Y-95879521D01*
X100916895Y-95885842D01*
X100938126Y-95890970D01*
X100961115Y-95895550D01*
X100981391Y-95898412D01*
X101001617Y-95899581D01*
X101008326Y-95899306D01*
X101030374Y-95896215D01*
X101053440Y-95891269D01*
X101073905Y-95886117D01*
X101097083Y-95879728D01*
X101122975Y-95872103D01*
X101141743Y-95866333D01*
X101161718Y-95860013D01*
X101182898Y-95853144D01*
X101205285Y-95845725D01*
X101228877Y-95837757D01*
X101253675Y-95829239D01*
X101252766Y-95806967D01*
X101251809Y-95785033D01*
X101250805Y-95763435D01*
X101249752Y-95742174D01*
X101248652Y-95721250D01*
X101247504Y-95700662D01*
X101246309Y-95680411D01*
X101245066Y-95660498D01*
X101242436Y-95621680D01*
X101239616Y-95584210D01*
X101236605Y-95548087D01*
X101233403Y-95513311D01*
X101230011Y-95479882D01*
X101226427Y-95447800D01*
X101222653Y-95417066D01*
X101218688Y-95387678D01*
X101214532Y-95359638D01*
X101210185Y-95332945D01*
X101205647Y-95307599D01*
X101200919Y-95283600D01*
X101192473Y-95245603D01*
X101184600Y-95209038D01*
X101177300Y-95173903D01*
X101170572Y-95140199D01*
X101164416Y-95107927D01*
X101158833Y-95077085D01*
X101153822Y-95047675D01*
X101149384Y-95019696D01*
X101145518Y-94993148D01*
X101142224Y-94968031D01*
X101139503Y-94944345D01*
X101137355Y-94922090D01*
X101135779Y-94901267D01*
X101134488Y-94872715D01*
X101134485Y-94847383D01*
X101119987Y-94846081D01*
X101099513Y-94844287D01*
X101074593Y-94842188D01*
X101052390Y-94840425D01*
X101028457Y-94838693D01*
X101005341Y-94837308D01*
X100984031Y-94836636D01*
X100953627Y-94837008D01*
X100923719Y-94838124D01*
X100894306Y-94839985D01*
X100865390Y-94842589D01*
X100836970Y-94845938D01*
X100809047Y-94850031D01*
X100781619Y-94854868D01*
X100754687Y-94860450D01*
X100728252Y-94866775D01*
X100702312Y-94873845D01*
X100676869Y-94881659D01*
X100651922Y-94890217D01*
X100627471Y-94899519D01*
X100603516Y-94909565D01*
X100580057Y-94920356D01*
X100557095Y-94931891D01*
X100529530Y-94946789D01*
X100503743Y-94962543D01*
X100479735Y-94979152D01*
X100457505Y-94996615D01*
X100437053Y-95014933D01*
X100418380Y-95034106D01*
X100401485Y-95054134D01*
X100386369Y-95075017D01*
X100373031Y-95096755D01*
X100361471Y-95119347D01*
X100351690Y-95142794D01*
X100343688Y-95167096D01*
X100337463Y-95192254D01*
X100333017Y-95218265D01*
X100330350Y-95245132D01*
X100329460Y-95272854D01*
X100008168Y-95272854D01*
X100008930Y-95255728D01*
X100010657Y-95232794D01*
X100013074Y-95210213D01*
X100016183Y-95187984D01*
X100019982Y-95166106D01*
X100024472Y-95144581D01*
X100029652Y-95123408D01*
X100035524Y-95102586D01*
X100042086Y-95082117D01*
X100049339Y-95062000D01*
X100057282Y-95042235D01*
X100065917Y-95022822D01*
X100075242Y-95003761D01*
X100085258Y-94985052D01*
X100095964Y-94966695D01*
X100107362Y-94948690D01*
X100119450Y-94931038D01*
X100132229Y-94913737D01*
X100145698Y-94896788D01*
X100159859Y-94880192D01*
X100174710Y-94863947D01*
X100190252Y-94848055D01*
X100206484Y-94832514D01*
X100223408Y-94817326D01*
X100241022Y-94802490D01*
X100259326Y-94788005D01*
X100278322Y-94773873D01*
X100298008Y-94760093D01*
X100318386Y-94746665D01*
X100339453Y-94733589D01*
X100361212Y-94720865D01*
X100379253Y-94710677D01*
X100397534Y-94700812D01*
X100416054Y-94691271D01*
X100434813Y-94682053D01*
X100453812Y-94673159D01*
X100473050Y-94664588D01*
X100492528Y-94656340D01*
X100512246Y-94648416D01*
X100532202Y-94640816D01*
X100552399Y-94633538D01*
X100572835Y-94626585D01*
X100593510Y-94619954D01*
X100614425Y-94613647D01*
X100635579Y-94607664D01*
X100656972Y-94602004D01*
X100678606Y-94596667D01*
X100700478Y-94591654D01*
X100722590Y-94586964D01*
X100744942Y-94582598D01*
X100767533Y-94578555D01*
X100790363Y-94574836D01*
X100813433Y-94571440D01*
X100836743Y-94568367D01*
X100860292Y-94565618D01*
X100884080Y-94563192D01*
X100908108Y-94561090D01*
X100932375Y-94559311D01*
X100956882Y-94557856D01*
X100981628Y-94556724D01*
X101006614Y-94555915D01*
X101031839Y-94555430D01*
X101057304Y-94555268D01*
X101062684Y-94555246D01*
X101087020Y-94554478D01*
X101110587Y-94552108D01*
X101130312Y-94547346D01*
X101144743Y-94532798D01*
X101144805Y-94528410D01*
X101146958Y-94508561D01*
X101153604Y-94489338D01*
X101166958Y-94473249D01*
X101186343Y-94463986D01*
X101207758Y-94461479D01*
X101228885Y-94461792D01*
G37*
G36*
X99006485Y-95399871D02*
G01*
X99030317Y-95401371D01*
X99053715Y-95403871D01*
X99076678Y-95407370D01*
X99099205Y-95411870D01*
X99121298Y-95417369D01*
X99142955Y-95423868D01*
X99164178Y-95431367D01*
X99184965Y-95439866D01*
X99205317Y-95449365D01*
X99225235Y-95459864D01*
X99244717Y-95471362D01*
X99263764Y-95483860D01*
X99282376Y-95497359D01*
X99300553Y-95511857D01*
X99318295Y-95527355D01*
X99335213Y-95543629D01*
X99351039Y-95560457D01*
X99365774Y-95577839D01*
X99379417Y-95595773D01*
X99391969Y-95614261D01*
X99403429Y-95633303D01*
X99413798Y-95652897D01*
X99423075Y-95673046D01*
X99431261Y-95693747D01*
X99438356Y-95715002D01*
X99444359Y-95736810D01*
X99449270Y-95759172D01*
X99453090Y-95782087D01*
X99455819Y-95805555D01*
X99457456Y-95829577D01*
X99458002Y-95854152D01*
X99457939Y-95857932D01*
X99454916Y-95880395D01*
X99447360Y-95902480D01*
X99437600Y-95920595D01*
X99424691Y-95938448D01*
X99408634Y-95956039D01*
X99393522Y-95969923D01*
X99385422Y-95976548D01*
X99369348Y-95988516D01*
X99349491Y-96001071D01*
X99329897Y-96010956D01*
X99310565Y-96018168D01*
X99291495Y-96022710D01*
X99268958Y-96024633D01*
X99246060Y-96023275D01*
X99226215Y-96019199D01*
X99205703Y-96010283D01*
X99189961Y-95997121D01*
X99178989Y-95979714D01*
X99172787Y-95958062D01*
X99171261Y-95937683D01*
X99170181Y-95906568D01*
X99166941Y-95877462D01*
X99161541Y-95850362D01*
X99153981Y-95825270D01*
X99144261Y-95802185D01*
X99132380Y-95781108D01*
X99118340Y-95762038D01*
X99102140Y-95744975D01*
X99083780Y-95729920D01*
X99063260Y-95716872D01*
X99040579Y-95705831D01*
X99015739Y-95696798D01*
X98988739Y-95689772D01*
X98959579Y-95684754D01*
X98928258Y-95681743D01*
X98894778Y-95680739D01*
X98868054Y-95682229D01*
X98843082Y-95686700D01*
X98819862Y-95694152D01*
X98798394Y-95704583D01*
X98778677Y-95717996D01*
X98760712Y-95734389D01*
X98744498Y-95753762D01*
X98730036Y-95776116D01*
X98717326Y-95801451D01*
X98706367Y-95829766D01*
X98697161Y-95861061D01*
X98689706Y-95895337D01*
X98684002Y-95932594D01*
X98681807Y-95952340D01*
X98680050Y-95972831D01*
X98678731Y-95994067D01*
X98677850Y-96016048D01*
X98677407Y-96038775D01*
X98677402Y-96062247D01*
X98677402Y-96149685D01*
X98974890Y-96149685D01*
X98997331Y-96150197D01*
X99019960Y-96151731D01*
X99042776Y-96154288D01*
X99065778Y-96157868D01*
X99088968Y-96162470D01*
X99112345Y-96168095D01*
X99135909Y-96174743D01*
X99159659Y-96182414D01*
X99183597Y-96191108D01*
X99207722Y-96200824D01*
X99232033Y-96211563D01*
X99256532Y-96223325D01*
X99281218Y-96236109D01*
X99306091Y-96249917D01*
X99331150Y-96264747D01*
X99356397Y-96280600D01*
X99383548Y-96298758D01*
X99408947Y-96317083D01*
X99432595Y-96335577D01*
X99454491Y-96354239D01*
X99474635Y-96373068D01*
X99493028Y-96392066D01*
X99509669Y-96411231D01*
X99524558Y-96430565D01*
X99537696Y-96450066D01*
X99549082Y-96469735D01*
X99558716Y-96489572D01*
X99566598Y-96509577D01*
X99572729Y-96529750D01*
X99577108Y-96550091D01*
X99579736Y-96570600D01*
X99580612Y-96591277D01*
X99579847Y-96612289D01*
X99577551Y-96632828D01*
X99573725Y-96652894D01*
X99568369Y-96672487D01*
X99561483Y-96691607D01*
X99553066Y-96710253D01*
X99543119Y-96728427D01*
X99531641Y-96746127D01*
X99518633Y-96763353D01*
X99504095Y-96780107D01*
X99488027Y-96796387D01*
X99470428Y-96812194D01*
X99451299Y-96827528D01*
X99430639Y-96842389D01*
X99408449Y-96856776D01*
X99384729Y-96870690D01*
X99364085Y-96881811D01*
X99343307Y-96892214D01*
X99322396Y-96901900D01*
X99301351Y-96910868D01*
X99280172Y-96919119D01*
X99258860Y-96926653D01*
X99237414Y-96933468D01*
X99215835Y-96939567D01*
X99194122Y-96944948D01*
X99172276Y-96949611D01*
X99150296Y-96953557D01*
X99128183Y-96956786D01*
X99105935Y-96959297D01*
X99083555Y-96961091D01*
X99061041Y-96962167D01*
X99038393Y-96962526D01*
X99014816Y-96962104D01*
X98991345Y-96960839D01*
X98967982Y-96958730D01*
X98944726Y-96955778D01*
X98921576Y-96951983D01*
X98898533Y-96947344D01*
X98875597Y-96941862D01*
X98852768Y-96935537D01*
X98830046Y-96928368D01*
X98807431Y-96920356D01*
X98784922Y-96911500D01*
X98762520Y-96901801D01*
X98740226Y-96891258D01*
X98718038Y-96879872D01*
X98695957Y-96867643D01*
X98673982Y-96854570D01*
X98675761Y-96879000D01*
X98675845Y-96901854D01*
X98674234Y-96923132D01*
X98670929Y-96942834D01*
X98662795Y-96969431D01*
X98650848Y-96992482D01*
X98635089Y-97011986D01*
X98615517Y-97027945D01*
X98592132Y-97040357D01*
X98564936Y-97049222D01*
X98544686Y-97053163D01*
X98522743Y-97055527D01*
X98499105Y-97056315D01*
X98475816Y-97055349D01*
X98454494Y-97052451D01*
X98435138Y-97047621D01*
X98412389Y-97038176D01*
X98393136Y-97025296D01*
X98377379Y-97008981D01*
X98365117Y-96989232D01*
X98356351Y-96966048D01*
X98352070Y-96946406D01*
X98350357Y-96934419D01*
X98347094Y-96908869D01*
X98344049Y-96881216D01*
X98341221Y-96851461D01*
X98338611Y-96819602D01*
X98336218Y-96785641D01*
X98334043Y-96749577D01*
X98332085Y-96711410D01*
X98331188Y-96691538D01*
X98330345Y-96671141D01*
X98329556Y-96650217D01*
X98328822Y-96628768D01*
X98328142Y-96606794D01*
X98327517Y-96584293D01*
X98326946Y-96561267D01*
X98326429Y-96537715D01*
X98325967Y-96513638D01*
X98325559Y-96489035D01*
X98325206Y-96463906D01*
X98324906Y-96438251D01*
X98324898Y-96437404D01*
X98677402Y-96437404D01*
X98678509Y-96457066D01*
X98683433Y-96482333D01*
X98692294Y-96506517D01*
X98701525Y-96523944D01*
X98712971Y-96540761D01*
X98726632Y-96556968D01*
X98742509Y-96572566D01*
X98760601Y-96587554D01*
X98780908Y-96601932D01*
X98803431Y-96615701D01*
X98816615Y-96623627D01*
X98836597Y-96634558D01*
X98856829Y-96644338D01*
X98877309Y-96652968D01*
X98898039Y-96660447D01*
X98919018Y-96666775D01*
X98940245Y-96671953D01*
X98961722Y-96675980D01*
X98983448Y-96678857D01*
X99005422Y-96680583D01*
X99027646Y-96681158D01*
X99039487Y-96681051D01*
X99062041Y-96680192D01*
X99083092Y-96678475D01*
X99111849Y-96674289D01*
X99137222Y-96668171D01*
X99159213Y-96660121D01*
X99177820Y-96650139D01*
X99197367Y-96633824D01*
X99210900Y-96614075D01*
X99218418Y-96590891D01*
X99220109Y-96571249D01*
X99218400Y-96546700D01*
X99213271Y-96523736D01*
X99204722Y-96502355D01*
X99192754Y-96482558D01*
X99177367Y-96464345D01*
X99158560Y-96447715D01*
X99136334Y-96432669D01*
X99110689Y-96419207D01*
X99081624Y-96407329D01*
X99049139Y-96397035D01*
X99013236Y-96388324D01*
X98994002Y-96384563D01*
X98973913Y-96381197D01*
X98952969Y-96378228D01*
X98931170Y-96375654D01*
X98908517Y-96373476D01*
X98885008Y-96371695D01*
X98860645Y-96370309D01*
X98835427Y-96369319D01*
X98809354Y-96368725D01*
X98782426Y-96368527D01*
X98769708Y-96368796D01*
X98746734Y-96370949D01*
X98727042Y-96375253D01*
X98707042Y-96383661D01*
X98689812Y-96398190D01*
X98679966Y-96417561D01*
X98677402Y-96437404D01*
X98324898Y-96437404D01*
X98324662Y-96412071D01*
X98324471Y-96385365D01*
X98324335Y-96358133D01*
X98324254Y-96330376D01*
X98324227Y-96302093D01*
X98324869Y-96246554D01*
X98326797Y-96192779D01*
X98330010Y-96140767D01*
X98334508Y-96090518D01*
X98340291Y-96042032D01*
X98347359Y-95995309D01*
X98355713Y-95950349D01*
X98365351Y-95907152D01*
X98376275Y-95865719D01*
X98388484Y-95826048D01*
X98401977Y-95788141D01*
X98416757Y-95751997D01*
X98432821Y-95717616D01*
X98450170Y-95684998D01*
X98468805Y-95654143D01*
X98488724Y-95625052D01*
X98509929Y-95597723D01*
X98532419Y-95572158D01*
X98556194Y-95548356D01*
X98581254Y-95526317D01*
X98607599Y-95506041D01*
X98635230Y-95487528D01*
X98664145Y-95470778D01*
X98694346Y-95455792D01*
X98725832Y-95442568D01*
X98758603Y-95431108D01*
X98792659Y-95421411D01*
X98828000Y-95413476D01*
X98864627Y-95407306D01*
X98902538Y-95402898D01*
X98941735Y-95400253D01*
X98982217Y-95399371D01*
X99006485Y-95399871D01*
G37*
G36*
X97625204Y-95061828D02*
G01*
X97626492Y-95086006D01*
X97630356Y-95108778D01*
X97636796Y-95130142D01*
X97645812Y-95150099D01*
X97657404Y-95168648D01*
X97671572Y-95185791D01*
X97677960Y-95192254D01*
X97694890Y-95206889D01*
X97713013Y-95219044D01*
X97732328Y-95228718D01*
X97752836Y-95235912D01*
X97774536Y-95240625D01*
X97797429Y-95242858D01*
X97806920Y-95243056D01*
X97829559Y-95242041D01*
X97851800Y-95238995D01*
X97873644Y-95233920D01*
X97895092Y-95226814D01*
X97916143Y-95217678D01*
X97936796Y-95206511D01*
X97957053Y-95193314D01*
X97976913Y-95178087D01*
X97995346Y-95161265D01*
X98011321Y-95143527D01*
X98024838Y-95124873D01*
X98035898Y-95105303D01*
X98044500Y-95084817D01*
X98050644Y-95063415D01*
X98054331Y-95041098D01*
X98055560Y-95017864D01*
X98054236Y-94993686D01*
X98050264Y-94970914D01*
X98043646Y-94949550D01*
X98034379Y-94929593D01*
X98022465Y-94911044D01*
X98007904Y-94893901D01*
X98001338Y-94887438D01*
X97983749Y-94872803D01*
X97964873Y-94860648D01*
X97944709Y-94850974D01*
X97923256Y-94843780D01*
X97900516Y-94839067D01*
X97876488Y-94836834D01*
X97866516Y-94836636D01*
X97843274Y-94837628D01*
X97820689Y-94840605D01*
X97798761Y-94845566D01*
X97777489Y-94852512D01*
X97756873Y-94861442D01*
X97736914Y-94872356D01*
X97717611Y-94885256D01*
X97698965Y-94900139D01*
X97681677Y-94916557D01*
X97666694Y-94934058D01*
X97654017Y-94952644D01*
X97643644Y-94972313D01*
X97635576Y-94993066D01*
X97629814Y-95014903D01*
X97626356Y-95037823D01*
X97625204Y-95061828D01*
G37*
G36*
X97656467Y-95547871D02*
G01*
X97657158Y-95569156D01*
X97659234Y-95593018D01*
X97661890Y-95613962D01*
X97665431Y-95636554D01*
X97669858Y-95660795D01*
X97673759Y-95680058D01*
X97678159Y-95700248D01*
X97683056Y-95721366D01*
X97684799Y-95728611D01*
X97689775Y-95750033D01*
X97694261Y-95770519D01*
X97698258Y-95790070D01*
X97702827Y-95814681D01*
X97706525Y-95837629D01*
X97709352Y-95858912D01*
X97711310Y-95878532D01*
X97712534Y-95900716D01*
X97712643Y-95908862D01*
X97712643Y-96637683D01*
X97711700Y-96660504D01*
X97709590Y-96681509D01*
X97706274Y-96704956D01*
X97701751Y-96730846D01*
X97697568Y-96751866D01*
X97692707Y-96774260D01*
X97687167Y-96798028D01*
X97680949Y-96823170D01*
X97674052Y-96849685D01*
X97687287Y-96868805D01*
X97700858Y-96885375D01*
X97714764Y-96899397D01*
X97732620Y-96913338D01*
X97751000Y-96923296D01*
X97769905Y-96929271D01*
X97789335Y-96931263D01*
X97816154Y-96930392D01*
X97841412Y-96927782D01*
X97865109Y-96923432D01*
X97887246Y-96917341D01*
X97907821Y-96909510D01*
X97926836Y-96899938D01*
X97944290Y-96888627D01*
X97960183Y-96875575D01*
X97974515Y-96860783D01*
X97987286Y-96844251D01*
X97998496Y-96825979D01*
X98008146Y-96805966D01*
X98016235Y-96784213D01*
X98022762Y-96760720D01*
X98027729Y-96735487D01*
X98031135Y-96708513D01*
X98033299Y-96682824D01*
X98035394Y-96657537D01*
X98037421Y-96632651D01*
X98039378Y-96608167D01*
X98041267Y-96584085D01*
X98043088Y-96560405D01*
X98044840Y-96537126D01*
X98046523Y-96514248D01*
X98048137Y-96491773D01*
X98049682Y-96469699D01*
X98051159Y-96448027D01*
X98052568Y-96426756D01*
X98053907Y-96405887D01*
X98055178Y-96385420D01*
X98056380Y-96365354D01*
X98057513Y-96345690D01*
X98059574Y-96307567D01*
X98061360Y-96271051D01*
X98062872Y-96236142D01*
X98064108Y-96202839D01*
X98065070Y-96171143D01*
X98065757Y-96141053D01*
X98066169Y-96112570D01*
X98066306Y-96085694D01*
X98066279Y-96063914D01*
X98066196Y-96042356D01*
X98066057Y-96021019D01*
X98065864Y-95999904D01*
X98065614Y-95979009D01*
X98065310Y-95958336D01*
X98064950Y-95937885D01*
X98064535Y-95917655D01*
X98064065Y-95897646D01*
X98063539Y-95877858D01*
X98062958Y-95858292D01*
X98061630Y-95819824D01*
X98060081Y-95782241D01*
X98058310Y-95745544D01*
X98056318Y-95709732D01*
X98054105Y-95674805D01*
X98051670Y-95640764D01*
X98049014Y-95607608D01*
X98046136Y-95575337D01*
X98043037Y-95543952D01*
X98039717Y-95513452D01*
X98037974Y-95498534D01*
X98040739Y-95478596D01*
X98041393Y-95462875D01*
X98037942Y-95441293D01*
X98027586Y-95424177D01*
X98010327Y-95411526D01*
X97990671Y-95404395D01*
X97966220Y-95400364D01*
X97943208Y-95399371D01*
X97921348Y-95399921D01*
X97899488Y-95401570D01*
X97877629Y-95404317D01*
X97855769Y-95408164D01*
X97833909Y-95413110D01*
X97812049Y-95419155D01*
X97790190Y-95426299D01*
X97768330Y-95434542D01*
X97748339Y-95442179D01*
X97730314Y-95450433D01*
X97709340Y-95462401D01*
X97691861Y-95475468D01*
X97677878Y-95489634D01*
X97665315Y-95508888D01*
X97658215Y-95529858D01*
X97656467Y-95547871D01*
G37*
G36*
X96211038Y-96880460D02*
G01*
X96224494Y-96899694D01*
X96238729Y-96916364D01*
X96253742Y-96930469D01*
X96269534Y-96942009D01*
X96290368Y-96952828D01*
X96312419Y-96959641D01*
X96335687Y-96962446D01*
X96340486Y-96962526D01*
X96360982Y-96960999D01*
X96385223Y-96956420D01*
X96407311Y-96950558D01*
X96431797Y-96942742D01*
X96451734Y-96935598D01*
X96473019Y-96927355D01*
X96495652Y-96918012D01*
X96519633Y-96907571D01*
X96536369Y-96900000D01*
X96536369Y-96857501D01*
X96536293Y-96836924D01*
X96536064Y-96814026D01*
X96535682Y-96788808D01*
X96535296Y-96768372D01*
X96534823Y-96746630D01*
X96534265Y-96723584D01*
X96533621Y-96699232D01*
X96532891Y-96673575D01*
X96532076Y-96646613D01*
X96531484Y-96627913D01*
X96530524Y-96600145D01*
X96529658Y-96573811D01*
X96528887Y-96548911D01*
X96528210Y-96525445D01*
X96527627Y-96503414D01*
X96527139Y-96482816D01*
X96526636Y-96457582D01*
X96526300Y-96434898D01*
X96526132Y-96414763D01*
X96526111Y-96405652D01*
X96526330Y-96359129D01*
X96526987Y-96314084D01*
X96528081Y-96270515D01*
X96529614Y-96228423D01*
X96531585Y-96187808D01*
X96533993Y-96148670D01*
X96536840Y-96111009D01*
X96540124Y-96074825D01*
X96543847Y-96040118D01*
X96548007Y-96006887D01*
X96552605Y-95975134D01*
X96557641Y-95944857D01*
X96563115Y-95916058D01*
X96569027Y-95888735D01*
X96575377Y-95862889D01*
X96582165Y-95838520D01*
X96589390Y-95815628D01*
X96597054Y-95794213D01*
X96605155Y-95774275D01*
X96613695Y-95755813D01*
X96632087Y-95723321D01*
X96652232Y-95696737D01*
X96674128Y-95676060D01*
X96697775Y-95661291D01*
X96723175Y-95652430D01*
X96750326Y-95649476D01*
X96770435Y-95651921D01*
X96791380Y-95659255D01*
X96808736Y-95668643D01*
X96826627Y-95681161D01*
X96845052Y-95696808D01*
X96859221Y-95710596D01*
X96873691Y-95726145D01*
X96888462Y-95743455D01*
X96893452Y-95749616D01*
X96908749Y-95768911D01*
X96923561Y-95788450D01*
X96937887Y-95808234D01*
X96951727Y-95828262D01*
X96965082Y-95848534D01*
X96977951Y-95869050D01*
X96990334Y-95889811D01*
X97002232Y-95910816D01*
X97013644Y-95932065D01*
X97024570Y-95953558D01*
X97035011Y-95975296D01*
X97044967Y-95997278D01*
X97054436Y-96019504D01*
X97063420Y-96041974D01*
X97071919Y-96064689D01*
X97079931Y-96087648D01*
X97087459Y-96110851D01*
X97094500Y-96134298D01*
X97101056Y-96157990D01*
X97107126Y-96181926D01*
X97112711Y-96206106D01*
X97117810Y-96230530D01*
X97122424Y-96255198D01*
X97126551Y-96280111D01*
X97130193Y-96305268D01*
X97133350Y-96330669D01*
X97136021Y-96356315D01*
X97138206Y-96382205D01*
X97139906Y-96408339D01*
X97141120Y-96434717D01*
X97141848Y-96461339D01*
X97142091Y-96488206D01*
X97141543Y-96508578D01*
X97139897Y-96531836D01*
X97137790Y-96552520D01*
X97134982Y-96575052D01*
X97131471Y-96599430D01*
X97128376Y-96618926D01*
X97124887Y-96639461D01*
X97121003Y-96661035D01*
X97119621Y-96668457D01*
X97115518Y-96690290D01*
X97111819Y-96711093D01*
X97108523Y-96730865D01*
X97104756Y-96755625D01*
X97101707Y-96778554D01*
X97099375Y-96799650D01*
X97097469Y-96823445D01*
X97096685Y-96844377D01*
X97096662Y-96848220D01*
X97098836Y-96869344D01*
X97105358Y-96888692D01*
X97116227Y-96906263D01*
X97131444Y-96922058D01*
X97142091Y-96930286D01*
X97159368Y-96941242D01*
X97177125Y-96949932D01*
X97198449Y-96957205D01*
X97220428Y-96961392D01*
X97239788Y-96962526D01*
X97265224Y-96961465D01*
X97289019Y-96958282D01*
X97311172Y-96952977D01*
X97331685Y-96945551D01*
X97350556Y-96936002D01*
X97367787Y-96924332D01*
X97383376Y-96910540D01*
X97397325Y-96894626D01*
X97409633Y-96876590D01*
X97420299Y-96856433D01*
X97429325Y-96834153D01*
X97436709Y-96809752D01*
X97442453Y-96783229D01*
X97446555Y-96754583D01*
X97449017Y-96723816D01*
X97449837Y-96690928D01*
X97449837Y-95943545D01*
X97449169Y-95923213D01*
X97447673Y-95903170D01*
X97445663Y-95882877D01*
X97443419Y-95863437D01*
X97442998Y-95860013D01*
X97440674Y-95840075D01*
X97438571Y-95819202D01*
X97436968Y-95798494D01*
X97436166Y-95777333D01*
X97436160Y-95775505D01*
X97436744Y-95754829D01*
X97438175Y-95734129D01*
X97440465Y-95710682D01*
X97443029Y-95689043D01*
X97446189Y-95665497D01*
X97448372Y-95650453D01*
X97451234Y-95630601D01*
X97454275Y-95607653D01*
X97456720Y-95586780D01*
X97458867Y-95564472D01*
X97460286Y-95542223D01*
X97460584Y-95528820D01*
X97458317Y-95507577D01*
X97451516Y-95486711D01*
X97440182Y-95466223D01*
X97427273Y-95449439D01*
X97411216Y-95432917D01*
X97396104Y-95419888D01*
X97380052Y-95407752D01*
X97360525Y-95394858D01*
X97341594Y-95384492D01*
X97323259Y-95376654D01*
X97302044Y-95370586D01*
X97281688Y-95368159D01*
X97278379Y-95368108D01*
X97254317Y-95370303D01*
X97234930Y-95375218D01*
X97215421Y-95382942D01*
X97195790Y-95393475D01*
X97176037Y-95406817D01*
X97156162Y-95422968D01*
X97141175Y-95436924D01*
X97126120Y-95452460D01*
X97121086Y-95457990D01*
X97131345Y-95601605D01*
X97114931Y-95573330D01*
X97098051Y-95546879D01*
X97080706Y-95522252D01*
X97062896Y-95499450D01*
X97044619Y-95478472D01*
X97025877Y-95459318D01*
X97006670Y-95441988D01*
X96986997Y-95426482D01*
X96966858Y-95412801D01*
X96946254Y-95400944D01*
X96925185Y-95390911D01*
X96903649Y-95382702D01*
X96881648Y-95376317D01*
X96859182Y-95371757D01*
X96836250Y-95369020D01*
X96812852Y-95368108D01*
X96789742Y-95368864D01*
X96766392Y-95371131D01*
X96742802Y-95374909D01*
X96718971Y-95380198D01*
X96694900Y-95386999D01*
X96670588Y-95395311D01*
X96646036Y-95405134D01*
X96621243Y-95416468D01*
X96596210Y-95429314D01*
X96570937Y-95443671D01*
X96553954Y-95454082D01*
X96537205Y-95464853D01*
X96513154Y-95481333D01*
X96490390Y-95498198D01*
X96468915Y-95515450D01*
X96448728Y-95533089D01*
X96429829Y-95551114D01*
X96412217Y-95569525D01*
X96395894Y-95588322D01*
X96380859Y-95607506D01*
X96367112Y-95627077D01*
X96354652Y-95647034D01*
X96337261Y-95681655D01*
X96328987Y-95699470D01*
X96320993Y-95717620D01*
X96313279Y-95736106D01*
X96305846Y-95754928D01*
X96298693Y-95774086D01*
X96291821Y-95793579D01*
X96285229Y-95813409D01*
X96278918Y-95833574D01*
X96272887Y-95854075D01*
X96267137Y-95874912D01*
X96261667Y-95896085D01*
X96256478Y-95917594D01*
X96251569Y-95939438D01*
X96246941Y-95961618D01*
X96242594Y-95984135D01*
X96238526Y-96006987D01*
X96234740Y-96030174D01*
X96231233Y-96053698D01*
X96228008Y-96077558D01*
X96225062Y-96101753D01*
X96222398Y-96126284D01*
X96220013Y-96151151D01*
X96217910Y-96176354D01*
X96216086Y-96201892D01*
X96214544Y-96227767D01*
X96213282Y-96253977D01*
X96212300Y-96280523D01*
X96211599Y-96307405D01*
X96211178Y-96334623D01*
X96211038Y-96362177D01*
X96211038Y-96880460D01*
G37*
G36*
X95702186Y-94431525D02*
G01*
X95721575Y-94437055D01*
X95726378Y-94436299D01*
X95749779Y-94435480D01*
X95772155Y-94439600D01*
X95793504Y-94448656D01*
X95809846Y-94459456D01*
X95825531Y-94473416D01*
X95840559Y-94490536D01*
X95854931Y-94510816D01*
X95907199Y-96489672D01*
X95907199Y-96503838D01*
X95906925Y-96526735D01*
X95906100Y-96551709D01*
X95905121Y-96571802D01*
X95903833Y-96593063D01*
X95902236Y-96615491D01*
X95900330Y-96639087D01*
X95898115Y-96663851D01*
X95895590Y-96689783D01*
X95892757Y-96716882D01*
X95889614Y-96745150D01*
X95888505Y-96756601D01*
X95886227Y-96778602D01*
X95883868Y-96799401D01*
X95880180Y-96828345D01*
X95876312Y-96854584D01*
X95872263Y-96878119D01*
X95868034Y-96898949D01*
X95862115Y-96922514D01*
X95854266Y-96945209D01*
X95844185Y-96962526D01*
X95828744Y-96977180D01*
X95812219Y-96989881D01*
X95794611Y-97000628D01*
X95775919Y-97009420D01*
X95756143Y-97016259D01*
X95735283Y-97021144D01*
X95713339Y-97024075D01*
X95690312Y-97025052D01*
X95667178Y-97024000D01*
X95646319Y-97020844D01*
X95622048Y-97013364D01*
X95601821Y-97002145D01*
X95585640Y-96987185D01*
X95573505Y-96968485D01*
X95565414Y-96946045D01*
X95562001Y-96926761D01*
X95560863Y-96905373D01*
X95560947Y-96898420D01*
X95562069Y-96878064D01*
X95564282Y-96857990D01*
X95552142Y-96862498D01*
X95528473Y-96871084D01*
X95505621Y-96879099D01*
X95483586Y-96886540D01*
X95462367Y-96893410D01*
X95441965Y-96899707D01*
X95422380Y-96905431D01*
X95394534Y-96912944D01*
X95368525Y-96919170D01*
X95344353Y-96924107D01*
X95322019Y-96927756D01*
X95301523Y-96930118D01*
X95277053Y-96931263D01*
X95259485Y-96930983D01*
X95225188Y-96928747D01*
X95192009Y-96924274D01*
X95159948Y-96917565D01*
X95129006Y-96908620D01*
X95099182Y-96897438D01*
X95070475Y-96884020D01*
X95042887Y-96868365D01*
X95016418Y-96850474D01*
X94991066Y-96830347D01*
X94966833Y-96807984D01*
X94943717Y-96783384D01*
X94921720Y-96756548D01*
X94900841Y-96727475D01*
X94881080Y-96696166D01*
X94862438Y-96662621D01*
X94853536Y-96645010D01*
X94840404Y-96616794D01*
X94828119Y-96587834D01*
X94816682Y-96558130D01*
X94806092Y-96527682D01*
X94796349Y-96496489D01*
X94787453Y-96464553D01*
X94779404Y-96431872D01*
X94772203Y-96398447D01*
X94765849Y-96364278D01*
X94760342Y-96329364D01*
X94755682Y-96293707D01*
X94751870Y-96257305D01*
X94748904Y-96220159D01*
X94746786Y-96182269D01*
X94745516Y-96143635D01*
X94745198Y-96124039D01*
X94745092Y-96104256D01*
X94745119Y-96091757D01*
X94745337Y-96067233D01*
X94745481Y-96059316D01*
X95070912Y-96059316D01*
X95071161Y-96095650D01*
X95071910Y-96130831D01*
X95073157Y-96164859D01*
X95074904Y-96197733D01*
X95077149Y-96229453D01*
X95079894Y-96260020D01*
X95083137Y-96289434D01*
X95086879Y-96317694D01*
X95091121Y-96344801D01*
X95095861Y-96370754D01*
X95101100Y-96395554D01*
X95106839Y-96419200D01*
X95113076Y-96441693D01*
X95119812Y-96463032D01*
X95127047Y-96483218D01*
X95134781Y-96502250D01*
X95151747Y-96536854D01*
X95170708Y-96566845D01*
X95191665Y-96592221D01*
X95214618Y-96612984D01*
X95239567Y-96629132D01*
X95266512Y-96640667D01*
X95295453Y-96647588D01*
X95326390Y-96649895D01*
X95358569Y-96648185D01*
X95388672Y-96643056D01*
X95416699Y-96634508D01*
X95442650Y-96622540D01*
X95466524Y-96607152D01*
X95488323Y-96588346D01*
X95508046Y-96566120D01*
X95525692Y-96540474D01*
X95541263Y-96511409D01*
X95554757Y-96478925D01*
X95566175Y-96443021D01*
X95571106Y-96423787D01*
X95575518Y-96403698D01*
X95579410Y-96382754D01*
X95582784Y-96360956D01*
X95585638Y-96338302D01*
X95587974Y-96314794D01*
X95589791Y-96290430D01*
X95591088Y-96265212D01*
X95591867Y-96239139D01*
X95592126Y-96212212D01*
X95591867Y-96186663D01*
X95591088Y-96161310D01*
X95589791Y-96136151D01*
X95587974Y-96111187D01*
X95585638Y-96086417D01*
X95582784Y-96061842D01*
X95579410Y-96037462D01*
X95575518Y-96013276D01*
X95571106Y-95989285D01*
X95566175Y-95965488D01*
X95560726Y-95941886D01*
X95554757Y-95918479D01*
X95548269Y-95895266D01*
X95541263Y-95872248D01*
X95533737Y-95849425D01*
X95525692Y-95826796D01*
X95514447Y-95797753D01*
X95502573Y-95770582D01*
X95490069Y-95745286D01*
X95476935Y-95721864D01*
X95463172Y-95700315D01*
X95448779Y-95680640D01*
X95433756Y-95662839D01*
X95418103Y-95646912D01*
X95401821Y-95632858D01*
X95384909Y-95620678D01*
X95367367Y-95610372D01*
X95349196Y-95601940D01*
X95330395Y-95595382D01*
X95310964Y-95590698D01*
X95290904Y-95587887D01*
X95270214Y-95586950D01*
X95257952Y-95587411D01*
X95234597Y-95591102D01*
X95212798Y-95598482D01*
X95192556Y-95609553D01*
X95173872Y-95624315D01*
X95156744Y-95642767D01*
X95141174Y-95664909D01*
X95127160Y-95690741D01*
X95114704Y-95720264D01*
X95103805Y-95753477D01*
X95094462Y-95790381D01*
X95090375Y-95810217D01*
X95086677Y-95830975D01*
X95083368Y-95852656D01*
X95080449Y-95875259D01*
X95077919Y-95898785D01*
X95075778Y-95923234D01*
X95074026Y-95948605D01*
X95072664Y-95974899D01*
X95071690Y-96002115D01*
X95071107Y-96030254D01*
X95070912Y-96059316D01*
X94745481Y-96059316D01*
X94745772Y-96043343D01*
X94746424Y-96020087D01*
X94747294Y-95997464D01*
X94748382Y-95975474D01*
X94749687Y-95954119D01*
X94751210Y-95933396D01*
X94752950Y-95913307D01*
X94755968Y-95884361D01*
X94759476Y-95856841D01*
X94763473Y-95830746D01*
X94767960Y-95806077D01*
X94772936Y-95782833D01*
X94779097Y-95758330D01*
X94786102Y-95734282D01*
X94793950Y-95710688D01*
X94802642Y-95687547D01*
X94812177Y-95664862D01*
X94822555Y-95642630D01*
X94833777Y-95620852D01*
X94845842Y-95599528D01*
X94858751Y-95578659D01*
X94872503Y-95558244D01*
X94887098Y-95538283D01*
X94902537Y-95518776D01*
X94918819Y-95499723D01*
X94935945Y-95481124D01*
X94953914Y-95462980D01*
X94972726Y-95445289D01*
X94992111Y-95428371D01*
X95011798Y-95412545D01*
X95031785Y-95397811D01*
X95052075Y-95384167D01*
X95072666Y-95371616D01*
X95093558Y-95360155D01*
X95114752Y-95349786D01*
X95136247Y-95340509D01*
X95158044Y-95332323D01*
X95180142Y-95325228D01*
X95202542Y-95319225D01*
X95225243Y-95314314D01*
X95248246Y-95310494D01*
X95271550Y-95307765D01*
X95295155Y-95306128D01*
X95319063Y-95305582D01*
X95338980Y-95306095D01*
X95367983Y-95308790D01*
X95395938Y-95313795D01*
X95422846Y-95321109D01*
X95448706Y-95330733D01*
X95473519Y-95342668D01*
X95497284Y-95356911D01*
X95520001Y-95373465D01*
X95541671Y-95392328D01*
X95555536Y-95406187D01*
X95568935Y-95421073D01*
X95581868Y-95436985D01*
X95581317Y-95422851D01*
X95580024Y-95399025D01*
X95578174Y-95372047D01*
X95576630Y-95352311D01*
X95574838Y-95331174D01*
X95572799Y-95308637D01*
X95570511Y-95284699D01*
X95567975Y-95259361D01*
X95565191Y-95232622D01*
X95562159Y-95204483D01*
X95558879Y-95174943D01*
X95555350Y-95144002D01*
X95551574Y-95111661D01*
X95547550Y-95077919D01*
X95543278Y-95042777D01*
X95541565Y-95027304D01*
X95538302Y-94996946D01*
X95535256Y-94967369D01*
X95532428Y-94938575D01*
X95529818Y-94910564D01*
X95527425Y-94883334D01*
X95525250Y-94856888D01*
X95523292Y-94831223D01*
X95521552Y-94806341D01*
X95520029Y-94782241D01*
X95518724Y-94758923D01*
X95517636Y-94736388D01*
X95516766Y-94714635D01*
X95516114Y-94693665D01*
X95515679Y-94673476D01*
X95515434Y-94644661D01*
X95516758Y-94623991D01*
X95520729Y-94602892D01*
X95527348Y-94581363D01*
X95536614Y-94559405D01*
X95545934Y-94541530D01*
X95556948Y-94523379D01*
X95569656Y-94504954D01*
X95579900Y-94491598D01*
X95593799Y-94475832D01*
X95611559Y-94459410D01*
X95629748Y-94446638D01*
X95648367Y-94437514D01*
X95667415Y-94432040D01*
X95686892Y-94430216D01*
X95702186Y-94431525D01*
G37*
G36*
X93913937Y-95369394D02*
G01*
X93948998Y-95373253D01*
X93983211Y-95379683D01*
X94016577Y-95388686D01*
X94049095Y-95400261D01*
X94080767Y-95414408D01*
X94111591Y-95431127D01*
X94141568Y-95450418D01*
X94170698Y-95472282D01*
X94198980Y-95496717D01*
X94226416Y-95523725D01*
X94239816Y-95538194D01*
X94253004Y-95553306D01*
X94265980Y-95569060D01*
X94278745Y-95585458D01*
X94291297Y-95602498D01*
X94303638Y-95620182D01*
X94315767Y-95638509D01*
X94327685Y-95657479D01*
X94339390Y-95677092D01*
X94350884Y-95697348D01*
X94360561Y-95714722D01*
X94369931Y-95732164D01*
X94378994Y-95749672D01*
X94387749Y-95767247D01*
X94404339Y-95802597D01*
X94419699Y-95838215D01*
X94433831Y-95874099D01*
X94446734Y-95910251D01*
X94458408Y-95946670D01*
X94468853Y-95983356D01*
X94478070Y-96020309D01*
X94486057Y-96057530D01*
X94492816Y-96095017D01*
X94498346Y-96132772D01*
X94502647Y-96170793D01*
X94505719Y-96209082D01*
X94507562Y-96247638D01*
X94508176Y-96286461D01*
X94507615Y-96325391D01*
X94505932Y-96363291D01*
X94503127Y-96400160D01*
X94499200Y-96435999D01*
X94494152Y-96470808D01*
X94487981Y-96504586D01*
X94480688Y-96537333D01*
X94472273Y-96569050D01*
X94462736Y-96599737D01*
X94452077Y-96629394D01*
X94440296Y-96658020D01*
X94427393Y-96685615D01*
X94413368Y-96712181D01*
X94398221Y-96737715D01*
X94381952Y-96762220D01*
X94364562Y-96785694D01*
X94344310Y-96810893D01*
X94322880Y-96834466D01*
X94300270Y-96856414D01*
X94276482Y-96876735D01*
X94251513Y-96895431D01*
X94225366Y-96912502D01*
X94198040Y-96927946D01*
X94169534Y-96941765D01*
X94139849Y-96953958D01*
X94108984Y-96964525D01*
X94076941Y-96973467D01*
X94043718Y-96980783D01*
X94009316Y-96986473D01*
X93973735Y-96990537D01*
X93936974Y-96992976D01*
X93899035Y-96993789D01*
X93861885Y-96992800D01*
X93825663Y-96989835D01*
X93790368Y-96984893D01*
X93756000Y-96977974D01*
X93722560Y-96969078D01*
X93690047Y-96958206D01*
X93658461Y-96945356D01*
X93627803Y-96930530D01*
X93598072Y-96913727D01*
X93569269Y-96894947D01*
X93541393Y-96874190D01*
X93514444Y-96851456D01*
X93488422Y-96826746D01*
X93463328Y-96800058D01*
X93439162Y-96771394D01*
X93415922Y-96740753D01*
X93396875Y-96712679D01*
X93379057Y-96683898D01*
X93362468Y-96654411D01*
X93347107Y-96624219D01*
X93332975Y-96593320D01*
X93320072Y-96561716D01*
X93308398Y-96529405D01*
X93297953Y-96496388D01*
X93288737Y-96462666D01*
X93280749Y-96428237D01*
X93273991Y-96393102D01*
X93268461Y-96357261D01*
X93264160Y-96320715D01*
X93261088Y-96283462D01*
X93259244Y-96245503D01*
X93258630Y-96206838D01*
X93258808Y-96191695D01*
X93566376Y-96191695D01*
X93566441Y-96203944D01*
X93566960Y-96228108D01*
X93567998Y-96251831D01*
X93569555Y-96275110D01*
X93571631Y-96297947D01*
X93574226Y-96320341D01*
X93577340Y-96342292D01*
X93580973Y-96363801D01*
X93585125Y-96384867D01*
X93589797Y-96405490D01*
X93594987Y-96425670D01*
X93600696Y-96445408D01*
X93606924Y-96464703D01*
X93613671Y-96483556D01*
X93620938Y-96501966D01*
X93632810Y-96528750D01*
X93644097Y-96550992D01*
X93656097Y-96571798D01*
X93668811Y-96591170D01*
X93682239Y-96609106D01*
X93696380Y-96625608D01*
X93711235Y-96640675D01*
X93726803Y-96654306D01*
X93743086Y-96666503D01*
X93760082Y-96677265D01*
X93777791Y-96686592D01*
X93796214Y-96694484D01*
X93815351Y-96700942D01*
X93835201Y-96705964D01*
X93855766Y-96709551D01*
X93877043Y-96711704D01*
X93899035Y-96712421D01*
X93932515Y-96710686D01*
X93963835Y-96705483D01*
X93992996Y-96696810D01*
X94019996Y-96684669D01*
X94044836Y-96669058D01*
X94067517Y-96649979D01*
X94088037Y-96627430D01*
X94106397Y-96601413D01*
X94122597Y-96571926D01*
X94136637Y-96538970D01*
X94148517Y-96502546D01*
X94153647Y-96483033D01*
X94158237Y-96462652D01*
X94162288Y-96441404D01*
X94165798Y-96419290D01*
X94168768Y-96396307D01*
X94171198Y-96372458D01*
X94173088Y-96347741D01*
X94174438Y-96322157D01*
X94175248Y-96295706D01*
X94175518Y-96268387D01*
X94175245Y-96242668D01*
X94174426Y-96217287D01*
X94173062Y-96192247D01*
X94171152Y-96167546D01*
X94168696Y-96143184D01*
X94165695Y-96119163D01*
X94162147Y-96095481D01*
X94158054Y-96072138D01*
X94153416Y-96049136D01*
X94148231Y-96026473D01*
X94142501Y-96004149D01*
X94136225Y-95982165D01*
X94129403Y-95960521D01*
X94122036Y-95939217D01*
X94114123Y-95918252D01*
X94105664Y-95897627D01*
X94093463Y-95871363D01*
X94080553Y-95846794D01*
X94066933Y-95823919D01*
X94052602Y-95802739D01*
X94037562Y-95783253D01*
X94021813Y-95765461D01*
X94005353Y-95749364D01*
X93988183Y-95734961D01*
X93970304Y-95722253D01*
X93951715Y-95711239D01*
X93932416Y-95701920D01*
X93912407Y-95694295D01*
X93891688Y-95688364D01*
X93870260Y-95684128D01*
X93848122Y-95681586D01*
X93825273Y-95680739D01*
X93793923Y-95682735D01*
X93764594Y-95688723D01*
X93737289Y-95698703D01*
X93712006Y-95712674D01*
X93688745Y-95730637D01*
X93667508Y-95752592D01*
X93648293Y-95778539D01*
X93631100Y-95808478D01*
X93615931Y-95842409D01*
X93609104Y-95860871D01*
X93602783Y-95880331D01*
X93596968Y-95900790D01*
X93591659Y-95922246D01*
X93586855Y-95944700D01*
X93582557Y-95968152D01*
X93578765Y-95992602D01*
X93575478Y-96018050D01*
X93572697Y-96044496D01*
X93570421Y-96071940D01*
X93568651Y-96100382D01*
X93567387Y-96129822D01*
X93566629Y-96160259D01*
X93566376Y-96191695D01*
X93258808Y-96191695D01*
X93259013Y-96174214D01*
X93260162Y-96142164D01*
X93262078Y-96110688D01*
X93264759Y-96079786D01*
X93268207Y-96049459D01*
X93272420Y-96019706D01*
X93277400Y-95990528D01*
X93283146Y-95961924D01*
X93289658Y-95933894D01*
X93296936Y-95906439D01*
X93304980Y-95879558D01*
X93313791Y-95853251D01*
X93323367Y-95827519D01*
X93333710Y-95802361D01*
X93344819Y-95777777D01*
X93356693Y-95753768D01*
X93369334Y-95730333D01*
X93382742Y-95707472D01*
X93396915Y-95685186D01*
X93411854Y-95663474D01*
X93427560Y-95642337D01*
X93444031Y-95621774D01*
X93461269Y-95601785D01*
X93479273Y-95582370D01*
X93498043Y-95563530D01*
X93517579Y-95545265D01*
X93537881Y-95527573D01*
X93558949Y-95510456D01*
X93580784Y-95493913D01*
X93603384Y-95477945D01*
X93626751Y-95462551D01*
X93650884Y-95447732D01*
X93676039Y-95433502D01*
X93700395Y-95420672D01*
X93723952Y-95409242D01*
X93746711Y-95399211D01*
X93768672Y-95390580D01*
X93789833Y-95383349D01*
X93810197Y-95377517D01*
X93829761Y-95373085D01*
X93854605Y-95369352D01*
X93878030Y-95368108D01*
X93913937Y-95369394D01*
G37*
G36*
X91323738Y-95793579D02*
G01*
X91323851Y-95813537D01*
X91324188Y-95833536D01*
X91324751Y-95853577D01*
X91325539Y-95873661D01*
X91326553Y-95893786D01*
X91327791Y-95913953D01*
X91329255Y-95934162D01*
X91330943Y-95954413D01*
X91332857Y-95974706D01*
X91334996Y-95995042D01*
X91337360Y-96015419D01*
X91339950Y-96035838D01*
X91342764Y-96056299D01*
X91345804Y-96076802D01*
X91349069Y-96097347D01*
X91352559Y-96117934D01*
X91356274Y-96138563D01*
X91360214Y-96159234D01*
X91364380Y-96179947D01*
X91368770Y-96200702D01*
X91373386Y-96221499D01*
X91378227Y-96242337D01*
X91383293Y-96263218D01*
X91388585Y-96284141D01*
X91394101Y-96305106D01*
X91399843Y-96326113D01*
X91405809Y-96347162D01*
X91412001Y-96368252D01*
X91418419Y-96389385D01*
X91425061Y-96410560D01*
X91431928Y-96431776D01*
X91439021Y-96453035D01*
X91448550Y-96480534D01*
X91458268Y-96507160D01*
X91468177Y-96532913D01*
X91478275Y-96557792D01*
X91488563Y-96581799D01*
X91499042Y-96604933D01*
X91509710Y-96627194D01*
X91520567Y-96648582D01*
X91531615Y-96669097D01*
X91542853Y-96688739D01*
X91554280Y-96707508D01*
X91565897Y-96725404D01*
X91577704Y-96742427D01*
X91589701Y-96758577D01*
X91601888Y-96773854D01*
X91626832Y-96801790D01*
X91652534Y-96826233D01*
X91678997Y-96847184D01*
X91706218Y-96864644D01*
X91734199Y-96878612D01*
X91762940Y-96889087D01*
X91792440Y-96896071D01*
X91822699Y-96899563D01*
X91838114Y-96900000D01*
X91867167Y-96898893D01*
X91895587Y-96895573D01*
X91923373Y-96890039D01*
X91950526Y-96882292D01*
X91977046Y-96872331D01*
X92002932Y-96860157D01*
X92028184Y-96845770D01*
X92052803Y-96829169D01*
X92076788Y-96810355D01*
X92100140Y-96789327D01*
X92122859Y-96766086D01*
X92144944Y-96740631D01*
X92166395Y-96712963D01*
X92187213Y-96683081D01*
X92207397Y-96650986D01*
X92217252Y-96634109D01*
X92226948Y-96616678D01*
X92233632Y-96636032D01*
X92240555Y-96654772D01*
X92255120Y-96690409D01*
X92270643Y-96723587D01*
X92287124Y-96754309D01*
X92304562Y-96782572D01*
X92322959Y-96808378D01*
X92342313Y-96831726D01*
X92362625Y-96852616D01*
X92383895Y-96871049D01*
X92406123Y-96887024D01*
X92429309Y-96900541D01*
X92453453Y-96911601D01*
X92478555Y-96920203D01*
X92504614Y-96926347D01*
X92531632Y-96930034D01*
X92559607Y-96931263D01*
X92595265Y-96929698D01*
X92629697Y-96925004D01*
X92662905Y-96917180D01*
X92694887Y-96906228D01*
X92725644Y-96892146D01*
X92755177Y-96874934D01*
X92783484Y-96854593D01*
X92810566Y-96831123D01*
X92836424Y-96804523D01*
X92861056Y-96774795D01*
X92872913Y-96758757D01*
X92884463Y-96741936D01*
X92895708Y-96724334D01*
X92906646Y-96705949D01*
X92917277Y-96686781D01*
X92927603Y-96666832D01*
X92937622Y-96646100D01*
X92947335Y-96624585D01*
X92956742Y-96602288D01*
X92965842Y-96579209D01*
X92974636Y-96555348D01*
X92983124Y-96530704D01*
X92994126Y-96496018D01*
X93004419Y-96460591D01*
X93014002Y-96424424D01*
X93022875Y-96387517D01*
X93031038Y-96349869D01*
X93038491Y-96311481D01*
X93041951Y-96292009D01*
X93045234Y-96272353D01*
X93048340Y-96252511D01*
X93051268Y-96232484D01*
X93054018Y-96212272D01*
X93056592Y-96191875D01*
X93058987Y-96171292D01*
X93061205Y-96150525D01*
X93063246Y-96129573D01*
X93065110Y-96108435D01*
X93066795Y-96087113D01*
X93068304Y-96065605D01*
X93069635Y-96043912D01*
X93070788Y-96022034D01*
X93071764Y-95999971D01*
X93072563Y-95977723D01*
X93073184Y-95955290D01*
X93073627Y-95932672D01*
X93073894Y-95909869D01*
X93073982Y-95886880D01*
X93073914Y-95858220D01*
X93073708Y-95830246D01*
X93073364Y-95802960D01*
X93072883Y-95776360D01*
X93072265Y-95750448D01*
X93071509Y-95725222D01*
X93070616Y-95700683D01*
X93069586Y-95676831D01*
X93068418Y-95653666D01*
X93067113Y-95631188D01*
X93065671Y-95609397D01*
X93064091Y-95588293D01*
X93062373Y-95567876D01*
X93060519Y-95548146D01*
X93057479Y-95519839D01*
X93056397Y-95510746D01*
X93043689Y-95492657D01*
X93029988Y-95476980D01*
X93015295Y-95463714D01*
X92995534Y-95450524D01*
X92974223Y-95441103D01*
X92951361Y-95435450D01*
X92926948Y-95433565D01*
X92905071Y-95434675D01*
X92883099Y-95438002D01*
X92861031Y-95443547D01*
X92838868Y-95451311D01*
X92816610Y-95461293D01*
X92798734Y-95470876D01*
X92785287Y-95478995D01*
X92768457Y-95490505D01*
X92750576Y-95505665D01*
X92736200Y-95521684D01*
X92725331Y-95538561D01*
X92716916Y-95559948D01*
X92713550Y-95582571D01*
X92713480Y-95586461D01*
X92714579Y-95608394D01*
X92717269Y-95630467D01*
X92720744Y-95651171D01*
X92725341Y-95673973D01*
X92729825Y-95693726D01*
X92735026Y-95714823D01*
X92736439Y-95720307D01*
X92741705Y-95741739D01*
X92746270Y-95761828D01*
X92750987Y-95785050D01*
X92754608Y-95806173D01*
X92757505Y-95828750D01*
X92758821Y-95848305D01*
X92758909Y-95854152D01*
X92758748Y-95901185D01*
X92758266Y-95946725D01*
X92757462Y-95990773D01*
X92756337Y-96033327D01*
X92754890Y-96074388D01*
X92753122Y-96113955D01*
X92751032Y-96152030D01*
X92748620Y-96188612D01*
X92745887Y-96223700D01*
X92742833Y-96257295D01*
X92739457Y-96289398D01*
X92735759Y-96320007D01*
X92731740Y-96349123D01*
X92727400Y-96376745D01*
X92722738Y-96402875D01*
X92717754Y-96427512D01*
X92712449Y-96450655D01*
X92706822Y-96472305D01*
X92700874Y-96492463D01*
X92694605Y-96511127D01*
X92681101Y-96543975D01*
X92666311Y-96570852D01*
X92650234Y-96591755D01*
X92632872Y-96606687D01*
X92614224Y-96615645D01*
X92594289Y-96618632D01*
X92573323Y-96616975D01*
X92553287Y-96612007D01*
X92534183Y-96603725D01*
X92516010Y-96592131D01*
X92498768Y-96577225D01*
X92482457Y-96559006D01*
X92467077Y-96537474D01*
X92452629Y-96512630D01*
X92439111Y-96484474D01*
X92426525Y-96453005D01*
X92414870Y-96418223D01*
X92404146Y-96380129D01*
X92399134Y-96359839D01*
X92394354Y-96338722D01*
X92389807Y-96316776D01*
X92385492Y-96294002D01*
X92381411Y-96270401D01*
X92377562Y-96245971D01*
X92373946Y-96220712D01*
X92370563Y-96194626D01*
X92368434Y-96173722D01*
X92366441Y-96150945D01*
X92364587Y-96126293D01*
X92362869Y-96099768D01*
X92361289Y-96071369D01*
X92359847Y-96041097D01*
X92358542Y-96008950D01*
X92357374Y-95974930D01*
X92356343Y-95939036D01*
X92355450Y-95901268D01*
X92355055Y-95881681D01*
X92354695Y-95861626D01*
X92354369Y-95841102D01*
X92354077Y-95820110D01*
X92353819Y-95798650D01*
X92353596Y-95776721D01*
X92353407Y-95754324D01*
X92353252Y-95731458D01*
X92353132Y-95708124D01*
X92353046Y-95684321D01*
X92352995Y-95660050D01*
X92352978Y-95635310D01*
X92351621Y-95611740D01*
X92347551Y-95590488D01*
X92340767Y-95571554D01*
X92327502Y-95549916D01*
X92309413Y-95532399D01*
X92292680Y-95521966D01*
X92273234Y-95513852D01*
X92251075Y-95508056D01*
X92226202Y-95504578D01*
X92198616Y-95503419D01*
X92177853Y-95504165D01*
X92158430Y-95506403D01*
X92131808Y-95512558D01*
X92108198Y-95522071D01*
X92087603Y-95534941D01*
X92070022Y-95551168D01*
X92055455Y-95570753D01*
X92043902Y-95593695D01*
X92035362Y-95619995D01*
X92031344Y-95639393D01*
X92028665Y-95660283D01*
X92027325Y-95682666D01*
X92027158Y-95694417D01*
X92028501Y-95715422D01*
X92031272Y-95735663D01*
X92032531Y-95743265D01*
X92035590Y-95762681D01*
X92037715Y-95782459D01*
X92037904Y-95788206D01*
X92037904Y-96180949D01*
X92037747Y-96207876D01*
X92037275Y-96233949D01*
X92036487Y-96259167D01*
X92035385Y-96283531D01*
X92033969Y-96307039D01*
X92032237Y-96329692D01*
X92030191Y-96351491D01*
X92027829Y-96372435D01*
X92025153Y-96392524D01*
X92018856Y-96430137D01*
X92011300Y-96464331D01*
X92002484Y-96495106D01*
X91992409Y-96522461D01*
X91981075Y-96546397D01*
X91968481Y-96566913D01*
X91954628Y-96584010D01*
X91939515Y-96597688D01*
X91914485Y-96611793D01*
X91886622Y-96618204D01*
X91876704Y-96618632D01*
X91851730Y-96615760D01*
X91827915Y-96607143D01*
X91805259Y-96592782D01*
X91783762Y-96572676D01*
X91770075Y-96556081D01*
X91756903Y-96536933D01*
X91744246Y-96515231D01*
X91732105Y-96490977D01*
X91720478Y-96464169D01*
X91709367Y-96434808D01*
X91698771Y-96402895D01*
X91688690Y-96368428D01*
X91679125Y-96331408D01*
X91674535Y-96311940D01*
X91670075Y-96291835D01*
X91663745Y-96263424D01*
X91657824Y-96235102D01*
X91652312Y-96206867D01*
X91647207Y-96178720D01*
X91642511Y-96150661D01*
X91638224Y-96122689D01*
X91634344Y-96094805D01*
X91630874Y-96067009D01*
X91627811Y-96039301D01*
X91625157Y-96011681D01*
X91622911Y-95984148D01*
X91621073Y-95956703D01*
X91619644Y-95929346D01*
X91618623Y-95902077D01*
X91618011Y-95874895D01*
X91617807Y-95847801D01*
X91617875Y-95825316D01*
X91618081Y-95804021D01*
X91618425Y-95783917D01*
X91619198Y-95755993D01*
X91620280Y-95730748D01*
X91621671Y-95708182D01*
X91623371Y-95688295D01*
X91626118Y-95665947D01*
X91630326Y-95644710D01*
X91635392Y-95630914D01*
X91647986Y-95615513D01*
X91661910Y-95600774D01*
X91673982Y-95588415D01*
X91685059Y-95571042D01*
X91692505Y-95552702D01*
X91694987Y-95535170D01*
X91693628Y-95515483D01*
X91688407Y-95492677D01*
X91681065Y-95474354D01*
X91671005Y-95456651D01*
X91658225Y-95439568D01*
X91642726Y-95423106D01*
X91639300Y-95419888D01*
X91621578Y-95404971D01*
X91603522Y-95392582D01*
X91585132Y-95382722D01*
X91566409Y-95375390D01*
X91547351Y-95370586D01*
X91524041Y-95368159D01*
X91520109Y-95368108D01*
X91497021Y-95370765D01*
X91475138Y-95378733D01*
X91454462Y-95392014D01*
X91439745Y-95405460D01*
X91425708Y-95421895D01*
X91412348Y-95441318D01*
X91399667Y-95463729D01*
X91387664Y-95489129D01*
X91380039Y-95507722D01*
X91372716Y-95527643D01*
X91369167Y-95538101D01*
X91361049Y-95562675D01*
X91353729Y-95587120D01*
X91347207Y-95611436D01*
X91341484Y-95635623D01*
X91336559Y-95659681D01*
X91332434Y-95683611D01*
X91329106Y-95707412D01*
X91326577Y-95731084D01*
X91324847Y-95754627D01*
X91323916Y-95778041D01*
X91323738Y-95793579D01*
G37*
G36*
X99643627Y-98004173D02*
G01*
X99645122Y-98024322D01*
X99650496Y-98045403D01*
X99659777Y-98064408D01*
X99672966Y-98081337D01*
X99674890Y-98083307D01*
X99690171Y-98100278D01*
X99705330Y-98117085D01*
X99718630Y-98131788D01*
X99731065Y-98145345D01*
X99740255Y-98165588D01*
X99746819Y-98186515D01*
X99752070Y-98207138D01*
X99757322Y-98231212D01*
X99761260Y-98251530D01*
X99765198Y-98273790D01*
X99769137Y-98297990D01*
X99773075Y-98324131D01*
X99778455Y-98367956D01*
X99783664Y-98411749D01*
X99788702Y-98455509D01*
X99793569Y-98499238D01*
X99798265Y-98542933D01*
X99802791Y-98586596D01*
X99807146Y-98630227D01*
X99811330Y-98673825D01*
X99815343Y-98717391D01*
X99819186Y-98760925D01*
X99822857Y-98804426D01*
X99826358Y-98847894D01*
X99829689Y-98891330D01*
X99832848Y-98934734D01*
X99835837Y-98978105D01*
X99838654Y-99021444D01*
X99841301Y-99064750D01*
X99843778Y-99108024D01*
X99846083Y-99151266D01*
X99848218Y-99194475D01*
X99850182Y-99237651D01*
X99851975Y-99280796D01*
X99853598Y-99323907D01*
X99855049Y-99366987D01*
X99856330Y-99410033D01*
X99857440Y-99453048D01*
X99858379Y-99496030D01*
X99859148Y-99538979D01*
X99859746Y-99581896D01*
X99860173Y-99624781D01*
X99860429Y-99667633D01*
X99860514Y-99710453D01*
X99860377Y-99734182D01*
X99859967Y-99757254D01*
X99859282Y-99779669D01*
X99858324Y-99801426D01*
X99857091Y-99822526D01*
X99855585Y-99842968D01*
X99853806Y-99862753D01*
X99849424Y-99900351D01*
X99843948Y-99935320D01*
X99837376Y-99967659D01*
X99829710Y-99997369D01*
X99820947Y-100024450D01*
X99811090Y-100048901D01*
X99800137Y-100070722D01*
X99788089Y-100089914D01*
X99774946Y-100106477D01*
X99760707Y-100120410D01*
X99737296Y-100136380D01*
X99720319Y-100143740D01*
X99720319Y-100236552D01*
X99731531Y-100256702D01*
X99744163Y-100274166D01*
X99758215Y-100288942D01*
X99773686Y-100301032D01*
X99795021Y-100312367D01*
X99813687Y-100318412D01*
X99833772Y-100321770D01*
X99849767Y-100322526D01*
X99871772Y-100321354D01*
X99893090Y-100317839D01*
X99913721Y-100311981D01*
X99933665Y-100303780D01*
X99952922Y-100293236D01*
X99971492Y-100280348D01*
X99989375Y-100265117D01*
X100006571Y-100247543D01*
X100023081Y-100227626D01*
X100038903Y-100205365D01*
X100054038Y-100180762D01*
X100068487Y-100153815D01*
X100082248Y-100124525D01*
X100095323Y-100092892D01*
X100107711Y-100058915D01*
X100119412Y-100022595D01*
X100127456Y-99995956D01*
X100134982Y-99969160D01*
X100141989Y-99942207D01*
X100148476Y-99915098D01*
X100154445Y-99887833D01*
X100159895Y-99860411D01*
X100164825Y-99832832D01*
X100169237Y-99805097D01*
X100173130Y-99777206D01*
X100176503Y-99749158D01*
X100179358Y-99720954D01*
X100181693Y-99692593D01*
X100183510Y-99664076D01*
X100184808Y-99635402D01*
X100185586Y-99606572D01*
X100185846Y-99577585D01*
X100185818Y-99545937D01*
X100185737Y-99514618D01*
X100185601Y-99483628D01*
X100185411Y-99452968D01*
X100185166Y-99422636D01*
X100184867Y-99392634D01*
X100184513Y-99362961D01*
X100184105Y-99333617D01*
X100183643Y-99304602D01*
X100183127Y-99275916D01*
X100182556Y-99247560D01*
X100181930Y-99219533D01*
X100181250Y-99191834D01*
X100180516Y-99164465D01*
X100179728Y-99137426D01*
X100178885Y-99110715D01*
X100177987Y-99084333D01*
X100177036Y-99058281D01*
X100176030Y-99032558D01*
X100174969Y-99007163D01*
X100173854Y-98982099D01*
X100172685Y-98957363D01*
X100171462Y-98932956D01*
X100170184Y-98908879D01*
X100168851Y-98885130D01*
X100167464Y-98861711D01*
X100166023Y-98838621D01*
X100164528Y-98815860D01*
X100162978Y-98793429D01*
X100161374Y-98771326D01*
X100159715Y-98749553D01*
X100158002Y-98728108D01*
X100164569Y-98753330D01*
X100171143Y-98778558D01*
X100177724Y-98803793D01*
X100184311Y-98829034D01*
X100190906Y-98854282D01*
X100197506Y-98879537D01*
X100204114Y-98904799D01*
X100210728Y-98930067D01*
X100217349Y-98955342D01*
X100223976Y-98980623D01*
X100230610Y-99005911D01*
X100237251Y-99031206D01*
X100243899Y-99056508D01*
X100250553Y-99081816D01*
X100257214Y-99107131D01*
X100263881Y-99132452D01*
X100270555Y-99157781D01*
X100277236Y-99183116D01*
X100283924Y-99208457D01*
X100290618Y-99233806D01*
X100297319Y-99259161D01*
X100304027Y-99284522D01*
X100310741Y-99309891D01*
X100317462Y-99335266D01*
X100324190Y-99360647D01*
X100330924Y-99386036D01*
X100337665Y-99411431D01*
X100344413Y-99436832D01*
X100351167Y-99462241D01*
X100357928Y-99487656D01*
X100364696Y-99513078D01*
X100371470Y-99538506D01*
X100383700Y-99577125D01*
X100395902Y-99614517D01*
X100408078Y-99650684D01*
X100420227Y-99685624D01*
X100432350Y-99719339D01*
X100444445Y-99751827D01*
X100456514Y-99783090D01*
X100468557Y-99813127D01*
X100480572Y-99841937D01*
X100492561Y-99869522D01*
X100504523Y-99895881D01*
X100516459Y-99921013D01*
X100528368Y-99944920D01*
X100540250Y-99967601D01*
X100552105Y-99989055D01*
X100563934Y-100009284D01*
X100575735Y-100028287D01*
X100587511Y-100046064D01*
X100599259Y-100062615D01*
X100622676Y-100092038D01*
X100645986Y-100116558D01*
X100669189Y-100136174D01*
X100692285Y-100150885D01*
X100715274Y-100160693D01*
X100738157Y-100165597D01*
X100749558Y-100166210D01*
X100775194Y-100164741D01*
X100800445Y-100160333D01*
X100825310Y-100152987D01*
X100849789Y-100142702D01*
X100873883Y-100129478D01*
X100897592Y-100113316D01*
X100920915Y-100094216D01*
X100943853Y-100072177D01*
X100966406Y-100047199D01*
X100988573Y-100019283D01*
X101010354Y-99988428D01*
X101021100Y-99971899D01*
X101031750Y-99954635D01*
X101042304Y-99936636D01*
X101052761Y-99917903D01*
X101063122Y-99898435D01*
X101073386Y-99878233D01*
X101083554Y-99857296D01*
X101093626Y-99835624D01*
X101103601Y-99813217D01*
X101113480Y-99790076D01*
X101122734Y-99768282D01*
X101132119Y-99745582D01*
X101141633Y-99721975D01*
X101151277Y-99697462D01*
X101161050Y-99672043D01*
X101170953Y-99645717D01*
X101180986Y-99618485D01*
X101191149Y-99590347D01*
X101201442Y-99561302D01*
X101211864Y-99531351D01*
X101222416Y-99500493D01*
X101233098Y-99468729D01*
X101243909Y-99436059D01*
X101254851Y-99402482D01*
X101265922Y-99367999D01*
X101277123Y-99332609D01*
X101288453Y-99296314D01*
X101299914Y-99259111D01*
X101311504Y-99221003D01*
X101323224Y-99181988D01*
X101335073Y-99142067D01*
X101347052Y-99101239D01*
X101359162Y-99059505D01*
X101371400Y-99016864D01*
X101383769Y-98973318D01*
X101396267Y-98928865D01*
X101408896Y-98883505D01*
X101421653Y-98837239D01*
X101434541Y-98790067D01*
X101447558Y-98741988D01*
X101460706Y-98693003D01*
X101473982Y-98643112D01*
X101476526Y-98672705D01*
X101478905Y-98702379D01*
X101481121Y-98732133D01*
X101483172Y-98761967D01*
X101485059Y-98791881D01*
X101486782Y-98821875D01*
X101488341Y-98851949D01*
X101489736Y-98882103D01*
X101490967Y-98912338D01*
X101492033Y-98942653D01*
X101492936Y-98973048D01*
X101493674Y-99003523D01*
X101494249Y-99034078D01*
X101494659Y-99064713D01*
X101494905Y-99095429D01*
X101494987Y-99126224D01*
X101494960Y-99157914D01*
X101494879Y-99189054D01*
X101494743Y-99219643D01*
X101494552Y-99249681D01*
X101494308Y-99279169D01*
X101494008Y-99308107D01*
X101493655Y-99336494D01*
X101493247Y-99364330D01*
X101492785Y-99391616D01*
X101492268Y-99418352D01*
X101491697Y-99444537D01*
X101491072Y-99470172D01*
X101490392Y-99495256D01*
X101489658Y-99519789D01*
X101488869Y-99543772D01*
X101488026Y-99567205D01*
X101487129Y-99590087D01*
X101486177Y-99612418D01*
X101485171Y-99634199D01*
X101484111Y-99655430D01*
X101482996Y-99676110D01*
X101481827Y-99696239D01*
X101480603Y-99715818D01*
X101477993Y-99753325D01*
X101475165Y-99788629D01*
X101472120Y-99821732D01*
X101468857Y-99852632D01*
X101467144Y-99867257D01*
X101463868Y-99887854D01*
X101458567Y-99909377D01*
X101452392Y-99930043D01*
X101444618Y-99953189D01*
X101437249Y-99973491D01*
X101428857Y-99995381D01*
X101426599Y-100001102D01*
X101418013Y-100023443D01*
X101410571Y-100044547D01*
X101404274Y-100064414D01*
X101398013Y-100087510D01*
X101393541Y-100108674D01*
X101390535Y-100131520D01*
X101389963Y-100145205D01*
X101391654Y-100165720D01*
X101399173Y-100189935D01*
X101412705Y-100210562D01*
X101432252Y-100227602D01*
X101450859Y-100238027D01*
X101472850Y-100246435D01*
X101498224Y-100252825D01*
X101526980Y-100257197D01*
X101548031Y-100258991D01*
X101570585Y-100259887D01*
X101582426Y-100260000D01*
X101609991Y-100257639D01*
X101635778Y-100250558D01*
X101659786Y-100238756D01*
X101682016Y-100222233D01*
X101702468Y-100200990D01*
X101721141Y-100175026D01*
X101738036Y-100144341D01*
X101753152Y-100108935D01*
X101760043Y-100089462D01*
X101766490Y-100068809D01*
X101772492Y-100046975D01*
X101778049Y-100023962D01*
X101783162Y-99999768D01*
X101787831Y-99974394D01*
X101792054Y-99947839D01*
X101795833Y-99920105D01*
X101799168Y-99891190D01*
X101802058Y-99861096D01*
X101804503Y-99829821D01*
X101806504Y-99797365D01*
X101808060Y-99763730D01*
X101809171Y-99728914D01*
X101809838Y-99692919D01*
X101810061Y-99655743D01*
X101809952Y-99624146D01*
X101809626Y-99590660D01*
X101809082Y-99555284D01*
X101808320Y-99518020D01*
X101807341Y-99478867D01*
X101806770Y-99458582D01*
X101806145Y-99437825D01*
X101805465Y-99416595D01*
X101804731Y-99394893D01*
X101803943Y-99372719D01*
X101803100Y-99350073D01*
X101802202Y-99326954D01*
X101801251Y-99303363D01*
X101800245Y-99279300D01*
X101799184Y-99254765D01*
X101798069Y-99229757D01*
X101796900Y-99204277D01*
X101795676Y-99178325D01*
X101794398Y-99151900D01*
X101793066Y-99125003D01*
X101791679Y-99097634D01*
X101790238Y-99069793D01*
X101788743Y-99041480D01*
X101787193Y-99012694D01*
X101785589Y-98983436D01*
X101783930Y-98953705D01*
X101782217Y-98923503D01*
X101780474Y-98893303D01*
X101778786Y-98863583D01*
X101777154Y-98834342D01*
X101775577Y-98805579D01*
X101774055Y-98777296D01*
X101772588Y-98749491D01*
X101771177Y-98722165D01*
X101769822Y-98695319D01*
X101768521Y-98668951D01*
X101767276Y-98643062D01*
X101766086Y-98617652D01*
X101764952Y-98592721D01*
X101763873Y-98568270D01*
X101762849Y-98544297D01*
X101761881Y-98520802D01*
X101760968Y-98497787D01*
X101760110Y-98475251D01*
X101759308Y-98453194D01*
X101758561Y-98431616D01*
X101757869Y-98410516D01*
X101757233Y-98389896D01*
X101756652Y-98369754D01*
X101756126Y-98350092D01*
X101755240Y-98312204D01*
X101754576Y-98276231D01*
X101754134Y-98242175D01*
X101753912Y-98210034D01*
X101753885Y-98194682D01*
X101757233Y-98175414D01*
X101766086Y-98157095D01*
X101778786Y-98139956D01*
X101782217Y-98136064D01*
X101794398Y-98120676D01*
X101804731Y-98102129D01*
X101809816Y-98082609D01*
X101810061Y-98077445D01*
X101808694Y-98054021D01*
X101804596Y-98032108D01*
X101797764Y-98011706D01*
X101788201Y-97992815D01*
X101775905Y-97975436D01*
X101760876Y-97959568D01*
X101743115Y-97945211D01*
X101722622Y-97932365D01*
X101699396Y-97921031D01*
X101673437Y-97911208D01*
X101644746Y-97902896D01*
X101613323Y-97896095D01*
X101579167Y-97890806D01*
X101542279Y-97887028D01*
X101502658Y-97884761D01*
X101481823Y-97884194D01*
X101460305Y-97884005D01*
X101439659Y-97885570D01*
X101418020Y-97890264D01*
X101395390Y-97898087D01*
X101371767Y-97909040D01*
X101353398Y-97919308D01*
X101334472Y-97931337D01*
X101314987Y-97945125D01*
X101294945Y-97960674D01*
X101274344Y-97977984D01*
X101267353Y-97984145D01*
X101265305Y-98005178D01*
X101263008Y-98028160D01*
X101260462Y-98053091D01*
X101257667Y-98079972D01*
X101254623Y-98108802D01*
X101252456Y-98129104D01*
X101250177Y-98150273D01*
X101247788Y-98172308D01*
X101245289Y-98195210D01*
X101242678Y-98218978D01*
X101239957Y-98243612D01*
X101237126Y-98269113D01*
X101234183Y-98295479D01*
X101232670Y-98308988D01*
X101227906Y-98347738D01*
X101225247Y-98367692D01*
X101222405Y-98388031D01*
X101219378Y-98408755D01*
X101216167Y-98429865D01*
X101212772Y-98451360D01*
X101209193Y-98473241D01*
X101205429Y-98495507D01*
X101201482Y-98518159D01*
X101197350Y-98541196D01*
X101193034Y-98564618D01*
X101188535Y-98588426D01*
X101183851Y-98612620D01*
X101178982Y-98637199D01*
X101173930Y-98662163D01*
X101168694Y-98687513D01*
X101163273Y-98713248D01*
X101157668Y-98739368D01*
X101151880Y-98765874D01*
X101145907Y-98792766D01*
X101139749Y-98820043D01*
X101133408Y-98847705D01*
X101126883Y-98875753D01*
X101120173Y-98904186D01*
X101113280Y-98933005D01*
X101106202Y-98962209D01*
X101098940Y-98991799D01*
X101091494Y-99021774D01*
X101083864Y-99052135D01*
X101076049Y-99082881D01*
X101068051Y-99114012D01*
X101057379Y-99153743D01*
X101046796Y-99192212D01*
X101036302Y-99229420D01*
X101025896Y-99265366D01*
X101015579Y-99300052D01*
X101005351Y-99333476D01*
X100995212Y-99365638D01*
X100985161Y-99396540D01*
X100975199Y-99426180D01*
X100965326Y-99454559D01*
X100955541Y-99481677D01*
X100945845Y-99507533D01*
X100936238Y-99532128D01*
X100926720Y-99555462D01*
X100917290Y-99577534D01*
X100907950Y-99598346D01*
X100898697Y-99617896D01*
X100889534Y-99636184D01*
X100871473Y-99668978D01*
X100853768Y-99696726D01*
X100836417Y-99719429D01*
X100819421Y-99737087D01*
X100802780Y-99749700D01*
X100778484Y-99759160D01*
X100770563Y-99759790D01*
X100751443Y-99749295D01*
X100738323Y-99732923D01*
X100726445Y-99713508D01*
X100716324Y-99694198D01*
X100705654Y-99671529D01*
X100697290Y-99652323D01*
X100686316Y-99625586D01*
X100675377Y-99597521D01*
X100664472Y-99568128D01*
X100653601Y-99537407D01*
X100642765Y-99505358D01*
X100631963Y-99471980D01*
X100621195Y-99437275D01*
X100610462Y-99401242D01*
X100599763Y-99363880D01*
X100594426Y-99344701D01*
X100589098Y-99325191D01*
X100583779Y-99305348D01*
X100578468Y-99285173D01*
X100573166Y-99264666D01*
X100567872Y-99243827D01*
X100562587Y-99222656D01*
X100557310Y-99201153D01*
X100552042Y-99179318D01*
X100546783Y-99157151D01*
X100541532Y-99134652D01*
X100536290Y-99111822D01*
X100531057Y-99088659D01*
X100525832Y-99065163D01*
X100517955Y-99027367D01*
X100510078Y-98989570D01*
X100502201Y-98951774D01*
X100494324Y-98913977D01*
X100486448Y-98876181D01*
X100478571Y-98838384D01*
X100470694Y-98800587D01*
X100462817Y-98762791D01*
X100454940Y-98724994D01*
X100447063Y-98687198D01*
X100439187Y-98649401D01*
X100431310Y-98611605D01*
X100423433Y-98573808D01*
X100415556Y-98536011D01*
X100407679Y-98498215D01*
X100399802Y-98460418D01*
X100394095Y-98432662D01*
X100389851Y-98412932D01*
X100385257Y-98392221D01*
X100380311Y-98370529D01*
X100375014Y-98347856D01*
X100369366Y-98324203D01*
X100363366Y-98299569D01*
X100357016Y-98273954D01*
X100350315Y-98247358D01*
X100343262Y-98219781D01*
X100335858Y-98191224D01*
X100328104Y-98161686D01*
X100319998Y-98131167D01*
X100311541Y-98099667D01*
X100302733Y-98067187D01*
X100298197Y-98050579D01*
X100288349Y-98026622D01*
X100277246Y-98004211D01*
X100264887Y-97983345D01*
X100251272Y-97964025D01*
X100236402Y-97946251D01*
X100220276Y-97930022D01*
X100202895Y-97915339D01*
X100184258Y-97902201D01*
X100164366Y-97890609D01*
X100143218Y-97880563D01*
X100120814Y-97872062D01*
X100097155Y-97865107D01*
X100072240Y-97859697D01*
X100046070Y-97855833D01*
X100018644Y-97853515D01*
X99989963Y-97852742D01*
X99968416Y-97853330D01*
X99945785Y-97855093D01*
X99922071Y-97858031D01*
X99897273Y-97862145D01*
X99877963Y-97866002D01*
X99858043Y-97870520D01*
X99837514Y-97875699D01*
X99816375Y-97881540D01*
X99794626Y-97888041D01*
X99787241Y-97890355D01*
X99761576Y-97899573D01*
X99738435Y-97909091D01*
X99717818Y-97918910D01*
X99699726Y-97929030D01*
X99679530Y-97942990D01*
X99663822Y-97957484D01*
X99650499Y-97976353D01*
X99644188Y-97996057D01*
X99643627Y-98004173D01*
G37*
G36*
X98275378Y-99009476D02*
G01*
X98275610Y-99030684D01*
X98276305Y-99053823D01*
X98277465Y-99078895D01*
X98279088Y-99105899D01*
X98281174Y-99134834D01*
X98282823Y-99155198D01*
X98284677Y-99176420D01*
X98286738Y-99198501D01*
X98289005Y-99221441D01*
X98291478Y-99245240D01*
X98294157Y-99269897D01*
X98297042Y-99295412D01*
X98300133Y-99321787D01*
X98301756Y-99335296D01*
X98304891Y-99362054D01*
X98307824Y-99387984D01*
X98310555Y-99413086D01*
X98313083Y-99437359D01*
X98315409Y-99460804D01*
X98317533Y-99483422D01*
X98319454Y-99505211D01*
X98321174Y-99526172D01*
X98322691Y-99546305D01*
X98324587Y-99574951D01*
X98326028Y-99601734D01*
X98327014Y-99626654D01*
X98327545Y-99649711D01*
X98327646Y-99664047D01*
X98327509Y-99689967D01*
X98327225Y-99711371D01*
X98326787Y-99734458D01*
X98326195Y-99759227D01*
X98325448Y-99785680D01*
X98324546Y-99813816D01*
X98323859Y-99833508D01*
X98323104Y-99853948D01*
X98322279Y-99875136D01*
X98321386Y-99897072D01*
X98320425Y-99919756D01*
X98319394Y-99943188D01*
X98318853Y-99955184D01*
X98317789Y-99978918D01*
X98316793Y-100001881D01*
X98315865Y-100024072D01*
X98315006Y-100045493D01*
X98314217Y-100066143D01*
X98313495Y-100086022D01*
X98312542Y-100114395D01*
X98311744Y-100141034D01*
X98311100Y-100165938D01*
X98310610Y-100189108D01*
X98310275Y-100210543D01*
X98310095Y-100230244D01*
X98310061Y-100242414D01*
X98313400Y-100265493D01*
X98323418Y-100284660D01*
X98340114Y-100299916D01*
X98358279Y-100309304D01*
X98380719Y-100316189D01*
X98400354Y-100319709D01*
X98422393Y-100321822D01*
X98446837Y-100322526D01*
X98472143Y-100321392D01*
X98495672Y-100317992D01*
X98517423Y-100312325D01*
X98537397Y-100304391D01*
X98555594Y-100294190D01*
X98572013Y-100281722D01*
X98586655Y-100266987D01*
X98599519Y-100249986D01*
X98610606Y-100230717D01*
X98619915Y-100209182D01*
X98625134Y-100193565D01*
X98641716Y-100205396D01*
X98658244Y-100216463D01*
X98682936Y-100231633D01*
X98707509Y-100245085D01*
X98731961Y-100256821D01*
X98756292Y-100266838D01*
X98780504Y-100275139D01*
X98804595Y-100281722D01*
X98828566Y-100286588D01*
X98852417Y-100289736D01*
X98876148Y-100291167D01*
X98884031Y-100291263D01*
X98909875Y-100290408D01*
X98929839Y-100288645D01*
X98950301Y-100285920D01*
X98971261Y-100282233D01*
X98992719Y-100277585D01*
X99014675Y-100271975D01*
X99037130Y-100265403D01*
X99060082Y-100257870D01*
X99083532Y-100249375D01*
X99107480Y-100239918D01*
X99115573Y-100236552D01*
X99139167Y-100226005D01*
X99161403Y-100215063D01*
X99182283Y-100203725D01*
X99201806Y-100191993D01*
X99219973Y-100179866D01*
X99236783Y-100167344D01*
X99252236Y-100154426D01*
X99270730Y-100136589D01*
X99286812Y-100118050D01*
X99297290Y-100103684D01*
X99309594Y-100084416D01*
X99321104Y-100063735D01*
X99331820Y-100041643D01*
X99341742Y-100018138D01*
X99350871Y-99993221D01*
X99359206Y-99966893D01*
X99366747Y-99939152D01*
X99373494Y-99910000D01*
X99379447Y-99879435D01*
X99384607Y-99847458D01*
X99388973Y-99814069D01*
X99392545Y-99779269D01*
X99395323Y-99743056D01*
X99397308Y-99705431D01*
X99398498Y-99666394D01*
X99398796Y-99646346D01*
X99398895Y-99625945D01*
X99398835Y-99603289D01*
X99398655Y-99577637D01*
X99398354Y-99548987D01*
X99398087Y-99528223D01*
X99397767Y-99506126D01*
X99397393Y-99482698D01*
X99396965Y-99457938D01*
X99396484Y-99431846D01*
X99395950Y-99404422D01*
X99395362Y-99375666D01*
X99394721Y-99345579D01*
X99394027Y-99314159D01*
X99393279Y-99281408D01*
X99392477Y-99247324D01*
X99392056Y-99229783D01*
X99390768Y-99198825D01*
X99389591Y-99168722D01*
X99388524Y-99139474D01*
X99387568Y-99111081D01*
X99386723Y-99083543D01*
X99385988Y-99056859D01*
X99385365Y-99031031D01*
X99384851Y-99006057D01*
X99384449Y-98981938D01*
X99384157Y-98958674D01*
X99383975Y-98936264D01*
X99383905Y-98914710D01*
X99383945Y-98894010D01*
X99384096Y-98874166D01*
X99384529Y-98846001D01*
X99384729Y-98837041D01*
X99365346Y-98823160D01*
X99346581Y-98810645D01*
X99328435Y-98799495D01*
X99310907Y-98789711D01*
X99288497Y-98778789D01*
X99267187Y-98770294D01*
X99246976Y-98764226D01*
X99223258Y-98760054D01*
X99209851Y-98759371D01*
X99189503Y-98760018D01*
X99161442Y-98763414D01*
X99136334Y-98769721D01*
X99114181Y-98778939D01*
X99094981Y-98791068D01*
X99078735Y-98806107D01*
X99065443Y-98824058D01*
X99055104Y-98844919D01*
X99047720Y-98868691D01*
X99043289Y-98895374D01*
X99041812Y-98924968D01*
X99042362Y-98948026D01*
X99043659Y-98970285D01*
X99045247Y-98990084D01*
X99047323Y-99011653D01*
X99049887Y-99034994D01*
X99052940Y-99060105D01*
X99055551Y-99080100D01*
X99057444Y-99093984D01*
X99060237Y-99114644D01*
X99062756Y-99134307D01*
X99065687Y-99158976D01*
X99068129Y-99181873D01*
X99070083Y-99203000D01*
X99071839Y-99226919D01*
X99072831Y-99248071D01*
X99073075Y-99263000D01*
X99073075Y-99759302D01*
X99072365Y-99780543D01*
X99070236Y-99802014D01*
X99066687Y-99823713D01*
X99061718Y-99845642D01*
X99055329Y-99867799D01*
X99047521Y-99890185D01*
X99038294Y-99912801D01*
X99027646Y-99935645D01*
X99016933Y-99954501D01*
X99005859Y-99971503D01*
X98990533Y-99991287D01*
X98974565Y-100007773D01*
X98957957Y-100020962D01*
X98940707Y-100030854D01*
X98918243Y-100038582D01*
X98894778Y-100041158D01*
X98867242Y-100039462D01*
X98841054Y-100034374D01*
X98816214Y-100025895D01*
X98792723Y-100014024D01*
X98770579Y-99998761D01*
X98749784Y-99980107D01*
X98730336Y-99958060D01*
X98718120Y-99941479D01*
X98706503Y-99923389D01*
X98695486Y-99903793D01*
X98685067Y-99882689D01*
X98675248Y-99860077D01*
X98670563Y-99848206D01*
X98661833Y-99822795D01*
X98653962Y-99796388D01*
X98646950Y-99768986D01*
X98640796Y-99740587D01*
X98637170Y-99721101D01*
X98633927Y-99701172D01*
X98631064Y-99680800D01*
X98628584Y-99659986D01*
X98626485Y-99638730D01*
X98624767Y-99617030D01*
X98623432Y-99594888D01*
X98622478Y-99572303D01*
X98621905Y-99549276D01*
X98621714Y-99525806D01*
X98621714Y-99105219D01*
X98622371Y-99084466D01*
X98624340Y-99062507D01*
X98627622Y-99039342D01*
X98632217Y-99014972D01*
X98636525Y-98995902D01*
X98641571Y-98976154D01*
X98647355Y-98955728D01*
X98653878Y-98934623D01*
X98661140Y-98912840D01*
X98663724Y-98905429D01*
X98647390Y-98891025D01*
X98631175Y-98878037D01*
X98615081Y-98866467D01*
X98593809Y-98853243D01*
X98572750Y-98842539D01*
X98551906Y-98834353D01*
X98531275Y-98828685D01*
X98510858Y-98825537D01*
X98495685Y-98824829D01*
X98474932Y-98825645D01*
X98454683Y-98828095D01*
X98434937Y-98832179D01*
X98415696Y-98837896D01*
X98396958Y-98845246D01*
X98378723Y-98854229D01*
X98360993Y-98864846D01*
X98343766Y-98877096D01*
X98327738Y-98890599D01*
X98313846Y-98904971D01*
X98299488Y-98924160D01*
X98288468Y-98944708D01*
X98280788Y-98966616D01*
X98276447Y-98989883D01*
X98275378Y-99009476D01*
G37*
G36*
X96927646Y-99916594D02*
G01*
X96928194Y-99936282D01*
X96931069Y-99965228D01*
X96936408Y-99993469D01*
X96944212Y-100021007D01*
X96954480Y-100047840D01*
X96967213Y-100073969D01*
X96977070Y-100090998D01*
X96988023Y-100107713D01*
X97000071Y-100124116D01*
X97013215Y-100140205D01*
X97027453Y-100155982D01*
X97042787Y-100171445D01*
X97059216Y-100186596D01*
X97067841Y-100194054D01*
X97087486Y-100209611D01*
X97107951Y-100224164D01*
X97129236Y-100237714D01*
X97151342Y-100250260D01*
X97174268Y-100261803D01*
X97198015Y-100272341D01*
X97222583Y-100281876D01*
X97247971Y-100290408D01*
X97274179Y-100297935D01*
X97301208Y-100304459D01*
X97329057Y-100309980D01*
X97357727Y-100314496D01*
X97387218Y-100318009D01*
X97417529Y-100320518D01*
X97448660Y-100322024D01*
X97480612Y-100322526D01*
X97501828Y-100322712D01*
X97523345Y-100321988D01*
X97545162Y-100320353D01*
X97567280Y-100317809D01*
X97589698Y-100314354D01*
X97612417Y-100309989D01*
X97635437Y-100304714D01*
X97658756Y-100298529D01*
X97682377Y-100291433D01*
X97706298Y-100283428D01*
X97722412Y-100277585D01*
X97748258Y-100267873D01*
X97773283Y-100258276D01*
X97797488Y-100248795D01*
X97820873Y-100239430D01*
X97843437Y-100230179D01*
X97865180Y-100221045D01*
X97886103Y-100212025D01*
X97906205Y-100203121D01*
X97925487Y-100194333D01*
X97943948Y-100185660D01*
X97961589Y-100177102D01*
X97994409Y-100160334D01*
X98023947Y-100144027D01*
X98050203Y-100128181D01*
X98073177Y-100112798D01*
X98092870Y-100097876D01*
X98109280Y-100083416D01*
X98127741Y-100062592D01*
X98138818Y-100042807D01*
X98142510Y-100024061D01*
X98140569Y-99996824D01*
X98134748Y-99972266D01*
X98125045Y-99950387D01*
X98111461Y-99931188D01*
X98093995Y-99914667D01*
X98072649Y-99900825D01*
X98047421Y-99889662D01*
X98028447Y-99883709D01*
X98007747Y-99878946D01*
X97985323Y-99875374D01*
X97961173Y-99872993D01*
X97935299Y-99871802D01*
X97921714Y-99871653D01*
X97901793Y-99871987D01*
X97881109Y-99872989D01*
X97859661Y-99874659D01*
X97855280Y-99875073D01*
X97850411Y-99898764D01*
X97840931Y-99921235D01*
X97826841Y-99942484D01*
X97813249Y-99957619D01*
X97797063Y-99972068D01*
X97778284Y-99985829D01*
X97756912Y-99998904D01*
X97732946Y-100011292D01*
X97706388Y-100022992D01*
X97687241Y-100030411D01*
X97661778Y-100039662D01*
X97636494Y-100047814D01*
X97611391Y-100054866D01*
X97586468Y-100060819D01*
X97561726Y-100065674D01*
X97537164Y-100069429D01*
X97512782Y-100072085D01*
X97488580Y-100073642D01*
X97464559Y-100074100D01*
X97440718Y-100073459D01*
X97424924Y-100072421D01*
X97401111Y-100069811D01*
X97380472Y-100065399D01*
X97359139Y-100057351D01*
X97342767Y-100046489D01*
X97329670Y-100029740D01*
X97323716Y-100008937D01*
X97323319Y-100001102D01*
X97326095Y-99981057D01*
X97328693Y-99970327D01*
X97332504Y-99951010D01*
X97333578Y-99938087D01*
X97349336Y-99926344D01*
X97371214Y-99917116D01*
X97391010Y-99909857D01*
X97414972Y-99901713D01*
X97435679Y-99895024D01*
X97458730Y-99887837D01*
X97466934Y-99885331D01*
X97493972Y-99877327D01*
X97518666Y-99869984D01*
X97541016Y-99863302D01*
X97561021Y-99857281D01*
X97584049Y-99850282D01*
X97602909Y-99844458D01*
X97623385Y-99837927D01*
X97634485Y-99834040D01*
X97659038Y-99819506D01*
X97682812Y-99804784D01*
X97705807Y-99789876D01*
X97728022Y-99774781D01*
X97749458Y-99759498D01*
X97770114Y-99744029D01*
X97789991Y-99728373D01*
X97809088Y-99712529D01*
X97827406Y-99696499D01*
X97844944Y-99680281D01*
X97861703Y-99663877D01*
X97877682Y-99647286D01*
X97892882Y-99630507D01*
X97907302Y-99613542D01*
X97920943Y-99596390D01*
X97933804Y-99579050D01*
X97945886Y-99561524D01*
X97957189Y-99543811D01*
X97967712Y-99525910D01*
X97977455Y-99507823D01*
X97986419Y-99489549D01*
X97994604Y-99471087D01*
X98002009Y-99452439D01*
X98008634Y-99433604D01*
X98014480Y-99414582D01*
X98019547Y-99395372D01*
X98023834Y-99375976D01*
X98027342Y-99356393D01*
X98030070Y-99336622D01*
X98032019Y-99316665D01*
X98033188Y-99296521D01*
X98033578Y-99276189D01*
X98033127Y-99251639D01*
X98031776Y-99227325D01*
X98029525Y-99203248D01*
X98026372Y-99179408D01*
X98022320Y-99155804D01*
X98017366Y-99132437D01*
X98011512Y-99109307D01*
X98004757Y-99086413D01*
X97997102Y-99063755D01*
X97988545Y-99041335D01*
X97979089Y-99019150D01*
X97968731Y-98997203D01*
X97957473Y-98975492D01*
X97945314Y-98954018D01*
X97932255Y-98932780D01*
X97918295Y-98911779D01*
X97901809Y-98889538D01*
X97884834Y-98868731D01*
X97867370Y-98849360D01*
X97849419Y-98831423D01*
X97830978Y-98814921D01*
X97812049Y-98799855D01*
X97792632Y-98786223D01*
X97772726Y-98774026D01*
X97752332Y-98763264D01*
X97731449Y-98753937D01*
X97710078Y-98746045D01*
X97688218Y-98739588D01*
X97665870Y-98734566D01*
X97643033Y-98730978D01*
X97619708Y-98728826D01*
X97595894Y-98728108D01*
X97568702Y-98729066D01*
X97540797Y-98731938D01*
X97512179Y-98736725D01*
X97492704Y-98740980D01*
X97472913Y-98746086D01*
X97452805Y-98752044D01*
X97432380Y-98758852D01*
X97411639Y-98766511D01*
X97390580Y-98775022D01*
X97369205Y-98784383D01*
X97347513Y-98794595D01*
X97325505Y-98805659D01*
X97303179Y-98817573D01*
X97280537Y-98830339D01*
X97269098Y-98837041D01*
X97246633Y-98850665D01*
X97225279Y-98864426D01*
X97205035Y-98878325D01*
X97185902Y-98892362D01*
X97167880Y-98906535D01*
X97150968Y-98920846D01*
X97135167Y-98935295D01*
X97120476Y-98949881D01*
X97106895Y-98964604D01*
X97088607Y-98986947D01*
X97072818Y-99009598D01*
X97059527Y-99032559D01*
X97048735Y-99055829D01*
X97042929Y-99071514D01*
X97036403Y-99093137D01*
X97030747Y-99113798D01*
X97025961Y-99133498D01*
X97021203Y-99156770D01*
X97017804Y-99178540D01*
X97015765Y-99198807D01*
X97015085Y-99217571D01*
X97015703Y-99239765D01*
X97017558Y-99260550D01*
X97020649Y-99279927D01*
X97025818Y-99300754D01*
X97032670Y-99319665D01*
X97040547Y-99338733D01*
X97048424Y-99357835D01*
X97056301Y-99376972D01*
X97064178Y-99396143D01*
X97072055Y-99415349D01*
X97074680Y-99421758D01*
X97091289Y-99432062D01*
X97112049Y-99443010D01*
X97132810Y-99451811D01*
X97153571Y-99458466D01*
X97174331Y-99462974D01*
X97195092Y-99465335D01*
X97207548Y-99465722D01*
X97228095Y-99463218D01*
X97247392Y-99458055D01*
X97266018Y-99451601D01*
X97286958Y-99443190D01*
X97305375Y-99435054D01*
X97325273Y-99425666D01*
X97344508Y-99415820D01*
X97364944Y-99403985D01*
X97381373Y-99392674D01*
X97397642Y-99377721D01*
X97407018Y-99360007D01*
X97407339Y-99356301D01*
X97400406Y-99336388D01*
X97390929Y-99317718D01*
X97379606Y-99297288D01*
X97367914Y-99277140D01*
X97365329Y-99272770D01*
X97355812Y-99255212D01*
X97347798Y-99236634D01*
X97342431Y-99217632D01*
X97340905Y-99202428D01*
X97341546Y-99179063D01*
X97343469Y-99157205D01*
X97346675Y-99136854D01*
X97353888Y-99109155D01*
X97363986Y-99084848D01*
X97376969Y-99063932D01*
X97392837Y-99046408D01*
X97411590Y-99032276D01*
X97433229Y-99021536D01*
X97457752Y-99014187D01*
X97485161Y-99010230D01*
X97505036Y-99009476D01*
X97528865Y-99011377D01*
X97551259Y-99017078D01*
X97572218Y-99026581D01*
X97591742Y-99039884D01*
X97609832Y-99056989D01*
X97622457Y-99072312D01*
X97634275Y-99089773D01*
X97645286Y-99109372D01*
X97655490Y-99131109D01*
X97664534Y-99155014D01*
X97672373Y-99179347D01*
X97679006Y-99204107D01*
X97684433Y-99229295D01*
X97688653Y-99254910D01*
X97691028Y-99274401D01*
X97692723Y-99294134D01*
X97693741Y-99314106D01*
X97694080Y-99334319D01*
X97692328Y-99359454D01*
X97687073Y-99384116D01*
X97678315Y-99408306D01*
X97666053Y-99432024D01*
X97650288Y-99455269D01*
X97637832Y-99470504D01*
X97623818Y-99485529D01*
X97608248Y-99500344D01*
X97591120Y-99514949D01*
X97572436Y-99529344D01*
X97552194Y-99543529D01*
X97530395Y-99557504D01*
X97507040Y-99571269D01*
X97494778Y-99578073D01*
X97471989Y-99587795D01*
X97449173Y-99597544D01*
X97426331Y-99607320D01*
X97403462Y-99617122D01*
X97380566Y-99626951D01*
X97357643Y-99636806D01*
X97334694Y-99646689D01*
X97311718Y-99656598D01*
X97288715Y-99666533D01*
X97265686Y-99676496D01*
X97242630Y-99686485D01*
X97219547Y-99696501D01*
X97196437Y-99706543D01*
X97173301Y-99716613D01*
X97150138Y-99726709D01*
X97126948Y-99736831D01*
X97102814Y-99747895D01*
X97080237Y-99758981D01*
X97059217Y-99770090D01*
X97039754Y-99781222D01*
X97021847Y-99792377D01*
X97005498Y-99803555D01*
X96983894Y-99820365D01*
X96965794Y-99837227D01*
X96951196Y-99854139D01*
X96940102Y-99871104D01*
X96930760Y-99893803D01*
X96927646Y-99916594D01*
G37*
G36*
X96294569Y-98421828D02*
G01*
X96295857Y-98446006D01*
X96299721Y-98468778D01*
X96306161Y-98490142D01*
X96315177Y-98510099D01*
X96326769Y-98528648D01*
X96340937Y-98545791D01*
X96347325Y-98552254D01*
X96364255Y-98566889D01*
X96382378Y-98579044D01*
X96401693Y-98588718D01*
X96422201Y-98595912D01*
X96443901Y-98600625D01*
X96466794Y-98602858D01*
X96476285Y-98603056D01*
X96498924Y-98602041D01*
X96521165Y-98598995D01*
X96543009Y-98593920D01*
X96564457Y-98586814D01*
X96585508Y-98577678D01*
X96606161Y-98566511D01*
X96626418Y-98553314D01*
X96646278Y-98538087D01*
X96664711Y-98521265D01*
X96680686Y-98503527D01*
X96694203Y-98484873D01*
X96705263Y-98465303D01*
X96713865Y-98444817D01*
X96720009Y-98423415D01*
X96723696Y-98401098D01*
X96724924Y-98377864D01*
X96723601Y-98353686D01*
X96719629Y-98330914D01*
X96713010Y-98309550D01*
X96703744Y-98289593D01*
X96691830Y-98271044D01*
X96677269Y-98253901D01*
X96670703Y-98247438D01*
X96653114Y-98232803D01*
X96634238Y-98220648D01*
X96614074Y-98210974D01*
X96592621Y-98203780D01*
X96569881Y-98199067D01*
X96545852Y-98196834D01*
X96535881Y-98196636D01*
X96512639Y-98197628D01*
X96490054Y-98200605D01*
X96468126Y-98205566D01*
X96446854Y-98212512D01*
X96426238Y-98221442D01*
X96406279Y-98232356D01*
X96386976Y-98245256D01*
X96368330Y-98260139D01*
X96351042Y-98276557D01*
X96336059Y-98294058D01*
X96323382Y-98312644D01*
X96313009Y-98332313D01*
X96304941Y-98353066D01*
X96299179Y-98374903D01*
X96295721Y-98397823D01*
X96294569Y-98421828D01*
G37*
G36*
X96325832Y-98907871D02*
G01*
X96326523Y-98929156D01*
X96328598Y-98953018D01*
X96331255Y-98973962D01*
X96334796Y-98996554D01*
X96339223Y-99020795D01*
X96343124Y-99040058D01*
X96347523Y-99060248D01*
X96352421Y-99081366D01*
X96354164Y-99088611D01*
X96359140Y-99110033D01*
X96363626Y-99130519D01*
X96367623Y-99150070D01*
X96372192Y-99174681D01*
X96375890Y-99197629D01*
X96378717Y-99218912D01*
X96380675Y-99238532D01*
X96381899Y-99260716D01*
X96382008Y-99268862D01*
X96382008Y-99997683D01*
X96381065Y-100020504D01*
X96378955Y-100041509D01*
X96375639Y-100064956D01*
X96371116Y-100090846D01*
X96366933Y-100111866D01*
X96362072Y-100134260D01*
X96356532Y-100158028D01*
X96350314Y-100183170D01*
X96343417Y-100209685D01*
X96356652Y-100228805D01*
X96370223Y-100245375D01*
X96384129Y-100259397D01*
X96401985Y-100273338D01*
X96420365Y-100283296D01*
X96439270Y-100289271D01*
X96458700Y-100291263D01*
X96485519Y-100290392D01*
X96510777Y-100287782D01*
X96534474Y-100283432D01*
X96556611Y-100277341D01*
X96577186Y-100269510D01*
X96596201Y-100259938D01*
X96613655Y-100248627D01*
X96629548Y-100235575D01*
X96643880Y-100220783D01*
X96656651Y-100204251D01*
X96667861Y-100185979D01*
X96677511Y-100165966D01*
X96685599Y-100144213D01*
X96692127Y-100120720D01*
X96697094Y-100095487D01*
X96700500Y-100068513D01*
X96702664Y-100042824D01*
X96704759Y-100017537D01*
X96706786Y-99992651D01*
X96708743Y-99968167D01*
X96710632Y-99944085D01*
X96712453Y-99920405D01*
X96714205Y-99897126D01*
X96715887Y-99874248D01*
X96717502Y-99851773D01*
X96719047Y-99829699D01*
X96720524Y-99808027D01*
X96721933Y-99786756D01*
X96723272Y-99765887D01*
X96724543Y-99745420D01*
X96725745Y-99725354D01*
X96726878Y-99705690D01*
X96728939Y-99667567D01*
X96730725Y-99631051D01*
X96732237Y-99596142D01*
X96733473Y-99562839D01*
X96734435Y-99531143D01*
X96735122Y-99501053D01*
X96735534Y-99472570D01*
X96735671Y-99445694D01*
X96735643Y-99423914D01*
X96735560Y-99402356D01*
X96735422Y-99381019D01*
X96735228Y-99359904D01*
X96734979Y-99339009D01*
X96734675Y-99318336D01*
X96734315Y-99297885D01*
X96733900Y-99277655D01*
X96733430Y-99257646D01*
X96732904Y-99237858D01*
X96732323Y-99218292D01*
X96730995Y-99179824D01*
X96729446Y-99142241D01*
X96727675Y-99105544D01*
X96725683Y-99069732D01*
X96723470Y-99034805D01*
X96721035Y-99000764D01*
X96718379Y-98967608D01*
X96715501Y-98935337D01*
X96712402Y-98903952D01*
X96709082Y-98873452D01*
X96707339Y-98858534D01*
X96710104Y-98838596D01*
X96710758Y-98822875D01*
X96707307Y-98801293D01*
X96696951Y-98784177D01*
X96679692Y-98771526D01*
X96660036Y-98764395D01*
X96635585Y-98760364D01*
X96612573Y-98759371D01*
X96590713Y-98759921D01*
X96568853Y-98761570D01*
X96546994Y-98764317D01*
X96525134Y-98768164D01*
X96503274Y-98773110D01*
X96481414Y-98779155D01*
X96459555Y-98786299D01*
X96437695Y-98794542D01*
X96417704Y-98802179D01*
X96399679Y-98810433D01*
X96378705Y-98822401D01*
X96361226Y-98835468D01*
X96347243Y-98849634D01*
X96334680Y-98868888D01*
X96327580Y-98889858D01*
X96325832Y-98907871D01*
G37*
G36*
X94925832Y-99863349D02*
G01*
X94927279Y-99883926D01*
X94931619Y-99905172D01*
X94938853Y-99927088D01*
X94948981Y-99949674D01*
X94962003Y-99972929D01*
X94977918Y-99996855D01*
X94990136Y-100013177D01*
X95003640Y-100029797D01*
X95018430Y-100046714D01*
X95034506Y-100063930D01*
X95051869Y-100081443D01*
X95070517Y-100099253D01*
X95090451Y-100117362D01*
X95108714Y-100133942D01*
X95126744Y-100149731D01*
X95144542Y-100164731D01*
X95162106Y-100178941D01*
X95179438Y-100192361D01*
X95196537Y-100204991D01*
X95213403Y-100216831D01*
X95230036Y-100227882D01*
X95254550Y-100242975D01*
X95278539Y-100256292D01*
X95302005Y-100267831D01*
X95324947Y-100277593D01*
X95347366Y-100285577D01*
X95354722Y-100287843D01*
X95376597Y-100294041D01*
X95398256Y-100299630D01*
X95419702Y-100304609D01*
X95440932Y-100308978D01*
X95461948Y-100312737D01*
X95482749Y-100315887D01*
X95503336Y-100318427D01*
X95523708Y-100320358D01*
X95543865Y-100321679D01*
X95563807Y-100322390D01*
X95576983Y-100322526D01*
X95611072Y-100321856D01*
X95644219Y-100319847D01*
X95676422Y-100316498D01*
X95707684Y-100311810D01*
X95738002Y-100305782D01*
X95767378Y-100298414D01*
X95795811Y-100289707D01*
X95823302Y-100279661D01*
X95849850Y-100268275D01*
X95875455Y-100255550D01*
X95900118Y-100241485D01*
X95923838Y-100226080D01*
X95946616Y-100209336D01*
X95968451Y-100191253D01*
X95989343Y-100171830D01*
X96009293Y-100151067D01*
X96028163Y-100129248D01*
X96045815Y-100106653D01*
X96062250Y-100083284D01*
X96077467Y-100059140D01*
X96091467Y-100034222D01*
X96104250Y-100008529D01*
X96115815Y-99982061D01*
X96126163Y-99954818D01*
X96135294Y-99926801D01*
X96143207Y-99898009D01*
X96149902Y-99868442D01*
X96155381Y-99838101D01*
X96159642Y-99806984D01*
X96162685Y-99775093D01*
X96164511Y-99742428D01*
X96165120Y-99708988D01*
X96164559Y-99675713D01*
X96162876Y-99641958D01*
X96160071Y-99607722D01*
X96156144Y-99573005D01*
X96151095Y-99537808D01*
X96144924Y-99502129D01*
X96137631Y-99465970D01*
X96129216Y-99429330D01*
X96119679Y-99392208D01*
X96109020Y-99354607D01*
X96103270Y-99335625D01*
X96097239Y-99316524D01*
X96090928Y-99297302D01*
X96084337Y-99277960D01*
X96077464Y-99258498D01*
X96070312Y-99238916D01*
X96062878Y-99219213D01*
X96055165Y-99199390D01*
X96047171Y-99179447D01*
X96038896Y-99159384D01*
X96030341Y-99139201D01*
X96021505Y-99118897D01*
X96010734Y-99094854D01*
X95999853Y-99071575D01*
X95988863Y-99049059D01*
X95977763Y-99027306D01*
X95966553Y-99006316D01*
X95955233Y-98986090D01*
X95943804Y-98966627D01*
X95932265Y-98947927D01*
X95920616Y-98929990D01*
X95908858Y-98912817D01*
X95896989Y-98896407D01*
X95885011Y-98880760D01*
X95860727Y-98851756D01*
X95836003Y-98825806D01*
X95810840Y-98802908D01*
X95785238Y-98783063D01*
X95759198Y-98766271D01*
X95732718Y-98752533D01*
X95705800Y-98741847D01*
X95678443Y-98734214D01*
X95650647Y-98729635D01*
X95622412Y-98728108D01*
X95598322Y-98728941D01*
X95573314Y-98731440D01*
X95547386Y-98735605D01*
X95520540Y-98741435D01*
X95492775Y-98748931D01*
X95473755Y-98754854D01*
X95454326Y-98761517D01*
X95434489Y-98768921D01*
X95414243Y-98777065D01*
X95393590Y-98785949D01*
X95372528Y-98795574D01*
X95351057Y-98805939D01*
X95329178Y-98817044D01*
X95318086Y-98822875D01*
X95295070Y-98836062D01*
X95273282Y-98849245D01*
X95252724Y-98862425D01*
X95233394Y-98875601D01*
X95215294Y-98888772D01*
X95198422Y-98901941D01*
X95182779Y-98915105D01*
X95161619Y-98934844D01*
X95143223Y-98954575D01*
X95127592Y-98974297D01*
X95114727Y-98994011D01*
X95104626Y-99013716D01*
X95097290Y-99033412D01*
X95090764Y-99056737D01*
X95085109Y-99080795D01*
X95080323Y-99105586D01*
X95076407Y-99131109D01*
X95074042Y-99150732D01*
X95072166Y-99170768D01*
X95070779Y-99191216D01*
X95069882Y-99212076D01*
X95069474Y-99233348D01*
X95069446Y-99240530D01*
X95069846Y-99260462D01*
X95071044Y-99280876D01*
X95073040Y-99301770D01*
X95075835Y-99323145D01*
X95079428Y-99345001D01*
X95083821Y-99367338D01*
X95089011Y-99390155D01*
X95095000Y-99413454D01*
X95101788Y-99437233D01*
X95109374Y-99461493D01*
X95114876Y-99477934D01*
X95122006Y-99498460D01*
X95129355Y-99517662D01*
X95140785Y-99543981D01*
X95152705Y-99567321D01*
X95165114Y-99587681D01*
X95178012Y-99605062D01*
X95191400Y-99619464D01*
X95210013Y-99634030D01*
X95229495Y-99643300D01*
X95249847Y-99647273D01*
X95255071Y-99647438D01*
X95277162Y-99646288D01*
X95298737Y-99642836D01*
X95319797Y-99637083D01*
X95340342Y-99629029D01*
X95360372Y-99618673D01*
X95366934Y-99614710D01*
X95385088Y-99603008D01*
X95400165Y-99590496D01*
X95414195Y-99574410D01*
X95423795Y-99557156D01*
X95429395Y-99535551D01*
X95429949Y-99525806D01*
X95423080Y-99507466D01*
X95415172Y-99488549D01*
X95406013Y-99467088D01*
X95398686Y-99450090D01*
X95391834Y-99430255D01*
X95387970Y-99409332D01*
X95385497Y-99388541D01*
X95383573Y-99364147D01*
X95382491Y-99343488D01*
X95381719Y-99320802D01*
X95381255Y-99296089D01*
X95381100Y-99269351D01*
X95381190Y-99247296D01*
X95381461Y-99226743D01*
X95382102Y-99201678D01*
X95383064Y-99179284D01*
X95384346Y-99159561D01*
X95386400Y-99138665D01*
X95389525Y-99119099D01*
X95391359Y-99111570D01*
X95397488Y-99087641D01*
X95405372Y-99066904D01*
X95415012Y-99049356D01*
X95429531Y-99031909D01*
X95446792Y-99019446D01*
X95466797Y-99011969D01*
X95489544Y-99009476D01*
X95510677Y-99010583D01*
X95531210Y-99013903D01*
X95551145Y-99019437D01*
X95570480Y-99027184D01*
X95589216Y-99037144D01*
X95607353Y-99049318D01*
X95624891Y-99063706D01*
X95641830Y-99080307D01*
X95658169Y-99099121D01*
X95673909Y-99120149D01*
X95689050Y-99143390D01*
X95703592Y-99168845D01*
X95717535Y-99196513D01*
X95730879Y-99226394D01*
X95743624Y-99258489D01*
X95755769Y-99292798D01*
X95764228Y-99319065D01*
X95772141Y-99345356D01*
X95779508Y-99371669D01*
X95786330Y-99398005D01*
X95792606Y-99424365D01*
X95798336Y-99450747D01*
X95803520Y-99477152D01*
X95808159Y-99503579D01*
X95812252Y-99530030D01*
X95815799Y-99556504D01*
X95818801Y-99583000D01*
X95821256Y-99609520D01*
X95823167Y-99636062D01*
X95824531Y-99662627D01*
X95825349Y-99689215D01*
X95825622Y-99715826D01*
X95825390Y-99737765D01*
X95824693Y-99759008D01*
X95823531Y-99779554D01*
X95821905Y-99799403D01*
X95817259Y-99837013D01*
X95810754Y-99871837D01*
X95802391Y-99903874D01*
X95792169Y-99933126D01*
X95780088Y-99959592D01*
X95766149Y-99983272D01*
X95750352Y-100004167D01*
X95732696Y-100022275D01*
X95713181Y-100037597D01*
X95691808Y-100050134D01*
X95668576Y-100059884D01*
X95643486Y-100066849D01*
X95616537Y-100071028D01*
X95587730Y-100072421D01*
X95563603Y-100070940D01*
X95538606Y-100066498D01*
X95519288Y-100061223D01*
X95499480Y-100054282D01*
X95479182Y-100045675D01*
X95458396Y-100035403D01*
X95437119Y-100023465D01*
X95415353Y-100009860D01*
X95393098Y-99994591D01*
X95370354Y-99977655D01*
X95349963Y-99961051D01*
X95330741Y-99944396D01*
X95312686Y-99927689D01*
X95295799Y-99910931D01*
X95280079Y-99894121D01*
X95265528Y-99877260D01*
X95252144Y-99860347D01*
X95239928Y-99843382D01*
X95228880Y-99826366D01*
X95218999Y-99809299D01*
X95213061Y-99797892D01*
X95202314Y-99778512D01*
X95191137Y-99761038D01*
X95175566Y-99740705D01*
X95159232Y-99723761D01*
X95142135Y-99710205D01*
X95124275Y-99700038D01*
X95105652Y-99693261D01*
X95086265Y-99689872D01*
X95076285Y-99689448D01*
X95056805Y-99691595D01*
X95037565Y-99698035D01*
X95018566Y-99708768D01*
X95002917Y-99720992D01*
X94987434Y-99736198D01*
X94975169Y-99750509D01*
X94960955Y-99769235D01*
X94949151Y-99787556D01*
X94939756Y-99805471D01*
X94931662Y-99826434D01*
X94927036Y-99846813D01*
X94925832Y-99863349D01*
G37*
G36*
X100845274Y-101213035D02*
G01*
X100866989Y-101213916D01*
X100888466Y-101215382D01*
X100909705Y-101217436D01*
X100930705Y-101220076D01*
X100951467Y-101223304D01*
X100971990Y-101227118D01*
X100992274Y-101231518D01*
X101012320Y-101236506D01*
X101032128Y-101242080D01*
X101051697Y-101248241D01*
X101071028Y-101254988D01*
X101090119Y-101262323D01*
X101108973Y-101270244D01*
X101127588Y-101278752D01*
X101145964Y-101287847D01*
X101164102Y-101297528D01*
X101182002Y-101307796D01*
X101199662Y-101318651D01*
X101217085Y-101330093D01*
X101234269Y-101342122D01*
X101251214Y-101354737D01*
X101267921Y-101367939D01*
X101284389Y-101381728D01*
X101300619Y-101396103D01*
X101316610Y-101411065D01*
X101332363Y-101426614D01*
X101347877Y-101442750D01*
X101363152Y-101459473D01*
X101378190Y-101476782D01*
X101392988Y-101494678D01*
X101407548Y-101513161D01*
X101406747Y-101507307D01*
X101404783Y-101486937D01*
X101404129Y-101466755D01*
X101405007Y-101443880D01*
X101407640Y-101421905D01*
X101412029Y-101400832D01*
X101418173Y-101380659D01*
X101426073Y-101361387D01*
X101435728Y-101343015D01*
X101447139Y-101325544D01*
X101460305Y-101308974D01*
X101474837Y-101293747D01*
X101490591Y-101280550D01*
X101507566Y-101269383D01*
X101525762Y-101260247D01*
X101545179Y-101253141D01*
X101565818Y-101248066D01*
X101587677Y-101245020D01*
X101610758Y-101244005D01*
X101625961Y-101244744D01*
X101646512Y-101248026D01*
X101667383Y-101253933D01*
X101688575Y-101262466D01*
X101710087Y-101273625D01*
X101731920Y-101287410D01*
X101748506Y-101299471D01*
X101765271Y-101313009D01*
X101782217Y-101328025D01*
X101777958Y-101350174D01*
X101773974Y-101370950D01*
X101768513Y-101399538D01*
X101763670Y-101425035D01*
X101759445Y-101447440D01*
X101754774Y-101472506D01*
X101750481Y-101496109D01*
X101747046Y-101517557D01*
X101747046Y-101833607D01*
X101747200Y-101852957D01*
X101747664Y-101874188D01*
X101748437Y-101897299D01*
X101749519Y-101922290D01*
X101750910Y-101949162D01*
X101752610Y-101977915D01*
X101753915Y-101998128D01*
X101755358Y-102019177D01*
X101756938Y-102041061D01*
X101758655Y-102063781D01*
X101760510Y-102087337D01*
X101762502Y-102111729D01*
X101764631Y-102136957D01*
X101766746Y-102162213D01*
X101768692Y-102186691D01*
X101770470Y-102210390D01*
X101772081Y-102233311D01*
X101773523Y-102255453D01*
X101774798Y-102276816D01*
X101775905Y-102297402D01*
X101777250Y-102326819D01*
X101778217Y-102354486D01*
X101778807Y-102380400D01*
X101779019Y-102404563D01*
X101778853Y-102426974D01*
X101778309Y-102447634D01*
X101778309Y-102686015D01*
X101778372Y-102694113D01*
X101779080Y-102716295D01*
X101780214Y-102736033D01*
X101781851Y-102757542D01*
X101783992Y-102780821D01*
X101786637Y-102805871D01*
X101788951Y-102825821D01*
X101791548Y-102846767D01*
X101794429Y-102868709D01*
X101797223Y-102890533D01*
X101799741Y-102911310D01*
X101802672Y-102937383D01*
X101805115Y-102961593D01*
X101807069Y-102983942D01*
X101808534Y-103004427D01*
X101809679Y-103027416D01*
X101810061Y-103047494D01*
X101810034Y-103066652D01*
X101809894Y-103094874D01*
X101809633Y-103122477D01*
X101809252Y-103149462D01*
X101808752Y-103175829D01*
X101808130Y-103201577D01*
X101807389Y-103226707D01*
X101806528Y-103251220D01*
X101805546Y-103275113D01*
X101804444Y-103298389D01*
X101803222Y-103321046D01*
X101801798Y-103343429D01*
X101800215Y-103364903D01*
X101798470Y-103385469D01*
X101796566Y-103405127D01*
X101793409Y-103432910D01*
X101789891Y-103458650D01*
X101786013Y-103482347D01*
X101781774Y-103503999D01*
X101775561Y-103529691D01*
X101768707Y-103551749D01*
X101761212Y-103570174D01*
X101753795Y-103583779D01*
X101741188Y-103602541D01*
X101726804Y-103619328D01*
X101710643Y-103634140D01*
X101692704Y-103646977D01*
X101672987Y-103657839D01*
X101651494Y-103666726D01*
X101628222Y-103673638D01*
X101603174Y-103678576D01*
X101576347Y-103681538D01*
X101547744Y-103682526D01*
X101539014Y-103682314D01*
X101517741Y-103679931D01*
X101497254Y-103674901D01*
X101477555Y-103667223D01*
X101458643Y-103656897D01*
X101440518Y-103643924D01*
X101423180Y-103628304D01*
X101416614Y-103621515D01*
X101402052Y-103603907D01*
X101390138Y-103585393D01*
X101380872Y-103565973D01*
X101374253Y-103545647D01*
X101370282Y-103524414D01*
X101368958Y-103502274D01*
X101369217Y-103499594D01*
X101375446Y-103480436D01*
X101383555Y-103461609D01*
X101392379Y-103442753D01*
X101403278Y-103420523D01*
X101412815Y-103401637D01*
X101423520Y-103380853D01*
X101435392Y-103358171D01*
X101440880Y-103346344D01*
X101448396Y-103326386D01*
X101455054Y-103303766D01*
X101460852Y-103278484D01*
X101465793Y-103250540D01*
X101468609Y-103230432D01*
X101471044Y-103209141D01*
X101473097Y-103186667D01*
X101474769Y-103163010D01*
X101476058Y-103138169D01*
X101476967Y-103112146D01*
X101477493Y-103084940D01*
X101477638Y-103056550D01*
X101477402Y-103026978D01*
X101477402Y-102951263D01*
X101461370Y-102961631D01*
X101428916Y-102981380D01*
X101395943Y-102999813D01*
X101362451Y-103016929D01*
X101328440Y-103032729D01*
X101293911Y-103047211D01*
X101258862Y-103060378D01*
X101223294Y-103072227D01*
X101187207Y-103082760D01*
X101150601Y-103091977D01*
X101113476Y-103099876D01*
X101075832Y-103106459D01*
X101037669Y-103111726D01*
X100998987Y-103115676D01*
X100979452Y-103117157D01*
X100959786Y-103118309D01*
X100939991Y-103119132D01*
X100920066Y-103119626D01*
X100900012Y-103119790D01*
X100861109Y-103119001D01*
X100823171Y-103116632D01*
X100786195Y-103112685D01*
X100750184Y-103107158D01*
X100715136Y-103100053D01*
X100681052Y-103091368D01*
X100647931Y-103081105D01*
X100615774Y-103069262D01*
X100584581Y-103055841D01*
X100554351Y-103040841D01*
X100525085Y-103024261D01*
X100496782Y-103006103D01*
X100469443Y-102986365D01*
X100443068Y-102965049D01*
X100417656Y-102942154D01*
X100393208Y-102917679D01*
X100369723Y-102891626D01*
X100347202Y-102863993D01*
X100325645Y-102834782D01*
X100305051Y-102803992D01*
X100285421Y-102771622D01*
X100266755Y-102737674D01*
X100249052Y-102702147D01*
X100232313Y-102665040D01*
X100216537Y-102626355D01*
X100201725Y-102586091D01*
X100187877Y-102544248D01*
X100174992Y-102500825D01*
X100163071Y-102455824D01*
X100152113Y-102409244D01*
X100142119Y-102361085D01*
X100133089Y-102311346D01*
X100132458Y-102307635D01*
X100129092Y-102284622D01*
X100126838Y-102264475D01*
X100125085Y-102243444D01*
X100123833Y-102221532D01*
X100123081Y-102198737D01*
X100122831Y-102175059D01*
X100123018Y-102163181D01*
X100123934Y-102142077D01*
X100125216Y-102121690D01*
X100125681Y-102115464D01*
X100437904Y-102115464D01*
X100438155Y-102116053D01*
X100441521Y-102135340D01*
X100444676Y-102154731D01*
X100448162Y-102176524D01*
X100452108Y-102196388D01*
X100460042Y-102234948D01*
X100468033Y-102271951D01*
X100476082Y-102307396D01*
X100484188Y-102341285D01*
X100492351Y-102373617D01*
X100500571Y-102404391D01*
X100508849Y-102433609D01*
X100517183Y-102461269D01*
X100525576Y-102487373D01*
X100534025Y-102511919D01*
X100542531Y-102534909D01*
X100551095Y-102556341D01*
X100559716Y-102576216D01*
X100568394Y-102594534D01*
X100581519Y-102619092D01*
X100597391Y-102645652D01*
X100614354Y-102670498D01*
X100632409Y-102693630D01*
X100651556Y-102715049D01*
X100671793Y-102734755D01*
X100693123Y-102752747D01*
X100715543Y-102769025D01*
X100739056Y-102783590D01*
X100763659Y-102796441D01*
X100789354Y-102807579D01*
X100816141Y-102817003D01*
X100844019Y-102824714D01*
X100872989Y-102830712D01*
X100903049Y-102834995D01*
X100934202Y-102837566D01*
X100966446Y-102838422D01*
X100996589Y-102837964D01*
X101025776Y-102836589D01*
X101054005Y-102834296D01*
X101081278Y-102831087D01*
X101107594Y-102826962D01*
X101132953Y-102821919D01*
X101157354Y-102815959D01*
X101180799Y-102809083D01*
X101203287Y-102801289D01*
X101224818Y-102792579D01*
X101245393Y-102782952D01*
X101265010Y-102772408D01*
X101283670Y-102760947D01*
X101301373Y-102748570D01*
X101318120Y-102735275D01*
X101333909Y-102721064D01*
X101348742Y-102705935D01*
X101362617Y-102689890D01*
X101375536Y-102672928D01*
X101387498Y-102655049D01*
X101398502Y-102636254D01*
X101408550Y-102616541D01*
X101417641Y-102595912D01*
X101425775Y-102574365D01*
X101432952Y-102551902D01*
X101439172Y-102528522D01*
X101444435Y-102504225D01*
X101448741Y-102479011D01*
X101452091Y-102452881D01*
X101454483Y-102425833D01*
X101455918Y-102397869D01*
X101456397Y-102368988D01*
X101456229Y-102351467D01*
X101454890Y-102316444D01*
X101452211Y-102281449D01*
X101448192Y-102246480D01*
X101442834Y-102211538D01*
X101436137Y-102176623D01*
X101428100Y-102141734D01*
X101418723Y-102106873D01*
X101408007Y-102072037D01*
X101395951Y-102037229D01*
X101382556Y-102002447D01*
X101367821Y-101967692D01*
X101351747Y-101932964D01*
X101334333Y-101898262D01*
X101325124Y-101880922D01*
X101315580Y-101863588D01*
X101305701Y-101846260D01*
X101295487Y-101828940D01*
X101284938Y-101811625D01*
X101272834Y-101792091D01*
X101260579Y-101773176D01*
X101248173Y-101754882D01*
X101235617Y-101737208D01*
X101222909Y-101720154D01*
X101210051Y-101703720D01*
X101197042Y-101687906D01*
X101183883Y-101672712D01*
X101157112Y-101644186D01*
X101129737Y-101618139D01*
X101101760Y-101594574D01*
X101073180Y-101573489D01*
X101043997Y-101554884D01*
X101014211Y-101538760D01*
X100983821Y-101525117D01*
X100952829Y-101513954D01*
X100921234Y-101505272D01*
X100889036Y-101499071D01*
X100856235Y-101495350D01*
X100822831Y-101494110D01*
X100796998Y-101494980D01*
X100772013Y-101497590D01*
X100747875Y-101501941D01*
X100724584Y-101508032D01*
X100702141Y-101515863D01*
X100680544Y-101525434D01*
X100659795Y-101536745D01*
X100639893Y-101549797D01*
X100620838Y-101564589D01*
X100602631Y-101581121D01*
X100585270Y-101599394D01*
X100568757Y-101619406D01*
X100553091Y-101641159D01*
X100538273Y-101664652D01*
X100524301Y-101689886D01*
X100511177Y-101716859D01*
X100502304Y-101737822D01*
X100494004Y-101759312D01*
X100486276Y-101781328D01*
X100479120Y-101803871D01*
X100472537Y-101826940D01*
X100466526Y-101850536D01*
X100461088Y-101874659D01*
X100456222Y-101899309D01*
X100451929Y-101924485D01*
X100448208Y-101950187D01*
X100445060Y-101976417D01*
X100442484Y-102003173D01*
X100440480Y-102030456D01*
X100439049Y-102058265D01*
X100438190Y-102086601D01*
X100437904Y-102115464D01*
X100125681Y-102115464D01*
X100126739Y-102101297D01*
X100126739Y-102089467D01*
X100126739Y-102068096D01*
X100126739Y-102047702D01*
X100126739Y-102028025D01*
X100126906Y-102006709D01*
X100127409Y-101985626D01*
X100128246Y-101964775D01*
X100129418Y-101944158D01*
X100130925Y-101923773D01*
X100132767Y-101903621D01*
X100134943Y-101883702D01*
X100137455Y-101864016D01*
X100143483Y-101825341D01*
X100150850Y-101787598D01*
X100159557Y-101750786D01*
X100169603Y-101714905D01*
X100180989Y-101679956D01*
X100193715Y-101645937D01*
X100207780Y-101612850D01*
X100223184Y-101580694D01*
X100239928Y-101549469D01*
X100258012Y-101519175D01*
X100277435Y-101489813D01*
X100298197Y-101461381D01*
X100310363Y-101446084D01*
X100335516Y-101416947D01*
X100361765Y-101389752D01*
X100389109Y-101364499D01*
X100417548Y-101341189D01*
X100447082Y-101319822D01*
X100477712Y-101300397D01*
X100509436Y-101282915D01*
X100542257Y-101267375D01*
X100576172Y-101253777D01*
X100611183Y-101242122D01*
X100647289Y-101232410D01*
X100684490Y-101224640D01*
X100722786Y-101218812D01*
X100742345Y-101216627D01*
X100762178Y-101214927D01*
X100782285Y-101213713D01*
X100802665Y-101212985D01*
X100823319Y-101212742D01*
X100845274Y-101213035D01*
G37*
G36*
X99485905Y-102089627D02*
G01*
X99511850Y-102094184D01*
X99537303Y-102101778D01*
X99562263Y-102112411D01*
X99586731Y-102126080D01*
X99610707Y-102142788D01*
X99634191Y-102162534D01*
X99657182Y-102185317D01*
X99679681Y-102211138D01*
X99701688Y-102239997D01*
X99723202Y-102271893D01*
X99733775Y-102288981D01*
X99744224Y-102306828D01*
X99754550Y-102325434D01*
X99764754Y-102344800D01*
X99774834Y-102364925D01*
X99784791Y-102385810D01*
X99794625Y-102407454D01*
X99804336Y-102429858D01*
X99813924Y-102453021D01*
X99823389Y-102476943D01*
X99830933Y-102496671D01*
X99838237Y-102516287D01*
X99845301Y-102535792D01*
X99852126Y-102555185D01*
X99858711Y-102574466D01*
X99865057Y-102593636D01*
X99871164Y-102612694D01*
X99877031Y-102631640D01*
X99888047Y-102669198D01*
X99898105Y-102706310D01*
X99907205Y-102742975D01*
X99915347Y-102779193D01*
X99922531Y-102814966D01*
X99928757Y-102850291D01*
X99934026Y-102885170D01*
X99938336Y-102919603D01*
X99941689Y-102953589D01*
X99944083Y-102987128D01*
X99945520Y-103020221D01*
X99945999Y-103052868D01*
X99945473Y-103091606D01*
X99943894Y-103129115D01*
X99941264Y-103165394D01*
X99937580Y-103200444D01*
X99932845Y-103234263D01*
X99927057Y-103266853D01*
X99920217Y-103298213D01*
X99912324Y-103328343D01*
X99903379Y-103357243D01*
X99893382Y-103384914D01*
X99882332Y-103411355D01*
X99870230Y-103436565D01*
X99857076Y-103460547D01*
X99842870Y-103483298D01*
X99827611Y-103504819D01*
X99811299Y-103525111D01*
X99793936Y-103544173D01*
X99775520Y-103562005D01*
X99756051Y-103578607D01*
X99735531Y-103593980D01*
X99713957Y-103608123D01*
X99691332Y-103621036D01*
X99667654Y-103632719D01*
X99642924Y-103643172D01*
X99617142Y-103652396D01*
X99590307Y-103660389D01*
X99562420Y-103667153D01*
X99533481Y-103672687D01*
X99503489Y-103676992D01*
X99472445Y-103680066D01*
X99440348Y-103681911D01*
X99407199Y-103682526D01*
X99381867Y-103682211D01*
X99356672Y-103681266D01*
X99331614Y-103679692D01*
X99306693Y-103677488D01*
X99281910Y-103674655D01*
X99257265Y-103671191D01*
X99232757Y-103667098D01*
X99208386Y-103662376D01*
X99184152Y-103657023D01*
X99160056Y-103651041D01*
X99136098Y-103644430D01*
X99112276Y-103637188D01*
X99088592Y-103629317D01*
X99065046Y-103620816D01*
X99041637Y-103611686D01*
X99018365Y-103601926D01*
X98989558Y-103588788D01*
X98962609Y-103575021D01*
X98937519Y-103560624D01*
X98914287Y-103545597D01*
X98892914Y-103529941D01*
X98873399Y-103513655D01*
X98855743Y-103496739D01*
X98839945Y-103479193D01*
X98826006Y-103461018D01*
X98813926Y-103442214D01*
X98803704Y-103422779D01*
X98795341Y-103402715D01*
X98788836Y-103382021D01*
X98784189Y-103360698D01*
X98781402Y-103338744D01*
X98780472Y-103316161D01*
X98781060Y-103305514D01*
X98787672Y-103281901D01*
X98801630Y-103262581D01*
X98818086Y-103250216D01*
X98839243Y-103240599D01*
X98858197Y-103235189D01*
X98879795Y-103231325D01*
X98904038Y-103229007D01*
X98930926Y-103228234D01*
X98936595Y-103228572D01*
X98958617Y-103233638D01*
X98977477Y-103240393D01*
X98999680Y-103249849D01*
X99018527Y-103258715D01*
X99039253Y-103269101D01*
X99061861Y-103281006D01*
X99086348Y-103294431D01*
X99103718Y-103304226D01*
X99121924Y-103314696D01*
X99131210Y-103320015D01*
X99149815Y-103330148D01*
X99168461Y-103339604D01*
X99187150Y-103348386D01*
X99205880Y-103356492D01*
X99224652Y-103363922D01*
X99243467Y-103370677D01*
X99262323Y-103376756D01*
X99281221Y-103382160D01*
X99309647Y-103388999D01*
X99338168Y-103394319D01*
X99366783Y-103398118D01*
X99395492Y-103400398D01*
X99424296Y-103401158D01*
X99446357Y-103399866D01*
X99467108Y-103395991D01*
X99486550Y-103389532D01*
X99504683Y-103380489D01*
X99521507Y-103368863D01*
X99537022Y-103354653D01*
X99551228Y-103337859D01*
X99564125Y-103318482D01*
X99575714Y-103296521D01*
X99585993Y-103271976D01*
X99594963Y-103244848D01*
X99602624Y-103215136D01*
X99608976Y-103182841D01*
X99614020Y-103147962D01*
X99617754Y-103110499D01*
X99619130Y-103090799D01*
X99620179Y-103070453D01*
X99613460Y-103073488D01*
X99593999Y-103082016D01*
X99569682Y-103092038D01*
X99547227Y-103100518D01*
X99526634Y-103107456D01*
X99503512Y-103113960D01*
X99483300Y-103118056D01*
X99462887Y-103119790D01*
X99431654Y-103119305D01*
X99400971Y-103117851D01*
X99370838Y-103115428D01*
X99341254Y-103112035D01*
X99312219Y-103107673D01*
X99283735Y-103102342D01*
X99255799Y-103096041D01*
X99228414Y-103088771D01*
X99201577Y-103080532D01*
X99175291Y-103071323D01*
X99149554Y-103061145D01*
X99124366Y-103049998D01*
X99099728Y-103037881D01*
X99075640Y-103024795D01*
X99052101Y-103010740D01*
X99029112Y-102995715D01*
X99004090Y-102978061D01*
X98980683Y-102959658D01*
X98958890Y-102940508D01*
X98938711Y-102920610D01*
X98920147Y-102899964D01*
X98903197Y-102878570D01*
X98887861Y-102856428D01*
X98874139Y-102833538D01*
X98862032Y-102809899D01*
X98851539Y-102785513D01*
X98842661Y-102760379D01*
X98835396Y-102734497D01*
X98829746Y-102707867D01*
X98825711Y-102680489D01*
X98823289Y-102652363D01*
X98822482Y-102623489D01*
X98822609Y-102620069D01*
X99161980Y-102620069D01*
X99162978Y-102646510D01*
X99165971Y-102671246D01*
X99170961Y-102694275D01*
X99177947Y-102715599D01*
X99186929Y-102735216D01*
X99197906Y-102753128D01*
X99210880Y-102769334D01*
X99225849Y-102783834D01*
X99242814Y-102796628D01*
X99261776Y-102807716D01*
X99282733Y-102817099D01*
X99305686Y-102824775D01*
X99330635Y-102830746D01*
X99357580Y-102835011D01*
X99386521Y-102837569D01*
X99417458Y-102838422D01*
X99434539Y-102837751D01*
X99454818Y-102835022D01*
X99473904Y-102830194D01*
X99495234Y-102821631D01*
X99514846Y-102810044D01*
X99532740Y-102795436D01*
X99543388Y-102784300D01*
X99556697Y-102766136D01*
X99566812Y-102746221D01*
X99573733Y-102724554D01*
X99577060Y-102705160D01*
X99578169Y-102684549D01*
X99578118Y-102676979D01*
X99577353Y-102654645D01*
X99575668Y-102632878D01*
X99573065Y-102611677D01*
X99569543Y-102591044D01*
X99565102Y-102570976D01*
X99559743Y-102551476D01*
X99553465Y-102532543D01*
X99546268Y-102514176D01*
X99538152Y-102496376D01*
X99525901Y-102473524D01*
X99513623Y-102454929D01*
X99500416Y-102438164D01*
X99486283Y-102423227D01*
X99471222Y-102410120D01*
X99449698Y-102395488D01*
X99426525Y-102384108D01*
X99408064Y-102377706D01*
X99388675Y-102373134D01*
X99368359Y-102370391D01*
X99347116Y-102369476D01*
X99336802Y-102369791D01*
X99316942Y-102372310D01*
X99293555Y-102379000D01*
X99271767Y-102389626D01*
X99255486Y-102400961D01*
X99240229Y-102414814D01*
X99225994Y-102431186D01*
X99212782Y-102450076D01*
X99200875Y-102470364D01*
X99190556Y-102490926D01*
X99181824Y-102511763D01*
X99174680Y-102532875D01*
X99169124Y-102554261D01*
X99165155Y-102575922D01*
X99162773Y-102597858D01*
X99161980Y-102620069D01*
X98822609Y-102620069D01*
X98823350Y-102600038D01*
X98825955Y-102576701D01*
X98830296Y-102553479D01*
X98836373Y-102530371D01*
X98844187Y-102507378D01*
X98853738Y-102484499D01*
X98865024Y-102461735D01*
X98878047Y-102439085D01*
X98892807Y-102416550D01*
X98909303Y-102394129D01*
X98927535Y-102371823D01*
X98947504Y-102349631D01*
X98969209Y-102327554D01*
X98992651Y-102305591D01*
X99017829Y-102283743D01*
X99044743Y-102262009D01*
X99072409Y-102240951D01*
X99099843Y-102221251D01*
X99127043Y-102202910D01*
X99154011Y-102185928D01*
X99180746Y-102170304D01*
X99207248Y-102156038D01*
X99233518Y-102143132D01*
X99259555Y-102131584D01*
X99285359Y-102121394D01*
X99310930Y-102112563D01*
X99336268Y-102105091D01*
X99361373Y-102098977D01*
X99386246Y-102094222D01*
X99410886Y-102090826D01*
X99435293Y-102088788D01*
X99459467Y-102088108D01*
X99485905Y-102089627D01*
G37*
G36*
X98062538Y-102089780D02*
G01*
X98091898Y-102094795D01*
X98120683Y-102103152D01*
X98148891Y-102114853D01*
X98176523Y-102129897D01*
X98203578Y-102148284D01*
X98230058Y-102170014D01*
X98255961Y-102195087D01*
X98281288Y-102223503D01*
X98293735Y-102238965D01*
X98306038Y-102255262D01*
X98318197Y-102272395D01*
X98330213Y-102290364D01*
X98342084Y-102309169D01*
X98353811Y-102328810D01*
X98365393Y-102349286D01*
X98376832Y-102370598D01*
X98388127Y-102392746D01*
X98399278Y-102415730D01*
X98410285Y-102439549D01*
X98421147Y-102464204D01*
X98431866Y-102489695D01*
X98442440Y-102516022D01*
X98450825Y-102537764D01*
X98458944Y-102559392D01*
X98466796Y-102580907D01*
X98474383Y-102602308D01*
X98481703Y-102623596D01*
X98488757Y-102644770D01*
X98495544Y-102665831D01*
X98502066Y-102686778D01*
X98508321Y-102707612D01*
X98514311Y-102728332D01*
X98520034Y-102748938D01*
X98525490Y-102769431D01*
X98530681Y-102789811D01*
X98535605Y-102810077D01*
X98540264Y-102830229D01*
X98544656Y-102850268D01*
X98548782Y-102870194D01*
X98552641Y-102890005D01*
X98556235Y-102909704D01*
X98559562Y-102929288D01*
X98562623Y-102948760D01*
X98565418Y-102968117D01*
X98570210Y-103006492D01*
X98573936Y-103044413D01*
X98576598Y-103081879D01*
X98578195Y-103118891D01*
X98578728Y-103155450D01*
X98578304Y-103185388D01*
X98577033Y-103214388D01*
X98574915Y-103242450D01*
X98571950Y-103269572D01*
X98568137Y-103295756D01*
X98563478Y-103321000D01*
X98557971Y-103345306D01*
X98551617Y-103368674D01*
X98544415Y-103391102D01*
X98536367Y-103412592D01*
X98527471Y-103433142D01*
X98517728Y-103452754D01*
X98507138Y-103471427D01*
X98495700Y-103489162D01*
X98483416Y-103505957D01*
X98470284Y-103521814D01*
X98455423Y-103537789D01*
X98438929Y-103553230D01*
X98420802Y-103568136D01*
X98401041Y-103582508D01*
X98379647Y-103596346D01*
X98362529Y-103606374D01*
X98344493Y-103616101D01*
X98325538Y-103625528D01*
X98305664Y-103634654D01*
X98285516Y-103643209D01*
X98265736Y-103650923D01*
X98246326Y-103657795D01*
X98227285Y-103663826D01*
X98202472Y-103670558D01*
X98178314Y-103675794D01*
X98154814Y-103679534D01*
X98131969Y-103681778D01*
X98109781Y-103682526D01*
X98083756Y-103682104D01*
X98058193Y-103680839D01*
X98033091Y-103678730D01*
X98008451Y-103675778D01*
X97984273Y-103671983D01*
X97960557Y-103667344D01*
X97937302Y-103661862D01*
X97914509Y-103655537D01*
X97892178Y-103648368D01*
X97870309Y-103640356D01*
X97848901Y-103631500D01*
X97827956Y-103621801D01*
X97807472Y-103611258D01*
X97787450Y-103599872D01*
X97767889Y-103587643D01*
X97748790Y-103574570D01*
X97746957Y-103589613D01*
X97744793Y-103610591D01*
X97742950Y-103632622D01*
X97741427Y-103655707D01*
X97740225Y-103679845D01*
X97739344Y-103705037D01*
X97738893Y-103724621D01*
X97738622Y-103744799D01*
X97738532Y-103765568D01*
X97738840Y-103789310D01*
X97739763Y-103812299D01*
X97741301Y-103834533D01*
X97743455Y-103856014D01*
X97746225Y-103876742D01*
X97749609Y-103896715D01*
X97758224Y-103934401D01*
X97769301Y-103969072D01*
X97782839Y-104000728D01*
X97798839Y-104029370D01*
X97817301Y-104054996D01*
X97838223Y-104077608D01*
X97861608Y-104097204D01*
X97887454Y-104113786D01*
X97915761Y-104127353D01*
X97946530Y-104137905D01*
X97979760Y-104145442D01*
X98015452Y-104149964D01*
X98053606Y-104151472D01*
X98058662Y-104151403D01*
X98080027Y-104150081D01*
X98102879Y-104147608D01*
X98125123Y-104144603D01*
X98145013Y-104141580D01*
X98166766Y-104138008D01*
X98190382Y-104133886D01*
X98202275Y-104131705D01*
X98224150Y-104127446D01*
X98243476Y-104123325D01*
X98264048Y-104118366D01*
X98286157Y-104111784D01*
X98304199Y-104103112D01*
X98313877Y-104093525D01*
X98327280Y-104077466D01*
X98339776Y-104061175D01*
X98351790Y-104044817D01*
X98365259Y-104025931D01*
X98377955Y-104012227D01*
X98394672Y-104001888D01*
X98415408Y-103994916D01*
X98436383Y-103991619D01*
X98456118Y-103990760D01*
X98464953Y-103990906D01*
X98489778Y-103993096D01*
X98512077Y-103997913D01*
X98531852Y-104005357D01*
X98549103Y-104015430D01*
X98568177Y-104032946D01*
X98579537Y-104049149D01*
X98588372Y-104067980D01*
X98594684Y-104089438D01*
X98598470Y-104113524D01*
X98599733Y-104140237D01*
X98598666Y-104154628D01*
X98593066Y-104175914D01*
X98582666Y-104196840D01*
X98567466Y-104217405D01*
X98547467Y-104237610D01*
X98531467Y-104250879D01*
X98513334Y-104263988D01*
X98493067Y-104276936D01*
X98470667Y-104289725D01*
X98446134Y-104302353D01*
X98419468Y-104314821D01*
X98390668Y-104327128D01*
X98359735Y-104339276D01*
X98326669Y-104351263D01*
X98312514Y-104356281D01*
X98284636Y-104365841D01*
X98257334Y-104374764D01*
X98230609Y-104383049D01*
X98204459Y-104390697D01*
X98178886Y-104397707D01*
X98153890Y-104404081D01*
X98129469Y-104409816D01*
X98105625Y-104414915D01*
X98082357Y-104419376D01*
X98059665Y-104423200D01*
X98037550Y-104426387D01*
X98016011Y-104428936D01*
X97995048Y-104430848D01*
X97974661Y-104432123D01*
X97945162Y-104432840D01*
X97917687Y-104432123D01*
X97890402Y-104429972D01*
X97863305Y-104426387D01*
X97836397Y-104421368D01*
X97809679Y-104414915D01*
X97783149Y-104407028D01*
X97756808Y-104397707D01*
X97730655Y-104386953D01*
X97704692Y-104374764D01*
X97678918Y-104361141D01*
X97661840Y-104351263D01*
X97645087Y-104340930D01*
X97621244Y-104324694D01*
X97598948Y-104307574D01*
X97578196Y-104289569D01*
X97558991Y-104270680D01*
X97541331Y-104250906D01*
X97525217Y-104230248D01*
X97510648Y-104208705D01*
X97497625Y-104186278D01*
X97486147Y-104162967D01*
X97476215Y-104138771D01*
X97471128Y-104125393D01*
X97464113Y-104103702D01*
X97457836Y-104080061D01*
X97452298Y-104054472D01*
X97447498Y-104026933D01*
X97444708Y-104007491D01*
X97442247Y-103987182D01*
X97440113Y-103966008D01*
X97438308Y-103943967D01*
X97436831Y-103921059D01*
X97435683Y-103897286D01*
X97434862Y-103872646D01*
X97434370Y-103847140D01*
X97434206Y-103820767D01*
X97434216Y-103814193D01*
X97434374Y-103793252D01*
X97434720Y-103770481D01*
X97435255Y-103745882D01*
X97435979Y-103719454D01*
X97436892Y-103691196D01*
X97437606Y-103671342D01*
X97438404Y-103650675D01*
X97439285Y-103629195D01*
X97440251Y-103606902D01*
X97441300Y-103583796D01*
X97442434Y-103559878D01*
X97443651Y-103535146D01*
X97444952Y-103509602D01*
X97446195Y-103484057D01*
X97447357Y-103459326D01*
X97448439Y-103435407D01*
X97449440Y-103412301D01*
X97450362Y-103390009D01*
X97451203Y-103368529D01*
X97451965Y-103347861D01*
X97452957Y-103318385D01*
X97453768Y-103290737D01*
X97454399Y-103264919D01*
X97454850Y-103240929D01*
X97455120Y-103218768D01*
X97455211Y-103198436D01*
X97454901Y-103176339D01*
X97453974Y-103152910D01*
X97452429Y-103128150D01*
X97450265Y-103102060D01*
X97447483Y-103074638D01*
X97444082Y-103045886D01*
X97441472Y-103025978D01*
X97438587Y-103005479D01*
X97435427Y-102984388D01*
X97431992Y-102962706D01*
X97428283Y-102940432D01*
X97424299Y-102917567D01*
X97420040Y-102894110D01*
X97415340Y-102867390D01*
X97410888Y-102841697D01*
X97406685Y-102817030D01*
X97403317Y-102796901D01*
X97728274Y-102796901D01*
X97728576Y-102821886D01*
X97729480Y-102846895D01*
X97730987Y-102871926D01*
X97733098Y-102896980D01*
X97735811Y-102922056D01*
X97739128Y-102947156D01*
X97743047Y-102972279D01*
X97747569Y-102997424D01*
X97752695Y-103022593D01*
X97758423Y-103047784D01*
X97764754Y-103072999D01*
X97771688Y-103098236D01*
X97779225Y-103123496D01*
X97787366Y-103148779D01*
X97796109Y-103174085D01*
X97805455Y-103199413D01*
X97817942Y-103231415D01*
X97830978Y-103261352D01*
X97844564Y-103289224D01*
X97858700Y-103315032D01*
X97873385Y-103338775D01*
X97888620Y-103360453D01*
X97904404Y-103380067D01*
X97920737Y-103397616D01*
X97937621Y-103413101D01*
X97955054Y-103426521D01*
X97973036Y-103437876D01*
X97991568Y-103447167D01*
X98010649Y-103454393D01*
X98030280Y-103459555D01*
X98050461Y-103462652D01*
X98071191Y-103463684D01*
X98092782Y-103462388D01*
X98112979Y-103458502D01*
X98131784Y-103452023D01*
X98149196Y-103442954D01*
X98165215Y-103431293D01*
X98179841Y-103417041D01*
X98193074Y-103400198D01*
X98204914Y-103380764D01*
X98215361Y-103358738D01*
X98224415Y-103334121D01*
X98232076Y-103306913D01*
X98238345Y-103277113D01*
X98243220Y-103244722D01*
X98246702Y-103209740D01*
X98248792Y-103172167D01*
X98249314Y-103152408D01*
X98249488Y-103132002D01*
X98249269Y-103109767D01*
X98248611Y-103087023D01*
X98247513Y-103063773D01*
X98245977Y-103040014D01*
X98244002Y-103015748D01*
X98241589Y-102990975D01*
X98238736Y-102965694D01*
X98235444Y-102939905D01*
X98231714Y-102913609D01*
X98227545Y-102886805D01*
X98222936Y-102859494D01*
X98217889Y-102831675D01*
X98212403Y-102803349D01*
X98206479Y-102774515D01*
X98200115Y-102745173D01*
X98193312Y-102715324D01*
X98183575Y-102677230D01*
X98173536Y-102641593D01*
X98163196Y-102608414D01*
X98152554Y-102577693D01*
X98141611Y-102549430D01*
X98130367Y-102523624D01*
X98118820Y-102500276D01*
X98106973Y-102479385D01*
X98094823Y-102460953D01*
X98082373Y-102444978D01*
X98063132Y-102425623D01*
X98043212Y-102411799D01*
X98022614Y-102403504D01*
X98001338Y-102400739D01*
X97976648Y-102401957D01*
X97953382Y-102405609D01*
X97931539Y-102411696D01*
X97911120Y-102420218D01*
X97892125Y-102431174D01*
X97874553Y-102444566D01*
X97858404Y-102460392D01*
X97843679Y-102478653D01*
X97830377Y-102499348D01*
X97818499Y-102522479D01*
X97808044Y-102548044D01*
X97799013Y-102576045D01*
X97791405Y-102606479D01*
X97785221Y-102639349D01*
X97780460Y-102674654D01*
X97777123Y-102712393D01*
X97763050Y-102723343D01*
X97749311Y-102737586D01*
X97737624Y-102755721D01*
X97730612Y-102775493D01*
X97728274Y-102796901D01*
X97403317Y-102796901D01*
X97402729Y-102793390D01*
X97399021Y-102770777D01*
X97395562Y-102749190D01*
X97392351Y-102728630D01*
X97389387Y-102709096D01*
X97385407Y-102681720D01*
X97381985Y-102656654D01*
X97379122Y-102633898D01*
X97376816Y-102613452D01*
X97374610Y-102589783D01*
X97390560Y-102578539D01*
X97408682Y-102567923D01*
X97428197Y-102557522D01*
X97447267Y-102547936D01*
X97468888Y-102537515D01*
X97472582Y-102535798D01*
X97490137Y-102526999D01*
X97509188Y-102515968D01*
X97526041Y-102504422D01*
X97542924Y-102490300D01*
X97556816Y-102475478D01*
X97569030Y-102459894D01*
X97581248Y-102444283D01*
X97593469Y-102428646D01*
X97605695Y-102412982D01*
X97617924Y-102397291D01*
X97630157Y-102381574D01*
X97642394Y-102365830D01*
X97654635Y-102350059D01*
X97666879Y-102334261D01*
X97679128Y-102318437D01*
X97691380Y-102302586D01*
X97703636Y-102286708D01*
X97715896Y-102270804D01*
X97728160Y-102254873D01*
X97740427Y-102238915D01*
X97752698Y-102222930D01*
X97769362Y-102206604D01*
X97786137Y-102191331D01*
X97803022Y-102177112D01*
X97820018Y-102163946D01*
X97837124Y-102151833D01*
X97854342Y-102140773D01*
X97871669Y-102130767D01*
X97897869Y-102117732D01*
X97924317Y-102107068D01*
X97951015Y-102098773D01*
X97977961Y-102092848D01*
X98005156Y-102089293D01*
X98032601Y-102088108D01*
X98062538Y-102089780D01*
G37*
G36*
X96636352Y-102119871D02*
G01*
X96660185Y-102121371D01*
X96683583Y-102123871D01*
X96706545Y-102127370D01*
X96729073Y-102131870D01*
X96751165Y-102137369D01*
X96772823Y-102143868D01*
X96794045Y-102151367D01*
X96814833Y-102159866D01*
X96835185Y-102169365D01*
X96855102Y-102179864D01*
X96874584Y-102191362D01*
X96893631Y-102203860D01*
X96912243Y-102217359D01*
X96930420Y-102231857D01*
X96948162Y-102247355D01*
X96965080Y-102263629D01*
X96980906Y-102280457D01*
X96995641Y-102297839D01*
X97009284Y-102315773D01*
X97021836Y-102334261D01*
X97033296Y-102353303D01*
X97043665Y-102372897D01*
X97052943Y-102393046D01*
X97061129Y-102413747D01*
X97068223Y-102435002D01*
X97074226Y-102456810D01*
X97079138Y-102479172D01*
X97082958Y-102502087D01*
X97085686Y-102525555D01*
X97087324Y-102549577D01*
X97087869Y-102574152D01*
X97087806Y-102577932D01*
X97084784Y-102600395D01*
X97077228Y-102622480D01*
X97067467Y-102640595D01*
X97054559Y-102658448D01*
X97038502Y-102676039D01*
X97023389Y-102689923D01*
X97015289Y-102696548D01*
X96999215Y-102708516D01*
X96979358Y-102721071D01*
X96959764Y-102730956D01*
X96940432Y-102738168D01*
X96921363Y-102742710D01*
X96898825Y-102744633D01*
X96875928Y-102743275D01*
X96856083Y-102739199D01*
X96835570Y-102730283D01*
X96819828Y-102717121D01*
X96808856Y-102699714D01*
X96802655Y-102678062D01*
X96801128Y-102657683D01*
X96800048Y-102626568D01*
X96796808Y-102597462D01*
X96791408Y-102570362D01*
X96783848Y-102545270D01*
X96774128Y-102522185D01*
X96762248Y-102501108D01*
X96748208Y-102482038D01*
X96732008Y-102464975D01*
X96713647Y-102449920D01*
X96693127Y-102436872D01*
X96670447Y-102425831D01*
X96645607Y-102416798D01*
X96618606Y-102409772D01*
X96589446Y-102404754D01*
X96558126Y-102401743D01*
X96524645Y-102400739D01*
X96497922Y-102402229D01*
X96472950Y-102406700D01*
X96449730Y-102414152D01*
X96428261Y-102424583D01*
X96408544Y-102437996D01*
X96390579Y-102454389D01*
X96374365Y-102473762D01*
X96359904Y-102496116D01*
X96347193Y-102521451D01*
X96336235Y-102549766D01*
X96327028Y-102581061D01*
X96319573Y-102615337D01*
X96313869Y-102652594D01*
X96311675Y-102672340D01*
X96309918Y-102692831D01*
X96308599Y-102714067D01*
X96307718Y-102736048D01*
X96307274Y-102758775D01*
X96307269Y-102782247D01*
X96307269Y-102869685D01*
X96604757Y-102869685D01*
X96627199Y-102870197D01*
X96649827Y-102871731D01*
X96672643Y-102874288D01*
X96695646Y-102877868D01*
X96718836Y-102882470D01*
X96742212Y-102888095D01*
X96765776Y-102894743D01*
X96789527Y-102902414D01*
X96813464Y-102911108D01*
X96837589Y-102920824D01*
X96861901Y-102931563D01*
X96886400Y-102943325D01*
X96911085Y-102956109D01*
X96935958Y-102969917D01*
X96961018Y-102984747D01*
X96986264Y-103000600D01*
X97013415Y-103018758D01*
X97038815Y-103037083D01*
X97062462Y-103055577D01*
X97084358Y-103074239D01*
X97104503Y-103093068D01*
X97122895Y-103112066D01*
X97139536Y-103131231D01*
X97154426Y-103150565D01*
X97167563Y-103170066D01*
X97178949Y-103189735D01*
X97188583Y-103209572D01*
X97196466Y-103229577D01*
X97202597Y-103249750D01*
X97206976Y-103270091D01*
X97209603Y-103290600D01*
X97210479Y-103311277D01*
X97209714Y-103332289D01*
X97207419Y-103352828D01*
X97203593Y-103372894D01*
X97198237Y-103392487D01*
X97191350Y-103411607D01*
X97182933Y-103430253D01*
X97172986Y-103448427D01*
X97161509Y-103466127D01*
X97148501Y-103483353D01*
X97133963Y-103500107D01*
X97117894Y-103516387D01*
X97100295Y-103532194D01*
X97081166Y-103547528D01*
X97060507Y-103562389D01*
X97038317Y-103576776D01*
X97014596Y-103590690D01*
X96993952Y-103601811D01*
X96973174Y-103612214D01*
X96952263Y-103621900D01*
X96931218Y-103630868D01*
X96910040Y-103639119D01*
X96888727Y-103646653D01*
X96867282Y-103653468D01*
X96845703Y-103659567D01*
X96823990Y-103664948D01*
X96802143Y-103669611D01*
X96780163Y-103673557D01*
X96758050Y-103676786D01*
X96735803Y-103679297D01*
X96713422Y-103681091D01*
X96690908Y-103682167D01*
X96668260Y-103682526D01*
X96644683Y-103682104D01*
X96621213Y-103680839D01*
X96597850Y-103678730D01*
X96574593Y-103675778D01*
X96551443Y-103671983D01*
X96528401Y-103667344D01*
X96505465Y-103661862D01*
X96482636Y-103655537D01*
X96459913Y-103648368D01*
X96437298Y-103640356D01*
X96414789Y-103631500D01*
X96392388Y-103621801D01*
X96370093Y-103611258D01*
X96347905Y-103599872D01*
X96325824Y-103587643D01*
X96303850Y-103574570D01*
X96305628Y-103599000D01*
X96305712Y-103621854D01*
X96304102Y-103643132D01*
X96300797Y-103662834D01*
X96292662Y-103689431D01*
X96280715Y-103712482D01*
X96264956Y-103731986D01*
X96245384Y-103747945D01*
X96222000Y-103760357D01*
X96194803Y-103769222D01*
X96174554Y-103773163D01*
X96152610Y-103775527D01*
X96128972Y-103776315D01*
X96105683Y-103775349D01*
X96084361Y-103772451D01*
X96065006Y-103767621D01*
X96042257Y-103758176D01*
X96023003Y-103745296D01*
X96007246Y-103728981D01*
X95994984Y-103709232D01*
X95986218Y-103686048D01*
X95981938Y-103666406D01*
X95980225Y-103654419D01*
X95976962Y-103628869D01*
X95973916Y-103601216D01*
X95971088Y-103571461D01*
X95968478Y-103539602D01*
X95966085Y-103505641D01*
X95963910Y-103469577D01*
X95961952Y-103431410D01*
X95961055Y-103411538D01*
X95960212Y-103391141D01*
X95959424Y-103370217D01*
X95958689Y-103348768D01*
X95958010Y-103326794D01*
X95957384Y-103304293D01*
X95956813Y-103281267D01*
X95956297Y-103257715D01*
X95955834Y-103233638D01*
X95955426Y-103209035D01*
X95955073Y-103183906D01*
X95954774Y-103158251D01*
X95954766Y-103157404D01*
X96307269Y-103157404D01*
X96308377Y-103177066D01*
X96313300Y-103202333D01*
X96322161Y-103226517D01*
X96331392Y-103243944D01*
X96342838Y-103260761D01*
X96356499Y-103276968D01*
X96372376Y-103292566D01*
X96390468Y-103307554D01*
X96410776Y-103321932D01*
X96433299Y-103335701D01*
X96446482Y-103343627D01*
X96466465Y-103354558D01*
X96486696Y-103364338D01*
X96507177Y-103372968D01*
X96527906Y-103380447D01*
X96548885Y-103386775D01*
X96570113Y-103391953D01*
X96591589Y-103395980D01*
X96613315Y-103398857D01*
X96635290Y-103400583D01*
X96657513Y-103401158D01*
X96669354Y-103401051D01*
X96691909Y-103400192D01*
X96712959Y-103398475D01*
X96741716Y-103394289D01*
X96767090Y-103388171D01*
X96789080Y-103380121D01*
X96807688Y-103370139D01*
X96827235Y-103353824D01*
X96840767Y-103334075D01*
X96848285Y-103310891D01*
X96849977Y-103291249D01*
X96848267Y-103266700D01*
X96843138Y-103243736D01*
X96834590Y-103222355D01*
X96822622Y-103202558D01*
X96807234Y-103184345D01*
X96788428Y-103167715D01*
X96766202Y-103152669D01*
X96740556Y-103139207D01*
X96711491Y-103127329D01*
X96679007Y-103117035D01*
X96643103Y-103108324D01*
X96623869Y-103104563D01*
X96603780Y-103101197D01*
X96582836Y-103098228D01*
X96561038Y-103095654D01*
X96538384Y-103093476D01*
X96514876Y-103091695D01*
X96490512Y-103090309D01*
X96465294Y-103089319D01*
X96439221Y-103088725D01*
X96412294Y-103088527D01*
X96399576Y-103088796D01*
X96376602Y-103090949D01*
X96356910Y-103095253D01*
X96336910Y-103103661D01*
X96319679Y-103118190D01*
X96309833Y-103137561D01*
X96307269Y-103157404D01*
X95954766Y-103157404D01*
X95954529Y-103132071D01*
X95954339Y-103105365D01*
X95954203Y-103078133D01*
X95954121Y-103050376D01*
X95954094Y-103022093D01*
X95954737Y-102966554D01*
X95956664Y-102912779D01*
X95959877Y-102860767D01*
X95964375Y-102810518D01*
X95970158Y-102762032D01*
X95977227Y-102715309D01*
X95985580Y-102670349D01*
X95995218Y-102627152D01*
X96006142Y-102585719D01*
X96018351Y-102546048D01*
X96031845Y-102508141D01*
X96046624Y-102471997D01*
X96062688Y-102437616D01*
X96080037Y-102404998D01*
X96098672Y-102374143D01*
X96118592Y-102345052D01*
X96139796Y-102317723D01*
X96162286Y-102292158D01*
X96186061Y-102268356D01*
X96211121Y-102246317D01*
X96237467Y-102226041D01*
X96265097Y-102207528D01*
X96294013Y-102190778D01*
X96324214Y-102175792D01*
X96355699Y-102162568D01*
X96388470Y-102151108D01*
X96422527Y-102141411D01*
X96457868Y-102133476D01*
X96494494Y-102127306D01*
X96532406Y-102122898D01*
X96571602Y-102120253D01*
X96612084Y-102119371D01*
X96636352Y-102119871D01*
G37*
G36*
X94534066Y-103276594D02*
G01*
X94534614Y-103296282D01*
X94537489Y-103325228D01*
X94542828Y-103353469D01*
X94550632Y-103381007D01*
X94560900Y-103407840D01*
X94573633Y-103433969D01*
X94583490Y-103450998D01*
X94594443Y-103467713D01*
X94606491Y-103484116D01*
X94619635Y-103500205D01*
X94633873Y-103515982D01*
X94649207Y-103531445D01*
X94665636Y-103546596D01*
X94674262Y-103554054D01*
X94693906Y-103569611D01*
X94714371Y-103584164D01*
X94735656Y-103597714D01*
X94757762Y-103610260D01*
X94780688Y-103621803D01*
X94804435Y-103632341D01*
X94829003Y-103641876D01*
X94854391Y-103650408D01*
X94880599Y-103657935D01*
X94907628Y-103664459D01*
X94935477Y-103669980D01*
X94964147Y-103674496D01*
X94993638Y-103678009D01*
X95023949Y-103680518D01*
X95055080Y-103682024D01*
X95087032Y-103682526D01*
X95108248Y-103682712D01*
X95129765Y-103681988D01*
X95151582Y-103680353D01*
X95173700Y-103677809D01*
X95196118Y-103674354D01*
X95218837Y-103669989D01*
X95241857Y-103664714D01*
X95265177Y-103658529D01*
X95288797Y-103651433D01*
X95312718Y-103643428D01*
X95328832Y-103637585D01*
X95354678Y-103627873D01*
X95379704Y-103618276D01*
X95403908Y-103608795D01*
X95427293Y-103599430D01*
X95449857Y-103590179D01*
X95471600Y-103581045D01*
X95492523Y-103572025D01*
X95512625Y-103563121D01*
X95531907Y-103554333D01*
X95550368Y-103545660D01*
X95568009Y-103537102D01*
X95600829Y-103520334D01*
X95630367Y-103504027D01*
X95656623Y-103488181D01*
X95679598Y-103472798D01*
X95699290Y-103457876D01*
X95715700Y-103443416D01*
X95734161Y-103422592D01*
X95745238Y-103402807D01*
X95748930Y-103384061D01*
X95746989Y-103356824D01*
X95741168Y-103332266D01*
X95731465Y-103310387D01*
X95717881Y-103291188D01*
X95700415Y-103274667D01*
X95679069Y-103260825D01*
X95653841Y-103249662D01*
X95634867Y-103243709D01*
X95614167Y-103238946D01*
X95591743Y-103235374D01*
X95567593Y-103232993D01*
X95541719Y-103231802D01*
X95528135Y-103231653D01*
X95508213Y-103231987D01*
X95487529Y-103232989D01*
X95466082Y-103234659D01*
X95461700Y-103235073D01*
X95456831Y-103258764D01*
X95447351Y-103281235D01*
X95433261Y-103302484D01*
X95419669Y-103317619D01*
X95403483Y-103332068D01*
X95384704Y-103345829D01*
X95363332Y-103358904D01*
X95339366Y-103371292D01*
X95312808Y-103382992D01*
X95293661Y-103390411D01*
X95268198Y-103399662D01*
X95242914Y-103407814D01*
X95217811Y-103414866D01*
X95192888Y-103420819D01*
X95168146Y-103425674D01*
X95143584Y-103429429D01*
X95119202Y-103432085D01*
X95095000Y-103433642D01*
X95070979Y-103434100D01*
X95047138Y-103433459D01*
X95031345Y-103432421D01*
X95007531Y-103429811D01*
X94986892Y-103425399D01*
X94965559Y-103417351D01*
X94949187Y-103406489D01*
X94936090Y-103389740D01*
X94930136Y-103368937D01*
X94929740Y-103361102D01*
X94932515Y-103341057D01*
X94935113Y-103330327D01*
X94938924Y-103311010D01*
X94939998Y-103298087D01*
X94955756Y-103286344D01*
X94977635Y-103277116D01*
X94997430Y-103269857D01*
X95021392Y-103261713D01*
X95042099Y-103255024D01*
X95065150Y-103247837D01*
X95073354Y-103245331D01*
X95100392Y-103237327D01*
X95125086Y-103229984D01*
X95147436Y-103223302D01*
X95167441Y-103217281D01*
X95190469Y-103210282D01*
X95209329Y-103204458D01*
X95229805Y-103197927D01*
X95240905Y-103194040D01*
X95265459Y-103179506D01*
X95289233Y-103164784D01*
X95312227Y-103149876D01*
X95334442Y-103134781D01*
X95355878Y-103119498D01*
X95376534Y-103104029D01*
X95396411Y-103088373D01*
X95415508Y-103072529D01*
X95433826Y-103056499D01*
X95451364Y-103040281D01*
X95468123Y-103023877D01*
X95484102Y-103007286D01*
X95499302Y-102990507D01*
X95513722Y-102973542D01*
X95527363Y-102956390D01*
X95540225Y-102939050D01*
X95552306Y-102921524D01*
X95563609Y-102903811D01*
X95574132Y-102885910D01*
X95583875Y-102867823D01*
X95592839Y-102849549D01*
X95601024Y-102831087D01*
X95608429Y-102812439D01*
X95615054Y-102793604D01*
X95620901Y-102774582D01*
X95625967Y-102755372D01*
X95630254Y-102735976D01*
X95633762Y-102716393D01*
X95636490Y-102696622D01*
X95638439Y-102676665D01*
X95639608Y-102656521D01*
X95639998Y-102636189D01*
X95639547Y-102611639D01*
X95638196Y-102587325D01*
X95635945Y-102563248D01*
X95632793Y-102539408D01*
X95628740Y-102515804D01*
X95623786Y-102492437D01*
X95617932Y-102469307D01*
X95611177Y-102446413D01*
X95603522Y-102423755D01*
X95594965Y-102401335D01*
X95585509Y-102379150D01*
X95575151Y-102357203D01*
X95563893Y-102335492D01*
X95551734Y-102314018D01*
X95538675Y-102292780D01*
X95524715Y-102271779D01*
X95508229Y-102249538D01*
X95491254Y-102228731D01*
X95473790Y-102209360D01*
X95455839Y-102191423D01*
X95437398Y-102174921D01*
X95418469Y-102159855D01*
X95399052Y-102146223D01*
X95379146Y-102134026D01*
X95358752Y-102123264D01*
X95337869Y-102113937D01*
X95316498Y-102106045D01*
X95294638Y-102099588D01*
X95272290Y-102094566D01*
X95249453Y-102090978D01*
X95226128Y-102088826D01*
X95202315Y-102088108D01*
X95175122Y-102089066D01*
X95147217Y-102091938D01*
X95118599Y-102096725D01*
X95099124Y-102100980D01*
X95079333Y-102106086D01*
X95059225Y-102112044D01*
X95038800Y-102118852D01*
X95018059Y-102126511D01*
X94997000Y-102135022D01*
X94975625Y-102144383D01*
X94953933Y-102154595D01*
X94931925Y-102165659D01*
X94909600Y-102177573D01*
X94886957Y-102190339D01*
X94875518Y-102197041D01*
X94853053Y-102210665D01*
X94831699Y-102224426D01*
X94811455Y-102238325D01*
X94792322Y-102252362D01*
X94774300Y-102266535D01*
X94757388Y-102280846D01*
X94741587Y-102295295D01*
X94726896Y-102309881D01*
X94713316Y-102324604D01*
X94695027Y-102346947D01*
X94679238Y-102369598D01*
X94665947Y-102392559D01*
X94655155Y-102415829D01*
X94649349Y-102431514D01*
X94642823Y-102453137D01*
X94637167Y-102473798D01*
X94632382Y-102493498D01*
X94627623Y-102516770D01*
X94624224Y-102538540D01*
X94622185Y-102558807D01*
X94621505Y-102577571D01*
X94622123Y-102599765D01*
X94623978Y-102620550D01*
X94627069Y-102639927D01*
X94632238Y-102660754D01*
X94639091Y-102679665D01*
X94646967Y-102698733D01*
X94654844Y-102717835D01*
X94662721Y-102736972D01*
X94670598Y-102756143D01*
X94678475Y-102775349D01*
X94681100Y-102781758D01*
X94697709Y-102792062D01*
X94718469Y-102803010D01*
X94739230Y-102811811D01*
X94759991Y-102818466D01*
X94780751Y-102822974D01*
X94801512Y-102825335D01*
X94813968Y-102825722D01*
X94834515Y-102823218D01*
X94853812Y-102818055D01*
X94872438Y-102811601D01*
X94893378Y-102803190D01*
X94911795Y-102795054D01*
X94931693Y-102785666D01*
X94950928Y-102775820D01*
X94971364Y-102763985D01*
X94987793Y-102752674D01*
X95004062Y-102737721D01*
X95013439Y-102720007D01*
X95013759Y-102716301D01*
X95006826Y-102696388D01*
X94997349Y-102677718D01*
X94986026Y-102657288D01*
X94974334Y-102637140D01*
X94971749Y-102632770D01*
X94962232Y-102615212D01*
X94954218Y-102596634D01*
X94948852Y-102577632D01*
X94947325Y-102562428D01*
X94947966Y-102539063D01*
X94949890Y-102517205D01*
X94953095Y-102496854D01*
X94960308Y-102469155D01*
X94970406Y-102444848D01*
X94983389Y-102423932D01*
X94999257Y-102406408D01*
X95018010Y-102392276D01*
X95039649Y-102381536D01*
X95064172Y-102374187D01*
X95091581Y-102370230D01*
X95111456Y-102369476D01*
X95135285Y-102371377D01*
X95157679Y-102377078D01*
X95178638Y-102386581D01*
X95198162Y-102399884D01*
X95216252Y-102416989D01*
X95228877Y-102432312D01*
X95240695Y-102449773D01*
X95251706Y-102469372D01*
X95261910Y-102491109D01*
X95270954Y-102515014D01*
X95278793Y-102539347D01*
X95285426Y-102564107D01*
X95290853Y-102589295D01*
X95295073Y-102614910D01*
X95297448Y-102634401D01*
X95299144Y-102654134D01*
X95300161Y-102674106D01*
X95300500Y-102694319D01*
X95298749Y-102719454D01*
X95293493Y-102744116D01*
X95284735Y-102768306D01*
X95272473Y-102792024D01*
X95256708Y-102815269D01*
X95244252Y-102830504D01*
X95230238Y-102845529D01*
X95214668Y-102860344D01*
X95197540Y-102874949D01*
X95178856Y-102889344D01*
X95158614Y-102903529D01*
X95136816Y-102917504D01*
X95113460Y-102931269D01*
X95101198Y-102938073D01*
X95078409Y-102947795D01*
X95055593Y-102957544D01*
X95032751Y-102967320D01*
X95009882Y-102977122D01*
X94986986Y-102986951D01*
X94964063Y-102996806D01*
X94941114Y-103006689D01*
X94918138Y-103016598D01*
X94895135Y-103026533D01*
X94872106Y-103036496D01*
X94849050Y-103046485D01*
X94825967Y-103056501D01*
X94802857Y-103066543D01*
X94779721Y-103076613D01*
X94756558Y-103086709D01*
X94733368Y-103096831D01*
X94709234Y-103107895D01*
X94686657Y-103118981D01*
X94665637Y-103130090D01*
X94646174Y-103141222D01*
X94628268Y-103152377D01*
X94611919Y-103163555D01*
X94590315Y-103180365D01*
X94572214Y-103197227D01*
X94557616Y-103214139D01*
X94546523Y-103231104D01*
X94537180Y-103253803D01*
X94534066Y-103276594D01*
G37*
G36*
X93302594Y-102369476D02*
G01*
X93302826Y-102390684D01*
X93303521Y-102413823D01*
X93304680Y-102438895D01*
X93306303Y-102465899D01*
X93308390Y-102494834D01*
X93310038Y-102515198D01*
X93311893Y-102536420D01*
X93313954Y-102558501D01*
X93316221Y-102581441D01*
X93318694Y-102605240D01*
X93321373Y-102629897D01*
X93324258Y-102655412D01*
X93327349Y-102681787D01*
X93328972Y-102695296D01*
X93332107Y-102722054D01*
X93335040Y-102747984D01*
X93337770Y-102773086D01*
X93340299Y-102797359D01*
X93342625Y-102820804D01*
X93344748Y-102843422D01*
X93346670Y-102865211D01*
X93348389Y-102886172D01*
X93349906Y-102906305D01*
X93351802Y-102934951D01*
X93353244Y-102961734D01*
X93354230Y-102986654D01*
X93354761Y-103009711D01*
X93354862Y-103024047D01*
X93354724Y-103049967D01*
X93354441Y-103071371D01*
X93354003Y-103094458D01*
X93353411Y-103119227D01*
X93352663Y-103145680D01*
X93351762Y-103173816D01*
X93351075Y-103193508D01*
X93350319Y-103213948D01*
X93349495Y-103235136D01*
X93348602Y-103257072D01*
X93347640Y-103279756D01*
X93346610Y-103303188D01*
X93346069Y-103315184D01*
X93345004Y-103338918D01*
X93344008Y-103361881D01*
X93343081Y-103384072D01*
X93342222Y-103405493D01*
X93341432Y-103426143D01*
X93340711Y-103446022D01*
X93339758Y-103474395D01*
X93338959Y-103501034D01*
X93338315Y-103525938D01*
X93337826Y-103549108D01*
X93337491Y-103570543D01*
X93337311Y-103590244D01*
X93337276Y-103602414D01*
X93340615Y-103625493D01*
X93350633Y-103644660D01*
X93367330Y-103659916D01*
X93385495Y-103669304D01*
X93407935Y-103676189D01*
X93427570Y-103679709D01*
X93449609Y-103681822D01*
X93474052Y-103682526D01*
X93499359Y-103681392D01*
X93522887Y-103677992D01*
X93544639Y-103672325D01*
X93564613Y-103664391D01*
X93582809Y-103654190D01*
X93599229Y-103641722D01*
X93613870Y-103626987D01*
X93626734Y-103609986D01*
X93637821Y-103590717D01*
X93647131Y-103569182D01*
X93652349Y-103553565D01*
X93668931Y-103565396D01*
X93685460Y-103576463D01*
X93710152Y-103591633D01*
X93734724Y-103605085D01*
X93759176Y-103616821D01*
X93783508Y-103626838D01*
X93807719Y-103635139D01*
X93831811Y-103641722D01*
X93855782Y-103646588D01*
X93879633Y-103649736D01*
X93903363Y-103651167D01*
X93911247Y-103651263D01*
X93937091Y-103650408D01*
X93957055Y-103648645D01*
X93977517Y-103645920D01*
X93998477Y-103642233D01*
X94019935Y-103637585D01*
X94041891Y-103631975D01*
X94064345Y-103625403D01*
X94087297Y-103617870D01*
X94110747Y-103609375D01*
X94134696Y-103599918D01*
X94142789Y-103596552D01*
X94166382Y-103586005D01*
X94188619Y-103575063D01*
X94209499Y-103563725D01*
X94229022Y-103551993D01*
X94247189Y-103539866D01*
X94263998Y-103527344D01*
X94279452Y-103514426D01*
X94297945Y-103496589D01*
X94314027Y-103478050D01*
X94324506Y-103463684D01*
X94336810Y-103444416D01*
X94348319Y-103423735D01*
X94359036Y-103401643D01*
X94368958Y-103378138D01*
X94378087Y-103353221D01*
X94386421Y-103326893D01*
X94393962Y-103299152D01*
X94400710Y-103270000D01*
X94406663Y-103239435D01*
X94411823Y-103207458D01*
X94416188Y-103174069D01*
X94419760Y-103139269D01*
X94422539Y-103103056D01*
X94424523Y-103065431D01*
X94425714Y-103026394D01*
X94426012Y-103006346D01*
X94426111Y-102985945D01*
X94426051Y-102963289D01*
X94425870Y-102937637D01*
X94425570Y-102908987D01*
X94425303Y-102888223D01*
X94424982Y-102866126D01*
X94424608Y-102842698D01*
X94424181Y-102817938D01*
X94423700Y-102791846D01*
X94423166Y-102764422D01*
X94422578Y-102735666D01*
X94421937Y-102705579D01*
X94421242Y-102674159D01*
X94420494Y-102641408D01*
X94419693Y-102607324D01*
X94419272Y-102589783D01*
X94417984Y-102558825D01*
X94416807Y-102528722D01*
X94415740Y-102499474D01*
X94414784Y-102471081D01*
X94413939Y-102443543D01*
X94413204Y-102416859D01*
X94412580Y-102391031D01*
X94412067Y-102366057D01*
X94411664Y-102341938D01*
X94411372Y-102318674D01*
X94411191Y-102296264D01*
X94411120Y-102274710D01*
X94411160Y-102254010D01*
X94411311Y-102234166D01*
X94411745Y-102206001D01*
X94411945Y-102197041D01*
X94392562Y-102183160D01*
X94373797Y-102170645D01*
X94355651Y-102159495D01*
X94338122Y-102149711D01*
X94315713Y-102138789D01*
X94294403Y-102130294D01*
X94274192Y-102124226D01*
X94250473Y-102120054D01*
X94237067Y-102119371D01*
X94216718Y-102120018D01*
X94188657Y-102123414D01*
X94163550Y-102129721D01*
X94141396Y-102138939D01*
X94122196Y-102151068D01*
X94105950Y-102166107D01*
X94092658Y-102184058D01*
X94082320Y-102204919D01*
X94074935Y-102228691D01*
X94070505Y-102255374D01*
X94069028Y-102284968D01*
X94069577Y-102308026D01*
X94070875Y-102330285D01*
X94072462Y-102350084D01*
X94074538Y-102371653D01*
X94077103Y-102394994D01*
X94080156Y-102420105D01*
X94082766Y-102440100D01*
X94084659Y-102453984D01*
X94087453Y-102474644D01*
X94089972Y-102494307D01*
X94092903Y-102518976D01*
X94095345Y-102541873D01*
X94097299Y-102563000D01*
X94099054Y-102586919D01*
X94100047Y-102608071D01*
X94100291Y-102623000D01*
X94100291Y-103119302D01*
X94099581Y-103140543D01*
X94097452Y-103162014D01*
X94093902Y-103183713D01*
X94088934Y-103205642D01*
X94082545Y-103227799D01*
X94074737Y-103250185D01*
X94065509Y-103272801D01*
X94054862Y-103295645D01*
X94044148Y-103314501D01*
X94033074Y-103331503D01*
X94017748Y-103351287D01*
X94001781Y-103367773D01*
X93985172Y-103380962D01*
X93967923Y-103390854D01*
X93945459Y-103398582D01*
X93921994Y-103401158D01*
X93894458Y-103399462D01*
X93868270Y-103394374D01*
X93843430Y-103385895D01*
X93819938Y-103374024D01*
X93797795Y-103358761D01*
X93776999Y-103340107D01*
X93757552Y-103318060D01*
X93745336Y-103301479D01*
X93733719Y-103283389D01*
X93722701Y-103263793D01*
X93712283Y-103242689D01*
X93702464Y-103220077D01*
X93697779Y-103208206D01*
X93689049Y-103182795D01*
X93681178Y-103156388D01*
X93674165Y-103128986D01*
X93668012Y-103100587D01*
X93664386Y-103081101D01*
X93661142Y-103061172D01*
X93658280Y-103040800D01*
X93655799Y-103019986D01*
X93653700Y-102998730D01*
X93651983Y-102977030D01*
X93650647Y-102954888D01*
X93649693Y-102932303D01*
X93649121Y-102909276D01*
X93648930Y-102885806D01*
X93648930Y-102465219D01*
X93649586Y-102444466D01*
X93651556Y-102422507D01*
X93654838Y-102399342D01*
X93659433Y-102374972D01*
X93663740Y-102355902D01*
X93668786Y-102336154D01*
X93674571Y-102315728D01*
X93681094Y-102294623D01*
X93688355Y-102272840D01*
X93690940Y-102265429D01*
X93674605Y-102251025D01*
X93658391Y-102238037D01*
X93642296Y-102226467D01*
X93621024Y-102213243D01*
X93599966Y-102202539D01*
X93579121Y-102194353D01*
X93558491Y-102188685D01*
X93538073Y-102185537D01*
X93522901Y-102184829D01*
X93502148Y-102185645D01*
X93481898Y-102188095D01*
X93462153Y-102192179D01*
X93442911Y-102197896D01*
X93424173Y-102205246D01*
X93405939Y-102214229D01*
X93388208Y-102224846D01*
X93370982Y-102237096D01*
X93354953Y-102250599D01*
X93341062Y-102264971D01*
X93326703Y-102284160D01*
X93315684Y-102304708D01*
X93308003Y-102326616D01*
X93303662Y-102349883D01*
X93302594Y-102369476D01*
G37*
G36*
X91954862Y-103276594D02*
G01*
X91955409Y-103296282D01*
X91958284Y-103325228D01*
X91963624Y-103353469D01*
X91971428Y-103381007D01*
X91981696Y-103407840D01*
X91994429Y-103433969D01*
X92004286Y-103450998D01*
X92015239Y-103467713D01*
X92027287Y-103484116D01*
X92040430Y-103500205D01*
X92054669Y-103515982D01*
X92070003Y-103531445D01*
X92086432Y-103546596D01*
X92095057Y-103554054D01*
X92114701Y-103569611D01*
X92135166Y-103584164D01*
X92156452Y-103597714D01*
X92178558Y-103610260D01*
X92201484Y-103621803D01*
X92225231Y-103632341D01*
X92249798Y-103641876D01*
X92275186Y-103650408D01*
X92301395Y-103657935D01*
X92328423Y-103664459D01*
X92356273Y-103669980D01*
X92384943Y-103674496D01*
X92414433Y-103678009D01*
X92444744Y-103680518D01*
X92475876Y-103682024D01*
X92507827Y-103682526D01*
X92529044Y-103682712D01*
X92550560Y-103681988D01*
X92572378Y-103680353D01*
X92594496Y-103677809D01*
X92616914Y-103674354D01*
X92639633Y-103669989D01*
X92662652Y-103664714D01*
X92685972Y-103658529D01*
X92709593Y-103651433D01*
X92733514Y-103643428D01*
X92749628Y-103637585D01*
X92775474Y-103627873D01*
X92800499Y-103618276D01*
X92824704Y-103608795D01*
X92848088Y-103599430D01*
X92870652Y-103590179D01*
X92892395Y-103581045D01*
X92913318Y-103572025D01*
X92933421Y-103563121D01*
X92952702Y-103554333D01*
X92971164Y-103545660D01*
X92988805Y-103537102D01*
X93021625Y-103520334D01*
X93051163Y-103504027D01*
X93077419Y-103488181D01*
X93100393Y-103472798D01*
X93120085Y-103457876D01*
X93136495Y-103443416D01*
X93154957Y-103422592D01*
X93166033Y-103402807D01*
X93169726Y-103384061D01*
X93167785Y-103356824D01*
X93161963Y-103332266D01*
X93152260Y-103310387D01*
X93138676Y-103291188D01*
X93121211Y-103274667D01*
X93099865Y-103260825D01*
X93074637Y-103249662D01*
X93055662Y-103243709D01*
X93034963Y-103238946D01*
X93012538Y-103235374D01*
X92988389Y-103232993D01*
X92962514Y-103231802D01*
X92948930Y-103231653D01*
X92929009Y-103231987D01*
X92908325Y-103232989D01*
X92886877Y-103234659D01*
X92882496Y-103235073D01*
X92877626Y-103258764D01*
X92868147Y-103281235D01*
X92854057Y-103302484D01*
X92840464Y-103317619D01*
X92824278Y-103332068D01*
X92805499Y-103345829D01*
X92784127Y-103358904D01*
X92760162Y-103371292D01*
X92733603Y-103382992D01*
X92714457Y-103390411D01*
X92688993Y-103399662D01*
X92663710Y-103407814D01*
X92638607Y-103414866D01*
X92613684Y-103420819D01*
X92588941Y-103425674D01*
X92564379Y-103429429D01*
X92539997Y-103432085D01*
X92515796Y-103433642D01*
X92491775Y-103434100D01*
X92467934Y-103433459D01*
X92452140Y-103432421D01*
X92428326Y-103429811D01*
X92407688Y-103425399D01*
X92386355Y-103417351D01*
X92369983Y-103406489D01*
X92356885Y-103389740D01*
X92350932Y-103368937D01*
X92350535Y-103361102D01*
X92353311Y-103341057D01*
X92355908Y-103330327D01*
X92359720Y-103311010D01*
X92360793Y-103298087D01*
X92376551Y-103286344D01*
X92398430Y-103277116D01*
X92418225Y-103269857D01*
X92442188Y-103261713D01*
X92462894Y-103255024D01*
X92485945Y-103247837D01*
X92494150Y-103245331D01*
X92521188Y-103237327D01*
X92545882Y-103229984D01*
X92568231Y-103223302D01*
X92588237Y-103217281D01*
X92611264Y-103210282D01*
X92630124Y-103204458D01*
X92650601Y-103197927D01*
X92661700Y-103194040D01*
X92686254Y-103179506D01*
X92710028Y-103164784D01*
X92733023Y-103149876D01*
X92755238Y-103134781D01*
X92776674Y-103119498D01*
X92797330Y-103104029D01*
X92817206Y-103088373D01*
X92836304Y-103072529D01*
X92854621Y-103056499D01*
X92872160Y-103040281D01*
X92888918Y-103023877D01*
X92904898Y-103007286D01*
X92920097Y-102990507D01*
X92934518Y-102973542D01*
X92948159Y-102956390D01*
X92961020Y-102939050D01*
X92973102Y-102921524D01*
X92984404Y-102903811D01*
X92994927Y-102885910D01*
X93004671Y-102867823D01*
X93013635Y-102849549D01*
X93021819Y-102831087D01*
X93029224Y-102812439D01*
X93035850Y-102793604D01*
X93041696Y-102774582D01*
X93046763Y-102755372D01*
X93051050Y-102735976D01*
X93054557Y-102716393D01*
X93057286Y-102696622D01*
X93059234Y-102676665D01*
X93060404Y-102656521D01*
X93060793Y-102636189D01*
X93060343Y-102611639D01*
X93058992Y-102587325D01*
X93056740Y-102563248D01*
X93053588Y-102539408D01*
X93049535Y-102515804D01*
X93044582Y-102492437D01*
X93038727Y-102469307D01*
X93031973Y-102446413D01*
X93024317Y-102423755D01*
X93015761Y-102401335D01*
X93006304Y-102379150D01*
X92995947Y-102357203D01*
X92984689Y-102335492D01*
X92972530Y-102314018D01*
X92959471Y-102292780D01*
X92945511Y-102271779D01*
X92929024Y-102249538D01*
X92912049Y-102228731D01*
X92894586Y-102209360D01*
X92876634Y-102191423D01*
X92858194Y-102174921D01*
X92839265Y-102159855D01*
X92819848Y-102146223D01*
X92799942Y-102134026D01*
X92779548Y-102123264D01*
X92758665Y-102113937D01*
X92737294Y-102106045D01*
X92715434Y-102099588D01*
X92693086Y-102094566D01*
X92670249Y-102090978D01*
X92646924Y-102088826D01*
X92623110Y-102088108D01*
X92595918Y-102089066D01*
X92568012Y-102091938D01*
X92539394Y-102096725D01*
X92519920Y-102100980D01*
X92500129Y-102106086D01*
X92480021Y-102112044D01*
X92459596Y-102118852D01*
X92438854Y-102126511D01*
X92417796Y-102135022D01*
X92396421Y-102144383D01*
X92374729Y-102154595D01*
X92352720Y-102165659D01*
X92330395Y-102177573D01*
X92307753Y-102190339D01*
X92296313Y-102197041D01*
X92273849Y-102210665D01*
X92252494Y-102224426D01*
X92232251Y-102238325D01*
X92213118Y-102252362D01*
X92195096Y-102266535D01*
X92178184Y-102280846D01*
X92162382Y-102295295D01*
X92147691Y-102309881D01*
X92134111Y-102324604D01*
X92115823Y-102346947D01*
X92100034Y-102369598D01*
X92086743Y-102392559D01*
X92075951Y-102415829D01*
X92070144Y-102431514D01*
X92063618Y-102453137D01*
X92057963Y-102473798D01*
X92053177Y-102493498D01*
X92048419Y-102516770D01*
X92045020Y-102538540D01*
X92042980Y-102558807D01*
X92042301Y-102577571D01*
X92042919Y-102599765D01*
X92044774Y-102620550D01*
X92047865Y-102639927D01*
X92053034Y-102660754D01*
X92059886Y-102679665D01*
X92067763Y-102698733D01*
X92075640Y-102717835D01*
X92083517Y-102736972D01*
X92091393Y-102756143D01*
X92099270Y-102775349D01*
X92101896Y-102781758D01*
X92118504Y-102792062D01*
X92139265Y-102803010D01*
X92160026Y-102811811D01*
X92180786Y-102818466D01*
X92201547Y-102822974D01*
X92222308Y-102825335D01*
X92234764Y-102825722D01*
X92255311Y-102823218D01*
X92274608Y-102818055D01*
X92293234Y-102811601D01*
X92314173Y-102803190D01*
X92332591Y-102795054D01*
X92352489Y-102785666D01*
X92371723Y-102775820D01*
X92392159Y-102763985D01*
X92408589Y-102752674D01*
X92424857Y-102737721D01*
X92434234Y-102720007D01*
X92434555Y-102716301D01*
X92427621Y-102696388D01*
X92418145Y-102677718D01*
X92406822Y-102657288D01*
X92395129Y-102637140D01*
X92392545Y-102632770D01*
X92383028Y-102615212D01*
X92375014Y-102596634D01*
X92369647Y-102577632D01*
X92368121Y-102562428D01*
X92368762Y-102539063D01*
X92370685Y-102517205D01*
X92373891Y-102496854D01*
X92381104Y-102469155D01*
X92391202Y-102444848D01*
X92404185Y-102423932D01*
X92420053Y-102406408D01*
X92438806Y-102392276D01*
X92460444Y-102381536D01*
X92484968Y-102374187D01*
X92512377Y-102370230D01*
X92532252Y-102369476D01*
X92556081Y-102371377D01*
X92578475Y-102377078D01*
X92599434Y-102386581D01*
X92618958Y-102399884D01*
X92637047Y-102416989D01*
X92649672Y-102432312D01*
X92661491Y-102449773D01*
X92672502Y-102469372D01*
X92682705Y-102491109D01*
X92691750Y-102515014D01*
X92699589Y-102539347D01*
X92706221Y-102564107D01*
X92711648Y-102589295D01*
X92715869Y-102614910D01*
X92718243Y-102634401D01*
X92719939Y-102654134D01*
X92720957Y-102674106D01*
X92721296Y-102694319D01*
X92719544Y-102719454D01*
X92714289Y-102744116D01*
X92705531Y-102768306D01*
X92693269Y-102792024D01*
X92677504Y-102815269D01*
X92665047Y-102830504D01*
X92651034Y-102845529D01*
X92635463Y-102860344D01*
X92618336Y-102874949D01*
X92599651Y-102889344D01*
X92579410Y-102903529D01*
X92557611Y-102917504D01*
X92534255Y-102931269D01*
X92521994Y-102938073D01*
X92499205Y-102947795D01*
X92476389Y-102957544D01*
X92453546Y-102967320D01*
X92430677Y-102977122D01*
X92407781Y-102986951D01*
X92384859Y-102996806D01*
X92361910Y-103006689D01*
X92338934Y-103016598D01*
X92315931Y-103026533D01*
X92292901Y-103036496D01*
X92269845Y-103046485D01*
X92246762Y-103056501D01*
X92223653Y-103066543D01*
X92200517Y-103076613D01*
X92177354Y-103086709D01*
X92154164Y-103096831D01*
X92130030Y-103107895D01*
X92107452Y-103118981D01*
X92086432Y-103130090D01*
X92066969Y-103141222D01*
X92049063Y-103152377D01*
X92032714Y-103163555D01*
X92011110Y-103180365D01*
X91993009Y-103197227D01*
X91978412Y-103214139D01*
X91967318Y-103231104D01*
X91957976Y-103253803D01*
X91954862Y-103276594D01*
G37*
D11*
%TO.C,SW1*%
X86317500Y-84990000D03*
X86317500Y-93190000D03*
D12*
X86317500Y-87090000D03*
D13*
X86317500Y-89090000D03*
X86317500Y-91090000D03*
%TD*%
D14*
%TO.C,J2*%
X122575000Y-94625000D03*
D15*
X120035000Y-94625000D03*
X122575000Y-92085000D03*
X120035000Y-92085000D03*
X122575000Y-89545000D03*
X120035000Y-89545000D03*
%TD*%
D16*
%TO.C,TP1*%
X90547500Y-98400000D03*
%TD*%
%TO.C,TP3*%
X110800000Y-103600000D03*
%TD*%
%TO.C,TP2*%
X110800000Y-97600000D03*
%TD*%
D14*
%TO.C,MK1*%
X88947500Y-76600000D03*
D15*
X88947500Y-79140000D03*
%TD*%
D17*
%TO.C,H1*%
X94280774Y-78483274D03*
X95447500Y-78966548D03*
X93114048Y-78966548D03*
X95930774Y-80133274D03*
D18*
X94280774Y-80133274D03*
D17*
X92630774Y-80133274D03*
X95447500Y-81300000D03*
X93114048Y-81300000D03*
X94280774Y-81783274D03*
%TD*%
%TO.C,H2*%
X121847500Y-81750000D03*
X120680774Y-81266726D03*
X123014226Y-81266726D03*
X120197500Y-80100000D03*
D18*
X121847500Y-80100000D03*
D17*
X123497500Y-80100000D03*
X120680774Y-78933274D03*
X123014226Y-78933274D03*
X121847500Y-78450000D03*
%TD*%
D19*
%TO.C,J1*%
X85500000Y-96525000D03*
D20*
X88200000Y-97525000D03*
X88200000Y-102525000D03*
D19*
X85500000Y-103525000D03*
%TD*%
D21*
%TO.C,D16*%
X178250000Y-98950000D03*
X178250000Y-102250000D03*
X173350000Y-102250000D03*
X173350000Y-98950000D03*
%TD*%
D22*
%TO.C,JP1*%
X105072500Y-100600000D03*
D23*
X106522500Y-100600000D03*
%TD*%
D22*
%TO.C,JP2*%
X115075000Y-100600000D03*
D23*
X116525000Y-100600000D03*
%TD*%
D24*
%TO.C,C28*%
X189747500Y-101375000D03*
X189747500Y-99825000D03*
%TD*%
D21*
%TO.C,D2*%
X108250000Y-98950000D03*
X108250000Y-102250000D03*
X103350000Y-102250000D03*
X103350000Y-98950000D03*
%TD*%
D24*
%TO.C,C12*%
X109847500Y-101375000D03*
X109847500Y-99825000D03*
%TD*%
D21*
%TO.C,D14*%
X168250000Y-98950000D03*
X168250000Y-102250000D03*
X163350000Y-102250000D03*
X163350000Y-98950000D03*
%TD*%
%TO.C,D10*%
X148250000Y-98950000D03*
X148250000Y-102250000D03*
X143350000Y-102250000D03*
X143350000Y-98950000D03*
%TD*%
D24*
%TO.C,C22*%
X159747500Y-101375000D03*
X159747500Y-99825000D03*
%TD*%
D21*
%TO.C,D22*%
X208250000Y-98950000D03*
X208250000Y-102250000D03*
X203350000Y-102250000D03*
X203350000Y-98950000D03*
%TD*%
D24*
%TO.C,C18*%
X139747500Y-101375000D03*
X139747500Y-99825000D03*
%TD*%
%TO.C,C32*%
X209760000Y-101375000D03*
X209760000Y-99825000D03*
%TD*%
D21*
%TO.C,D12*%
X158250000Y-98950000D03*
X158250000Y-102250000D03*
X153350000Y-102250000D03*
X153350000Y-98950000D03*
%TD*%
D24*
%TO.C,C14*%
X119747500Y-101375000D03*
X119747500Y-99825000D03*
%TD*%
D21*
%TO.C,D8*%
X138250000Y-98950000D03*
X138250000Y-102250000D03*
X133350000Y-102250000D03*
X133350000Y-98950000D03*
%TD*%
%TO.C,D4*%
X118250000Y-98950000D03*
X118250000Y-102250000D03*
X113350000Y-102250000D03*
X113350000Y-98950000D03*
%TD*%
D24*
%TO.C,C34*%
X219750000Y-101375000D03*
X219750000Y-99825000D03*
%TD*%
%TO.C,C26*%
X169747500Y-101375000D03*
X169747500Y-99825000D03*
%TD*%
%TO.C,C30*%
X199750000Y-101375000D03*
X199750000Y-99825000D03*
%TD*%
D22*
%TO.C,JP3*%
X125075000Y-100600000D03*
D23*
X126525000Y-100600000D03*
%TD*%
D24*
%TO.C,C20*%
X149747500Y-101375000D03*
X149747500Y-99825000D03*
%TD*%
D21*
%TO.C,D18*%
X188250000Y-98950000D03*
X188250000Y-102250000D03*
X183350000Y-102250000D03*
X183350000Y-98950000D03*
%TD*%
D24*
%TO.C,C24*%
X179747500Y-101375000D03*
X179747500Y-99825000D03*
%TD*%
%TO.C,C16*%
X129747500Y-101375000D03*
X129747500Y-99825000D03*
%TD*%
D21*
%TO.C,D6*%
X128250000Y-98950000D03*
X128250000Y-102250000D03*
X123350000Y-102250000D03*
X123350000Y-98950000D03*
%TD*%
%TO.C,D24*%
X218250000Y-98950000D03*
X218250000Y-102250000D03*
X213350000Y-102250000D03*
X213350000Y-98950000D03*
%TD*%
D22*
%TO.C,JP4*%
X135075000Y-100600000D03*
D23*
X136525000Y-100600000D03*
%TD*%
D21*
%TO.C,D20*%
X198250000Y-98950000D03*
X198250000Y-102250000D03*
X193350000Y-102250000D03*
X193350000Y-98950000D03*
%TD*%
M02*
