%TF.GenerationSoftware,KiCad,Pcbnew,7.0.5-0*%
%TF.CreationDate,2024-02-11T15:46:52-07:00*%
%TF.ProjectId,rainbow-music-pegasus,7261696e-626f-4772-9d6d-757369632d70,rev?*%
%TF.SameCoordinates,Original*%
%TF.FileFunction,Copper,L2,Bot*%
%TF.FilePolarity,Positive*%
%FSLAX46Y46*%
G04 Gerber Fmt 4.6, Leading zero omitted, Abs format (unit mm)*
G04 Created by KiCad (PCBNEW 7.0.5-0) date 2024-02-11 15:46:52*
%MOMM*%
%LPD*%
G01*
G04 APERTURE LIST*
G04 Aperture macros list*
%AMRoundRect*
0 Rectangle with rounded corners*
0 $1 Rounding radius*
0 $2 $3 $4 $5 $6 $7 $8 $9 X,Y pos of 4 corners*
0 Add a 4 corners polygon primitive as box body*
4,1,4,$2,$3,$4,$5,$6,$7,$8,$9,$2,$3,0*
0 Add four circle primitives for the rounded corners*
1,1,$1+$1,$2,$3*
1,1,$1+$1,$4,$5*
1,1,$1+$1,$6,$7*
1,1,$1+$1,$8,$9*
0 Add four rect primitives between the rounded corners*
20,1,$1+$1,$2,$3,$4,$5,0*
20,1,$1+$1,$4,$5,$6,$7,0*
20,1,$1+$1,$6,$7,$8,$9,0*
20,1,$1+$1,$8,$9,$2,$3,0*%
%AMFreePoly0*
4,1,6,1.000000,0.000000,0.500000,-0.750000,-0.500000,-0.750000,-0.500000,0.750000,0.500000,0.750000,1.000000,0.000000,1.000000,0.000000,$1*%
%AMFreePoly1*
4,1,6,0.500000,-0.750000,-0.650000,-0.750000,-0.150000,0.000000,-0.650000,0.750000,0.500000,0.750000,0.500000,-0.750000,0.500000,-0.750000,$1*%
G04 Aperture macros list end*
%TA.AperFunction,ComponentPad*%
%ADD10R,1.500000X1.500000*%
%TD*%
%TA.AperFunction,SMDPad,CuDef*%
%ADD11FreePoly0,180.000000*%
%TD*%
%TA.AperFunction,SMDPad,CuDef*%
%ADD12FreePoly1,180.000000*%
%TD*%
%TA.AperFunction,ComponentPad*%
%ADD13O,2.500000X1.500000*%
%TD*%
%TA.AperFunction,ComponentPad*%
%ADD14R,2.500000X1.500000*%
%TD*%
%TA.AperFunction,ComponentPad*%
%ADD15O,3.500000X2.200000*%
%TD*%
%TA.AperFunction,ComponentPad*%
%ADD16R,1.700000X1.700000*%
%TD*%
%TA.AperFunction,ComponentPad*%
%ADD17O,1.700000X1.700000*%
%TD*%
%TA.AperFunction,ComponentPad*%
%ADD18C,0.700000*%
%TD*%
%TA.AperFunction,ComponentPad*%
%ADD19C,4.400000*%
%TD*%
%TA.AperFunction,ComponentPad*%
%ADD20O,1.550000X1.000000*%
%TD*%
%TA.AperFunction,ComponentPad*%
%ADD21O,0.950000X1.250000*%
%TD*%
%TA.AperFunction,SMDPad,CuDef*%
%ADD22R,1.500000X0.900000*%
%TD*%
%TA.AperFunction,SMDPad,CuDef*%
%ADD23FreePoly0,0.000000*%
%TD*%
%TA.AperFunction,SMDPad,CuDef*%
%ADD24FreePoly1,0.000000*%
%TD*%
%TA.AperFunction,SMDPad,CuDef*%
%ADD25RoundRect,0.225000X0.250000X-0.225000X0.250000X0.225000X-0.250000X0.225000X-0.250000X-0.225000X0*%
%TD*%
%TA.AperFunction,ViaPad*%
%ADD26C,0.800000*%
%TD*%
%TA.AperFunction,Conductor*%
%ADD27C,0.250000*%
%TD*%
%TA.AperFunction,Conductor*%
%ADD28C,0.400000*%
%TD*%
G04 APERTURE END LIST*
D10*
%TO.P,TP4,1,1*%
%TO.N,/RGB_Data*%
X101057500Y-97410000D03*
%TD*%
D11*
%TO.P,JP7,1,A*%
%TO.N,GND*%
X123334500Y-96150000D03*
D12*
%TO.P,JP7,2,B*%
%TO.N,/LEDs+8*%
X121884500Y-96150000D03*
%TD*%
D11*
%TO.P,JP6,1,A*%
%TO.N,GND*%
X123334500Y-93885000D03*
D12*
%TO.P,JP6,2,B*%
%TO.N,/LEDs+4*%
X121884500Y-93885000D03*
%TD*%
%TO.P,JP5,2,B*%
%TO.N,/LEDs+2*%
X121884500Y-91600000D03*
D11*
%TO.P,JP5,1,A*%
%TO.N,GND*%
X123334500Y-91600000D03*
%TD*%
D13*
%TO.P,SW1,3,C*%
%TO.N,GND*%
X86317500Y-91090000D03*
%TO.P,SW1,2,B*%
%TO.N,Net-(SW1-B)*%
X86317500Y-89090000D03*
D14*
%TO.P,SW1,1,A*%
%TO.N,Net-(J1-VBUS)*%
X86317500Y-87090000D03*
D15*
%TO.P,SW1,*%
%TO.N,*%
X86317500Y-93190000D03*
X86317500Y-84990000D03*
%TD*%
D16*
%TO.P,J2,1,Pin_1*%
%TO.N,/Boot*%
X123117500Y-89038000D03*
D17*
%TO.P,J2,2,Pin_2*%
%TO.N,/RXD*%
X120577500Y-89038000D03*
%TO.P,J2,3,Pin_3*%
%TO.N,GND*%
X123117500Y-86498000D03*
%TO.P,J2,4,Pin_4*%
%TO.N,/TXD*%
X120577500Y-86498000D03*
%TO.P,J2,5,Pin_5*%
%TO.N,unconnected-(J2-Pin_5-Pad5)*%
X123117500Y-83958000D03*
%TO.P,J2,6,Pin_6*%
%TO.N,/Reset*%
X120577500Y-83958000D03*
%TD*%
D10*
%TO.P,TP1,1,1*%
%TO.N,Net-(J1-VBUS)*%
X90547500Y-98400000D03*
%TD*%
%TO.P,TP3,1,1*%
%TO.N,GND*%
X110800000Y-103600000D03*
%TD*%
%TO.P,TP2,1,1*%
%TO.N,+3.3V*%
X110800000Y-97600000D03*
%TD*%
D16*
%TO.P,MK1,1,-*%
%TO.N,GND*%
X88947500Y-76600000D03*
D17*
%TO.P,MK1,2,+*%
%TO.N,Net-(MK1-+)*%
X88947500Y-79140000D03*
%TD*%
D18*
%TO.P,H1,1,1*%
%TO.N,GND*%
X94280774Y-78450000D03*
X95447500Y-78933274D03*
X93114048Y-78933274D03*
X95930774Y-80100000D03*
D19*
X94280774Y-80100000D03*
D18*
X92630774Y-80100000D03*
X95447500Y-81266726D03*
X93114048Y-81266726D03*
X94280774Y-81750000D03*
%TD*%
%TO.P,H2,1,1*%
%TO.N,GND*%
X121842500Y-81738000D03*
X120675774Y-81254726D03*
X123009226Y-81254726D03*
X120192500Y-80088000D03*
D19*
X121842500Y-80088000D03*
D18*
X123492500Y-80088000D03*
X120675774Y-78921274D03*
X123009226Y-78921274D03*
X121842500Y-78438000D03*
%TD*%
D20*
%TO.P,J1,6,Shield*%
%TO.N,GND*%
X85500000Y-96525000D03*
D21*
X88200000Y-97525000D03*
X88200000Y-102525000D03*
D20*
X85500000Y-103525000D03*
%TD*%
D22*
%TO.P,D16,1,VDD*%
%TO.N,+3.3V*%
X178250000Y-98950000D03*
%TO.P,D16,2,DOUT*%
%TO.N,Net-(D16-DOUT)*%
X178250000Y-102250000D03*
%TO.P,D16,3,VSS*%
%TO.N,GND*%
X173350000Y-102250000D03*
%TO.P,D16,4,DIN*%
%TO.N,Net-(D15-DOUT)*%
X173350000Y-98950000D03*
%TD*%
D23*
%TO.P,JP1,1,A*%
%TO.N,/RGB_Data*%
X105072500Y-100600000D03*
D24*
%TO.P,JP1,2,B*%
%TO.N,Net-(D2-DOUT)*%
X106522500Y-100600000D03*
%TD*%
D23*
%TO.P,JP2,1,A*%
%TO.N,Net-(D2-DOUT)*%
X115075000Y-100600000D03*
D24*
%TO.P,JP2,2,B*%
%TO.N,Net-(D4-DOUT)*%
X116525000Y-100600000D03*
%TD*%
D25*
%TO.P,C28,1*%
%TO.N,GND*%
X189747500Y-101375000D03*
%TO.P,C28,2*%
%TO.N,+3.3V*%
X189747500Y-99825000D03*
%TD*%
D22*
%TO.P,D2,1,VDD*%
%TO.N,+3.3V*%
X108250000Y-98950000D03*
%TO.P,D2,2,DOUT*%
%TO.N,Net-(D2-DOUT)*%
X108250000Y-102250000D03*
%TO.P,D2,3,VSS*%
%TO.N,GND*%
X103350000Y-102250000D03*
%TO.P,D2,4,DIN*%
%TO.N,Net-(D1-DOUT)*%
X103350000Y-98950000D03*
%TD*%
D25*
%TO.P,C12,1*%
%TO.N,GND*%
X109847500Y-101375000D03*
%TO.P,C12,2*%
%TO.N,+3.3V*%
X109847500Y-99825000D03*
%TD*%
D22*
%TO.P,D14,1,VDD*%
%TO.N,+3.3V*%
X168250000Y-98950000D03*
%TO.P,D14,2,DOUT*%
%TO.N,Net-(D14-DOUT)*%
X168250000Y-102250000D03*
%TO.P,D14,3,VSS*%
%TO.N,GND*%
X163350000Y-102250000D03*
%TO.P,D14,4,DIN*%
%TO.N,Net-(D13-DOUT)*%
X163350000Y-98950000D03*
%TD*%
%TO.P,D10,1,VDD*%
%TO.N,+3.3V*%
X148250000Y-98950000D03*
%TO.P,D10,2,DOUT*%
%TO.N,Net-(D10-DOUT)*%
X148250000Y-102250000D03*
%TO.P,D10,3,VSS*%
%TO.N,GND*%
X143350000Y-102250000D03*
%TO.P,D10,4,DIN*%
%TO.N,Net-(D10-DIN)*%
X143350000Y-98950000D03*
%TD*%
D25*
%TO.P,C22,1*%
%TO.N,GND*%
X159747500Y-101375000D03*
%TO.P,C22,2*%
%TO.N,+3.3V*%
X159747500Y-99825000D03*
%TD*%
D22*
%TO.P,D22,1,VDD*%
%TO.N,+3.3V*%
X208250000Y-98950000D03*
%TO.P,D22,2,DOUT*%
%TO.N,Net-(D22-DOUT)*%
X208250000Y-102250000D03*
%TO.P,D22,3,VSS*%
%TO.N,GND*%
X203350000Y-102250000D03*
%TO.P,D22,4,DIN*%
%TO.N,Net-(D21-DOUT)*%
X203350000Y-98950000D03*
%TD*%
D25*
%TO.P,C18,1*%
%TO.N,GND*%
X139747500Y-101375000D03*
%TO.P,C18,2*%
%TO.N,+3.3V*%
X139747500Y-99825000D03*
%TD*%
%TO.P,C32,1*%
%TO.N,GND*%
X209760000Y-101375000D03*
%TO.P,C32,2*%
%TO.N,+3.3V*%
X209760000Y-99825000D03*
%TD*%
D22*
%TO.P,D12,1,VDD*%
%TO.N,+3.3V*%
X158250000Y-98950000D03*
%TO.P,D12,2,DOUT*%
%TO.N,Net-(D12-DOUT)*%
X158250000Y-102250000D03*
%TO.P,D12,3,VSS*%
%TO.N,GND*%
X153350000Y-102250000D03*
%TO.P,D12,4,DIN*%
%TO.N,Net-(D11-DOUT)*%
X153350000Y-98950000D03*
%TD*%
D25*
%TO.P,C14,1*%
%TO.N,GND*%
X119747500Y-101375000D03*
%TO.P,C14,2*%
%TO.N,+3.3V*%
X119747500Y-99825000D03*
%TD*%
D22*
%TO.P,D8,1,VDD*%
%TO.N,+3.3V*%
X138250000Y-98950000D03*
%TO.P,D8,2,DOUT*%
%TO.N,Net-(D8-DOUT)*%
X138250000Y-102250000D03*
%TO.P,D8,3,VSS*%
%TO.N,GND*%
X133350000Y-102250000D03*
%TO.P,D8,4,DIN*%
%TO.N,Net-(D7-DOUT)*%
X133350000Y-98950000D03*
%TD*%
%TO.P,D4,1,VDD*%
%TO.N,+3.3V*%
X118250000Y-98950000D03*
%TO.P,D4,2,DOUT*%
%TO.N,Net-(D4-DOUT)*%
X118250000Y-102250000D03*
%TO.P,D4,3,VSS*%
%TO.N,GND*%
X113350000Y-102250000D03*
%TO.P,D4,4,DIN*%
%TO.N,Net-(D3-DOUT)*%
X113350000Y-98950000D03*
%TD*%
D25*
%TO.P,C34,1*%
%TO.N,GND*%
X219750000Y-101375000D03*
%TO.P,C34,2*%
%TO.N,+3.3V*%
X219750000Y-99825000D03*
%TD*%
%TO.P,C26,1*%
%TO.N,GND*%
X169747500Y-101375000D03*
%TO.P,C26,2*%
%TO.N,+3.3V*%
X169747500Y-99825000D03*
%TD*%
%TO.P,C30,1*%
%TO.N,GND*%
X199750000Y-101375000D03*
%TO.P,C30,2*%
%TO.N,+3.3V*%
X199750000Y-99825000D03*
%TD*%
D23*
%TO.P,JP3,1,A*%
%TO.N,Net-(D4-DOUT)*%
X125075000Y-100600000D03*
D24*
%TO.P,JP3,2,B*%
%TO.N,Net-(D6-DOUT)*%
X126525000Y-100600000D03*
%TD*%
D25*
%TO.P,C20,1*%
%TO.N,GND*%
X149747500Y-101375000D03*
%TO.P,C20,2*%
%TO.N,+3.3V*%
X149747500Y-99825000D03*
%TD*%
D22*
%TO.P,D18,1,VDD*%
%TO.N,+3.3V*%
X188250000Y-98950000D03*
%TO.P,D18,2,DOUT*%
%TO.N,Net-(D18-DOUT)*%
X188250000Y-102250000D03*
%TO.P,D18,3,VSS*%
%TO.N,GND*%
X183350000Y-102250000D03*
%TO.P,D18,4,DIN*%
%TO.N,Net-(D17-DOUT)*%
X183350000Y-98950000D03*
%TD*%
D25*
%TO.P,C24,1*%
%TO.N,GND*%
X179747500Y-101375000D03*
%TO.P,C24,2*%
%TO.N,+3.3V*%
X179747500Y-99825000D03*
%TD*%
%TO.P,C16,1*%
%TO.N,GND*%
X129747500Y-101375000D03*
%TO.P,C16,2*%
%TO.N,+3.3V*%
X129747500Y-99825000D03*
%TD*%
D22*
%TO.P,D6,1,VDD*%
%TO.N,+3.3V*%
X128250000Y-98950000D03*
%TO.P,D6,2,DOUT*%
%TO.N,Net-(D6-DOUT)*%
X128250000Y-102250000D03*
%TO.P,D6,3,VSS*%
%TO.N,GND*%
X123350000Y-102250000D03*
%TO.P,D6,4,DIN*%
%TO.N,Net-(D5-DOUT)*%
X123350000Y-98950000D03*
%TD*%
%TO.P,D24,1,VDD*%
%TO.N,+3.3V*%
X218250000Y-98950000D03*
%TO.P,D24,2,DOUT*%
%TO.N,unconnected-(D24-DOUT-Pad2)*%
X218250000Y-102250000D03*
%TO.P,D24,3,VSS*%
%TO.N,GND*%
X213350000Y-102250000D03*
%TO.P,D24,4,DIN*%
%TO.N,Net-(D23-DOUT)*%
X213350000Y-98950000D03*
%TD*%
D23*
%TO.P,JP4,1,A*%
%TO.N,Net-(D6-DOUT)*%
X135075000Y-100600000D03*
D24*
%TO.P,JP4,2,B*%
%TO.N,Net-(D8-DOUT)*%
X136525000Y-100600000D03*
%TD*%
D22*
%TO.P,D20,1,VDD*%
%TO.N,+3.3V*%
X198250000Y-98950000D03*
%TO.P,D20,2,DOUT*%
%TO.N,Net-(D20-DOUT)*%
X198250000Y-102250000D03*
%TO.P,D20,3,VSS*%
%TO.N,GND*%
X193350000Y-102250000D03*
%TO.P,D20,4,DIN*%
%TO.N,Net-(D19-DOUT)*%
X193350000Y-98950000D03*
%TD*%
D26*
%TO.N,GND*%
X114273000Y-92475000D03*
X105923000Y-94350000D03*
%TO.N,/LEDs+8*%
X111980249Y-93860054D03*
%TO.N,/LEDs+4*%
X113004847Y-93860054D03*
%TO.N,/LEDs+2*%
X114025500Y-93864000D03*
%TO.N,GND*%
X107622500Y-94350000D03*
X205800000Y-103200000D03*
X93947500Y-101400000D03*
X93947500Y-98600000D03*
X145800000Y-103200000D03*
X94197500Y-94850000D03*
X175800000Y-103200000D03*
X106717500Y-87300000D03*
X118262299Y-101200498D03*
X117714152Y-95520652D03*
X98897500Y-101150000D03*
X101867500Y-94530000D03*
X100000000Y-87950000D03*
X115800000Y-103200000D03*
X138250000Y-101200498D03*
X135800000Y-103200000D03*
X165800000Y-103200000D03*
X195800000Y-103200000D03*
X128250000Y-101200498D03*
X90887500Y-90887500D03*
X185800000Y-103200000D03*
X155600000Y-103200000D03*
X125800000Y-103200000D03*
X117977500Y-85540000D03*
X215800000Y-103200000D03*
X108262299Y-101200498D03*
%TO.N,/Reset*%
X106125000Y-92100000D03*
%TO.N,+3.3V*%
X165297500Y-97900000D03*
X115497500Y-97900000D03*
X145447500Y-97900000D03*
X135397500Y-97900000D03*
X95647500Y-86267500D03*
X215347500Y-97900000D03*
X195347500Y-97900000D03*
X155297500Y-97900000D03*
X205347500Y-97900000D03*
X91161440Y-92481617D03*
X175347500Y-97900000D03*
X125447500Y-97900000D03*
X185347500Y-97900000D03*
%TO.N,Net-(D1-DOUT)*%
X103350000Y-100350000D03*
%TO.N,/RGB_Data*%
X107147500Y-92850000D03*
X106162880Y-99100000D03*
%TO.N,Net-(D2-DOUT)*%
X116347500Y-99100000D03*
%TO.N,Net-(D3-DOUT)*%
X113300000Y-100350000D03*
%TO.N,Net-(D5-DOUT)*%
X123300000Y-100350000D03*
%TO.N,Net-(D4-DOUT)*%
X126347500Y-99100000D03*
%TO.N,Net-(D7-DOUT)*%
X133300000Y-100350000D03*
%TO.N,Net-(D10-DIN)*%
X143300000Y-100350000D03*
%TO.N,Net-(D10-DOUT)*%
X156347500Y-99100000D03*
%TO.N,Net-(D11-DOUT)*%
X153300000Y-100350000D03*
%TO.N,/Mic_Signal*%
X93353750Y-93306250D03*
X105923000Y-93350497D03*
%TO.N,Net-(U1-GPIO8)*%
X101722000Y-81950000D03*
X114087500Y-89600000D03*
%TO.N,Net-(D13-DOUT)*%
X163300000Y-100350000D03*
%TO.N,Net-(D14-DOUT)*%
X176347500Y-99100000D03*
%TO.N,Net-(D15-DOUT)*%
X173300000Y-100350000D03*
%TO.N,Net-(D17-DOUT)*%
X183300000Y-100350000D03*
%TO.N,Net-(D18-DOUT)*%
X196347500Y-99100000D03*
%TO.N,Net-(D19-DOUT)*%
X193300000Y-100350000D03*
%TO.N,Net-(D6-DOUT)*%
X136397500Y-99100000D03*
%TO.N,Net-(D8-DOUT)*%
X146347500Y-99100000D03*
%TO.N,Net-(D12-DOUT)*%
X166297500Y-99100000D03*
%TO.N,Net-(D16-DOUT)*%
X186347500Y-99100000D03*
%TO.N,Net-(D20-DOUT)*%
X206297500Y-99100000D03*
%TO.N,Net-(SW1-B)*%
X89550000Y-101400000D03*
%TO.N,Net-(U1-GPIO2{slash}ADC1_CH2)*%
X100993131Y-83225585D03*
X106679013Y-89942238D03*
%TO.N,Net-(D21-DOUT)*%
X203300000Y-100350000D03*
%TO.N,Net-(D22-DOUT)*%
X216347500Y-99100000D03*
%TO.N,Net-(D23-DOUT)*%
X213300000Y-100350000D03*
%TD*%
D27*
%TO.N,+3.3V*%
X91161440Y-92481617D02*
X91305883Y-92481617D01*
X91305883Y-92481617D02*
X95642500Y-88145000D01*
X95642500Y-88145000D02*
X95642500Y-86272500D01*
X95642500Y-86272500D02*
X95647500Y-86267500D01*
%TO.N,/Reset*%
X120577500Y-84153000D02*
X120577500Y-83958000D01*
X112630500Y-92100000D02*
X120577500Y-84153000D01*
X106125000Y-92100000D02*
X112630500Y-92100000D01*
%TO.N,/LEDs+2*%
X114025500Y-93864000D02*
X114459500Y-93430000D01*
X120325500Y-93430000D02*
X121884500Y-91871000D01*
X114459500Y-93430000D02*
X120325500Y-93430000D01*
X121884500Y-91871000D02*
X121884500Y-91600000D01*
%TO.N,/LEDs+8*%
X111980249Y-93860054D02*
X113159195Y-95039000D01*
X113159195Y-95039000D02*
X114891500Y-95039000D01*
X114891500Y-95039000D02*
X115600500Y-94330000D01*
X115600500Y-94330000D02*
X120309500Y-94330000D01*
X120309500Y-94330000D02*
X121884500Y-95905000D01*
X121884500Y-95905000D02*
X121884500Y-96150000D01*
%TO.N,/LEDs+4*%
X114750500Y-94164305D02*
X114750500Y-94155000D01*
X121879500Y-93880000D02*
X121884500Y-93885000D01*
X113004847Y-93860054D02*
X113004847Y-93868652D01*
X115025500Y-93880000D02*
X121879500Y-93880000D01*
X113004847Y-93868652D02*
X113725195Y-94589000D01*
X113725195Y-94589000D02*
X114325805Y-94589000D01*
X114750500Y-94155000D02*
X115025500Y-93880000D01*
X114325805Y-94589000D02*
X114750500Y-94164305D01*
%TO.N,GND*%
X123117500Y-86498000D02*
X124317500Y-85298000D01*
X124317500Y-85298000D02*
X124317500Y-82563000D01*
X124317500Y-82563000D02*
X121842500Y-80088000D01*
X123117500Y-86498000D02*
X124317500Y-87698000D01*
X124317500Y-87698000D02*
X124317500Y-90617000D01*
X124317500Y-90617000D02*
X123334500Y-91600000D01*
X123117500Y-86498000D02*
X121852500Y-87763000D01*
X121852500Y-87763000D02*
X118985000Y-87763000D01*
X118985000Y-87763000D02*
X114273000Y-92475000D01*
%TO.N,Net-(J1-VBUS)*%
X90547500Y-98400000D02*
X89915698Y-97768198D01*
X89915698Y-97768198D02*
X89915698Y-90180698D01*
X89915698Y-90180698D02*
X86825000Y-87090000D01*
X86825000Y-87090000D02*
X86317500Y-87090000D01*
%TO.N,/RGB_Data*%
X107147500Y-92850000D02*
X106797500Y-93200000D01*
X106797500Y-93200000D02*
X106797500Y-98465380D01*
X106797500Y-98465380D02*
X106162880Y-99100000D01*
%TO.N,/Mic_Signal*%
X105923000Y-93350497D02*
X105872503Y-93300000D01*
X105872503Y-93300000D02*
X93360000Y-93300000D01*
X93360000Y-93300000D02*
X93353750Y-93306250D01*
%TO.N,/RGB_Data*%
X101067500Y-97400000D02*
X101057500Y-97410000D01*
X106162880Y-99100000D02*
X104462880Y-97400000D01*
X104462880Y-97400000D02*
X101067500Y-97400000D01*
%TO.N,GND*%
X182400000Y-103200000D02*
X174300000Y-103200000D01*
X164300000Y-103200000D02*
X163350000Y-102250000D01*
X204300000Y-103200000D02*
X212400000Y-103200000D01*
X202400000Y-103200000D02*
X203350000Y-102250000D01*
X134300000Y-103200000D02*
X133350000Y-102250000D01*
X173350000Y-102250000D02*
X172400000Y-103200000D01*
X124300000Y-103200000D02*
X123350000Y-102250000D01*
X174300000Y-103200000D02*
X173350000Y-102250000D01*
X172400000Y-103200000D02*
X164300000Y-103200000D01*
X203350000Y-102250000D02*
X204300000Y-103200000D01*
X144300000Y-103200000D02*
X143350000Y-102250000D01*
X153350000Y-102250000D02*
X152400000Y-103200000D01*
X152400000Y-103200000D02*
X144300000Y-103200000D01*
X162400000Y-103200000D02*
X154300000Y-103200000D01*
X154300000Y-103200000D02*
X153350000Y-102250000D01*
X184300000Y-103200000D02*
X192400000Y-103200000D01*
X183350000Y-102250000D02*
X184300000Y-103200000D01*
X163350000Y-102250000D02*
X162400000Y-103200000D01*
X192400000Y-103200000D02*
X193350000Y-102250000D01*
X133350000Y-102250000D02*
X132400000Y-103200000D01*
X132400000Y-103200000D02*
X124300000Y-103200000D01*
X104300000Y-103200000D02*
X103350000Y-102250000D01*
X112450000Y-103200000D02*
X104300000Y-103200000D01*
X212400000Y-103200000D02*
X213350000Y-102250000D01*
X123350000Y-102250000D02*
X122400000Y-103200000D01*
X122400000Y-103200000D02*
X114350000Y-103200000D01*
X193350000Y-102250000D02*
X194300000Y-103200000D01*
X183350000Y-102250000D02*
X182400000Y-103200000D01*
X114350000Y-103200000D02*
X113400000Y-102250000D01*
X143350000Y-102250000D02*
X142400000Y-103200000D01*
X194300000Y-103200000D02*
X202400000Y-103200000D01*
X142400000Y-103200000D02*
X134300000Y-103200000D01*
X113400000Y-102250000D02*
X112450000Y-103200000D01*
D28*
%TO.N,+3.3V*%
X217200000Y-97900000D02*
X218250000Y-98950000D01*
X129300000Y-97900000D02*
X137200000Y-97900000D01*
X119747500Y-99900000D02*
X119200000Y-99900000D01*
X190713030Y-97900000D02*
X189300000Y-97900000D01*
X139300000Y-97900000D02*
X147200000Y-97900000D01*
X147200000Y-97900000D02*
X148250000Y-98950000D01*
X149300000Y-97900000D02*
X150713030Y-97900000D01*
X109847500Y-99825000D02*
X108972500Y-98950000D01*
X199225000Y-99925000D02*
X198250000Y-98950000D01*
X179300000Y-97900000D02*
X180713030Y-97900000D01*
X179125000Y-99825000D02*
X178250000Y-98950000D01*
X169125000Y-99825000D02*
X168250000Y-98950000D01*
X119200000Y-99900000D02*
X118250000Y-98950000D01*
X157200000Y-97900000D02*
X158250000Y-98950000D01*
X170713030Y-97900000D02*
X170776699Y-97913350D01*
X108972500Y-98950000D02*
X108250000Y-98950000D01*
X167200000Y-97900000D02*
X168250000Y-98950000D01*
X179747500Y-99825000D02*
X179125000Y-99825000D01*
X180883805Y-97900000D02*
X187200000Y-97900000D01*
X148250000Y-98950000D02*
X149300000Y-97900000D01*
X219225000Y-99925000D02*
X218250000Y-98950000D01*
X108250000Y-98947500D02*
X109297500Y-97900000D01*
X205347500Y-97900000D02*
X200883805Y-97900000D01*
X127200000Y-97900000D02*
X128250000Y-98950000D01*
X177200000Y-97900000D02*
X178250000Y-98950000D01*
X199747500Y-99925000D02*
X199225000Y-99925000D01*
X178250000Y-98950000D02*
X179300000Y-97900000D01*
X205347500Y-97900000D02*
X207200000Y-97900000D01*
X209300000Y-97900000D02*
X208250000Y-98950000D01*
X129747500Y-99825000D02*
X129125000Y-99825000D01*
X168250000Y-98950000D02*
X169300000Y-97900000D01*
X215347500Y-97900000D02*
X210883805Y-97900000D01*
X200883805Y-97900000D02*
X200776699Y-97913350D01*
X149747500Y-99825000D02*
X149125000Y-99825000D01*
X159125000Y-99825000D02*
X158250000Y-98950000D01*
X160776699Y-97913350D02*
X160883805Y-97900000D01*
X149125000Y-99825000D02*
X148250000Y-98950000D01*
X119747500Y-99825000D02*
X119747500Y-99900000D01*
X187200000Y-97900000D02*
X188250000Y-98950000D01*
X150713030Y-97900000D02*
X150776699Y-97913350D01*
X207200000Y-97900000D02*
X208250000Y-98950000D01*
X180776699Y-97913350D02*
X180883805Y-97900000D01*
X210713030Y-97900000D02*
X209300000Y-97900000D01*
X219747500Y-99925000D02*
X219225000Y-99925000D01*
X170776699Y-97913350D02*
X170883805Y-97900000D01*
X200713030Y-97900000D02*
X195347500Y-97900000D01*
X169747500Y-99825000D02*
X169125000Y-99825000D01*
X197200000Y-97900000D02*
X198250000Y-98950000D01*
X180713030Y-97900000D02*
X180776699Y-97913350D01*
X129125000Y-99825000D02*
X128250000Y-98950000D01*
X210776699Y-97913350D02*
X210713030Y-97900000D01*
X158250000Y-98950000D02*
X159300000Y-97900000D01*
X210883805Y-97900000D02*
X210776699Y-97913350D01*
X215347500Y-97900000D02*
X217200000Y-97900000D01*
X150776699Y-97913350D02*
X150883805Y-97900000D01*
X209125000Y-99825000D02*
X208250000Y-98950000D01*
X209747500Y-99825000D02*
X209125000Y-99825000D01*
X128250000Y-98950000D02*
X129300000Y-97900000D01*
X139125000Y-99825000D02*
X138250000Y-98950000D01*
X195347500Y-97900000D02*
X197200000Y-97900000D01*
X169300000Y-97900000D02*
X170713030Y-97900000D01*
X170883805Y-97900000D02*
X177200000Y-97900000D01*
X118250000Y-98950000D02*
X119300000Y-97900000D01*
X139747500Y-99825000D02*
X139125000Y-99825000D01*
X117200000Y-97900000D02*
X118250000Y-98950000D01*
X159747500Y-99825000D02*
X159125000Y-99825000D01*
X190776699Y-97913350D02*
X190713030Y-97900000D01*
X189747500Y-99825000D02*
X189125000Y-99825000D01*
X108250000Y-98950000D02*
X108250000Y-98947500D01*
X189125000Y-99825000D02*
X188250000Y-98950000D01*
X119300000Y-97900000D02*
X127200000Y-97900000D01*
X138250000Y-98950000D02*
X139300000Y-97900000D01*
X190883805Y-97900000D02*
X190776699Y-97913350D01*
X159300000Y-97900000D02*
X160713030Y-97900000D01*
X137200000Y-97900000D02*
X138250000Y-98950000D01*
X109297500Y-97900000D02*
X117200000Y-97900000D01*
X160883805Y-97900000D02*
X167200000Y-97900000D01*
X189300000Y-97900000D02*
X188250000Y-98950000D01*
X195347500Y-97900000D02*
X190883805Y-97900000D01*
X200776699Y-97913350D02*
X200713030Y-97900000D01*
X160713030Y-97900000D02*
X160776699Y-97913350D01*
X150883805Y-97900000D02*
X157200000Y-97900000D01*
D27*
%TO.N,Net-(D1-DOUT)*%
X103350000Y-100350000D02*
X103350000Y-98950000D01*
%TO.N,/RGB_Data*%
X105072500Y-100190380D02*
X105072500Y-100600000D01*
X106162880Y-99100000D02*
X105072500Y-100190380D01*
%TO.N,Net-(D2-DOUT)*%
X106522500Y-100600000D02*
X106600000Y-100600000D01*
X112200000Y-101100000D02*
X111050000Y-102250000D01*
X111050000Y-102250000D02*
X108250000Y-102250000D01*
X116347500Y-99100000D02*
X116147500Y-99100000D01*
X106600000Y-100600000D02*
X108250000Y-102250000D01*
X114147500Y-101100000D02*
X112200000Y-101100000D01*
X116147500Y-99100000D02*
X114147500Y-101100000D01*
%TO.N,Net-(D3-DOUT)*%
X113300000Y-99000000D02*
X113350000Y-98950000D01*
X113300000Y-100350000D02*
X113300000Y-99000000D01*
%TO.N,Net-(D5-DOUT)*%
X123300000Y-100350000D02*
X123300000Y-99000000D01*
X123300000Y-99000000D02*
X123350000Y-98950000D01*
%TO.N,Net-(D4-DOUT)*%
X124147500Y-101100000D02*
X122237500Y-101100000D01*
X116525000Y-100600000D02*
X116600000Y-100600000D01*
X126347500Y-99100000D02*
X126147500Y-99100000D01*
X121087500Y-102250000D02*
X118250000Y-102250000D01*
X122237500Y-101100000D02*
X121087500Y-102250000D01*
X126147500Y-99100000D02*
X124147500Y-101100000D01*
X116600000Y-100600000D02*
X118250000Y-102250000D01*
%TO.N,Net-(D7-DOUT)*%
X133300000Y-100350000D02*
X133300000Y-99000000D01*
X133300000Y-99000000D02*
X133350000Y-98950000D01*
%TO.N,Net-(D10-DIN)*%
X143300000Y-100350000D02*
X143300000Y-99000000D01*
X143300000Y-99000000D02*
X143350000Y-98950000D01*
%TO.N,Net-(D10-DOUT)*%
X150475316Y-101900000D02*
X150125316Y-102250000D01*
X152300000Y-101100000D02*
X151500000Y-101900000D01*
X151500000Y-101900000D02*
X150475316Y-101900000D01*
X154122500Y-101100000D02*
X152300000Y-101100000D01*
X156347500Y-99100000D02*
X156122500Y-99100000D01*
X156122500Y-99100000D02*
X154122500Y-101100000D01*
X150125316Y-102250000D02*
X148250000Y-102250000D01*
%TO.N,Net-(D11-DOUT)*%
X153300000Y-100350000D02*
X153300000Y-99000000D01*
X153300000Y-99000000D02*
X153350000Y-98950000D01*
%TO.N,Net-(U1-GPIO8)*%
X106590460Y-89217238D02*
X101722000Y-84348778D01*
X114087500Y-89600000D02*
X113704738Y-89217238D01*
X113704738Y-89217238D02*
X106590460Y-89217238D01*
X101722000Y-84348778D02*
X101722000Y-81950000D01*
%TO.N,Net-(D13-DOUT)*%
X163300000Y-99000000D02*
X163350000Y-98950000D01*
X163300000Y-100350000D02*
X163300000Y-99000000D01*
%TO.N,Net-(D14-DOUT)*%
X175575305Y-99100000D02*
X173575305Y-101100000D01*
X172200000Y-101100000D02*
X171400000Y-101900000D01*
X170147500Y-102250000D02*
X168250000Y-102250000D01*
X176347500Y-99100000D02*
X175575305Y-99100000D01*
X171400000Y-101900000D02*
X170497500Y-101900000D01*
X170497500Y-101900000D02*
X170147500Y-102250000D01*
X173575305Y-101100000D02*
X172200000Y-101100000D01*
%TO.N,Net-(D15-DOUT)*%
X173300000Y-100350000D02*
X173300000Y-99000000D01*
X173300000Y-99000000D02*
X173350000Y-98950000D01*
%TO.N,Net-(D17-DOUT)*%
X183300000Y-99000000D02*
X183350000Y-98950000D01*
X183300000Y-100350000D02*
X183300000Y-99000000D01*
%TO.N,Net-(D18-DOUT)*%
X192300000Y-101100000D02*
X191500000Y-101900000D01*
X190475317Y-101900000D02*
X190125317Y-102250000D01*
X191500000Y-101900000D02*
X190475317Y-101900000D01*
X194172500Y-101100000D02*
X192300000Y-101100000D01*
X196172500Y-99100000D02*
X194172500Y-101100000D01*
X196347500Y-99100000D02*
X196172500Y-99100000D01*
X190125317Y-102250000D02*
X188250000Y-102250000D01*
%TO.N,Net-(D19-DOUT)*%
X193300000Y-100350000D02*
X193300000Y-99000000D01*
X193300000Y-99000000D02*
X193350000Y-98950000D01*
%TO.N,Net-(D6-DOUT)*%
X134147500Y-101100000D02*
X132300000Y-101100000D01*
X126600000Y-100600000D02*
X128250000Y-102250000D01*
X126525000Y-100600000D02*
X126600000Y-100600000D01*
X132300000Y-101100000D02*
X131150000Y-102250000D01*
X131150000Y-102250000D02*
X128250000Y-102250000D01*
X136397500Y-99100000D02*
X136147500Y-99100000D01*
X136147500Y-99100000D02*
X134147500Y-101100000D01*
%TO.N,Net-(D8-DOUT)*%
X136525000Y-100600000D02*
X136600000Y-100600000D01*
X144197500Y-101100000D02*
X142300000Y-101100000D01*
X141150000Y-102250000D02*
X138250000Y-102250000D01*
X142300000Y-101100000D02*
X141150000Y-102250000D01*
X146197500Y-99100000D02*
X144197500Y-101100000D01*
X136600000Y-100600000D02*
X138250000Y-102250000D01*
X146347500Y-99100000D02*
X146197500Y-99100000D01*
%TO.N,Net-(D12-DOUT)*%
X162300000Y-101100000D02*
X161500000Y-101900000D01*
X164172500Y-101100000D02*
X162300000Y-101100000D01*
X160147500Y-102250000D02*
X158250000Y-102250000D01*
X166172500Y-99100000D02*
X164172500Y-101100000D01*
X166297500Y-99100000D02*
X166172500Y-99100000D01*
X160497500Y-101900000D02*
X160147500Y-102250000D01*
X161500000Y-101900000D02*
X160497500Y-101900000D01*
%TO.N,Net-(D16-DOUT)*%
X186347500Y-99100000D02*
X186172500Y-99100000D01*
X180125317Y-102250000D02*
X178250000Y-102250000D01*
X180475317Y-101900000D02*
X180125317Y-102250000D01*
X184172500Y-101100000D02*
X182300000Y-101100000D01*
X186172500Y-99100000D02*
X184172500Y-101100000D01*
X181500000Y-101900000D02*
X180475317Y-101900000D01*
X182300000Y-101100000D02*
X181500000Y-101900000D01*
%TO.N,Net-(D20-DOUT)*%
X202300000Y-101100000D02*
X201500000Y-101900000D01*
X201500000Y-101900000D02*
X200500000Y-101900000D01*
X204172500Y-101100000D02*
X202300000Y-101100000D01*
X206297500Y-99100000D02*
X206172500Y-99100000D01*
X200150000Y-102250000D02*
X198250000Y-102250000D01*
X206172500Y-99100000D02*
X204172500Y-101100000D01*
X200500000Y-101900000D02*
X200150000Y-102250000D01*
%TO.N,Net-(SW1-B)*%
X89272500Y-90425000D02*
X87937500Y-89090000D01*
X87937500Y-89090000D02*
X86317500Y-89090000D01*
X89272500Y-101122500D02*
X89272500Y-90425000D01*
X89550000Y-101400000D02*
X89272500Y-101122500D01*
%TO.N,Net-(U1-GPIO2{slash}ADC1_CH2)*%
X100993131Y-84256305D02*
X100993131Y-83225585D01*
X106679013Y-89942187D02*
X100993131Y-84256305D01*
X106679013Y-89942238D02*
X106679013Y-89942187D01*
%TO.N,Net-(D21-DOUT)*%
X203300000Y-99000000D02*
X203350000Y-98950000D01*
X203300000Y-100350000D02*
X203300000Y-99000000D01*
%TO.N,Net-(D22-DOUT)*%
X210500000Y-101900000D02*
X210150000Y-102250000D01*
X212300000Y-101100000D02*
X211500000Y-101900000D01*
X216347500Y-99100000D02*
X216172500Y-99100000D01*
X210150000Y-102250000D02*
X208250000Y-102250000D01*
X214172500Y-101100000D02*
X212300000Y-101100000D01*
X211500000Y-101900000D02*
X210500000Y-101900000D01*
X216172500Y-99100000D02*
X214172500Y-101100000D01*
%TO.N,Net-(D23-DOUT)*%
X213300000Y-99000000D02*
X213350000Y-98950000D01*
X213300000Y-100350000D02*
X213300000Y-99000000D01*
%TD*%
%TA.AperFunction,Conductor*%
%TO.N,GND*%
G36*
X88747000Y-101112448D02*
G01*
X88746964Y-101114565D01*
X88744840Y-101176748D01*
X88754808Y-101217655D01*
X88755993Y-101223892D01*
X88758434Y-101241644D01*
X88758809Y-101272415D01*
X88744434Y-101399996D01*
X88744435Y-101400003D01*
X88764630Y-101579249D01*
X88764631Y-101579254D01*
X88824211Y-101749523D01*
X88836124Y-101768482D01*
X88920184Y-101902262D01*
X89047738Y-102029816D01*
X89200478Y-102125789D01*
X89370745Y-102185368D01*
X89370750Y-102185369D01*
X89549996Y-102205565D01*
X89550000Y-102205565D01*
X89550004Y-102205565D01*
X89729249Y-102185369D01*
X89729252Y-102185368D01*
X89729255Y-102185368D01*
X89899522Y-102125789D01*
X90052262Y-102029816D01*
X90179816Y-101902262D01*
X90275789Y-101749522D01*
X90335368Y-101579255D01*
X90336093Y-101572822D01*
X90355565Y-101400003D01*
X90355565Y-101399996D01*
X90335369Y-101220750D01*
X90335368Y-101220745D01*
X90319972Y-101176745D01*
X90275789Y-101050478D01*
X90263301Y-101030604D01*
X90195368Y-100922489D01*
X90179816Y-100897738D01*
X90132078Y-100850000D01*
X102718763Y-100850000D01*
X102720184Y-100852262D01*
X102847738Y-100979816D01*
X102925740Y-101028828D01*
X102967715Y-101055203D01*
X103000478Y-101075789D01*
X103170745Y-101135367D01*
X103170745Y-101135368D01*
X103170750Y-101135369D01*
X103349996Y-101155565D01*
X103350000Y-101155565D01*
X103350004Y-101155565D01*
X103529249Y-101135369D01*
X103529252Y-101135368D01*
X103529255Y-101135368D01*
X103699522Y-101075789D01*
X103852262Y-100979816D01*
X103955330Y-100876747D01*
X104004315Y-100850000D01*
X104088680Y-100850000D01*
X104142275Y-100890120D01*
X104166692Y-100955584D01*
X104167008Y-100964431D01*
X104167008Y-101350005D01*
X104186852Y-101475301D01*
X104193639Y-101488621D01*
X104244450Y-101588342D01*
X104244452Y-101588344D01*
X104244454Y-101588347D01*
X104334152Y-101678045D01*
X104334154Y-101678046D01*
X104334158Y-101678050D01*
X104424389Y-101724025D01*
X104447198Y-101735647D01*
X104572495Y-101755492D01*
X104572500Y-101755492D01*
X105572474Y-101755492D01*
X105572500Y-101755492D01*
X105588843Y-101755163D01*
X105692245Y-101734482D01*
X105737083Y-101737108D01*
X105737557Y-101734120D01*
X105872495Y-101755492D01*
X105872500Y-101755492D01*
X106960959Y-101755492D01*
X107027998Y-101775177D01*
X107048637Y-101791808D01*
X107063178Y-101806348D01*
X107096665Y-101867670D01*
X107099500Y-101894032D01*
X107099500Y-102731517D01*
X107109144Y-102792409D01*
X107114354Y-102825304D01*
X107171950Y-102938342D01*
X107171952Y-102938344D01*
X107171954Y-102938347D01*
X107261652Y-103028045D01*
X107261654Y-103028046D01*
X107261658Y-103028050D01*
X107374694Y-103085645D01*
X107374698Y-103085647D01*
X107468475Y-103100499D01*
X107468481Y-103100500D01*
X109031518Y-103100499D01*
X109125304Y-103085646D01*
X109238342Y-103028050D01*
X109328050Y-102938342D01*
X109359592Y-102876436D01*
X109376526Y-102843204D01*
X109424500Y-102792409D01*
X109487010Y-102775500D01*
X111039948Y-102775500D01*
X111042065Y-102775536D01*
X111050850Y-102775835D01*
X111104245Y-102777660D01*
X111145169Y-102767686D01*
X111151368Y-102766507D01*
X111193111Y-102760771D01*
X111208386Y-102754135D01*
X111228421Y-102747397D01*
X111244594Y-102743457D01*
X111281316Y-102722808D01*
X111286955Y-102720007D01*
X111325609Y-102703219D01*
X111338528Y-102692707D01*
X111355997Y-102680818D01*
X111370512Y-102672658D01*
X111400298Y-102642870D01*
X111404999Y-102638628D01*
X111437665Y-102612054D01*
X111447264Y-102598453D01*
X111460881Y-102582287D01*
X112381350Y-101661819D01*
X112442674Y-101628334D01*
X112469032Y-101625500D01*
X114137448Y-101625500D01*
X114139565Y-101625536D01*
X114148350Y-101625835D01*
X114201745Y-101627660D01*
X114201962Y-101627607D01*
X114202164Y-101627616D01*
X114210184Y-101626792D01*
X114210307Y-101627995D01*
X114271756Y-101630856D01*
X114319006Y-101660399D01*
X114336652Y-101678045D01*
X114336654Y-101678046D01*
X114336658Y-101678050D01*
X114426889Y-101724025D01*
X114449698Y-101735647D01*
X114574995Y-101755492D01*
X114575000Y-101755492D01*
X115574974Y-101755492D01*
X115575000Y-101755492D01*
X115591343Y-101755163D01*
X115694745Y-101734482D01*
X115739583Y-101737108D01*
X115740057Y-101734120D01*
X115874995Y-101755492D01*
X115875000Y-101755492D01*
X116960959Y-101755492D01*
X117027998Y-101775177D01*
X117048637Y-101791808D01*
X117063178Y-101806348D01*
X117096665Y-101867670D01*
X117099500Y-101894032D01*
X117099500Y-102731517D01*
X117109144Y-102792409D01*
X117114354Y-102825304D01*
X117171950Y-102938342D01*
X117171952Y-102938344D01*
X117171954Y-102938347D01*
X117261652Y-103028045D01*
X117261654Y-103028046D01*
X117261658Y-103028050D01*
X117374694Y-103085645D01*
X117374698Y-103085647D01*
X117468475Y-103100499D01*
X117468481Y-103100500D01*
X119031518Y-103100499D01*
X119125304Y-103085646D01*
X119238342Y-103028050D01*
X119328050Y-102938342D01*
X119359592Y-102876436D01*
X119376526Y-102843204D01*
X119424500Y-102792409D01*
X119487010Y-102775500D01*
X121077448Y-102775500D01*
X121079565Y-102775536D01*
X121088350Y-102775835D01*
X121141745Y-102777660D01*
X121182669Y-102767686D01*
X121188868Y-102766507D01*
X121230611Y-102760771D01*
X121245886Y-102754135D01*
X121265921Y-102747397D01*
X121282094Y-102743457D01*
X121318816Y-102722808D01*
X121324455Y-102720007D01*
X121363109Y-102703219D01*
X121376028Y-102692707D01*
X121393497Y-102680818D01*
X121408012Y-102672658D01*
X121437798Y-102642870D01*
X121442499Y-102638628D01*
X121475165Y-102612054D01*
X121484764Y-102598453D01*
X121498381Y-102582287D01*
X122418850Y-101661819D01*
X122480174Y-101628334D01*
X122506532Y-101625500D01*
X124137448Y-101625500D01*
X124139565Y-101625536D01*
X124148350Y-101625835D01*
X124201745Y-101627660D01*
X124201962Y-101627607D01*
X124202164Y-101627616D01*
X124210184Y-101626792D01*
X124210307Y-101627995D01*
X124271756Y-101630856D01*
X124319006Y-101660399D01*
X124336652Y-101678045D01*
X124336654Y-101678046D01*
X124336658Y-101678050D01*
X124426889Y-101724025D01*
X124449698Y-101735647D01*
X124574995Y-101755492D01*
X124575000Y-101755492D01*
X125574974Y-101755492D01*
X125575000Y-101755492D01*
X125591343Y-101755163D01*
X125694745Y-101734482D01*
X125739583Y-101737108D01*
X125740057Y-101734120D01*
X125874995Y-101755492D01*
X125875000Y-101755492D01*
X126960959Y-101755492D01*
X127027998Y-101775177D01*
X127048637Y-101791808D01*
X127063178Y-101806348D01*
X127096665Y-101867670D01*
X127099500Y-101894032D01*
X127099500Y-102731517D01*
X127109144Y-102792409D01*
X127114354Y-102825304D01*
X127171950Y-102938342D01*
X127171952Y-102938344D01*
X127171954Y-102938347D01*
X127261652Y-103028045D01*
X127261654Y-103028046D01*
X127261658Y-103028050D01*
X127374694Y-103085645D01*
X127374698Y-103085647D01*
X127468475Y-103100499D01*
X127468481Y-103100500D01*
X129031518Y-103100499D01*
X129125304Y-103085646D01*
X129238342Y-103028050D01*
X129328050Y-102938342D01*
X129359592Y-102876436D01*
X129376526Y-102843204D01*
X129424500Y-102792409D01*
X129487010Y-102775500D01*
X131139948Y-102775500D01*
X131142065Y-102775536D01*
X131150850Y-102775835D01*
X131204245Y-102777660D01*
X131245169Y-102767686D01*
X131251368Y-102766507D01*
X131293111Y-102760771D01*
X131308386Y-102754135D01*
X131328421Y-102747397D01*
X131344594Y-102743457D01*
X131381316Y-102722808D01*
X131386955Y-102720007D01*
X131425609Y-102703219D01*
X131438528Y-102692707D01*
X131455997Y-102680818D01*
X131470512Y-102672658D01*
X131500298Y-102642870D01*
X131504999Y-102638628D01*
X131537665Y-102612054D01*
X131547264Y-102598453D01*
X131560881Y-102582287D01*
X132481350Y-101661819D01*
X132542674Y-101628334D01*
X132569032Y-101625500D01*
X134137448Y-101625500D01*
X134139565Y-101625536D01*
X134148350Y-101625835D01*
X134201745Y-101627660D01*
X134201962Y-101627607D01*
X134202164Y-101627616D01*
X134210184Y-101626792D01*
X134210307Y-101627995D01*
X134271756Y-101630856D01*
X134319006Y-101660399D01*
X134336652Y-101678045D01*
X134336654Y-101678046D01*
X134336658Y-101678050D01*
X134426889Y-101724025D01*
X134449698Y-101735647D01*
X134574995Y-101755492D01*
X134575000Y-101755492D01*
X135574974Y-101755492D01*
X135575000Y-101755492D01*
X135591343Y-101755163D01*
X135694745Y-101734482D01*
X135739583Y-101737108D01*
X135740057Y-101734120D01*
X135874995Y-101755492D01*
X135875000Y-101755492D01*
X136960959Y-101755492D01*
X137027998Y-101775177D01*
X137048637Y-101791808D01*
X137063178Y-101806348D01*
X137096665Y-101867670D01*
X137099500Y-101894032D01*
X137099500Y-102731517D01*
X137109144Y-102792409D01*
X137114354Y-102825304D01*
X137171950Y-102938342D01*
X137171952Y-102938344D01*
X137171954Y-102938347D01*
X137261652Y-103028045D01*
X137261654Y-103028046D01*
X137261658Y-103028050D01*
X137374694Y-103085645D01*
X137374698Y-103085647D01*
X137468475Y-103100499D01*
X137468481Y-103100500D01*
X139031518Y-103100499D01*
X139125304Y-103085646D01*
X139238342Y-103028050D01*
X139328050Y-102938342D01*
X139359592Y-102876436D01*
X139376526Y-102843204D01*
X139424500Y-102792409D01*
X139487010Y-102775500D01*
X141139948Y-102775500D01*
X141142065Y-102775536D01*
X141150850Y-102775835D01*
X141204245Y-102777660D01*
X141245169Y-102767686D01*
X141251368Y-102766507D01*
X141293111Y-102760771D01*
X141308386Y-102754135D01*
X141328421Y-102747397D01*
X141344594Y-102743457D01*
X141381316Y-102722808D01*
X141386955Y-102720007D01*
X141425609Y-102703219D01*
X141438528Y-102692707D01*
X141455997Y-102680818D01*
X141470512Y-102672658D01*
X141500298Y-102642870D01*
X141504999Y-102638628D01*
X141537665Y-102612054D01*
X141547264Y-102598453D01*
X141560881Y-102582287D01*
X142481350Y-101661819D01*
X142542674Y-101628334D01*
X142569032Y-101625500D01*
X144187448Y-101625500D01*
X144189565Y-101625536D01*
X144198350Y-101625835D01*
X144251745Y-101627660D01*
X144292669Y-101617686D01*
X144298868Y-101616507D01*
X144340611Y-101610771D01*
X144355886Y-101604135D01*
X144375921Y-101597397D01*
X144392094Y-101593457D01*
X144428816Y-101572808D01*
X144434455Y-101570007D01*
X144473109Y-101553219D01*
X144486028Y-101542707D01*
X144503497Y-101530818D01*
X144518012Y-101522658D01*
X144547798Y-101492870D01*
X144552499Y-101488628D01*
X144585165Y-101462054D01*
X144594764Y-101448453D01*
X144608381Y-101432287D01*
X145154350Y-100886319D01*
X145215673Y-100852834D01*
X145242031Y-100850000D01*
X150404165Y-100850000D01*
X150471204Y-100869685D01*
X150516959Y-100922489D01*
X150526903Y-100991647D01*
X150511682Y-101029206D01*
X150514426Y-101030604D01*
X150509996Y-101039297D01*
X150509995Y-101039299D01*
X150491403Y-101075788D01*
X150472516Y-101112856D01*
X150460913Y-101125140D01*
X150460038Y-101129500D01*
X150460605Y-101129590D01*
X150445055Y-101227762D01*
X150433779Y-101251547D01*
X150433779Y-101280441D01*
X150429417Y-101297665D01*
X150393877Y-101357820D01*
X150339826Y-101385002D01*
X150340370Y-101386941D01*
X150332205Y-101389228D01*
X150316927Y-101395864D01*
X150296901Y-101402599D01*
X150280723Y-101406542D01*
X150280717Y-101406545D01*
X150244024Y-101427176D01*
X150238337Y-101430000D01*
X150199709Y-101446779D01*
X150199705Y-101446781D01*
X150186789Y-101457289D01*
X150169319Y-101469180D01*
X150154801Y-101477343D01*
X150125025Y-101507118D01*
X150120313Y-101511371D01*
X150087650Y-101537946D01*
X150078050Y-101551546D01*
X150064430Y-101567715D01*
X149943966Y-101688181D01*
X149882643Y-101721666D01*
X149856284Y-101724500D01*
X149487010Y-101724500D01*
X149419971Y-101704815D01*
X149376526Y-101656796D01*
X149337016Y-101579255D01*
X149328050Y-101561658D01*
X149328047Y-101561655D01*
X149328045Y-101561652D01*
X149238347Y-101471954D01*
X149238344Y-101471952D01*
X149238342Y-101471950D01*
X149153528Y-101428735D01*
X149125301Y-101414352D01*
X149031524Y-101399500D01*
X147468482Y-101399500D01*
X147387519Y-101412323D01*
X147374696Y-101414354D01*
X147261658Y-101471950D01*
X147261656Y-101471951D01*
X147261657Y-101471951D01*
X147261652Y-101471954D01*
X147171954Y-101561652D01*
X147171951Y-101561657D01*
X147171950Y-101561658D01*
X147162984Y-101579255D01*
X147114352Y-101674698D01*
X147099500Y-101768475D01*
X147099500Y-102731517D01*
X147109144Y-102792409D01*
X147114354Y-102825304D01*
X147171950Y-102938342D01*
X147171952Y-102938344D01*
X147171954Y-102938347D01*
X147261652Y-103028045D01*
X147261654Y-103028046D01*
X147261658Y-103028050D01*
X147374694Y-103085645D01*
X147374698Y-103085647D01*
X147468475Y-103100499D01*
X147468481Y-103100500D01*
X149031518Y-103100499D01*
X149125304Y-103085646D01*
X149238342Y-103028050D01*
X149328050Y-102938342D01*
X149359592Y-102876436D01*
X149376526Y-102843204D01*
X149424500Y-102792409D01*
X149487010Y-102775500D01*
X150115264Y-102775500D01*
X150117381Y-102775536D01*
X150126166Y-102775835D01*
X150179561Y-102777660D01*
X150220485Y-102767686D01*
X150226684Y-102766507D01*
X150268427Y-102760771D01*
X150283702Y-102754135D01*
X150303737Y-102747397D01*
X150319910Y-102743457D01*
X150349753Y-102726676D01*
X150417833Y-102710975D01*
X150483597Y-102734575D01*
X150502941Y-102753953D01*
X150503094Y-102753801D01*
X150589293Y-102840000D01*
X150589296Y-102840002D01*
X150589299Y-102840005D01*
X150689228Y-102890921D01*
X150689230Y-102890922D01*
X150799998Y-102908466D01*
X150800000Y-102908466D01*
X150800002Y-102908466D01*
X150910769Y-102890922D01*
X150910770Y-102890921D01*
X150910772Y-102890921D01*
X151010701Y-102840005D01*
X151090005Y-102760701D01*
X151127485Y-102687141D01*
X151139087Y-102674856D01*
X151139965Y-102670501D01*
X151139395Y-102670411D01*
X151154944Y-102572238D01*
X151166236Y-102548415D01*
X151166254Y-102519415D01*
X151166381Y-102518916D01*
X151201992Y-102458803D01*
X151264450Y-102427485D01*
X151286550Y-102425500D01*
X151489948Y-102425500D01*
X151492065Y-102425536D01*
X151500850Y-102425835D01*
X151554245Y-102427660D01*
X151595169Y-102417686D01*
X151601368Y-102416507D01*
X151643111Y-102410771D01*
X151658386Y-102404135D01*
X151678421Y-102397397D01*
X151694594Y-102393457D01*
X151731316Y-102372808D01*
X151736955Y-102370007D01*
X151775609Y-102353219D01*
X151788528Y-102342707D01*
X151805997Y-102330818D01*
X151820512Y-102322658D01*
X151850298Y-102292870D01*
X151854999Y-102288628D01*
X151887665Y-102262054D01*
X151897264Y-102248453D01*
X151910881Y-102232287D01*
X152481350Y-101661819D01*
X152542674Y-101628334D01*
X152569032Y-101625500D01*
X154112448Y-101625500D01*
X154114565Y-101625536D01*
X154123350Y-101625835D01*
X154176745Y-101627660D01*
X154217669Y-101617686D01*
X154223868Y-101616507D01*
X154265611Y-101610771D01*
X154280886Y-101604135D01*
X154300921Y-101597397D01*
X154317094Y-101593457D01*
X154353816Y-101572808D01*
X154359455Y-101570007D01*
X154398109Y-101553219D01*
X154411028Y-101542707D01*
X154428497Y-101530818D01*
X154443012Y-101522658D01*
X154472798Y-101492870D01*
X154477499Y-101488628D01*
X154510165Y-101462054D01*
X154519764Y-101448453D01*
X154533381Y-101432287D01*
X155079350Y-100886318D01*
X155140673Y-100852834D01*
X155167031Y-100850000D01*
X160404165Y-100850000D01*
X160471204Y-100869685D01*
X160516959Y-100922489D01*
X160526903Y-100991647D01*
X160511682Y-101029206D01*
X160514426Y-101030604D01*
X160509996Y-101039297D01*
X160509995Y-101039299D01*
X160491403Y-101075788D01*
X160472516Y-101112856D01*
X160460913Y-101125140D01*
X160460038Y-101129500D01*
X160460605Y-101129590D01*
X160445055Y-101227762D01*
X160433778Y-101251548D01*
X160433778Y-101280445D01*
X160427584Y-101304900D01*
X160392042Y-101365054D01*
X160356782Y-101388188D01*
X160339117Y-101395861D01*
X160319085Y-101402599D01*
X160302907Y-101406542D01*
X160302901Y-101406545D01*
X160266208Y-101427176D01*
X160260521Y-101430000D01*
X160221893Y-101446779D01*
X160221889Y-101446781D01*
X160208973Y-101457289D01*
X160191503Y-101469180D01*
X160176985Y-101477343D01*
X160147209Y-101507118D01*
X160142497Y-101511371D01*
X160109834Y-101537946D01*
X160100234Y-101551546D01*
X160086614Y-101567715D01*
X159966150Y-101688181D01*
X159904827Y-101721666D01*
X159878468Y-101724500D01*
X159487010Y-101724500D01*
X159419971Y-101704815D01*
X159376526Y-101656796D01*
X159337016Y-101579255D01*
X159328050Y-101561658D01*
X159328047Y-101561655D01*
X159328045Y-101561652D01*
X159238347Y-101471954D01*
X159238344Y-101471952D01*
X159238342Y-101471950D01*
X159153528Y-101428735D01*
X159125301Y-101414352D01*
X159031524Y-101399500D01*
X157468482Y-101399500D01*
X157387519Y-101412323D01*
X157374696Y-101414354D01*
X157261658Y-101471950D01*
X157261656Y-101471951D01*
X157261657Y-101471951D01*
X157261652Y-101471954D01*
X157171954Y-101561652D01*
X157171951Y-101561657D01*
X157171950Y-101561658D01*
X157162984Y-101579255D01*
X157114352Y-101674698D01*
X157099500Y-101768475D01*
X157099500Y-102731517D01*
X157109144Y-102792409D01*
X157114354Y-102825304D01*
X157171950Y-102938342D01*
X157171952Y-102938344D01*
X157171954Y-102938347D01*
X157261652Y-103028045D01*
X157261654Y-103028046D01*
X157261658Y-103028050D01*
X157374694Y-103085645D01*
X157374698Y-103085647D01*
X157468475Y-103100499D01*
X157468481Y-103100500D01*
X159031518Y-103100499D01*
X159125304Y-103085646D01*
X159238342Y-103028050D01*
X159328050Y-102938342D01*
X159359592Y-102876436D01*
X159376526Y-102843204D01*
X159424500Y-102792409D01*
X159487010Y-102775500D01*
X160137448Y-102775500D01*
X160139565Y-102775536D01*
X160148350Y-102775835D01*
X160201745Y-102777660D01*
X160242669Y-102767686D01*
X160248868Y-102766507D01*
X160290611Y-102760771D01*
X160305886Y-102754135D01*
X160325921Y-102747397D01*
X160342094Y-102743457D01*
X160356558Y-102735323D01*
X160424640Y-102719621D01*
X160490403Y-102743220D01*
X160505018Y-102755725D01*
X160589293Y-102840000D01*
X160589296Y-102840002D01*
X160589299Y-102840005D01*
X160689228Y-102890921D01*
X160689230Y-102890922D01*
X160799998Y-102908466D01*
X160800000Y-102908466D01*
X160800002Y-102908466D01*
X160910769Y-102890922D01*
X160910770Y-102890921D01*
X160910772Y-102890921D01*
X161010701Y-102840005D01*
X161090005Y-102760701D01*
X161127485Y-102687141D01*
X161139087Y-102674856D01*
X161139965Y-102670501D01*
X161139395Y-102670411D01*
X161154944Y-102572238D01*
X161166236Y-102548415D01*
X161166254Y-102519415D01*
X161166381Y-102518916D01*
X161201992Y-102458803D01*
X161264450Y-102427485D01*
X161286550Y-102425500D01*
X161489948Y-102425500D01*
X161492065Y-102425536D01*
X161500850Y-102425835D01*
X161554245Y-102427660D01*
X161595169Y-102417686D01*
X161601368Y-102416507D01*
X161643111Y-102410771D01*
X161658386Y-102404135D01*
X161678421Y-102397397D01*
X161694594Y-102393457D01*
X161731316Y-102372808D01*
X161736955Y-102370007D01*
X161775609Y-102353219D01*
X161788528Y-102342707D01*
X161805997Y-102330818D01*
X161820512Y-102322658D01*
X161850298Y-102292870D01*
X161854999Y-102288628D01*
X161887665Y-102262054D01*
X161897264Y-102248453D01*
X161910881Y-102232287D01*
X162481350Y-101661819D01*
X162542674Y-101628334D01*
X162569032Y-101625500D01*
X164162448Y-101625500D01*
X164164565Y-101625536D01*
X164173350Y-101625835D01*
X164226745Y-101627660D01*
X164267669Y-101617686D01*
X164273868Y-101616507D01*
X164315611Y-101610771D01*
X164330886Y-101604135D01*
X164350921Y-101597397D01*
X164367094Y-101593457D01*
X164403816Y-101572808D01*
X164409455Y-101570007D01*
X164448109Y-101553219D01*
X164461028Y-101542707D01*
X164478497Y-101530818D01*
X164493012Y-101522658D01*
X164522798Y-101492870D01*
X164527499Y-101488628D01*
X164560165Y-101462054D01*
X164569764Y-101448453D01*
X164583381Y-101432287D01*
X165129350Y-100886319D01*
X165190673Y-100852834D01*
X165217031Y-100850000D01*
X170404165Y-100850000D01*
X170471204Y-100869685D01*
X170516959Y-100922489D01*
X170526903Y-100991647D01*
X170511682Y-101029206D01*
X170514426Y-101030604D01*
X170509996Y-101039297D01*
X170509995Y-101039299D01*
X170491403Y-101075788D01*
X170472516Y-101112856D01*
X170460913Y-101125140D01*
X170460038Y-101129500D01*
X170460605Y-101129590D01*
X170445055Y-101227762D01*
X170433778Y-101251548D01*
X170433778Y-101280445D01*
X170427584Y-101304900D01*
X170392042Y-101365054D01*
X170356782Y-101388188D01*
X170339117Y-101395861D01*
X170319085Y-101402599D01*
X170302907Y-101406542D01*
X170302901Y-101406545D01*
X170266208Y-101427176D01*
X170260521Y-101430000D01*
X170221893Y-101446779D01*
X170221889Y-101446781D01*
X170208973Y-101457289D01*
X170191503Y-101469180D01*
X170176985Y-101477343D01*
X170147209Y-101507118D01*
X170142497Y-101511371D01*
X170109834Y-101537946D01*
X170100234Y-101551546D01*
X170086614Y-101567715D01*
X169966150Y-101688181D01*
X169904827Y-101721666D01*
X169878468Y-101724500D01*
X169487010Y-101724500D01*
X169419971Y-101704815D01*
X169376526Y-101656796D01*
X169337016Y-101579255D01*
X169328050Y-101561658D01*
X169328047Y-101561655D01*
X169328045Y-101561652D01*
X169238347Y-101471954D01*
X169238344Y-101471952D01*
X169238342Y-101471950D01*
X169153528Y-101428735D01*
X169125301Y-101414352D01*
X169031524Y-101399500D01*
X167468482Y-101399500D01*
X167387519Y-101412323D01*
X167374696Y-101414354D01*
X167261658Y-101471950D01*
X167261656Y-101471951D01*
X167261657Y-101471951D01*
X167261652Y-101471954D01*
X167171954Y-101561652D01*
X167171951Y-101561657D01*
X167171950Y-101561658D01*
X167162984Y-101579255D01*
X167114352Y-101674698D01*
X167099500Y-101768475D01*
X167099500Y-102731517D01*
X167109144Y-102792409D01*
X167114354Y-102825304D01*
X167171950Y-102938342D01*
X167171952Y-102938344D01*
X167171954Y-102938347D01*
X167261652Y-103028045D01*
X167261654Y-103028046D01*
X167261658Y-103028050D01*
X167374694Y-103085645D01*
X167374698Y-103085647D01*
X167468475Y-103100499D01*
X167468481Y-103100500D01*
X169031518Y-103100499D01*
X169125304Y-103085646D01*
X169238342Y-103028050D01*
X169328050Y-102938342D01*
X169359592Y-102876436D01*
X169376526Y-102843204D01*
X169424500Y-102792409D01*
X169487010Y-102775500D01*
X170137448Y-102775500D01*
X170139565Y-102775536D01*
X170148350Y-102775835D01*
X170201745Y-102777660D01*
X170242669Y-102767686D01*
X170248868Y-102766507D01*
X170290611Y-102760771D01*
X170305886Y-102754135D01*
X170325921Y-102747397D01*
X170342094Y-102743457D01*
X170356558Y-102735323D01*
X170424640Y-102719621D01*
X170490403Y-102743220D01*
X170505018Y-102755725D01*
X170589293Y-102840000D01*
X170589296Y-102840002D01*
X170589299Y-102840005D01*
X170689228Y-102890921D01*
X170689230Y-102890922D01*
X170799998Y-102908466D01*
X170800000Y-102908466D01*
X170800002Y-102908466D01*
X170910769Y-102890922D01*
X170910770Y-102890921D01*
X170910772Y-102890921D01*
X171010701Y-102840005D01*
X171090005Y-102760701D01*
X171127485Y-102687141D01*
X171139087Y-102674856D01*
X171139965Y-102670501D01*
X171139395Y-102670411D01*
X171154944Y-102572238D01*
X171166236Y-102548415D01*
X171166254Y-102519415D01*
X171166381Y-102518916D01*
X171201992Y-102458803D01*
X171264450Y-102427485D01*
X171286550Y-102425500D01*
X171389948Y-102425500D01*
X171392065Y-102425536D01*
X171400850Y-102425835D01*
X171454245Y-102427660D01*
X171495169Y-102417686D01*
X171501368Y-102416507D01*
X171543111Y-102410771D01*
X171558386Y-102404135D01*
X171578421Y-102397397D01*
X171594594Y-102393457D01*
X171631316Y-102372808D01*
X171636955Y-102370007D01*
X171675609Y-102353219D01*
X171688528Y-102342707D01*
X171705997Y-102330818D01*
X171720512Y-102322658D01*
X171750298Y-102292870D01*
X171754999Y-102288628D01*
X171787665Y-102262054D01*
X171797264Y-102248453D01*
X171810881Y-102232287D01*
X172381350Y-101661819D01*
X172442674Y-101628334D01*
X172469032Y-101625500D01*
X173565253Y-101625500D01*
X173567370Y-101625536D01*
X173576155Y-101625835D01*
X173629550Y-101627660D01*
X173670474Y-101617686D01*
X173676673Y-101616507D01*
X173718416Y-101610771D01*
X173733691Y-101604135D01*
X173753726Y-101597397D01*
X173769899Y-101593457D01*
X173806621Y-101572808D01*
X173812260Y-101570007D01*
X173850914Y-101553219D01*
X173863833Y-101542707D01*
X173881302Y-101530818D01*
X173895817Y-101522658D01*
X173925603Y-101492870D01*
X173930304Y-101488628D01*
X173962970Y-101462054D01*
X173972569Y-101448453D01*
X173986186Y-101432287D01*
X174532154Y-100886319D01*
X174593478Y-100852834D01*
X174619836Y-100850000D01*
X180404165Y-100850000D01*
X180471204Y-100869685D01*
X180516959Y-100922489D01*
X180526903Y-100991647D01*
X180511682Y-101029206D01*
X180514426Y-101030604D01*
X180509996Y-101039297D01*
X180509995Y-101039299D01*
X180491403Y-101075788D01*
X180472516Y-101112856D01*
X180460913Y-101125140D01*
X180460038Y-101129500D01*
X180460605Y-101129590D01*
X180445055Y-101227762D01*
X180433779Y-101251547D01*
X180433779Y-101280441D01*
X180429417Y-101297665D01*
X180393877Y-101357820D01*
X180339827Y-101385001D01*
X180340371Y-101386941D01*
X180332206Y-101389228D01*
X180316928Y-101395864D01*
X180296902Y-101402599D01*
X180280724Y-101406542D01*
X180280718Y-101406545D01*
X180244025Y-101427176D01*
X180238338Y-101430000D01*
X180199710Y-101446779D01*
X180199706Y-101446781D01*
X180186790Y-101457289D01*
X180169320Y-101469180D01*
X180154802Y-101477343D01*
X180125026Y-101507118D01*
X180120314Y-101511371D01*
X180087651Y-101537946D01*
X180078051Y-101551546D01*
X180064431Y-101567715D01*
X179943967Y-101688181D01*
X179882644Y-101721666D01*
X179856285Y-101724500D01*
X179487010Y-101724500D01*
X179419971Y-101704815D01*
X179376526Y-101656796D01*
X179337016Y-101579255D01*
X179328050Y-101561658D01*
X179328047Y-101561655D01*
X179328045Y-101561652D01*
X179238347Y-101471954D01*
X179238344Y-101471952D01*
X179238342Y-101471950D01*
X179153528Y-101428735D01*
X179125301Y-101414352D01*
X179031524Y-101399500D01*
X177468482Y-101399500D01*
X177387519Y-101412323D01*
X177374696Y-101414354D01*
X177261658Y-101471950D01*
X177261656Y-101471951D01*
X177261657Y-101471951D01*
X177261652Y-101471954D01*
X177171954Y-101561652D01*
X177171951Y-101561657D01*
X177171950Y-101561658D01*
X177162984Y-101579255D01*
X177114352Y-101674698D01*
X177099500Y-101768475D01*
X177099500Y-102731517D01*
X177109144Y-102792409D01*
X177114354Y-102825304D01*
X177171950Y-102938342D01*
X177171952Y-102938344D01*
X177171954Y-102938347D01*
X177261652Y-103028045D01*
X177261654Y-103028046D01*
X177261658Y-103028050D01*
X177374694Y-103085645D01*
X177374698Y-103085647D01*
X177468475Y-103100499D01*
X177468481Y-103100500D01*
X179031518Y-103100499D01*
X179125304Y-103085646D01*
X179238342Y-103028050D01*
X179328050Y-102938342D01*
X179359592Y-102876436D01*
X179376526Y-102843204D01*
X179424500Y-102792409D01*
X179487010Y-102775500D01*
X180115265Y-102775500D01*
X180117382Y-102775536D01*
X180126167Y-102775835D01*
X180179562Y-102777660D01*
X180220486Y-102767686D01*
X180226685Y-102766507D01*
X180268428Y-102760771D01*
X180283703Y-102754135D01*
X180303738Y-102747397D01*
X180319911Y-102743457D01*
X180349754Y-102726676D01*
X180417834Y-102710975D01*
X180483598Y-102734575D01*
X180502940Y-102753954D01*
X180503094Y-102753801D01*
X180589293Y-102840000D01*
X180589296Y-102840002D01*
X180589299Y-102840005D01*
X180689228Y-102890921D01*
X180689230Y-102890922D01*
X180799998Y-102908466D01*
X180800000Y-102908466D01*
X180800002Y-102908466D01*
X180910769Y-102890922D01*
X180910770Y-102890921D01*
X180910772Y-102890921D01*
X181010701Y-102840005D01*
X181090005Y-102760701D01*
X181127485Y-102687141D01*
X181139087Y-102674856D01*
X181139965Y-102670501D01*
X181139395Y-102670411D01*
X181154944Y-102572238D01*
X181166236Y-102548415D01*
X181166254Y-102519415D01*
X181166381Y-102518916D01*
X181201992Y-102458803D01*
X181264450Y-102427485D01*
X181286550Y-102425500D01*
X181489948Y-102425500D01*
X181492065Y-102425536D01*
X181500850Y-102425835D01*
X181554245Y-102427660D01*
X181595169Y-102417686D01*
X181601368Y-102416507D01*
X181643111Y-102410771D01*
X181658386Y-102404135D01*
X181678421Y-102397397D01*
X181694594Y-102393457D01*
X181731316Y-102372808D01*
X181736955Y-102370007D01*
X181775609Y-102353219D01*
X181788528Y-102342707D01*
X181805997Y-102330818D01*
X181820512Y-102322658D01*
X181850298Y-102292870D01*
X181854999Y-102288628D01*
X181887665Y-102262054D01*
X181897264Y-102248453D01*
X181910881Y-102232287D01*
X182481350Y-101661819D01*
X182542674Y-101628334D01*
X182569032Y-101625500D01*
X184162448Y-101625500D01*
X184164565Y-101625536D01*
X184173350Y-101625835D01*
X184226745Y-101627660D01*
X184267669Y-101617686D01*
X184273868Y-101616507D01*
X184315611Y-101610771D01*
X184330886Y-101604135D01*
X184350921Y-101597397D01*
X184367094Y-101593457D01*
X184403816Y-101572808D01*
X184409455Y-101570007D01*
X184448109Y-101553219D01*
X184461028Y-101542707D01*
X184478497Y-101530818D01*
X184493012Y-101522658D01*
X184522798Y-101492870D01*
X184527499Y-101488628D01*
X184560165Y-101462054D01*
X184569764Y-101448453D01*
X184583381Y-101432287D01*
X185129349Y-100886319D01*
X185190673Y-100852834D01*
X185217031Y-100850000D01*
X190404165Y-100850000D01*
X190471204Y-100869685D01*
X190516959Y-100922489D01*
X190526903Y-100991647D01*
X190511682Y-101029206D01*
X190514426Y-101030604D01*
X190509996Y-101039297D01*
X190509995Y-101039299D01*
X190491403Y-101075788D01*
X190472516Y-101112856D01*
X190460913Y-101125140D01*
X190460038Y-101129500D01*
X190460605Y-101129590D01*
X190445055Y-101227762D01*
X190433779Y-101251547D01*
X190433779Y-101280441D01*
X190429417Y-101297665D01*
X190393877Y-101357820D01*
X190339827Y-101385001D01*
X190340371Y-101386941D01*
X190332206Y-101389228D01*
X190316928Y-101395864D01*
X190296902Y-101402599D01*
X190280724Y-101406542D01*
X190280718Y-101406545D01*
X190244025Y-101427176D01*
X190238338Y-101430000D01*
X190199710Y-101446779D01*
X190199706Y-101446781D01*
X190186790Y-101457289D01*
X190169320Y-101469180D01*
X190154802Y-101477343D01*
X190125026Y-101507118D01*
X190120314Y-101511371D01*
X190087651Y-101537946D01*
X190078051Y-101551546D01*
X190064431Y-101567715D01*
X189943967Y-101688181D01*
X189882644Y-101721666D01*
X189856285Y-101724500D01*
X189487010Y-101724500D01*
X189419971Y-101704815D01*
X189376526Y-101656796D01*
X189337016Y-101579255D01*
X189328050Y-101561658D01*
X189328047Y-101561655D01*
X189328045Y-101561652D01*
X189238347Y-101471954D01*
X189238344Y-101471952D01*
X189238342Y-101471950D01*
X189153528Y-101428735D01*
X189125301Y-101414352D01*
X189031524Y-101399500D01*
X187468482Y-101399500D01*
X187387519Y-101412323D01*
X187374696Y-101414354D01*
X187261658Y-101471950D01*
X187261656Y-101471951D01*
X187261657Y-101471951D01*
X187261652Y-101471954D01*
X187171954Y-101561652D01*
X187171951Y-101561657D01*
X187171950Y-101561658D01*
X187162984Y-101579255D01*
X187114352Y-101674698D01*
X187099500Y-101768475D01*
X187099500Y-102731517D01*
X187109144Y-102792409D01*
X187114354Y-102825304D01*
X187171950Y-102938342D01*
X187171952Y-102938344D01*
X187171954Y-102938347D01*
X187261652Y-103028045D01*
X187261654Y-103028046D01*
X187261658Y-103028050D01*
X187374694Y-103085645D01*
X187374698Y-103085647D01*
X187468475Y-103100499D01*
X187468481Y-103100500D01*
X189031518Y-103100499D01*
X189125304Y-103085646D01*
X189238342Y-103028050D01*
X189328050Y-102938342D01*
X189359592Y-102876436D01*
X189376526Y-102843204D01*
X189424500Y-102792409D01*
X189487010Y-102775500D01*
X190115265Y-102775500D01*
X190117382Y-102775536D01*
X190126167Y-102775835D01*
X190179562Y-102777660D01*
X190220486Y-102767686D01*
X190226685Y-102766507D01*
X190268428Y-102760771D01*
X190283703Y-102754135D01*
X190303738Y-102747397D01*
X190319911Y-102743457D01*
X190349754Y-102726676D01*
X190417834Y-102710975D01*
X190483598Y-102734575D01*
X190502940Y-102753954D01*
X190503094Y-102753801D01*
X190589293Y-102840000D01*
X190589296Y-102840002D01*
X190589299Y-102840005D01*
X190689228Y-102890921D01*
X190689230Y-102890922D01*
X190799998Y-102908466D01*
X190800000Y-102908466D01*
X190800002Y-102908466D01*
X190910769Y-102890922D01*
X190910770Y-102890921D01*
X190910772Y-102890921D01*
X191010701Y-102840005D01*
X191090005Y-102760701D01*
X191127485Y-102687141D01*
X191139087Y-102674856D01*
X191139965Y-102670501D01*
X191139395Y-102670411D01*
X191154944Y-102572238D01*
X191166236Y-102548415D01*
X191166254Y-102519415D01*
X191166381Y-102518916D01*
X191201992Y-102458803D01*
X191264450Y-102427485D01*
X191286550Y-102425500D01*
X191489948Y-102425500D01*
X191492065Y-102425536D01*
X191500850Y-102425835D01*
X191554245Y-102427660D01*
X191595169Y-102417686D01*
X191601368Y-102416507D01*
X191643111Y-102410771D01*
X191658386Y-102404135D01*
X191678421Y-102397397D01*
X191694594Y-102393457D01*
X191731316Y-102372808D01*
X191736955Y-102370007D01*
X191775609Y-102353219D01*
X191788528Y-102342707D01*
X191805997Y-102330818D01*
X191820512Y-102322658D01*
X191850298Y-102292870D01*
X191854999Y-102288628D01*
X191887665Y-102262054D01*
X191897264Y-102248453D01*
X191910881Y-102232287D01*
X192481350Y-101661819D01*
X192542674Y-101628334D01*
X192569032Y-101625500D01*
X194162448Y-101625500D01*
X194164565Y-101625536D01*
X194173350Y-101625835D01*
X194226745Y-101627660D01*
X194267669Y-101617686D01*
X194273868Y-101616507D01*
X194315611Y-101610771D01*
X194330886Y-101604135D01*
X194350921Y-101597397D01*
X194367094Y-101593457D01*
X194403816Y-101572808D01*
X194409455Y-101570007D01*
X194448109Y-101553219D01*
X194461028Y-101542707D01*
X194478497Y-101530818D01*
X194493012Y-101522658D01*
X194522798Y-101492870D01*
X194527499Y-101488628D01*
X194560165Y-101462054D01*
X194569764Y-101448453D01*
X194583381Y-101432287D01*
X195129350Y-100886319D01*
X195190673Y-100852834D01*
X195217031Y-100850000D01*
X200404165Y-100850000D01*
X200471204Y-100869685D01*
X200516959Y-100922489D01*
X200526903Y-100991647D01*
X200511682Y-101029206D01*
X200514426Y-101030604D01*
X200509996Y-101039297D01*
X200509995Y-101039299D01*
X200491403Y-101075788D01*
X200472516Y-101112856D01*
X200460913Y-101125140D01*
X200460038Y-101129500D01*
X200460605Y-101129590D01*
X200445055Y-101227762D01*
X200433779Y-101251547D01*
X200433779Y-101280443D01*
X200427276Y-101306119D01*
X200391734Y-101366274D01*
X200356467Y-101389412D01*
X200341611Y-101395864D01*
X200321585Y-101402599D01*
X200305407Y-101406542D01*
X200305401Y-101406545D01*
X200268708Y-101427176D01*
X200263021Y-101430000D01*
X200224393Y-101446779D01*
X200224389Y-101446781D01*
X200211473Y-101457289D01*
X200194003Y-101469180D01*
X200179485Y-101477343D01*
X200149709Y-101507118D01*
X200144997Y-101511371D01*
X200112334Y-101537946D01*
X200102734Y-101551546D01*
X200089114Y-101567715D01*
X199968650Y-101688181D01*
X199907327Y-101721666D01*
X199880968Y-101724500D01*
X199487010Y-101724500D01*
X199419971Y-101704815D01*
X199376526Y-101656796D01*
X199337016Y-101579255D01*
X199328050Y-101561658D01*
X199328047Y-101561655D01*
X199328045Y-101561652D01*
X199238347Y-101471954D01*
X199238344Y-101471952D01*
X199238342Y-101471950D01*
X199153528Y-101428735D01*
X199125301Y-101414352D01*
X199031524Y-101399500D01*
X197468482Y-101399500D01*
X197387519Y-101412323D01*
X197374696Y-101414354D01*
X197261658Y-101471950D01*
X197261656Y-101471951D01*
X197261657Y-101471951D01*
X197261652Y-101471954D01*
X197171954Y-101561652D01*
X197171951Y-101561657D01*
X197171950Y-101561658D01*
X197162984Y-101579255D01*
X197114352Y-101674698D01*
X197099500Y-101768475D01*
X197099500Y-102731517D01*
X197109144Y-102792409D01*
X197114354Y-102825304D01*
X197171950Y-102938342D01*
X197171952Y-102938344D01*
X197171954Y-102938347D01*
X197261652Y-103028045D01*
X197261654Y-103028046D01*
X197261658Y-103028050D01*
X197374694Y-103085645D01*
X197374698Y-103085647D01*
X197468475Y-103100499D01*
X197468481Y-103100500D01*
X199031518Y-103100499D01*
X199125304Y-103085646D01*
X199238342Y-103028050D01*
X199328050Y-102938342D01*
X199359592Y-102876436D01*
X199376526Y-102843204D01*
X199424500Y-102792409D01*
X199487010Y-102775500D01*
X200139948Y-102775500D01*
X200142065Y-102775536D01*
X200150850Y-102775835D01*
X200204245Y-102777660D01*
X200245169Y-102767686D01*
X200251368Y-102766507D01*
X200293111Y-102760771D01*
X200308386Y-102754135D01*
X200328421Y-102747397D01*
X200344594Y-102743457D01*
X200357460Y-102736222D01*
X200425541Y-102720521D01*
X200491304Y-102744120D01*
X200505918Y-102756625D01*
X200589293Y-102840000D01*
X200589296Y-102840002D01*
X200589299Y-102840005D01*
X200689228Y-102890921D01*
X200689230Y-102890922D01*
X200799998Y-102908466D01*
X200800000Y-102908466D01*
X200800002Y-102908466D01*
X200910769Y-102890922D01*
X200910770Y-102890921D01*
X200910772Y-102890921D01*
X201010701Y-102840005D01*
X201090005Y-102760701D01*
X201127485Y-102687141D01*
X201139087Y-102674856D01*
X201139965Y-102670501D01*
X201139395Y-102670411D01*
X201154944Y-102572238D01*
X201166236Y-102548415D01*
X201166254Y-102519415D01*
X201166381Y-102518916D01*
X201201992Y-102458803D01*
X201264450Y-102427485D01*
X201286550Y-102425500D01*
X201489948Y-102425500D01*
X201492065Y-102425536D01*
X201500850Y-102425835D01*
X201554245Y-102427660D01*
X201595169Y-102417686D01*
X201601368Y-102416507D01*
X201643111Y-102410771D01*
X201658386Y-102404135D01*
X201678421Y-102397397D01*
X201694594Y-102393457D01*
X201731316Y-102372808D01*
X201736955Y-102370007D01*
X201775609Y-102353219D01*
X201788528Y-102342707D01*
X201805997Y-102330818D01*
X201820512Y-102322658D01*
X201850298Y-102292870D01*
X201854999Y-102288628D01*
X201887665Y-102262054D01*
X201897264Y-102248453D01*
X201910881Y-102232287D01*
X202481350Y-101661819D01*
X202542674Y-101628334D01*
X202569032Y-101625500D01*
X204162448Y-101625500D01*
X204164565Y-101625536D01*
X204173350Y-101625835D01*
X204226745Y-101627660D01*
X204267669Y-101617686D01*
X204273868Y-101616507D01*
X204315611Y-101610771D01*
X204330886Y-101604135D01*
X204350921Y-101597397D01*
X204367094Y-101593457D01*
X204403816Y-101572808D01*
X204409455Y-101570007D01*
X204448109Y-101553219D01*
X204461028Y-101542707D01*
X204478497Y-101530818D01*
X204493012Y-101522658D01*
X204522798Y-101492870D01*
X204527499Y-101488628D01*
X204560165Y-101462054D01*
X204569764Y-101448453D01*
X204583381Y-101432287D01*
X205129350Y-100886318D01*
X205190673Y-100852834D01*
X205217031Y-100850000D01*
X210404165Y-100850000D01*
X210471204Y-100869685D01*
X210516959Y-100922489D01*
X210526903Y-100991647D01*
X210511682Y-101029206D01*
X210514426Y-101030604D01*
X210509996Y-101039297D01*
X210509995Y-101039299D01*
X210491403Y-101075788D01*
X210472516Y-101112856D01*
X210460913Y-101125140D01*
X210460038Y-101129500D01*
X210460605Y-101129590D01*
X210445055Y-101227762D01*
X210433779Y-101251547D01*
X210433779Y-101280443D01*
X210427276Y-101306119D01*
X210391734Y-101366274D01*
X210356467Y-101389412D01*
X210341611Y-101395864D01*
X210321585Y-101402599D01*
X210305407Y-101406542D01*
X210305401Y-101406545D01*
X210268708Y-101427176D01*
X210263021Y-101430000D01*
X210224393Y-101446779D01*
X210224389Y-101446781D01*
X210211473Y-101457289D01*
X210194003Y-101469180D01*
X210179485Y-101477343D01*
X210149709Y-101507118D01*
X210144997Y-101511371D01*
X210112334Y-101537946D01*
X210102734Y-101551546D01*
X210089114Y-101567715D01*
X209968650Y-101688181D01*
X209907327Y-101721666D01*
X209880968Y-101724500D01*
X209487010Y-101724500D01*
X209419971Y-101704815D01*
X209376526Y-101656796D01*
X209337016Y-101579255D01*
X209328050Y-101561658D01*
X209328047Y-101561655D01*
X209328045Y-101561652D01*
X209238347Y-101471954D01*
X209238344Y-101471952D01*
X209238342Y-101471950D01*
X209153528Y-101428735D01*
X209125301Y-101414352D01*
X209031524Y-101399500D01*
X207468482Y-101399500D01*
X207387519Y-101412323D01*
X207374696Y-101414354D01*
X207261658Y-101471950D01*
X207261656Y-101471951D01*
X207261657Y-101471951D01*
X207261652Y-101471954D01*
X207171954Y-101561652D01*
X207171951Y-101561657D01*
X207171950Y-101561658D01*
X207162984Y-101579255D01*
X207114352Y-101674698D01*
X207099500Y-101768475D01*
X207099500Y-102731517D01*
X207109144Y-102792409D01*
X207114354Y-102825304D01*
X207171950Y-102938342D01*
X207171952Y-102938344D01*
X207171954Y-102938347D01*
X207261652Y-103028045D01*
X207261654Y-103028046D01*
X207261658Y-103028050D01*
X207374694Y-103085645D01*
X207374698Y-103085647D01*
X207468475Y-103100499D01*
X207468481Y-103100500D01*
X209031518Y-103100499D01*
X209125304Y-103085646D01*
X209238342Y-103028050D01*
X209328050Y-102938342D01*
X209359592Y-102876436D01*
X209376526Y-102843204D01*
X209424500Y-102792409D01*
X209487010Y-102775500D01*
X210139948Y-102775500D01*
X210142065Y-102775536D01*
X210150850Y-102775835D01*
X210204245Y-102777660D01*
X210245169Y-102767686D01*
X210251368Y-102766507D01*
X210293111Y-102760771D01*
X210308386Y-102754135D01*
X210328421Y-102747397D01*
X210344594Y-102743457D01*
X210357460Y-102736222D01*
X210425541Y-102720521D01*
X210491304Y-102744120D01*
X210505918Y-102756625D01*
X210589293Y-102840000D01*
X210589296Y-102840002D01*
X210589299Y-102840005D01*
X210689228Y-102890921D01*
X210689230Y-102890922D01*
X210799998Y-102908466D01*
X210800000Y-102908466D01*
X210800002Y-102908466D01*
X210910769Y-102890922D01*
X210910770Y-102890921D01*
X210910772Y-102890921D01*
X211010701Y-102840005D01*
X211090005Y-102760701D01*
X211104875Y-102731517D01*
X217099500Y-102731517D01*
X217109144Y-102792409D01*
X217114354Y-102825304D01*
X217171950Y-102938342D01*
X217171952Y-102938344D01*
X217171954Y-102938347D01*
X217261652Y-103028045D01*
X217261654Y-103028046D01*
X217261658Y-103028050D01*
X217374694Y-103085645D01*
X217374698Y-103085647D01*
X217468475Y-103100499D01*
X217468481Y-103100500D01*
X219031518Y-103100499D01*
X219125304Y-103085646D01*
X219238342Y-103028050D01*
X219328050Y-102938342D01*
X219385646Y-102825304D01*
X219385646Y-102825302D01*
X219385647Y-102825301D01*
X219397587Y-102749909D01*
X219400500Y-102731519D01*
X219400499Y-101768482D01*
X219385646Y-101674696D01*
X219328050Y-101561658D01*
X219328046Y-101561654D01*
X219328045Y-101561652D01*
X219238347Y-101471954D01*
X219238344Y-101471952D01*
X219238342Y-101471950D01*
X219153528Y-101428735D01*
X219125301Y-101414352D01*
X219031524Y-101399500D01*
X217468482Y-101399500D01*
X217387519Y-101412323D01*
X217374696Y-101414354D01*
X217261658Y-101471950D01*
X217261656Y-101471951D01*
X217261657Y-101471951D01*
X217261652Y-101471954D01*
X217171954Y-101561652D01*
X217171951Y-101561657D01*
X217171950Y-101561658D01*
X217162984Y-101579255D01*
X217114352Y-101674698D01*
X217099500Y-101768475D01*
X217099500Y-102731517D01*
X211104875Y-102731517D01*
X211127485Y-102687141D01*
X211139087Y-102674856D01*
X211139965Y-102670501D01*
X211139395Y-102670411D01*
X211154944Y-102572238D01*
X211166236Y-102548415D01*
X211166254Y-102519415D01*
X211166381Y-102518916D01*
X211201992Y-102458803D01*
X211264450Y-102427485D01*
X211286550Y-102425500D01*
X211489948Y-102425500D01*
X211492065Y-102425536D01*
X211500850Y-102425835D01*
X211554245Y-102427660D01*
X211595169Y-102417686D01*
X211601368Y-102416507D01*
X211643111Y-102410771D01*
X211658386Y-102404135D01*
X211678421Y-102397397D01*
X211694594Y-102393457D01*
X211731316Y-102372808D01*
X211736955Y-102370007D01*
X211775609Y-102353219D01*
X211788528Y-102342707D01*
X211805997Y-102330818D01*
X211820512Y-102322658D01*
X211850298Y-102292870D01*
X211854999Y-102288628D01*
X211887665Y-102262054D01*
X211897264Y-102248453D01*
X211910881Y-102232287D01*
X212481350Y-101661819D01*
X212542674Y-101628334D01*
X212569032Y-101625500D01*
X214162448Y-101625500D01*
X214164565Y-101625536D01*
X214173350Y-101625835D01*
X214226745Y-101627660D01*
X214267669Y-101617686D01*
X214273868Y-101616507D01*
X214315611Y-101610771D01*
X214330886Y-101604135D01*
X214350921Y-101597397D01*
X214367094Y-101593457D01*
X214403816Y-101572808D01*
X214409455Y-101570007D01*
X214448109Y-101553219D01*
X214461028Y-101542707D01*
X214478497Y-101530818D01*
X214493012Y-101522658D01*
X214522798Y-101492870D01*
X214527499Y-101488628D01*
X214560165Y-101462054D01*
X214569764Y-101448453D01*
X214583381Y-101432287D01*
X215129350Y-100886318D01*
X215190673Y-100852834D01*
X215217031Y-100850000D01*
X219943433Y-100850000D01*
X219951531Y-100850530D01*
X220043379Y-100862622D01*
X220060723Y-100864906D01*
X220091991Y-100873284D01*
X220182418Y-100910740D01*
X220210451Y-100926925D01*
X220236026Y-100946549D01*
X220288102Y-100986509D01*
X220310991Y-101009398D01*
X220370574Y-101087048D01*
X220386759Y-101115081D01*
X220424215Y-101205508D01*
X220432593Y-101236776D01*
X220446968Y-101345964D01*
X220447499Y-101354066D01*
X220447499Y-104095933D01*
X220446968Y-104104035D01*
X220432593Y-104213223D01*
X220424215Y-104244491D01*
X220386759Y-104334918D01*
X220370574Y-104362951D01*
X220310991Y-104440601D01*
X220288101Y-104463491D01*
X220210451Y-104523074D01*
X220182418Y-104539259D01*
X220091991Y-104576715D01*
X220060724Y-104585093D01*
X219972283Y-104596737D01*
X219951531Y-104599469D01*
X219943434Y-104600000D01*
X84951566Y-104600000D01*
X84943468Y-104599469D01*
X84919957Y-104596374D01*
X84834275Y-104585093D01*
X84803008Y-104576715D01*
X84712581Y-104539259D01*
X84684548Y-104523074D01*
X84606898Y-104463491D01*
X84584008Y-104440601D01*
X84524425Y-104362951D01*
X84508240Y-104334918D01*
X84470784Y-104244491D01*
X84462406Y-104213223D01*
X84448031Y-104104035D01*
X84447500Y-104095933D01*
X84447500Y-103848901D01*
X150435033Y-103848901D01*
X150443433Y-103863868D01*
X150445055Y-103872235D01*
X150460605Y-103970410D01*
X150460036Y-103970499D01*
X150460333Y-103971978D01*
X150467853Y-103978801D01*
X150472511Y-103987134D01*
X150508374Y-104057519D01*
X150509994Y-104060699D01*
X150509999Y-104060706D01*
X150589293Y-104140000D01*
X150589296Y-104140002D01*
X150589299Y-104140005D01*
X150689228Y-104190921D01*
X150689230Y-104190922D01*
X150799998Y-104208466D01*
X150800000Y-104208466D01*
X150800002Y-104208466D01*
X150910769Y-104190922D01*
X150910770Y-104190921D01*
X150910772Y-104190921D01*
X151010701Y-104140005D01*
X151090005Y-104060701D01*
X151127485Y-103987141D01*
X151139087Y-103974856D01*
X151139965Y-103970501D01*
X151139395Y-103970411D01*
X151154944Y-103872238D01*
X151164965Y-103851096D01*
X151163733Y-103848901D01*
X160435033Y-103848901D01*
X160443433Y-103863868D01*
X160445055Y-103872235D01*
X160460605Y-103970410D01*
X160460036Y-103970499D01*
X160460333Y-103971978D01*
X160467853Y-103978801D01*
X160472511Y-103987134D01*
X160508374Y-104057519D01*
X160509994Y-104060699D01*
X160509999Y-104060706D01*
X160589293Y-104140000D01*
X160589296Y-104140002D01*
X160589299Y-104140005D01*
X160689228Y-104190921D01*
X160689230Y-104190922D01*
X160799998Y-104208466D01*
X160800000Y-104208466D01*
X160800002Y-104208466D01*
X160910769Y-104190922D01*
X160910770Y-104190921D01*
X160910772Y-104190921D01*
X161010701Y-104140005D01*
X161090005Y-104060701D01*
X161127485Y-103987141D01*
X161139087Y-103974856D01*
X161139965Y-103970501D01*
X161139395Y-103970411D01*
X161154944Y-103872238D01*
X161164965Y-103851096D01*
X161163733Y-103848901D01*
X170435033Y-103848901D01*
X170443433Y-103863868D01*
X170445055Y-103872235D01*
X170460605Y-103970410D01*
X170460036Y-103970499D01*
X170460333Y-103971978D01*
X170467853Y-103978801D01*
X170472511Y-103987134D01*
X170508374Y-104057519D01*
X170509994Y-104060699D01*
X170509999Y-104060706D01*
X170589293Y-104140000D01*
X170589296Y-104140002D01*
X170589299Y-104140005D01*
X170689228Y-104190921D01*
X170689230Y-104190922D01*
X170799998Y-104208466D01*
X170800000Y-104208466D01*
X170800002Y-104208466D01*
X170910769Y-104190922D01*
X170910770Y-104190921D01*
X170910772Y-104190921D01*
X171010701Y-104140005D01*
X171090005Y-104060701D01*
X171127485Y-103987141D01*
X171139087Y-103974856D01*
X171139965Y-103970501D01*
X171139395Y-103970411D01*
X171154944Y-103872238D01*
X171164965Y-103851096D01*
X171163733Y-103848901D01*
X180435033Y-103848901D01*
X180443433Y-103863868D01*
X180445055Y-103872235D01*
X180460605Y-103970410D01*
X180460036Y-103970499D01*
X180460333Y-103971978D01*
X180467853Y-103978801D01*
X180472511Y-103987134D01*
X180508374Y-104057519D01*
X180509994Y-104060699D01*
X180509999Y-104060706D01*
X180589293Y-104140000D01*
X180589296Y-104140002D01*
X180589299Y-104140005D01*
X180689228Y-104190921D01*
X180689230Y-104190922D01*
X180799998Y-104208466D01*
X180800000Y-104208466D01*
X180800002Y-104208466D01*
X180910769Y-104190922D01*
X180910770Y-104190921D01*
X180910772Y-104190921D01*
X181010701Y-104140005D01*
X181090005Y-104060701D01*
X181127485Y-103987141D01*
X181139087Y-103974856D01*
X181139965Y-103970501D01*
X181139395Y-103970411D01*
X181154944Y-103872238D01*
X181164965Y-103851096D01*
X181163733Y-103848901D01*
X190435033Y-103848901D01*
X190443433Y-103863868D01*
X190445055Y-103872235D01*
X190460605Y-103970410D01*
X190460036Y-103970499D01*
X190460333Y-103971978D01*
X190467853Y-103978801D01*
X190472511Y-103987134D01*
X190508374Y-104057519D01*
X190509994Y-104060699D01*
X190509999Y-104060706D01*
X190589293Y-104140000D01*
X190589296Y-104140002D01*
X190589299Y-104140005D01*
X190689228Y-104190921D01*
X190689230Y-104190922D01*
X190799998Y-104208466D01*
X190800000Y-104208466D01*
X190800002Y-104208466D01*
X190910769Y-104190922D01*
X190910770Y-104190921D01*
X190910772Y-104190921D01*
X191010701Y-104140005D01*
X191090005Y-104060701D01*
X191127485Y-103987141D01*
X191139087Y-103974856D01*
X191139965Y-103970501D01*
X191139395Y-103970411D01*
X191154944Y-103872238D01*
X191164965Y-103851096D01*
X191163733Y-103848901D01*
X200435033Y-103848901D01*
X200443433Y-103863868D01*
X200445055Y-103872235D01*
X200460605Y-103970410D01*
X200460036Y-103970499D01*
X200460333Y-103971978D01*
X200467853Y-103978801D01*
X200472511Y-103987134D01*
X200508374Y-104057519D01*
X200509994Y-104060699D01*
X200509999Y-104060706D01*
X200589293Y-104140000D01*
X200589296Y-104140002D01*
X200589299Y-104140005D01*
X200689228Y-104190921D01*
X200689230Y-104190922D01*
X200799998Y-104208466D01*
X200800000Y-104208466D01*
X200800002Y-104208466D01*
X200910769Y-104190922D01*
X200910770Y-104190921D01*
X200910772Y-104190921D01*
X201010701Y-104140005D01*
X201090005Y-104060701D01*
X201127485Y-103987141D01*
X201139087Y-103974856D01*
X201139965Y-103970501D01*
X201139395Y-103970411D01*
X201154944Y-103872238D01*
X201164965Y-103851096D01*
X201163733Y-103848901D01*
X210435033Y-103848901D01*
X210443433Y-103863868D01*
X210445055Y-103872235D01*
X210460605Y-103970410D01*
X210460036Y-103970499D01*
X210460333Y-103971978D01*
X210467853Y-103978801D01*
X210472511Y-103987134D01*
X210508374Y-104057519D01*
X210509994Y-104060699D01*
X210509999Y-104060706D01*
X210589293Y-104140000D01*
X210589296Y-104140002D01*
X210589299Y-104140005D01*
X210689228Y-104190921D01*
X210689230Y-104190922D01*
X210799998Y-104208466D01*
X210800000Y-104208466D01*
X210800002Y-104208466D01*
X210910769Y-104190922D01*
X210910770Y-104190921D01*
X210910772Y-104190921D01*
X211010701Y-104140005D01*
X211090005Y-104060701D01*
X211127485Y-103987141D01*
X211139087Y-103974856D01*
X211139965Y-103970501D01*
X211139395Y-103970411D01*
X211154944Y-103872238D01*
X211164965Y-103851096D01*
X211156565Y-103836128D01*
X211154949Y-103827795D01*
X211140921Y-103739228D01*
X211140920Y-103739227D01*
X211139394Y-103729588D01*
X211139964Y-103729497D01*
X211139666Y-103728017D01*
X211132142Y-103721190D01*
X211127482Y-103712853D01*
X211091626Y-103642481D01*
X211090005Y-103639299D01*
X211090002Y-103639296D01*
X211090000Y-103639293D01*
X211010706Y-103559999D01*
X211010702Y-103559996D01*
X211010701Y-103559995D01*
X210920876Y-103514227D01*
X210910769Y-103509077D01*
X210800002Y-103491534D01*
X210799998Y-103491534D01*
X210689230Y-103509077D01*
X210589300Y-103559994D01*
X210589293Y-103559999D01*
X210509999Y-103639293D01*
X210509996Y-103639298D01*
X210509995Y-103639299D01*
X210508374Y-103642481D01*
X210472516Y-103712856D01*
X210460913Y-103725140D01*
X210460038Y-103729500D01*
X210460605Y-103729590D01*
X210445055Y-103827762D01*
X210435033Y-103848901D01*
X201163733Y-103848901D01*
X201156565Y-103836128D01*
X201154949Y-103827795D01*
X201140921Y-103739228D01*
X201140920Y-103739227D01*
X201139394Y-103729588D01*
X201139964Y-103729497D01*
X201139666Y-103728017D01*
X201132142Y-103721190D01*
X201127482Y-103712853D01*
X201091626Y-103642481D01*
X201090005Y-103639299D01*
X201090002Y-103639296D01*
X201090000Y-103639293D01*
X201010706Y-103559999D01*
X201010702Y-103559996D01*
X201010701Y-103559995D01*
X200920876Y-103514227D01*
X200910769Y-103509077D01*
X200800002Y-103491534D01*
X200799998Y-103491534D01*
X200689230Y-103509077D01*
X200589300Y-103559994D01*
X200589293Y-103559999D01*
X200509999Y-103639293D01*
X200509996Y-103639298D01*
X200509995Y-103639299D01*
X200508374Y-103642481D01*
X200472516Y-103712856D01*
X200460913Y-103725140D01*
X200460038Y-103729500D01*
X200460605Y-103729590D01*
X200445055Y-103827762D01*
X200435033Y-103848901D01*
X191163733Y-103848901D01*
X191156565Y-103836128D01*
X191154949Y-103827795D01*
X191140921Y-103739228D01*
X191140920Y-103739227D01*
X191139394Y-103729588D01*
X191139964Y-103729497D01*
X191139666Y-103728017D01*
X191132142Y-103721190D01*
X191127482Y-103712853D01*
X191091626Y-103642481D01*
X191090005Y-103639299D01*
X191090002Y-103639296D01*
X191090000Y-103639293D01*
X191010706Y-103559999D01*
X191010702Y-103559996D01*
X191010701Y-103559995D01*
X190920876Y-103514227D01*
X190910769Y-103509077D01*
X190800002Y-103491534D01*
X190799998Y-103491534D01*
X190689230Y-103509077D01*
X190589300Y-103559994D01*
X190589293Y-103559999D01*
X190509999Y-103639293D01*
X190509996Y-103639298D01*
X190509995Y-103639299D01*
X190508374Y-103642481D01*
X190472516Y-103712856D01*
X190460913Y-103725140D01*
X190460038Y-103729500D01*
X190460605Y-103729590D01*
X190445055Y-103827762D01*
X190435033Y-103848901D01*
X181163733Y-103848901D01*
X181156565Y-103836128D01*
X181154949Y-103827795D01*
X181140921Y-103739228D01*
X181140920Y-103739227D01*
X181139394Y-103729588D01*
X181139964Y-103729497D01*
X181139666Y-103728017D01*
X181132142Y-103721190D01*
X181127482Y-103712853D01*
X181091626Y-103642481D01*
X181090005Y-103639299D01*
X181090002Y-103639296D01*
X181090000Y-103639293D01*
X181010706Y-103559999D01*
X181010702Y-103559996D01*
X181010701Y-103559995D01*
X180920876Y-103514227D01*
X180910769Y-103509077D01*
X180800002Y-103491534D01*
X180799998Y-103491534D01*
X180689230Y-103509077D01*
X180589300Y-103559994D01*
X180589293Y-103559999D01*
X180509999Y-103639293D01*
X180509996Y-103639298D01*
X180509995Y-103639299D01*
X180508374Y-103642481D01*
X180472516Y-103712856D01*
X180460913Y-103725140D01*
X180460038Y-103729500D01*
X180460605Y-103729590D01*
X180445055Y-103827762D01*
X180435033Y-103848901D01*
X171163733Y-103848901D01*
X171156565Y-103836128D01*
X171154949Y-103827795D01*
X171140921Y-103739228D01*
X171140920Y-103739227D01*
X171139394Y-103729588D01*
X171139964Y-103729497D01*
X171139666Y-103728017D01*
X171132142Y-103721190D01*
X171127482Y-103712853D01*
X171091626Y-103642481D01*
X171090005Y-103639299D01*
X171090002Y-103639296D01*
X171090000Y-103639293D01*
X171010706Y-103559999D01*
X171010702Y-103559996D01*
X171010701Y-103559995D01*
X170920876Y-103514227D01*
X170910769Y-103509077D01*
X170800002Y-103491534D01*
X170799998Y-103491534D01*
X170689230Y-103509077D01*
X170589300Y-103559994D01*
X170589293Y-103559999D01*
X170509999Y-103639293D01*
X170509996Y-103639298D01*
X170509995Y-103639299D01*
X170508374Y-103642481D01*
X170472516Y-103712856D01*
X170460913Y-103725140D01*
X170460038Y-103729500D01*
X170460605Y-103729590D01*
X170445055Y-103827762D01*
X170435033Y-103848901D01*
X161163733Y-103848901D01*
X161156565Y-103836128D01*
X161154949Y-103827795D01*
X161140921Y-103739228D01*
X161140920Y-103739227D01*
X161139394Y-103729588D01*
X161139964Y-103729497D01*
X161139666Y-103728017D01*
X161132142Y-103721190D01*
X161127482Y-103712853D01*
X161091626Y-103642481D01*
X161090005Y-103639299D01*
X161090002Y-103639296D01*
X161090000Y-103639293D01*
X161010706Y-103559999D01*
X161010702Y-103559996D01*
X161010701Y-103559995D01*
X160920876Y-103514227D01*
X160910769Y-103509077D01*
X160800002Y-103491534D01*
X160799998Y-103491534D01*
X160689230Y-103509077D01*
X160589300Y-103559994D01*
X160589293Y-103559999D01*
X160509999Y-103639293D01*
X160509996Y-103639298D01*
X160509995Y-103639299D01*
X160508374Y-103642481D01*
X160472516Y-103712856D01*
X160460913Y-103725140D01*
X160460038Y-103729500D01*
X160460605Y-103729590D01*
X160445055Y-103827762D01*
X160435033Y-103848901D01*
X151163733Y-103848901D01*
X151156565Y-103836128D01*
X151154949Y-103827795D01*
X151140921Y-103739228D01*
X151140920Y-103739227D01*
X151139394Y-103729588D01*
X151139964Y-103729497D01*
X151139666Y-103728017D01*
X151132142Y-103721190D01*
X151127482Y-103712853D01*
X151091626Y-103642481D01*
X151090005Y-103639299D01*
X151090002Y-103639296D01*
X151090000Y-103639293D01*
X151010706Y-103559999D01*
X151010702Y-103559996D01*
X151010701Y-103559995D01*
X150920876Y-103514227D01*
X150910769Y-103509077D01*
X150800002Y-103491534D01*
X150799998Y-103491534D01*
X150689230Y-103509077D01*
X150589300Y-103559994D01*
X150589293Y-103559999D01*
X150509999Y-103639293D01*
X150509996Y-103639298D01*
X150509995Y-103639299D01*
X150508374Y-103642481D01*
X150472516Y-103712856D01*
X150460913Y-103725140D01*
X150460038Y-103729500D01*
X150460605Y-103729590D01*
X150445055Y-103827762D01*
X150435033Y-103848901D01*
X84447500Y-103848901D01*
X84447500Y-100850000D01*
X88747000Y-100850000D01*
X88747000Y-101112448D01*
G37*
%TD.AperFunction*%
%TA.AperFunction,Conductor*%
G36*
X111474507Y-100869685D02*
G01*
X111520262Y-100922489D01*
X111530206Y-100991647D01*
X111501181Y-101055203D01*
X111495149Y-101061681D01*
X110868650Y-101688181D01*
X110807327Y-101721666D01*
X110780969Y-101724500D01*
X109487010Y-101724500D01*
X109419971Y-101704815D01*
X109376526Y-101656796D01*
X109337016Y-101579255D01*
X109328050Y-101561658D01*
X109328047Y-101561655D01*
X109328045Y-101561652D01*
X109238347Y-101471954D01*
X109238344Y-101471952D01*
X109238342Y-101471950D01*
X109153528Y-101428735D01*
X109125301Y-101414352D01*
X109031524Y-101399500D01*
X109031519Y-101399500D01*
X108194031Y-101399500D01*
X108126992Y-101379815D01*
X108106350Y-101363181D01*
X107804850Y-101061681D01*
X107771365Y-101000358D01*
X107776349Y-100930666D01*
X107818221Y-100874733D01*
X107883685Y-100850316D01*
X107892531Y-100850000D01*
X111407468Y-100850000D01*
X111474507Y-100869685D01*
G37*
%TD.AperFunction*%
%TA.AperFunction,Conductor*%
G36*
X121512007Y-100869685D02*
G01*
X121557762Y-100922489D01*
X121567706Y-100991647D01*
X121538681Y-101055203D01*
X121532649Y-101061681D01*
X120906150Y-101688181D01*
X120844827Y-101721666D01*
X120818469Y-101724500D01*
X119487010Y-101724500D01*
X119419971Y-101704815D01*
X119376526Y-101656796D01*
X119337016Y-101579255D01*
X119328050Y-101561658D01*
X119328047Y-101561655D01*
X119328045Y-101561652D01*
X119238347Y-101471954D01*
X119238344Y-101471952D01*
X119238342Y-101471950D01*
X119153528Y-101428735D01*
X119125301Y-101414352D01*
X119031524Y-101399500D01*
X119031519Y-101399500D01*
X118194031Y-101399500D01*
X118126992Y-101379815D01*
X118106350Y-101363181D01*
X117804851Y-101061681D01*
X117771366Y-101000358D01*
X117776350Y-100930666D01*
X117818222Y-100874733D01*
X117883686Y-100850316D01*
X117892532Y-100850000D01*
X121444968Y-100850000D01*
X121512007Y-100869685D01*
G37*
%TD.AperFunction*%
%TA.AperFunction,Conductor*%
G36*
X131574507Y-100869685D02*
G01*
X131620262Y-100922489D01*
X131630206Y-100991647D01*
X131601181Y-101055203D01*
X131595149Y-101061681D01*
X130968650Y-101688181D01*
X130907327Y-101721666D01*
X130880969Y-101724500D01*
X129487010Y-101724500D01*
X129419971Y-101704815D01*
X129376526Y-101656796D01*
X129337016Y-101579255D01*
X129328050Y-101561658D01*
X129328047Y-101561655D01*
X129328045Y-101561652D01*
X129238347Y-101471954D01*
X129238344Y-101471952D01*
X129238342Y-101471950D01*
X129153528Y-101428735D01*
X129125301Y-101414352D01*
X129031524Y-101399500D01*
X129031519Y-101399500D01*
X128194031Y-101399500D01*
X128126992Y-101379815D01*
X128106350Y-101363181D01*
X127804850Y-101061681D01*
X127771365Y-101000358D01*
X127776349Y-100930666D01*
X127818221Y-100874733D01*
X127883685Y-100850316D01*
X127892531Y-100850000D01*
X131507468Y-100850000D01*
X131574507Y-100869685D01*
G37*
%TD.AperFunction*%
%TA.AperFunction,Conductor*%
G36*
X141574507Y-100869685D02*
G01*
X141620262Y-100922489D01*
X141630206Y-100991647D01*
X141601181Y-101055203D01*
X141595149Y-101061681D01*
X140968650Y-101688181D01*
X140907327Y-101721666D01*
X140880969Y-101724500D01*
X139487010Y-101724500D01*
X139419971Y-101704815D01*
X139376526Y-101656796D01*
X139337016Y-101579255D01*
X139328050Y-101561658D01*
X139328047Y-101561655D01*
X139328045Y-101561652D01*
X139238347Y-101471954D01*
X139238344Y-101471952D01*
X139238342Y-101471950D01*
X139153528Y-101428735D01*
X139125301Y-101414352D01*
X139031524Y-101399500D01*
X139031519Y-101399500D01*
X138194031Y-101399500D01*
X138126992Y-101379815D01*
X138106350Y-101363181D01*
X137804850Y-101061681D01*
X137771365Y-101000358D01*
X137776349Y-100930666D01*
X137818221Y-100874733D01*
X137883685Y-100850316D01*
X137892531Y-100850000D01*
X141507468Y-100850000D01*
X141574507Y-100869685D01*
G37*
%TD.AperFunction*%
%TD*%
%TA.AperFunction,Conductor*%
%TO.N,+3.3V*%
G36*
X120922047Y-96619685D02*
G01*
X120967802Y-96672489D01*
X120979008Y-96724000D01*
X120979008Y-96900005D01*
X120998852Y-97025301D01*
X121016530Y-97059995D01*
X121056450Y-97138342D01*
X121056452Y-97138344D01*
X121056454Y-97138347D01*
X121146152Y-97228045D01*
X121146154Y-97228046D01*
X121146158Y-97228050D01*
X121233235Y-97272418D01*
X121259198Y-97285647D01*
X121384495Y-97305492D01*
X121384500Y-97305492D01*
X122534492Y-97305492D01*
X122534500Y-97305492D01*
X122644159Y-97290383D01*
X122644166Y-97290379D01*
X122650867Y-97288424D01*
X122705013Y-97284983D01*
X122709194Y-97285645D01*
X122709196Y-97285646D01*
X122749813Y-97292079D01*
X122834496Y-97305492D01*
X122834500Y-97305492D01*
X123834505Y-97305492D01*
X123959801Y-97285647D01*
X123959802Y-97285646D01*
X123959804Y-97285646D01*
X124072842Y-97228050D01*
X124162550Y-97138342D01*
X124220146Y-97025304D01*
X124220146Y-97025302D01*
X124220147Y-97025301D01*
X124239992Y-96900005D01*
X124239992Y-96724000D01*
X124259677Y-96656961D01*
X124312481Y-96611206D01*
X124363992Y-96600000D01*
X219943433Y-96600000D01*
X219951531Y-96600530D01*
X220032619Y-96611206D01*
X220060723Y-96614906D01*
X220091991Y-96623284D01*
X220182418Y-96660740D01*
X220210452Y-96676925D01*
X220288102Y-96736509D01*
X220310991Y-96759398D01*
X220370574Y-96837048D01*
X220386759Y-96865081D01*
X220424215Y-96955508D01*
X220432593Y-96986775D01*
X220441978Y-97058054D01*
X220446635Y-97093431D01*
X220446969Y-97095964D01*
X220447500Y-97104065D01*
X220447500Y-99895934D01*
X220446969Y-99904031D01*
X220445198Y-99917485D01*
X220432593Y-100013224D01*
X220424215Y-100044491D01*
X220386759Y-100134918D01*
X220370574Y-100162951D01*
X220310991Y-100240601D01*
X220288101Y-100263491D01*
X220210451Y-100323074D01*
X220182418Y-100339259D01*
X220091991Y-100376715D01*
X220060724Y-100385093D01*
X219972283Y-100396737D01*
X219951531Y-100399469D01*
X219943434Y-100400000D01*
X215915031Y-100400000D01*
X215847992Y-100380315D01*
X215802237Y-100327511D01*
X215792293Y-100258353D01*
X215821318Y-100194797D01*
X215827349Y-100188319D01*
X215880750Y-100134918D01*
X216091919Y-99923748D01*
X216153238Y-99890266D01*
X216193480Y-99888212D01*
X216347496Y-99905565D01*
X216347500Y-99905565D01*
X216347504Y-99905565D01*
X216526749Y-99885369D01*
X216526752Y-99885368D01*
X216526755Y-99885368D01*
X216697022Y-99825789D01*
X216849762Y-99729816D01*
X216977316Y-99602262D01*
X217073289Y-99449522D01*
X217132868Y-99279255D01*
X217135777Y-99253439D01*
X217153065Y-99100003D01*
X217153065Y-99099996D01*
X217132869Y-98920750D01*
X217132868Y-98920745D01*
X217121612Y-98888577D01*
X217073289Y-98750478D01*
X216977316Y-98597738D01*
X216849762Y-98470184D01*
X216805673Y-98442481D01*
X216697023Y-98374211D01*
X216526754Y-98314631D01*
X216526749Y-98314630D01*
X216347504Y-98294435D01*
X216347496Y-98294435D01*
X216168250Y-98314630D01*
X216168245Y-98314631D01*
X215997976Y-98374211D01*
X215845237Y-98470184D01*
X215717684Y-98597737D01*
X215621710Y-98750478D01*
X215579143Y-98872129D01*
X215577498Y-98876833D01*
X215562131Y-98920749D01*
X215561090Y-98929986D01*
X215534020Y-98994398D01*
X215525551Y-99003778D01*
X214294787Y-100234542D01*
X214233464Y-100268027D01*
X214163772Y-100263043D01*
X214107839Y-100221171D01*
X214086215Y-100174453D01*
X214085370Y-100170750D01*
X214050290Y-100070499D01*
X214025789Y-100000478D01*
X214025787Y-100000475D01*
X214025787Y-100000474D01*
X214019503Y-99990473D01*
X214000501Y-99923237D01*
X214020867Y-99856401D01*
X214074134Y-99811186D01*
X214124495Y-99800499D01*
X214131517Y-99800499D01*
X214131518Y-99800499D01*
X214225304Y-99785646D01*
X214338342Y-99728050D01*
X214428050Y-99638342D01*
X214485646Y-99525304D01*
X214485646Y-99525302D01*
X214485647Y-99525301D01*
X214498443Y-99444508D01*
X214500500Y-99431519D01*
X214500499Y-98468482D01*
X214485646Y-98374696D01*
X214428050Y-98261658D01*
X214428046Y-98261654D01*
X214428045Y-98261652D01*
X214338347Y-98171954D01*
X214338344Y-98171952D01*
X214338342Y-98171950D01*
X214261517Y-98132805D01*
X214225301Y-98114352D01*
X214131524Y-98099500D01*
X212568482Y-98099500D01*
X212487519Y-98112323D01*
X212474696Y-98114354D01*
X212361658Y-98171950D01*
X212361657Y-98171951D01*
X212361652Y-98171954D01*
X212271954Y-98261652D01*
X212271951Y-98261657D01*
X212271950Y-98261658D01*
X212256727Y-98291534D01*
X212214352Y-98374698D01*
X212199500Y-98468475D01*
X212199500Y-99431517D01*
X212203872Y-99459120D01*
X212214354Y-99525304D01*
X212271950Y-99638342D01*
X212271952Y-99638344D01*
X212271954Y-99638347D01*
X212361652Y-99728045D01*
X212361654Y-99728046D01*
X212361658Y-99728050D01*
X212474696Y-99785646D01*
X212502431Y-99790038D01*
X212565566Y-99819966D01*
X212602498Y-99879277D01*
X212601502Y-99949140D01*
X212588031Y-99978480D01*
X212574212Y-100000473D01*
X212514631Y-100170745D01*
X212514630Y-100170750D01*
X212501208Y-100289883D01*
X212474142Y-100354297D01*
X212416547Y-100393852D01*
X212377988Y-100400000D01*
X211150069Y-100400000D01*
X211083030Y-100380315D01*
X211037275Y-100327511D01*
X211027331Y-100258353D01*
X211056356Y-100194797D01*
X211062388Y-100188319D01*
X211090000Y-100160706D01*
X211090005Y-100160701D01*
X211127485Y-100087141D01*
X211139087Y-100074856D01*
X211139965Y-100070501D01*
X211139395Y-100070411D01*
X211154944Y-99972238D01*
X211164965Y-99951096D01*
X211156565Y-99936128D01*
X211154949Y-99927795D01*
X211140921Y-99839228D01*
X211140920Y-99839227D01*
X211139394Y-99829588D01*
X211139964Y-99829497D01*
X211139666Y-99828017D01*
X211132142Y-99821190D01*
X211127482Y-99812853D01*
X211121188Y-99800500D01*
X211090005Y-99739299D01*
X211090002Y-99739296D01*
X211090000Y-99739293D01*
X211010706Y-99659999D01*
X211010702Y-99659996D01*
X211010701Y-99659995D01*
X210968214Y-99638347D01*
X210910769Y-99609077D01*
X210800002Y-99591534D01*
X210799998Y-99591534D01*
X210689230Y-99609077D01*
X210589300Y-99659994D01*
X210589293Y-99659999D01*
X210509999Y-99739293D01*
X210509996Y-99739298D01*
X210509995Y-99739299D01*
X210508374Y-99742481D01*
X210472516Y-99812856D01*
X210460913Y-99825140D01*
X210460038Y-99829500D01*
X210460605Y-99829590D01*
X210445055Y-99927762D01*
X210435033Y-99948901D01*
X210443433Y-99963868D01*
X210445055Y-99972235D01*
X210460605Y-100070410D01*
X210460036Y-100070499D01*
X210460333Y-100071978D01*
X210467853Y-100078801D01*
X210472511Y-100087134D01*
X210496858Y-100134918D01*
X210509994Y-100160699D01*
X210509999Y-100160706D01*
X210537612Y-100188319D01*
X210571097Y-100249642D01*
X210566113Y-100319334D01*
X210524241Y-100375267D01*
X210458777Y-100399684D01*
X210449931Y-100400000D01*
X205915031Y-100400000D01*
X205847992Y-100380315D01*
X205802237Y-100327511D01*
X205792293Y-100258353D01*
X205821318Y-100194797D01*
X205827349Y-100188319D01*
X205880750Y-100134918D01*
X206086857Y-99928810D01*
X206148176Y-99895328D01*
X206188418Y-99893274D01*
X206226164Y-99897527D01*
X206297498Y-99905565D01*
X206297500Y-99905565D01*
X206297503Y-99905565D01*
X206476749Y-99885369D01*
X206476752Y-99885368D01*
X206476755Y-99885368D01*
X206647022Y-99825789D01*
X206799762Y-99729816D01*
X206927316Y-99602262D01*
X207023289Y-99449522D01*
X207082868Y-99279255D01*
X207085777Y-99253439D01*
X207103065Y-99100003D01*
X207103065Y-99099996D01*
X207082869Y-98920750D01*
X207082868Y-98920745D01*
X207071612Y-98888577D01*
X207023289Y-98750478D01*
X206959464Y-98648901D01*
X210435033Y-98648901D01*
X210443433Y-98663868D01*
X210445055Y-98672235D01*
X210460605Y-98770410D01*
X210460036Y-98770499D01*
X210460333Y-98771978D01*
X210467853Y-98778801D01*
X210472511Y-98787134D01*
X210479136Y-98800136D01*
X210509994Y-98860699D01*
X210509999Y-98860706D01*
X210589293Y-98940000D01*
X210589296Y-98940002D01*
X210589299Y-98940005D01*
X210680220Y-98986331D01*
X210689230Y-98990922D01*
X210799998Y-99008466D01*
X210800000Y-99008466D01*
X210800002Y-99008466D01*
X210910769Y-98990922D01*
X210910770Y-98990921D01*
X210910772Y-98990921D01*
X211010701Y-98940005D01*
X211090005Y-98860701D01*
X211127485Y-98787141D01*
X211139087Y-98774856D01*
X211139965Y-98770501D01*
X211139395Y-98770411D01*
X211154944Y-98672238D01*
X211164965Y-98651096D01*
X211156565Y-98636128D01*
X211154949Y-98627795D01*
X211140921Y-98539228D01*
X211140920Y-98539227D01*
X211139394Y-98529588D01*
X211139964Y-98529497D01*
X211139666Y-98528017D01*
X211132142Y-98521190D01*
X211127482Y-98512853D01*
X211118640Y-98495499D01*
X211090005Y-98439299D01*
X211090002Y-98439296D01*
X211090000Y-98439293D01*
X211010706Y-98359999D01*
X211010702Y-98359996D01*
X211010701Y-98359995D01*
X211005632Y-98357412D01*
X210910769Y-98309077D01*
X210800002Y-98291534D01*
X210799998Y-98291534D01*
X210689230Y-98309077D01*
X210589300Y-98359994D01*
X210589293Y-98359999D01*
X210509999Y-98439293D01*
X210509996Y-98439298D01*
X210509995Y-98439299D01*
X210489181Y-98480150D01*
X210472516Y-98512856D01*
X210460913Y-98525140D01*
X210460038Y-98529500D01*
X210460605Y-98529590D01*
X210445055Y-98627762D01*
X210435033Y-98648901D01*
X206959464Y-98648901D01*
X206927316Y-98597738D01*
X206799762Y-98470184D01*
X206755673Y-98442481D01*
X206647023Y-98374211D01*
X206476754Y-98314631D01*
X206476749Y-98314630D01*
X206297504Y-98294435D01*
X206297496Y-98294435D01*
X206118250Y-98314630D01*
X206118245Y-98314631D01*
X205947976Y-98374211D01*
X205795237Y-98470184D01*
X205667684Y-98597737D01*
X205571710Y-98750478D01*
X205512130Y-98920750D01*
X205504741Y-98986331D01*
X205477674Y-99050744D01*
X205469202Y-99060127D01*
X204294787Y-100234542D01*
X204233464Y-100268027D01*
X204163772Y-100263043D01*
X204107839Y-100221171D01*
X204086215Y-100174453D01*
X204085370Y-100170750D01*
X204050290Y-100070499D01*
X204025789Y-100000478D01*
X204025787Y-100000475D01*
X204025787Y-100000474D01*
X204019503Y-99990473D01*
X204000501Y-99923237D01*
X204020867Y-99856401D01*
X204074134Y-99811186D01*
X204124495Y-99800499D01*
X204131517Y-99800499D01*
X204131518Y-99800499D01*
X204225304Y-99785646D01*
X204338342Y-99728050D01*
X204428050Y-99638342D01*
X204485646Y-99525304D01*
X204485646Y-99525302D01*
X204485647Y-99525301D01*
X204498443Y-99444508D01*
X204500500Y-99431519D01*
X204500499Y-98468482D01*
X204485646Y-98374696D01*
X204428050Y-98261658D01*
X204428046Y-98261654D01*
X204428045Y-98261652D01*
X204338347Y-98171954D01*
X204338344Y-98171952D01*
X204338342Y-98171950D01*
X204261517Y-98132805D01*
X204225301Y-98114352D01*
X204131524Y-98099500D01*
X202568482Y-98099500D01*
X202487519Y-98112323D01*
X202474696Y-98114354D01*
X202361658Y-98171950D01*
X202361657Y-98171951D01*
X202361652Y-98171954D01*
X202271954Y-98261652D01*
X202271951Y-98261657D01*
X202271950Y-98261658D01*
X202256727Y-98291534D01*
X202214352Y-98374698D01*
X202199500Y-98468475D01*
X202199500Y-99431517D01*
X202203872Y-99459120D01*
X202214354Y-99525304D01*
X202271950Y-99638342D01*
X202271952Y-99638344D01*
X202271954Y-99638347D01*
X202361652Y-99728045D01*
X202361654Y-99728046D01*
X202361658Y-99728050D01*
X202474696Y-99785646D01*
X202502431Y-99790038D01*
X202565566Y-99819966D01*
X202602498Y-99879277D01*
X202601502Y-99949140D01*
X202588031Y-99978480D01*
X202574212Y-100000473D01*
X202514631Y-100170745D01*
X202514630Y-100170750D01*
X202501208Y-100289883D01*
X202474142Y-100354297D01*
X202416547Y-100393852D01*
X202377988Y-100400000D01*
X201150069Y-100400000D01*
X201083030Y-100380315D01*
X201037275Y-100327511D01*
X201027331Y-100258353D01*
X201056356Y-100194797D01*
X201062388Y-100188319D01*
X201090000Y-100160706D01*
X201090005Y-100160701D01*
X201127485Y-100087141D01*
X201139087Y-100074856D01*
X201139965Y-100070501D01*
X201139395Y-100070411D01*
X201154944Y-99972238D01*
X201164965Y-99951096D01*
X201156565Y-99936128D01*
X201154949Y-99927795D01*
X201140921Y-99839228D01*
X201140920Y-99839227D01*
X201139394Y-99829588D01*
X201139964Y-99829497D01*
X201139666Y-99828017D01*
X201132142Y-99821190D01*
X201127482Y-99812853D01*
X201121188Y-99800500D01*
X201090005Y-99739299D01*
X201090002Y-99739296D01*
X201090000Y-99739293D01*
X201010706Y-99659999D01*
X201010702Y-99659996D01*
X201010701Y-99659995D01*
X200968214Y-99638347D01*
X200910769Y-99609077D01*
X200800002Y-99591534D01*
X200799998Y-99591534D01*
X200689230Y-99609077D01*
X200589300Y-99659994D01*
X200589293Y-99659999D01*
X200509999Y-99739293D01*
X200509996Y-99739298D01*
X200509995Y-99739299D01*
X200508374Y-99742481D01*
X200472516Y-99812856D01*
X200460913Y-99825140D01*
X200460038Y-99829500D01*
X200460605Y-99829590D01*
X200445055Y-99927762D01*
X200435033Y-99948901D01*
X200443433Y-99963868D01*
X200445055Y-99972235D01*
X200460605Y-100070410D01*
X200460036Y-100070499D01*
X200460333Y-100071978D01*
X200467853Y-100078801D01*
X200472511Y-100087134D01*
X200496858Y-100134918D01*
X200509994Y-100160699D01*
X200509999Y-100160706D01*
X200537612Y-100188319D01*
X200571097Y-100249642D01*
X200566113Y-100319334D01*
X200524241Y-100375267D01*
X200458777Y-100399684D01*
X200449931Y-100400000D01*
X195915031Y-100400000D01*
X195847992Y-100380315D01*
X195802237Y-100327511D01*
X195792293Y-100258353D01*
X195821318Y-100194797D01*
X195827349Y-100188319D01*
X195880750Y-100134918D01*
X196091919Y-99923748D01*
X196153238Y-99890266D01*
X196193480Y-99888212D01*
X196347496Y-99905565D01*
X196347500Y-99905565D01*
X196347504Y-99905565D01*
X196526749Y-99885369D01*
X196526752Y-99885368D01*
X196526755Y-99885368D01*
X196697022Y-99825789D01*
X196849762Y-99729816D01*
X196977316Y-99602262D01*
X197073289Y-99449522D01*
X197132868Y-99279255D01*
X197135777Y-99253439D01*
X197153065Y-99100003D01*
X197153065Y-99099996D01*
X197132869Y-98920750D01*
X197132868Y-98920745D01*
X197121612Y-98888577D01*
X197073289Y-98750478D01*
X197009464Y-98648901D01*
X200435033Y-98648901D01*
X200443433Y-98663868D01*
X200445055Y-98672235D01*
X200460605Y-98770410D01*
X200460036Y-98770499D01*
X200460333Y-98771978D01*
X200467853Y-98778801D01*
X200472511Y-98787134D01*
X200479136Y-98800136D01*
X200509994Y-98860699D01*
X200509999Y-98860706D01*
X200589293Y-98940000D01*
X200589296Y-98940002D01*
X200589299Y-98940005D01*
X200680220Y-98986331D01*
X200689230Y-98990922D01*
X200799998Y-99008466D01*
X200800000Y-99008466D01*
X200800002Y-99008466D01*
X200910769Y-98990922D01*
X200910770Y-98990921D01*
X200910772Y-98990921D01*
X201010701Y-98940005D01*
X201090005Y-98860701D01*
X201127485Y-98787141D01*
X201139087Y-98774856D01*
X201139965Y-98770501D01*
X201139395Y-98770411D01*
X201154944Y-98672238D01*
X201164965Y-98651096D01*
X201156565Y-98636128D01*
X201154949Y-98627795D01*
X201140921Y-98539228D01*
X201140920Y-98539227D01*
X201139394Y-98529588D01*
X201139964Y-98529497D01*
X201139666Y-98528017D01*
X201132142Y-98521190D01*
X201127482Y-98512853D01*
X201118640Y-98495499D01*
X201090005Y-98439299D01*
X201090002Y-98439296D01*
X201090000Y-98439293D01*
X201010706Y-98359999D01*
X201010702Y-98359996D01*
X201010701Y-98359995D01*
X201005632Y-98357412D01*
X200910769Y-98309077D01*
X200800002Y-98291534D01*
X200799998Y-98291534D01*
X200689230Y-98309077D01*
X200589300Y-98359994D01*
X200589293Y-98359999D01*
X200509999Y-98439293D01*
X200509996Y-98439298D01*
X200509995Y-98439299D01*
X200489181Y-98480150D01*
X200472516Y-98512856D01*
X200460913Y-98525140D01*
X200460038Y-98529500D01*
X200460605Y-98529590D01*
X200445055Y-98627762D01*
X200435033Y-98648901D01*
X197009464Y-98648901D01*
X196977316Y-98597738D01*
X196849762Y-98470184D01*
X196805673Y-98442481D01*
X196697023Y-98374211D01*
X196526754Y-98314631D01*
X196526749Y-98314630D01*
X196347504Y-98294435D01*
X196347496Y-98294435D01*
X196168250Y-98314630D01*
X196168245Y-98314631D01*
X195997976Y-98374211D01*
X195845237Y-98470184D01*
X195717684Y-98597737D01*
X195621710Y-98750478D01*
X195579143Y-98872129D01*
X195577498Y-98876833D01*
X195562131Y-98920749D01*
X195561090Y-98929986D01*
X195534020Y-98994398D01*
X195525551Y-99003778D01*
X194294787Y-100234542D01*
X194233464Y-100268027D01*
X194163772Y-100263043D01*
X194107839Y-100221171D01*
X194086215Y-100174453D01*
X194085370Y-100170750D01*
X194050290Y-100070499D01*
X194025789Y-100000478D01*
X194025787Y-100000475D01*
X194025787Y-100000474D01*
X194019503Y-99990473D01*
X194000501Y-99923237D01*
X194020867Y-99856401D01*
X194074134Y-99811186D01*
X194124495Y-99800499D01*
X194131517Y-99800499D01*
X194131518Y-99800499D01*
X194225304Y-99785646D01*
X194338342Y-99728050D01*
X194428050Y-99638342D01*
X194485646Y-99525304D01*
X194485646Y-99525302D01*
X194485647Y-99525301D01*
X194498443Y-99444508D01*
X194500500Y-99431519D01*
X194500499Y-98468482D01*
X194485646Y-98374696D01*
X194428050Y-98261658D01*
X194428046Y-98261654D01*
X194428045Y-98261652D01*
X194338347Y-98171954D01*
X194338344Y-98171952D01*
X194338342Y-98171950D01*
X194261517Y-98132805D01*
X194225301Y-98114352D01*
X194131524Y-98099500D01*
X192568482Y-98099500D01*
X192487519Y-98112323D01*
X192474696Y-98114354D01*
X192361658Y-98171950D01*
X192361657Y-98171951D01*
X192361652Y-98171954D01*
X192271954Y-98261652D01*
X192271951Y-98261657D01*
X192271950Y-98261658D01*
X192256727Y-98291534D01*
X192214352Y-98374698D01*
X192199500Y-98468475D01*
X192199500Y-99431517D01*
X192203872Y-99459120D01*
X192214354Y-99525304D01*
X192271950Y-99638342D01*
X192271952Y-99638344D01*
X192271954Y-99638347D01*
X192361652Y-99728045D01*
X192361654Y-99728046D01*
X192361658Y-99728050D01*
X192474696Y-99785646D01*
X192502431Y-99790038D01*
X192565566Y-99819966D01*
X192602498Y-99879277D01*
X192601502Y-99949140D01*
X192588031Y-99978480D01*
X192574212Y-100000473D01*
X192514631Y-100170745D01*
X192514630Y-100170750D01*
X192501208Y-100289883D01*
X192474142Y-100354297D01*
X192416547Y-100393852D01*
X192377988Y-100400000D01*
X191150069Y-100400000D01*
X191083030Y-100380315D01*
X191037275Y-100327511D01*
X191027331Y-100258353D01*
X191056356Y-100194797D01*
X191062388Y-100188319D01*
X191090000Y-100160706D01*
X191090005Y-100160701D01*
X191127485Y-100087141D01*
X191139087Y-100074856D01*
X191139965Y-100070501D01*
X191139395Y-100070411D01*
X191154944Y-99972238D01*
X191164965Y-99951096D01*
X191156565Y-99936128D01*
X191154949Y-99927795D01*
X191140921Y-99839228D01*
X191140920Y-99839227D01*
X191139394Y-99829588D01*
X191139964Y-99829497D01*
X191139666Y-99828017D01*
X191132142Y-99821190D01*
X191127482Y-99812853D01*
X191121188Y-99800500D01*
X191090005Y-99739299D01*
X191090002Y-99739296D01*
X191090000Y-99739293D01*
X191010706Y-99659999D01*
X191010702Y-99659996D01*
X191010701Y-99659995D01*
X190968214Y-99638347D01*
X190910769Y-99609077D01*
X190800002Y-99591534D01*
X190799998Y-99591534D01*
X190689230Y-99609077D01*
X190589300Y-99659994D01*
X190589293Y-99659999D01*
X190509999Y-99739293D01*
X190509996Y-99739298D01*
X190509995Y-99739299D01*
X190508374Y-99742481D01*
X190472516Y-99812856D01*
X190460913Y-99825140D01*
X190460038Y-99829500D01*
X190460605Y-99829590D01*
X190445055Y-99927762D01*
X190435033Y-99948901D01*
X190443433Y-99963868D01*
X190445055Y-99972235D01*
X190460605Y-100070410D01*
X190460036Y-100070499D01*
X190460333Y-100071978D01*
X190467853Y-100078801D01*
X190472511Y-100087134D01*
X190496858Y-100134918D01*
X190509994Y-100160699D01*
X190509999Y-100160706D01*
X190537612Y-100188319D01*
X190571097Y-100249642D01*
X190566113Y-100319334D01*
X190524241Y-100375267D01*
X190458777Y-100399684D01*
X190449931Y-100400000D01*
X185915031Y-100400000D01*
X185847992Y-100380315D01*
X185802237Y-100327511D01*
X185792293Y-100258353D01*
X185821318Y-100194797D01*
X185827349Y-100188319D01*
X185880750Y-100134918D01*
X186091919Y-99923748D01*
X186153238Y-99890266D01*
X186193480Y-99888212D01*
X186347496Y-99905565D01*
X186347500Y-99905565D01*
X186347504Y-99905565D01*
X186526749Y-99885369D01*
X186526752Y-99885368D01*
X186526755Y-99885368D01*
X186697022Y-99825789D01*
X186849762Y-99729816D01*
X186977316Y-99602262D01*
X187073289Y-99449522D01*
X187132868Y-99279255D01*
X187135777Y-99253439D01*
X187153065Y-99100003D01*
X187153065Y-99099996D01*
X187132869Y-98920750D01*
X187132868Y-98920745D01*
X187121612Y-98888577D01*
X187073289Y-98750478D01*
X187009464Y-98648901D01*
X190435033Y-98648901D01*
X190443433Y-98663868D01*
X190445055Y-98672235D01*
X190460605Y-98770410D01*
X190460036Y-98770499D01*
X190460333Y-98771978D01*
X190467853Y-98778801D01*
X190472511Y-98787134D01*
X190479136Y-98800136D01*
X190509994Y-98860699D01*
X190509999Y-98860706D01*
X190589293Y-98940000D01*
X190589296Y-98940002D01*
X190589299Y-98940005D01*
X190680220Y-98986331D01*
X190689230Y-98990922D01*
X190799998Y-99008466D01*
X190800000Y-99008466D01*
X190800002Y-99008466D01*
X190910769Y-98990922D01*
X190910770Y-98990921D01*
X190910772Y-98990921D01*
X191010701Y-98940005D01*
X191090005Y-98860701D01*
X191127485Y-98787141D01*
X191139087Y-98774856D01*
X191139965Y-98770501D01*
X191139395Y-98770411D01*
X191154944Y-98672238D01*
X191164965Y-98651096D01*
X191156565Y-98636128D01*
X191154949Y-98627795D01*
X191140921Y-98539228D01*
X191140920Y-98539227D01*
X191139394Y-98529588D01*
X191139964Y-98529497D01*
X191139666Y-98528017D01*
X191132142Y-98521190D01*
X191127482Y-98512853D01*
X191118640Y-98495499D01*
X191090005Y-98439299D01*
X191090002Y-98439296D01*
X191090000Y-98439293D01*
X191010706Y-98359999D01*
X191010702Y-98359996D01*
X191010701Y-98359995D01*
X191005632Y-98357412D01*
X190910769Y-98309077D01*
X190800002Y-98291534D01*
X190799998Y-98291534D01*
X190689230Y-98309077D01*
X190589300Y-98359994D01*
X190589293Y-98359999D01*
X190509999Y-98439293D01*
X190509996Y-98439298D01*
X190509995Y-98439299D01*
X190489181Y-98480150D01*
X190472516Y-98512856D01*
X190460913Y-98525140D01*
X190460038Y-98529500D01*
X190460605Y-98529590D01*
X190445055Y-98627762D01*
X190435033Y-98648901D01*
X187009464Y-98648901D01*
X186977316Y-98597738D01*
X186849762Y-98470184D01*
X186805673Y-98442481D01*
X186697023Y-98374211D01*
X186526754Y-98314631D01*
X186526749Y-98314630D01*
X186347504Y-98294435D01*
X186347496Y-98294435D01*
X186168250Y-98314630D01*
X186168245Y-98314631D01*
X185997976Y-98374211D01*
X185845237Y-98470184D01*
X185717684Y-98597737D01*
X185621710Y-98750478D01*
X185579143Y-98872129D01*
X185577498Y-98876833D01*
X185562131Y-98920749D01*
X185561090Y-98929986D01*
X185534020Y-98994398D01*
X185525551Y-99003778D01*
X184294787Y-100234542D01*
X184233464Y-100268027D01*
X184163772Y-100263043D01*
X184107839Y-100221171D01*
X184086215Y-100174453D01*
X184085370Y-100170750D01*
X184050290Y-100070499D01*
X184025789Y-100000478D01*
X184025787Y-100000475D01*
X184025787Y-100000474D01*
X184019503Y-99990473D01*
X184000501Y-99923237D01*
X184020867Y-99856401D01*
X184074134Y-99811186D01*
X184124495Y-99800499D01*
X184131517Y-99800499D01*
X184131518Y-99800499D01*
X184225304Y-99785646D01*
X184338342Y-99728050D01*
X184428050Y-99638342D01*
X184485646Y-99525304D01*
X184485646Y-99525302D01*
X184485647Y-99525301D01*
X184498443Y-99444508D01*
X184500500Y-99431519D01*
X184500499Y-98468482D01*
X184485646Y-98374696D01*
X184428050Y-98261658D01*
X184428046Y-98261654D01*
X184428045Y-98261652D01*
X184338347Y-98171954D01*
X184338344Y-98171952D01*
X184338342Y-98171950D01*
X184261517Y-98132805D01*
X184225301Y-98114352D01*
X184131524Y-98099500D01*
X182568482Y-98099500D01*
X182487519Y-98112323D01*
X182474696Y-98114354D01*
X182361658Y-98171950D01*
X182361657Y-98171951D01*
X182361652Y-98171954D01*
X182271954Y-98261652D01*
X182271951Y-98261657D01*
X182271950Y-98261658D01*
X182256727Y-98291534D01*
X182214352Y-98374698D01*
X182199500Y-98468475D01*
X182199500Y-99431517D01*
X182203872Y-99459120D01*
X182214354Y-99525304D01*
X182271950Y-99638342D01*
X182271952Y-99638344D01*
X182271954Y-99638347D01*
X182361652Y-99728045D01*
X182361654Y-99728046D01*
X182361658Y-99728050D01*
X182474696Y-99785646D01*
X182502431Y-99790038D01*
X182565566Y-99819966D01*
X182602498Y-99879277D01*
X182601502Y-99949140D01*
X182588031Y-99978480D01*
X182574212Y-100000473D01*
X182514631Y-100170745D01*
X182514630Y-100170750D01*
X182501208Y-100289883D01*
X182474142Y-100354297D01*
X182416547Y-100393852D01*
X182377988Y-100400000D01*
X181150069Y-100400000D01*
X181083030Y-100380315D01*
X181037275Y-100327511D01*
X181027331Y-100258353D01*
X181056356Y-100194797D01*
X181062388Y-100188319D01*
X181090000Y-100160706D01*
X181090005Y-100160701D01*
X181127485Y-100087141D01*
X181139087Y-100074856D01*
X181139965Y-100070501D01*
X181139395Y-100070411D01*
X181154944Y-99972238D01*
X181164965Y-99951096D01*
X181156565Y-99936128D01*
X181154949Y-99927795D01*
X181140921Y-99839228D01*
X181140920Y-99839227D01*
X181139394Y-99829588D01*
X181139964Y-99829497D01*
X181139666Y-99828017D01*
X181132142Y-99821190D01*
X181127482Y-99812853D01*
X181121188Y-99800500D01*
X181090005Y-99739299D01*
X181090002Y-99739296D01*
X181090000Y-99739293D01*
X181010706Y-99659999D01*
X181010702Y-99659996D01*
X181010701Y-99659995D01*
X180968214Y-99638347D01*
X180910769Y-99609077D01*
X180800002Y-99591534D01*
X180799998Y-99591534D01*
X180689230Y-99609077D01*
X180589300Y-99659994D01*
X180589293Y-99659999D01*
X180509999Y-99739293D01*
X180509996Y-99739298D01*
X180509995Y-99739299D01*
X180508374Y-99742481D01*
X180472516Y-99812856D01*
X180460913Y-99825140D01*
X180460038Y-99829500D01*
X180460605Y-99829590D01*
X180445055Y-99927762D01*
X180435033Y-99948901D01*
X180443433Y-99963868D01*
X180445055Y-99972235D01*
X180460605Y-100070410D01*
X180460036Y-100070499D01*
X180460333Y-100071978D01*
X180467853Y-100078801D01*
X180472511Y-100087134D01*
X180496858Y-100134918D01*
X180509994Y-100160699D01*
X180509999Y-100160706D01*
X180537612Y-100188319D01*
X180571097Y-100249642D01*
X180566113Y-100319334D01*
X180524241Y-100375267D01*
X180458777Y-100399684D01*
X180449931Y-100400000D01*
X175317836Y-100400000D01*
X175250797Y-100380315D01*
X175205042Y-100327511D01*
X175195098Y-100258353D01*
X175224123Y-100194797D01*
X175230155Y-100188319D01*
X175454606Y-99963868D01*
X175679772Y-99738701D01*
X175741093Y-99705218D01*
X175810784Y-99710202D01*
X175839222Y-99726301D01*
X175839342Y-99726111D01*
X175843496Y-99728721D01*
X175844771Y-99729443D01*
X175845234Y-99729812D01*
X175845238Y-99729816D01*
X175934089Y-99785645D01*
X175990658Y-99821190D01*
X175997978Y-99825789D01*
X176165124Y-99884276D01*
X176168245Y-99885368D01*
X176168250Y-99885369D01*
X176347496Y-99905565D01*
X176347500Y-99905565D01*
X176347504Y-99905565D01*
X176526749Y-99885369D01*
X176526752Y-99885368D01*
X176526755Y-99885368D01*
X176697022Y-99825789D01*
X176849762Y-99729816D01*
X176977316Y-99602262D01*
X177073289Y-99449522D01*
X177132868Y-99279255D01*
X177135777Y-99253439D01*
X177153065Y-99100003D01*
X177153065Y-99099996D01*
X177132869Y-98920750D01*
X177132868Y-98920745D01*
X177121612Y-98888577D01*
X177073289Y-98750478D01*
X177009464Y-98648901D01*
X180435033Y-98648901D01*
X180443433Y-98663868D01*
X180445055Y-98672235D01*
X180460605Y-98770410D01*
X180460036Y-98770499D01*
X180460333Y-98771978D01*
X180467853Y-98778801D01*
X180472511Y-98787134D01*
X180479136Y-98800136D01*
X180509994Y-98860699D01*
X180509999Y-98860706D01*
X180589293Y-98940000D01*
X180589296Y-98940002D01*
X180589299Y-98940005D01*
X180680220Y-98986331D01*
X180689230Y-98990922D01*
X180799998Y-99008466D01*
X180800000Y-99008466D01*
X180800002Y-99008466D01*
X180910769Y-98990922D01*
X180910770Y-98990921D01*
X180910772Y-98990921D01*
X181010701Y-98940005D01*
X181090005Y-98860701D01*
X181127485Y-98787141D01*
X181139087Y-98774856D01*
X181139965Y-98770501D01*
X181139395Y-98770411D01*
X181154944Y-98672238D01*
X181164965Y-98651096D01*
X181156565Y-98636128D01*
X181154949Y-98627795D01*
X181140921Y-98539228D01*
X181140920Y-98539227D01*
X181139394Y-98529588D01*
X181139964Y-98529497D01*
X181139666Y-98528017D01*
X181132142Y-98521190D01*
X181127482Y-98512853D01*
X181118640Y-98495499D01*
X181090005Y-98439299D01*
X181090002Y-98439296D01*
X181090000Y-98439293D01*
X181010706Y-98359999D01*
X181010702Y-98359996D01*
X181010701Y-98359995D01*
X181005632Y-98357412D01*
X180910769Y-98309077D01*
X180800002Y-98291534D01*
X180799998Y-98291534D01*
X180689230Y-98309077D01*
X180589300Y-98359994D01*
X180589293Y-98359999D01*
X180509999Y-98439293D01*
X180509996Y-98439298D01*
X180509995Y-98439299D01*
X180489181Y-98480150D01*
X180472516Y-98512856D01*
X180460913Y-98525140D01*
X180460038Y-98529500D01*
X180460605Y-98529590D01*
X180445055Y-98627762D01*
X180435033Y-98648901D01*
X177009464Y-98648901D01*
X176977316Y-98597738D01*
X176849762Y-98470184D01*
X176805673Y-98442481D01*
X176697023Y-98374211D01*
X176526754Y-98314631D01*
X176526749Y-98314630D01*
X176347504Y-98294435D01*
X176347496Y-98294435D01*
X176168250Y-98314630D01*
X176168245Y-98314631D01*
X175997976Y-98374211D01*
X175845237Y-98470184D01*
X175777241Y-98538181D01*
X175715918Y-98571666D01*
X175689560Y-98574500D01*
X175585357Y-98574500D01*
X175583240Y-98574464D01*
X175544922Y-98573155D01*
X175521060Y-98572340D01*
X175521059Y-98572340D01*
X175521057Y-98572340D01*
X175480153Y-98582308D01*
X175473915Y-98583493D01*
X175432192Y-98589229D01*
X175416916Y-98595864D01*
X175396890Y-98602599D01*
X175380712Y-98606542D01*
X175380709Y-98606544D01*
X175344015Y-98627175D01*
X175338328Y-98629999D01*
X175299700Y-98646778D01*
X175299696Y-98646780D01*
X175286776Y-98657292D01*
X175269296Y-98669188D01*
X175254795Y-98677341D01*
X175254790Y-98677344D01*
X175225020Y-98707113D01*
X175220307Y-98711367D01*
X175187640Y-98737945D01*
X175178033Y-98751554D01*
X175164414Y-98767720D01*
X174712180Y-99219954D01*
X174650857Y-99253439D01*
X174581165Y-99248455D01*
X174525232Y-99206583D01*
X174500815Y-99141119D01*
X174500499Y-99132292D01*
X174500499Y-98468482D01*
X174485646Y-98374696D01*
X174428050Y-98261658D01*
X174428046Y-98261654D01*
X174428045Y-98261652D01*
X174338347Y-98171954D01*
X174338344Y-98171952D01*
X174338342Y-98171950D01*
X174261517Y-98132805D01*
X174225301Y-98114352D01*
X174131524Y-98099500D01*
X172568482Y-98099500D01*
X172487519Y-98112323D01*
X172474696Y-98114354D01*
X172361658Y-98171950D01*
X172361657Y-98171951D01*
X172361652Y-98171954D01*
X172271954Y-98261652D01*
X172271951Y-98261657D01*
X172271950Y-98261658D01*
X172256727Y-98291534D01*
X172214352Y-98374698D01*
X172199500Y-98468475D01*
X172199500Y-99431517D01*
X172203872Y-99459120D01*
X172214354Y-99525304D01*
X172271950Y-99638342D01*
X172271952Y-99638344D01*
X172271954Y-99638347D01*
X172361652Y-99728045D01*
X172361654Y-99728046D01*
X172361658Y-99728050D01*
X172474696Y-99785646D01*
X172502431Y-99790038D01*
X172565566Y-99819966D01*
X172602498Y-99879277D01*
X172601502Y-99949140D01*
X172588031Y-99978480D01*
X172574212Y-100000473D01*
X172514631Y-100170745D01*
X172514630Y-100170750D01*
X172501208Y-100289883D01*
X172474142Y-100354297D01*
X172416547Y-100393852D01*
X172377988Y-100400000D01*
X171150069Y-100400000D01*
X171083030Y-100380315D01*
X171037275Y-100327511D01*
X171027331Y-100258353D01*
X171056356Y-100194797D01*
X171062388Y-100188319D01*
X171090000Y-100160706D01*
X171090005Y-100160701D01*
X171127485Y-100087141D01*
X171139087Y-100074856D01*
X171139965Y-100070501D01*
X171139395Y-100070411D01*
X171154944Y-99972238D01*
X171164965Y-99951096D01*
X171156565Y-99936128D01*
X171154949Y-99927795D01*
X171140921Y-99839228D01*
X171140920Y-99839227D01*
X171139394Y-99829588D01*
X171139964Y-99829497D01*
X171139666Y-99828017D01*
X171132142Y-99821190D01*
X171127482Y-99812853D01*
X171121188Y-99800500D01*
X171090005Y-99739299D01*
X171090002Y-99739296D01*
X171090000Y-99739293D01*
X171010706Y-99659999D01*
X171010702Y-99659996D01*
X171010701Y-99659995D01*
X170968214Y-99638347D01*
X170910769Y-99609077D01*
X170800002Y-99591534D01*
X170799998Y-99591534D01*
X170689230Y-99609077D01*
X170589300Y-99659994D01*
X170589293Y-99659999D01*
X170509999Y-99739293D01*
X170509996Y-99739298D01*
X170509995Y-99739299D01*
X170508374Y-99742481D01*
X170472516Y-99812856D01*
X170460913Y-99825140D01*
X170460038Y-99829500D01*
X170460605Y-99829590D01*
X170445055Y-99927762D01*
X170435033Y-99948901D01*
X170443433Y-99963868D01*
X170445055Y-99972235D01*
X170460605Y-100070410D01*
X170460036Y-100070499D01*
X170460333Y-100071978D01*
X170467853Y-100078801D01*
X170472511Y-100087134D01*
X170496858Y-100134918D01*
X170509994Y-100160699D01*
X170509999Y-100160706D01*
X170537612Y-100188319D01*
X170571097Y-100249642D01*
X170566113Y-100319334D01*
X170524241Y-100375267D01*
X170458777Y-100399684D01*
X170449931Y-100400000D01*
X165915031Y-100400000D01*
X165847992Y-100380315D01*
X165802237Y-100327511D01*
X165792293Y-100258353D01*
X165821318Y-100194797D01*
X165827349Y-100188319D01*
X165880750Y-100134918D01*
X166086857Y-99928810D01*
X166148176Y-99895328D01*
X166188418Y-99893274D01*
X166226164Y-99897527D01*
X166297498Y-99905565D01*
X166297500Y-99905565D01*
X166297503Y-99905565D01*
X166476749Y-99885369D01*
X166476752Y-99885368D01*
X166476755Y-99885368D01*
X166647022Y-99825789D01*
X166799762Y-99729816D01*
X166927316Y-99602262D01*
X167023289Y-99449522D01*
X167082868Y-99279255D01*
X167085777Y-99253439D01*
X167103065Y-99100003D01*
X167103065Y-99099996D01*
X167082869Y-98920750D01*
X167082868Y-98920745D01*
X167071612Y-98888577D01*
X167023289Y-98750478D01*
X166959464Y-98648901D01*
X170435033Y-98648901D01*
X170443433Y-98663868D01*
X170445055Y-98672235D01*
X170460605Y-98770410D01*
X170460036Y-98770499D01*
X170460333Y-98771978D01*
X170467853Y-98778801D01*
X170472511Y-98787134D01*
X170479136Y-98800136D01*
X170509994Y-98860699D01*
X170509999Y-98860706D01*
X170589293Y-98940000D01*
X170589296Y-98940002D01*
X170589299Y-98940005D01*
X170680220Y-98986331D01*
X170689230Y-98990922D01*
X170799998Y-99008466D01*
X170800000Y-99008466D01*
X170800002Y-99008466D01*
X170910769Y-98990922D01*
X170910770Y-98990921D01*
X170910772Y-98990921D01*
X171010701Y-98940005D01*
X171090005Y-98860701D01*
X171127485Y-98787141D01*
X171139087Y-98774856D01*
X171139965Y-98770501D01*
X171139395Y-98770411D01*
X171154944Y-98672238D01*
X171164965Y-98651096D01*
X171156565Y-98636128D01*
X171154949Y-98627795D01*
X171140921Y-98539228D01*
X171140920Y-98539227D01*
X171139394Y-98529588D01*
X171139964Y-98529497D01*
X171139666Y-98528017D01*
X171132142Y-98521190D01*
X171127482Y-98512853D01*
X171118640Y-98495499D01*
X171090005Y-98439299D01*
X171090002Y-98439296D01*
X171090000Y-98439293D01*
X171010706Y-98359999D01*
X171010702Y-98359996D01*
X171010701Y-98359995D01*
X171005632Y-98357412D01*
X170910769Y-98309077D01*
X170800002Y-98291534D01*
X170799998Y-98291534D01*
X170689230Y-98309077D01*
X170589300Y-98359994D01*
X170589293Y-98359999D01*
X170509999Y-98439293D01*
X170509996Y-98439298D01*
X170509995Y-98439299D01*
X170489181Y-98480150D01*
X170472516Y-98512856D01*
X170460913Y-98525140D01*
X170460038Y-98529500D01*
X170460605Y-98529590D01*
X170445055Y-98627762D01*
X170435033Y-98648901D01*
X166959464Y-98648901D01*
X166927316Y-98597738D01*
X166799762Y-98470184D01*
X166755673Y-98442481D01*
X166647023Y-98374211D01*
X166476754Y-98314631D01*
X166476749Y-98314630D01*
X166297504Y-98294435D01*
X166297496Y-98294435D01*
X166118250Y-98314630D01*
X166118245Y-98314631D01*
X165947976Y-98374211D01*
X165795237Y-98470184D01*
X165667684Y-98597737D01*
X165571710Y-98750478D01*
X165512130Y-98920750D01*
X165504741Y-98986331D01*
X165477674Y-99050744D01*
X165469202Y-99060127D01*
X164294787Y-100234542D01*
X164233464Y-100268027D01*
X164163772Y-100263043D01*
X164107839Y-100221171D01*
X164086215Y-100174453D01*
X164085370Y-100170750D01*
X164050290Y-100070499D01*
X164025789Y-100000478D01*
X164025787Y-100000475D01*
X164025787Y-100000474D01*
X164019503Y-99990473D01*
X164000501Y-99923237D01*
X164020867Y-99856401D01*
X164074134Y-99811186D01*
X164124495Y-99800499D01*
X164131517Y-99800499D01*
X164131518Y-99800499D01*
X164225304Y-99785646D01*
X164338342Y-99728050D01*
X164428050Y-99638342D01*
X164485646Y-99525304D01*
X164485646Y-99525302D01*
X164485647Y-99525301D01*
X164498443Y-99444508D01*
X164500500Y-99431519D01*
X164500499Y-98468482D01*
X164485646Y-98374696D01*
X164428050Y-98261658D01*
X164428046Y-98261654D01*
X164428045Y-98261652D01*
X164338347Y-98171954D01*
X164338344Y-98171952D01*
X164338342Y-98171950D01*
X164261517Y-98132805D01*
X164225301Y-98114352D01*
X164131524Y-98099500D01*
X162568482Y-98099500D01*
X162487519Y-98112323D01*
X162474696Y-98114354D01*
X162361658Y-98171950D01*
X162361657Y-98171951D01*
X162361652Y-98171954D01*
X162271954Y-98261652D01*
X162271951Y-98261657D01*
X162271950Y-98261658D01*
X162256727Y-98291534D01*
X162214352Y-98374698D01*
X162199500Y-98468475D01*
X162199500Y-99431517D01*
X162203872Y-99459120D01*
X162214354Y-99525304D01*
X162271950Y-99638342D01*
X162271952Y-99638344D01*
X162271954Y-99638347D01*
X162361652Y-99728045D01*
X162361654Y-99728046D01*
X162361658Y-99728050D01*
X162474696Y-99785646D01*
X162502431Y-99790038D01*
X162565566Y-99819966D01*
X162602498Y-99879277D01*
X162601502Y-99949140D01*
X162588031Y-99978480D01*
X162574212Y-100000473D01*
X162514631Y-100170745D01*
X162514630Y-100170750D01*
X162501208Y-100289883D01*
X162474142Y-100354297D01*
X162416547Y-100393852D01*
X162377988Y-100400000D01*
X161150069Y-100400000D01*
X161083030Y-100380315D01*
X161037275Y-100327511D01*
X161027331Y-100258353D01*
X161056356Y-100194797D01*
X161062388Y-100188319D01*
X161090000Y-100160706D01*
X161090005Y-100160701D01*
X161127485Y-100087141D01*
X161139087Y-100074856D01*
X161139965Y-100070501D01*
X161139395Y-100070411D01*
X161154944Y-99972238D01*
X161164965Y-99951096D01*
X161156565Y-99936128D01*
X161154949Y-99927795D01*
X161140921Y-99839228D01*
X161140920Y-99839227D01*
X161139394Y-99829588D01*
X161139964Y-99829497D01*
X161139666Y-99828017D01*
X161132142Y-99821190D01*
X161127482Y-99812853D01*
X161121188Y-99800500D01*
X161090005Y-99739299D01*
X161090002Y-99739296D01*
X161090000Y-99739293D01*
X161010706Y-99659999D01*
X161010702Y-99659996D01*
X161010701Y-99659995D01*
X160968214Y-99638347D01*
X160910769Y-99609077D01*
X160800002Y-99591534D01*
X160799998Y-99591534D01*
X160689230Y-99609077D01*
X160589300Y-99659994D01*
X160589293Y-99659999D01*
X160509999Y-99739293D01*
X160509996Y-99739298D01*
X160509995Y-99739299D01*
X160508374Y-99742481D01*
X160472516Y-99812856D01*
X160460913Y-99825140D01*
X160460038Y-99829500D01*
X160460605Y-99829590D01*
X160445055Y-99927762D01*
X160435033Y-99948901D01*
X160443433Y-99963868D01*
X160445055Y-99972235D01*
X160460605Y-100070410D01*
X160460036Y-100070499D01*
X160460333Y-100071978D01*
X160467853Y-100078801D01*
X160472511Y-100087134D01*
X160496858Y-100134918D01*
X160509994Y-100160699D01*
X160509999Y-100160706D01*
X160537612Y-100188319D01*
X160571097Y-100249642D01*
X160566113Y-100319334D01*
X160524241Y-100375267D01*
X160458777Y-100399684D01*
X160449931Y-100400000D01*
X155865031Y-100400000D01*
X155797992Y-100380315D01*
X155752237Y-100327511D01*
X155742293Y-100258353D01*
X155771318Y-100194797D01*
X155777350Y-100188319D01*
X156048183Y-99917485D01*
X156109506Y-99884000D01*
X156163463Y-99884276D01*
X156168236Y-99885364D01*
X156168245Y-99885368D01*
X156168254Y-99885369D01*
X156347496Y-99905565D01*
X156347500Y-99905565D01*
X156347504Y-99905565D01*
X156526749Y-99885369D01*
X156526752Y-99885368D01*
X156526755Y-99885368D01*
X156697022Y-99825789D01*
X156849762Y-99729816D01*
X156977316Y-99602262D01*
X157073289Y-99449522D01*
X157132868Y-99279255D01*
X157135777Y-99253439D01*
X157153065Y-99100003D01*
X157153065Y-99099996D01*
X157132869Y-98920750D01*
X157132868Y-98920745D01*
X157121612Y-98888577D01*
X157073289Y-98750478D01*
X157009464Y-98648901D01*
X160435033Y-98648901D01*
X160443433Y-98663868D01*
X160445055Y-98672235D01*
X160460605Y-98770410D01*
X160460036Y-98770499D01*
X160460333Y-98771978D01*
X160467853Y-98778801D01*
X160472511Y-98787134D01*
X160479136Y-98800136D01*
X160509994Y-98860699D01*
X160509999Y-98860706D01*
X160589293Y-98940000D01*
X160589296Y-98940002D01*
X160589299Y-98940005D01*
X160680220Y-98986331D01*
X160689230Y-98990922D01*
X160799998Y-99008466D01*
X160800000Y-99008466D01*
X160800002Y-99008466D01*
X160910769Y-98990922D01*
X160910770Y-98990921D01*
X160910772Y-98990921D01*
X161010701Y-98940005D01*
X161090005Y-98860701D01*
X161127485Y-98787141D01*
X161139087Y-98774856D01*
X161139965Y-98770501D01*
X161139395Y-98770411D01*
X161154944Y-98672238D01*
X161164965Y-98651096D01*
X161156565Y-98636128D01*
X161154949Y-98627795D01*
X161140921Y-98539228D01*
X161140920Y-98539227D01*
X161139394Y-98529588D01*
X161139964Y-98529497D01*
X161139666Y-98528017D01*
X161132142Y-98521190D01*
X161127482Y-98512853D01*
X161118640Y-98495499D01*
X161090005Y-98439299D01*
X161090002Y-98439296D01*
X161090000Y-98439293D01*
X161010706Y-98359999D01*
X161010702Y-98359996D01*
X161010701Y-98359995D01*
X161005632Y-98357412D01*
X160910769Y-98309077D01*
X160800002Y-98291534D01*
X160799998Y-98291534D01*
X160689230Y-98309077D01*
X160589300Y-98359994D01*
X160589293Y-98359999D01*
X160509999Y-98439293D01*
X160509996Y-98439298D01*
X160509995Y-98439299D01*
X160489181Y-98480150D01*
X160472516Y-98512856D01*
X160460913Y-98525140D01*
X160460038Y-98529500D01*
X160460605Y-98529590D01*
X160445055Y-98627762D01*
X160435033Y-98648901D01*
X157009464Y-98648901D01*
X156977316Y-98597738D01*
X156849762Y-98470184D01*
X156805673Y-98442481D01*
X156697023Y-98374211D01*
X156526754Y-98314631D01*
X156526749Y-98314630D01*
X156347504Y-98294435D01*
X156347496Y-98294435D01*
X156168250Y-98314630D01*
X156168245Y-98314631D01*
X155997976Y-98374211D01*
X155845237Y-98470184D01*
X155717684Y-98597737D01*
X155621712Y-98750475D01*
X155621711Y-98750476D01*
X155573387Y-98888577D01*
X155544027Y-98935302D01*
X154282772Y-100196557D01*
X154221449Y-100230042D01*
X154151757Y-100225058D01*
X154095824Y-100183186D01*
X154078050Y-100149832D01*
X154025789Y-100000478D01*
X154025788Y-100000476D01*
X154019503Y-99990473D01*
X154000501Y-99923237D01*
X154020867Y-99856401D01*
X154074134Y-99811186D01*
X154124495Y-99800499D01*
X154131517Y-99800499D01*
X154131518Y-99800499D01*
X154225304Y-99785646D01*
X154338342Y-99728050D01*
X154428050Y-99638342D01*
X154485646Y-99525304D01*
X154485646Y-99525302D01*
X154485647Y-99525301D01*
X154498443Y-99444508D01*
X154500500Y-99431519D01*
X154500499Y-98468482D01*
X154485646Y-98374696D01*
X154428050Y-98261658D01*
X154428046Y-98261654D01*
X154428045Y-98261652D01*
X154338347Y-98171954D01*
X154338344Y-98171952D01*
X154338342Y-98171950D01*
X154261517Y-98132805D01*
X154225301Y-98114352D01*
X154131524Y-98099500D01*
X152568482Y-98099500D01*
X152487519Y-98112323D01*
X152474696Y-98114354D01*
X152361658Y-98171950D01*
X152361657Y-98171951D01*
X152361652Y-98171954D01*
X152271954Y-98261652D01*
X152271951Y-98261657D01*
X152271950Y-98261658D01*
X152256727Y-98291534D01*
X152214352Y-98374698D01*
X152199500Y-98468475D01*
X152199500Y-99431517D01*
X152203872Y-99459120D01*
X152214354Y-99525304D01*
X152271950Y-99638342D01*
X152271952Y-99638344D01*
X152271954Y-99638347D01*
X152361652Y-99728045D01*
X152361654Y-99728046D01*
X152361658Y-99728050D01*
X152474696Y-99785646D01*
X152502431Y-99790038D01*
X152565566Y-99819966D01*
X152602498Y-99879277D01*
X152601502Y-99949140D01*
X152588031Y-99978480D01*
X152574212Y-100000473D01*
X152514631Y-100170745D01*
X152514630Y-100170750D01*
X152501208Y-100289883D01*
X152474142Y-100354297D01*
X152416547Y-100393852D01*
X152377988Y-100400000D01*
X151150069Y-100400000D01*
X151083030Y-100380315D01*
X151037275Y-100327511D01*
X151027331Y-100258353D01*
X151056356Y-100194797D01*
X151062388Y-100188319D01*
X151090000Y-100160706D01*
X151090005Y-100160701D01*
X151127485Y-100087141D01*
X151139087Y-100074856D01*
X151139965Y-100070501D01*
X151139395Y-100070411D01*
X151154944Y-99972238D01*
X151164965Y-99951096D01*
X151156565Y-99936128D01*
X151154949Y-99927795D01*
X151140921Y-99839228D01*
X151140920Y-99839227D01*
X151139394Y-99829588D01*
X151139964Y-99829497D01*
X151139666Y-99828017D01*
X151132142Y-99821190D01*
X151127482Y-99812853D01*
X151121188Y-99800500D01*
X151090005Y-99739299D01*
X151090002Y-99739296D01*
X151090000Y-99739293D01*
X151010706Y-99659999D01*
X151010702Y-99659996D01*
X151010701Y-99659995D01*
X150968214Y-99638347D01*
X150910769Y-99609077D01*
X150800002Y-99591534D01*
X150799998Y-99591534D01*
X150689230Y-99609077D01*
X150589300Y-99659994D01*
X150589293Y-99659999D01*
X150509999Y-99739293D01*
X150509996Y-99739298D01*
X150509995Y-99739299D01*
X150508374Y-99742481D01*
X150472516Y-99812856D01*
X150460913Y-99825140D01*
X150460038Y-99829500D01*
X150460605Y-99829590D01*
X150445055Y-99927762D01*
X150435033Y-99948901D01*
X150443433Y-99963868D01*
X150445055Y-99972235D01*
X150460605Y-100070410D01*
X150460036Y-100070499D01*
X150460333Y-100071978D01*
X150467853Y-100078801D01*
X150472511Y-100087134D01*
X150496858Y-100134918D01*
X150509994Y-100160699D01*
X150509999Y-100160706D01*
X150537612Y-100188319D01*
X150571097Y-100249642D01*
X150566113Y-100319334D01*
X150524241Y-100375267D01*
X150458777Y-100399684D01*
X150449931Y-100400000D01*
X145940031Y-100400000D01*
X145872992Y-100380315D01*
X145827237Y-100327511D01*
X145817293Y-100258353D01*
X145846318Y-100194797D01*
X145852350Y-100188319D01*
X146114386Y-99926282D01*
X146175709Y-99892797D01*
X146215950Y-99890743D01*
X146251522Y-99894751D01*
X146347497Y-99905565D01*
X146347500Y-99905565D01*
X146347504Y-99905565D01*
X146526749Y-99885369D01*
X146526752Y-99885368D01*
X146526755Y-99885368D01*
X146697022Y-99825789D01*
X146849762Y-99729816D01*
X146977316Y-99602262D01*
X147073289Y-99449522D01*
X147132868Y-99279255D01*
X147135777Y-99253439D01*
X147153065Y-99100003D01*
X147153065Y-99099996D01*
X147132869Y-98920750D01*
X147132868Y-98920745D01*
X147121612Y-98888577D01*
X147073289Y-98750478D01*
X147009464Y-98648901D01*
X150435033Y-98648901D01*
X150443433Y-98663868D01*
X150445055Y-98672235D01*
X150460605Y-98770410D01*
X150460036Y-98770499D01*
X150460333Y-98771978D01*
X150467853Y-98778801D01*
X150472511Y-98787134D01*
X150479136Y-98800136D01*
X150509994Y-98860699D01*
X150509999Y-98860706D01*
X150589293Y-98940000D01*
X150589296Y-98940002D01*
X150589299Y-98940005D01*
X150680220Y-98986331D01*
X150689230Y-98990922D01*
X150799998Y-99008466D01*
X150800000Y-99008466D01*
X150800002Y-99008466D01*
X150910769Y-98990922D01*
X150910770Y-98990921D01*
X150910772Y-98990921D01*
X151010701Y-98940005D01*
X151090005Y-98860701D01*
X151127485Y-98787141D01*
X151139087Y-98774856D01*
X151139965Y-98770501D01*
X151139395Y-98770411D01*
X151154944Y-98672238D01*
X151164965Y-98651096D01*
X151156565Y-98636128D01*
X151154949Y-98627795D01*
X151140921Y-98539228D01*
X151140920Y-98539227D01*
X151139394Y-98529588D01*
X151139964Y-98529497D01*
X151139666Y-98528017D01*
X151132142Y-98521190D01*
X151127482Y-98512853D01*
X151118640Y-98495499D01*
X151090005Y-98439299D01*
X151090002Y-98439296D01*
X151090000Y-98439293D01*
X151010706Y-98359999D01*
X151010702Y-98359996D01*
X151010701Y-98359995D01*
X151005632Y-98357412D01*
X150910769Y-98309077D01*
X150800002Y-98291534D01*
X150799998Y-98291534D01*
X150689230Y-98309077D01*
X150589300Y-98359994D01*
X150589293Y-98359999D01*
X150509999Y-98439293D01*
X150509996Y-98439298D01*
X150509995Y-98439299D01*
X150489181Y-98480150D01*
X150472516Y-98512856D01*
X150460913Y-98525140D01*
X150460038Y-98529500D01*
X150460605Y-98529590D01*
X150445055Y-98627762D01*
X150435033Y-98648901D01*
X147009464Y-98648901D01*
X146977316Y-98597738D01*
X146849762Y-98470184D01*
X146805673Y-98442481D01*
X146697023Y-98374211D01*
X146526754Y-98314631D01*
X146526749Y-98314630D01*
X146347504Y-98294435D01*
X146347496Y-98294435D01*
X146168250Y-98314630D01*
X146168245Y-98314631D01*
X145997976Y-98374211D01*
X145845237Y-98470184D01*
X145717684Y-98597737D01*
X145621710Y-98750478D01*
X145562132Y-98920745D01*
X145557916Y-98958158D01*
X145530847Y-99022571D01*
X145522377Y-99031952D01*
X144297638Y-100256691D01*
X144236315Y-100290176D01*
X144166623Y-100285192D01*
X144110690Y-100243320D01*
X144086736Y-100182892D01*
X144085368Y-100170745D01*
X144025789Y-100000478D01*
X144025787Y-100000475D01*
X144025787Y-100000474D01*
X144019503Y-99990473D01*
X144000501Y-99923237D01*
X144020867Y-99856401D01*
X144074134Y-99811186D01*
X144124495Y-99800499D01*
X144131517Y-99800499D01*
X144131518Y-99800499D01*
X144225304Y-99785646D01*
X144338342Y-99728050D01*
X144428050Y-99638342D01*
X144485646Y-99525304D01*
X144485646Y-99525302D01*
X144485647Y-99525301D01*
X144498443Y-99444508D01*
X144500500Y-99431519D01*
X144500499Y-98468482D01*
X144485646Y-98374696D01*
X144428050Y-98261658D01*
X144428046Y-98261654D01*
X144428045Y-98261652D01*
X144338347Y-98171954D01*
X144338344Y-98171952D01*
X144338342Y-98171950D01*
X144261517Y-98132805D01*
X144225301Y-98114352D01*
X144131524Y-98099500D01*
X142568482Y-98099500D01*
X142487519Y-98112323D01*
X142474696Y-98114354D01*
X142361658Y-98171950D01*
X142361657Y-98171951D01*
X142361652Y-98171954D01*
X142271954Y-98261652D01*
X142271951Y-98261657D01*
X142271950Y-98261658D01*
X142256727Y-98291534D01*
X142214352Y-98374698D01*
X142199500Y-98468475D01*
X142199500Y-99431517D01*
X142203872Y-99459120D01*
X142214354Y-99525304D01*
X142271950Y-99638342D01*
X142271952Y-99638344D01*
X142271954Y-99638347D01*
X142361652Y-99728045D01*
X142361654Y-99728046D01*
X142361658Y-99728050D01*
X142474696Y-99785646D01*
X142502431Y-99790038D01*
X142565566Y-99819966D01*
X142602498Y-99879277D01*
X142601502Y-99949140D01*
X142588031Y-99978480D01*
X142574212Y-100000473D01*
X142514631Y-100170745D01*
X142514630Y-100170750D01*
X142501208Y-100289883D01*
X142474142Y-100354297D01*
X142416547Y-100393852D01*
X142377988Y-100400000D01*
X138298454Y-100400000D01*
X138291513Y-100399610D01*
X138264049Y-100396515D01*
X138250002Y-100394933D01*
X138249998Y-100394933D01*
X138235950Y-100396515D01*
X138208486Y-100399610D01*
X138201546Y-100400000D01*
X137554492Y-100400000D01*
X137487453Y-100380315D01*
X137441698Y-100327511D01*
X137430492Y-100276000D01*
X137430492Y-99849994D01*
X137410647Y-99724698D01*
X137400721Y-99705218D01*
X137353050Y-99611658D01*
X137353046Y-99611654D01*
X137353045Y-99611652D01*
X137263347Y-99521954D01*
X137263343Y-99521951D01*
X137263342Y-99521950D01*
X137260393Y-99520447D01*
X137219498Y-99499610D01*
X137168703Y-99451636D01*
X137151908Y-99383814D01*
X137158752Y-99348173D01*
X137182868Y-99279255D01*
X137185777Y-99253439D01*
X137203065Y-99100003D01*
X137203065Y-99099996D01*
X137182869Y-98920750D01*
X137182868Y-98920745D01*
X137171612Y-98888577D01*
X137123289Y-98750478D01*
X137027316Y-98597738D01*
X136899762Y-98470184D01*
X136855673Y-98442481D01*
X136747023Y-98374211D01*
X136576754Y-98314631D01*
X136576749Y-98314630D01*
X136397504Y-98294435D01*
X136397496Y-98294435D01*
X136218250Y-98314630D01*
X136218245Y-98314631D01*
X136047976Y-98374211D01*
X135895237Y-98470184D01*
X135767684Y-98597737D01*
X135671712Y-98750475D01*
X135671711Y-98750476D01*
X135636844Y-98850120D01*
X135607484Y-98896845D01*
X135096142Y-99408189D01*
X135034819Y-99441674D01*
X135008461Y-99444508D01*
X134624500Y-99444508D01*
X134557461Y-99424823D01*
X134511706Y-99372019D01*
X134500500Y-99320508D01*
X134500499Y-98468482D01*
X134497140Y-98447271D01*
X134485646Y-98374696D01*
X134428050Y-98261658D01*
X134428046Y-98261654D01*
X134428045Y-98261652D01*
X134338347Y-98171954D01*
X134338344Y-98171952D01*
X134338342Y-98171950D01*
X134261517Y-98132805D01*
X134225301Y-98114352D01*
X134131524Y-98099500D01*
X132568482Y-98099500D01*
X132487519Y-98112323D01*
X132474696Y-98114354D01*
X132361658Y-98171950D01*
X132361657Y-98171951D01*
X132361652Y-98171954D01*
X132271954Y-98261652D01*
X132271951Y-98261657D01*
X132271950Y-98261658D01*
X132256727Y-98291534D01*
X132214352Y-98374698D01*
X132199500Y-98468475D01*
X132199500Y-99431517D01*
X132203872Y-99459120D01*
X132214354Y-99525304D01*
X132271950Y-99638342D01*
X132271952Y-99638344D01*
X132271954Y-99638347D01*
X132361652Y-99728045D01*
X132361654Y-99728046D01*
X132361658Y-99728050D01*
X132474696Y-99785646D01*
X132502431Y-99790038D01*
X132565566Y-99819966D01*
X132602498Y-99879277D01*
X132601502Y-99949140D01*
X132588031Y-99978480D01*
X132574212Y-100000473D01*
X132514631Y-100170745D01*
X132514630Y-100170750D01*
X132501208Y-100289883D01*
X132474142Y-100354297D01*
X132416547Y-100393852D01*
X132377988Y-100400000D01*
X128298454Y-100400000D01*
X128291513Y-100399610D01*
X128264049Y-100396515D01*
X128250002Y-100394933D01*
X128249998Y-100394933D01*
X128235950Y-100396515D01*
X128208486Y-100399610D01*
X128201546Y-100400000D01*
X127554491Y-100400000D01*
X127487452Y-100380315D01*
X127441697Y-100327511D01*
X127430491Y-100276000D01*
X127430492Y-99850000D01*
X127420995Y-99790038D01*
X127410647Y-99724698D01*
X127400721Y-99705218D01*
X127353050Y-99611658D01*
X127353046Y-99611654D01*
X127353045Y-99611652D01*
X127263347Y-99521954D01*
X127263344Y-99521952D01*
X127263342Y-99521950D01*
X127177063Y-99477988D01*
X127126269Y-99430015D01*
X127109474Y-99362194D01*
X127116319Y-99326549D01*
X127132867Y-99279259D01*
X127132869Y-99279249D01*
X127153065Y-99100003D01*
X127153065Y-99099996D01*
X127132869Y-98920750D01*
X127132868Y-98920745D01*
X127121612Y-98888577D01*
X127073289Y-98750478D01*
X126977316Y-98597738D01*
X126849762Y-98470184D01*
X126805673Y-98442481D01*
X126697023Y-98374211D01*
X126526754Y-98314631D01*
X126526749Y-98314630D01*
X126347504Y-98294435D01*
X126347496Y-98294435D01*
X126168250Y-98314630D01*
X126168245Y-98314631D01*
X125997976Y-98374211D01*
X125845237Y-98470184D01*
X125717684Y-98597737D01*
X125621711Y-98750477D01*
X125559932Y-98927032D01*
X125530571Y-98973758D01*
X125096142Y-99408189D01*
X125034819Y-99441674D01*
X125008461Y-99444508D01*
X124624500Y-99444508D01*
X124557461Y-99424823D01*
X124511706Y-99372019D01*
X124500500Y-99320508D01*
X124500499Y-98468482D01*
X124497140Y-98447271D01*
X124485646Y-98374696D01*
X124428050Y-98261658D01*
X124428046Y-98261654D01*
X124428045Y-98261652D01*
X124338347Y-98171954D01*
X124338344Y-98171952D01*
X124338342Y-98171950D01*
X124261517Y-98132805D01*
X124225301Y-98114352D01*
X124131524Y-98099500D01*
X122568482Y-98099500D01*
X122487519Y-98112323D01*
X122474696Y-98114354D01*
X122361658Y-98171950D01*
X122361657Y-98171950D01*
X122361657Y-98171951D01*
X122361652Y-98171954D01*
X122271954Y-98261652D01*
X122271951Y-98261657D01*
X122271950Y-98261658D01*
X122256727Y-98291534D01*
X122214352Y-98374698D01*
X122199500Y-98468475D01*
X122199500Y-99431517D01*
X122203872Y-99459120D01*
X122214354Y-99525304D01*
X122271950Y-99638342D01*
X122271952Y-99638344D01*
X122271954Y-99638347D01*
X122361652Y-99728045D01*
X122361654Y-99728046D01*
X122361658Y-99728050D01*
X122474696Y-99785646D01*
X122502431Y-99790038D01*
X122565566Y-99819966D01*
X122602498Y-99879277D01*
X122601502Y-99949140D01*
X122588031Y-99978480D01*
X122574212Y-100000473D01*
X122514631Y-100170745D01*
X122514630Y-100170750D01*
X122501208Y-100289883D01*
X122474142Y-100354297D01*
X122416547Y-100393852D01*
X122377988Y-100400000D01*
X118310753Y-100400000D01*
X118303812Y-100399610D01*
X118276348Y-100396515D01*
X118262301Y-100394933D01*
X118262297Y-100394933D01*
X118248249Y-100396515D01*
X118220785Y-100399610D01*
X118213845Y-100400000D01*
X117554492Y-100400000D01*
X117487453Y-100380315D01*
X117441698Y-100327511D01*
X117430492Y-100276000D01*
X117430492Y-99849994D01*
X117410647Y-99724698D01*
X117400721Y-99705218D01*
X117353050Y-99611658D01*
X117353046Y-99611654D01*
X117353045Y-99611652D01*
X117263347Y-99521954D01*
X117263344Y-99521952D01*
X117263342Y-99521950D01*
X117177063Y-99477988D01*
X117126269Y-99430015D01*
X117109474Y-99362194D01*
X117116319Y-99326549D01*
X117132867Y-99279259D01*
X117132869Y-99279249D01*
X117153065Y-99100003D01*
X117153065Y-99099996D01*
X117132869Y-98920750D01*
X117132868Y-98920745D01*
X117121612Y-98888577D01*
X117073289Y-98750478D01*
X116977316Y-98597738D01*
X116849762Y-98470184D01*
X116805673Y-98442481D01*
X116697023Y-98374211D01*
X116526754Y-98314631D01*
X116526749Y-98314630D01*
X116347504Y-98294435D01*
X116347496Y-98294435D01*
X116168250Y-98314630D01*
X116168245Y-98314631D01*
X115997976Y-98374211D01*
X115845237Y-98470184D01*
X115717684Y-98597737D01*
X115621711Y-98750477D01*
X115559932Y-98927032D01*
X115530571Y-98973758D01*
X115096142Y-99408189D01*
X115034819Y-99441674D01*
X115008461Y-99444508D01*
X114624500Y-99444508D01*
X114557461Y-99424823D01*
X114511706Y-99372019D01*
X114500500Y-99320508D01*
X114500499Y-98468482D01*
X114497140Y-98447271D01*
X114485646Y-98374696D01*
X114428050Y-98261658D01*
X114428046Y-98261654D01*
X114428045Y-98261652D01*
X114338347Y-98171954D01*
X114338344Y-98171952D01*
X114338342Y-98171950D01*
X114261517Y-98132805D01*
X114225301Y-98114352D01*
X114131524Y-98099500D01*
X112568482Y-98099500D01*
X112487519Y-98112323D01*
X112474696Y-98114354D01*
X112361658Y-98171950D01*
X112361657Y-98171950D01*
X112361657Y-98171951D01*
X112361652Y-98171954D01*
X112271954Y-98261652D01*
X112271951Y-98261657D01*
X112271950Y-98261658D01*
X112256727Y-98291534D01*
X112214352Y-98374698D01*
X112199500Y-98468475D01*
X112199500Y-99431517D01*
X112203872Y-99459120D01*
X112214354Y-99525304D01*
X112271950Y-99638342D01*
X112271952Y-99638344D01*
X112271954Y-99638347D01*
X112361652Y-99728045D01*
X112361654Y-99728046D01*
X112361658Y-99728050D01*
X112474696Y-99785646D01*
X112502431Y-99790038D01*
X112565566Y-99819966D01*
X112602498Y-99879277D01*
X112601502Y-99949140D01*
X112588031Y-99978480D01*
X112574212Y-100000473D01*
X112514631Y-100170745D01*
X112514630Y-100170750D01*
X112501208Y-100289883D01*
X112474142Y-100354297D01*
X112416547Y-100393852D01*
X112377988Y-100400000D01*
X108310753Y-100400000D01*
X108303812Y-100399610D01*
X108276348Y-100396515D01*
X108262301Y-100394933D01*
X108262297Y-100394933D01*
X108248249Y-100396515D01*
X108220785Y-100399610D01*
X108213845Y-100400000D01*
X107551992Y-100400000D01*
X107484953Y-100380315D01*
X107439198Y-100327511D01*
X107427992Y-100276000D01*
X107427992Y-99849994D01*
X107408147Y-99724698D01*
X107398221Y-99705218D01*
X107350550Y-99611658D01*
X107350546Y-99611654D01*
X107350545Y-99611652D01*
X107260847Y-99521954D01*
X107260844Y-99521952D01*
X107260842Y-99521950D01*
X107147804Y-99464354D01*
X107147803Y-99464353D01*
X107147800Y-99464352D01*
X107044057Y-99447921D01*
X106980922Y-99417992D01*
X106943991Y-99358680D01*
X106944989Y-99288817D01*
X106946390Y-99284562D01*
X106948248Y-99279255D01*
X106964809Y-99132273D01*
X106968445Y-99100002D01*
X106968445Y-99093035D01*
X106970609Y-99093035D01*
X106980854Y-99034464D01*
X107004345Y-99001702D01*
X107162005Y-98844043D01*
X107163472Y-98842625D01*
X107208969Y-98800135D01*
X107230853Y-98764146D01*
X107234414Y-98758914D01*
X107259864Y-98725355D01*
X107265973Y-98709862D01*
X107275376Y-98690931D01*
X107284026Y-98676708D01*
X107295388Y-98636150D01*
X107297403Y-98630159D01*
X107312859Y-98590969D01*
X107314561Y-98574402D01*
X107318506Y-98553644D01*
X107323000Y-98537608D01*
X107323000Y-98495499D01*
X107323325Y-98489155D01*
X107325450Y-98468482D01*
X107327631Y-98447270D01*
X107324802Y-98430863D01*
X107323000Y-98409810D01*
X107323000Y-97348901D01*
X150435033Y-97348901D01*
X150443433Y-97363868D01*
X150445055Y-97372235D01*
X150460605Y-97470410D01*
X150460036Y-97470499D01*
X150460333Y-97471978D01*
X150467853Y-97478801D01*
X150472511Y-97487134D01*
X150508374Y-97557519D01*
X150509994Y-97560699D01*
X150509999Y-97560706D01*
X150589293Y-97640000D01*
X150589296Y-97640002D01*
X150589299Y-97640005D01*
X150689228Y-97690921D01*
X150689230Y-97690922D01*
X150799998Y-97708466D01*
X150800000Y-97708466D01*
X150800002Y-97708466D01*
X150910769Y-97690922D01*
X150910770Y-97690921D01*
X150910772Y-97690921D01*
X151010701Y-97640005D01*
X151090005Y-97560701D01*
X151127485Y-97487141D01*
X151139087Y-97474856D01*
X151139965Y-97470501D01*
X151139395Y-97470411D01*
X151154944Y-97372238D01*
X151164965Y-97351096D01*
X151163733Y-97348901D01*
X160435033Y-97348901D01*
X160443433Y-97363868D01*
X160445055Y-97372235D01*
X160460605Y-97470410D01*
X160460036Y-97470499D01*
X160460333Y-97471978D01*
X160467853Y-97478801D01*
X160472511Y-97487134D01*
X160508374Y-97557519D01*
X160509994Y-97560699D01*
X160509999Y-97560706D01*
X160589293Y-97640000D01*
X160589296Y-97640002D01*
X160589299Y-97640005D01*
X160689228Y-97690921D01*
X160689230Y-97690922D01*
X160799998Y-97708466D01*
X160800000Y-97708466D01*
X160800002Y-97708466D01*
X160910769Y-97690922D01*
X160910770Y-97690921D01*
X160910772Y-97690921D01*
X161010701Y-97640005D01*
X161090005Y-97560701D01*
X161127485Y-97487141D01*
X161139087Y-97474856D01*
X161139965Y-97470501D01*
X161139395Y-97470411D01*
X161154944Y-97372238D01*
X161164965Y-97351096D01*
X161163733Y-97348901D01*
X170435033Y-97348901D01*
X170443433Y-97363868D01*
X170445055Y-97372235D01*
X170460605Y-97470410D01*
X170460036Y-97470499D01*
X170460333Y-97471978D01*
X170467853Y-97478801D01*
X170472511Y-97487134D01*
X170508374Y-97557519D01*
X170509994Y-97560699D01*
X170509999Y-97560706D01*
X170589293Y-97640000D01*
X170589296Y-97640002D01*
X170589299Y-97640005D01*
X170689228Y-97690921D01*
X170689230Y-97690922D01*
X170799998Y-97708466D01*
X170800000Y-97708466D01*
X170800002Y-97708466D01*
X170910769Y-97690922D01*
X170910770Y-97690921D01*
X170910772Y-97690921D01*
X171010701Y-97640005D01*
X171090005Y-97560701D01*
X171127485Y-97487141D01*
X171139087Y-97474856D01*
X171139965Y-97470501D01*
X171139395Y-97470411D01*
X171154944Y-97372238D01*
X171164965Y-97351096D01*
X171163733Y-97348901D01*
X180435033Y-97348901D01*
X180443433Y-97363868D01*
X180445055Y-97372235D01*
X180460605Y-97470410D01*
X180460036Y-97470499D01*
X180460333Y-97471978D01*
X180467853Y-97478801D01*
X180472511Y-97487134D01*
X180508374Y-97557519D01*
X180509994Y-97560699D01*
X180509999Y-97560706D01*
X180589293Y-97640000D01*
X180589296Y-97640002D01*
X180589299Y-97640005D01*
X180689228Y-97690921D01*
X180689230Y-97690922D01*
X180799998Y-97708466D01*
X180800000Y-97708466D01*
X180800002Y-97708466D01*
X180910769Y-97690922D01*
X180910770Y-97690921D01*
X180910772Y-97690921D01*
X181010701Y-97640005D01*
X181090005Y-97560701D01*
X181127485Y-97487141D01*
X181139087Y-97474856D01*
X181139965Y-97470501D01*
X181139395Y-97470411D01*
X181154944Y-97372238D01*
X181164965Y-97351096D01*
X181163733Y-97348901D01*
X190435033Y-97348901D01*
X190443433Y-97363868D01*
X190445055Y-97372235D01*
X190460605Y-97470410D01*
X190460036Y-97470499D01*
X190460333Y-97471978D01*
X190467853Y-97478801D01*
X190472511Y-97487134D01*
X190508374Y-97557519D01*
X190509994Y-97560699D01*
X190509999Y-97560706D01*
X190589293Y-97640000D01*
X190589296Y-97640002D01*
X190589299Y-97640005D01*
X190689228Y-97690921D01*
X190689230Y-97690922D01*
X190799998Y-97708466D01*
X190800000Y-97708466D01*
X190800002Y-97708466D01*
X190910769Y-97690922D01*
X190910770Y-97690921D01*
X190910772Y-97690921D01*
X191010701Y-97640005D01*
X191090005Y-97560701D01*
X191127485Y-97487141D01*
X191139087Y-97474856D01*
X191139965Y-97470501D01*
X191139395Y-97470411D01*
X191154944Y-97372238D01*
X191164965Y-97351096D01*
X191163733Y-97348901D01*
X200435033Y-97348901D01*
X200443433Y-97363868D01*
X200445055Y-97372235D01*
X200460605Y-97470410D01*
X200460036Y-97470499D01*
X200460333Y-97471978D01*
X200467853Y-97478801D01*
X200472511Y-97487134D01*
X200508374Y-97557519D01*
X200509994Y-97560699D01*
X200509999Y-97560706D01*
X200589293Y-97640000D01*
X200589296Y-97640002D01*
X200589299Y-97640005D01*
X200689228Y-97690921D01*
X200689230Y-97690922D01*
X200799998Y-97708466D01*
X200800000Y-97708466D01*
X200800002Y-97708466D01*
X200910769Y-97690922D01*
X200910770Y-97690921D01*
X200910772Y-97690921D01*
X201010701Y-97640005D01*
X201090005Y-97560701D01*
X201127485Y-97487141D01*
X201139087Y-97474856D01*
X201139965Y-97470501D01*
X201139395Y-97470411D01*
X201154944Y-97372238D01*
X201164965Y-97351096D01*
X201163733Y-97348901D01*
X210435033Y-97348901D01*
X210443433Y-97363868D01*
X210445055Y-97372235D01*
X210460605Y-97470410D01*
X210460036Y-97470499D01*
X210460333Y-97471978D01*
X210467853Y-97478801D01*
X210472511Y-97487134D01*
X210508374Y-97557519D01*
X210509994Y-97560699D01*
X210509999Y-97560706D01*
X210589293Y-97640000D01*
X210589296Y-97640002D01*
X210589299Y-97640005D01*
X210689228Y-97690921D01*
X210689230Y-97690922D01*
X210799998Y-97708466D01*
X210800000Y-97708466D01*
X210800002Y-97708466D01*
X210910769Y-97690922D01*
X210910770Y-97690921D01*
X210910772Y-97690921D01*
X211010701Y-97640005D01*
X211090005Y-97560701D01*
X211127485Y-97487141D01*
X211139087Y-97474856D01*
X211139965Y-97470501D01*
X211139395Y-97470411D01*
X211154944Y-97372238D01*
X211164965Y-97351096D01*
X211156565Y-97336128D01*
X211154949Y-97327795D01*
X211140921Y-97239228D01*
X211140920Y-97239227D01*
X211139394Y-97229588D01*
X211139964Y-97229497D01*
X211139666Y-97228017D01*
X211132142Y-97221190D01*
X211127482Y-97212853D01*
X211090005Y-97139299D01*
X211090002Y-97139296D01*
X211090000Y-97139293D01*
X211010706Y-97059999D01*
X211010702Y-97059996D01*
X211010701Y-97059995D01*
X210920876Y-97014227D01*
X210910769Y-97009077D01*
X210800002Y-96991534D01*
X210799998Y-96991534D01*
X210689230Y-97009077D01*
X210589300Y-97059994D01*
X210589293Y-97059999D01*
X210509999Y-97139293D01*
X210509996Y-97139298D01*
X210509995Y-97139299D01*
X210479272Y-97199595D01*
X210472516Y-97212856D01*
X210460913Y-97225140D01*
X210460038Y-97229500D01*
X210460605Y-97229590D01*
X210445055Y-97327762D01*
X210435033Y-97348901D01*
X201163733Y-97348901D01*
X201156565Y-97336128D01*
X201154949Y-97327795D01*
X201140921Y-97239228D01*
X201140920Y-97239227D01*
X201139394Y-97229588D01*
X201139964Y-97229497D01*
X201139666Y-97228017D01*
X201132142Y-97221190D01*
X201127482Y-97212853D01*
X201090005Y-97139299D01*
X201090002Y-97139296D01*
X201090000Y-97139293D01*
X201010706Y-97059999D01*
X201010702Y-97059996D01*
X201010701Y-97059995D01*
X200920876Y-97014227D01*
X200910769Y-97009077D01*
X200800002Y-96991534D01*
X200799998Y-96991534D01*
X200689230Y-97009077D01*
X200589300Y-97059994D01*
X200589293Y-97059999D01*
X200509999Y-97139293D01*
X200509996Y-97139298D01*
X200509995Y-97139299D01*
X200479272Y-97199595D01*
X200472516Y-97212856D01*
X200460913Y-97225140D01*
X200460038Y-97229500D01*
X200460605Y-97229590D01*
X200445055Y-97327762D01*
X200435033Y-97348901D01*
X191163733Y-97348901D01*
X191156565Y-97336128D01*
X191154949Y-97327795D01*
X191140921Y-97239228D01*
X191140920Y-97239227D01*
X191139394Y-97229588D01*
X191139964Y-97229497D01*
X191139666Y-97228017D01*
X191132142Y-97221190D01*
X191127482Y-97212853D01*
X191090005Y-97139299D01*
X191090002Y-97139296D01*
X191090000Y-97139293D01*
X191010706Y-97059999D01*
X191010702Y-97059996D01*
X191010701Y-97059995D01*
X190920876Y-97014227D01*
X190910769Y-97009077D01*
X190800002Y-96991534D01*
X190799998Y-96991534D01*
X190689230Y-97009077D01*
X190589300Y-97059994D01*
X190589293Y-97059999D01*
X190509999Y-97139293D01*
X190509996Y-97139298D01*
X190509995Y-97139299D01*
X190479272Y-97199595D01*
X190472516Y-97212856D01*
X190460913Y-97225140D01*
X190460038Y-97229500D01*
X190460605Y-97229590D01*
X190445055Y-97327762D01*
X190435033Y-97348901D01*
X181163733Y-97348901D01*
X181156565Y-97336128D01*
X181154949Y-97327795D01*
X181140921Y-97239228D01*
X181140920Y-97239227D01*
X181139394Y-97229588D01*
X181139964Y-97229497D01*
X181139666Y-97228017D01*
X181132142Y-97221190D01*
X181127482Y-97212853D01*
X181090005Y-97139299D01*
X181090002Y-97139296D01*
X181090000Y-97139293D01*
X181010706Y-97059999D01*
X181010702Y-97059996D01*
X181010701Y-97059995D01*
X180920876Y-97014227D01*
X180910769Y-97009077D01*
X180800002Y-96991534D01*
X180799998Y-96991534D01*
X180689230Y-97009077D01*
X180589300Y-97059994D01*
X180589293Y-97059999D01*
X180509999Y-97139293D01*
X180509996Y-97139298D01*
X180509995Y-97139299D01*
X180479272Y-97199595D01*
X180472516Y-97212856D01*
X180460913Y-97225140D01*
X180460038Y-97229500D01*
X180460605Y-97229590D01*
X180445055Y-97327762D01*
X180435033Y-97348901D01*
X171163733Y-97348901D01*
X171156565Y-97336128D01*
X171154949Y-97327795D01*
X171140921Y-97239228D01*
X171140920Y-97239227D01*
X171139394Y-97229588D01*
X171139964Y-97229497D01*
X171139666Y-97228017D01*
X171132142Y-97221190D01*
X171127482Y-97212853D01*
X171090005Y-97139299D01*
X171090002Y-97139296D01*
X171090000Y-97139293D01*
X171010706Y-97059999D01*
X171010702Y-97059996D01*
X171010701Y-97059995D01*
X170920876Y-97014227D01*
X170910769Y-97009077D01*
X170800002Y-96991534D01*
X170799998Y-96991534D01*
X170689230Y-97009077D01*
X170589300Y-97059994D01*
X170589293Y-97059999D01*
X170509999Y-97139293D01*
X170509996Y-97139298D01*
X170509995Y-97139299D01*
X170479272Y-97199595D01*
X170472516Y-97212856D01*
X170460913Y-97225140D01*
X170460038Y-97229500D01*
X170460605Y-97229590D01*
X170445055Y-97327762D01*
X170435033Y-97348901D01*
X161163733Y-97348901D01*
X161156565Y-97336128D01*
X161154949Y-97327795D01*
X161140921Y-97239228D01*
X161140920Y-97239227D01*
X161139394Y-97229588D01*
X161139964Y-97229497D01*
X161139666Y-97228017D01*
X161132142Y-97221190D01*
X161127482Y-97212853D01*
X161090005Y-97139299D01*
X161090002Y-97139296D01*
X161090000Y-97139293D01*
X161010706Y-97059999D01*
X161010702Y-97059996D01*
X161010701Y-97059995D01*
X160920876Y-97014227D01*
X160910769Y-97009077D01*
X160800002Y-96991534D01*
X160799998Y-96991534D01*
X160689230Y-97009077D01*
X160589300Y-97059994D01*
X160589293Y-97059999D01*
X160509999Y-97139293D01*
X160509996Y-97139298D01*
X160509995Y-97139299D01*
X160479272Y-97199595D01*
X160472516Y-97212856D01*
X160460913Y-97225140D01*
X160460038Y-97229500D01*
X160460605Y-97229590D01*
X160445055Y-97327762D01*
X160435033Y-97348901D01*
X151163733Y-97348901D01*
X151156565Y-97336128D01*
X151154949Y-97327795D01*
X151140921Y-97239228D01*
X151140920Y-97239227D01*
X151139394Y-97229588D01*
X151139964Y-97229497D01*
X151139666Y-97228017D01*
X151132142Y-97221190D01*
X151127482Y-97212853D01*
X151090005Y-97139299D01*
X151090002Y-97139296D01*
X151090000Y-97139293D01*
X151010706Y-97059999D01*
X151010702Y-97059996D01*
X151010701Y-97059995D01*
X150920876Y-97014227D01*
X150910769Y-97009077D01*
X150800002Y-96991534D01*
X150799998Y-96991534D01*
X150689230Y-97009077D01*
X150589300Y-97059994D01*
X150589293Y-97059999D01*
X150509999Y-97139293D01*
X150509996Y-97139298D01*
X150509995Y-97139299D01*
X150479272Y-97199595D01*
X150472516Y-97212856D01*
X150460913Y-97225140D01*
X150460038Y-97229500D01*
X150460605Y-97229590D01*
X150445055Y-97327762D01*
X150435033Y-97348901D01*
X107323000Y-97348901D01*
X107323000Y-96724000D01*
X107342685Y-96656960D01*
X107395489Y-96611206D01*
X107447000Y-96600000D01*
X120855008Y-96600000D01*
X120922047Y-96619685D01*
G37*
%TD.AperFunction*%
%TD*%
%TA.AperFunction,Conductor*%
%TO.N,GND*%
G36*
X84652703Y-89266847D02*
G01*
X84690477Y-89325625D01*
X84693386Y-89337764D01*
X84706179Y-89406198D01*
X84783202Y-89605019D01*
X84895448Y-89786302D01*
X85003850Y-89905212D01*
X85039093Y-89943872D01*
X85209246Y-90072367D01*
X85400106Y-90167403D01*
X85400108Y-90167403D01*
X85400111Y-90167405D01*
X85605190Y-90225756D01*
X85764306Y-90240500D01*
X85764310Y-90240500D01*
X86870690Y-90240500D01*
X86870694Y-90240500D01*
X87029810Y-90225756D01*
X87234889Y-90167405D01*
X87234893Y-90167403D01*
X87234894Y-90167403D01*
X87425753Y-90072367D01*
X87425753Y-90072366D01*
X87425755Y-90072366D01*
X87595907Y-89943872D01*
X87631151Y-89905212D01*
X87724110Y-89803241D01*
X87783821Y-89766959D01*
X87853669Y-89768720D01*
X87903428Y-89799098D01*
X88710681Y-90606350D01*
X88744166Y-90667673D01*
X88747000Y-90694031D01*
X88747000Y-100850000D01*
X84447500Y-100850000D01*
X84447500Y-94389090D01*
X84467185Y-94322051D01*
X84519989Y-94276296D01*
X84589147Y-94266352D01*
X84652703Y-94295377D01*
X84655470Y-94297849D01*
X84742714Y-94378163D01*
X84742713Y-94378163D01*
X84950893Y-94514173D01*
X85178618Y-94614063D01*
X85357255Y-94659300D01*
X85419679Y-94675108D01*
X85419681Y-94675108D01*
X85419686Y-94675109D01*
X85573089Y-94687819D01*
X85605433Y-94690500D01*
X85605437Y-94690500D01*
X87029563Y-94690500D01*
X87029567Y-94690500D01*
X87092177Y-94685311D01*
X87215313Y-94675109D01*
X87215316Y-94675108D01*
X87215321Y-94675108D01*
X87456381Y-94614063D01*
X87684107Y-94514173D01*
X87892285Y-94378164D01*
X88075238Y-94209744D01*
X88227974Y-94013509D01*
X88346328Y-93794810D01*
X88427071Y-93559614D01*
X88468000Y-93314335D01*
X88468000Y-93065665D01*
X88427071Y-92820386D01*
X88346328Y-92585190D01*
X88227974Y-92366491D01*
X88075238Y-92170256D01*
X87892285Y-92001836D01*
X87892282Y-92001833D01*
X87684106Y-91865826D01*
X87456381Y-91765936D01*
X87215324Y-91704892D01*
X87215313Y-91704890D01*
X87029577Y-91689500D01*
X87029567Y-91689500D01*
X85605433Y-91689500D01*
X85605422Y-91689500D01*
X85419686Y-91704890D01*
X85419675Y-91704892D01*
X85178618Y-91765936D01*
X84950893Y-91865826D01*
X84742717Y-92001833D01*
X84655483Y-92082139D01*
X84592828Y-92113061D01*
X84523402Y-92105201D01*
X84469247Y-92061054D01*
X84447556Y-91994636D01*
X84447500Y-91990909D01*
X84447500Y-89360560D01*
X84467185Y-89293521D01*
X84519989Y-89247766D01*
X84589147Y-89237822D01*
X84652703Y-89266847D01*
G37*
%TD.AperFunction*%
%TA.AperFunction,Conductor*%
G36*
X89450532Y-75100299D02*
G01*
X89511567Y-75106310D01*
X89630441Y-75118018D01*
X89654269Y-75122757D01*
X89818501Y-75172576D01*
X89840953Y-75181877D01*
X89992298Y-75262772D01*
X90012510Y-75276277D01*
X90145166Y-75385145D01*
X90162354Y-75402333D01*
X90271222Y-75534989D01*
X90284727Y-75555201D01*
X90365621Y-75706543D01*
X90374924Y-75729001D01*
X90424740Y-75893224D01*
X90429482Y-75917065D01*
X90447201Y-76096967D01*
X90447500Y-76103048D01*
X90447500Y-77600000D01*
X102326000Y-77600000D01*
X102393039Y-77619685D01*
X102438794Y-77672489D01*
X102450000Y-77724000D01*
X102450000Y-81246559D01*
X102430315Y-81313598D01*
X102377511Y-81359353D01*
X102308353Y-81369297D01*
X102244797Y-81340272D01*
X102238321Y-81334243D01*
X102224262Y-81320184D01*
X102107089Y-81246559D01*
X102071523Y-81224211D01*
X101901254Y-81164631D01*
X101901249Y-81164630D01*
X101722004Y-81144435D01*
X101721996Y-81144435D01*
X101542750Y-81164630D01*
X101542745Y-81164631D01*
X101372476Y-81224211D01*
X101219737Y-81320184D01*
X101092184Y-81447737D01*
X100996211Y-81600476D01*
X100936631Y-81770745D01*
X100936630Y-81770750D01*
X100916435Y-81949996D01*
X100916435Y-81950003D01*
X100936630Y-82129249D01*
X100936631Y-82129254D01*
X100985303Y-82268349D01*
X100988864Y-82338128D01*
X100954135Y-82398756D01*
X100892142Y-82430983D01*
X100882145Y-82432524D01*
X100813880Y-82440215D01*
X100813876Y-82440216D01*
X100643607Y-82499796D01*
X100490868Y-82595769D01*
X100363315Y-82723322D01*
X100267342Y-82876061D01*
X100207762Y-83046330D01*
X100207761Y-83046335D01*
X100187566Y-83225581D01*
X100187566Y-83225588D01*
X100207761Y-83404834D01*
X100207762Y-83404839D01*
X100267342Y-83575108D01*
X100324345Y-83665827D01*
X100363315Y-83727847D01*
X100403638Y-83768170D01*
X100431312Y-83795843D01*
X100464797Y-83857166D01*
X100467631Y-83883525D01*
X100467631Y-84246253D01*
X100467595Y-84248370D01*
X100465471Y-84310555D01*
X100475439Y-84351458D01*
X100476625Y-84357699D01*
X100482359Y-84399414D01*
X100488995Y-84414692D01*
X100495733Y-84434729D01*
X100499673Y-84450898D01*
X100499674Y-84450899D01*
X100520306Y-84487594D01*
X100523131Y-84493282D01*
X100539913Y-84531916D01*
X100550414Y-84544823D01*
X100562314Y-84562306D01*
X100570473Y-84576817D01*
X100600246Y-84606590D01*
X100604503Y-84611307D01*
X100631077Y-84643970D01*
X100644675Y-84653569D01*
X100660846Y-84667190D01*
X105837546Y-89843889D01*
X105871031Y-89905212D01*
X105872568Y-89935275D01*
X105873448Y-89935275D01*
X105873448Y-89942241D01*
X105893643Y-90121487D01*
X105893644Y-90121492D01*
X105953224Y-90291761D01*
X106023520Y-90403635D01*
X106049197Y-90444500D01*
X106176751Y-90572054D01*
X106267093Y-90628820D01*
X106328927Y-90667673D01*
X106329491Y-90668027D01*
X106491442Y-90724696D01*
X106499758Y-90727606D01*
X106499763Y-90727607D01*
X106679009Y-90747803D01*
X106679013Y-90747803D01*
X106679017Y-90747803D01*
X106858262Y-90727607D01*
X106858265Y-90727606D01*
X106858268Y-90727606D01*
X107028535Y-90668027D01*
X107181275Y-90572054D01*
X107308829Y-90444500D01*
X107404802Y-90291760D01*
X107464381Y-90121493D01*
X107466548Y-90102262D01*
X107484578Y-89942241D01*
X107484578Y-89942234D01*
X107477636Y-89880621D01*
X107489691Y-89811799D01*
X107537040Y-89760420D01*
X107600856Y-89742738D01*
X113201371Y-89742738D01*
X113268410Y-89762423D01*
X113314165Y-89815227D01*
X113318413Y-89825784D01*
X113361710Y-89949521D01*
X113457684Y-90102262D01*
X113583695Y-90228273D01*
X113617180Y-90289596D01*
X113612196Y-90359288D01*
X113583695Y-90403635D01*
X112449150Y-91538181D01*
X112387827Y-91571666D01*
X112361469Y-91574500D01*
X106782940Y-91574500D01*
X106715901Y-91554815D01*
X106695259Y-91538181D01*
X106627262Y-91470184D01*
X106474523Y-91374211D01*
X106304254Y-91314631D01*
X106304249Y-91314630D01*
X106125004Y-91294435D01*
X106124996Y-91294435D01*
X105945750Y-91314630D01*
X105945745Y-91314631D01*
X105775476Y-91374211D01*
X105622737Y-91470184D01*
X105495184Y-91597737D01*
X105399211Y-91750476D01*
X105339631Y-91920745D01*
X105339630Y-91920750D01*
X105319435Y-92099996D01*
X105319435Y-92100003D01*
X105339630Y-92279249D01*
X105339631Y-92279254D01*
X105370105Y-92366342D01*
X105399211Y-92449522D01*
X105445165Y-92522658D01*
X105461485Y-92548630D01*
X105480485Y-92615866D01*
X105460118Y-92682702D01*
X105426015Y-92716117D01*
X105426188Y-92716334D01*
X105424075Y-92718019D01*
X105422471Y-92719591D01*
X105420742Y-92720677D01*
X105420739Y-92720679D01*
X105403238Y-92738181D01*
X105341915Y-92771666D01*
X105315557Y-92774500D01*
X94005440Y-92774500D01*
X93938401Y-92754815D01*
X93917759Y-92738181D01*
X93856012Y-92676434D01*
X93703273Y-92580461D01*
X93533004Y-92520881D01*
X93532999Y-92520880D01*
X93353754Y-92500685D01*
X93353746Y-92500685D01*
X93174500Y-92520880D01*
X93174495Y-92520881D01*
X93004226Y-92580461D01*
X92851487Y-92676434D01*
X92723934Y-92803987D01*
X92627961Y-92956726D01*
X92568381Y-93126995D01*
X92568380Y-93127000D01*
X92548185Y-93306246D01*
X92548185Y-93306253D01*
X92568380Y-93485499D01*
X92568381Y-93485504D01*
X92627961Y-93655773D01*
X92671249Y-93724665D01*
X92723934Y-93808512D01*
X92851488Y-93936066D01*
X92921905Y-93980312D01*
X92974737Y-94013509D01*
X93004228Y-94032039D01*
X93130676Y-94076285D01*
X93174495Y-94091618D01*
X93174500Y-94091619D01*
X93353746Y-94111815D01*
X93353750Y-94111815D01*
X93353754Y-94111815D01*
X93532999Y-94091619D01*
X93533002Y-94091618D01*
X93533005Y-94091618D01*
X93703272Y-94032039D01*
X93856012Y-93936066D01*
X93930259Y-93861819D01*
X93991582Y-93828334D01*
X94017940Y-93825500D01*
X105214563Y-93825500D01*
X105281602Y-93845185D01*
X105302244Y-93861819D01*
X105420738Y-93980313D01*
X105473569Y-94013509D01*
X105514629Y-94039309D01*
X105573478Y-94076286D01*
X105675014Y-94111815D01*
X105743745Y-94135865D01*
X105743750Y-94135866D01*
X105922996Y-94156062D01*
X105923000Y-94156062D01*
X105923004Y-94156062D01*
X106102249Y-94135866D01*
X106102250Y-94135865D01*
X106102255Y-94135865D01*
X106107036Y-94134191D01*
X106176811Y-94130623D01*
X106237442Y-94165346D01*
X106269675Y-94227336D01*
X106271999Y-94251229D01*
X106272000Y-96070500D01*
X106252315Y-96137539D01*
X106199512Y-96183294D01*
X106148000Y-96194500D01*
X104744923Y-96194500D01*
X104731679Y-96194933D01*
X104710352Y-96196329D01*
X104697145Y-96197629D01*
X104697127Y-96197631D01*
X104568182Y-96214608D01*
X104542139Y-96219788D01*
X104542128Y-96219791D01*
X104485232Y-96235037D01*
X104460090Y-96243572D01*
X104392688Y-96271490D01*
X104327830Y-96305510D01*
X104290388Y-96329696D01*
X104290379Y-96329702D01*
X104262992Y-96350505D01*
X104241266Y-96367008D01*
X104160712Y-96465013D01*
X104160711Y-96465015D01*
X104125335Y-96525266D01*
X104093220Y-96600726D01*
X104089376Y-96609760D01*
X104084629Y-96620913D01*
X104069847Y-96746913D01*
X104069661Y-96751789D01*
X104068234Y-96751734D01*
X104052815Y-96813296D01*
X104001891Y-96861134D01*
X103945891Y-96874500D01*
X102331999Y-96874500D01*
X102264960Y-96854815D01*
X102219205Y-96802011D01*
X102207999Y-96750500D01*
X102207999Y-96628482D01*
X102205033Y-96609754D01*
X102193146Y-96534696D01*
X102135550Y-96421658D01*
X102135546Y-96421654D01*
X102135545Y-96421652D01*
X102045847Y-96331954D01*
X102045844Y-96331952D01*
X102045842Y-96331950D01*
X101965839Y-96291186D01*
X101932801Y-96274352D01*
X101839024Y-96259500D01*
X100275982Y-96259500D01*
X100200280Y-96271490D01*
X100182196Y-96274354D01*
X100069158Y-96331950D01*
X100069157Y-96331950D01*
X100069157Y-96331951D01*
X100069152Y-96331954D01*
X99979454Y-96421652D01*
X99979451Y-96421657D01*
X99979450Y-96421658D01*
X99969905Y-96440391D01*
X99921852Y-96534698D01*
X99907000Y-96628475D01*
X99907000Y-98191517D01*
X99917792Y-98259657D01*
X99921854Y-98285304D01*
X99979450Y-98398342D01*
X99979452Y-98398344D01*
X99979454Y-98398347D01*
X100069152Y-98488045D01*
X100069154Y-98488046D01*
X100069158Y-98488050D01*
X100182194Y-98545645D01*
X100182198Y-98545647D01*
X100275975Y-98560499D01*
X100275981Y-98560500D01*
X101839018Y-98560499D01*
X101932804Y-98545646D01*
X102019205Y-98501621D01*
X102087874Y-98488725D01*
X102152614Y-98515001D01*
X102192872Y-98572107D01*
X102199500Y-98612106D01*
X102199500Y-99431517D01*
X102207562Y-99482419D01*
X102214354Y-99525304D01*
X102271950Y-99638342D01*
X102271952Y-99638344D01*
X102271954Y-99638347D01*
X102361652Y-99728045D01*
X102361654Y-99728046D01*
X102361658Y-99728050D01*
X102474696Y-99785646D01*
X102474697Y-99785646D01*
X102474699Y-99785647D01*
X102547907Y-99797242D01*
X102611042Y-99827171D01*
X102647974Y-99886482D01*
X102646976Y-99956345D01*
X102633505Y-99985685D01*
X102624211Y-100000475D01*
X102564631Y-100170745D01*
X102564630Y-100170750D01*
X102544435Y-100349996D01*
X102544435Y-100350003D01*
X102564630Y-100529249D01*
X102564631Y-100529254D01*
X102624211Y-100699523D01*
X102689229Y-100802998D01*
X102718763Y-100850000D01*
X90132078Y-100850000D01*
X90052262Y-100770184D01*
X90043951Y-100764962D01*
X89899524Y-100674212D01*
X89899525Y-100674212D01*
X89894615Y-100672494D01*
X89881042Y-100667744D01*
X89824268Y-100627022D01*
X89798522Y-100562068D01*
X89798000Y-100550704D01*
X89798000Y-99674499D01*
X89817685Y-99607460D01*
X89870489Y-99561705D01*
X89922000Y-99550499D01*
X91329017Y-99550499D01*
X91329018Y-99550499D01*
X91422804Y-99535646D01*
X91535842Y-99478050D01*
X91625550Y-99388342D01*
X91683146Y-99275304D01*
X91683146Y-99275302D01*
X91683147Y-99275301D01*
X91693832Y-99207834D01*
X91698000Y-99181519D01*
X91697999Y-97618482D01*
X91683146Y-97524696D01*
X91625550Y-97411658D01*
X91625546Y-97411654D01*
X91625545Y-97411652D01*
X91535847Y-97321954D01*
X91535844Y-97321952D01*
X91535842Y-97321950D01*
X91459017Y-97282805D01*
X91422801Y-97264352D01*
X91329024Y-97249500D01*
X91329019Y-97249500D01*
X90565198Y-97249500D01*
X90498159Y-97229815D01*
X90452404Y-97177011D01*
X90441198Y-97125500D01*
X90441198Y-93192814D01*
X90460883Y-93125775D01*
X90513687Y-93080020D01*
X90582845Y-93070076D01*
X90646401Y-93099101D01*
X90652868Y-93105123D01*
X90659177Y-93111432D01*
X90659178Y-93111433D01*
X90799370Y-93199522D01*
X90811918Y-93207406D01*
X90963086Y-93260302D01*
X90982185Y-93266985D01*
X90982190Y-93266986D01*
X91161436Y-93287182D01*
X91161440Y-93287182D01*
X91161444Y-93287182D01*
X91340689Y-93266986D01*
X91340692Y-93266985D01*
X91340695Y-93266985D01*
X91510962Y-93207406D01*
X91663702Y-93111433D01*
X91791256Y-92983879D01*
X91887229Y-92831139D01*
X91946808Y-92660872D01*
X91951728Y-92617198D01*
X91978792Y-92552787D01*
X91987257Y-92543411D01*
X96007019Y-88523649D01*
X96008457Y-88522258D01*
X96053969Y-88479755D01*
X96075855Y-88443763D01*
X96079409Y-88438542D01*
X96104865Y-88404975D01*
X96110976Y-88389477D01*
X96120378Y-88370547D01*
X96129026Y-88356328D01*
X96140383Y-88315791D01*
X96142401Y-88309787D01*
X96157860Y-88270589D01*
X96159563Y-88254016D01*
X96163509Y-88233253D01*
X96168000Y-88217228D01*
X96167999Y-88175131D01*
X96168324Y-88168787D01*
X96169590Y-88156475D01*
X96172632Y-88126890D01*
X96169803Y-88110481D01*
X96168000Y-88089413D01*
X96168000Y-86930440D01*
X96187685Y-86863401D01*
X96204319Y-86842759D01*
X96214319Y-86832759D01*
X96277316Y-86769762D01*
X96373289Y-86617022D01*
X96432868Y-86446755D01*
X96433860Y-86437955D01*
X96453065Y-86267503D01*
X96453065Y-86267496D01*
X96432869Y-86088250D01*
X96432868Y-86088245D01*
X96373288Y-85917976D01*
X96277315Y-85765237D01*
X96149762Y-85637684D01*
X95997023Y-85541711D01*
X95826754Y-85482131D01*
X95826749Y-85482130D01*
X95647504Y-85461935D01*
X95647496Y-85461935D01*
X95468250Y-85482130D01*
X95468245Y-85482131D01*
X95297976Y-85541711D01*
X95145237Y-85637684D01*
X95017684Y-85765237D01*
X94921711Y-85917976D01*
X94862131Y-86088245D01*
X94862130Y-86088250D01*
X94841935Y-86267496D01*
X94841935Y-86267503D01*
X94862130Y-86446749D01*
X94862131Y-86446754D01*
X94921711Y-86617023D01*
X95017684Y-86769762D01*
X95080681Y-86832759D01*
X95114166Y-86894082D01*
X95117000Y-86920440D01*
X95117000Y-87875968D01*
X95097315Y-87943007D01*
X95080681Y-87963649D01*
X91389558Y-91654771D01*
X91328235Y-91688256D01*
X91287994Y-91690310D01*
X91161444Y-91676052D01*
X91161436Y-91676052D01*
X90982190Y-91696247D01*
X90982185Y-91696248D01*
X90811916Y-91755828D01*
X90659177Y-91851801D01*
X90652879Y-91858100D01*
X90591556Y-91891585D01*
X90521864Y-91886601D01*
X90465931Y-91844729D01*
X90441514Y-91779265D01*
X90441198Y-91770419D01*
X90441198Y-90190748D01*
X90441234Y-90188631D01*
X90441959Y-90167403D01*
X90443358Y-90126453D01*
X90433389Y-90085546D01*
X90432204Y-90079316D01*
X90426469Y-90037587D01*
X90419835Y-90022314D01*
X90413095Y-90002272D01*
X90409155Y-89986105D01*
X90409153Y-89986101D01*
X90388520Y-89949404D01*
X90385694Y-89943715D01*
X90385052Y-89942238D01*
X90368917Y-89905089D01*
X90358411Y-89892175D01*
X90346510Y-89874688D01*
X90338358Y-89860189D01*
X90338356Y-89860186D01*
X90308580Y-89830410D01*
X90304324Y-89825694D01*
X90293019Y-89811799D01*
X90277752Y-89793033D01*
X90277748Y-89793030D01*
X90277743Y-89793026D01*
X90264151Y-89783431D01*
X90247979Y-89769809D01*
X88004318Y-87526148D01*
X87970833Y-87464825D01*
X87967999Y-87438467D01*
X87967999Y-86308482D01*
X87961509Y-86267503D01*
X87953146Y-86214696D01*
X87953145Y-86214694D01*
X87951619Y-86205057D01*
X87954170Y-86204652D01*
X87952579Y-86149292D01*
X87988527Y-86089566D01*
X88075238Y-86009744D01*
X88227974Y-85813509D01*
X88346328Y-85594810D01*
X88427071Y-85359614D01*
X88468000Y-85114335D01*
X88468000Y-84865665D01*
X88427071Y-84620386D01*
X88346328Y-84385190D01*
X88227974Y-84166491D01*
X88075238Y-83970256D01*
X87892285Y-83801836D01*
X87892282Y-83801833D01*
X87684106Y-83665826D01*
X87456377Y-83565935D01*
X87447500Y-83563686D01*
X87447500Y-79182870D01*
X87459921Y-79140567D01*
X87458153Y-79137203D01*
X87683580Y-79137203D01*
X87690477Y-79147935D01*
X87695028Y-79172063D01*
X87711293Y-79357975D01*
X87711293Y-79357979D01*
X87767922Y-79569322D01*
X87767924Y-79569326D01*
X87767925Y-79569330D01*
X87814161Y-79668484D01*
X87860397Y-79767638D01*
X87860398Y-79767639D01*
X87985902Y-79946877D01*
X88140623Y-80101598D01*
X88319861Y-80227102D01*
X88518170Y-80319575D01*
X88729523Y-80376207D01*
X88912426Y-80392208D01*
X88947498Y-80395277D01*
X88947500Y-80395277D01*
X88947502Y-80395277D01*
X88975754Y-80392805D01*
X89165477Y-80376207D01*
X89376830Y-80319575D01*
X89575139Y-80227102D01*
X89754377Y-80101598D01*
X89909098Y-79946877D01*
X90034602Y-79767639D01*
X90127075Y-79569330D01*
X90183707Y-79357977D01*
X90202083Y-79147935D01*
X90202777Y-79140002D01*
X90202777Y-79139997D01*
X90199026Y-79097129D01*
X90183707Y-78922023D01*
X90127075Y-78710670D01*
X90034602Y-78512362D01*
X90034600Y-78512359D01*
X90034599Y-78512357D01*
X89909099Y-78333124D01*
X89909096Y-78333121D01*
X89754377Y-78178402D01*
X89575139Y-78052898D01*
X89575140Y-78052898D01*
X89575138Y-78052897D01*
X89475984Y-78006661D01*
X89376830Y-77960425D01*
X89376826Y-77960424D01*
X89376822Y-77960422D01*
X89165477Y-77903793D01*
X88947502Y-77884723D01*
X88947498Y-77884723D01*
X88802182Y-77897436D01*
X88729523Y-77903793D01*
X88729520Y-77903793D01*
X88518177Y-77960422D01*
X88518168Y-77960426D01*
X88319861Y-78052898D01*
X88319857Y-78052900D01*
X88140621Y-78178402D01*
X87985902Y-78333121D01*
X87860400Y-78512357D01*
X87860398Y-78512361D01*
X87767926Y-78710668D01*
X87767922Y-78710677D01*
X87711293Y-78922020D01*
X87711293Y-78922024D01*
X87695028Y-79107936D01*
X87683580Y-79137203D01*
X87458153Y-79137203D01*
X87449931Y-79121561D01*
X87447500Y-79097129D01*
X87447500Y-76103048D01*
X87447799Y-76096967D01*
X87453324Y-76040867D01*
X87465518Y-75917056D01*
X87470257Y-75893232D01*
X87520077Y-75728994D01*
X87529375Y-75706549D01*
X87610275Y-75555195D01*
X87623772Y-75534995D01*
X87732649Y-75402328D01*
X87749828Y-75385149D01*
X87882495Y-75276272D01*
X87902695Y-75262775D01*
X88054049Y-75181875D01*
X88076494Y-75172577D01*
X88240732Y-75122757D01*
X88264556Y-75118018D01*
X88379001Y-75106746D01*
X88444469Y-75100299D01*
X88450549Y-75100000D01*
X89444451Y-75100000D01*
X89450532Y-75100299D01*
G37*
%TD.AperFunction*%
%TA.AperFunction,Conductor*%
G36*
X104086341Y-100848249D02*
G01*
X104088680Y-100850000D01*
X104004315Y-100850000D01*
X104016649Y-100843265D01*
X104086341Y-100848249D01*
G37*
%TD.AperFunction*%
%TA.AperFunction,Conductor*%
G36*
X124366834Y-90157573D02*
G01*
X124422767Y-90199445D01*
X124447184Y-90264909D01*
X124447500Y-90273755D01*
X124447500Y-96074139D01*
X124427815Y-96141178D01*
X124375011Y-96186933D01*
X124336757Y-96197428D01*
X124277793Y-96203767D01*
X124226285Y-96214973D01*
X124226282Y-96214974D01*
X124154632Y-96237690D01*
X124154630Y-96237691D01*
X124154629Y-96237691D01*
X124046932Y-96304751D01*
X124046932Y-96304752D01*
X123994137Y-96350498D01*
X123924948Y-96428079D01*
X123870603Y-96542712D01*
X123850918Y-96609752D01*
X123850916Y-96609760D01*
X123834492Y-96723998D01*
X123834492Y-96775992D01*
X123814807Y-96843031D01*
X123762003Y-96888786D01*
X123710492Y-96899992D01*
X123048050Y-96899992D01*
X122981011Y-96880307D01*
X122935256Y-96827503D01*
X122924894Y-96790434D01*
X122924883Y-96790342D01*
X122871890Y-96675073D01*
X122655510Y-96350505D01*
X122567694Y-96218781D01*
X122546887Y-96152084D01*
X122565442Y-96084723D01*
X122567695Y-96081217D01*
X122871885Y-95624934D01*
X122871886Y-95624931D01*
X122871890Y-95624926D01*
X122920146Y-95525304D01*
X122939203Y-95404982D01*
X122939992Y-95400002D01*
X122939992Y-95399996D01*
X122920147Y-95274699D01*
X122920147Y-95274698D01*
X122920146Y-95274696D01*
X122862550Y-95161658D01*
X122862546Y-95161654D01*
X122862545Y-95161652D01*
X122805906Y-95105013D01*
X122772421Y-95043690D01*
X122777405Y-94973998D01*
X122809509Y-94926190D01*
X122852677Y-94886371D01*
X122914782Y-94775746D01*
X122939663Y-94651343D01*
X122924883Y-94525341D01*
X122871890Y-94410074D01*
X122871890Y-94410073D01*
X122659586Y-94091618D01*
X122567694Y-93953781D01*
X122546887Y-93887084D01*
X122565442Y-93819723D01*
X122567695Y-93816217D01*
X122581967Y-93794810D01*
X122871890Y-93359926D01*
X122920146Y-93260304D01*
X122930835Y-93192814D01*
X122939992Y-93135002D01*
X122939992Y-93134996D01*
X122920147Y-93009699D01*
X122920147Y-93009698D01*
X122908728Y-92987287D01*
X122862550Y-92896658D01*
X122862546Y-92896654D01*
X122862545Y-92896652D01*
X122795503Y-92829610D01*
X122762018Y-92768287D01*
X122767002Y-92698595D01*
X122799107Y-92650786D01*
X122852677Y-92601371D01*
X122914782Y-92490746D01*
X122939663Y-92366343D01*
X122924883Y-92240341D01*
X122898386Y-92182707D01*
X122871890Y-92125073D01*
X122632464Y-91765936D01*
X122567694Y-91668781D01*
X122546887Y-91602084D01*
X122565442Y-91534723D01*
X122567695Y-91531217D01*
X122871885Y-91074934D01*
X122871886Y-91074931D01*
X122871890Y-91074926D01*
X122920146Y-90975304D01*
X122939992Y-90850000D01*
X122939992Y-90849996D01*
X122920147Y-90724699D01*
X122920147Y-90724698D01*
X122904521Y-90694031D01*
X122862550Y-90611658D01*
X122862546Y-90611654D01*
X122862545Y-90611652D01*
X122772847Y-90521954D01*
X122772843Y-90521951D01*
X122772842Y-90521950D01*
X122772840Y-90521949D01*
X122764950Y-90516217D01*
X122766071Y-90514673D01*
X122724071Y-90475003D01*
X122707280Y-90407181D01*
X122729822Y-90341047D01*
X122784539Y-90297599D01*
X122831162Y-90288499D01*
X123999018Y-90288499D01*
X124092804Y-90273646D01*
X124205842Y-90216050D01*
X124205847Y-90216045D01*
X124235819Y-90186074D01*
X124297142Y-90152589D01*
X124366834Y-90157573D01*
G37*
%TD.AperFunction*%
%TA.AperFunction,Conductor*%
G36*
X119245562Y-86330619D02*
G01*
X119301495Y-86372491D01*
X119325912Y-86437955D01*
X119325756Y-86457607D01*
X119322223Y-86497996D01*
X119322223Y-86498002D01*
X119341293Y-86715975D01*
X119341293Y-86715979D01*
X119397922Y-86927322D01*
X119397924Y-86927326D01*
X119397925Y-86927330D01*
X119444161Y-87026484D01*
X119490397Y-87125638D01*
X119490398Y-87125639D01*
X119615902Y-87304877D01*
X119770623Y-87459598D01*
X119949861Y-87585101D01*
X119949861Y-87585102D01*
X120101083Y-87655618D01*
X120153522Y-87701790D01*
X120172674Y-87768984D01*
X120152458Y-87835865D01*
X120101083Y-87880382D01*
X119949861Y-87950898D01*
X119949857Y-87950900D01*
X119770621Y-88076402D01*
X119615902Y-88231121D01*
X119490400Y-88410357D01*
X119490398Y-88410361D01*
X119397926Y-88608668D01*
X119397922Y-88608677D01*
X119341293Y-88820020D01*
X119341293Y-88820024D01*
X119322223Y-89037997D01*
X119322223Y-89038002D01*
X119341293Y-89255975D01*
X119341293Y-89255979D01*
X119397922Y-89467322D01*
X119397924Y-89467326D01*
X119397925Y-89467330D01*
X119444161Y-89566484D01*
X119490397Y-89665638D01*
X119515498Y-89701486D01*
X119615902Y-89844877D01*
X119770623Y-89999598D01*
X119949861Y-90125102D01*
X120148170Y-90217575D01*
X120359523Y-90274207D01*
X120535425Y-90289596D01*
X120577498Y-90293277D01*
X120577500Y-90293277D01*
X120577502Y-90293277D01*
X120605754Y-90290805D01*
X120795477Y-90274207D01*
X121006830Y-90217575D01*
X121205139Y-90125102D01*
X121384377Y-89999598D01*
X121539098Y-89844877D01*
X121641428Y-89698734D01*
X121696002Y-89655112D01*
X121765500Y-89647918D01*
X121827855Y-89679441D01*
X121863269Y-89739670D01*
X121867000Y-89769859D01*
X121867000Y-89919517D01*
X121877546Y-89986101D01*
X121881854Y-90013304D01*
X121939450Y-90126342D01*
X121939452Y-90126344D01*
X121939454Y-90126347D01*
X122029156Y-90216049D01*
X122034853Y-90220188D01*
X122077521Y-90275516D01*
X122083502Y-90345130D01*
X122050898Y-90406926D01*
X121990060Y-90441285D01*
X121961971Y-90444508D01*
X121384495Y-90444508D01*
X121259198Y-90464352D01*
X121183837Y-90502751D01*
X121146158Y-90521950D01*
X121146157Y-90521950D01*
X121146157Y-90521951D01*
X121146152Y-90521954D01*
X121056454Y-90611652D01*
X121056451Y-90611657D01*
X120998852Y-90724698D01*
X120979007Y-90849994D01*
X120979007Y-91981960D01*
X120959322Y-92049000D01*
X120942687Y-92069641D01*
X120329629Y-92682702D01*
X120144150Y-92868181D01*
X120082827Y-92901666D01*
X120056469Y-92904500D01*
X114469552Y-92904500D01*
X114467435Y-92904464D01*
X114433463Y-92903303D01*
X114405255Y-92902340D01*
X114405254Y-92902340D01*
X114405251Y-92902340D01*
X114371667Y-92910524D01*
X114364347Y-92912308D01*
X114358110Y-92913494D01*
X114316387Y-92919229D01*
X114301112Y-92925863D01*
X114281088Y-92932597D01*
X114264908Y-92936541D01*
X114264903Y-92936543D01*
X114228205Y-92957177D01*
X114222516Y-92960003D01*
X114183890Y-92976781D01*
X114170977Y-92987287D01*
X114153504Y-92999180D01*
X114138986Y-93007343D01*
X114123797Y-93022532D01*
X114062472Y-93056014D01*
X114032463Y-93057545D01*
X114032463Y-93058435D01*
X114025496Y-93058435D01*
X113846250Y-93078630D01*
X113846245Y-93078631D01*
X113675976Y-93138211D01*
X113584285Y-93195825D01*
X113517048Y-93214825D01*
X113452341Y-93195825D01*
X113354370Y-93134265D01*
X113184101Y-93074685D01*
X113184096Y-93074684D01*
X113004851Y-93054489D01*
X113004843Y-93054489D01*
X112825597Y-93074684D01*
X112825592Y-93074685D01*
X112655321Y-93134266D01*
X112558518Y-93195091D01*
X112491281Y-93214091D01*
X112426575Y-93195091D01*
X112329772Y-93134265D01*
X112159503Y-93074685D01*
X112159498Y-93074684D01*
X111980253Y-93054489D01*
X111980245Y-93054489D01*
X111800999Y-93074684D01*
X111800994Y-93074685D01*
X111630725Y-93134265D01*
X111477986Y-93230238D01*
X111350433Y-93357791D01*
X111254460Y-93510530D01*
X111194880Y-93680799D01*
X111194879Y-93680804D01*
X111174684Y-93860050D01*
X111174684Y-93860057D01*
X111194879Y-94039303D01*
X111194880Y-94039308D01*
X111254460Y-94209577D01*
X111296383Y-94276296D01*
X111350433Y-94362316D01*
X111477987Y-94489870D01*
X111630727Y-94585843D01*
X111800993Y-94645422D01*
X111800994Y-94645422D01*
X111800999Y-94645423D01*
X111980246Y-94665619D01*
X111987214Y-94665619D01*
X111987213Y-94667784D01*
X112045776Y-94678025D01*
X112078550Y-94701525D01*
X112780515Y-95403489D01*
X112781958Y-95404982D01*
X112824438Y-95450468D01*
X112824440Y-95450469D01*
X112860417Y-95472346D01*
X112865661Y-95475915D01*
X112899220Y-95501364D01*
X112914707Y-95507471D01*
X112933647Y-95516878D01*
X112947864Y-95525524D01*
X112947867Y-95525526D01*
X112972604Y-95532457D01*
X112988413Y-95536887D01*
X112994430Y-95538910D01*
X113033605Y-95554359D01*
X113050172Y-95556061D01*
X113070936Y-95560008D01*
X113086967Y-95564500D01*
X113129074Y-95564500D01*
X113135415Y-95564824D01*
X113177304Y-95569131D01*
X113193708Y-95566302D01*
X113214774Y-95564500D01*
X114881448Y-95564500D01*
X114883565Y-95564536D01*
X114892350Y-95564835D01*
X114945745Y-95566660D01*
X114986669Y-95556686D01*
X114992868Y-95555507D01*
X115034611Y-95549771D01*
X115049886Y-95543135D01*
X115069921Y-95536397D01*
X115086094Y-95532457D01*
X115122816Y-95511808D01*
X115128455Y-95509007D01*
X115167109Y-95492219D01*
X115180028Y-95481707D01*
X115197497Y-95469818D01*
X115212012Y-95461658D01*
X115241801Y-95431866D01*
X115246493Y-95427632D01*
X115279165Y-95401054D01*
X115288764Y-95387453D01*
X115302382Y-95371286D01*
X115781849Y-94891819D01*
X115843173Y-94858334D01*
X115869531Y-94855500D01*
X120040468Y-94855500D01*
X120107507Y-94875185D01*
X120128149Y-94891819D01*
X120942688Y-95706358D01*
X120976173Y-95767681D01*
X120979007Y-95794039D01*
X120979008Y-96070500D01*
X120959324Y-96137539D01*
X120906520Y-96183294D01*
X120855008Y-96194500D01*
X107447000Y-96194500D01*
X107379961Y-96174815D01*
X107334206Y-96122011D01*
X107323000Y-96070500D01*
X107323000Y-93724665D01*
X107342685Y-93657626D01*
X107395489Y-93611871D01*
X107406046Y-93607623D01*
X107429397Y-93599451D01*
X107497022Y-93575789D01*
X107649762Y-93479816D01*
X107777316Y-93352262D01*
X107873289Y-93199522D01*
X107932868Y-93029255D01*
X107932869Y-93029249D01*
X107953065Y-92850003D01*
X107953065Y-92849997D01*
X107943306Y-92763384D01*
X107955360Y-92694562D01*
X108002709Y-92643182D01*
X108066526Y-92625500D01*
X112620448Y-92625500D01*
X112622565Y-92625536D01*
X112631350Y-92625835D01*
X112684745Y-92627660D01*
X112725669Y-92617686D01*
X112731868Y-92616507D01*
X112773611Y-92610771D01*
X112788886Y-92604135D01*
X112808921Y-92597397D01*
X112825094Y-92593457D01*
X112861816Y-92572808D01*
X112867455Y-92570007D01*
X112906109Y-92553219D01*
X112919028Y-92542707D01*
X112936497Y-92530818D01*
X112951012Y-92522658D01*
X112980798Y-92492870D01*
X112985499Y-92488628D01*
X113018165Y-92462054D01*
X113027764Y-92448453D01*
X113041381Y-92432287D01*
X119114549Y-86359118D01*
X119175870Y-86325635D01*
X119245562Y-86330619D01*
G37*
%TD.AperFunction*%
%TA.AperFunction,Conductor*%
G36*
X118855008Y-84919685D02*
G01*
X118900763Y-84972489D01*
X118910707Y-85041647D01*
X118881682Y-85105203D01*
X118875650Y-85111681D01*
X114891135Y-89096195D01*
X114829812Y-89129680D01*
X114760120Y-89124696D01*
X114715773Y-89096195D01*
X114589762Y-88970184D01*
X114437023Y-88874211D01*
X114266754Y-88814631D01*
X114266749Y-88814630D01*
X114087504Y-88794435D01*
X114087498Y-88794435D01*
X114075299Y-88795809D01*
X114006478Y-88783751D01*
X113986496Y-88771392D01*
X113964714Y-88754874D01*
X113956144Y-88751494D01*
X113949223Y-88748765D01*
X113930291Y-88739362D01*
X113916067Y-88730712D01*
X113875523Y-88719351D01*
X113869504Y-88717327D01*
X113835763Y-88704022D01*
X113830327Y-88701879D01*
X113830323Y-88701878D01*
X113830321Y-88701878D01*
X113813760Y-88700175D01*
X113792993Y-88696228D01*
X113776969Y-88691738D01*
X113776966Y-88691738D01*
X113734858Y-88691738D01*
X113728516Y-88691413D01*
X113710591Y-88689570D01*
X113686630Y-88687107D01*
X113686626Y-88687107D01*
X113677314Y-88688712D01*
X113670223Y-88689935D01*
X113649158Y-88691738D01*
X106859491Y-88691738D01*
X106792452Y-88672053D01*
X106771810Y-88655419D01*
X103228072Y-85111681D01*
X103194587Y-85050358D01*
X103199571Y-84980666D01*
X103241443Y-84924733D01*
X103306907Y-84900316D01*
X103315753Y-84900000D01*
X104200000Y-84900000D01*
X117400000Y-84900000D01*
X118787969Y-84900000D01*
X118855008Y-84919685D01*
G37*
%TD.AperFunction*%
%TA.AperFunction,Conductor*%
G36*
X121915365Y-84383041D02*
G01*
X121959881Y-84434414D01*
X122030398Y-84585639D01*
X122155902Y-84764877D01*
X122310623Y-84919598D01*
X122489861Y-85045102D01*
X122688170Y-85137575D01*
X122899523Y-85194207D01*
X123082426Y-85210208D01*
X123117498Y-85213277D01*
X123117500Y-85213277D01*
X123117502Y-85213277D01*
X123145754Y-85210805D01*
X123335477Y-85194207D01*
X123546830Y-85137575D01*
X123745139Y-85045102D01*
X123924377Y-84919598D01*
X124079098Y-84764877D01*
X124204602Y-84585639D01*
X124211118Y-84571664D01*
X124257289Y-84519226D01*
X124324482Y-84500073D01*
X124391363Y-84520288D01*
X124436699Y-84573452D01*
X124447500Y-84624069D01*
X124447500Y-87802245D01*
X124427815Y-87869284D01*
X124375011Y-87915039D01*
X124305853Y-87924983D01*
X124242297Y-87895958D01*
X124235819Y-87889926D01*
X124205847Y-87859954D01*
X124205844Y-87859952D01*
X124205842Y-87859950D01*
X124129017Y-87820805D01*
X124092801Y-87802352D01*
X123999024Y-87787500D01*
X122235982Y-87787500D01*
X122155019Y-87800323D01*
X122142196Y-87802354D01*
X122029158Y-87859950D01*
X122029157Y-87859950D01*
X122029157Y-87859951D01*
X122029152Y-87859954D01*
X121939454Y-87949652D01*
X121939451Y-87949657D01*
X121939450Y-87949658D01*
X121931478Y-87965304D01*
X121881852Y-88062698D01*
X121867000Y-88156475D01*
X121867000Y-88306138D01*
X121847315Y-88373177D01*
X121794511Y-88418932D01*
X121725353Y-88428876D01*
X121661797Y-88399851D01*
X121641425Y-88377261D01*
X121539099Y-88231124D01*
X121464450Y-88156475D01*
X121384377Y-88076402D01*
X121205139Y-87950898D01*
X121053914Y-87880381D01*
X121001477Y-87834210D01*
X120982325Y-87767016D01*
X121002541Y-87700135D01*
X121053914Y-87655618D01*
X121205139Y-87585102D01*
X121384377Y-87459598D01*
X121539098Y-87304877D01*
X121664602Y-87125639D01*
X121757075Y-86927330D01*
X121813707Y-86715977D01*
X121832777Y-86498000D01*
X121813707Y-86280023D01*
X121762673Y-86089563D01*
X121757077Y-86068677D01*
X121757076Y-86068676D01*
X121757075Y-86068670D01*
X121664602Y-85870362D01*
X121664600Y-85870359D01*
X121664599Y-85870357D01*
X121539099Y-85691124D01*
X121485659Y-85637684D01*
X121384377Y-85536402D01*
X121205139Y-85410898D01*
X121205140Y-85410898D01*
X121205138Y-85410897D01*
X121053916Y-85340381D01*
X121001477Y-85294208D01*
X120982325Y-85227015D01*
X121002541Y-85160134D01*
X121053914Y-85115619D01*
X121205139Y-85045102D01*
X121384377Y-84919598D01*
X121539098Y-84764877D01*
X121664602Y-84585639D01*
X121735118Y-84434414D01*
X121781290Y-84381977D01*
X121848484Y-84362825D01*
X121915365Y-84383041D01*
G37*
%TD.AperFunction*%
%TA.AperFunction,Conductor*%
G36*
X123450532Y-77600299D02*
G01*
X123511567Y-77606310D01*
X123630441Y-77618018D01*
X123654269Y-77622757D01*
X123818501Y-77672576D01*
X123840953Y-77681877D01*
X123992298Y-77762772D01*
X124012510Y-77776277D01*
X124145166Y-77885145D01*
X124162354Y-77902333D01*
X124271222Y-78034989D01*
X124284727Y-78055201D01*
X124365621Y-78206543D01*
X124374924Y-78229001D01*
X124424740Y-78393224D01*
X124429482Y-78417065D01*
X124447200Y-78596967D01*
X124447499Y-78603048D01*
X124447500Y-83291931D01*
X124427815Y-83358970D01*
X124375011Y-83404725D01*
X124305853Y-83414669D01*
X124242297Y-83385644D01*
X124211118Y-83344336D01*
X124204602Y-83330362D01*
X124204599Y-83330358D01*
X124204599Y-83330357D01*
X124079099Y-83151124D01*
X124027475Y-83099500D01*
X123924377Y-82996402D01*
X123786478Y-82899844D01*
X123745138Y-82870897D01*
X123645984Y-82824661D01*
X123546830Y-82778425D01*
X123546826Y-82778424D01*
X123546822Y-82778422D01*
X123335477Y-82721793D01*
X123117502Y-82702723D01*
X123117498Y-82702723D01*
X122972181Y-82715436D01*
X122899523Y-82721793D01*
X122899520Y-82721793D01*
X122688177Y-82778422D01*
X122688168Y-82778426D01*
X122489861Y-82870898D01*
X122489857Y-82870900D01*
X122310621Y-82996402D01*
X122155902Y-83151121D01*
X122030400Y-83330357D01*
X122030398Y-83330361D01*
X121959882Y-83481583D01*
X121913709Y-83534022D01*
X121846516Y-83553174D01*
X121779635Y-83532958D01*
X121735118Y-83481583D01*
X121699278Y-83404725D01*
X121664602Y-83330362D01*
X121664600Y-83330359D01*
X121664599Y-83330357D01*
X121539099Y-83151124D01*
X121487475Y-83099500D01*
X121384377Y-82996402D01*
X121246478Y-82899844D01*
X121205138Y-82870897D01*
X121105984Y-82824661D01*
X121006830Y-82778425D01*
X121006826Y-82778424D01*
X121006822Y-82778422D01*
X120795477Y-82721793D01*
X120577502Y-82702723D01*
X120577498Y-82702723D01*
X120432182Y-82715436D01*
X120359523Y-82721793D01*
X120359520Y-82721793D01*
X120148177Y-82778422D01*
X120148168Y-82778426D01*
X119949861Y-82870898D01*
X119949857Y-82870900D01*
X119770621Y-82996402D01*
X119615902Y-83151121D01*
X119490400Y-83330357D01*
X119490398Y-83330361D01*
X119397926Y-83528668D01*
X119397922Y-83528677D01*
X119343775Y-83730760D01*
X119307410Y-83790421D01*
X119244563Y-83820950D01*
X119175187Y-83812655D01*
X119121310Y-83768170D01*
X119100035Y-83701618D01*
X119100000Y-83698667D01*
X119100000Y-77724000D01*
X119119685Y-77656961D01*
X119172489Y-77611206D01*
X119224000Y-77600000D01*
X123444451Y-77600000D01*
X123450532Y-77600299D01*
G37*
%TD.AperFunction*%
%TD*%
M02*
