%TF.GenerationSoftware,KiCad,Pcbnew,7.0.5-0*%
%TF.CreationDate,2024-02-12T14:58:35-07:00*%
%TF.ProjectId,rainbow-music-pegasus,7261696e-626f-4772-9d6d-757369632d70,rev?*%
%TF.SameCoordinates,Original*%
%TF.FileFunction,Soldermask,Bot*%
%TF.FilePolarity,Negative*%
%FSLAX46Y46*%
G04 Gerber Fmt 4.6, Leading zero omitted, Abs format (unit mm)*
G04 Created by KiCad (PCBNEW 7.0.5-0) date 2024-02-12 14:58:35*
%MOMM*%
%LPD*%
G01*
G04 APERTURE LIST*
G04 Aperture macros list*
%AMRoundRect*
0 Rectangle with rounded corners*
0 $1 Rounding radius*
0 $2 $3 $4 $5 $6 $7 $8 $9 X,Y pos of 4 corners*
0 Add a 4 corners polygon primitive as box body*
4,1,4,$2,$3,$4,$5,$6,$7,$8,$9,$2,$3,0*
0 Add four circle primitives for the rounded corners*
1,1,$1+$1,$2,$3*
1,1,$1+$1,$4,$5*
1,1,$1+$1,$6,$7*
1,1,$1+$1,$8,$9*
0 Add four rect primitives between the rounded corners*
20,1,$1+$1,$2,$3,$4,$5,0*
20,1,$1+$1,$4,$5,$6,$7,0*
20,1,$1+$1,$6,$7,$8,$9,0*
20,1,$1+$1,$8,$9,$2,$3,0*%
%AMFreePoly0*
4,1,6,1.000000,0.000000,0.500000,-0.750000,-0.500000,-0.750000,-0.500000,0.750000,0.500000,0.750000,1.000000,0.000000,1.000000,0.000000,$1*%
%AMFreePoly1*
4,1,6,0.500000,-0.750000,-0.650000,-0.750000,-0.150000,0.000000,-0.650000,0.750000,0.500000,0.750000,0.500000,-0.750000,0.500000,-0.750000,$1*%
G04 Aperture macros list end*
%ADD10O,3.500000X2.200000*%
%ADD11R,2.500000X1.500000*%
%ADD12O,2.500000X1.500000*%
%ADD13R,1.700000X1.700000*%
%ADD14O,1.700000X1.700000*%
%ADD15R,1.500000X1.500000*%
%ADD16C,0.700000*%
%ADD17C,4.400000*%
%ADD18O,1.550000X1.000000*%
%ADD19O,0.950000X1.250000*%
%ADD20R,1.500000X0.900000*%
%ADD21FreePoly0,0.000000*%
%ADD22FreePoly1,0.000000*%
%ADD23RoundRect,0.225000X0.250000X-0.225000X0.250000X0.225000X-0.250000X0.225000X-0.250000X-0.225000X0*%
%ADD24FreePoly0,180.000000*%
%ADD25FreePoly1,180.000000*%
G04 APERTURE END LIST*
D10*
%TO.C,SW1*%
X86317500Y-84990000D03*
X86317500Y-93190000D03*
D11*
X86317500Y-87090000D03*
D12*
X86317500Y-89090000D03*
X86317500Y-91090000D03*
%TD*%
D13*
%TO.C,J2*%
X123117500Y-89038000D03*
D14*
X120577500Y-89038000D03*
X123117500Y-86498000D03*
X120577500Y-86498000D03*
X123117500Y-83958000D03*
X120577500Y-83958000D03*
%TD*%
D15*
%TO.C,TP1*%
X90547500Y-98400000D03*
%TD*%
%TO.C,TP3*%
X110800000Y-103600000D03*
%TD*%
%TO.C,TP2*%
X110800000Y-97600000D03*
%TD*%
%TO.C,TP4*%
X101057500Y-97410000D03*
%TD*%
D13*
%TO.C,MK1*%
X88947500Y-76600000D03*
D14*
X88947500Y-79140000D03*
%TD*%
D16*
%TO.C,H1*%
X94280774Y-78450000D03*
X95447500Y-78933274D03*
X93114048Y-78933274D03*
X95930774Y-80100000D03*
D17*
X94280774Y-80100000D03*
D16*
X92630774Y-80100000D03*
X95447500Y-81266726D03*
X93114048Y-81266726D03*
X94280774Y-81750000D03*
%TD*%
%TO.C,H2*%
X121842500Y-81738000D03*
X120675774Y-81254726D03*
X123009226Y-81254726D03*
X120192500Y-80088000D03*
D17*
X121842500Y-80088000D03*
D16*
X123492500Y-80088000D03*
X120675774Y-78921274D03*
X123009226Y-78921274D03*
X121842500Y-78438000D03*
%TD*%
D18*
%TO.C,J1*%
X85500000Y-96525000D03*
D19*
X88200000Y-97525000D03*
X88200000Y-102525000D03*
D18*
X85500000Y-103525000D03*
%TD*%
D20*
%TO.C,D16*%
X178250000Y-98950000D03*
X178250000Y-102250000D03*
X173350000Y-102250000D03*
X173350000Y-98950000D03*
%TD*%
D21*
%TO.C,JP1*%
X105072500Y-100600000D03*
D22*
X106522500Y-100600000D03*
%TD*%
D21*
%TO.C,JP2*%
X115075000Y-100600000D03*
D22*
X116525000Y-100600000D03*
%TD*%
D23*
%TO.C,C28*%
X189747500Y-101375000D03*
X189747500Y-99825000D03*
%TD*%
D20*
%TO.C,D2*%
X108250000Y-98950000D03*
X108250000Y-102250000D03*
X103350000Y-102250000D03*
X103350000Y-98950000D03*
%TD*%
D24*
%TO.C,JP7*%
X123334500Y-96150000D03*
D25*
X121884500Y-96150000D03*
%TD*%
D23*
%TO.C,C12*%
X109847500Y-101375000D03*
X109847500Y-99825000D03*
%TD*%
D20*
%TO.C,D14*%
X168250000Y-98950000D03*
X168250000Y-102250000D03*
X163350000Y-102250000D03*
X163350000Y-98950000D03*
%TD*%
D24*
%TO.C,JP5*%
X123334500Y-91600000D03*
D25*
X121884500Y-91600000D03*
%TD*%
D20*
%TO.C,D10*%
X148250000Y-98950000D03*
X148250000Y-102250000D03*
X143350000Y-102250000D03*
X143350000Y-98950000D03*
%TD*%
D23*
%TO.C,C22*%
X159747500Y-101375000D03*
X159747500Y-99825000D03*
%TD*%
D20*
%TO.C,D22*%
X208250000Y-98950000D03*
X208250000Y-102250000D03*
X203350000Y-102250000D03*
X203350000Y-98950000D03*
%TD*%
D23*
%TO.C,C18*%
X139747500Y-101375000D03*
X139747500Y-99825000D03*
%TD*%
%TO.C,C32*%
X209760000Y-101375000D03*
X209760000Y-99825000D03*
%TD*%
D20*
%TO.C,D12*%
X158250000Y-98950000D03*
X158250000Y-102250000D03*
X153350000Y-102250000D03*
X153350000Y-98950000D03*
%TD*%
D23*
%TO.C,C14*%
X119747500Y-101375000D03*
X119747500Y-99825000D03*
%TD*%
D20*
%TO.C,D8*%
X138250000Y-98950000D03*
X138250000Y-102250000D03*
X133350000Y-102250000D03*
X133350000Y-98950000D03*
%TD*%
%TO.C,D4*%
X118250000Y-98950000D03*
X118250000Y-102250000D03*
X113350000Y-102250000D03*
X113350000Y-98950000D03*
%TD*%
D23*
%TO.C,C34*%
X219750000Y-101375000D03*
X219750000Y-99825000D03*
%TD*%
%TO.C,C26*%
X169747500Y-101375000D03*
X169747500Y-99825000D03*
%TD*%
%TO.C,C30*%
X199750000Y-101375000D03*
X199750000Y-99825000D03*
%TD*%
D21*
%TO.C,JP3*%
X125075000Y-100600000D03*
D22*
X126525000Y-100600000D03*
%TD*%
D23*
%TO.C,C20*%
X149747500Y-101375000D03*
X149747500Y-99825000D03*
%TD*%
D20*
%TO.C,D18*%
X188250000Y-98950000D03*
X188250000Y-102250000D03*
X183350000Y-102250000D03*
X183350000Y-98950000D03*
%TD*%
D23*
%TO.C,C24*%
X179747500Y-101375000D03*
X179747500Y-99825000D03*
%TD*%
%TO.C,C16*%
X129747500Y-101375000D03*
X129747500Y-99825000D03*
%TD*%
D20*
%TO.C,D6*%
X128250000Y-98950000D03*
X128250000Y-102250000D03*
X123350000Y-102250000D03*
X123350000Y-98950000D03*
%TD*%
%TO.C,D24*%
X218250000Y-98950000D03*
X218250000Y-102250000D03*
X213350000Y-102250000D03*
X213350000Y-98950000D03*
%TD*%
D21*
%TO.C,JP4*%
X135075000Y-100600000D03*
D22*
X136525000Y-100600000D03*
%TD*%
D20*
%TO.C,D20*%
X198250000Y-98950000D03*
X198250000Y-102250000D03*
X193350000Y-102250000D03*
X193350000Y-98950000D03*
%TD*%
D24*
%TO.C,JP6*%
X123334500Y-93875000D03*
D25*
X121884500Y-93875000D03*
%TD*%
M02*
