%TF.GenerationSoftware,KiCad,Pcbnew,7.0.5-0*%
%TF.CreationDate,2024-05-11T15:05:49-06:00*%
%TF.ProjectId,rainbow-music-pegasus,7261696e-626f-4772-9d6d-757369632d70,rev?*%
%TF.SameCoordinates,Original*%
%TF.FileFunction,Legend,Top*%
%TF.FilePolarity,Positive*%
%FSLAX46Y46*%
G04 Gerber Fmt 4.6, Leading zero omitted, Abs format (unit mm)*
G04 Created by KiCad (PCBNEW 7.0.5-0) date 2024-05-11 15:05:49*
%MOMM*%
%LPD*%
G01*
G04 APERTURE LIST*
%ADD10C,0.200000*%
%ADD11C,0.150000*%
%ADD12C,0.300000*%
%ADD13C,0.100000*%
%ADD14C,0.120000*%
G04 APERTURE END LIST*
D10*
X98447500Y-82800000D02*
G75*
G03*
X98447500Y-82800000I-100000J0D01*
G01*
X109847500Y-97150000D02*
G75*
G03*
X109847500Y-97150000I-100000J0D01*
G01*
D11*
X88566548Y-81123866D02*
X89328453Y-81123866D01*
X88947500Y-81504819D02*
X88947500Y-80742914D01*
D12*
X133715595Y-81097733D02*
X135239405Y-81097733D01*
X134477500Y-81859638D02*
X134477500Y-80335828D01*
D13*
X110456355Y-76864895D02*
X110646831Y-77664895D01*
X110646831Y-77664895D02*
X110799212Y-77093466D01*
X110799212Y-77093466D02*
X110951593Y-77664895D01*
X110951593Y-77664895D02*
X111142070Y-76864895D01*
X111789689Y-77664895D02*
X111789689Y-77245847D01*
X111789689Y-77245847D02*
X111751594Y-77169657D01*
X111751594Y-77169657D02*
X111675403Y-77131561D01*
X111675403Y-77131561D02*
X111523022Y-77131561D01*
X111523022Y-77131561D02*
X111446832Y-77169657D01*
X111789689Y-77626800D02*
X111713498Y-77664895D01*
X111713498Y-77664895D02*
X111523022Y-77664895D01*
X111523022Y-77664895D02*
X111446832Y-77626800D01*
X111446832Y-77626800D02*
X111408736Y-77550609D01*
X111408736Y-77550609D02*
X111408736Y-77474419D01*
X111408736Y-77474419D02*
X111446832Y-77398228D01*
X111446832Y-77398228D02*
X111523022Y-77360133D01*
X111523022Y-77360133D02*
X111713498Y-77360133D01*
X111713498Y-77360133D02*
X111789689Y-77322038D01*
X112094451Y-77131561D02*
X112284927Y-77664895D01*
X112475404Y-77131561D02*
X112284927Y-77664895D01*
X112284927Y-77664895D02*
X112208737Y-77855371D01*
X112208737Y-77855371D02*
X112170642Y-77893466D01*
X112170642Y-77893466D02*
X112094451Y-77931561D01*
X112703975Y-76864895D02*
X112894451Y-77664895D01*
X112894451Y-77664895D02*
X113046832Y-77093466D01*
X113046832Y-77093466D02*
X113199213Y-77664895D01*
X113199213Y-77664895D02*
X113389690Y-76864895D01*
X114037309Y-77664895D02*
X114037309Y-77245847D01*
X114037309Y-77245847D02*
X113999214Y-77169657D01*
X113999214Y-77169657D02*
X113923023Y-77131561D01*
X113923023Y-77131561D02*
X113770642Y-77131561D01*
X113770642Y-77131561D02*
X113694452Y-77169657D01*
X114037309Y-77626800D02*
X113961118Y-77664895D01*
X113961118Y-77664895D02*
X113770642Y-77664895D01*
X113770642Y-77664895D02*
X113694452Y-77626800D01*
X113694452Y-77626800D02*
X113656356Y-77550609D01*
X113656356Y-77550609D02*
X113656356Y-77474419D01*
X113656356Y-77474419D02*
X113694452Y-77398228D01*
X113694452Y-77398228D02*
X113770642Y-77360133D01*
X113770642Y-77360133D02*
X113961118Y-77360133D01*
X113961118Y-77360133D02*
X114037309Y-77322038D01*
X114342071Y-77131561D02*
X114532547Y-77664895D01*
X114723024Y-77131561D02*
X114532547Y-77664895D01*
X114532547Y-77664895D02*
X114456357Y-77855371D01*
X114456357Y-77855371D02*
X114418262Y-77893466D01*
X114418262Y-77893466D02*
X114342071Y-77931561D01*
X114951595Y-76864895D02*
X115142071Y-77664895D01*
X115142071Y-77664895D02*
X115294452Y-77093466D01*
X115294452Y-77093466D02*
X115446833Y-77664895D01*
X115446833Y-77664895D02*
X115637310Y-76864895D01*
X116284929Y-77664895D02*
X116284929Y-77245847D01*
X116284929Y-77245847D02*
X116246834Y-77169657D01*
X116246834Y-77169657D02*
X116170643Y-77131561D01*
X116170643Y-77131561D02*
X116018262Y-77131561D01*
X116018262Y-77131561D02*
X115942072Y-77169657D01*
X116284929Y-77626800D02*
X116208738Y-77664895D01*
X116208738Y-77664895D02*
X116018262Y-77664895D01*
X116018262Y-77664895D02*
X115942072Y-77626800D01*
X115942072Y-77626800D02*
X115903976Y-77550609D01*
X115903976Y-77550609D02*
X115903976Y-77474419D01*
X115903976Y-77474419D02*
X115942072Y-77398228D01*
X115942072Y-77398228D02*
X116018262Y-77360133D01*
X116018262Y-77360133D02*
X116208738Y-77360133D01*
X116208738Y-77360133D02*
X116284929Y-77322038D01*
X116589691Y-77131561D02*
X116780167Y-77664895D01*
X116970644Y-77131561D02*
X116780167Y-77664895D01*
X116780167Y-77664895D02*
X116703977Y-77855371D01*
X116703977Y-77855371D02*
X116665882Y-77893466D01*
X116665882Y-77893466D02*
X116589691Y-77931561D01*
D11*
X121162279Y-89852009D02*
X121495612Y-89852009D01*
X121638469Y-90375819D02*
X121162279Y-90375819D01*
X121162279Y-90375819D02*
X121162279Y-89375819D01*
X121162279Y-89375819D02*
X121638469Y-89375819D01*
X122067041Y-89709152D02*
X122067041Y-90375819D01*
X122067041Y-89804390D02*
X122114660Y-89756771D01*
X122114660Y-89756771D02*
X122209898Y-89709152D01*
X122209898Y-89709152D02*
X122352755Y-89709152D01*
X122352755Y-89709152D02*
X122447993Y-89756771D01*
X122447993Y-89756771D02*
X122495612Y-89852009D01*
X122495612Y-89852009D02*
X122495612Y-90375819D01*
X121019422Y-90985819D02*
X121590850Y-90985819D01*
X121305136Y-91985819D02*
X121305136Y-90985819D01*
X121828946Y-91985819D02*
X122352755Y-91319152D01*
X121828946Y-91319152D02*
X122352755Y-91985819D01*
X121733707Y-93595819D02*
X121400374Y-93119628D01*
X121162279Y-93595819D02*
X121162279Y-92595819D01*
X121162279Y-92595819D02*
X121543231Y-92595819D01*
X121543231Y-92595819D02*
X121638469Y-92643438D01*
X121638469Y-92643438D02*
X121686088Y-92691057D01*
X121686088Y-92691057D02*
X121733707Y-92786295D01*
X121733707Y-92786295D02*
X121733707Y-92929152D01*
X121733707Y-92929152D02*
X121686088Y-93024390D01*
X121686088Y-93024390D02*
X121638469Y-93072009D01*
X121638469Y-93072009D02*
X121543231Y-93119628D01*
X121543231Y-93119628D02*
X121162279Y-93119628D01*
X122067041Y-93595819D02*
X122590850Y-92929152D01*
X122067041Y-92929152D02*
X122590850Y-93595819D01*
X124803006Y-89709152D02*
X124803006Y-90375819D01*
X124803006Y-89804390D02*
X124850625Y-89756771D01*
X124850625Y-89756771D02*
X124945863Y-89709152D01*
X124945863Y-89709152D02*
X125088720Y-89709152D01*
X125088720Y-89709152D02*
X125183958Y-89756771D01*
X125183958Y-89756771D02*
X125231577Y-89852009D01*
X125231577Y-89852009D02*
X125231577Y-90375819D01*
X126136339Y-90328200D02*
X126041101Y-90375819D01*
X126041101Y-90375819D02*
X125850625Y-90375819D01*
X125850625Y-90375819D02*
X125755387Y-90328200D01*
X125755387Y-90328200D02*
X125707768Y-90280580D01*
X125707768Y-90280580D02*
X125660149Y-90185342D01*
X125660149Y-90185342D02*
X125660149Y-89899628D01*
X125660149Y-89899628D02*
X125707768Y-89804390D01*
X125707768Y-89804390D02*
X125755387Y-89756771D01*
X125755387Y-89756771D02*
X125850625Y-89709152D01*
X125850625Y-89709152D02*
X126041101Y-89709152D01*
X126041101Y-89709152D02*
X126136339Y-89756771D01*
X124279196Y-91033438D02*
X124183958Y-90985819D01*
X124183958Y-90985819D02*
X124041101Y-90985819D01*
X124041101Y-90985819D02*
X123898244Y-91033438D01*
X123898244Y-91033438D02*
X123803006Y-91128676D01*
X123803006Y-91128676D02*
X123755387Y-91223914D01*
X123755387Y-91223914D02*
X123707768Y-91414390D01*
X123707768Y-91414390D02*
X123707768Y-91557247D01*
X123707768Y-91557247D02*
X123755387Y-91747723D01*
X123755387Y-91747723D02*
X123803006Y-91842961D01*
X123803006Y-91842961D02*
X123898244Y-91938200D01*
X123898244Y-91938200D02*
X124041101Y-91985819D01*
X124041101Y-91985819D02*
X124136339Y-91985819D01*
X124136339Y-91985819D02*
X124279196Y-91938200D01*
X124279196Y-91938200D02*
X124326815Y-91890580D01*
X124326815Y-91890580D02*
X124326815Y-91557247D01*
X124326815Y-91557247D02*
X124136339Y-91557247D01*
X124755387Y-91319152D02*
X124755387Y-91985819D01*
X124755387Y-91414390D02*
X124803006Y-91366771D01*
X124803006Y-91366771D02*
X124898244Y-91319152D01*
X124898244Y-91319152D02*
X125041101Y-91319152D01*
X125041101Y-91319152D02*
X125136339Y-91366771D01*
X125136339Y-91366771D02*
X125183958Y-91462009D01*
X125183958Y-91462009D02*
X125183958Y-91985819D01*
X126088720Y-91985819D02*
X126088720Y-90985819D01*
X126088720Y-91938200D02*
X125993482Y-91985819D01*
X125993482Y-91985819D02*
X125803006Y-91985819D01*
X125803006Y-91985819D02*
X125707768Y-91938200D01*
X125707768Y-91938200D02*
X125660149Y-91890580D01*
X125660149Y-91890580D02*
X125612530Y-91795342D01*
X125612530Y-91795342D02*
X125612530Y-91509628D01*
X125612530Y-91509628D02*
X125660149Y-91414390D01*
X125660149Y-91414390D02*
X125707768Y-91366771D01*
X125707768Y-91366771D02*
X125803006Y-91319152D01*
X125803006Y-91319152D02*
X125993482Y-91319152D01*
X125993482Y-91319152D02*
X126088720Y-91366771D01*
X123517291Y-93072009D02*
X123660148Y-93119628D01*
X123660148Y-93119628D02*
X123707767Y-93167247D01*
X123707767Y-93167247D02*
X123755386Y-93262485D01*
X123755386Y-93262485D02*
X123755386Y-93405342D01*
X123755386Y-93405342D02*
X123707767Y-93500580D01*
X123707767Y-93500580D02*
X123660148Y-93548200D01*
X123660148Y-93548200D02*
X123564910Y-93595819D01*
X123564910Y-93595819D02*
X123183958Y-93595819D01*
X123183958Y-93595819D02*
X123183958Y-92595819D01*
X123183958Y-92595819D02*
X123517291Y-92595819D01*
X123517291Y-92595819D02*
X123612529Y-92643438D01*
X123612529Y-92643438D02*
X123660148Y-92691057D01*
X123660148Y-92691057D02*
X123707767Y-92786295D01*
X123707767Y-92786295D02*
X123707767Y-92881533D01*
X123707767Y-92881533D02*
X123660148Y-92976771D01*
X123660148Y-92976771D02*
X123612529Y-93024390D01*
X123612529Y-93024390D02*
X123517291Y-93072009D01*
X123517291Y-93072009D02*
X123183958Y-93072009D01*
X124326815Y-93595819D02*
X124231577Y-93548200D01*
X124231577Y-93548200D02*
X124183958Y-93500580D01*
X124183958Y-93500580D02*
X124136339Y-93405342D01*
X124136339Y-93405342D02*
X124136339Y-93119628D01*
X124136339Y-93119628D02*
X124183958Y-93024390D01*
X124183958Y-93024390D02*
X124231577Y-92976771D01*
X124231577Y-92976771D02*
X124326815Y-92929152D01*
X124326815Y-92929152D02*
X124469672Y-92929152D01*
X124469672Y-92929152D02*
X124564910Y-92976771D01*
X124564910Y-92976771D02*
X124612529Y-93024390D01*
X124612529Y-93024390D02*
X124660148Y-93119628D01*
X124660148Y-93119628D02*
X124660148Y-93405342D01*
X124660148Y-93405342D02*
X124612529Y-93500580D01*
X124612529Y-93500580D02*
X124564910Y-93548200D01*
X124564910Y-93548200D02*
X124469672Y-93595819D01*
X124469672Y-93595819D02*
X124326815Y-93595819D01*
X125231577Y-93595819D02*
X125136339Y-93548200D01*
X125136339Y-93548200D02*
X125088720Y-93500580D01*
X125088720Y-93500580D02*
X125041101Y-93405342D01*
X125041101Y-93405342D02*
X125041101Y-93119628D01*
X125041101Y-93119628D02*
X125088720Y-93024390D01*
X125088720Y-93024390D02*
X125136339Y-92976771D01*
X125136339Y-92976771D02*
X125231577Y-92929152D01*
X125231577Y-92929152D02*
X125374434Y-92929152D01*
X125374434Y-92929152D02*
X125469672Y-92976771D01*
X125469672Y-92976771D02*
X125517291Y-93024390D01*
X125517291Y-93024390D02*
X125564910Y-93119628D01*
X125564910Y-93119628D02*
X125564910Y-93405342D01*
X125564910Y-93405342D02*
X125517291Y-93500580D01*
X125517291Y-93500580D02*
X125469672Y-93548200D01*
X125469672Y-93548200D02*
X125374434Y-93595819D01*
X125374434Y-93595819D02*
X125231577Y-93595819D01*
X125850625Y-92929152D02*
X126231577Y-92929152D01*
X125993482Y-92595819D02*
X125993482Y-93452961D01*
X125993482Y-93452961D02*
X126041101Y-93548200D01*
X126041101Y-93548200D02*
X126136339Y-93595819D01*
X126136339Y-93595819D02*
X126231577Y-93595819D01*
D14*
%TO.C,C19*%
X150686795Y-101082143D02*
X150722510Y-101117857D01*
X150722510Y-101117857D02*
X150758224Y-101225000D01*
X150758224Y-101225000D02*
X150758224Y-101296428D01*
X150758224Y-101296428D02*
X150722510Y-101403571D01*
X150722510Y-101403571D02*
X150651081Y-101475000D01*
X150651081Y-101475000D02*
X150579652Y-101510714D01*
X150579652Y-101510714D02*
X150436795Y-101546428D01*
X150436795Y-101546428D02*
X150329652Y-101546428D01*
X150329652Y-101546428D02*
X150186795Y-101510714D01*
X150186795Y-101510714D02*
X150115367Y-101475000D01*
X150115367Y-101475000D02*
X150043938Y-101403571D01*
X150043938Y-101403571D02*
X150008224Y-101296428D01*
X150008224Y-101296428D02*
X150008224Y-101225000D01*
X150008224Y-101225000D02*
X150043938Y-101117857D01*
X150043938Y-101117857D02*
X150079652Y-101082143D01*
X150758224Y-100367857D02*
X150758224Y-100796428D01*
X150758224Y-100582143D02*
X150008224Y-100582143D01*
X150008224Y-100582143D02*
X150115367Y-100653571D01*
X150115367Y-100653571D02*
X150186795Y-100725000D01*
X150186795Y-100725000D02*
X150222510Y-100796428D01*
X150758224Y-100010714D02*
X150758224Y-99867857D01*
X150758224Y-99867857D02*
X150722510Y-99796428D01*
X150722510Y-99796428D02*
X150686795Y-99760714D01*
X150686795Y-99760714D02*
X150579652Y-99689285D01*
X150579652Y-99689285D02*
X150436795Y-99653571D01*
X150436795Y-99653571D02*
X150151081Y-99653571D01*
X150151081Y-99653571D02*
X150079652Y-99689285D01*
X150079652Y-99689285D02*
X150043938Y-99725000D01*
X150043938Y-99725000D02*
X150008224Y-99796428D01*
X150008224Y-99796428D02*
X150008224Y-99939285D01*
X150008224Y-99939285D02*
X150043938Y-100010714D01*
X150043938Y-100010714D02*
X150079652Y-100046428D01*
X150079652Y-100046428D02*
X150151081Y-100082142D01*
X150151081Y-100082142D02*
X150329652Y-100082142D01*
X150329652Y-100082142D02*
X150401081Y-100046428D01*
X150401081Y-100046428D02*
X150436795Y-100010714D01*
X150436795Y-100010714D02*
X150472510Y-99939285D01*
X150472510Y-99939285D02*
X150472510Y-99796428D01*
X150472510Y-99796428D02*
X150436795Y-99725000D01*
X150436795Y-99725000D02*
X150401081Y-99689285D01*
X150401081Y-99689285D02*
X150329652Y-99653571D01*
D11*
%TO.C,D5*%
X135061905Y-97554819D02*
X135061905Y-96554819D01*
X135061905Y-96554819D02*
X135300000Y-96554819D01*
X135300000Y-96554819D02*
X135442857Y-96602438D01*
X135442857Y-96602438D02*
X135538095Y-96697676D01*
X135538095Y-96697676D02*
X135585714Y-96792914D01*
X135585714Y-96792914D02*
X135633333Y-96983390D01*
X135633333Y-96983390D02*
X135633333Y-97126247D01*
X135633333Y-97126247D02*
X135585714Y-97316723D01*
X135585714Y-97316723D02*
X135538095Y-97411961D01*
X135538095Y-97411961D02*
X135442857Y-97507200D01*
X135442857Y-97507200D02*
X135300000Y-97554819D01*
X135300000Y-97554819D02*
X135061905Y-97554819D01*
X136538095Y-96554819D02*
X136061905Y-96554819D01*
X136061905Y-96554819D02*
X136014286Y-97031009D01*
X136014286Y-97031009D02*
X136061905Y-96983390D01*
X136061905Y-96983390D02*
X136157143Y-96935771D01*
X136157143Y-96935771D02*
X136395238Y-96935771D01*
X136395238Y-96935771D02*
X136490476Y-96983390D01*
X136490476Y-96983390D02*
X136538095Y-97031009D01*
X136538095Y-97031009D02*
X136585714Y-97126247D01*
X136585714Y-97126247D02*
X136585714Y-97364342D01*
X136585714Y-97364342D02*
X136538095Y-97459580D01*
X136538095Y-97459580D02*
X136490476Y-97507200D01*
X136490476Y-97507200D02*
X136395238Y-97554819D01*
X136395238Y-97554819D02*
X136157143Y-97554819D01*
X136157143Y-97554819D02*
X136061905Y-97507200D01*
X136061905Y-97507200D02*
X136014286Y-97459580D01*
%TO.C,D1*%
X119912680Y-97741905D02*
X120912680Y-97741905D01*
X120912680Y-97741905D02*
X120912680Y-97980000D01*
X120912680Y-97980000D02*
X120865061Y-98122857D01*
X120865061Y-98122857D02*
X120769823Y-98218095D01*
X120769823Y-98218095D02*
X120674585Y-98265714D01*
X120674585Y-98265714D02*
X120484109Y-98313333D01*
X120484109Y-98313333D02*
X120341252Y-98313333D01*
X120341252Y-98313333D02*
X120150776Y-98265714D01*
X120150776Y-98265714D02*
X120055538Y-98218095D01*
X120055538Y-98218095D02*
X119960300Y-98122857D01*
X119960300Y-98122857D02*
X119912680Y-97980000D01*
X119912680Y-97980000D02*
X119912680Y-97741905D01*
X119912680Y-99265714D02*
X119912680Y-98694286D01*
X119912680Y-98980000D02*
X120912680Y-98980000D01*
X120912680Y-98980000D02*
X120769823Y-98884762D01*
X120769823Y-98884762D02*
X120674585Y-98789524D01*
X120674585Y-98789524D02*
X120626966Y-98694286D01*
D14*
%TO.C,TP5*%
X126481071Y-85980724D02*
X126909643Y-85980724D01*
X126695357Y-86730724D02*
X126695357Y-85980724D01*
X127159643Y-86730724D02*
X127159643Y-85980724D01*
X127159643Y-85980724D02*
X127445357Y-85980724D01*
X127445357Y-85980724D02*
X127516786Y-86016438D01*
X127516786Y-86016438D02*
X127552500Y-86052152D01*
X127552500Y-86052152D02*
X127588214Y-86123581D01*
X127588214Y-86123581D02*
X127588214Y-86230724D01*
X127588214Y-86230724D02*
X127552500Y-86302152D01*
X127552500Y-86302152D02*
X127516786Y-86337867D01*
X127516786Y-86337867D02*
X127445357Y-86373581D01*
X127445357Y-86373581D02*
X127159643Y-86373581D01*
X128266786Y-85980724D02*
X127909643Y-85980724D01*
X127909643Y-85980724D02*
X127873929Y-86337867D01*
X127873929Y-86337867D02*
X127909643Y-86302152D01*
X127909643Y-86302152D02*
X127981072Y-86266438D01*
X127981072Y-86266438D02*
X128159643Y-86266438D01*
X128159643Y-86266438D02*
X128231072Y-86302152D01*
X128231072Y-86302152D02*
X128266786Y-86337867D01*
X128266786Y-86337867D02*
X128302500Y-86409295D01*
X128302500Y-86409295D02*
X128302500Y-86587867D01*
X128302500Y-86587867D02*
X128266786Y-86659295D01*
X128266786Y-86659295D02*
X128231072Y-86695010D01*
X128231072Y-86695010D02*
X128159643Y-86730724D01*
X128159643Y-86730724D02*
X127981072Y-86730724D01*
X127981072Y-86730724D02*
X127909643Y-86695010D01*
X127909643Y-86695010D02*
X127873929Y-86659295D01*
D11*
%TO.C,C8*%
X102490419Y-101683333D02*
X102442800Y-101635714D01*
X102442800Y-101635714D02*
X102395180Y-101492857D01*
X102395180Y-101492857D02*
X102395180Y-101397619D01*
X102395180Y-101397619D02*
X102442800Y-101254762D01*
X102442800Y-101254762D02*
X102538038Y-101159524D01*
X102538038Y-101159524D02*
X102633276Y-101111905D01*
X102633276Y-101111905D02*
X102823752Y-101064286D01*
X102823752Y-101064286D02*
X102966609Y-101064286D01*
X102966609Y-101064286D02*
X103157085Y-101111905D01*
X103157085Y-101111905D02*
X103252323Y-101159524D01*
X103252323Y-101159524D02*
X103347561Y-101254762D01*
X103347561Y-101254762D02*
X103395180Y-101397619D01*
X103395180Y-101397619D02*
X103395180Y-101492857D01*
X103395180Y-101492857D02*
X103347561Y-101635714D01*
X103347561Y-101635714D02*
X103299942Y-101683333D01*
X102966609Y-102254762D02*
X103014228Y-102159524D01*
X103014228Y-102159524D02*
X103061847Y-102111905D01*
X103061847Y-102111905D02*
X103157085Y-102064286D01*
X103157085Y-102064286D02*
X103204704Y-102064286D01*
X103204704Y-102064286D02*
X103299942Y-102111905D01*
X103299942Y-102111905D02*
X103347561Y-102159524D01*
X103347561Y-102159524D02*
X103395180Y-102254762D01*
X103395180Y-102254762D02*
X103395180Y-102445238D01*
X103395180Y-102445238D02*
X103347561Y-102540476D01*
X103347561Y-102540476D02*
X103299942Y-102588095D01*
X103299942Y-102588095D02*
X103204704Y-102635714D01*
X103204704Y-102635714D02*
X103157085Y-102635714D01*
X103157085Y-102635714D02*
X103061847Y-102588095D01*
X103061847Y-102588095D02*
X103014228Y-102540476D01*
X103014228Y-102540476D02*
X102966609Y-102445238D01*
X102966609Y-102445238D02*
X102966609Y-102254762D01*
X102966609Y-102254762D02*
X102918990Y-102159524D01*
X102918990Y-102159524D02*
X102871371Y-102111905D01*
X102871371Y-102111905D02*
X102776133Y-102064286D01*
X102776133Y-102064286D02*
X102585657Y-102064286D01*
X102585657Y-102064286D02*
X102490419Y-102111905D01*
X102490419Y-102111905D02*
X102442800Y-102159524D01*
X102442800Y-102159524D02*
X102395180Y-102254762D01*
X102395180Y-102254762D02*
X102395180Y-102445238D01*
X102395180Y-102445238D02*
X102442800Y-102540476D01*
X102442800Y-102540476D02*
X102490419Y-102588095D01*
X102490419Y-102588095D02*
X102585657Y-102635714D01*
X102585657Y-102635714D02*
X102776133Y-102635714D01*
X102776133Y-102635714D02*
X102871371Y-102588095D01*
X102871371Y-102588095D02*
X102918990Y-102540476D01*
X102918990Y-102540476D02*
X102966609Y-102445238D01*
%TO.C,D13*%
X174585714Y-97554819D02*
X174585714Y-96554819D01*
X174585714Y-96554819D02*
X174823809Y-96554819D01*
X174823809Y-96554819D02*
X174966666Y-96602438D01*
X174966666Y-96602438D02*
X175061904Y-96697676D01*
X175061904Y-96697676D02*
X175109523Y-96792914D01*
X175109523Y-96792914D02*
X175157142Y-96983390D01*
X175157142Y-96983390D02*
X175157142Y-97126247D01*
X175157142Y-97126247D02*
X175109523Y-97316723D01*
X175109523Y-97316723D02*
X175061904Y-97411961D01*
X175061904Y-97411961D02*
X174966666Y-97507200D01*
X174966666Y-97507200D02*
X174823809Y-97554819D01*
X174823809Y-97554819D02*
X174585714Y-97554819D01*
X176109523Y-97554819D02*
X175538095Y-97554819D01*
X175823809Y-97554819D02*
X175823809Y-96554819D01*
X175823809Y-96554819D02*
X175728571Y-96697676D01*
X175728571Y-96697676D02*
X175633333Y-96792914D01*
X175633333Y-96792914D02*
X175538095Y-96840533D01*
X176442857Y-96554819D02*
X177061904Y-96554819D01*
X177061904Y-96554819D02*
X176728571Y-96935771D01*
X176728571Y-96935771D02*
X176871428Y-96935771D01*
X176871428Y-96935771D02*
X176966666Y-96983390D01*
X176966666Y-96983390D02*
X177014285Y-97031009D01*
X177014285Y-97031009D02*
X177061904Y-97126247D01*
X177061904Y-97126247D02*
X177061904Y-97364342D01*
X177061904Y-97364342D02*
X177014285Y-97459580D01*
X177014285Y-97459580D02*
X176966666Y-97507200D01*
X176966666Y-97507200D02*
X176871428Y-97554819D01*
X176871428Y-97554819D02*
X176585714Y-97554819D01*
X176585714Y-97554819D02*
X176490476Y-97507200D01*
X176490476Y-97507200D02*
X176442857Y-97459580D01*
%TO.C,R17*%
X94202319Y-92672857D02*
X93726128Y-93006190D01*
X94202319Y-93244285D02*
X93202319Y-93244285D01*
X93202319Y-93244285D02*
X93202319Y-92863333D01*
X93202319Y-92863333D02*
X93249938Y-92768095D01*
X93249938Y-92768095D02*
X93297557Y-92720476D01*
X93297557Y-92720476D02*
X93392795Y-92672857D01*
X93392795Y-92672857D02*
X93535652Y-92672857D01*
X93535652Y-92672857D02*
X93630890Y-92720476D01*
X93630890Y-92720476D02*
X93678509Y-92768095D01*
X93678509Y-92768095D02*
X93726128Y-92863333D01*
X93726128Y-92863333D02*
X93726128Y-93244285D01*
X94202319Y-91720476D02*
X94202319Y-92291904D01*
X94202319Y-92006190D02*
X93202319Y-92006190D01*
X93202319Y-92006190D02*
X93345176Y-92101428D01*
X93345176Y-92101428D02*
X93440414Y-92196666D01*
X93440414Y-92196666D02*
X93488033Y-92291904D01*
X93202319Y-91387142D02*
X93202319Y-90720476D01*
X93202319Y-90720476D02*
X94202319Y-91149047D01*
%TO.C,C3*%
X105020833Y-81559580D02*
X104973214Y-81607200D01*
X104973214Y-81607200D02*
X104830357Y-81654819D01*
X104830357Y-81654819D02*
X104735119Y-81654819D01*
X104735119Y-81654819D02*
X104592262Y-81607200D01*
X104592262Y-81607200D02*
X104497024Y-81511961D01*
X104497024Y-81511961D02*
X104449405Y-81416723D01*
X104449405Y-81416723D02*
X104401786Y-81226247D01*
X104401786Y-81226247D02*
X104401786Y-81083390D01*
X104401786Y-81083390D02*
X104449405Y-80892914D01*
X104449405Y-80892914D02*
X104497024Y-80797676D01*
X104497024Y-80797676D02*
X104592262Y-80702438D01*
X104592262Y-80702438D02*
X104735119Y-80654819D01*
X104735119Y-80654819D02*
X104830357Y-80654819D01*
X104830357Y-80654819D02*
X104973214Y-80702438D01*
X104973214Y-80702438D02*
X105020833Y-80750057D01*
X105354167Y-80654819D02*
X105973214Y-80654819D01*
X105973214Y-80654819D02*
X105639881Y-81035771D01*
X105639881Y-81035771D02*
X105782738Y-81035771D01*
X105782738Y-81035771D02*
X105877976Y-81083390D01*
X105877976Y-81083390D02*
X105925595Y-81131009D01*
X105925595Y-81131009D02*
X105973214Y-81226247D01*
X105973214Y-81226247D02*
X105973214Y-81464342D01*
X105973214Y-81464342D02*
X105925595Y-81559580D01*
X105925595Y-81559580D02*
X105877976Y-81607200D01*
X105877976Y-81607200D02*
X105782738Y-81654819D01*
X105782738Y-81654819D02*
X105497024Y-81654819D01*
X105497024Y-81654819D02*
X105401786Y-81607200D01*
X105401786Y-81607200D02*
X105354167Y-81559580D01*
%TO.C,SW1*%
X89230300Y-90336667D02*
X89182680Y-90479524D01*
X89182680Y-90479524D02*
X89182680Y-90717619D01*
X89182680Y-90717619D02*
X89230300Y-90812857D01*
X89230300Y-90812857D02*
X89277919Y-90860476D01*
X89277919Y-90860476D02*
X89373157Y-90908095D01*
X89373157Y-90908095D02*
X89468395Y-90908095D01*
X89468395Y-90908095D02*
X89563633Y-90860476D01*
X89563633Y-90860476D02*
X89611252Y-90812857D01*
X89611252Y-90812857D02*
X89658871Y-90717619D01*
X89658871Y-90717619D02*
X89706490Y-90527143D01*
X89706490Y-90527143D02*
X89754109Y-90431905D01*
X89754109Y-90431905D02*
X89801728Y-90384286D01*
X89801728Y-90384286D02*
X89896966Y-90336667D01*
X89896966Y-90336667D02*
X89992204Y-90336667D01*
X89992204Y-90336667D02*
X90087442Y-90384286D01*
X90087442Y-90384286D02*
X90135061Y-90431905D01*
X90135061Y-90431905D02*
X90182680Y-90527143D01*
X90182680Y-90527143D02*
X90182680Y-90765238D01*
X90182680Y-90765238D02*
X90135061Y-90908095D01*
X90182680Y-91241429D02*
X89182680Y-91479524D01*
X89182680Y-91479524D02*
X89896966Y-91670000D01*
X89896966Y-91670000D02*
X89182680Y-91860476D01*
X89182680Y-91860476D02*
X90182680Y-92098572D01*
X89182680Y-93003333D02*
X89182680Y-92431905D01*
X89182680Y-92717619D02*
X90182680Y-92717619D01*
X90182680Y-92717619D02*
X90039823Y-92622381D01*
X90039823Y-92622381D02*
X89944585Y-92527143D01*
X89944585Y-92527143D02*
X89896966Y-92431905D01*
D14*
%TO.C,D27*%
X89656775Y-93889285D02*
X90406775Y-93889285D01*
X90406775Y-93889285D02*
X90406775Y-94067856D01*
X90406775Y-94067856D02*
X90371061Y-94174999D01*
X90371061Y-94174999D02*
X90299632Y-94246428D01*
X90299632Y-94246428D02*
X90228204Y-94282142D01*
X90228204Y-94282142D02*
X90085347Y-94317856D01*
X90085347Y-94317856D02*
X89978204Y-94317856D01*
X89978204Y-94317856D02*
X89835347Y-94282142D01*
X89835347Y-94282142D02*
X89763918Y-94246428D01*
X89763918Y-94246428D02*
X89692490Y-94174999D01*
X89692490Y-94174999D02*
X89656775Y-94067856D01*
X89656775Y-94067856D02*
X89656775Y-93889285D01*
X90335347Y-94603571D02*
X90371061Y-94639285D01*
X90371061Y-94639285D02*
X90406775Y-94710714D01*
X90406775Y-94710714D02*
X90406775Y-94889285D01*
X90406775Y-94889285D02*
X90371061Y-94960714D01*
X90371061Y-94960714D02*
X90335347Y-94996428D01*
X90335347Y-94996428D02*
X90263918Y-95032142D01*
X90263918Y-95032142D02*
X90192490Y-95032142D01*
X90192490Y-95032142D02*
X90085347Y-94996428D01*
X90085347Y-94996428D02*
X89656775Y-94567856D01*
X89656775Y-94567856D02*
X89656775Y-95032142D01*
X90406775Y-95282142D02*
X90406775Y-95782142D01*
X90406775Y-95782142D02*
X89656775Y-95460714D01*
D11*
%TO.C,D7*%
X145061905Y-97554819D02*
X145061905Y-96554819D01*
X145061905Y-96554819D02*
X145300000Y-96554819D01*
X145300000Y-96554819D02*
X145442857Y-96602438D01*
X145442857Y-96602438D02*
X145538095Y-96697676D01*
X145538095Y-96697676D02*
X145585714Y-96792914D01*
X145585714Y-96792914D02*
X145633333Y-96983390D01*
X145633333Y-96983390D02*
X145633333Y-97126247D01*
X145633333Y-97126247D02*
X145585714Y-97316723D01*
X145585714Y-97316723D02*
X145538095Y-97411961D01*
X145538095Y-97411961D02*
X145442857Y-97507200D01*
X145442857Y-97507200D02*
X145300000Y-97554819D01*
X145300000Y-97554819D02*
X145061905Y-97554819D01*
X145966667Y-96554819D02*
X146633333Y-96554819D01*
X146633333Y-96554819D02*
X146204762Y-97554819D01*
%TO.C,R14*%
X105795180Y-98457142D02*
X106271371Y-98123809D01*
X105795180Y-97885714D02*
X106795180Y-97885714D01*
X106795180Y-97885714D02*
X106795180Y-98266666D01*
X106795180Y-98266666D02*
X106747561Y-98361904D01*
X106747561Y-98361904D02*
X106699942Y-98409523D01*
X106699942Y-98409523D02*
X106604704Y-98457142D01*
X106604704Y-98457142D02*
X106461847Y-98457142D01*
X106461847Y-98457142D02*
X106366609Y-98409523D01*
X106366609Y-98409523D02*
X106318990Y-98361904D01*
X106318990Y-98361904D02*
X106271371Y-98266666D01*
X106271371Y-98266666D02*
X106271371Y-97885714D01*
X105795180Y-99409523D02*
X105795180Y-98838095D01*
X105795180Y-99123809D02*
X106795180Y-99123809D01*
X106795180Y-99123809D02*
X106652323Y-99028571D01*
X106652323Y-99028571D02*
X106557085Y-98933333D01*
X106557085Y-98933333D02*
X106509466Y-98838095D01*
X106461847Y-100266666D02*
X105795180Y-100266666D01*
X106842800Y-100028571D02*
X106128514Y-99790476D01*
X106128514Y-99790476D02*
X106128514Y-100409523D01*
%TO.C,D11*%
X164585714Y-97554819D02*
X164585714Y-96554819D01*
X164585714Y-96554819D02*
X164823809Y-96554819D01*
X164823809Y-96554819D02*
X164966666Y-96602438D01*
X164966666Y-96602438D02*
X165061904Y-96697676D01*
X165061904Y-96697676D02*
X165109523Y-96792914D01*
X165109523Y-96792914D02*
X165157142Y-96983390D01*
X165157142Y-96983390D02*
X165157142Y-97126247D01*
X165157142Y-97126247D02*
X165109523Y-97316723D01*
X165109523Y-97316723D02*
X165061904Y-97411961D01*
X165061904Y-97411961D02*
X164966666Y-97507200D01*
X164966666Y-97507200D02*
X164823809Y-97554819D01*
X164823809Y-97554819D02*
X164585714Y-97554819D01*
X166109523Y-97554819D02*
X165538095Y-97554819D01*
X165823809Y-97554819D02*
X165823809Y-96554819D01*
X165823809Y-96554819D02*
X165728571Y-96697676D01*
X165728571Y-96697676D02*
X165633333Y-96792914D01*
X165633333Y-96792914D02*
X165538095Y-96840533D01*
X167061904Y-97554819D02*
X166490476Y-97554819D01*
X166776190Y-97554819D02*
X166776190Y-96554819D01*
X166776190Y-96554819D02*
X166680952Y-96697676D01*
X166680952Y-96697676D02*
X166585714Y-96792914D01*
X166585714Y-96792914D02*
X166490476Y-96840533D01*
D14*
%TO.C,C35*%
X91336795Y-91582143D02*
X91372510Y-91617857D01*
X91372510Y-91617857D02*
X91408224Y-91725000D01*
X91408224Y-91725000D02*
X91408224Y-91796428D01*
X91408224Y-91796428D02*
X91372510Y-91903571D01*
X91372510Y-91903571D02*
X91301081Y-91975000D01*
X91301081Y-91975000D02*
X91229652Y-92010714D01*
X91229652Y-92010714D02*
X91086795Y-92046428D01*
X91086795Y-92046428D02*
X90979652Y-92046428D01*
X90979652Y-92046428D02*
X90836795Y-92010714D01*
X90836795Y-92010714D02*
X90765367Y-91975000D01*
X90765367Y-91975000D02*
X90693938Y-91903571D01*
X90693938Y-91903571D02*
X90658224Y-91796428D01*
X90658224Y-91796428D02*
X90658224Y-91725000D01*
X90658224Y-91725000D02*
X90693938Y-91617857D01*
X90693938Y-91617857D02*
X90729652Y-91582143D01*
X90658224Y-91332143D02*
X90658224Y-90867857D01*
X90658224Y-90867857D02*
X90943938Y-91117857D01*
X90943938Y-91117857D02*
X90943938Y-91010714D01*
X90943938Y-91010714D02*
X90979652Y-90939286D01*
X90979652Y-90939286D02*
X91015367Y-90903571D01*
X91015367Y-90903571D02*
X91086795Y-90867857D01*
X91086795Y-90867857D02*
X91265367Y-90867857D01*
X91265367Y-90867857D02*
X91336795Y-90903571D01*
X91336795Y-90903571D02*
X91372510Y-90939286D01*
X91372510Y-90939286D02*
X91408224Y-91010714D01*
X91408224Y-91010714D02*
X91408224Y-91225000D01*
X91408224Y-91225000D02*
X91372510Y-91296428D01*
X91372510Y-91296428D02*
X91336795Y-91332143D01*
X90658224Y-90189285D02*
X90658224Y-90546428D01*
X90658224Y-90546428D02*
X91015367Y-90582142D01*
X91015367Y-90582142D02*
X90979652Y-90546428D01*
X90979652Y-90546428D02*
X90943938Y-90475000D01*
X90943938Y-90475000D02*
X90943938Y-90296428D01*
X90943938Y-90296428D02*
X90979652Y-90225000D01*
X90979652Y-90225000D02*
X91015367Y-90189285D01*
X91015367Y-90189285D02*
X91086795Y-90153571D01*
X91086795Y-90153571D02*
X91265367Y-90153571D01*
X91265367Y-90153571D02*
X91336795Y-90189285D01*
X91336795Y-90189285D02*
X91372510Y-90225000D01*
X91372510Y-90225000D02*
X91408224Y-90296428D01*
X91408224Y-90296428D02*
X91408224Y-90475000D01*
X91408224Y-90475000D02*
X91372510Y-90546428D01*
X91372510Y-90546428D02*
X91336795Y-90582142D01*
D11*
%TO.C,R3*%
X103082319Y-86856666D02*
X102606128Y-87189999D01*
X103082319Y-87428094D02*
X102082319Y-87428094D01*
X102082319Y-87428094D02*
X102082319Y-87047142D01*
X102082319Y-87047142D02*
X102129938Y-86951904D01*
X102129938Y-86951904D02*
X102177557Y-86904285D01*
X102177557Y-86904285D02*
X102272795Y-86856666D01*
X102272795Y-86856666D02*
X102415652Y-86856666D01*
X102415652Y-86856666D02*
X102510890Y-86904285D01*
X102510890Y-86904285D02*
X102558509Y-86951904D01*
X102558509Y-86951904D02*
X102606128Y-87047142D01*
X102606128Y-87047142D02*
X102606128Y-87428094D01*
X102082319Y-86523332D02*
X102082319Y-85904285D01*
X102082319Y-85904285D02*
X102463271Y-86237618D01*
X102463271Y-86237618D02*
X102463271Y-86094761D01*
X102463271Y-86094761D02*
X102510890Y-85999523D01*
X102510890Y-85999523D02*
X102558509Y-85951904D01*
X102558509Y-85951904D02*
X102653747Y-85904285D01*
X102653747Y-85904285D02*
X102891842Y-85904285D01*
X102891842Y-85904285D02*
X102987080Y-85951904D01*
X102987080Y-85951904D02*
X103034700Y-85999523D01*
X103034700Y-85999523D02*
X103082319Y-86094761D01*
X103082319Y-86094761D02*
X103082319Y-86380475D01*
X103082319Y-86380475D02*
X103034700Y-86475713D01*
X103034700Y-86475713D02*
X102987080Y-86523332D01*
%TO.C,R1*%
X111610833Y-97254819D02*
X111277500Y-96778628D01*
X111039405Y-97254819D02*
X111039405Y-96254819D01*
X111039405Y-96254819D02*
X111420357Y-96254819D01*
X111420357Y-96254819D02*
X111515595Y-96302438D01*
X111515595Y-96302438D02*
X111563214Y-96350057D01*
X111563214Y-96350057D02*
X111610833Y-96445295D01*
X111610833Y-96445295D02*
X111610833Y-96588152D01*
X111610833Y-96588152D02*
X111563214Y-96683390D01*
X111563214Y-96683390D02*
X111515595Y-96731009D01*
X111515595Y-96731009D02*
X111420357Y-96778628D01*
X111420357Y-96778628D02*
X111039405Y-96778628D01*
X112563214Y-97254819D02*
X111991786Y-97254819D01*
X112277500Y-97254819D02*
X112277500Y-96254819D01*
X112277500Y-96254819D02*
X112182262Y-96397676D01*
X112182262Y-96397676D02*
X112087024Y-96492914D01*
X112087024Y-96492914D02*
X111991786Y-96540533D01*
%TO.C,R10*%
X140603180Y-93158142D02*
X141079371Y-92824809D01*
X140603180Y-92586714D02*
X141603180Y-92586714D01*
X141603180Y-92586714D02*
X141603180Y-92967666D01*
X141603180Y-92967666D02*
X141555561Y-93062904D01*
X141555561Y-93062904D02*
X141507942Y-93110523D01*
X141507942Y-93110523D02*
X141412704Y-93158142D01*
X141412704Y-93158142D02*
X141269847Y-93158142D01*
X141269847Y-93158142D02*
X141174609Y-93110523D01*
X141174609Y-93110523D02*
X141126990Y-93062904D01*
X141126990Y-93062904D02*
X141079371Y-92967666D01*
X141079371Y-92967666D02*
X141079371Y-92586714D01*
X140603180Y-94110523D02*
X140603180Y-93539095D01*
X140603180Y-93824809D02*
X141603180Y-93824809D01*
X141603180Y-93824809D02*
X141460323Y-93729571D01*
X141460323Y-93729571D02*
X141365085Y-93634333D01*
X141365085Y-93634333D02*
X141317466Y-93539095D01*
X141603180Y-94729571D02*
X141603180Y-94824809D01*
X141603180Y-94824809D02*
X141555561Y-94920047D01*
X141555561Y-94920047D02*
X141507942Y-94967666D01*
X141507942Y-94967666D02*
X141412704Y-95015285D01*
X141412704Y-95015285D02*
X141222228Y-95062904D01*
X141222228Y-95062904D02*
X140984133Y-95062904D01*
X140984133Y-95062904D02*
X140793657Y-95015285D01*
X140793657Y-95015285D02*
X140698419Y-94967666D01*
X140698419Y-94967666D02*
X140650800Y-94920047D01*
X140650800Y-94920047D02*
X140603180Y-94824809D01*
X140603180Y-94824809D02*
X140603180Y-94729571D01*
X140603180Y-94729571D02*
X140650800Y-94634333D01*
X140650800Y-94634333D02*
X140698419Y-94586714D01*
X140698419Y-94586714D02*
X140793657Y-94539095D01*
X140793657Y-94539095D02*
X140984133Y-94491476D01*
X140984133Y-94491476D02*
X141222228Y-94491476D01*
X141222228Y-94491476D02*
X141412704Y-94539095D01*
X141412704Y-94539095D02*
X141507942Y-94586714D01*
X141507942Y-94586714D02*
X141555561Y-94634333D01*
X141555561Y-94634333D02*
X141603180Y-94729571D01*
%TO.C,Q1*%
X100754761Y-97410057D02*
X100659523Y-97362438D01*
X100659523Y-97362438D02*
X100564285Y-97267200D01*
X100564285Y-97267200D02*
X100421428Y-97124342D01*
X100421428Y-97124342D02*
X100326190Y-97076723D01*
X100326190Y-97076723D02*
X100230952Y-97076723D01*
X100278571Y-97314819D02*
X100183333Y-97267200D01*
X100183333Y-97267200D02*
X100088095Y-97171961D01*
X100088095Y-97171961D02*
X100040476Y-96981485D01*
X100040476Y-96981485D02*
X100040476Y-96648152D01*
X100040476Y-96648152D02*
X100088095Y-96457676D01*
X100088095Y-96457676D02*
X100183333Y-96362438D01*
X100183333Y-96362438D02*
X100278571Y-96314819D01*
X100278571Y-96314819D02*
X100469047Y-96314819D01*
X100469047Y-96314819D02*
X100564285Y-96362438D01*
X100564285Y-96362438D02*
X100659523Y-96457676D01*
X100659523Y-96457676D02*
X100707142Y-96648152D01*
X100707142Y-96648152D02*
X100707142Y-96981485D01*
X100707142Y-96981485D02*
X100659523Y-97171961D01*
X100659523Y-97171961D02*
X100564285Y-97267200D01*
X100564285Y-97267200D02*
X100469047Y-97314819D01*
X100469047Y-97314819D02*
X100278571Y-97314819D01*
X101659523Y-97314819D02*
X101088095Y-97314819D01*
X101373809Y-97314819D02*
X101373809Y-96314819D01*
X101373809Y-96314819D02*
X101278571Y-96457676D01*
X101278571Y-96457676D02*
X101183333Y-96552914D01*
X101183333Y-96552914D02*
X101088095Y-96600533D01*
%TO.C,R12*%
X129274642Y-84664819D02*
X128941309Y-84188628D01*
X128703214Y-84664819D02*
X128703214Y-83664819D01*
X128703214Y-83664819D02*
X129084166Y-83664819D01*
X129084166Y-83664819D02*
X129179404Y-83712438D01*
X129179404Y-83712438D02*
X129227023Y-83760057D01*
X129227023Y-83760057D02*
X129274642Y-83855295D01*
X129274642Y-83855295D02*
X129274642Y-83998152D01*
X129274642Y-83998152D02*
X129227023Y-84093390D01*
X129227023Y-84093390D02*
X129179404Y-84141009D01*
X129179404Y-84141009D02*
X129084166Y-84188628D01*
X129084166Y-84188628D02*
X128703214Y-84188628D01*
X130227023Y-84664819D02*
X129655595Y-84664819D01*
X129941309Y-84664819D02*
X129941309Y-83664819D01*
X129941309Y-83664819D02*
X129846071Y-83807676D01*
X129846071Y-83807676D02*
X129750833Y-83902914D01*
X129750833Y-83902914D02*
X129655595Y-83950533D01*
X130607976Y-83760057D02*
X130655595Y-83712438D01*
X130655595Y-83712438D02*
X130750833Y-83664819D01*
X130750833Y-83664819D02*
X130988928Y-83664819D01*
X130988928Y-83664819D02*
X131084166Y-83712438D01*
X131084166Y-83712438D02*
X131131785Y-83760057D01*
X131131785Y-83760057D02*
X131179404Y-83855295D01*
X131179404Y-83855295D02*
X131179404Y-83950533D01*
X131179404Y-83950533D02*
X131131785Y-84093390D01*
X131131785Y-84093390D02*
X130560357Y-84664819D01*
X130560357Y-84664819D02*
X131179404Y-84664819D01*
%TO.C,U4*%
X134085595Y-90154819D02*
X134085595Y-90964342D01*
X134085595Y-90964342D02*
X134133214Y-91059580D01*
X134133214Y-91059580D02*
X134180833Y-91107200D01*
X134180833Y-91107200D02*
X134276071Y-91154819D01*
X134276071Y-91154819D02*
X134466547Y-91154819D01*
X134466547Y-91154819D02*
X134561785Y-91107200D01*
X134561785Y-91107200D02*
X134609404Y-91059580D01*
X134609404Y-91059580D02*
X134657023Y-90964342D01*
X134657023Y-90964342D02*
X134657023Y-90154819D01*
X135561785Y-90488152D02*
X135561785Y-91154819D01*
X135323690Y-90107200D02*
X135085595Y-90821485D01*
X135085595Y-90821485D02*
X135704642Y-90821485D01*
D14*
%TO.C,C21*%
X160116795Y-101082143D02*
X160152510Y-101117857D01*
X160152510Y-101117857D02*
X160188224Y-101225000D01*
X160188224Y-101225000D02*
X160188224Y-101296428D01*
X160188224Y-101296428D02*
X160152510Y-101403571D01*
X160152510Y-101403571D02*
X160081081Y-101475000D01*
X160081081Y-101475000D02*
X160009652Y-101510714D01*
X160009652Y-101510714D02*
X159866795Y-101546428D01*
X159866795Y-101546428D02*
X159759652Y-101546428D01*
X159759652Y-101546428D02*
X159616795Y-101510714D01*
X159616795Y-101510714D02*
X159545367Y-101475000D01*
X159545367Y-101475000D02*
X159473938Y-101403571D01*
X159473938Y-101403571D02*
X159438224Y-101296428D01*
X159438224Y-101296428D02*
X159438224Y-101225000D01*
X159438224Y-101225000D02*
X159473938Y-101117857D01*
X159473938Y-101117857D02*
X159509652Y-101082143D01*
X159509652Y-100796428D02*
X159473938Y-100760714D01*
X159473938Y-100760714D02*
X159438224Y-100689286D01*
X159438224Y-100689286D02*
X159438224Y-100510714D01*
X159438224Y-100510714D02*
X159473938Y-100439286D01*
X159473938Y-100439286D02*
X159509652Y-100403571D01*
X159509652Y-100403571D02*
X159581081Y-100367857D01*
X159581081Y-100367857D02*
X159652510Y-100367857D01*
X159652510Y-100367857D02*
X159759652Y-100403571D01*
X159759652Y-100403571D02*
X160188224Y-100832143D01*
X160188224Y-100832143D02*
X160188224Y-100367857D01*
X160188224Y-99653571D02*
X160188224Y-100082142D01*
X160188224Y-99867857D02*
X159438224Y-99867857D01*
X159438224Y-99867857D02*
X159545367Y-99939285D01*
X159545367Y-99939285D02*
X159616795Y-100010714D01*
X159616795Y-100010714D02*
X159652510Y-100082142D01*
D11*
%TO.C,C1*%
X113530833Y-97159580D02*
X113483214Y-97207200D01*
X113483214Y-97207200D02*
X113340357Y-97254819D01*
X113340357Y-97254819D02*
X113245119Y-97254819D01*
X113245119Y-97254819D02*
X113102262Y-97207200D01*
X113102262Y-97207200D02*
X113007024Y-97111961D01*
X113007024Y-97111961D02*
X112959405Y-97016723D01*
X112959405Y-97016723D02*
X112911786Y-96826247D01*
X112911786Y-96826247D02*
X112911786Y-96683390D01*
X112911786Y-96683390D02*
X112959405Y-96492914D01*
X112959405Y-96492914D02*
X113007024Y-96397676D01*
X113007024Y-96397676D02*
X113102262Y-96302438D01*
X113102262Y-96302438D02*
X113245119Y-96254819D01*
X113245119Y-96254819D02*
X113340357Y-96254819D01*
X113340357Y-96254819D02*
X113483214Y-96302438D01*
X113483214Y-96302438D02*
X113530833Y-96350057D01*
X114483214Y-97254819D02*
X113911786Y-97254819D01*
X114197500Y-97254819D02*
X114197500Y-96254819D01*
X114197500Y-96254819D02*
X114102262Y-96397676D01*
X114102262Y-96397676D02*
X114007024Y-96492914D01*
X114007024Y-96492914D02*
X113911786Y-96540533D01*
%TO.C,C10*%
X92647080Y-95012857D02*
X92694700Y-95060476D01*
X92694700Y-95060476D02*
X92742319Y-95203333D01*
X92742319Y-95203333D02*
X92742319Y-95298571D01*
X92742319Y-95298571D02*
X92694700Y-95441428D01*
X92694700Y-95441428D02*
X92599461Y-95536666D01*
X92599461Y-95536666D02*
X92504223Y-95584285D01*
X92504223Y-95584285D02*
X92313747Y-95631904D01*
X92313747Y-95631904D02*
X92170890Y-95631904D01*
X92170890Y-95631904D02*
X91980414Y-95584285D01*
X91980414Y-95584285D02*
X91885176Y-95536666D01*
X91885176Y-95536666D02*
X91789938Y-95441428D01*
X91789938Y-95441428D02*
X91742319Y-95298571D01*
X91742319Y-95298571D02*
X91742319Y-95203333D01*
X91742319Y-95203333D02*
X91789938Y-95060476D01*
X91789938Y-95060476D02*
X91837557Y-95012857D01*
X92742319Y-94060476D02*
X92742319Y-94631904D01*
X92742319Y-94346190D02*
X91742319Y-94346190D01*
X91742319Y-94346190D02*
X91885176Y-94441428D01*
X91885176Y-94441428D02*
X91980414Y-94536666D01*
X91980414Y-94536666D02*
X92028033Y-94631904D01*
X91742319Y-93441428D02*
X91742319Y-93346190D01*
X91742319Y-93346190D02*
X91789938Y-93250952D01*
X91789938Y-93250952D02*
X91837557Y-93203333D01*
X91837557Y-93203333D02*
X91932795Y-93155714D01*
X91932795Y-93155714D02*
X92123271Y-93108095D01*
X92123271Y-93108095D02*
X92361366Y-93108095D01*
X92361366Y-93108095D02*
X92551842Y-93155714D01*
X92551842Y-93155714D02*
X92647080Y-93203333D01*
X92647080Y-93203333D02*
X92694700Y-93250952D01*
X92694700Y-93250952D02*
X92742319Y-93346190D01*
X92742319Y-93346190D02*
X92742319Y-93441428D01*
X92742319Y-93441428D02*
X92694700Y-93536666D01*
X92694700Y-93536666D02*
X92647080Y-93584285D01*
X92647080Y-93584285D02*
X92551842Y-93631904D01*
X92551842Y-93631904D02*
X92361366Y-93679523D01*
X92361366Y-93679523D02*
X92123271Y-93679523D01*
X92123271Y-93679523D02*
X91932795Y-93631904D01*
X91932795Y-93631904D02*
X91837557Y-93584285D01*
X91837557Y-93584285D02*
X91789938Y-93536666D01*
X91789938Y-93536666D02*
X91742319Y-93441428D01*
%TO.C,D25*%
X98492680Y-100185714D02*
X99492680Y-100185714D01*
X99492680Y-100185714D02*
X99492680Y-100423809D01*
X99492680Y-100423809D02*
X99445061Y-100566666D01*
X99445061Y-100566666D02*
X99349823Y-100661904D01*
X99349823Y-100661904D02*
X99254585Y-100709523D01*
X99254585Y-100709523D02*
X99064109Y-100757142D01*
X99064109Y-100757142D02*
X98921252Y-100757142D01*
X98921252Y-100757142D02*
X98730776Y-100709523D01*
X98730776Y-100709523D02*
X98635538Y-100661904D01*
X98635538Y-100661904D02*
X98540300Y-100566666D01*
X98540300Y-100566666D02*
X98492680Y-100423809D01*
X98492680Y-100423809D02*
X98492680Y-100185714D01*
X99397442Y-101138095D02*
X99445061Y-101185714D01*
X99445061Y-101185714D02*
X99492680Y-101280952D01*
X99492680Y-101280952D02*
X99492680Y-101519047D01*
X99492680Y-101519047D02*
X99445061Y-101614285D01*
X99445061Y-101614285D02*
X99397442Y-101661904D01*
X99397442Y-101661904D02*
X99302204Y-101709523D01*
X99302204Y-101709523D02*
X99206966Y-101709523D01*
X99206966Y-101709523D02*
X99064109Y-101661904D01*
X99064109Y-101661904D02*
X98492680Y-101090476D01*
X98492680Y-101090476D02*
X98492680Y-101709523D01*
X99492680Y-102614285D02*
X99492680Y-102138095D01*
X99492680Y-102138095D02*
X99016490Y-102090476D01*
X99016490Y-102090476D02*
X99064109Y-102138095D01*
X99064109Y-102138095D02*
X99111728Y-102233333D01*
X99111728Y-102233333D02*
X99111728Y-102471428D01*
X99111728Y-102471428D02*
X99064109Y-102566666D01*
X99064109Y-102566666D02*
X99016490Y-102614285D01*
X99016490Y-102614285D02*
X98921252Y-102661904D01*
X98921252Y-102661904D02*
X98683157Y-102661904D01*
X98683157Y-102661904D02*
X98587919Y-102614285D01*
X98587919Y-102614285D02*
X98540300Y-102566666D01*
X98540300Y-102566666D02*
X98492680Y-102471428D01*
X98492680Y-102471428D02*
X98492680Y-102233333D01*
X98492680Y-102233333D02*
X98540300Y-102138095D01*
X98540300Y-102138095D02*
X98587919Y-102090476D01*
D14*
%TO.C,C17*%
X140686795Y-101082143D02*
X140722510Y-101117857D01*
X140722510Y-101117857D02*
X140758224Y-101225000D01*
X140758224Y-101225000D02*
X140758224Y-101296428D01*
X140758224Y-101296428D02*
X140722510Y-101403571D01*
X140722510Y-101403571D02*
X140651081Y-101475000D01*
X140651081Y-101475000D02*
X140579652Y-101510714D01*
X140579652Y-101510714D02*
X140436795Y-101546428D01*
X140436795Y-101546428D02*
X140329652Y-101546428D01*
X140329652Y-101546428D02*
X140186795Y-101510714D01*
X140186795Y-101510714D02*
X140115367Y-101475000D01*
X140115367Y-101475000D02*
X140043938Y-101403571D01*
X140043938Y-101403571D02*
X140008224Y-101296428D01*
X140008224Y-101296428D02*
X140008224Y-101225000D01*
X140008224Y-101225000D02*
X140043938Y-101117857D01*
X140043938Y-101117857D02*
X140079652Y-101082143D01*
X140758224Y-100367857D02*
X140758224Y-100796428D01*
X140758224Y-100582143D02*
X140008224Y-100582143D01*
X140008224Y-100582143D02*
X140115367Y-100653571D01*
X140115367Y-100653571D02*
X140186795Y-100725000D01*
X140186795Y-100725000D02*
X140222510Y-100796428D01*
X140008224Y-100117857D02*
X140008224Y-99617857D01*
X140008224Y-99617857D02*
X140758224Y-99939285D01*
D11*
%TO.C,J3*%
X130004166Y-76754819D02*
X130004166Y-77469104D01*
X130004166Y-77469104D02*
X129956547Y-77611961D01*
X129956547Y-77611961D02*
X129861309Y-77707200D01*
X129861309Y-77707200D02*
X129718452Y-77754819D01*
X129718452Y-77754819D02*
X129623214Y-77754819D01*
X130385119Y-76754819D02*
X131004166Y-76754819D01*
X131004166Y-76754819D02*
X130670833Y-77135771D01*
X130670833Y-77135771D02*
X130813690Y-77135771D01*
X130813690Y-77135771D02*
X130908928Y-77183390D01*
X130908928Y-77183390D02*
X130956547Y-77231009D01*
X130956547Y-77231009D02*
X131004166Y-77326247D01*
X131004166Y-77326247D02*
X131004166Y-77564342D01*
X131004166Y-77564342D02*
X130956547Y-77659580D01*
X130956547Y-77659580D02*
X130908928Y-77707200D01*
X130908928Y-77707200D02*
X130813690Y-77754819D01*
X130813690Y-77754819D02*
X130527976Y-77754819D01*
X130527976Y-77754819D02*
X130432738Y-77707200D01*
X130432738Y-77707200D02*
X130385119Y-77659580D01*
D14*
%TO.C,C13*%
X120686795Y-101082143D02*
X120722510Y-101117857D01*
X120722510Y-101117857D02*
X120758224Y-101225000D01*
X120758224Y-101225000D02*
X120758224Y-101296428D01*
X120758224Y-101296428D02*
X120722510Y-101403571D01*
X120722510Y-101403571D02*
X120651081Y-101475000D01*
X120651081Y-101475000D02*
X120579652Y-101510714D01*
X120579652Y-101510714D02*
X120436795Y-101546428D01*
X120436795Y-101546428D02*
X120329652Y-101546428D01*
X120329652Y-101546428D02*
X120186795Y-101510714D01*
X120186795Y-101510714D02*
X120115367Y-101475000D01*
X120115367Y-101475000D02*
X120043938Y-101403571D01*
X120043938Y-101403571D02*
X120008224Y-101296428D01*
X120008224Y-101296428D02*
X120008224Y-101225000D01*
X120008224Y-101225000D02*
X120043938Y-101117857D01*
X120043938Y-101117857D02*
X120079652Y-101082143D01*
X120758224Y-100367857D02*
X120758224Y-100796428D01*
X120758224Y-100582143D02*
X120008224Y-100582143D01*
X120008224Y-100582143D02*
X120115367Y-100653571D01*
X120115367Y-100653571D02*
X120186795Y-100725000D01*
X120186795Y-100725000D02*
X120222510Y-100796428D01*
X120008224Y-100117857D02*
X120008224Y-99653571D01*
X120008224Y-99653571D02*
X120293938Y-99903571D01*
X120293938Y-99903571D02*
X120293938Y-99796428D01*
X120293938Y-99796428D02*
X120329652Y-99725000D01*
X120329652Y-99725000D02*
X120365367Y-99689285D01*
X120365367Y-99689285D02*
X120436795Y-99653571D01*
X120436795Y-99653571D02*
X120615367Y-99653571D01*
X120615367Y-99653571D02*
X120686795Y-99689285D01*
X120686795Y-99689285D02*
X120722510Y-99725000D01*
X120722510Y-99725000D02*
X120758224Y-99796428D01*
X120758224Y-99796428D02*
X120758224Y-100010714D01*
X120758224Y-100010714D02*
X120722510Y-100082142D01*
X120722510Y-100082142D02*
X120686795Y-100117857D01*
D11*
%TO.C,J2*%
X123144166Y-79874819D02*
X123144166Y-80589104D01*
X123144166Y-80589104D02*
X123096547Y-80731961D01*
X123096547Y-80731961D02*
X123001309Y-80827200D01*
X123001309Y-80827200D02*
X122858452Y-80874819D01*
X122858452Y-80874819D02*
X122763214Y-80874819D01*
X123572738Y-79970057D02*
X123620357Y-79922438D01*
X123620357Y-79922438D02*
X123715595Y-79874819D01*
X123715595Y-79874819D02*
X123953690Y-79874819D01*
X123953690Y-79874819D02*
X124048928Y-79922438D01*
X124048928Y-79922438D02*
X124096547Y-79970057D01*
X124096547Y-79970057D02*
X124144166Y-80065295D01*
X124144166Y-80065295D02*
X124144166Y-80160533D01*
X124144166Y-80160533D02*
X124096547Y-80303390D01*
X124096547Y-80303390D02*
X123525119Y-80874819D01*
X123525119Y-80874819D02*
X124144166Y-80874819D01*
D14*
%TO.C,C42*%
X100566795Y-95382143D02*
X100602510Y-95417857D01*
X100602510Y-95417857D02*
X100638224Y-95525000D01*
X100638224Y-95525000D02*
X100638224Y-95596428D01*
X100638224Y-95596428D02*
X100602510Y-95703571D01*
X100602510Y-95703571D02*
X100531081Y-95775000D01*
X100531081Y-95775000D02*
X100459652Y-95810714D01*
X100459652Y-95810714D02*
X100316795Y-95846428D01*
X100316795Y-95846428D02*
X100209652Y-95846428D01*
X100209652Y-95846428D02*
X100066795Y-95810714D01*
X100066795Y-95810714D02*
X99995367Y-95775000D01*
X99995367Y-95775000D02*
X99923938Y-95703571D01*
X99923938Y-95703571D02*
X99888224Y-95596428D01*
X99888224Y-95596428D02*
X99888224Y-95525000D01*
X99888224Y-95525000D02*
X99923938Y-95417857D01*
X99923938Y-95417857D02*
X99959652Y-95382143D01*
X100138224Y-94739286D02*
X100638224Y-94739286D01*
X99852510Y-94917857D02*
X100388224Y-95096428D01*
X100388224Y-95096428D02*
X100388224Y-94632143D01*
X99959652Y-94382142D02*
X99923938Y-94346428D01*
X99923938Y-94346428D02*
X99888224Y-94275000D01*
X99888224Y-94275000D02*
X99888224Y-94096428D01*
X99888224Y-94096428D02*
X99923938Y-94025000D01*
X99923938Y-94025000D02*
X99959652Y-93989285D01*
X99959652Y-93989285D02*
X100031081Y-93953571D01*
X100031081Y-93953571D02*
X100102510Y-93953571D01*
X100102510Y-93953571D02*
X100209652Y-93989285D01*
X100209652Y-93989285D02*
X100638224Y-94417857D01*
X100638224Y-94417857D02*
X100638224Y-93953571D01*
%TO.C,TP1*%
X126038724Y-95847428D02*
X126038724Y-95418857D01*
X126788724Y-95633142D02*
X126038724Y-95633142D01*
X126788724Y-95168856D02*
X126038724Y-95168856D01*
X126038724Y-95168856D02*
X126038724Y-94883142D01*
X126038724Y-94883142D02*
X126074438Y-94811713D01*
X126074438Y-94811713D02*
X126110152Y-94775999D01*
X126110152Y-94775999D02*
X126181581Y-94740285D01*
X126181581Y-94740285D02*
X126288724Y-94740285D01*
X126288724Y-94740285D02*
X126360152Y-94775999D01*
X126360152Y-94775999D02*
X126395867Y-94811713D01*
X126395867Y-94811713D02*
X126431581Y-94883142D01*
X126431581Y-94883142D02*
X126431581Y-95168856D01*
X126788724Y-94025999D02*
X126788724Y-94454570D01*
X126788724Y-94240285D02*
X126038724Y-94240285D01*
X126038724Y-94240285D02*
X126145867Y-94311713D01*
X126145867Y-94311713D02*
X126217295Y-94383142D01*
X126217295Y-94383142D02*
X126253010Y-94454570D01*
%TO.C,R7*%
X100286775Y-83974999D02*
X100643918Y-83724999D01*
X100286775Y-83546428D02*
X101036775Y-83546428D01*
X101036775Y-83546428D02*
X101036775Y-83832142D01*
X101036775Y-83832142D02*
X101001061Y-83903571D01*
X101001061Y-83903571D02*
X100965347Y-83939285D01*
X100965347Y-83939285D02*
X100893918Y-83974999D01*
X100893918Y-83974999D02*
X100786775Y-83974999D01*
X100786775Y-83974999D02*
X100715347Y-83939285D01*
X100715347Y-83939285D02*
X100679632Y-83903571D01*
X100679632Y-83903571D02*
X100643918Y-83832142D01*
X100643918Y-83832142D02*
X100643918Y-83546428D01*
X101036775Y-84224999D02*
X101036775Y-84724999D01*
X101036775Y-84724999D02*
X100286775Y-84403571D01*
%TO.C,C23*%
X170116795Y-101082143D02*
X170152510Y-101117857D01*
X170152510Y-101117857D02*
X170188224Y-101225000D01*
X170188224Y-101225000D02*
X170188224Y-101296428D01*
X170188224Y-101296428D02*
X170152510Y-101403571D01*
X170152510Y-101403571D02*
X170081081Y-101475000D01*
X170081081Y-101475000D02*
X170009652Y-101510714D01*
X170009652Y-101510714D02*
X169866795Y-101546428D01*
X169866795Y-101546428D02*
X169759652Y-101546428D01*
X169759652Y-101546428D02*
X169616795Y-101510714D01*
X169616795Y-101510714D02*
X169545367Y-101475000D01*
X169545367Y-101475000D02*
X169473938Y-101403571D01*
X169473938Y-101403571D02*
X169438224Y-101296428D01*
X169438224Y-101296428D02*
X169438224Y-101225000D01*
X169438224Y-101225000D02*
X169473938Y-101117857D01*
X169473938Y-101117857D02*
X169509652Y-101082143D01*
X169509652Y-100796428D02*
X169473938Y-100760714D01*
X169473938Y-100760714D02*
X169438224Y-100689286D01*
X169438224Y-100689286D02*
X169438224Y-100510714D01*
X169438224Y-100510714D02*
X169473938Y-100439286D01*
X169473938Y-100439286D02*
X169509652Y-100403571D01*
X169509652Y-100403571D02*
X169581081Y-100367857D01*
X169581081Y-100367857D02*
X169652510Y-100367857D01*
X169652510Y-100367857D02*
X169759652Y-100403571D01*
X169759652Y-100403571D02*
X170188224Y-100832143D01*
X170188224Y-100832143D02*
X170188224Y-100367857D01*
X169438224Y-100117857D02*
X169438224Y-99653571D01*
X169438224Y-99653571D02*
X169723938Y-99903571D01*
X169723938Y-99903571D02*
X169723938Y-99796428D01*
X169723938Y-99796428D02*
X169759652Y-99725000D01*
X169759652Y-99725000D02*
X169795367Y-99689285D01*
X169795367Y-99689285D02*
X169866795Y-99653571D01*
X169866795Y-99653571D02*
X170045367Y-99653571D01*
X170045367Y-99653571D02*
X170116795Y-99689285D01*
X170116795Y-99689285D02*
X170152510Y-99725000D01*
X170152510Y-99725000D02*
X170188224Y-99796428D01*
X170188224Y-99796428D02*
X170188224Y-100010714D01*
X170188224Y-100010714D02*
X170152510Y-100082142D01*
X170152510Y-100082142D02*
X170116795Y-100117857D01*
D11*
%TO.C,C38*%
X96154642Y-77649580D02*
X96107023Y-77697200D01*
X96107023Y-77697200D02*
X95964166Y-77744819D01*
X95964166Y-77744819D02*
X95868928Y-77744819D01*
X95868928Y-77744819D02*
X95726071Y-77697200D01*
X95726071Y-77697200D02*
X95630833Y-77601961D01*
X95630833Y-77601961D02*
X95583214Y-77506723D01*
X95583214Y-77506723D02*
X95535595Y-77316247D01*
X95535595Y-77316247D02*
X95535595Y-77173390D01*
X95535595Y-77173390D02*
X95583214Y-76982914D01*
X95583214Y-76982914D02*
X95630833Y-76887676D01*
X95630833Y-76887676D02*
X95726071Y-76792438D01*
X95726071Y-76792438D02*
X95868928Y-76744819D01*
X95868928Y-76744819D02*
X95964166Y-76744819D01*
X95964166Y-76744819D02*
X96107023Y-76792438D01*
X96107023Y-76792438D02*
X96154642Y-76840057D01*
X96487976Y-76744819D02*
X97107023Y-76744819D01*
X97107023Y-76744819D02*
X96773690Y-77125771D01*
X96773690Y-77125771D02*
X96916547Y-77125771D01*
X96916547Y-77125771D02*
X97011785Y-77173390D01*
X97011785Y-77173390D02*
X97059404Y-77221009D01*
X97059404Y-77221009D02*
X97107023Y-77316247D01*
X97107023Y-77316247D02*
X97107023Y-77554342D01*
X97107023Y-77554342D02*
X97059404Y-77649580D01*
X97059404Y-77649580D02*
X97011785Y-77697200D01*
X97011785Y-77697200D02*
X96916547Y-77744819D01*
X96916547Y-77744819D02*
X96630833Y-77744819D01*
X96630833Y-77744819D02*
X96535595Y-77697200D01*
X96535595Y-77697200D02*
X96487976Y-77649580D01*
X97678452Y-77173390D02*
X97583214Y-77125771D01*
X97583214Y-77125771D02*
X97535595Y-77078152D01*
X97535595Y-77078152D02*
X97487976Y-76982914D01*
X97487976Y-76982914D02*
X97487976Y-76935295D01*
X97487976Y-76935295D02*
X97535595Y-76840057D01*
X97535595Y-76840057D02*
X97583214Y-76792438D01*
X97583214Y-76792438D02*
X97678452Y-76744819D01*
X97678452Y-76744819D02*
X97868928Y-76744819D01*
X97868928Y-76744819D02*
X97964166Y-76792438D01*
X97964166Y-76792438D02*
X98011785Y-76840057D01*
X98011785Y-76840057D02*
X98059404Y-76935295D01*
X98059404Y-76935295D02*
X98059404Y-76982914D01*
X98059404Y-76982914D02*
X98011785Y-77078152D01*
X98011785Y-77078152D02*
X97964166Y-77125771D01*
X97964166Y-77125771D02*
X97868928Y-77173390D01*
X97868928Y-77173390D02*
X97678452Y-77173390D01*
X97678452Y-77173390D02*
X97583214Y-77221009D01*
X97583214Y-77221009D02*
X97535595Y-77268628D01*
X97535595Y-77268628D02*
X97487976Y-77363866D01*
X97487976Y-77363866D02*
X97487976Y-77554342D01*
X97487976Y-77554342D02*
X97535595Y-77649580D01*
X97535595Y-77649580D02*
X97583214Y-77697200D01*
X97583214Y-77697200D02*
X97678452Y-77744819D01*
X97678452Y-77744819D02*
X97868928Y-77744819D01*
X97868928Y-77744819D02*
X97964166Y-77697200D01*
X97964166Y-77697200D02*
X98011785Y-77649580D01*
X98011785Y-77649580D02*
X98059404Y-77554342D01*
X98059404Y-77554342D02*
X98059404Y-77363866D01*
X98059404Y-77363866D02*
X98011785Y-77268628D01*
X98011785Y-77268628D02*
X97964166Y-77221009D01*
X97964166Y-77221009D02*
X97868928Y-77173390D01*
%TO.C,C7*%
X99890419Y-101683333D02*
X99842800Y-101635714D01*
X99842800Y-101635714D02*
X99795180Y-101492857D01*
X99795180Y-101492857D02*
X99795180Y-101397619D01*
X99795180Y-101397619D02*
X99842800Y-101254762D01*
X99842800Y-101254762D02*
X99938038Y-101159524D01*
X99938038Y-101159524D02*
X100033276Y-101111905D01*
X100033276Y-101111905D02*
X100223752Y-101064286D01*
X100223752Y-101064286D02*
X100366609Y-101064286D01*
X100366609Y-101064286D02*
X100557085Y-101111905D01*
X100557085Y-101111905D02*
X100652323Y-101159524D01*
X100652323Y-101159524D02*
X100747561Y-101254762D01*
X100747561Y-101254762D02*
X100795180Y-101397619D01*
X100795180Y-101397619D02*
X100795180Y-101492857D01*
X100795180Y-101492857D02*
X100747561Y-101635714D01*
X100747561Y-101635714D02*
X100699942Y-101683333D01*
X100795180Y-102016667D02*
X100795180Y-102683333D01*
X100795180Y-102683333D02*
X99795180Y-102254762D01*
%TO.C,U2*%
X98685595Y-85854819D02*
X98685595Y-86664342D01*
X98685595Y-86664342D02*
X98733214Y-86759580D01*
X98733214Y-86759580D02*
X98780833Y-86807200D01*
X98780833Y-86807200D02*
X98876071Y-86854819D01*
X98876071Y-86854819D02*
X99066547Y-86854819D01*
X99066547Y-86854819D02*
X99161785Y-86807200D01*
X99161785Y-86807200D02*
X99209404Y-86759580D01*
X99209404Y-86759580D02*
X99257023Y-86664342D01*
X99257023Y-86664342D02*
X99257023Y-85854819D01*
X99685595Y-85950057D02*
X99733214Y-85902438D01*
X99733214Y-85902438D02*
X99828452Y-85854819D01*
X99828452Y-85854819D02*
X100066547Y-85854819D01*
X100066547Y-85854819D02*
X100161785Y-85902438D01*
X100161785Y-85902438D02*
X100209404Y-85950057D01*
X100209404Y-85950057D02*
X100257023Y-86045295D01*
X100257023Y-86045295D02*
X100257023Y-86140533D01*
X100257023Y-86140533D02*
X100209404Y-86283390D01*
X100209404Y-86283390D02*
X99637976Y-86854819D01*
X99637976Y-86854819D02*
X100257023Y-86854819D01*
%TO.C,C2*%
X117391717Y-97159580D02*
X117344098Y-97207200D01*
X117344098Y-97207200D02*
X117201241Y-97254819D01*
X117201241Y-97254819D02*
X117106003Y-97254819D01*
X117106003Y-97254819D02*
X116963146Y-97207200D01*
X116963146Y-97207200D02*
X116867908Y-97111961D01*
X116867908Y-97111961D02*
X116820289Y-97016723D01*
X116820289Y-97016723D02*
X116772670Y-96826247D01*
X116772670Y-96826247D02*
X116772670Y-96683390D01*
X116772670Y-96683390D02*
X116820289Y-96492914D01*
X116820289Y-96492914D02*
X116867908Y-96397676D01*
X116867908Y-96397676D02*
X116963146Y-96302438D01*
X116963146Y-96302438D02*
X117106003Y-96254819D01*
X117106003Y-96254819D02*
X117201241Y-96254819D01*
X117201241Y-96254819D02*
X117344098Y-96302438D01*
X117344098Y-96302438D02*
X117391717Y-96350057D01*
X117772670Y-96350057D02*
X117820289Y-96302438D01*
X117820289Y-96302438D02*
X117915527Y-96254819D01*
X117915527Y-96254819D02*
X118153622Y-96254819D01*
X118153622Y-96254819D02*
X118248860Y-96302438D01*
X118248860Y-96302438D02*
X118296479Y-96350057D01*
X118296479Y-96350057D02*
X118344098Y-96445295D01*
X118344098Y-96445295D02*
X118344098Y-96540533D01*
X118344098Y-96540533D02*
X118296479Y-96683390D01*
X118296479Y-96683390D02*
X117725051Y-97254819D01*
X117725051Y-97254819D02*
X118344098Y-97254819D01*
%TO.C,R13*%
X132634642Y-84664819D02*
X132301309Y-84188628D01*
X132063214Y-84664819D02*
X132063214Y-83664819D01*
X132063214Y-83664819D02*
X132444166Y-83664819D01*
X132444166Y-83664819D02*
X132539404Y-83712438D01*
X132539404Y-83712438D02*
X132587023Y-83760057D01*
X132587023Y-83760057D02*
X132634642Y-83855295D01*
X132634642Y-83855295D02*
X132634642Y-83998152D01*
X132634642Y-83998152D02*
X132587023Y-84093390D01*
X132587023Y-84093390D02*
X132539404Y-84141009D01*
X132539404Y-84141009D02*
X132444166Y-84188628D01*
X132444166Y-84188628D02*
X132063214Y-84188628D01*
X133587023Y-84664819D02*
X133015595Y-84664819D01*
X133301309Y-84664819D02*
X133301309Y-83664819D01*
X133301309Y-83664819D02*
X133206071Y-83807676D01*
X133206071Y-83807676D02*
X133110833Y-83902914D01*
X133110833Y-83902914D02*
X133015595Y-83950533D01*
X133920357Y-83664819D02*
X134539404Y-83664819D01*
X134539404Y-83664819D02*
X134206071Y-84045771D01*
X134206071Y-84045771D02*
X134348928Y-84045771D01*
X134348928Y-84045771D02*
X134444166Y-84093390D01*
X134444166Y-84093390D02*
X134491785Y-84141009D01*
X134491785Y-84141009D02*
X134539404Y-84236247D01*
X134539404Y-84236247D02*
X134539404Y-84474342D01*
X134539404Y-84474342D02*
X134491785Y-84569580D01*
X134491785Y-84569580D02*
X134444166Y-84617200D01*
X134444166Y-84617200D02*
X134348928Y-84664819D01*
X134348928Y-84664819D02*
X134063214Y-84664819D01*
X134063214Y-84664819D02*
X133967976Y-84617200D01*
X133967976Y-84617200D02*
X133920357Y-84569580D01*
%TO.C,D23*%
X224585714Y-97554819D02*
X224585714Y-96554819D01*
X224585714Y-96554819D02*
X224823809Y-96554819D01*
X224823809Y-96554819D02*
X224966666Y-96602438D01*
X224966666Y-96602438D02*
X225061904Y-96697676D01*
X225061904Y-96697676D02*
X225109523Y-96792914D01*
X225109523Y-96792914D02*
X225157142Y-96983390D01*
X225157142Y-96983390D02*
X225157142Y-97126247D01*
X225157142Y-97126247D02*
X225109523Y-97316723D01*
X225109523Y-97316723D02*
X225061904Y-97411961D01*
X225061904Y-97411961D02*
X224966666Y-97507200D01*
X224966666Y-97507200D02*
X224823809Y-97554819D01*
X224823809Y-97554819D02*
X224585714Y-97554819D01*
X225538095Y-96650057D02*
X225585714Y-96602438D01*
X225585714Y-96602438D02*
X225680952Y-96554819D01*
X225680952Y-96554819D02*
X225919047Y-96554819D01*
X225919047Y-96554819D02*
X226014285Y-96602438D01*
X226014285Y-96602438D02*
X226061904Y-96650057D01*
X226061904Y-96650057D02*
X226109523Y-96745295D01*
X226109523Y-96745295D02*
X226109523Y-96840533D01*
X226109523Y-96840533D02*
X226061904Y-96983390D01*
X226061904Y-96983390D02*
X225490476Y-97554819D01*
X225490476Y-97554819D02*
X226109523Y-97554819D01*
X226442857Y-96554819D02*
X227061904Y-96554819D01*
X227061904Y-96554819D02*
X226728571Y-96935771D01*
X226728571Y-96935771D02*
X226871428Y-96935771D01*
X226871428Y-96935771D02*
X226966666Y-96983390D01*
X226966666Y-96983390D02*
X227014285Y-97031009D01*
X227014285Y-97031009D02*
X227061904Y-97126247D01*
X227061904Y-97126247D02*
X227061904Y-97364342D01*
X227061904Y-97364342D02*
X227014285Y-97459580D01*
X227014285Y-97459580D02*
X226966666Y-97507200D01*
X226966666Y-97507200D02*
X226871428Y-97554819D01*
X226871428Y-97554819D02*
X226585714Y-97554819D01*
X226585714Y-97554819D02*
X226490476Y-97507200D01*
X226490476Y-97507200D02*
X226442857Y-97459580D01*
D14*
%TO.C,TP3*%
X106350724Y-103856428D02*
X106350724Y-103427857D01*
X107100724Y-103642142D02*
X106350724Y-103642142D01*
X107100724Y-103177856D02*
X106350724Y-103177856D01*
X106350724Y-103177856D02*
X106350724Y-102892142D01*
X106350724Y-102892142D02*
X106386438Y-102820713D01*
X106386438Y-102820713D02*
X106422152Y-102784999D01*
X106422152Y-102784999D02*
X106493581Y-102749285D01*
X106493581Y-102749285D02*
X106600724Y-102749285D01*
X106600724Y-102749285D02*
X106672152Y-102784999D01*
X106672152Y-102784999D02*
X106707867Y-102820713D01*
X106707867Y-102820713D02*
X106743581Y-102892142D01*
X106743581Y-102892142D02*
X106743581Y-103177856D01*
X106350724Y-102499285D02*
X106350724Y-102034999D01*
X106350724Y-102034999D02*
X106636438Y-102284999D01*
X106636438Y-102284999D02*
X106636438Y-102177856D01*
X106636438Y-102177856D02*
X106672152Y-102106428D01*
X106672152Y-102106428D02*
X106707867Y-102070713D01*
X106707867Y-102070713D02*
X106779295Y-102034999D01*
X106779295Y-102034999D02*
X106957867Y-102034999D01*
X106957867Y-102034999D02*
X107029295Y-102070713D01*
X107029295Y-102070713D02*
X107065010Y-102106428D01*
X107065010Y-102106428D02*
X107100724Y-102177856D01*
X107100724Y-102177856D02*
X107100724Y-102392142D01*
X107100724Y-102392142D02*
X107065010Y-102463570D01*
X107065010Y-102463570D02*
X107029295Y-102499285D01*
D11*
%TO.C,U3*%
X102095180Y-101088095D02*
X101285657Y-101088095D01*
X101285657Y-101088095D02*
X101190419Y-101135714D01*
X101190419Y-101135714D02*
X101142800Y-101183333D01*
X101142800Y-101183333D02*
X101095180Y-101278571D01*
X101095180Y-101278571D02*
X101095180Y-101469047D01*
X101095180Y-101469047D02*
X101142800Y-101564285D01*
X101142800Y-101564285D02*
X101190419Y-101611904D01*
X101190419Y-101611904D02*
X101285657Y-101659523D01*
X101285657Y-101659523D02*
X102095180Y-101659523D01*
X102095180Y-102040476D02*
X102095180Y-102659523D01*
X102095180Y-102659523D02*
X101714228Y-102326190D01*
X101714228Y-102326190D02*
X101714228Y-102469047D01*
X101714228Y-102469047D02*
X101666609Y-102564285D01*
X101666609Y-102564285D02*
X101618990Y-102611904D01*
X101618990Y-102611904D02*
X101523752Y-102659523D01*
X101523752Y-102659523D02*
X101285657Y-102659523D01*
X101285657Y-102659523D02*
X101190419Y-102611904D01*
X101190419Y-102611904D02*
X101142800Y-102564285D01*
X101142800Y-102564285D02*
X101095180Y-102469047D01*
X101095180Y-102469047D02*
X101095180Y-102183333D01*
X101095180Y-102183333D02*
X101142800Y-102088095D01*
X101142800Y-102088095D02*
X101190419Y-102040476D01*
%TO.C,C41*%
X98387919Y-91367142D02*
X98340300Y-91319523D01*
X98340300Y-91319523D02*
X98292680Y-91176666D01*
X98292680Y-91176666D02*
X98292680Y-91081428D01*
X98292680Y-91081428D02*
X98340300Y-90938571D01*
X98340300Y-90938571D02*
X98435538Y-90843333D01*
X98435538Y-90843333D02*
X98530776Y-90795714D01*
X98530776Y-90795714D02*
X98721252Y-90748095D01*
X98721252Y-90748095D02*
X98864109Y-90748095D01*
X98864109Y-90748095D02*
X99054585Y-90795714D01*
X99054585Y-90795714D02*
X99149823Y-90843333D01*
X99149823Y-90843333D02*
X99245061Y-90938571D01*
X99245061Y-90938571D02*
X99292680Y-91081428D01*
X99292680Y-91081428D02*
X99292680Y-91176666D01*
X99292680Y-91176666D02*
X99245061Y-91319523D01*
X99245061Y-91319523D02*
X99197442Y-91367142D01*
X98959347Y-92224285D02*
X98292680Y-92224285D01*
X99340300Y-91986190D02*
X98626014Y-91748095D01*
X98626014Y-91748095D02*
X98626014Y-92367142D01*
X98292680Y-93271904D02*
X98292680Y-92700476D01*
X98292680Y-92986190D02*
X99292680Y-92986190D01*
X99292680Y-92986190D02*
X99149823Y-92890952D01*
X99149823Y-92890952D02*
X99054585Y-92795714D01*
X99054585Y-92795714D02*
X99006966Y-92700476D01*
D14*
%TO.C,TP2*%
X107398571Y-98410724D02*
X107827143Y-98410724D01*
X107612857Y-99160724D02*
X107612857Y-98410724D01*
X108077143Y-99160724D02*
X108077143Y-98410724D01*
X108077143Y-98410724D02*
X108362857Y-98410724D01*
X108362857Y-98410724D02*
X108434286Y-98446438D01*
X108434286Y-98446438D02*
X108470000Y-98482152D01*
X108470000Y-98482152D02*
X108505714Y-98553581D01*
X108505714Y-98553581D02*
X108505714Y-98660724D01*
X108505714Y-98660724D02*
X108470000Y-98732152D01*
X108470000Y-98732152D02*
X108434286Y-98767867D01*
X108434286Y-98767867D02*
X108362857Y-98803581D01*
X108362857Y-98803581D02*
X108077143Y-98803581D01*
X108791429Y-98482152D02*
X108827143Y-98446438D01*
X108827143Y-98446438D02*
X108898572Y-98410724D01*
X108898572Y-98410724D02*
X109077143Y-98410724D01*
X109077143Y-98410724D02*
X109148572Y-98446438D01*
X109148572Y-98446438D02*
X109184286Y-98482152D01*
X109184286Y-98482152D02*
X109220000Y-98553581D01*
X109220000Y-98553581D02*
X109220000Y-98625010D01*
X109220000Y-98625010D02*
X109184286Y-98732152D01*
X109184286Y-98732152D02*
X108755714Y-99160724D01*
X108755714Y-99160724D02*
X109220000Y-99160724D01*
%TO.C,C25*%
X180116795Y-101082143D02*
X180152510Y-101117857D01*
X180152510Y-101117857D02*
X180188224Y-101225000D01*
X180188224Y-101225000D02*
X180188224Y-101296428D01*
X180188224Y-101296428D02*
X180152510Y-101403571D01*
X180152510Y-101403571D02*
X180081081Y-101475000D01*
X180081081Y-101475000D02*
X180009652Y-101510714D01*
X180009652Y-101510714D02*
X179866795Y-101546428D01*
X179866795Y-101546428D02*
X179759652Y-101546428D01*
X179759652Y-101546428D02*
X179616795Y-101510714D01*
X179616795Y-101510714D02*
X179545367Y-101475000D01*
X179545367Y-101475000D02*
X179473938Y-101403571D01*
X179473938Y-101403571D02*
X179438224Y-101296428D01*
X179438224Y-101296428D02*
X179438224Y-101225000D01*
X179438224Y-101225000D02*
X179473938Y-101117857D01*
X179473938Y-101117857D02*
X179509652Y-101082143D01*
X179509652Y-100796428D02*
X179473938Y-100760714D01*
X179473938Y-100760714D02*
X179438224Y-100689286D01*
X179438224Y-100689286D02*
X179438224Y-100510714D01*
X179438224Y-100510714D02*
X179473938Y-100439286D01*
X179473938Y-100439286D02*
X179509652Y-100403571D01*
X179509652Y-100403571D02*
X179581081Y-100367857D01*
X179581081Y-100367857D02*
X179652510Y-100367857D01*
X179652510Y-100367857D02*
X179759652Y-100403571D01*
X179759652Y-100403571D02*
X180188224Y-100832143D01*
X180188224Y-100832143D02*
X180188224Y-100367857D01*
X179438224Y-99689285D02*
X179438224Y-100046428D01*
X179438224Y-100046428D02*
X179795367Y-100082142D01*
X179795367Y-100082142D02*
X179759652Y-100046428D01*
X179759652Y-100046428D02*
X179723938Y-99975000D01*
X179723938Y-99975000D02*
X179723938Y-99796428D01*
X179723938Y-99796428D02*
X179759652Y-99725000D01*
X179759652Y-99725000D02*
X179795367Y-99689285D01*
X179795367Y-99689285D02*
X179866795Y-99653571D01*
X179866795Y-99653571D02*
X180045367Y-99653571D01*
X180045367Y-99653571D02*
X180116795Y-99689285D01*
X180116795Y-99689285D02*
X180152510Y-99725000D01*
X180152510Y-99725000D02*
X180188224Y-99796428D01*
X180188224Y-99796428D02*
X180188224Y-99975000D01*
X180188224Y-99975000D02*
X180152510Y-100046428D01*
X180152510Y-100046428D02*
X180116795Y-100082142D01*
%TO.C,TP4*%
X128963928Y-92289275D02*
X128535357Y-92289275D01*
X128749642Y-91539275D02*
X128749642Y-92289275D01*
X128285356Y-91539275D02*
X128285356Y-92289275D01*
X128285356Y-92289275D02*
X127999642Y-92289275D01*
X127999642Y-92289275D02*
X127928213Y-92253561D01*
X127928213Y-92253561D02*
X127892499Y-92217847D01*
X127892499Y-92217847D02*
X127856785Y-92146418D01*
X127856785Y-92146418D02*
X127856785Y-92039275D01*
X127856785Y-92039275D02*
X127892499Y-91967847D01*
X127892499Y-91967847D02*
X127928213Y-91932132D01*
X127928213Y-91932132D02*
X127999642Y-91896418D01*
X127999642Y-91896418D02*
X128285356Y-91896418D01*
X127213928Y-92039275D02*
X127213928Y-91539275D01*
X127392499Y-92324990D02*
X127571070Y-91789275D01*
X127571070Y-91789275D02*
X127106785Y-91789275D01*
D11*
%TO.C,D15*%
X184585714Y-97554819D02*
X184585714Y-96554819D01*
X184585714Y-96554819D02*
X184823809Y-96554819D01*
X184823809Y-96554819D02*
X184966666Y-96602438D01*
X184966666Y-96602438D02*
X185061904Y-96697676D01*
X185061904Y-96697676D02*
X185109523Y-96792914D01*
X185109523Y-96792914D02*
X185157142Y-96983390D01*
X185157142Y-96983390D02*
X185157142Y-97126247D01*
X185157142Y-97126247D02*
X185109523Y-97316723D01*
X185109523Y-97316723D02*
X185061904Y-97411961D01*
X185061904Y-97411961D02*
X184966666Y-97507200D01*
X184966666Y-97507200D02*
X184823809Y-97554819D01*
X184823809Y-97554819D02*
X184585714Y-97554819D01*
X186109523Y-97554819D02*
X185538095Y-97554819D01*
X185823809Y-97554819D02*
X185823809Y-96554819D01*
X185823809Y-96554819D02*
X185728571Y-96697676D01*
X185728571Y-96697676D02*
X185633333Y-96792914D01*
X185633333Y-96792914D02*
X185538095Y-96840533D01*
X187014285Y-96554819D02*
X186538095Y-96554819D01*
X186538095Y-96554819D02*
X186490476Y-97031009D01*
X186490476Y-97031009D02*
X186538095Y-96983390D01*
X186538095Y-96983390D02*
X186633333Y-96935771D01*
X186633333Y-96935771D02*
X186871428Y-96935771D01*
X186871428Y-96935771D02*
X186966666Y-96983390D01*
X186966666Y-96983390D02*
X187014285Y-97031009D01*
X187014285Y-97031009D02*
X187061904Y-97126247D01*
X187061904Y-97126247D02*
X187061904Y-97364342D01*
X187061904Y-97364342D02*
X187014285Y-97459580D01*
X187014285Y-97459580D02*
X186966666Y-97507200D01*
X186966666Y-97507200D02*
X186871428Y-97554819D01*
X186871428Y-97554819D02*
X186633333Y-97554819D01*
X186633333Y-97554819D02*
X186538095Y-97507200D01*
X186538095Y-97507200D02*
X186490476Y-97459580D01*
D14*
%TO.C,D26*%
X89656775Y-96239285D02*
X90406775Y-96239285D01*
X90406775Y-96239285D02*
X90406775Y-96417856D01*
X90406775Y-96417856D02*
X90371061Y-96524999D01*
X90371061Y-96524999D02*
X90299632Y-96596428D01*
X90299632Y-96596428D02*
X90228204Y-96632142D01*
X90228204Y-96632142D02*
X90085347Y-96667856D01*
X90085347Y-96667856D02*
X89978204Y-96667856D01*
X89978204Y-96667856D02*
X89835347Y-96632142D01*
X89835347Y-96632142D02*
X89763918Y-96596428D01*
X89763918Y-96596428D02*
X89692490Y-96524999D01*
X89692490Y-96524999D02*
X89656775Y-96417856D01*
X89656775Y-96417856D02*
X89656775Y-96239285D01*
X90335347Y-96953571D02*
X90371061Y-96989285D01*
X90371061Y-96989285D02*
X90406775Y-97060714D01*
X90406775Y-97060714D02*
X90406775Y-97239285D01*
X90406775Y-97239285D02*
X90371061Y-97310714D01*
X90371061Y-97310714D02*
X90335347Y-97346428D01*
X90335347Y-97346428D02*
X90263918Y-97382142D01*
X90263918Y-97382142D02*
X90192490Y-97382142D01*
X90192490Y-97382142D02*
X90085347Y-97346428D01*
X90085347Y-97346428D02*
X89656775Y-96917856D01*
X89656775Y-96917856D02*
X89656775Y-97382142D01*
X90406775Y-98025000D02*
X90406775Y-97882142D01*
X90406775Y-97882142D02*
X90371061Y-97810714D01*
X90371061Y-97810714D02*
X90335347Y-97775000D01*
X90335347Y-97775000D02*
X90228204Y-97703571D01*
X90228204Y-97703571D02*
X90085347Y-97667857D01*
X90085347Y-97667857D02*
X89799632Y-97667857D01*
X89799632Y-97667857D02*
X89728204Y-97703571D01*
X89728204Y-97703571D02*
X89692490Y-97739285D01*
X89692490Y-97739285D02*
X89656775Y-97810714D01*
X89656775Y-97810714D02*
X89656775Y-97953571D01*
X89656775Y-97953571D02*
X89692490Y-98025000D01*
X89692490Y-98025000D02*
X89728204Y-98060714D01*
X89728204Y-98060714D02*
X89799632Y-98096428D01*
X89799632Y-98096428D02*
X89978204Y-98096428D01*
X89978204Y-98096428D02*
X90049632Y-98060714D01*
X90049632Y-98060714D02*
X90085347Y-98025000D01*
X90085347Y-98025000D02*
X90121061Y-97953571D01*
X90121061Y-97953571D02*
X90121061Y-97810714D01*
X90121061Y-97810714D02*
X90085347Y-97739285D01*
X90085347Y-97739285D02*
X90049632Y-97703571D01*
X90049632Y-97703571D02*
X89978204Y-97667857D01*
D11*
%TO.C,D17*%
X194585714Y-97554819D02*
X194585714Y-96554819D01*
X194585714Y-96554819D02*
X194823809Y-96554819D01*
X194823809Y-96554819D02*
X194966666Y-96602438D01*
X194966666Y-96602438D02*
X195061904Y-96697676D01*
X195061904Y-96697676D02*
X195109523Y-96792914D01*
X195109523Y-96792914D02*
X195157142Y-96983390D01*
X195157142Y-96983390D02*
X195157142Y-97126247D01*
X195157142Y-97126247D02*
X195109523Y-97316723D01*
X195109523Y-97316723D02*
X195061904Y-97411961D01*
X195061904Y-97411961D02*
X194966666Y-97507200D01*
X194966666Y-97507200D02*
X194823809Y-97554819D01*
X194823809Y-97554819D02*
X194585714Y-97554819D01*
X196109523Y-97554819D02*
X195538095Y-97554819D01*
X195823809Y-97554819D02*
X195823809Y-96554819D01*
X195823809Y-96554819D02*
X195728571Y-96697676D01*
X195728571Y-96697676D02*
X195633333Y-96792914D01*
X195633333Y-96792914D02*
X195538095Y-96840533D01*
X196442857Y-96554819D02*
X197109523Y-96554819D01*
X197109523Y-96554819D02*
X196680952Y-97554819D01*
%TO.C,D21*%
X214585714Y-97554819D02*
X214585714Y-96554819D01*
X214585714Y-96554819D02*
X214823809Y-96554819D01*
X214823809Y-96554819D02*
X214966666Y-96602438D01*
X214966666Y-96602438D02*
X215061904Y-96697676D01*
X215061904Y-96697676D02*
X215109523Y-96792914D01*
X215109523Y-96792914D02*
X215157142Y-96983390D01*
X215157142Y-96983390D02*
X215157142Y-97126247D01*
X215157142Y-97126247D02*
X215109523Y-97316723D01*
X215109523Y-97316723D02*
X215061904Y-97411961D01*
X215061904Y-97411961D02*
X214966666Y-97507200D01*
X214966666Y-97507200D02*
X214823809Y-97554819D01*
X214823809Y-97554819D02*
X214585714Y-97554819D01*
X215538095Y-96650057D02*
X215585714Y-96602438D01*
X215585714Y-96602438D02*
X215680952Y-96554819D01*
X215680952Y-96554819D02*
X215919047Y-96554819D01*
X215919047Y-96554819D02*
X216014285Y-96602438D01*
X216014285Y-96602438D02*
X216061904Y-96650057D01*
X216061904Y-96650057D02*
X216109523Y-96745295D01*
X216109523Y-96745295D02*
X216109523Y-96840533D01*
X216109523Y-96840533D02*
X216061904Y-96983390D01*
X216061904Y-96983390D02*
X215490476Y-97554819D01*
X215490476Y-97554819D02*
X216109523Y-97554819D01*
X217061904Y-97554819D02*
X216490476Y-97554819D01*
X216776190Y-97554819D02*
X216776190Y-96554819D01*
X216776190Y-96554819D02*
X216680952Y-96697676D01*
X216680952Y-96697676D02*
X216585714Y-96792914D01*
X216585714Y-96792914D02*
X216490476Y-96840533D01*
%TO.C,MK1*%
X90642680Y-75180476D02*
X91642680Y-75180476D01*
X91642680Y-75180476D02*
X90928395Y-75513809D01*
X90928395Y-75513809D02*
X91642680Y-75847142D01*
X91642680Y-75847142D02*
X90642680Y-75847142D01*
X90642680Y-76323333D02*
X91642680Y-76323333D01*
X90642680Y-76894761D02*
X91214109Y-76466190D01*
X91642680Y-76894761D02*
X91071252Y-76323333D01*
X90642680Y-77847142D02*
X90642680Y-77275714D01*
X90642680Y-77561428D02*
X91642680Y-77561428D01*
X91642680Y-77561428D02*
X91499823Y-77466190D01*
X91499823Y-77466190D02*
X91404585Y-77370952D01*
X91404585Y-77370952D02*
X91356966Y-77275714D01*
%TO.C,R9*%
X96630833Y-79004819D02*
X96297500Y-78528628D01*
X96059405Y-79004819D02*
X96059405Y-78004819D01*
X96059405Y-78004819D02*
X96440357Y-78004819D01*
X96440357Y-78004819D02*
X96535595Y-78052438D01*
X96535595Y-78052438D02*
X96583214Y-78100057D01*
X96583214Y-78100057D02*
X96630833Y-78195295D01*
X96630833Y-78195295D02*
X96630833Y-78338152D01*
X96630833Y-78338152D02*
X96583214Y-78433390D01*
X96583214Y-78433390D02*
X96535595Y-78481009D01*
X96535595Y-78481009D02*
X96440357Y-78528628D01*
X96440357Y-78528628D02*
X96059405Y-78528628D01*
X97107024Y-79004819D02*
X97297500Y-79004819D01*
X97297500Y-79004819D02*
X97392738Y-78957200D01*
X97392738Y-78957200D02*
X97440357Y-78909580D01*
X97440357Y-78909580D02*
X97535595Y-78766723D01*
X97535595Y-78766723D02*
X97583214Y-78576247D01*
X97583214Y-78576247D02*
X97583214Y-78195295D01*
X97583214Y-78195295D02*
X97535595Y-78100057D01*
X97535595Y-78100057D02*
X97487976Y-78052438D01*
X97487976Y-78052438D02*
X97392738Y-78004819D01*
X97392738Y-78004819D02*
X97202262Y-78004819D01*
X97202262Y-78004819D02*
X97107024Y-78052438D01*
X97107024Y-78052438D02*
X97059405Y-78100057D01*
X97059405Y-78100057D02*
X97011786Y-78195295D01*
X97011786Y-78195295D02*
X97011786Y-78433390D01*
X97011786Y-78433390D02*
X97059405Y-78528628D01*
X97059405Y-78528628D02*
X97107024Y-78576247D01*
X97107024Y-78576247D02*
X97202262Y-78623866D01*
X97202262Y-78623866D02*
X97392738Y-78623866D01*
X97392738Y-78623866D02*
X97487976Y-78576247D01*
X97487976Y-78576247D02*
X97535595Y-78528628D01*
X97535595Y-78528628D02*
X97583214Y-78433390D01*
%TO.C,D19*%
X204585714Y-97554819D02*
X204585714Y-96554819D01*
X204585714Y-96554819D02*
X204823809Y-96554819D01*
X204823809Y-96554819D02*
X204966666Y-96602438D01*
X204966666Y-96602438D02*
X205061904Y-96697676D01*
X205061904Y-96697676D02*
X205109523Y-96792914D01*
X205109523Y-96792914D02*
X205157142Y-96983390D01*
X205157142Y-96983390D02*
X205157142Y-97126247D01*
X205157142Y-97126247D02*
X205109523Y-97316723D01*
X205109523Y-97316723D02*
X205061904Y-97411961D01*
X205061904Y-97411961D02*
X204966666Y-97507200D01*
X204966666Y-97507200D02*
X204823809Y-97554819D01*
X204823809Y-97554819D02*
X204585714Y-97554819D01*
X206109523Y-97554819D02*
X205538095Y-97554819D01*
X205823809Y-97554819D02*
X205823809Y-96554819D01*
X205823809Y-96554819D02*
X205728571Y-96697676D01*
X205728571Y-96697676D02*
X205633333Y-96792914D01*
X205633333Y-96792914D02*
X205538095Y-96840533D01*
X206585714Y-97554819D02*
X206776190Y-97554819D01*
X206776190Y-97554819D02*
X206871428Y-97507200D01*
X206871428Y-97507200D02*
X206919047Y-97459580D01*
X206919047Y-97459580D02*
X207014285Y-97316723D01*
X207014285Y-97316723D02*
X207061904Y-97126247D01*
X207061904Y-97126247D02*
X207061904Y-96745295D01*
X207061904Y-96745295D02*
X207014285Y-96650057D01*
X207014285Y-96650057D02*
X206966666Y-96602438D01*
X206966666Y-96602438D02*
X206871428Y-96554819D01*
X206871428Y-96554819D02*
X206680952Y-96554819D01*
X206680952Y-96554819D02*
X206585714Y-96602438D01*
X206585714Y-96602438D02*
X206538095Y-96650057D01*
X206538095Y-96650057D02*
X206490476Y-96745295D01*
X206490476Y-96745295D02*
X206490476Y-96983390D01*
X206490476Y-96983390D02*
X206538095Y-97078628D01*
X206538095Y-97078628D02*
X206585714Y-97126247D01*
X206585714Y-97126247D02*
X206680952Y-97173866D01*
X206680952Y-97173866D02*
X206871428Y-97173866D01*
X206871428Y-97173866D02*
X206966666Y-97126247D01*
X206966666Y-97126247D02*
X207014285Y-97078628D01*
X207014285Y-97078628D02*
X207061904Y-96983390D01*
%TO.C,D3*%
X125061905Y-97554819D02*
X125061905Y-96554819D01*
X125061905Y-96554819D02*
X125300000Y-96554819D01*
X125300000Y-96554819D02*
X125442857Y-96602438D01*
X125442857Y-96602438D02*
X125538095Y-96697676D01*
X125538095Y-96697676D02*
X125585714Y-96792914D01*
X125585714Y-96792914D02*
X125633333Y-96983390D01*
X125633333Y-96983390D02*
X125633333Y-97126247D01*
X125633333Y-97126247D02*
X125585714Y-97316723D01*
X125585714Y-97316723D02*
X125538095Y-97411961D01*
X125538095Y-97411961D02*
X125442857Y-97507200D01*
X125442857Y-97507200D02*
X125300000Y-97554819D01*
X125300000Y-97554819D02*
X125061905Y-97554819D01*
X125966667Y-96554819D02*
X126585714Y-96554819D01*
X126585714Y-96554819D02*
X126252381Y-96935771D01*
X126252381Y-96935771D02*
X126395238Y-96935771D01*
X126395238Y-96935771D02*
X126490476Y-96983390D01*
X126490476Y-96983390D02*
X126538095Y-97031009D01*
X126538095Y-97031009D02*
X126585714Y-97126247D01*
X126585714Y-97126247D02*
X126585714Y-97364342D01*
X126585714Y-97364342D02*
X126538095Y-97459580D01*
X126538095Y-97459580D02*
X126490476Y-97507200D01*
X126490476Y-97507200D02*
X126395238Y-97554819D01*
X126395238Y-97554819D02*
X126109524Y-97554819D01*
X126109524Y-97554819D02*
X126014286Y-97507200D01*
X126014286Y-97507200D02*
X125966667Y-97459580D01*
D14*
%TO.C,C11*%
X110716795Y-101082143D02*
X110752510Y-101117857D01*
X110752510Y-101117857D02*
X110788224Y-101225000D01*
X110788224Y-101225000D02*
X110788224Y-101296428D01*
X110788224Y-101296428D02*
X110752510Y-101403571D01*
X110752510Y-101403571D02*
X110681081Y-101475000D01*
X110681081Y-101475000D02*
X110609652Y-101510714D01*
X110609652Y-101510714D02*
X110466795Y-101546428D01*
X110466795Y-101546428D02*
X110359652Y-101546428D01*
X110359652Y-101546428D02*
X110216795Y-101510714D01*
X110216795Y-101510714D02*
X110145367Y-101475000D01*
X110145367Y-101475000D02*
X110073938Y-101403571D01*
X110073938Y-101403571D02*
X110038224Y-101296428D01*
X110038224Y-101296428D02*
X110038224Y-101225000D01*
X110038224Y-101225000D02*
X110073938Y-101117857D01*
X110073938Y-101117857D02*
X110109652Y-101082143D01*
X110788224Y-100367857D02*
X110788224Y-100796428D01*
X110788224Y-100582143D02*
X110038224Y-100582143D01*
X110038224Y-100582143D02*
X110145367Y-100653571D01*
X110145367Y-100653571D02*
X110216795Y-100725000D01*
X110216795Y-100725000D02*
X110252510Y-100796428D01*
X110788224Y-99653571D02*
X110788224Y-100082142D01*
X110788224Y-99867857D02*
X110038224Y-99867857D01*
X110038224Y-99867857D02*
X110145367Y-99939285D01*
X110145367Y-99939285D02*
X110216795Y-100010714D01*
X110216795Y-100010714D02*
X110252510Y-100082142D01*
D11*
%TO.C,R4*%
X115470833Y-97254819D02*
X115137500Y-96778628D01*
X114899405Y-97254819D02*
X114899405Y-96254819D01*
X114899405Y-96254819D02*
X115280357Y-96254819D01*
X115280357Y-96254819D02*
X115375595Y-96302438D01*
X115375595Y-96302438D02*
X115423214Y-96350057D01*
X115423214Y-96350057D02*
X115470833Y-96445295D01*
X115470833Y-96445295D02*
X115470833Y-96588152D01*
X115470833Y-96588152D02*
X115423214Y-96683390D01*
X115423214Y-96683390D02*
X115375595Y-96731009D01*
X115375595Y-96731009D02*
X115280357Y-96778628D01*
X115280357Y-96778628D02*
X114899405Y-96778628D01*
X116327976Y-96588152D02*
X116327976Y-97254819D01*
X116089881Y-96207200D02*
X115851786Y-96921485D01*
X115851786Y-96921485D02*
X116470833Y-96921485D01*
%TO.C,R6*%
X91177319Y-83191666D02*
X90701128Y-83524999D01*
X91177319Y-83763094D02*
X90177319Y-83763094D01*
X90177319Y-83763094D02*
X90177319Y-83382142D01*
X90177319Y-83382142D02*
X90224938Y-83286904D01*
X90224938Y-83286904D02*
X90272557Y-83239285D01*
X90272557Y-83239285D02*
X90367795Y-83191666D01*
X90367795Y-83191666D02*
X90510652Y-83191666D01*
X90510652Y-83191666D02*
X90605890Y-83239285D01*
X90605890Y-83239285D02*
X90653509Y-83286904D01*
X90653509Y-83286904D02*
X90701128Y-83382142D01*
X90701128Y-83382142D02*
X90701128Y-83763094D01*
X90177319Y-82334523D02*
X90177319Y-82524999D01*
X90177319Y-82524999D02*
X90224938Y-82620237D01*
X90224938Y-82620237D02*
X90272557Y-82667856D01*
X90272557Y-82667856D02*
X90415414Y-82763094D01*
X90415414Y-82763094D02*
X90605890Y-82810713D01*
X90605890Y-82810713D02*
X90986842Y-82810713D01*
X90986842Y-82810713D02*
X91082080Y-82763094D01*
X91082080Y-82763094D02*
X91129700Y-82715475D01*
X91129700Y-82715475D02*
X91177319Y-82620237D01*
X91177319Y-82620237D02*
X91177319Y-82429761D01*
X91177319Y-82429761D02*
X91129700Y-82334523D01*
X91129700Y-82334523D02*
X91082080Y-82286904D01*
X91082080Y-82286904D02*
X90986842Y-82239285D01*
X90986842Y-82239285D02*
X90748747Y-82239285D01*
X90748747Y-82239285D02*
X90653509Y-82286904D01*
X90653509Y-82286904D02*
X90605890Y-82334523D01*
X90605890Y-82334523D02*
X90558271Y-82429761D01*
X90558271Y-82429761D02*
X90558271Y-82620237D01*
X90558271Y-82620237D02*
X90605890Y-82715475D01*
X90605890Y-82715475D02*
X90653509Y-82763094D01*
X90653509Y-82763094D02*
X90748747Y-82810713D01*
%TO.C,C36*%
X135237919Y-87907142D02*
X135190300Y-87859523D01*
X135190300Y-87859523D02*
X135142680Y-87716666D01*
X135142680Y-87716666D02*
X135142680Y-87621428D01*
X135142680Y-87621428D02*
X135190300Y-87478571D01*
X135190300Y-87478571D02*
X135285538Y-87383333D01*
X135285538Y-87383333D02*
X135380776Y-87335714D01*
X135380776Y-87335714D02*
X135571252Y-87288095D01*
X135571252Y-87288095D02*
X135714109Y-87288095D01*
X135714109Y-87288095D02*
X135904585Y-87335714D01*
X135904585Y-87335714D02*
X135999823Y-87383333D01*
X135999823Y-87383333D02*
X136095061Y-87478571D01*
X136095061Y-87478571D02*
X136142680Y-87621428D01*
X136142680Y-87621428D02*
X136142680Y-87716666D01*
X136142680Y-87716666D02*
X136095061Y-87859523D01*
X136095061Y-87859523D02*
X136047442Y-87907142D01*
X136142680Y-88240476D02*
X136142680Y-88859523D01*
X136142680Y-88859523D02*
X135761728Y-88526190D01*
X135761728Y-88526190D02*
X135761728Y-88669047D01*
X135761728Y-88669047D02*
X135714109Y-88764285D01*
X135714109Y-88764285D02*
X135666490Y-88811904D01*
X135666490Y-88811904D02*
X135571252Y-88859523D01*
X135571252Y-88859523D02*
X135333157Y-88859523D01*
X135333157Y-88859523D02*
X135237919Y-88811904D01*
X135237919Y-88811904D02*
X135190300Y-88764285D01*
X135190300Y-88764285D02*
X135142680Y-88669047D01*
X135142680Y-88669047D02*
X135142680Y-88383333D01*
X135142680Y-88383333D02*
X135190300Y-88288095D01*
X135190300Y-88288095D02*
X135237919Y-88240476D01*
X136142680Y-89716666D02*
X136142680Y-89526190D01*
X136142680Y-89526190D02*
X136095061Y-89430952D01*
X136095061Y-89430952D02*
X136047442Y-89383333D01*
X136047442Y-89383333D02*
X135904585Y-89288095D01*
X135904585Y-89288095D02*
X135714109Y-89240476D01*
X135714109Y-89240476D02*
X135333157Y-89240476D01*
X135333157Y-89240476D02*
X135237919Y-89288095D01*
X135237919Y-89288095D02*
X135190300Y-89335714D01*
X135190300Y-89335714D02*
X135142680Y-89430952D01*
X135142680Y-89430952D02*
X135142680Y-89621428D01*
X135142680Y-89621428D02*
X135190300Y-89716666D01*
X135190300Y-89716666D02*
X135237919Y-89764285D01*
X135237919Y-89764285D02*
X135333157Y-89811904D01*
X135333157Y-89811904D02*
X135571252Y-89811904D01*
X135571252Y-89811904D02*
X135666490Y-89764285D01*
X135666490Y-89764285D02*
X135714109Y-89716666D01*
X135714109Y-89716666D02*
X135761728Y-89621428D01*
X135761728Y-89621428D02*
X135761728Y-89430952D01*
X135761728Y-89430952D02*
X135714109Y-89335714D01*
X135714109Y-89335714D02*
X135666490Y-89288095D01*
X135666490Y-89288095D02*
X135571252Y-89240476D01*
D14*
%TO.C,C27*%
X190116795Y-101082143D02*
X190152510Y-101117857D01*
X190152510Y-101117857D02*
X190188224Y-101225000D01*
X190188224Y-101225000D02*
X190188224Y-101296428D01*
X190188224Y-101296428D02*
X190152510Y-101403571D01*
X190152510Y-101403571D02*
X190081081Y-101475000D01*
X190081081Y-101475000D02*
X190009652Y-101510714D01*
X190009652Y-101510714D02*
X189866795Y-101546428D01*
X189866795Y-101546428D02*
X189759652Y-101546428D01*
X189759652Y-101546428D02*
X189616795Y-101510714D01*
X189616795Y-101510714D02*
X189545367Y-101475000D01*
X189545367Y-101475000D02*
X189473938Y-101403571D01*
X189473938Y-101403571D02*
X189438224Y-101296428D01*
X189438224Y-101296428D02*
X189438224Y-101225000D01*
X189438224Y-101225000D02*
X189473938Y-101117857D01*
X189473938Y-101117857D02*
X189509652Y-101082143D01*
X189509652Y-100796428D02*
X189473938Y-100760714D01*
X189473938Y-100760714D02*
X189438224Y-100689286D01*
X189438224Y-100689286D02*
X189438224Y-100510714D01*
X189438224Y-100510714D02*
X189473938Y-100439286D01*
X189473938Y-100439286D02*
X189509652Y-100403571D01*
X189509652Y-100403571D02*
X189581081Y-100367857D01*
X189581081Y-100367857D02*
X189652510Y-100367857D01*
X189652510Y-100367857D02*
X189759652Y-100403571D01*
X189759652Y-100403571D02*
X190188224Y-100832143D01*
X190188224Y-100832143D02*
X190188224Y-100367857D01*
X189438224Y-100117857D02*
X189438224Y-99617857D01*
X189438224Y-99617857D02*
X190188224Y-99939285D01*
D11*
%TO.C,C9*%
X104712919Y-76583333D02*
X104665300Y-76535714D01*
X104665300Y-76535714D02*
X104617680Y-76392857D01*
X104617680Y-76392857D02*
X104617680Y-76297619D01*
X104617680Y-76297619D02*
X104665300Y-76154762D01*
X104665300Y-76154762D02*
X104760538Y-76059524D01*
X104760538Y-76059524D02*
X104855776Y-76011905D01*
X104855776Y-76011905D02*
X105046252Y-75964286D01*
X105046252Y-75964286D02*
X105189109Y-75964286D01*
X105189109Y-75964286D02*
X105379585Y-76011905D01*
X105379585Y-76011905D02*
X105474823Y-76059524D01*
X105474823Y-76059524D02*
X105570061Y-76154762D01*
X105570061Y-76154762D02*
X105617680Y-76297619D01*
X105617680Y-76297619D02*
X105617680Y-76392857D01*
X105617680Y-76392857D02*
X105570061Y-76535714D01*
X105570061Y-76535714D02*
X105522442Y-76583333D01*
X104617680Y-77059524D02*
X104617680Y-77250000D01*
X104617680Y-77250000D02*
X104665300Y-77345238D01*
X104665300Y-77345238D02*
X104712919Y-77392857D01*
X104712919Y-77392857D02*
X104855776Y-77488095D01*
X104855776Y-77488095D02*
X105046252Y-77535714D01*
X105046252Y-77535714D02*
X105427204Y-77535714D01*
X105427204Y-77535714D02*
X105522442Y-77488095D01*
X105522442Y-77488095D02*
X105570061Y-77440476D01*
X105570061Y-77440476D02*
X105617680Y-77345238D01*
X105617680Y-77345238D02*
X105617680Y-77154762D01*
X105617680Y-77154762D02*
X105570061Y-77059524D01*
X105570061Y-77059524D02*
X105522442Y-77011905D01*
X105522442Y-77011905D02*
X105427204Y-76964286D01*
X105427204Y-76964286D02*
X105189109Y-76964286D01*
X105189109Y-76964286D02*
X105093871Y-77011905D01*
X105093871Y-77011905D02*
X105046252Y-77059524D01*
X105046252Y-77059524D02*
X104998633Y-77154762D01*
X104998633Y-77154762D02*
X104998633Y-77345238D01*
X104998633Y-77345238D02*
X105046252Y-77440476D01*
X105046252Y-77440476D02*
X105093871Y-77488095D01*
X105093871Y-77488095D02*
X105189109Y-77535714D01*
D14*
%TO.C,C31*%
X210119295Y-101082143D02*
X210155010Y-101117857D01*
X210155010Y-101117857D02*
X210190724Y-101225000D01*
X210190724Y-101225000D02*
X210190724Y-101296428D01*
X210190724Y-101296428D02*
X210155010Y-101403571D01*
X210155010Y-101403571D02*
X210083581Y-101475000D01*
X210083581Y-101475000D02*
X210012152Y-101510714D01*
X210012152Y-101510714D02*
X209869295Y-101546428D01*
X209869295Y-101546428D02*
X209762152Y-101546428D01*
X209762152Y-101546428D02*
X209619295Y-101510714D01*
X209619295Y-101510714D02*
X209547867Y-101475000D01*
X209547867Y-101475000D02*
X209476438Y-101403571D01*
X209476438Y-101403571D02*
X209440724Y-101296428D01*
X209440724Y-101296428D02*
X209440724Y-101225000D01*
X209440724Y-101225000D02*
X209476438Y-101117857D01*
X209476438Y-101117857D02*
X209512152Y-101082143D01*
X209440724Y-100832143D02*
X209440724Y-100367857D01*
X209440724Y-100367857D02*
X209726438Y-100617857D01*
X209726438Y-100617857D02*
X209726438Y-100510714D01*
X209726438Y-100510714D02*
X209762152Y-100439286D01*
X209762152Y-100439286D02*
X209797867Y-100403571D01*
X209797867Y-100403571D02*
X209869295Y-100367857D01*
X209869295Y-100367857D02*
X210047867Y-100367857D01*
X210047867Y-100367857D02*
X210119295Y-100403571D01*
X210119295Y-100403571D02*
X210155010Y-100439286D01*
X210155010Y-100439286D02*
X210190724Y-100510714D01*
X210190724Y-100510714D02*
X210190724Y-100725000D01*
X210190724Y-100725000D02*
X210155010Y-100796428D01*
X210155010Y-100796428D02*
X210119295Y-100832143D01*
X210190724Y-99653571D02*
X210190724Y-100082142D01*
X210190724Y-99867857D02*
X209440724Y-99867857D01*
X209440724Y-99867857D02*
X209547867Y-99939285D01*
X209547867Y-99939285D02*
X209619295Y-100010714D01*
X209619295Y-100010714D02*
X209655010Y-100082142D01*
D11*
%TO.C,D9*%
X155061905Y-97554819D02*
X155061905Y-96554819D01*
X155061905Y-96554819D02*
X155300000Y-96554819D01*
X155300000Y-96554819D02*
X155442857Y-96602438D01*
X155442857Y-96602438D02*
X155538095Y-96697676D01*
X155538095Y-96697676D02*
X155585714Y-96792914D01*
X155585714Y-96792914D02*
X155633333Y-96983390D01*
X155633333Y-96983390D02*
X155633333Y-97126247D01*
X155633333Y-97126247D02*
X155585714Y-97316723D01*
X155585714Y-97316723D02*
X155538095Y-97411961D01*
X155538095Y-97411961D02*
X155442857Y-97507200D01*
X155442857Y-97507200D02*
X155300000Y-97554819D01*
X155300000Y-97554819D02*
X155061905Y-97554819D01*
X156109524Y-97554819D02*
X156300000Y-97554819D01*
X156300000Y-97554819D02*
X156395238Y-97507200D01*
X156395238Y-97507200D02*
X156442857Y-97459580D01*
X156442857Y-97459580D02*
X156538095Y-97316723D01*
X156538095Y-97316723D02*
X156585714Y-97126247D01*
X156585714Y-97126247D02*
X156585714Y-96745295D01*
X156585714Y-96745295D02*
X156538095Y-96650057D01*
X156538095Y-96650057D02*
X156490476Y-96602438D01*
X156490476Y-96602438D02*
X156395238Y-96554819D01*
X156395238Y-96554819D02*
X156204762Y-96554819D01*
X156204762Y-96554819D02*
X156109524Y-96602438D01*
X156109524Y-96602438D02*
X156061905Y-96650057D01*
X156061905Y-96650057D02*
X156014286Y-96745295D01*
X156014286Y-96745295D02*
X156014286Y-96983390D01*
X156014286Y-96983390D02*
X156061905Y-97078628D01*
X156061905Y-97078628D02*
X156109524Y-97126247D01*
X156109524Y-97126247D02*
X156204762Y-97173866D01*
X156204762Y-97173866D02*
X156395238Y-97173866D01*
X156395238Y-97173866D02*
X156490476Y-97126247D01*
X156490476Y-97126247D02*
X156538095Y-97078628D01*
X156538095Y-97078628D02*
X156585714Y-96983390D01*
%TO.C,U5*%
X100952319Y-93311904D02*
X101761842Y-93311904D01*
X101761842Y-93311904D02*
X101857080Y-93264285D01*
X101857080Y-93264285D02*
X101904700Y-93216666D01*
X101904700Y-93216666D02*
X101952319Y-93121428D01*
X101952319Y-93121428D02*
X101952319Y-92930952D01*
X101952319Y-92930952D02*
X101904700Y-92835714D01*
X101904700Y-92835714D02*
X101857080Y-92788095D01*
X101857080Y-92788095D02*
X101761842Y-92740476D01*
X101761842Y-92740476D02*
X100952319Y-92740476D01*
X100952319Y-91788095D02*
X100952319Y-92264285D01*
X100952319Y-92264285D02*
X101428509Y-92311904D01*
X101428509Y-92311904D02*
X101380890Y-92264285D01*
X101380890Y-92264285D02*
X101333271Y-92169047D01*
X101333271Y-92169047D02*
X101333271Y-91930952D01*
X101333271Y-91930952D02*
X101380890Y-91835714D01*
X101380890Y-91835714D02*
X101428509Y-91788095D01*
X101428509Y-91788095D02*
X101523747Y-91740476D01*
X101523747Y-91740476D02*
X101761842Y-91740476D01*
X101761842Y-91740476D02*
X101857080Y-91788095D01*
X101857080Y-91788095D02*
X101904700Y-91835714D01*
X101904700Y-91835714D02*
X101952319Y-91930952D01*
X101952319Y-91930952D02*
X101952319Y-92169047D01*
X101952319Y-92169047D02*
X101904700Y-92264285D01*
X101904700Y-92264285D02*
X101857080Y-92311904D01*
D14*
%TO.C,C33*%
X220119295Y-101082143D02*
X220155010Y-101117857D01*
X220155010Y-101117857D02*
X220190724Y-101225000D01*
X220190724Y-101225000D02*
X220190724Y-101296428D01*
X220190724Y-101296428D02*
X220155010Y-101403571D01*
X220155010Y-101403571D02*
X220083581Y-101475000D01*
X220083581Y-101475000D02*
X220012152Y-101510714D01*
X220012152Y-101510714D02*
X219869295Y-101546428D01*
X219869295Y-101546428D02*
X219762152Y-101546428D01*
X219762152Y-101546428D02*
X219619295Y-101510714D01*
X219619295Y-101510714D02*
X219547867Y-101475000D01*
X219547867Y-101475000D02*
X219476438Y-101403571D01*
X219476438Y-101403571D02*
X219440724Y-101296428D01*
X219440724Y-101296428D02*
X219440724Y-101225000D01*
X219440724Y-101225000D02*
X219476438Y-101117857D01*
X219476438Y-101117857D02*
X219512152Y-101082143D01*
X219440724Y-100832143D02*
X219440724Y-100367857D01*
X219440724Y-100367857D02*
X219726438Y-100617857D01*
X219726438Y-100617857D02*
X219726438Y-100510714D01*
X219726438Y-100510714D02*
X219762152Y-100439286D01*
X219762152Y-100439286D02*
X219797867Y-100403571D01*
X219797867Y-100403571D02*
X219869295Y-100367857D01*
X219869295Y-100367857D02*
X220047867Y-100367857D01*
X220047867Y-100367857D02*
X220119295Y-100403571D01*
X220119295Y-100403571D02*
X220155010Y-100439286D01*
X220155010Y-100439286D02*
X220190724Y-100510714D01*
X220190724Y-100510714D02*
X220190724Y-100725000D01*
X220190724Y-100725000D02*
X220155010Y-100796428D01*
X220155010Y-100796428D02*
X220119295Y-100832143D01*
X219440724Y-100117857D02*
X219440724Y-99653571D01*
X219440724Y-99653571D02*
X219726438Y-99903571D01*
X219726438Y-99903571D02*
X219726438Y-99796428D01*
X219726438Y-99796428D02*
X219762152Y-99725000D01*
X219762152Y-99725000D02*
X219797867Y-99689285D01*
X219797867Y-99689285D02*
X219869295Y-99653571D01*
X219869295Y-99653571D02*
X220047867Y-99653571D01*
X220047867Y-99653571D02*
X220119295Y-99689285D01*
X220119295Y-99689285D02*
X220155010Y-99725000D01*
X220155010Y-99725000D02*
X220190724Y-99796428D01*
X220190724Y-99796428D02*
X220190724Y-100010714D01*
X220190724Y-100010714D02*
X220155010Y-100082142D01*
X220155010Y-100082142D02*
X220119295Y-100117857D01*
D11*
%TO.C,C6*%
X88930833Y-83669580D02*
X88883214Y-83717200D01*
X88883214Y-83717200D02*
X88740357Y-83764819D01*
X88740357Y-83764819D02*
X88645119Y-83764819D01*
X88645119Y-83764819D02*
X88502262Y-83717200D01*
X88502262Y-83717200D02*
X88407024Y-83621961D01*
X88407024Y-83621961D02*
X88359405Y-83526723D01*
X88359405Y-83526723D02*
X88311786Y-83336247D01*
X88311786Y-83336247D02*
X88311786Y-83193390D01*
X88311786Y-83193390D02*
X88359405Y-83002914D01*
X88359405Y-83002914D02*
X88407024Y-82907676D01*
X88407024Y-82907676D02*
X88502262Y-82812438D01*
X88502262Y-82812438D02*
X88645119Y-82764819D01*
X88645119Y-82764819D02*
X88740357Y-82764819D01*
X88740357Y-82764819D02*
X88883214Y-82812438D01*
X88883214Y-82812438D02*
X88930833Y-82860057D01*
X89787976Y-82764819D02*
X89597500Y-82764819D01*
X89597500Y-82764819D02*
X89502262Y-82812438D01*
X89502262Y-82812438D02*
X89454643Y-82860057D01*
X89454643Y-82860057D02*
X89359405Y-83002914D01*
X89359405Y-83002914D02*
X89311786Y-83193390D01*
X89311786Y-83193390D02*
X89311786Y-83574342D01*
X89311786Y-83574342D02*
X89359405Y-83669580D01*
X89359405Y-83669580D02*
X89407024Y-83717200D01*
X89407024Y-83717200D02*
X89502262Y-83764819D01*
X89502262Y-83764819D02*
X89692738Y-83764819D01*
X89692738Y-83764819D02*
X89787976Y-83717200D01*
X89787976Y-83717200D02*
X89835595Y-83669580D01*
X89835595Y-83669580D02*
X89883214Y-83574342D01*
X89883214Y-83574342D02*
X89883214Y-83336247D01*
X89883214Y-83336247D02*
X89835595Y-83241009D01*
X89835595Y-83241009D02*
X89787976Y-83193390D01*
X89787976Y-83193390D02*
X89692738Y-83145771D01*
X89692738Y-83145771D02*
X89502262Y-83145771D01*
X89502262Y-83145771D02*
X89407024Y-83193390D01*
X89407024Y-83193390D02*
X89359405Y-83241009D01*
X89359405Y-83241009D02*
X89311786Y-83336247D01*
%TO.C,U1*%
X121752680Y-75278095D02*
X120943157Y-75278095D01*
X120943157Y-75278095D02*
X120847919Y-75325714D01*
X120847919Y-75325714D02*
X120800300Y-75373333D01*
X120800300Y-75373333D02*
X120752680Y-75468571D01*
X120752680Y-75468571D02*
X120752680Y-75659047D01*
X120752680Y-75659047D02*
X120800300Y-75754285D01*
X120800300Y-75754285D02*
X120847919Y-75801904D01*
X120847919Y-75801904D02*
X120943157Y-75849523D01*
X120943157Y-75849523D02*
X121752680Y-75849523D01*
X120752680Y-76849523D02*
X120752680Y-76278095D01*
X120752680Y-76563809D02*
X121752680Y-76563809D01*
X121752680Y-76563809D02*
X121609823Y-76468571D01*
X121609823Y-76468571D02*
X121514585Y-76373333D01*
X121514585Y-76373333D02*
X121466966Y-76278095D01*
%TO.C,C37*%
X131554642Y-96960580D02*
X131507023Y-97008200D01*
X131507023Y-97008200D02*
X131364166Y-97055819D01*
X131364166Y-97055819D02*
X131268928Y-97055819D01*
X131268928Y-97055819D02*
X131126071Y-97008200D01*
X131126071Y-97008200D02*
X131030833Y-96912961D01*
X131030833Y-96912961D02*
X130983214Y-96817723D01*
X130983214Y-96817723D02*
X130935595Y-96627247D01*
X130935595Y-96627247D02*
X130935595Y-96484390D01*
X130935595Y-96484390D02*
X130983214Y-96293914D01*
X130983214Y-96293914D02*
X131030833Y-96198676D01*
X131030833Y-96198676D02*
X131126071Y-96103438D01*
X131126071Y-96103438D02*
X131268928Y-96055819D01*
X131268928Y-96055819D02*
X131364166Y-96055819D01*
X131364166Y-96055819D02*
X131507023Y-96103438D01*
X131507023Y-96103438D02*
X131554642Y-96151057D01*
X131887976Y-96055819D02*
X132507023Y-96055819D01*
X132507023Y-96055819D02*
X132173690Y-96436771D01*
X132173690Y-96436771D02*
X132316547Y-96436771D01*
X132316547Y-96436771D02*
X132411785Y-96484390D01*
X132411785Y-96484390D02*
X132459404Y-96532009D01*
X132459404Y-96532009D02*
X132507023Y-96627247D01*
X132507023Y-96627247D02*
X132507023Y-96865342D01*
X132507023Y-96865342D02*
X132459404Y-96960580D01*
X132459404Y-96960580D02*
X132411785Y-97008200D01*
X132411785Y-97008200D02*
X132316547Y-97055819D01*
X132316547Y-97055819D02*
X132030833Y-97055819D01*
X132030833Y-97055819D02*
X131935595Y-97008200D01*
X131935595Y-97008200D02*
X131887976Y-96960580D01*
X132840357Y-96055819D02*
X133507023Y-96055819D01*
X133507023Y-96055819D02*
X133078452Y-97055819D01*
D14*
%TO.C,C29*%
X200116795Y-101082143D02*
X200152510Y-101117857D01*
X200152510Y-101117857D02*
X200188224Y-101225000D01*
X200188224Y-101225000D02*
X200188224Y-101296428D01*
X200188224Y-101296428D02*
X200152510Y-101403571D01*
X200152510Y-101403571D02*
X200081081Y-101475000D01*
X200081081Y-101475000D02*
X200009652Y-101510714D01*
X200009652Y-101510714D02*
X199866795Y-101546428D01*
X199866795Y-101546428D02*
X199759652Y-101546428D01*
X199759652Y-101546428D02*
X199616795Y-101510714D01*
X199616795Y-101510714D02*
X199545367Y-101475000D01*
X199545367Y-101475000D02*
X199473938Y-101403571D01*
X199473938Y-101403571D02*
X199438224Y-101296428D01*
X199438224Y-101296428D02*
X199438224Y-101225000D01*
X199438224Y-101225000D02*
X199473938Y-101117857D01*
X199473938Y-101117857D02*
X199509652Y-101082143D01*
X199509652Y-100796428D02*
X199473938Y-100760714D01*
X199473938Y-100760714D02*
X199438224Y-100689286D01*
X199438224Y-100689286D02*
X199438224Y-100510714D01*
X199438224Y-100510714D02*
X199473938Y-100439286D01*
X199473938Y-100439286D02*
X199509652Y-100403571D01*
X199509652Y-100403571D02*
X199581081Y-100367857D01*
X199581081Y-100367857D02*
X199652510Y-100367857D01*
X199652510Y-100367857D02*
X199759652Y-100403571D01*
X199759652Y-100403571D02*
X200188224Y-100832143D01*
X200188224Y-100832143D02*
X200188224Y-100367857D01*
X200188224Y-100010714D02*
X200188224Y-99867857D01*
X200188224Y-99867857D02*
X200152510Y-99796428D01*
X200152510Y-99796428D02*
X200116795Y-99760714D01*
X200116795Y-99760714D02*
X200009652Y-99689285D01*
X200009652Y-99689285D02*
X199866795Y-99653571D01*
X199866795Y-99653571D02*
X199581081Y-99653571D01*
X199581081Y-99653571D02*
X199509652Y-99689285D01*
X199509652Y-99689285D02*
X199473938Y-99725000D01*
X199473938Y-99725000D02*
X199438224Y-99796428D01*
X199438224Y-99796428D02*
X199438224Y-99939285D01*
X199438224Y-99939285D02*
X199473938Y-100010714D01*
X199473938Y-100010714D02*
X199509652Y-100046428D01*
X199509652Y-100046428D02*
X199581081Y-100082142D01*
X199581081Y-100082142D02*
X199759652Y-100082142D01*
X199759652Y-100082142D02*
X199831081Y-100046428D01*
X199831081Y-100046428D02*
X199866795Y-100010714D01*
X199866795Y-100010714D02*
X199902510Y-99939285D01*
X199902510Y-99939285D02*
X199902510Y-99796428D01*
X199902510Y-99796428D02*
X199866795Y-99725000D01*
X199866795Y-99725000D02*
X199831081Y-99689285D01*
X199831081Y-99689285D02*
X199759652Y-99653571D01*
%TO.C,C15*%
X130686795Y-101082143D02*
X130722510Y-101117857D01*
X130722510Y-101117857D02*
X130758224Y-101225000D01*
X130758224Y-101225000D02*
X130758224Y-101296428D01*
X130758224Y-101296428D02*
X130722510Y-101403571D01*
X130722510Y-101403571D02*
X130651081Y-101475000D01*
X130651081Y-101475000D02*
X130579652Y-101510714D01*
X130579652Y-101510714D02*
X130436795Y-101546428D01*
X130436795Y-101546428D02*
X130329652Y-101546428D01*
X130329652Y-101546428D02*
X130186795Y-101510714D01*
X130186795Y-101510714D02*
X130115367Y-101475000D01*
X130115367Y-101475000D02*
X130043938Y-101403571D01*
X130043938Y-101403571D02*
X130008224Y-101296428D01*
X130008224Y-101296428D02*
X130008224Y-101225000D01*
X130008224Y-101225000D02*
X130043938Y-101117857D01*
X130043938Y-101117857D02*
X130079652Y-101082143D01*
X130758224Y-100367857D02*
X130758224Y-100796428D01*
X130758224Y-100582143D02*
X130008224Y-100582143D01*
X130008224Y-100582143D02*
X130115367Y-100653571D01*
X130115367Y-100653571D02*
X130186795Y-100725000D01*
X130186795Y-100725000D02*
X130222510Y-100796428D01*
X130008224Y-99689285D02*
X130008224Y-100046428D01*
X130008224Y-100046428D02*
X130365367Y-100082142D01*
X130365367Y-100082142D02*
X130329652Y-100046428D01*
X130329652Y-100046428D02*
X130293938Y-99975000D01*
X130293938Y-99975000D02*
X130293938Y-99796428D01*
X130293938Y-99796428D02*
X130329652Y-99725000D01*
X130329652Y-99725000D02*
X130365367Y-99689285D01*
X130365367Y-99689285D02*
X130436795Y-99653571D01*
X130436795Y-99653571D02*
X130615367Y-99653571D01*
X130615367Y-99653571D02*
X130686795Y-99689285D01*
X130686795Y-99689285D02*
X130722510Y-99725000D01*
X130722510Y-99725000D02*
X130758224Y-99796428D01*
X130758224Y-99796428D02*
X130758224Y-99975000D01*
X130758224Y-99975000D02*
X130722510Y-100046428D01*
X130722510Y-100046428D02*
X130686795Y-100082142D01*
%TO.C,TP6*%
X136221571Y-91311724D02*
X136650143Y-91311724D01*
X136435857Y-92061724D02*
X136435857Y-91311724D01*
X136900143Y-92061724D02*
X136900143Y-91311724D01*
X136900143Y-91311724D02*
X137185857Y-91311724D01*
X137185857Y-91311724D02*
X137257286Y-91347438D01*
X137257286Y-91347438D02*
X137293000Y-91383152D01*
X137293000Y-91383152D02*
X137328714Y-91454581D01*
X137328714Y-91454581D02*
X137328714Y-91561724D01*
X137328714Y-91561724D02*
X137293000Y-91633152D01*
X137293000Y-91633152D02*
X137257286Y-91668867D01*
X137257286Y-91668867D02*
X137185857Y-91704581D01*
X137185857Y-91704581D02*
X136900143Y-91704581D01*
X137971572Y-91311724D02*
X137828714Y-91311724D01*
X137828714Y-91311724D02*
X137757286Y-91347438D01*
X137757286Y-91347438D02*
X137721572Y-91383152D01*
X137721572Y-91383152D02*
X137650143Y-91490295D01*
X137650143Y-91490295D02*
X137614429Y-91633152D01*
X137614429Y-91633152D02*
X137614429Y-91918867D01*
X137614429Y-91918867D02*
X137650143Y-91990295D01*
X137650143Y-91990295D02*
X137685857Y-92026010D01*
X137685857Y-92026010D02*
X137757286Y-92061724D01*
X137757286Y-92061724D02*
X137900143Y-92061724D01*
X137900143Y-92061724D02*
X137971572Y-92026010D01*
X137971572Y-92026010D02*
X138007286Y-91990295D01*
X138007286Y-91990295D02*
X138043000Y-91918867D01*
X138043000Y-91918867D02*
X138043000Y-91740295D01*
X138043000Y-91740295D02*
X138007286Y-91668867D01*
X138007286Y-91668867D02*
X137971572Y-91633152D01*
X137971572Y-91633152D02*
X137900143Y-91597438D01*
X137900143Y-91597438D02*
X137757286Y-91597438D01*
X137757286Y-91597438D02*
X137685857Y-91633152D01*
X137685857Y-91633152D02*
X137650143Y-91668867D01*
X137650143Y-91668867D02*
X137614429Y-91740295D01*
D11*
%TO.C,R2*%
X119330833Y-97254819D02*
X118997500Y-96778628D01*
X118759405Y-97254819D02*
X118759405Y-96254819D01*
X118759405Y-96254819D02*
X119140357Y-96254819D01*
X119140357Y-96254819D02*
X119235595Y-96302438D01*
X119235595Y-96302438D02*
X119283214Y-96350057D01*
X119283214Y-96350057D02*
X119330833Y-96445295D01*
X119330833Y-96445295D02*
X119330833Y-96588152D01*
X119330833Y-96588152D02*
X119283214Y-96683390D01*
X119283214Y-96683390D02*
X119235595Y-96731009D01*
X119235595Y-96731009D02*
X119140357Y-96778628D01*
X119140357Y-96778628D02*
X118759405Y-96778628D01*
X119711786Y-96350057D02*
X119759405Y-96302438D01*
X119759405Y-96302438D02*
X119854643Y-96254819D01*
X119854643Y-96254819D02*
X120092738Y-96254819D01*
X120092738Y-96254819D02*
X120187976Y-96302438D01*
X120187976Y-96302438D02*
X120235595Y-96350057D01*
X120235595Y-96350057D02*
X120283214Y-96445295D01*
X120283214Y-96445295D02*
X120283214Y-96540533D01*
X120283214Y-96540533D02*
X120235595Y-96683390D01*
X120235595Y-96683390D02*
X119664167Y-97254819D01*
X119664167Y-97254819D02*
X120283214Y-97254819D01*
%TO.C,R5*%
X91052319Y-88266666D02*
X90576128Y-88599999D01*
X91052319Y-88838094D02*
X90052319Y-88838094D01*
X90052319Y-88838094D02*
X90052319Y-88457142D01*
X90052319Y-88457142D02*
X90099938Y-88361904D01*
X90099938Y-88361904D02*
X90147557Y-88314285D01*
X90147557Y-88314285D02*
X90242795Y-88266666D01*
X90242795Y-88266666D02*
X90385652Y-88266666D01*
X90385652Y-88266666D02*
X90480890Y-88314285D01*
X90480890Y-88314285D02*
X90528509Y-88361904D01*
X90528509Y-88361904D02*
X90576128Y-88457142D01*
X90576128Y-88457142D02*
X90576128Y-88838094D01*
X90052319Y-87361904D02*
X90052319Y-87838094D01*
X90052319Y-87838094D02*
X90528509Y-87885713D01*
X90528509Y-87885713D02*
X90480890Y-87838094D01*
X90480890Y-87838094D02*
X90433271Y-87742856D01*
X90433271Y-87742856D02*
X90433271Y-87504761D01*
X90433271Y-87504761D02*
X90480890Y-87409523D01*
X90480890Y-87409523D02*
X90528509Y-87361904D01*
X90528509Y-87361904D02*
X90623747Y-87314285D01*
X90623747Y-87314285D02*
X90861842Y-87314285D01*
X90861842Y-87314285D02*
X90957080Y-87361904D01*
X90957080Y-87361904D02*
X91004700Y-87409523D01*
X91004700Y-87409523D02*
X91052319Y-87504761D01*
X91052319Y-87504761D02*
X91052319Y-87742856D01*
X91052319Y-87742856D02*
X91004700Y-87838094D01*
X91004700Y-87838094D02*
X90957080Y-87885713D01*
%TO.C,C40*%
X103254642Y-89799580D02*
X103207023Y-89847200D01*
X103207023Y-89847200D02*
X103064166Y-89894819D01*
X103064166Y-89894819D02*
X102968928Y-89894819D01*
X102968928Y-89894819D02*
X102826071Y-89847200D01*
X102826071Y-89847200D02*
X102730833Y-89751961D01*
X102730833Y-89751961D02*
X102683214Y-89656723D01*
X102683214Y-89656723D02*
X102635595Y-89466247D01*
X102635595Y-89466247D02*
X102635595Y-89323390D01*
X102635595Y-89323390D02*
X102683214Y-89132914D01*
X102683214Y-89132914D02*
X102730833Y-89037676D01*
X102730833Y-89037676D02*
X102826071Y-88942438D01*
X102826071Y-88942438D02*
X102968928Y-88894819D01*
X102968928Y-88894819D02*
X103064166Y-88894819D01*
X103064166Y-88894819D02*
X103207023Y-88942438D01*
X103207023Y-88942438D02*
X103254642Y-88990057D01*
X104111785Y-89228152D02*
X104111785Y-89894819D01*
X103873690Y-88847200D02*
X103635595Y-89561485D01*
X103635595Y-89561485D02*
X104254642Y-89561485D01*
X104826071Y-88894819D02*
X104921309Y-88894819D01*
X104921309Y-88894819D02*
X105016547Y-88942438D01*
X105016547Y-88942438D02*
X105064166Y-88990057D01*
X105064166Y-88990057D02*
X105111785Y-89085295D01*
X105111785Y-89085295D02*
X105159404Y-89275771D01*
X105159404Y-89275771D02*
X105159404Y-89513866D01*
X105159404Y-89513866D02*
X105111785Y-89704342D01*
X105111785Y-89704342D02*
X105064166Y-89799580D01*
X105064166Y-89799580D02*
X105016547Y-89847200D01*
X105016547Y-89847200D02*
X104921309Y-89894819D01*
X104921309Y-89894819D02*
X104826071Y-89894819D01*
X104826071Y-89894819D02*
X104730833Y-89847200D01*
X104730833Y-89847200D02*
X104683214Y-89799580D01*
X104683214Y-89799580D02*
X104635595Y-89704342D01*
X104635595Y-89704342D02*
X104587976Y-89513866D01*
X104587976Y-89513866D02*
X104587976Y-89275771D01*
X104587976Y-89275771D02*
X104635595Y-89085295D01*
X104635595Y-89085295D02*
X104683214Y-88990057D01*
X104683214Y-88990057D02*
X104730833Y-88942438D01*
X104730833Y-88942438D02*
X104826071Y-88894819D01*
%TO.C,C4*%
X102987080Y-84866666D02*
X103034700Y-84914285D01*
X103034700Y-84914285D02*
X103082319Y-85057142D01*
X103082319Y-85057142D02*
X103082319Y-85152380D01*
X103082319Y-85152380D02*
X103034700Y-85295237D01*
X103034700Y-85295237D02*
X102939461Y-85390475D01*
X102939461Y-85390475D02*
X102844223Y-85438094D01*
X102844223Y-85438094D02*
X102653747Y-85485713D01*
X102653747Y-85485713D02*
X102510890Y-85485713D01*
X102510890Y-85485713D02*
X102320414Y-85438094D01*
X102320414Y-85438094D02*
X102225176Y-85390475D01*
X102225176Y-85390475D02*
X102129938Y-85295237D01*
X102129938Y-85295237D02*
X102082319Y-85152380D01*
X102082319Y-85152380D02*
X102082319Y-85057142D01*
X102082319Y-85057142D02*
X102129938Y-84914285D01*
X102129938Y-84914285D02*
X102177557Y-84866666D01*
X102415652Y-84009523D02*
X103082319Y-84009523D01*
X102034700Y-84247618D02*
X102748985Y-84485713D01*
X102748985Y-84485713D02*
X102748985Y-83866666D01*
%TO.C,C39*%
X100637919Y-87982142D02*
X100590300Y-87934523D01*
X100590300Y-87934523D02*
X100542680Y-87791666D01*
X100542680Y-87791666D02*
X100542680Y-87696428D01*
X100542680Y-87696428D02*
X100590300Y-87553571D01*
X100590300Y-87553571D02*
X100685538Y-87458333D01*
X100685538Y-87458333D02*
X100780776Y-87410714D01*
X100780776Y-87410714D02*
X100971252Y-87363095D01*
X100971252Y-87363095D02*
X101114109Y-87363095D01*
X101114109Y-87363095D02*
X101304585Y-87410714D01*
X101304585Y-87410714D02*
X101399823Y-87458333D01*
X101399823Y-87458333D02*
X101495061Y-87553571D01*
X101495061Y-87553571D02*
X101542680Y-87696428D01*
X101542680Y-87696428D02*
X101542680Y-87791666D01*
X101542680Y-87791666D02*
X101495061Y-87934523D01*
X101495061Y-87934523D02*
X101447442Y-87982142D01*
X101542680Y-88315476D02*
X101542680Y-88934523D01*
X101542680Y-88934523D02*
X101161728Y-88601190D01*
X101161728Y-88601190D02*
X101161728Y-88744047D01*
X101161728Y-88744047D02*
X101114109Y-88839285D01*
X101114109Y-88839285D02*
X101066490Y-88886904D01*
X101066490Y-88886904D02*
X100971252Y-88934523D01*
X100971252Y-88934523D02*
X100733157Y-88934523D01*
X100733157Y-88934523D02*
X100637919Y-88886904D01*
X100637919Y-88886904D02*
X100590300Y-88839285D01*
X100590300Y-88839285D02*
X100542680Y-88744047D01*
X100542680Y-88744047D02*
X100542680Y-88458333D01*
X100542680Y-88458333D02*
X100590300Y-88363095D01*
X100590300Y-88363095D02*
X100637919Y-88315476D01*
X100542680Y-89410714D02*
X100542680Y-89601190D01*
X100542680Y-89601190D02*
X100590300Y-89696428D01*
X100590300Y-89696428D02*
X100637919Y-89744047D01*
X100637919Y-89744047D02*
X100780776Y-89839285D01*
X100780776Y-89839285D02*
X100971252Y-89886904D01*
X100971252Y-89886904D02*
X101352204Y-89886904D01*
X101352204Y-89886904D02*
X101447442Y-89839285D01*
X101447442Y-89839285D02*
X101495061Y-89791666D01*
X101495061Y-89791666D02*
X101542680Y-89696428D01*
X101542680Y-89696428D02*
X101542680Y-89505952D01*
X101542680Y-89505952D02*
X101495061Y-89410714D01*
X101495061Y-89410714D02*
X101447442Y-89363095D01*
X101447442Y-89363095D02*
X101352204Y-89315476D01*
X101352204Y-89315476D02*
X101114109Y-89315476D01*
X101114109Y-89315476D02*
X101018871Y-89363095D01*
X101018871Y-89363095D02*
X100971252Y-89410714D01*
X100971252Y-89410714D02*
X100923633Y-89505952D01*
X100923633Y-89505952D02*
X100923633Y-89696428D01*
X100923633Y-89696428D02*
X100971252Y-89791666D01*
X100971252Y-89791666D02*
X101018871Y-89839285D01*
X101018871Y-89839285D02*
X101114109Y-89886904D01*
%TO.C,C5*%
X93940833Y-78909580D02*
X93893214Y-78957200D01*
X93893214Y-78957200D02*
X93750357Y-79004819D01*
X93750357Y-79004819D02*
X93655119Y-79004819D01*
X93655119Y-79004819D02*
X93512262Y-78957200D01*
X93512262Y-78957200D02*
X93417024Y-78861961D01*
X93417024Y-78861961D02*
X93369405Y-78766723D01*
X93369405Y-78766723D02*
X93321786Y-78576247D01*
X93321786Y-78576247D02*
X93321786Y-78433390D01*
X93321786Y-78433390D02*
X93369405Y-78242914D01*
X93369405Y-78242914D02*
X93417024Y-78147676D01*
X93417024Y-78147676D02*
X93512262Y-78052438D01*
X93512262Y-78052438D02*
X93655119Y-78004819D01*
X93655119Y-78004819D02*
X93750357Y-78004819D01*
X93750357Y-78004819D02*
X93893214Y-78052438D01*
X93893214Y-78052438D02*
X93940833Y-78100057D01*
X94845595Y-78004819D02*
X94369405Y-78004819D01*
X94369405Y-78004819D02*
X94321786Y-78481009D01*
X94321786Y-78481009D02*
X94369405Y-78433390D01*
X94369405Y-78433390D02*
X94464643Y-78385771D01*
X94464643Y-78385771D02*
X94702738Y-78385771D01*
X94702738Y-78385771D02*
X94797976Y-78433390D01*
X94797976Y-78433390D02*
X94845595Y-78481009D01*
X94845595Y-78481009D02*
X94893214Y-78576247D01*
X94893214Y-78576247D02*
X94893214Y-78814342D01*
X94893214Y-78814342D02*
X94845595Y-78909580D01*
X94845595Y-78909580D02*
X94797976Y-78957200D01*
X94797976Y-78957200D02*
X94702738Y-79004819D01*
X94702738Y-79004819D02*
X94464643Y-79004819D01*
X94464643Y-79004819D02*
X94369405Y-78957200D01*
X94369405Y-78957200D02*
X94321786Y-78909580D01*
%TO.C,R8*%
X91930833Y-79004819D02*
X91597500Y-78528628D01*
X91359405Y-79004819D02*
X91359405Y-78004819D01*
X91359405Y-78004819D02*
X91740357Y-78004819D01*
X91740357Y-78004819D02*
X91835595Y-78052438D01*
X91835595Y-78052438D02*
X91883214Y-78100057D01*
X91883214Y-78100057D02*
X91930833Y-78195295D01*
X91930833Y-78195295D02*
X91930833Y-78338152D01*
X91930833Y-78338152D02*
X91883214Y-78433390D01*
X91883214Y-78433390D02*
X91835595Y-78481009D01*
X91835595Y-78481009D02*
X91740357Y-78528628D01*
X91740357Y-78528628D02*
X91359405Y-78528628D01*
X92502262Y-78433390D02*
X92407024Y-78385771D01*
X92407024Y-78385771D02*
X92359405Y-78338152D01*
X92359405Y-78338152D02*
X92311786Y-78242914D01*
X92311786Y-78242914D02*
X92311786Y-78195295D01*
X92311786Y-78195295D02*
X92359405Y-78100057D01*
X92359405Y-78100057D02*
X92407024Y-78052438D01*
X92407024Y-78052438D02*
X92502262Y-78004819D01*
X92502262Y-78004819D02*
X92692738Y-78004819D01*
X92692738Y-78004819D02*
X92787976Y-78052438D01*
X92787976Y-78052438D02*
X92835595Y-78100057D01*
X92835595Y-78100057D02*
X92883214Y-78195295D01*
X92883214Y-78195295D02*
X92883214Y-78242914D01*
X92883214Y-78242914D02*
X92835595Y-78338152D01*
X92835595Y-78338152D02*
X92787976Y-78385771D01*
X92787976Y-78385771D02*
X92692738Y-78433390D01*
X92692738Y-78433390D02*
X92502262Y-78433390D01*
X92502262Y-78433390D02*
X92407024Y-78481009D01*
X92407024Y-78481009D02*
X92359405Y-78528628D01*
X92359405Y-78528628D02*
X92311786Y-78623866D01*
X92311786Y-78623866D02*
X92311786Y-78814342D01*
X92311786Y-78814342D02*
X92359405Y-78909580D01*
X92359405Y-78909580D02*
X92407024Y-78957200D01*
X92407024Y-78957200D02*
X92502262Y-79004819D01*
X92502262Y-79004819D02*
X92692738Y-79004819D01*
X92692738Y-79004819D02*
X92787976Y-78957200D01*
X92787976Y-78957200D02*
X92835595Y-78909580D01*
X92835595Y-78909580D02*
X92883214Y-78814342D01*
X92883214Y-78814342D02*
X92883214Y-78623866D01*
X92883214Y-78623866D02*
X92835595Y-78528628D01*
X92835595Y-78528628D02*
X92787976Y-78481009D01*
X92787976Y-78481009D02*
X92692738Y-78433390D01*
%TO.C,R11*%
X141903180Y-93148142D02*
X142379371Y-92814809D01*
X141903180Y-92576714D02*
X142903180Y-92576714D01*
X142903180Y-92576714D02*
X142903180Y-92957666D01*
X142903180Y-92957666D02*
X142855561Y-93052904D01*
X142855561Y-93052904D02*
X142807942Y-93100523D01*
X142807942Y-93100523D02*
X142712704Y-93148142D01*
X142712704Y-93148142D02*
X142569847Y-93148142D01*
X142569847Y-93148142D02*
X142474609Y-93100523D01*
X142474609Y-93100523D02*
X142426990Y-93052904D01*
X142426990Y-93052904D02*
X142379371Y-92957666D01*
X142379371Y-92957666D02*
X142379371Y-92576714D01*
X141903180Y-94100523D02*
X141903180Y-93529095D01*
X141903180Y-93814809D02*
X142903180Y-93814809D01*
X142903180Y-93814809D02*
X142760323Y-93719571D01*
X142760323Y-93719571D02*
X142665085Y-93624333D01*
X142665085Y-93624333D02*
X142617466Y-93529095D01*
X141903180Y-95052904D02*
X141903180Y-94481476D01*
X141903180Y-94767190D02*
X142903180Y-94767190D01*
X142903180Y-94767190D02*
X142760323Y-94671952D01*
X142760323Y-94671952D02*
X142665085Y-94576714D01*
X142665085Y-94576714D02*
X142617466Y-94481476D01*
D14*
%TO.C,C19*%
X151337500Y-100740580D02*
X151337500Y-100459420D01*
X152357500Y-100740580D02*
X152357500Y-100459420D01*
%TO.C,D5*%
X132150000Y-97850000D02*
X139450000Y-97850000D01*
X132150000Y-103350000D02*
X139450000Y-103350000D01*
X139450000Y-103350000D02*
X139450000Y-102200000D01*
%TO.C,D1*%
X112150000Y-97850000D02*
X119450000Y-97850000D01*
X112150000Y-103350000D02*
X119450000Y-103350000D01*
X119450000Y-103350000D02*
X119450000Y-102200000D01*
%TO.C,TP5*%
X128958884Y-86951000D02*
X128958884Y-88851000D01*
X127058884Y-86951000D02*
X128958884Y-86951000D01*
X128958884Y-88851000D02*
X127058884Y-88851000D01*
X127058884Y-88851000D02*
X127058884Y-86951000D01*
%TO.C,C8*%
X96412500Y-101661252D02*
X96412500Y-101138748D01*
X97882500Y-101661252D02*
X97882500Y-101138748D01*
%TO.C,D13*%
X172150000Y-97850000D02*
X179450000Y-97850000D01*
X172150000Y-103350000D02*
X179450000Y-103350000D01*
X179450000Y-103350000D02*
X179450000Y-102200000D01*
%TO.C,R17*%
X95982500Y-91802936D02*
X95982500Y-92257064D01*
X94512500Y-91802936D02*
X94512500Y-92257064D01*
%TO.C,C3*%
X104586248Y-81965000D02*
X105108752Y-81965000D01*
X104586248Y-83435000D02*
X105108752Y-83435000D01*
D11*
%TO.C,SW1*%
X88697500Y-84790000D02*
X88697500Y-93390000D01*
X84097500Y-84790000D02*
X84097500Y-86990000D01*
X84097500Y-91090000D02*
X84097500Y-93390000D01*
D14*
%TO.C,D27*%
X89372500Y-95975000D02*
X89372500Y-94505000D01*
X89372500Y-94505000D02*
X87087500Y-94505000D01*
X87087500Y-95975000D02*
X89372500Y-95975000D01*
%TO.C,D7*%
X142150000Y-97850000D02*
X149450000Y-97850000D01*
X142150000Y-103350000D02*
X149450000Y-103350000D01*
X149450000Y-103350000D02*
X149450000Y-102200000D01*
%TO.C,R14*%
X103990000Y-99327064D02*
X103990000Y-98872936D01*
X105460000Y-99327064D02*
X105460000Y-98872936D01*
%TO.C,D11*%
X162150000Y-97850000D02*
X169450000Y-97850000D01*
X162150000Y-103350000D02*
X169450000Y-103350000D01*
X169450000Y-103350000D02*
X169450000Y-102200000D01*
%TO.C,C35*%
X91747500Y-91240580D02*
X91747500Y-90959420D01*
X92767500Y-91240580D02*
X92767500Y-90959420D01*
%TO.C,R3*%
X105074564Y-87435000D02*
X104620436Y-87435000D01*
X105074564Y-85965000D02*
X104620436Y-85965000D01*
%TO.C,R1*%
X111042500Y-94727064D02*
X111042500Y-94272936D01*
X112512500Y-94727064D02*
X112512500Y-94272936D01*
%TO.C,R10*%
X136763000Y-94018064D02*
X136763000Y-93563936D01*
X138233000Y-94018064D02*
X138233000Y-93563936D01*
%TO.C,Q1*%
X101838384Y-97540000D02*
X100163384Y-97540000D01*
X101838384Y-97540000D02*
X102488384Y-97540000D01*
X101838384Y-100660000D02*
X101188384Y-100660000D01*
X101838384Y-100660000D02*
X102488384Y-100660000D01*
%TO.C,R12*%
X129700936Y-84966000D02*
X130155064Y-84966000D01*
X129700936Y-86436000D02*
X130155064Y-86436000D01*
%TO.C,U4*%
X133758000Y-92038500D02*
X133758000Y-90238500D01*
X133758000Y-92038500D02*
X133758000Y-92838500D01*
X130638000Y-92038500D02*
X130638000Y-91238500D01*
X130638000Y-92038500D02*
X130638000Y-92838500D01*
%TO.C,C21*%
X161337500Y-100740580D02*
X161337500Y-100459420D01*
X162357500Y-100740580D02*
X162357500Y-100459420D01*
%TO.C,C1*%
X112972500Y-94761252D02*
X112972500Y-94238748D01*
X114442500Y-94761252D02*
X114442500Y-94238748D01*
%TO.C,C10*%
X99472500Y-98150000D02*
X98847500Y-98150000D01*
X99160000Y-98462500D02*
X99160000Y-97837500D01*
X98607500Y-98495563D02*
X98607500Y-97860000D01*
X98607500Y-98495563D02*
X97543063Y-99560000D01*
X98607500Y-95104437D02*
X98607500Y-95740000D01*
X98607500Y-95104437D02*
X97543063Y-94040000D01*
X97543063Y-99560000D02*
X93087500Y-99560000D01*
X97543063Y-94040000D02*
X93087500Y-94040000D01*
X93087500Y-99560000D02*
X93087500Y-97860000D01*
X93087500Y-94040000D02*
X93087500Y-95740000D01*
%TO.C,D25*%
X86358384Y-104560000D02*
X89658384Y-104560000D01*
X86358384Y-104560000D02*
X86358384Y-99050000D01*
X89658384Y-104560000D02*
X89658384Y-99050000D01*
%TO.C,C17*%
X141337500Y-100740580D02*
X141337500Y-100459420D01*
X142357500Y-100740580D02*
X142357500Y-100459420D01*
%TO.C,J3*%
X133597500Y-83310000D02*
X133597500Y-82060000D01*
X133297500Y-83010000D02*
X133297500Y-78290000D01*
X133297500Y-81700000D02*
X132687500Y-81700000D01*
X133297500Y-80400000D02*
X132687500Y-80400000D01*
X133297500Y-78290000D02*
X127177500Y-78290000D01*
X132687500Y-82400000D02*
X132687500Y-78900000D01*
X132687500Y-78900000D02*
X127787500Y-78900000D01*
X132347500Y-83310000D02*
X133597500Y-83310000D01*
X131837500Y-83210000D02*
X131837500Y-83010000D01*
X131537500Y-83210000D02*
X131837500Y-83210000D01*
X131537500Y-83110000D02*
X131837500Y-83110000D01*
X131537500Y-83010000D02*
X131537500Y-83210000D01*
X130737500Y-83010000D02*
X130737500Y-82400000D01*
X130737500Y-82400000D02*
X132687500Y-82400000D01*
X130337500Y-79400000D02*
X130137500Y-79400000D01*
X130337500Y-78900000D02*
X130337500Y-79400000D01*
X130237500Y-78900000D02*
X130237500Y-79400000D01*
X130137500Y-79400000D02*
X130137500Y-78900000D01*
X129737500Y-82400000D02*
X129737500Y-83010000D01*
X127787500Y-82400000D02*
X129737500Y-82400000D01*
X127787500Y-78900000D02*
X127787500Y-82400000D01*
X127177500Y-83010000D02*
X133297500Y-83010000D01*
X127177500Y-81700000D02*
X127787500Y-81700000D01*
X127177500Y-80400000D02*
X127787500Y-80400000D01*
X127177500Y-78290000D02*
X127177500Y-83010000D01*
%TO.C,C13*%
X121337500Y-100740580D02*
X121337500Y-100459420D01*
X122357500Y-100740580D02*
X122357500Y-100459420D01*
%TO.C,J2*%
X126278000Y-89181000D02*
X124948000Y-89181000D01*
X126278000Y-87851000D02*
X126278000Y-89181000D01*
X126278000Y-86581000D02*
X126278000Y-81441000D01*
X126278000Y-86581000D02*
X123678000Y-86581000D01*
X126278000Y-81441000D02*
X121078000Y-81441000D01*
X123678000Y-89181000D02*
X121078000Y-89181000D01*
X123678000Y-86581000D02*
X123678000Y-89181000D01*
X121078000Y-89181000D02*
X121078000Y-81441000D01*
%TO.C,C42*%
X100917500Y-95040580D02*
X100917500Y-94759420D01*
X101937500Y-95040580D02*
X101937500Y-94759420D01*
%TO.C,TP1*%
X127058884Y-93226000D02*
X128958884Y-93226000D01*
X127058884Y-95126000D02*
X127058884Y-93226000D01*
X128958884Y-93226000D02*
X128958884Y-95126000D01*
X128958884Y-95126000D02*
X127058884Y-95126000D01*
%TO.C,R7*%
X99995000Y-83862742D02*
X99995000Y-84337258D01*
X98950000Y-83862742D02*
X98950000Y-84337258D01*
%TO.C,C23*%
X171337500Y-100740580D02*
X171337500Y-100459420D01*
X172357500Y-100740580D02*
X172357500Y-100459420D01*
%TO.C,C38*%
X96536248Y-79215000D02*
X97058752Y-79215000D01*
X96536248Y-80685000D02*
X97058752Y-80685000D01*
%TO.C,C7*%
X90012500Y-101661252D02*
X90012500Y-101138748D01*
X91482500Y-101661252D02*
X91482500Y-101138748D01*
%TO.C,U2*%
X98337500Y-86620000D02*
X98337500Y-83170000D01*
X98337500Y-86620000D02*
X98337500Y-88570000D01*
X93217500Y-86620000D02*
X93217500Y-84670000D01*
X93217500Y-86620000D02*
X93217500Y-88570000D01*
%TO.C,C2*%
X116832500Y-94761252D02*
X116832500Y-94238748D01*
X118302500Y-94761252D02*
X118302500Y-94238748D01*
%TO.C,R13*%
X133525064Y-86436000D02*
X133070936Y-86436000D01*
X133525064Y-84966000D02*
X133070936Y-84966000D01*
%TO.C,D23*%
X222150000Y-97850000D02*
X229450000Y-97850000D01*
X222150000Y-103350000D02*
X229450000Y-103350000D01*
X229450000Y-103350000D02*
X229450000Y-102200000D01*
%TO.C,TP3*%
X109307500Y-101960000D02*
X109307500Y-103860000D01*
X107407500Y-101960000D02*
X109307500Y-101960000D01*
X109307500Y-103860000D02*
X107407500Y-103860000D01*
X107407500Y-103860000D02*
X107407500Y-101960000D01*
%TO.C,U3*%
X93947500Y-99840000D02*
X92147500Y-99840000D01*
X93947500Y-99840000D02*
X94747500Y-99840000D01*
X93947500Y-102960000D02*
X93147500Y-102960000D01*
X93947500Y-102960000D02*
X94747500Y-102960000D01*
%TO.C,C41*%
X97982500Y-91768748D02*
X97982500Y-92291252D01*
X96512500Y-91768748D02*
X96512500Y-92291252D01*
%TO.C,TP2*%
X109297500Y-99420000D02*
X109297500Y-101320000D01*
X107397500Y-99420000D02*
X109297500Y-99420000D01*
X109297500Y-101320000D02*
X107397500Y-101320000D01*
X107397500Y-101320000D02*
X107397500Y-99420000D01*
%TO.C,C25*%
X181337500Y-100740580D02*
X181337500Y-100459420D01*
X182357500Y-100740580D02*
X182357500Y-100459420D01*
%TO.C,TP4*%
X128958884Y-91351000D02*
X127058884Y-91351000D01*
X128958884Y-89451000D02*
X128958884Y-91351000D01*
X127058884Y-91351000D02*
X127058884Y-89451000D01*
X127058884Y-89451000D02*
X128958884Y-89451000D01*
%TO.C,D15*%
X182150000Y-97850000D02*
X189450000Y-97850000D01*
X182150000Y-103350000D02*
X189450000Y-103350000D01*
X189450000Y-103350000D02*
X189450000Y-102200000D01*
%TO.C,D26*%
X86402500Y-95975000D02*
X86402500Y-97445000D01*
X86402500Y-97445000D02*
X88687500Y-97445000D01*
X88687500Y-95975000D02*
X86402500Y-95975000D01*
%TO.C,D17*%
X192150000Y-97850000D02*
X199450000Y-97850000D01*
X192150000Y-103350000D02*
X199450000Y-103350000D01*
X199450000Y-103350000D02*
X199450000Y-102200000D01*
%TO.C,D21*%
X212150000Y-97850000D02*
X219450000Y-97850000D01*
X212150000Y-103350000D02*
X219450000Y-103350000D01*
X219450000Y-103350000D02*
X219450000Y-102200000D01*
%TO.C,MK1*%
X87617500Y-75270000D02*
X88947500Y-75270000D01*
X87617500Y-76600000D02*
X87617500Y-75270000D01*
X87617500Y-77870000D02*
X87617500Y-80470000D01*
X87617500Y-77870000D02*
X90277500Y-77870000D01*
X87617500Y-80470000D02*
X90277500Y-80470000D01*
X90277500Y-77870000D02*
X90277500Y-80470000D01*
%TO.C,R9*%
X97024564Y-82635000D02*
X96570436Y-82635000D01*
X97024564Y-81165000D02*
X96570436Y-81165000D01*
%TO.C,D19*%
X202150000Y-97850000D02*
X209450000Y-97850000D01*
X202150000Y-103350000D02*
X209450000Y-103350000D01*
X209450000Y-103350000D02*
X209450000Y-102200000D01*
%TO.C,D3*%
X122150000Y-97850000D02*
X129450000Y-97850000D01*
X122150000Y-103350000D02*
X129450000Y-103350000D01*
X129450000Y-103350000D02*
X129450000Y-102200000D01*
%TO.C,C11*%
X111337500Y-100740580D02*
X111337500Y-100459420D01*
X112357500Y-100740580D02*
X112357500Y-100459420D01*
%TO.C,R4*%
X116372500Y-94272936D02*
X116372500Y-94727064D01*
X114902500Y-94272936D02*
X114902500Y-94727064D01*
%TO.C,R6*%
X92842500Y-84132936D02*
X92842500Y-84587064D01*
X91372500Y-84132936D02*
X91372500Y-84587064D01*
%TO.C,C36*%
X132459252Y-89686000D02*
X131936748Y-89686000D01*
X132459252Y-88216000D02*
X131936748Y-88216000D01*
%TO.C,C27*%
X191337500Y-100740580D02*
X191337500Y-100459420D01*
X192357500Y-100740580D02*
X192357500Y-100459420D01*
%TO.C,C9*%
X100237500Y-82425000D02*
X100237500Y-81800000D01*
X99925000Y-82112500D02*
X100550000Y-82112500D01*
X99911937Y-81560000D02*
X100547500Y-81560000D01*
X99911937Y-81560000D02*
X98847500Y-80495563D01*
X103303063Y-81560000D02*
X102667500Y-81560000D01*
X103303063Y-81560000D02*
X104367500Y-80495563D01*
X98847500Y-80495563D02*
X98847500Y-76040000D01*
X104367500Y-80495563D02*
X104367500Y-76040000D01*
X98847500Y-76040000D02*
X100547500Y-76040000D01*
X104367500Y-76040000D02*
X102667500Y-76040000D01*
%TO.C,C31*%
X211315000Y-100740580D02*
X211315000Y-100459420D01*
X212335000Y-100740580D02*
X212335000Y-100459420D01*
%TO.C,D9*%
X152150000Y-97850000D02*
X159450000Y-97850000D01*
X152150000Y-103350000D02*
X159450000Y-103350000D01*
X159450000Y-103350000D02*
X159450000Y-102200000D01*
%TO.C,U5*%
X105897500Y-97175000D02*
X109347500Y-97175000D01*
X105897500Y-97175000D02*
X103947500Y-97175000D01*
X105897500Y-92055000D02*
X107847500Y-92055000D01*
X105897500Y-92055000D02*
X103947500Y-92055000D01*
%TO.C,C33*%
X221340000Y-100740580D02*
X221340000Y-100459420D01*
X222360000Y-100740580D02*
X222360000Y-100459420D01*
%TO.C,C6*%
X90812500Y-85188748D02*
X90812500Y-85711252D01*
X89342500Y-85188748D02*
X89342500Y-85711252D01*
%TO.C,U1*%
X106855500Y-91010000D02*
X106855500Y-91810000D01*
X106855500Y-91810000D02*
X107655500Y-91810000D01*
X107055500Y-75010000D02*
X120255500Y-75010000D01*
X107055500Y-80410000D02*
X120255500Y-80410000D01*
X107055500Y-91610000D02*
X107055500Y-75010000D01*
X107730500Y-74810000D02*
X106880500Y-74810000D01*
X119705500Y-74810000D02*
X120455500Y-74810000D01*
X120255500Y-75010000D02*
X120255500Y-91610000D01*
X120255500Y-91610000D02*
X107055500Y-91610000D01*
X120455500Y-74810000D02*
X120455500Y-75410000D01*
X120455500Y-91010000D02*
X120455500Y-91810000D01*
X120455500Y-91810000D02*
X119655500Y-91810000D01*
%TO.C,C37*%
X132459252Y-95806000D02*
X131936748Y-95806000D01*
X132459252Y-94336000D02*
X131936748Y-94336000D01*
%TO.C,C29*%
X201337500Y-100740580D02*
X201337500Y-100459420D01*
X202357500Y-100740580D02*
X202357500Y-100459420D01*
%TO.C,C15*%
X131337500Y-100740580D02*
X131337500Y-100459420D01*
X132357500Y-100740580D02*
X132357500Y-100459420D01*
%TO.C,TP6*%
X136108000Y-91571000D02*
X136108000Y-93471000D01*
X134208000Y-91571000D02*
X136108000Y-91571000D01*
X136108000Y-93471000D02*
X134208000Y-93471000D01*
X134208000Y-93471000D02*
X134208000Y-91571000D01*
%TO.C,R2*%
X118762500Y-94727064D02*
X118762500Y-94272936D01*
X120232500Y-94727064D02*
X120232500Y-94272936D01*
%TO.C,J1*%
X85710000Y-96200000D02*
X85710000Y-96650000D01*
X83860000Y-96200000D02*
X85710000Y-96200000D01*
X81310000Y-96200000D02*
X81560000Y-96200000D01*
X86260000Y-98400000D02*
X85810000Y-98400000D01*
X86260000Y-98400000D02*
X86260000Y-98850000D01*
X85710000Y-104000000D02*
X85710000Y-103550000D01*
X83860000Y-104000000D02*
X85710000Y-104000000D01*
X81310000Y-104000000D02*
X81560000Y-104000000D01*
%TO.C,R5*%
X92842500Y-87512936D02*
X92842500Y-87967064D01*
X91372500Y-87512936D02*
X91372500Y-87967064D01*
%TO.C,C40*%
X104158752Y-91615000D02*
X103636248Y-91615000D01*
X104158752Y-90145000D02*
X103636248Y-90145000D01*
%TO.C,C4*%
X104586248Y-83965000D02*
X105108752Y-83965000D01*
X104586248Y-85435000D02*
X105108752Y-85435000D01*
%TO.C,C39*%
X100202500Y-88363748D02*
X100202500Y-88886252D01*
X98732500Y-88363748D02*
X98732500Y-88886252D01*
%TO.C,C5*%
X94842500Y-80638748D02*
X94842500Y-81161252D01*
X93372500Y-80638748D02*
X93372500Y-81161252D01*
%TO.C,R8*%
X91362500Y-81127064D02*
X91362500Y-80672936D01*
X92832500Y-81127064D02*
X92832500Y-80672936D01*
%TO.C,R11*%
X138763000Y-94018064D02*
X138763000Y-93563936D01*
X140233000Y-94018064D02*
X140233000Y-93563936D01*
%TD*%
M02*
