%TF.GenerationSoftware,KiCad,Pcbnew,9.0.3*%
%TF.CreationDate,2026-03-23T15:49:34-06:00*%
%TF.ProjectId,rainbow-music-pegasus,7261696e-626f-4772-9d6d-757369632d70,rev?*%
%TF.SameCoordinates,Original*%
%TF.FileFunction,Profile,NP*%
%FSLAX46Y46*%
G04 Gerber Fmt 4.6, Leading zero omitted, Abs format (unit mm)*
G04 Created by KiCad (PCBNEW 9.0.3) date 2026-03-23 15:49:34*
%MOMM*%
%LPD*%
G01*
G04 APERTURE LIST*
%TA.AperFunction,Profile*%
%ADD10C,0.100000*%
%TD*%
G04 APERTURE END LIST*
D10*
X231947500Y-105100000D02*
X80947500Y-105100000D01*
X171153553Y-103850000D02*
G75*
G02*
X170446447Y-103850000I-353553J0D01*
G01*
X170446447Y-103850000D02*
G75*
G02*
X171153553Y-103850000I353553J0D01*
G01*
X161153552Y-102550000D02*
G75*
G02*
X160446446Y-102550000I-353553J0D01*
G01*
X160446446Y-102550000D02*
G75*
G02*
X161153552Y-102550000I353553J0D01*
G01*
X161153552Y-97350000D02*
G75*
G02*
X160446446Y-97350000I-353553J0D01*
G01*
X160446446Y-97350000D02*
G75*
G02*
X161153552Y-97350000I353553J0D01*
G01*
X191153553Y-99950000D02*
G75*
G02*
X190446447Y-99950000I-353553J0D01*
G01*
X190446447Y-99950000D02*
G75*
G02*
X191153553Y-99950000I353553J0D01*
G01*
X161153552Y-99950000D02*
G75*
G02*
X160446446Y-99950000I-353553J0D01*
G01*
X160446446Y-99950000D02*
G75*
G02*
X161153552Y-99950000I353553J0D01*
G01*
X221153553Y-97350000D02*
G75*
G02*
X220446447Y-97350000I-353553J0D01*
G01*
X220446447Y-97350000D02*
G75*
G02*
X221153553Y-97350000I353553J0D01*
G01*
X171153553Y-98650000D02*
G75*
G02*
X170446447Y-98650000I-353553J0D01*
G01*
X170446447Y-98650000D02*
G75*
G02*
X171153553Y-98650000I353553J0D01*
G01*
X201153553Y-101250000D02*
G75*
G02*
X200446447Y-101250000I-353553J0D01*
G01*
X200446447Y-101250000D02*
G75*
G02*
X201153553Y-101250000I353553J0D01*
G01*
X221153553Y-102550000D02*
G75*
G02*
X220446447Y-102550000I-353553J0D01*
G01*
X220446447Y-102550000D02*
G75*
G02*
X221153553Y-102550000I353553J0D01*
G01*
X80947500Y-95100000D02*
X80947500Y-105100000D01*
X181153553Y-101250000D02*
G75*
G02*
X180446447Y-101250000I-353553J0D01*
G01*
X180446447Y-101250000D02*
G75*
G02*
X181153553Y-101250000I353553J0D01*
G01*
X221153553Y-99950000D02*
G75*
G02*
X220446447Y-99950000I-353553J0D01*
G01*
X220446447Y-99950000D02*
G75*
G02*
X221153553Y-99950000I353553J0D01*
G01*
X201153553Y-97350000D02*
G75*
G02*
X200446447Y-97350000I-353553J0D01*
G01*
X200446447Y-97350000D02*
G75*
G02*
X201153553Y-97350000I353553J0D01*
G01*
X171153553Y-102550000D02*
G75*
G02*
X170446447Y-102550000I-353553J0D01*
G01*
X170446447Y-102550000D02*
G75*
G02*
X171153553Y-102550000I353553J0D01*
G01*
X191153553Y-103850000D02*
G75*
G02*
X190446447Y-103850000I-353553J0D01*
G01*
X190446447Y-103850000D02*
G75*
G02*
X191153553Y-103850000I353553J0D01*
G01*
X211153553Y-97350000D02*
G75*
G02*
X210446447Y-97350000I-353553J0D01*
G01*
X210446447Y-97350000D02*
G75*
G02*
X211153553Y-97350000I353553J0D01*
G01*
X83947500Y-95100000D02*
X80947500Y-95100000D01*
X171153553Y-97350000D02*
G75*
G02*
X170446447Y-97350000I-353553J0D01*
G01*
X170446447Y-97350000D02*
G75*
G02*
X171153553Y-97350000I353553J0D01*
G01*
X221153553Y-103850000D02*
G75*
G02*
X220446447Y-103850000I-353553J0D01*
G01*
X220446447Y-103850000D02*
G75*
G02*
X221153553Y-103850000I353553J0D01*
G01*
X86947500Y-74100000D02*
X122447500Y-74100000D01*
X122447500Y-74100000D02*
G75*
G02*
X144447500Y-96100000I0J-22000000D01*
G01*
X211153553Y-99950000D02*
G75*
G02*
X210446447Y-99950000I-353553J0D01*
G01*
X210446447Y-99950000D02*
G75*
G02*
X211153553Y-99950000I353553J0D01*
G01*
X191153553Y-98650000D02*
G75*
G02*
X190446447Y-98650000I-353553J0D01*
G01*
X190446447Y-98650000D02*
G75*
G02*
X191153553Y-98650000I353553J0D01*
G01*
X211153553Y-103850000D02*
G75*
G02*
X210446447Y-103850000I-353553J0D01*
G01*
X210446447Y-103850000D02*
G75*
G02*
X211153553Y-103850000I353553J0D01*
G01*
X201153553Y-103850000D02*
G75*
G02*
X200446447Y-103850000I-353553J0D01*
G01*
X200446447Y-103850000D02*
G75*
G02*
X201153553Y-103850000I353553J0D01*
G01*
X201153553Y-102550000D02*
G75*
G02*
X200446447Y-102550000I-353553J0D01*
G01*
X200446447Y-102550000D02*
G75*
G02*
X201153553Y-102550000I353553J0D01*
G01*
X191153553Y-102550000D02*
G75*
G02*
X190446447Y-102550000I-353553J0D01*
G01*
X190446447Y-102550000D02*
G75*
G02*
X191153553Y-102550000I353553J0D01*
G01*
X211153553Y-101250000D02*
G75*
G02*
X210446447Y-101250000I-353553J0D01*
G01*
X210446447Y-101250000D02*
G75*
G02*
X211153553Y-101250000I353553J0D01*
G01*
X83947500Y-95100000D02*
X83947500Y-83100000D01*
X221153553Y-98650000D02*
G75*
G02*
X220446447Y-98650000I-353553J0D01*
G01*
X220446447Y-98650000D02*
G75*
G02*
X221153553Y-98650000I353553J0D01*
G01*
X161153552Y-103850000D02*
G75*
G02*
X160446446Y-103850000I-353553J0D01*
G01*
X160446446Y-103850000D02*
G75*
G02*
X161153552Y-103850000I353553J0D01*
G01*
X181153553Y-99950000D02*
G75*
G02*
X180446447Y-99950000I-353553J0D01*
G01*
X180446447Y-99950000D02*
G75*
G02*
X181153553Y-99950000I353553J0D01*
G01*
X83947500Y-83100000D02*
X86947500Y-83100000D01*
X181153553Y-97350000D02*
G75*
G02*
X180446447Y-97350000I-353553J0D01*
G01*
X180446447Y-97350000D02*
G75*
G02*
X181153553Y-97350000I353553J0D01*
G01*
X231947500Y-96100000D02*
X231947500Y-105100000D01*
X171153553Y-101250000D02*
G75*
G02*
X170446447Y-101250000I-353553J0D01*
G01*
X170446447Y-101250000D02*
G75*
G02*
X171153553Y-101250000I353553J0D01*
G01*
X221153553Y-101250000D02*
G75*
G02*
X220446447Y-101250000I-353553J0D01*
G01*
X220446447Y-101250000D02*
G75*
G02*
X221153553Y-101250000I353553J0D01*
G01*
X181153553Y-98650000D02*
G75*
G02*
X180446447Y-98650000I-353553J0D01*
G01*
X180446447Y-98650000D02*
G75*
G02*
X181153553Y-98650000I353553J0D01*
G01*
X211153553Y-102550000D02*
G75*
G02*
X210446447Y-102550000I-353553J0D01*
G01*
X210446447Y-102550000D02*
G75*
G02*
X211153553Y-102550000I353553J0D01*
G01*
X161153552Y-101250000D02*
G75*
G02*
X160446446Y-101250000I-353553J0D01*
G01*
X160446446Y-101250000D02*
G75*
G02*
X161153552Y-101250000I353553J0D01*
G01*
X161153552Y-98650000D02*
G75*
G02*
X160446446Y-98650000I-353553J0D01*
G01*
X160446446Y-98650000D02*
G75*
G02*
X161153552Y-98650000I353553J0D01*
G01*
X191153553Y-97350000D02*
G75*
G02*
X190446447Y-97350000I-353553J0D01*
G01*
X190446447Y-97350000D02*
G75*
G02*
X191153553Y-97350000I353553J0D01*
G01*
X171153553Y-99950000D02*
G75*
G02*
X170446447Y-99950000I-353553J0D01*
G01*
X170446447Y-99950000D02*
G75*
G02*
X171153553Y-99950000I353553J0D01*
G01*
X201153553Y-99950000D02*
G75*
G02*
X200446447Y-99950000I-353553J0D01*
G01*
X200446447Y-99950000D02*
G75*
G02*
X201153553Y-99950000I353553J0D01*
G01*
X181153553Y-103850000D02*
G75*
G02*
X180446447Y-103850000I-353553J0D01*
G01*
X180446447Y-103850000D02*
G75*
G02*
X181153553Y-103850000I353553J0D01*
G01*
X191153553Y-101250000D02*
G75*
G02*
X190446447Y-101250000I-353553J0D01*
G01*
X190446447Y-101250000D02*
G75*
G02*
X191153553Y-101250000I353553J0D01*
G01*
X181153553Y-102550000D02*
G75*
G02*
X180446447Y-102550000I-353553J0D01*
G01*
X180446447Y-102550000D02*
G75*
G02*
X181153553Y-102550000I353553J0D01*
G01*
X201153553Y-98650000D02*
G75*
G02*
X200446447Y-98650000I-353553J0D01*
G01*
X200446447Y-98650000D02*
G75*
G02*
X201153553Y-98650000I353553J0D01*
G01*
X86947500Y-83100000D02*
X86947500Y-74100000D01*
X211153553Y-98650000D02*
G75*
G02*
X210446447Y-98650000I-353553J0D01*
G01*
X210446447Y-98650000D02*
G75*
G02*
X211153553Y-98650000I353553J0D01*
G01*
X144447500Y-96100000D02*
X231947500Y-96100000D01*
M02*
