M48
; DRILL file KiCad 10.0.3 date 2026-09-29T11:34:47
; FORMAT={-:-/ absolute / metric / decimal}
; #@! TF.CreationDate,2026-09-29T11:34:47-06:00
; #@! TF.GenerationSoftware,Kicad,Pcbnew,10.0.3
; #@! TF.FileFunction,Plated,1,2,PTH
FMAT,2
METRIC
; #@! TA.AperFunction,Plated,PTH,ViaDrill
T1C0.400
; #@! TA.AperFunction,Plated,PTH,ComponentDrill
T2C0.600
; #@! TA.AperFunction,Plated,PTH,ComponentDrill
T3C0.700
; #@! TA.AperFunction,Plated,PTH,ComponentDrill
T4C0.750
; #@! TA.AperFunction,Plated,PTH,ComponentDrill
T5C0.900
; #@! TA.AperFunction,Plated,PTH,ComponentDrill
T6C1.000
; #@! TA.AperFunction,Plated,PTH,ComponentDrill
T7C1.500
%
G90
G05
T1
X87.714Y-99.62
X88.397Y-100.35
X88.8Y-86.1
X88.86Y-89.087
X90.647Y-81.8
X91.482Y-101.61
X91.548Y-95.5
X92.772Y-98.2
X92.808Y-99.5
X93.947Y-95.1
X93.947Y-101.4
X93.99Y-86.77
X95.792Y-87.495
X96.792Y-87.505
X97.197Y-86.045
X98.807Y-99.56
X98.867Y-93.85
X99.3Y-95.0
X101.111Y-90.464
X102.647Y-83.5
X102.697Y-98.2
X103.19Y-100.03
X103.477Y-78.47
X103.9Y-90.0
X105.097Y-101.85
X105.385Y-95.815
X106.2Y-92.7
X106.4Y-81.06
X106.971Y-95.887
X107.547Y-91.9
X108.774Y-91.81
X109.7Y-88.475
X109.769Y-91.709
X110.019Y-89.933
X110.1Y-87.1
X110.247Y-99.0
X110.4Y-93.9
X110.48Y-95.071
X111.561Y-98.078
X111.975Y-92.327
X113.408Y-100.4
X113.655Y-82.4
X114.397Y-92.3
X115.075Y-99.1
X116.881Y-89.881
X117.2Y-84.5
X117.584Y-89.156
X118.198Y-87.419
X118.272Y-101.2
X118.297Y-100.075
X118.369Y-89.849
X118.387Y-88.4
X120.047Y-96.575
X120.547Y-90.92
X120.7Y-93.6
X121.3Y-81.06
X121.5Y-94.9
X121.827Y-91.372
X122.547Y-92.096
X122.582Y-93.156
X123.35Y-100.35
X125.147Y-98.024
X126.308Y-99.1
X127.447Y-87.075
X127.7Y-95.5
X128.262Y-101.2
X128.447Y-88.6
X128.447Y-89.5
X128.447Y-90.4
X128.447Y-91.3
X129.347Y-87.7
X129.347Y-88.6
X129.347Y-89.5
X129.347Y-90.4
X129.347Y-91.3
X129.347Y-93.05
X129.347Y-93.95
X129.347Y-94.85
X129.347Y-95.75
X130.248Y-87.7
X130.248Y-88.6
X130.248Y-89.5
X130.248Y-90.4
X130.248Y-91.3
X130.248Y-93.05
X130.248Y-93.95
X130.248Y-94.85
X130.248Y-95.75
X131.148Y-87.7
X133.297Y-87.7
X133.3Y-100.35
X134.187Y-88.61
X134.197Y-89.516
X134.197Y-90.45
X134.197Y-94.85
X134.197Y-95.75
X134.206Y-87.7
X135.086Y-88.61
X135.096Y-89.516
X135.096Y-90.45
X135.097Y-92.875
X135.1Y-94.85
X135.1Y-95.75
X135.104Y-87.7
X135.498Y-97.9
X135.8Y-103.2
X135.984Y-88.61
X135.994Y-89.516
X135.994Y-90.45
X136.0Y-94.85
X136.0Y-95.75
X136.002Y-87.7
X136.347Y-99.1
X137.498Y-86.15
X138.262Y-101.2
X141.147Y-93.45
X143.3Y-100.35
X145.472Y-97.9
X145.8Y-103.2
X146.347Y-99.1
X148.25Y-101.2
X153.3Y-100.35
X155.397Y-97.9
X155.8Y-103.2
X156.397Y-99.1
X163.3Y-100.35
X165.447Y-97.9
X165.8Y-103.2
X166.347Y-99.1
X173.3Y-100.35
X175.297Y-97.9
X175.6Y-103.2
X176.347Y-99.1
X183.3Y-100.35
X185.297Y-97.9
X185.8Y-103.2
X186.297Y-99.1
X193.3Y-100.35
X195.347Y-97.9
X195.8Y-103.2
X196.347Y-99.1
X203.3Y-100.35
X205.347Y-97.9
X205.8Y-103.2
X206.347Y-99.1
X213.3Y-100.35
X215.347Y-97.9
X215.8Y-103.2
X216.347Y-99.1
X223.3Y-100.35
X225.347Y-97.9
X225.8Y-103.2
X226.347Y-99.1
T3
X100.8Y-92.1
X108.347Y-100.5
X108.347Y-103.0
X127.747Y-93.55
T4
X134.748Y-85.75
X136.162Y-84.336
T5
X86.397Y-86.8
X86.397Y-88.8
X86.397Y-90.8
T6
X88.947Y-76.6
X88.947Y-79.14
X122.408Y-82.771
X122.408Y-85.311
X122.408Y-87.851
X124.948Y-82.771
X124.948Y-85.311
X124.948Y-87.851
T7
X86.397Y-84.7
X86.397Y-92.9
T2
G00X82.667Y-95.64
M15
G01X82.067Y-95.64
M16
G05
G00X82.667Y-104.28
M15
G01X82.067Y-104.28
M16
G05
G00X86.468Y-95.64
M15
G01X85.867Y-95.64
M16
G05
G00X86.468Y-104.28
M15
G01X85.867Y-104.28
M16
G05
M30
