%TF.GenerationSoftware,KiCad,Pcbnew,7.0.5-0*%
%TF.CreationDate,2024-02-10T16:06:05-07:00*%
%TF.ProjectId,rainbow-music-pegasus,7261696e-626f-4772-9d6d-757369632d70,rev?*%
%TF.SameCoordinates,Original*%
%TF.FileFunction,Legend,Top*%
%TF.FilePolarity,Positive*%
%FSLAX46Y46*%
G04 Gerber Fmt 4.6, Leading zero omitted, Abs format (unit mm)*
G04 Created by KiCad (PCBNEW 7.0.5-0) date 2024-02-10 16:06:05*
%MOMM*%
%LPD*%
G01*
G04 APERTURE LIST*
%ADD10C,0.100000*%
%ADD11C,0.150000*%
%ADD12C,0.120000*%
G04 APERTURE END LIST*
D10*
X110903136Y-77864895D02*
X111093612Y-78664895D01*
X111093612Y-78664895D02*
X111245993Y-78093466D01*
X111245993Y-78093466D02*
X111398374Y-78664895D01*
X111398374Y-78664895D02*
X111588851Y-77864895D01*
X112236470Y-78664895D02*
X112236470Y-78245847D01*
X112236470Y-78245847D02*
X112198375Y-78169657D01*
X112198375Y-78169657D02*
X112122184Y-78131561D01*
X112122184Y-78131561D02*
X111969803Y-78131561D01*
X111969803Y-78131561D02*
X111893613Y-78169657D01*
X112236470Y-78626800D02*
X112160279Y-78664895D01*
X112160279Y-78664895D02*
X111969803Y-78664895D01*
X111969803Y-78664895D02*
X111893613Y-78626800D01*
X111893613Y-78626800D02*
X111855517Y-78550609D01*
X111855517Y-78550609D02*
X111855517Y-78474419D01*
X111855517Y-78474419D02*
X111893613Y-78398228D01*
X111893613Y-78398228D02*
X111969803Y-78360133D01*
X111969803Y-78360133D02*
X112160279Y-78360133D01*
X112160279Y-78360133D02*
X112236470Y-78322038D01*
X112541232Y-78131561D02*
X112731708Y-78664895D01*
X112922185Y-78131561D02*
X112731708Y-78664895D01*
X112731708Y-78664895D02*
X112655518Y-78855371D01*
X112655518Y-78855371D02*
X112617423Y-78893466D01*
X112617423Y-78893466D02*
X112541232Y-78931561D01*
X113150756Y-77864895D02*
X113341232Y-78664895D01*
X113341232Y-78664895D02*
X113493613Y-78093466D01*
X113493613Y-78093466D02*
X113645994Y-78664895D01*
X113645994Y-78664895D02*
X113836471Y-77864895D01*
X114484090Y-78664895D02*
X114484090Y-78245847D01*
X114484090Y-78245847D02*
X114445995Y-78169657D01*
X114445995Y-78169657D02*
X114369804Y-78131561D01*
X114369804Y-78131561D02*
X114217423Y-78131561D01*
X114217423Y-78131561D02*
X114141233Y-78169657D01*
X114484090Y-78626800D02*
X114407899Y-78664895D01*
X114407899Y-78664895D02*
X114217423Y-78664895D01*
X114217423Y-78664895D02*
X114141233Y-78626800D01*
X114141233Y-78626800D02*
X114103137Y-78550609D01*
X114103137Y-78550609D02*
X114103137Y-78474419D01*
X114103137Y-78474419D02*
X114141233Y-78398228D01*
X114141233Y-78398228D02*
X114217423Y-78360133D01*
X114217423Y-78360133D02*
X114407899Y-78360133D01*
X114407899Y-78360133D02*
X114484090Y-78322038D01*
X114788852Y-78131561D02*
X114979328Y-78664895D01*
X115169805Y-78131561D02*
X114979328Y-78664895D01*
X114979328Y-78664895D02*
X114903138Y-78855371D01*
X114903138Y-78855371D02*
X114865043Y-78893466D01*
X114865043Y-78893466D02*
X114788852Y-78931561D01*
X115398376Y-77864895D02*
X115588852Y-78664895D01*
X115588852Y-78664895D02*
X115741233Y-78093466D01*
X115741233Y-78093466D02*
X115893614Y-78664895D01*
X115893614Y-78664895D02*
X116084091Y-77864895D01*
X116731710Y-78664895D02*
X116731710Y-78245847D01*
X116731710Y-78245847D02*
X116693615Y-78169657D01*
X116693615Y-78169657D02*
X116617424Y-78131561D01*
X116617424Y-78131561D02*
X116465043Y-78131561D01*
X116465043Y-78131561D02*
X116388853Y-78169657D01*
X116731710Y-78626800D02*
X116655519Y-78664895D01*
X116655519Y-78664895D02*
X116465043Y-78664895D01*
X116465043Y-78664895D02*
X116388853Y-78626800D01*
X116388853Y-78626800D02*
X116350757Y-78550609D01*
X116350757Y-78550609D02*
X116350757Y-78474419D01*
X116350757Y-78474419D02*
X116388853Y-78398228D01*
X116388853Y-78398228D02*
X116465043Y-78360133D01*
X116465043Y-78360133D02*
X116655519Y-78360133D01*
X116655519Y-78360133D02*
X116731710Y-78322038D01*
X117036472Y-78131561D02*
X117226948Y-78664895D01*
X117417425Y-78131561D02*
X117226948Y-78664895D01*
X117226948Y-78664895D02*
X117150758Y-78855371D01*
X117150758Y-78855371D02*
X117112663Y-78893466D01*
X117112663Y-78893466D02*
X117036472Y-78931561D01*
D11*
X118784279Y-83726009D02*
X119117612Y-83726009D01*
X119260469Y-84249819D02*
X118784279Y-84249819D01*
X118784279Y-84249819D02*
X118784279Y-83249819D01*
X118784279Y-83249819D02*
X119260469Y-83249819D01*
X119689041Y-83583152D02*
X119689041Y-84249819D01*
X119689041Y-83678390D02*
X119736660Y-83630771D01*
X119736660Y-83630771D02*
X119831898Y-83583152D01*
X119831898Y-83583152D02*
X119974755Y-83583152D01*
X119974755Y-83583152D02*
X120069993Y-83630771D01*
X120069993Y-83630771D02*
X120117612Y-83726009D01*
X120117612Y-83726009D02*
X120117612Y-84249819D01*
X118641422Y-84859819D02*
X119212850Y-84859819D01*
X118927136Y-85859819D02*
X118927136Y-84859819D01*
X119450946Y-85859819D02*
X119974755Y-85193152D01*
X119450946Y-85193152D02*
X119974755Y-85859819D01*
X119355707Y-87469819D02*
X119022374Y-86993628D01*
X118784279Y-87469819D02*
X118784279Y-86469819D01*
X118784279Y-86469819D02*
X119165231Y-86469819D01*
X119165231Y-86469819D02*
X119260469Y-86517438D01*
X119260469Y-86517438D02*
X119308088Y-86565057D01*
X119308088Y-86565057D02*
X119355707Y-86660295D01*
X119355707Y-86660295D02*
X119355707Y-86803152D01*
X119355707Y-86803152D02*
X119308088Y-86898390D01*
X119308088Y-86898390D02*
X119260469Y-86946009D01*
X119260469Y-86946009D02*
X119165231Y-86993628D01*
X119165231Y-86993628D02*
X118784279Y-86993628D01*
X119689041Y-87469819D02*
X120212850Y-86803152D01*
X119689041Y-86803152D02*
X120212850Y-87469819D01*
X122239292Y-84249819D02*
X122239292Y-83249819D01*
X122239292Y-83249819D02*
X122810720Y-84249819D01*
X122810720Y-84249819D02*
X122810720Y-83249819D01*
X123858339Y-84154580D02*
X123810720Y-84202200D01*
X123810720Y-84202200D02*
X123667863Y-84249819D01*
X123667863Y-84249819D02*
X123572625Y-84249819D01*
X123572625Y-84249819D02*
X123429768Y-84202200D01*
X123429768Y-84202200D02*
X123334530Y-84106961D01*
X123334530Y-84106961D02*
X123286911Y-84011723D01*
X123286911Y-84011723D02*
X123239292Y-83821247D01*
X123239292Y-83821247D02*
X123239292Y-83678390D01*
X123239292Y-83678390D02*
X123286911Y-83487914D01*
X123286911Y-83487914D02*
X123334530Y-83392676D01*
X123334530Y-83392676D02*
X123429768Y-83297438D01*
X123429768Y-83297438D02*
X123572625Y-83249819D01*
X123572625Y-83249819D02*
X123667863Y-83249819D01*
X123667863Y-83249819D02*
X123810720Y-83297438D01*
X123810720Y-83297438D02*
X123858339Y-83345057D01*
X122001196Y-84907438D02*
X121905958Y-84859819D01*
X121905958Y-84859819D02*
X121763101Y-84859819D01*
X121763101Y-84859819D02*
X121620244Y-84907438D01*
X121620244Y-84907438D02*
X121525006Y-85002676D01*
X121525006Y-85002676D02*
X121477387Y-85097914D01*
X121477387Y-85097914D02*
X121429768Y-85288390D01*
X121429768Y-85288390D02*
X121429768Y-85431247D01*
X121429768Y-85431247D02*
X121477387Y-85621723D01*
X121477387Y-85621723D02*
X121525006Y-85716961D01*
X121525006Y-85716961D02*
X121620244Y-85812200D01*
X121620244Y-85812200D02*
X121763101Y-85859819D01*
X121763101Y-85859819D02*
X121858339Y-85859819D01*
X121858339Y-85859819D02*
X122001196Y-85812200D01*
X122001196Y-85812200D02*
X122048815Y-85764580D01*
X122048815Y-85764580D02*
X122048815Y-85431247D01*
X122048815Y-85431247D02*
X121858339Y-85431247D01*
X122477387Y-85193152D02*
X122477387Y-85859819D01*
X122477387Y-85288390D02*
X122525006Y-85240771D01*
X122525006Y-85240771D02*
X122620244Y-85193152D01*
X122620244Y-85193152D02*
X122763101Y-85193152D01*
X122763101Y-85193152D02*
X122858339Y-85240771D01*
X122858339Y-85240771D02*
X122905958Y-85336009D01*
X122905958Y-85336009D02*
X122905958Y-85859819D01*
X123810720Y-85859819D02*
X123810720Y-84859819D01*
X123810720Y-85812200D02*
X123715482Y-85859819D01*
X123715482Y-85859819D02*
X123525006Y-85859819D01*
X123525006Y-85859819D02*
X123429768Y-85812200D01*
X123429768Y-85812200D02*
X123382149Y-85764580D01*
X123382149Y-85764580D02*
X123334530Y-85669342D01*
X123334530Y-85669342D02*
X123334530Y-85383628D01*
X123334530Y-85383628D02*
X123382149Y-85288390D01*
X123382149Y-85288390D02*
X123429768Y-85240771D01*
X123429768Y-85240771D02*
X123525006Y-85193152D01*
X123525006Y-85193152D02*
X123715482Y-85193152D01*
X123715482Y-85193152D02*
X123810720Y-85240771D01*
X121239291Y-86946009D02*
X121382148Y-86993628D01*
X121382148Y-86993628D02*
X121429767Y-87041247D01*
X121429767Y-87041247D02*
X121477386Y-87136485D01*
X121477386Y-87136485D02*
X121477386Y-87279342D01*
X121477386Y-87279342D02*
X121429767Y-87374580D01*
X121429767Y-87374580D02*
X121382148Y-87422200D01*
X121382148Y-87422200D02*
X121286910Y-87469819D01*
X121286910Y-87469819D02*
X120905958Y-87469819D01*
X120905958Y-87469819D02*
X120905958Y-86469819D01*
X120905958Y-86469819D02*
X121239291Y-86469819D01*
X121239291Y-86469819D02*
X121334529Y-86517438D01*
X121334529Y-86517438D02*
X121382148Y-86565057D01*
X121382148Y-86565057D02*
X121429767Y-86660295D01*
X121429767Y-86660295D02*
X121429767Y-86755533D01*
X121429767Y-86755533D02*
X121382148Y-86850771D01*
X121382148Y-86850771D02*
X121334529Y-86898390D01*
X121334529Y-86898390D02*
X121239291Y-86946009D01*
X121239291Y-86946009D02*
X120905958Y-86946009D01*
X122048815Y-87469819D02*
X121953577Y-87422200D01*
X121953577Y-87422200D02*
X121905958Y-87374580D01*
X121905958Y-87374580D02*
X121858339Y-87279342D01*
X121858339Y-87279342D02*
X121858339Y-86993628D01*
X121858339Y-86993628D02*
X121905958Y-86898390D01*
X121905958Y-86898390D02*
X121953577Y-86850771D01*
X121953577Y-86850771D02*
X122048815Y-86803152D01*
X122048815Y-86803152D02*
X122191672Y-86803152D01*
X122191672Y-86803152D02*
X122286910Y-86850771D01*
X122286910Y-86850771D02*
X122334529Y-86898390D01*
X122334529Y-86898390D02*
X122382148Y-86993628D01*
X122382148Y-86993628D02*
X122382148Y-87279342D01*
X122382148Y-87279342D02*
X122334529Y-87374580D01*
X122334529Y-87374580D02*
X122286910Y-87422200D01*
X122286910Y-87422200D02*
X122191672Y-87469819D01*
X122191672Y-87469819D02*
X122048815Y-87469819D01*
X122953577Y-87469819D02*
X122858339Y-87422200D01*
X122858339Y-87422200D02*
X122810720Y-87374580D01*
X122810720Y-87374580D02*
X122763101Y-87279342D01*
X122763101Y-87279342D02*
X122763101Y-86993628D01*
X122763101Y-86993628D02*
X122810720Y-86898390D01*
X122810720Y-86898390D02*
X122858339Y-86850771D01*
X122858339Y-86850771D02*
X122953577Y-86803152D01*
X122953577Y-86803152D02*
X123096434Y-86803152D01*
X123096434Y-86803152D02*
X123191672Y-86850771D01*
X123191672Y-86850771D02*
X123239291Y-86898390D01*
X123239291Y-86898390D02*
X123286910Y-86993628D01*
X123286910Y-86993628D02*
X123286910Y-87279342D01*
X123286910Y-87279342D02*
X123239291Y-87374580D01*
X123239291Y-87374580D02*
X123191672Y-87422200D01*
X123191672Y-87422200D02*
X123096434Y-87469819D01*
X123096434Y-87469819D02*
X122953577Y-87469819D01*
X123572625Y-86803152D02*
X123953577Y-86803152D01*
X123715482Y-86469819D02*
X123715482Y-87326961D01*
X123715482Y-87326961D02*
X123763101Y-87422200D01*
X123763101Y-87422200D02*
X123858339Y-87469819D01*
X123858339Y-87469819D02*
X123953577Y-87469819D01*
%TO.C,C19*%
X140777080Y-101242857D02*
X140824700Y-101290476D01*
X140824700Y-101290476D02*
X140872319Y-101433333D01*
X140872319Y-101433333D02*
X140872319Y-101528571D01*
X140872319Y-101528571D02*
X140824700Y-101671428D01*
X140824700Y-101671428D02*
X140729461Y-101766666D01*
X140729461Y-101766666D02*
X140634223Y-101814285D01*
X140634223Y-101814285D02*
X140443747Y-101861904D01*
X140443747Y-101861904D02*
X140300890Y-101861904D01*
X140300890Y-101861904D02*
X140110414Y-101814285D01*
X140110414Y-101814285D02*
X140015176Y-101766666D01*
X140015176Y-101766666D02*
X139919938Y-101671428D01*
X139919938Y-101671428D02*
X139872319Y-101528571D01*
X139872319Y-101528571D02*
X139872319Y-101433333D01*
X139872319Y-101433333D02*
X139919938Y-101290476D01*
X139919938Y-101290476D02*
X139967557Y-101242857D01*
X140872319Y-100290476D02*
X140872319Y-100861904D01*
X140872319Y-100576190D02*
X139872319Y-100576190D01*
X139872319Y-100576190D02*
X140015176Y-100671428D01*
X140015176Y-100671428D02*
X140110414Y-100766666D01*
X140110414Y-100766666D02*
X140158033Y-100861904D01*
X140872319Y-99814285D02*
X140872319Y-99623809D01*
X140872319Y-99623809D02*
X140824700Y-99528571D01*
X140824700Y-99528571D02*
X140777080Y-99480952D01*
X140777080Y-99480952D02*
X140634223Y-99385714D01*
X140634223Y-99385714D02*
X140443747Y-99338095D01*
X140443747Y-99338095D02*
X140062795Y-99338095D01*
X140062795Y-99338095D02*
X139967557Y-99385714D01*
X139967557Y-99385714D02*
X139919938Y-99433333D01*
X139919938Y-99433333D02*
X139872319Y-99528571D01*
X139872319Y-99528571D02*
X139872319Y-99719047D01*
X139872319Y-99719047D02*
X139919938Y-99814285D01*
X139919938Y-99814285D02*
X139967557Y-99861904D01*
X139967557Y-99861904D02*
X140062795Y-99909523D01*
X140062795Y-99909523D02*
X140300890Y-99909523D01*
X140300890Y-99909523D02*
X140396128Y-99861904D01*
X140396128Y-99861904D02*
X140443747Y-99814285D01*
X140443747Y-99814285D02*
X140491366Y-99719047D01*
X140491366Y-99719047D02*
X140491366Y-99528571D01*
X140491366Y-99528571D02*
X140443747Y-99433333D01*
X140443747Y-99433333D02*
X140396128Y-99385714D01*
X140396128Y-99385714D02*
X140300890Y-99338095D01*
%TO.C,D5*%
X125061905Y-97554819D02*
X125061905Y-96554819D01*
X125061905Y-96554819D02*
X125300000Y-96554819D01*
X125300000Y-96554819D02*
X125442857Y-96602438D01*
X125442857Y-96602438D02*
X125538095Y-96697676D01*
X125538095Y-96697676D02*
X125585714Y-96792914D01*
X125585714Y-96792914D02*
X125633333Y-96983390D01*
X125633333Y-96983390D02*
X125633333Y-97126247D01*
X125633333Y-97126247D02*
X125585714Y-97316723D01*
X125585714Y-97316723D02*
X125538095Y-97411961D01*
X125538095Y-97411961D02*
X125442857Y-97507200D01*
X125442857Y-97507200D02*
X125300000Y-97554819D01*
X125300000Y-97554819D02*
X125061905Y-97554819D01*
X126538095Y-96554819D02*
X126061905Y-96554819D01*
X126061905Y-96554819D02*
X126014286Y-97031009D01*
X126014286Y-97031009D02*
X126061905Y-96983390D01*
X126061905Y-96983390D02*
X126157143Y-96935771D01*
X126157143Y-96935771D02*
X126395238Y-96935771D01*
X126395238Y-96935771D02*
X126490476Y-96983390D01*
X126490476Y-96983390D02*
X126538095Y-97031009D01*
X126538095Y-97031009D02*
X126585714Y-97126247D01*
X126585714Y-97126247D02*
X126585714Y-97364342D01*
X126585714Y-97364342D02*
X126538095Y-97459580D01*
X126538095Y-97459580D02*
X126490476Y-97507200D01*
X126490476Y-97507200D02*
X126395238Y-97554819D01*
X126395238Y-97554819D02*
X126157143Y-97554819D01*
X126157143Y-97554819D02*
X126061905Y-97507200D01*
X126061905Y-97507200D02*
X126014286Y-97459580D01*
%TO.C,D1*%
X105061905Y-97554819D02*
X105061905Y-96554819D01*
X105061905Y-96554819D02*
X105300000Y-96554819D01*
X105300000Y-96554819D02*
X105442857Y-96602438D01*
X105442857Y-96602438D02*
X105538095Y-96697676D01*
X105538095Y-96697676D02*
X105585714Y-96792914D01*
X105585714Y-96792914D02*
X105633333Y-96983390D01*
X105633333Y-96983390D02*
X105633333Y-97126247D01*
X105633333Y-97126247D02*
X105585714Y-97316723D01*
X105585714Y-97316723D02*
X105538095Y-97411961D01*
X105538095Y-97411961D02*
X105442857Y-97507200D01*
X105442857Y-97507200D02*
X105300000Y-97554819D01*
X105300000Y-97554819D02*
X105061905Y-97554819D01*
X106585714Y-97554819D02*
X106014286Y-97554819D01*
X106300000Y-97554819D02*
X106300000Y-96554819D01*
X106300000Y-96554819D02*
X106204762Y-96697676D01*
X106204762Y-96697676D02*
X106109524Y-96792914D01*
X106109524Y-96792914D02*
X106014286Y-96840533D01*
%TO.C,C8*%
X98487919Y-101233333D02*
X98440300Y-101185714D01*
X98440300Y-101185714D02*
X98392680Y-101042857D01*
X98392680Y-101042857D02*
X98392680Y-100947619D01*
X98392680Y-100947619D02*
X98440300Y-100804762D01*
X98440300Y-100804762D02*
X98535538Y-100709524D01*
X98535538Y-100709524D02*
X98630776Y-100661905D01*
X98630776Y-100661905D02*
X98821252Y-100614286D01*
X98821252Y-100614286D02*
X98964109Y-100614286D01*
X98964109Y-100614286D02*
X99154585Y-100661905D01*
X99154585Y-100661905D02*
X99249823Y-100709524D01*
X99249823Y-100709524D02*
X99345061Y-100804762D01*
X99345061Y-100804762D02*
X99392680Y-100947619D01*
X99392680Y-100947619D02*
X99392680Y-101042857D01*
X99392680Y-101042857D02*
X99345061Y-101185714D01*
X99345061Y-101185714D02*
X99297442Y-101233333D01*
X98964109Y-101804762D02*
X99011728Y-101709524D01*
X99011728Y-101709524D02*
X99059347Y-101661905D01*
X99059347Y-101661905D02*
X99154585Y-101614286D01*
X99154585Y-101614286D02*
X99202204Y-101614286D01*
X99202204Y-101614286D02*
X99297442Y-101661905D01*
X99297442Y-101661905D02*
X99345061Y-101709524D01*
X99345061Y-101709524D02*
X99392680Y-101804762D01*
X99392680Y-101804762D02*
X99392680Y-101995238D01*
X99392680Y-101995238D02*
X99345061Y-102090476D01*
X99345061Y-102090476D02*
X99297442Y-102138095D01*
X99297442Y-102138095D02*
X99202204Y-102185714D01*
X99202204Y-102185714D02*
X99154585Y-102185714D01*
X99154585Y-102185714D02*
X99059347Y-102138095D01*
X99059347Y-102138095D02*
X99011728Y-102090476D01*
X99011728Y-102090476D02*
X98964109Y-101995238D01*
X98964109Y-101995238D02*
X98964109Y-101804762D01*
X98964109Y-101804762D02*
X98916490Y-101709524D01*
X98916490Y-101709524D02*
X98868871Y-101661905D01*
X98868871Y-101661905D02*
X98773633Y-101614286D01*
X98773633Y-101614286D02*
X98583157Y-101614286D01*
X98583157Y-101614286D02*
X98487919Y-101661905D01*
X98487919Y-101661905D02*
X98440300Y-101709524D01*
X98440300Y-101709524D02*
X98392680Y-101804762D01*
X98392680Y-101804762D02*
X98392680Y-101995238D01*
X98392680Y-101995238D02*
X98440300Y-102090476D01*
X98440300Y-102090476D02*
X98487919Y-102138095D01*
X98487919Y-102138095D02*
X98583157Y-102185714D01*
X98583157Y-102185714D02*
X98773633Y-102185714D01*
X98773633Y-102185714D02*
X98868871Y-102138095D01*
X98868871Y-102138095D02*
X98916490Y-102090476D01*
X98916490Y-102090476D02*
X98964109Y-101995238D01*
%TO.C,D13*%
X164585714Y-97554819D02*
X164585714Y-96554819D01*
X164585714Y-96554819D02*
X164823809Y-96554819D01*
X164823809Y-96554819D02*
X164966666Y-96602438D01*
X164966666Y-96602438D02*
X165061904Y-96697676D01*
X165061904Y-96697676D02*
X165109523Y-96792914D01*
X165109523Y-96792914D02*
X165157142Y-96983390D01*
X165157142Y-96983390D02*
X165157142Y-97126247D01*
X165157142Y-97126247D02*
X165109523Y-97316723D01*
X165109523Y-97316723D02*
X165061904Y-97411961D01*
X165061904Y-97411961D02*
X164966666Y-97507200D01*
X164966666Y-97507200D02*
X164823809Y-97554819D01*
X164823809Y-97554819D02*
X164585714Y-97554819D01*
X166109523Y-97554819D02*
X165538095Y-97554819D01*
X165823809Y-97554819D02*
X165823809Y-96554819D01*
X165823809Y-96554819D02*
X165728571Y-96697676D01*
X165728571Y-96697676D02*
X165633333Y-96792914D01*
X165633333Y-96792914D02*
X165538095Y-96840533D01*
X166442857Y-96554819D02*
X167061904Y-96554819D01*
X167061904Y-96554819D02*
X166728571Y-96935771D01*
X166728571Y-96935771D02*
X166871428Y-96935771D01*
X166871428Y-96935771D02*
X166966666Y-96983390D01*
X166966666Y-96983390D02*
X167014285Y-97031009D01*
X167014285Y-97031009D02*
X167061904Y-97126247D01*
X167061904Y-97126247D02*
X167061904Y-97364342D01*
X167061904Y-97364342D02*
X167014285Y-97459580D01*
X167014285Y-97459580D02*
X166966666Y-97507200D01*
X166966666Y-97507200D02*
X166871428Y-97554819D01*
X166871428Y-97554819D02*
X166585714Y-97554819D01*
X166585714Y-97554819D02*
X166490476Y-97507200D01*
X166490476Y-97507200D02*
X166442857Y-97459580D01*
%TO.C,C3*%
X102130833Y-83559580D02*
X102083214Y-83607200D01*
X102083214Y-83607200D02*
X101940357Y-83654819D01*
X101940357Y-83654819D02*
X101845119Y-83654819D01*
X101845119Y-83654819D02*
X101702262Y-83607200D01*
X101702262Y-83607200D02*
X101607024Y-83511961D01*
X101607024Y-83511961D02*
X101559405Y-83416723D01*
X101559405Y-83416723D02*
X101511786Y-83226247D01*
X101511786Y-83226247D02*
X101511786Y-83083390D01*
X101511786Y-83083390D02*
X101559405Y-82892914D01*
X101559405Y-82892914D02*
X101607024Y-82797676D01*
X101607024Y-82797676D02*
X101702262Y-82702438D01*
X101702262Y-82702438D02*
X101845119Y-82654819D01*
X101845119Y-82654819D02*
X101940357Y-82654819D01*
X101940357Y-82654819D02*
X102083214Y-82702438D01*
X102083214Y-82702438D02*
X102130833Y-82750057D01*
X102464167Y-82654819D02*
X103083214Y-82654819D01*
X103083214Y-82654819D02*
X102749881Y-83035771D01*
X102749881Y-83035771D02*
X102892738Y-83035771D01*
X102892738Y-83035771D02*
X102987976Y-83083390D01*
X102987976Y-83083390D02*
X103035595Y-83131009D01*
X103035595Y-83131009D02*
X103083214Y-83226247D01*
X103083214Y-83226247D02*
X103083214Y-83464342D01*
X103083214Y-83464342D02*
X103035595Y-83559580D01*
X103035595Y-83559580D02*
X102987976Y-83607200D01*
X102987976Y-83607200D02*
X102892738Y-83654819D01*
X102892738Y-83654819D02*
X102607024Y-83654819D01*
X102607024Y-83654819D02*
X102511786Y-83607200D01*
X102511786Y-83607200D02*
X102464167Y-83559580D01*
%TO.C,SW1*%
X87114167Y-83557200D02*
X87257024Y-83604819D01*
X87257024Y-83604819D02*
X87495119Y-83604819D01*
X87495119Y-83604819D02*
X87590357Y-83557200D01*
X87590357Y-83557200D02*
X87637976Y-83509580D01*
X87637976Y-83509580D02*
X87685595Y-83414342D01*
X87685595Y-83414342D02*
X87685595Y-83319104D01*
X87685595Y-83319104D02*
X87637976Y-83223866D01*
X87637976Y-83223866D02*
X87590357Y-83176247D01*
X87590357Y-83176247D02*
X87495119Y-83128628D01*
X87495119Y-83128628D02*
X87304643Y-83081009D01*
X87304643Y-83081009D02*
X87209405Y-83033390D01*
X87209405Y-83033390D02*
X87161786Y-82985771D01*
X87161786Y-82985771D02*
X87114167Y-82890533D01*
X87114167Y-82890533D02*
X87114167Y-82795295D01*
X87114167Y-82795295D02*
X87161786Y-82700057D01*
X87161786Y-82700057D02*
X87209405Y-82652438D01*
X87209405Y-82652438D02*
X87304643Y-82604819D01*
X87304643Y-82604819D02*
X87542738Y-82604819D01*
X87542738Y-82604819D02*
X87685595Y-82652438D01*
X88018929Y-82604819D02*
X88257024Y-83604819D01*
X88257024Y-83604819D02*
X88447500Y-82890533D01*
X88447500Y-82890533D02*
X88637976Y-83604819D01*
X88637976Y-83604819D02*
X88876072Y-82604819D01*
X89780833Y-83604819D02*
X89209405Y-83604819D01*
X89495119Y-83604819D02*
X89495119Y-82604819D01*
X89495119Y-82604819D02*
X89399881Y-82747676D01*
X89399881Y-82747676D02*
X89304643Y-82842914D01*
X89304643Y-82842914D02*
X89209405Y-82890533D01*
%TO.C,D7*%
X135061905Y-97554819D02*
X135061905Y-96554819D01*
X135061905Y-96554819D02*
X135300000Y-96554819D01*
X135300000Y-96554819D02*
X135442857Y-96602438D01*
X135442857Y-96602438D02*
X135538095Y-96697676D01*
X135538095Y-96697676D02*
X135585714Y-96792914D01*
X135585714Y-96792914D02*
X135633333Y-96983390D01*
X135633333Y-96983390D02*
X135633333Y-97126247D01*
X135633333Y-97126247D02*
X135585714Y-97316723D01*
X135585714Y-97316723D02*
X135538095Y-97411961D01*
X135538095Y-97411961D02*
X135442857Y-97507200D01*
X135442857Y-97507200D02*
X135300000Y-97554819D01*
X135300000Y-97554819D02*
X135061905Y-97554819D01*
X135966667Y-96554819D02*
X136633333Y-96554819D01*
X136633333Y-96554819D02*
X136204762Y-97554819D01*
%TO.C,D11*%
X154585714Y-97554819D02*
X154585714Y-96554819D01*
X154585714Y-96554819D02*
X154823809Y-96554819D01*
X154823809Y-96554819D02*
X154966666Y-96602438D01*
X154966666Y-96602438D02*
X155061904Y-96697676D01*
X155061904Y-96697676D02*
X155109523Y-96792914D01*
X155109523Y-96792914D02*
X155157142Y-96983390D01*
X155157142Y-96983390D02*
X155157142Y-97126247D01*
X155157142Y-97126247D02*
X155109523Y-97316723D01*
X155109523Y-97316723D02*
X155061904Y-97411961D01*
X155061904Y-97411961D02*
X154966666Y-97507200D01*
X154966666Y-97507200D02*
X154823809Y-97554819D01*
X154823809Y-97554819D02*
X154585714Y-97554819D01*
X156109523Y-97554819D02*
X155538095Y-97554819D01*
X155823809Y-97554819D02*
X155823809Y-96554819D01*
X155823809Y-96554819D02*
X155728571Y-96697676D01*
X155728571Y-96697676D02*
X155633333Y-96792914D01*
X155633333Y-96792914D02*
X155538095Y-96840533D01*
X157061904Y-97554819D02*
X156490476Y-97554819D01*
X156776190Y-97554819D02*
X156776190Y-96554819D01*
X156776190Y-96554819D02*
X156680952Y-96697676D01*
X156680952Y-96697676D02*
X156585714Y-96792914D01*
X156585714Y-96792914D02*
X156490476Y-96840533D01*
%TO.C,R3*%
X101242680Y-79983333D02*
X101718871Y-79650000D01*
X101242680Y-79411905D02*
X102242680Y-79411905D01*
X102242680Y-79411905D02*
X102242680Y-79792857D01*
X102242680Y-79792857D02*
X102195061Y-79888095D01*
X102195061Y-79888095D02*
X102147442Y-79935714D01*
X102147442Y-79935714D02*
X102052204Y-79983333D01*
X102052204Y-79983333D02*
X101909347Y-79983333D01*
X101909347Y-79983333D02*
X101814109Y-79935714D01*
X101814109Y-79935714D02*
X101766490Y-79888095D01*
X101766490Y-79888095D02*
X101718871Y-79792857D01*
X101718871Y-79792857D02*
X101718871Y-79411905D01*
X102242680Y-80316667D02*
X102242680Y-80935714D01*
X102242680Y-80935714D02*
X101861728Y-80602381D01*
X101861728Y-80602381D02*
X101861728Y-80745238D01*
X101861728Y-80745238D02*
X101814109Y-80840476D01*
X101814109Y-80840476D02*
X101766490Y-80888095D01*
X101766490Y-80888095D02*
X101671252Y-80935714D01*
X101671252Y-80935714D02*
X101433157Y-80935714D01*
X101433157Y-80935714D02*
X101337919Y-80888095D01*
X101337919Y-80888095D02*
X101290300Y-80840476D01*
X101290300Y-80840476D02*
X101242680Y-80745238D01*
X101242680Y-80745238D02*
X101242680Y-80459524D01*
X101242680Y-80459524D02*
X101290300Y-80364286D01*
X101290300Y-80364286D02*
X101337919Y-80316667D01*
%TO.C,R1*%
X100452319Y-90066666D02*
X99976128Y-90399999D01*
X100452319Y-90638094D02*
X99452319Y-90638094D01*
X99452319Y-90638094D02*
X99452319Y-90257142D01*
X99452319Y-90257142D02*
X99499938Y-90161904D01*
X99499938Y-90161904D02*
X99547557Y-90114285D01*
X99547557Y-90114285D02*
X99642795Y-90066666D01*
X99642795Y-90066666D02*
X99785652Y-90066666D01*
X99785652Y-90066666D02*
X99880890Y-90114285D01*
X99880890Y-90114285D02*
X99928509Y-90161904D01*
X99928509Y-90161904D02*
X99976128Y-90257142D01*
X99976128Y-90257142D02*
X99976128Y-90638094D01*
X100452319Y-89114285D02*
X100452319Y-89685713D01*
X100452319Y-89399999D02*
X99452319Y-89399999D01*
X99452319Y-89399999D02*
X99595176Y-89495237D01*
X99595176Y-89495237D02*
X99690414Y-89590475D01*
X99690414Y-89590475D02*
X99738033Y-89685713D01*
%TO.C,C21*%
X150207080Y-101142857D02*
X150254700Y-101190476D01*
X150254700Y-101190476D02*
X150302319Y-101333333D01*
X150302319Y-101333333D02*
X150302319Y-101428571D01*
X150302319Y-101428571D02*
X150254700Y-101571428D01*
X150254700Y-101571428D02*
X150159461Y-101666666D01*
X150159461Y-101666666D02*
X150064223Y-101714285D01*
X150064223Y-101714285D02*
X149873747Y-101761904D01*
X149873747Y-101761904D02*
X149730890Y-101761904D01*
X149730890Y-101761904D02*
X149540414Y-101714285D01*
X149540414Y-101714285D02*
X149445176Y-101666666D01*
X149445176Y-101666666D02*
X149349938Y-101571428D01*
X149349938Y-101571428D02*
X149302319Y-101428571D01*
X149302319Y-101428571D02*
X149302319Y-101333333D01*
X149302319Y-101333333D02*
X149349938Y-101190476D01*
X149349938Y-101190476D02*
X149397557Y-101142857D01*
X149397557Y-100761904D02*
X149349938Y-100714285D01*
X149349938Y-100714285D02*
X149302319Y-100619047D01*
X149302319Y-100619047D02*
X149302319Y-100380952D01*
X149302319Y-100380952D02*
X149349938Y-100285714D01*
X149349938Y-100285714D02*
X149397557Y-100238095D01*
X149397557Y-100238095D02*
X149492795Y-100190476D01*
X149492795Y-100190476D02*
X149588033Y-100190476D01*
X149588033Y-100190476D02*
X149730890Y-100238095D01*
X149730890Y-100238095D02*
X150302319Y-100809523D01*
X150302319Y-100809523D02*
X150302319Y-100190476D01*
X150302319Y-99238095D02*
X150302319Y-99809523D01*
X150302319Y-99523809D02*
X149302319Y-99523809D01*
X149302319Y-99523809D02*
X149445176Y-99619047D01*
X149445176Y-99619047D02*
X149540414Y-99714285D01*
X149540414Y-99714285D02*
X149588033Y-99809523D01*
%TO.C,C1*%
X99707080Y-94616666D02*
X99754700Y-94664285D01*
X99754700Y-94664285D02*
X99802319Y-94807142D01*
X99802319Y-94807142D02*
X99802319Y-94902380D01*
X99802319Y-94902380D02*
X99754700Y-95045237D01*
X99754700Y-95045237D02*
X99659461Y-95140475D01*
X99659461Y-95140475D02*
X99564223Y-95188094D01*
X99564223Y-95188094D02*
X99373747Y-95235713D01*
X99373747Y-95235713D02*
X99230890Y-95235713D01*
X99230890Y-95235713D02*
X99040414Y-95188094D01*
X99040414Y-95188094D02*
X98945176Y-95140475D01*
X98945176Y-95140475D02*
X98849938Y-95045237D01*
X98849938Y-95045237D02*
X98802319Y-94902380D01*
X98802319Y-94902380D02*
X98802319Y-94807142D01*
X98802319Y-94807142D02*
X98849938Y-94664285D01*
X98849938Y-94664285D02*
X98897557Y-94616666D01*
X99802319Y-93664285D02*
X99802319Y-94235713D01*
X99802319Y-93949999D02*
X98802319Y-93949999D01*
X98802319Y-93949999D02*
X98945176Y-94045237D01*
X98945176Y-94045237D02*
X99040414Y-94140475D01*
X99040414Y-94140475D02*
X99088033Y-94235713D01*
%TO.C,C10*%
X95204642Y-93659580D02*
X95157023Y-93707200D01*
X95157023Y-93707200D02*
X95014166Y-93754819D01*
X95014166Y-93754819D02*
X94918928Y-93754819D01*
X94918928Y-93754819D02*
X94776071Y-93707200D01*
X94776071Y-93707200D02*
X94680833Y-93611961D01*
X94680833Y-93611961D02*
X94633214Y-93516723D01*
X94633214Y-93516723D02*
X94585595Y-93326247D01*
X94585595Y-93326247D02*
X94585595Y-93183390D01*
X94585595Y-93183390D02*
X94633214Y-92992914D01*
X94633214Y-92992914D02*
X94680833Y-92897676D01*
X94680833Y-92897676D02*
X94776071Y-92802438D01*
X94776071Y-92802438D02*
X94918928Y-92754819D01*
X94918928Y-92754819D02*
X95014166Y-92754819D01*
X95014166Y-92754819D02*
X95157023Y-92802438D01*
X95157023Y-92802438D02*
X95204642Y-92850057D01*
X96157023Y-93754819D02*
X95585595Y-93754819D01*
X95871309Y-93754819D02*
X95871309Y-92754819D01*
X95871309Y-92754819D02*
X95776071Y-92897676D01*
X95776071Y-92897676D02*
X95680833Y-92992914D01*
X95680833Y-92992914D02*
X95585595Y-93040533D01*
X96776071Y-92754819D02*
X96871309Y-92754819D01*
X96871309Y-92754819D02*
X96966547Y-92802438D01*
X96966547Y-92802438D02*
X97014166Y-92850057D01*
X97014166Y-92850057D02*
X97061785Y-92945295D01*
X97061785Y-92945295D02*
X97109404Y-93135771D01*
X97109404Y-93135771D02*
X97109404Y-93373866D01*
X97109404Y-93373866D02*
X97061785Y-93564342D01*
X97061785Y-93564342D02*
X97014166Y-93659580D01*
X97014166Y-93659580D02*
X96966547Y-93707200D01*
X96966547Y-93707200D02*
X96871309Y-93754819D01*
X96871309Y-93754819D02*
X96776071Y-93754819D01*
X96776071Y-93754819D02*
X96680833Y-93707200D01*
X96680833Y-93707200D02*
X96633214Y-93659580D01*
X96633214Y-93659580D02*
X96585595Y-93564342D01*
X96585595Y-93564342D02*
X96537976Y-93373866D01*
X96537976Y-93373866D02*
X96537976Y-93135771D01*
X96537976Y-93135771D02*
X96585595Y-92945295D01*
X96585595Y-92945295D02*
X96633214Y-92850057D01*
X96633214Y-92850057D02*
X96680833Y-92802438D01*
X96680833Y-92802438D02*
X96776071Y-92754819D01*
%TO.C,C17*%
X130777080Y-101242857D02*
X130824700Y-101290476D01*
X130824700Y-101290476D02*
X130872319Y-101433333D01*
X130872319Y-101433333D02*
X130872319Y-101528571D01*
X130872319Y-101528571D02*
X130824700Y-101671428D01*
X130824700Y-101671428D02*
X130729461Y-101766666D01*
X130729461Y-101766666D02*
X130634223Y-101814285D01*
X130634223Y-101814285D02*
X130443747Y-101861904D01*
X130443747Y-101861904D02*
X130300890Y-101861904D01*
X130300890Y-101861904D02*
X130110414Y-101814285D01*
X130110414Y-101814285D02*
X130015176Y-101766666D01*
X130015176Y-101766666D02*
X129919938Y-101671428D01*
X129919938Y-101671428D02*
X129872319Y-101528571D01*
X129872319Y-101528571D02*
X129872319Y-101433333D01*
X129872319Y-101433333D02*
X129919938Y-101290476D01*
X129919938Y-101290476D02*
X129967557Y-101242857D01*
X130872319Y-100290476D02*
X130872319Y-100861904D01*
X130872319Y-100576190D02*
X129872319Y-100576190D01*
X129872319Y-100576190D02*
X130015176Y-100671428D01*
X130015176Y-100671428D02*
X130110414Y-100766666D01*
X130110414Y-100766666D02*
X130158033Y-100861904D01*
X129872319Y-99957142D02*
X129872319Y-99290476D01*
X129872319Y-99290476D02*
X130872319Y-99719047D01*
%TO.C,C13*%
X110777080Y-101242857D02*
X110824700Y-101290476D01*
X110824700Y-101290476D02*
X110872319Y-101433333D01*
X110872319Y-101433333D02*
X110872319Y-101528571D01*
X110872319Y-101528571D02*
X110824700Y-101671428D01*
X110824700Y-101671428D02*
X110729461Y-101766666D01*
X110729461Y-101766666D02*
X110634223Y-101814285D01*
X110634223Y-101814285D02*
X110443747Y-101861904D01*
X110443747Y-101861904D02*
X110300890Y-101861904D01*
X110300890Y-101861904D02*
X110110414Y-101814285D01*
X110110414Y-101814285D02*
X110015176Y-101766666D01*
X110015176Y-101766666D02*
X109919938Y-101671428D01*
X109919938Y-101671428D02*
X109872319Y-101528571D01*
X109872319Y-101528571D02*
X109872319Y-101433333D01*
X109872319Y-101433333D02*
X109919938Y-101290476D01*
X109919938Y-101290476D02*
X109967557Y-101242857D01*
X110872319Y-100290476D02*
X110872319Y-100861904D01*
X110872319Y-100576190D02*
X109872319Y-100576190D01*
X109872319Y-100576190D02*
X110015176Y-100671428D01*
X110015176Y-100671428D02*
X110110414Y-100766666D01*
X110110414Y-100766666D02*
X110158033Y-100861904D01*
X109872319Y-99957142D02*
X109872319Y-99338095D01*
X109872319Y-99338095D02*
X110253271Y-99671428D01*
X110253271Y-99671428D02*
X110253271Y-99528571D01*
X110253271Y-99528571D02*
X110300890Y-99433333D01*
X110300890Y-99433333D02*
X110348509Y-99385714D01*
X110348509Y-99385714D02*
X110443747Y-99338095D01*
X110443747Y-99338095D02*
X110681842Y-99338095D01*
X110681842Y-99338095D02*
X110777080Y-99385714D01*
X110777080Y-99385714D02*
X110824700Y-99433333D01*
X110824700Y-99433333D02*
X110872319Y-99528571D01*
X110872319Y-99528571D02*
X110872319Y-99814285D01*
X110872319Y-99814285D02*
X110824700Y-99909523D01*
X110824700Y-99909523D02*
X110777080Y-99957142D01*
%TO.C,J2*%
X122239166Y-96154819D02*
X122239166Y-96869104D01*
X122239166Y-96869104D02*
X122191547Y-97011961D01*
X122191547Y-97011961D02*
X122096309Y-97107200D01*
X122096309Y-97107200D02*
X121953452Y-97154819D01*
X121953452Y-97154819D02*
X121858214Y-97154819D01*
X122667738Y-96250057D02*
X122715357Y-96202438D01*
X122715357Y-96202438D02*
X122810595Y-96154819D01*
X122810595Y-96154819D02*
X123048690Y-96154819D01*
X123048690Y-96154819D02*
X123143928Y-96202438D01*
X123143928Y-96202438D02*
X123191547Y-96250057D01*
X123191547Y-96250057D02*
X123239166Y-96345295D01*
X123239166Y-96345295D02*
X123239166Y-96440533D01*
X123239166Y-96440533D02*
X123191547Y-96583390D01*
X123191547Y-96583390D02*
X122620119Y-97154819D01*
X122620119Y-97154819D02*
X123239166Y-97154819D01*
%TO.C,TP1*%
X89285595Y-95954819D02*
X89857023Y-95954819D01*
X89571309Y-96954819D02*
X89571309Y-95954819D01*
X90190357Y-96954819D02*
X90190357Y-95954819D01*
X90190357Y-95954819D02*
X90571309Y-95954819D01*
X90571309Y-95954819D02*
X90666547Y-96002438D01*
X90666547Y-96002438D02*
X90714166Y-96050057D01*
X90714166Y-96050057D02*
X90761785Y-96145295D01*
X90761785Y-96145295D02*
X90761785Y-96288152D01*
X90761785Y-96288152D02*
X90714166Y-96383390D01*
X90714166Y-96383390D02*
X90666547Y-96431009D01*
X90666547Y-96431009D02*
X90571309Y-96478628D01*
X90571309Y-96478628D02*
X90190357Y-96478628D01*
X91714166Y-96954819D02*
X91142738Y-96954819D01*
X91428452Y-96954819D02*
X91428452Y-95954819D01*
X91428452Y-95954819D02*
X91333214Y-96097676D01*
X91333214Y-96097676D02*
X91237976Y-96192914D01*
X91237976Y-96192914D02*
X91142738Y-96240533D01*
%TO.C,R7*%
X91760833Y-85354819D02*
X91427500Y-84878628D01*
X91189405Y-85354819D02*
X91189405Y-84354819D01*
X91189405Y-84354819D02*
X91570357Y-84354819D01*
X91570357Y-84354819D02*
X91665595Y-84402438D01*
X91665595Y-84402438D02*
X91713214Y-84450057D01*
X91713214Y-84450057D02*
X91760833Y-84545295D01*
X91760833Y-84545295D02*
X91760833Y-84688152D01*
X91760833Y-84688152D02*
X91713214Y-84783390D01*
X91713214Y-84783390D02*
X91665595Y-84831009D01*
X91665595Y-84831009D02*
X91570357Y-84878628D01*
X91570357Y-84878628D02*
X91189405Y-84878628D01*
X92094167Y-84354819D02*
X92760833Y-84354819D01*
X92760833Y-84354819D02*
X92332262Y-85354819D01*
%TO.C,C23*%
X160207080Y-101242857D02*
X160254700Y-101290476D01*
X160254700Y-101290476D02*
X160302319Y-101433333D01*
X160302319Y-101433333D02*
X160302319Y-101528571D01*
X160302319Y-101528571D02*
X160254700Y-101671428D01*
X160254700Y-101671428D02*
X160159461Y-101766666D01*
X160159461Y-101766666D02*
X160064223Y-101814285D01*
X160064223Y-101814285D02*
X159873747Y-101861904D01*
X159873747Y-101861904D02*
X159730890Y-101861904D01*
X159730890Y-101861904D02*
X159540414Y-101814285D01*
X159540414Y-101814285D02*
X159445176Y-101766666D01*
X159445176Y-101766666D02*
X159349938Y-101671428D01*
X159349938Y-101671428D02*
X159302319Y-101528571D01*
X159302319Y-101528571D02*
X159302319Y-101433333D01*
X159302319Y-101433333D02*
X159349938Y-101290476D01*
X159349938Y-101290476D02*
X159397557Y-101242857D01*
X159397557Y-100861904D02*
X159349938Y-100814285D01*
X159349938Y-100814285D02*
X159302319Y-100719047D01*
X159302319Y-100719047D02*
X159302319Y-100480952D01*
X159302319Y-100480952D02*
X159349938Y-100385714D01*
X159349938Y-100385714D02*
X159397557Y-100338095D01*
X159397557Y-100338095D02*
X159492795Y-100290476D01*
X159492795Y-100290476D02*
X159588033Y-100290476D01*
X159588033Y-100290476D02*
X159730890Y-100338095D01*
X159730890Y-100338095D02*
X160302319Y-100909523D01*
X160302319Y-100909523D02*
X160302319Y-100290476D01*
X159302319Y-99957142D02*
X159302319Y-99338095D01*
X159302319Y-99338095D02*
X159683271Y-99671428D01*
X159683271Y-99671428D02*
X159683271Y-99528571D01*
X159683271Y-99528571D02*
X159730890Y-99433333D01*
X159730890Y-99433333D02*
X159778509Y-99385714D01*
X159778509Y-99385714D02*
X159873747Y-99338095D01*
X159873747Y-99338095D02*
X160111842Y-99338095D01*
X160111842Y-99338095D02*
X160207080Y-99385714D01*
X160207080Y-99385714D02*
X160254700Y-99433333D01*
X160254700Y-99433333D02*
X160302319Y-99528571D01*
X160302319Y-99528571D02*
X160302319Y-99814285D01*
X160302319Y-99814285D02*
X160254700Y-99909523D01*
X160254700Y-99909523D02*
X160207080Y-99957142D01*
%TO.C,C7*%
X90580833Y-104159580D02*
X90533214Y-104207200D01*
X90533214Y-104207200D02*
X90390357Y-104254819D01*
X90390357Y-104254819D02*
X90295119Y-104254819D01*
X90295119Y-104254819D02*
X90152262Y-104207200D01*
X90152262Y-104207200D02*
X90057024Y-104111961D01*
X90057024Y-104111961D02*
X90009405Y-104016723D01*
X90009405Y-104016723D02*
X89961786Y-103826247D01*
X89961786Y-103826247D02*
X89961786Y-103683390D01*
X89961786Y-103683390D02*
X90009405Y-103492914D01*
X90009405Y-103492914D02*
X90057024Y-103397676D01*
X90057024Y-103397676D02*
X90152262Y-103302438D01*
X90152262Y-103302438D02*
X90295119Y-103254819D01*
X90295119Y-103254819D02*
X90390357Y-103254819D01*
X90390357Y-103254819D02*
X90533214Y-103302438D01*
X90533214Y-103302438D02*
X90580833Y-103350057D01*
X90914167Y-103254819D02*
X91580833Y-103254819D01*
X91580833Y-103254819D02*
X91152262Y-104254819D01*
%TO.C,C2*%
X102905833Y-97109580D02*
X102858214Y-97157200D01*
X102858214Y-97157200D02*
X102715357Y-97204819D01*
X102715357Y-97204819D02*
X102620119Y-97204819D01*
X102620119Y-97204819D02*
X102477262Y-97157200D01*
X102477262Y-97157200D02*
X102382024Y-97061961D01*
X102382024Y-97061961D02*
X102334405Y-96966723D01*
X102334405Y-96966723D02*
X102286786Y-96776247D01*
X102286786Y-96776247D02*
X102286786Y-96633390D01*
X102286786Y-96633390D02*
X102334405Y-96442914D01*
X102334405Y-96442914D02*
X102382024Y-96347676D01*
X102382024Y-96347676D02*
X102477262Y-96252438D01*
X102477262Y-96252438D02*
X102620119Y-96204819D01*
X102620119Y-96204819D02*
X102715357Y-96204819D01*
X102715357Y-96204819D02*
X102858214Y-96252438D01*
X102858214Y-96252438D02*
X102905833Y-96300057D01*
X103286786Y-96300057D02*
X103334405Y-96252438D01*
X103334405Y-96252438D02*
X103429643Y-96204819D01*
X103429643Y-96204819D02*
X103667738Y-96204819D01*
X103667738Y-96204819D02*
X103762976Y-96252438D01*
X103762976Y-96252438D02*
X103810595Y-96300057D01*
X103810595Y-96300057D02*
X103858214Y-96395295D01*
X103858214Y-96395295D02*
X103858214Y-96490533D01*
X103858214Y-96490533D02*
X103810595Y-96633390D01*
X103810595Y-96633390D02*
X103239167Y-97204819D01*
X103239167Y-97204819D02*
X103858214Y-97204819D01*
%TO.C,D23*%
X214585714Y-97554819D02*
X214585714Y-96554819D01*
X214585714Y-96554819D02*
X214823809Y-96554819D01*
X214823809Y-96554819D02*
X214966666Y-96602438D01*
X214966666Y-96602438D02*
X215061904Y-96697676D01*
X215061904Y-96697676D02*
X215109523Y-96792914D01*
X215109523Y-96792914D02*
X215157142Y-96983390D01*
X215157142Y-96983390D02*
X215157142Y-97126247D01*
X215157142Y-97126247D02*
X215109523Y-97316723D01*
X215109523Y-97316723D02*
X215061904Y-97411961D01*
X215061904Y-97411961D02*
X214966666Y-97507200D01*
X214966666Y-97507200D02*
X214823809Y-97554819D01*
X214823809Y-97554819D02*
X214585714Y-97554819D01*
X215538095Y-96650057D02*
X215585714Y-96602438D01*
X215585714Y-96602438D02*
X215680952Y-96554819D01*
X215680952Y-96554819D02*
X215919047Y-96554819D01*
X215919047Y-96554819D02*
X216014285Y-96602438D01*
X216014285Y-96602438D02*
X216061904Y-96650057D01*
X216061904Y-96650057D02*
X216109523Y-96745295D01*
X216109523Y-96745295D02*
X216109523Y-96840533D01*
X216109523Y-96840533D02*
X216061904Y-96983390D01*
X216061904Y-96983390D02*
X215490476Y-97554819D01*
X215490476Y-97554819D02*
X216109523Y-97554819D01*
X216442857Y-96554819D02*
X217061904Y-96554819D01*
X217061904Y-96554819D02*
X216728571Y-96935771D01*
X216728571Y-96935771D02*
X216871428Y-96935771D01*
X216871428Y-96935771D02*
X216966666Y-96983390D01*
X216966666Y-96983390D02*
X217014285Y-97031009D01*
X217014285Y-97031009D02*
X217061904Y-97126247D01*
X217061904Y-97126247D02*
X217061904Y-97364342D01*
X217061904Y-97364342D02*
X217014285Y-97459580D01*
X217014285Y-97459580D02*
X216966666Y-97507200D01*
X216966666Y-97507200D02*
X216871428Y-97554819D01*
X216871428Y-97554819D02*
X216585714Y-97554819D01*
X216585714Y-97554819D02*
X216490476Y-97507200D01*
X216490476Y-97507200D02*
X216442857Y-97459580D01*
%TO.C,TP3*%
X107138095Y-103654819D02*
X107709523Y-103654819D01*
X107423809Y-104654819D02*
X107423809Y-103654819D01*
X108042857Y-104654819D02*
X108042857Y-103654819D01*
X108042857Y-103654819D02*
X108423809Y-103654819D01*
X108423809Y-103654819D02*
X108519047Y-103702438D01*
X108519047Y-103702438D02*
X108566666Y-103750057D01*
X108566666Y-103750057D02*
X108614285Y-103845295D01*
X108614285Y-103845295D02*
X108614285Y-103988152D01*
X108614285Y-103988152D02*
X108566666Y-104083390D01*
X108566666Y-104083390D02*
X108519047Y-104131009D01*
X108519047Y-104131009D02*
X108423809Y-104178628D01*
X108423809Y-104178628D02*
X108042857Y-104178628D01*
X108947619Y-103654819D02*
X109566666Y-103654819D01*
X109566666Y-103654819D02*
X109233333Y-104035771D01*
X109233333Y-104035771D02*
X109376190Y-104035771D01*
X109376190Y-104035771D02*
X109471428Y-104083390D01*
X109471428Y-104083390D02*
X109519047Y-104131009D01*
X109519047Y-104131009D02*
X109566666Y-104226247D01*
X109566666Y-104226247D02*
X109566666Y-104464342D01*
X109566666Y-104464342D02*
X109519047Y-104559580D01*
X109519047Y-104559580D02*
X109471428Y-104607200D01*
X109471428Y-104607200D02*
X109376190Y-104654819D01*
X109376190Y-104654819D02*
X109090476Y-104654819D01*
X109090476Y-104654819D02*
X108995238Y-104607200D01*
X108995238Y-104607200D02*
X108947619Y-104559580D01*
%TO.C,U3*%
X93188095Y-103254819D02*
X93188095Y-104064342D01*
X93188095Y-104064342D02*
X93235714Y-104159580D01*
X93235714Y-104159580D02*
X93283333Y-104207200D01*
X93283333Y-104207200D02*
X93378571Y-104254819D01*
X93378571Y-104254819D02*
X93569047Y-104254819D01*
X93569047Y-104254819D02*
X93664285Y-104207200D01*
X93664285Y-104207200D02*
X93711904Y-104159580D01*
X93711904Y-104159580D02*
X93759523Y-104064342D01*
X93759523Y-104064342D02*
X93759523Y-103254819D01*
X94140476Y-103254819D02*
X94759523Y-103254819D01*
X94759523Y-103254819D02*
X94426190Y-103635771D01*
X94426190Y-103635771D02*
X94569047Y-103635771D01*
X94569047Y-103635771D02*
X94664285Y-103683390D01*
X94664285Y-103683390D02*
X94711904Y-103731009D01*
X94711904Y-103731009D02*
X94759523Y-103826247D01*
X94759523Y-103826247D02*
X94759523Y-104064342D01*
X94759523Y-104064342D02*
X94711904Y-104159580D01*
X94711904Y-104159580D02*
X94664285Y-104207200D01*
X94664285Y-104207200D02*
X94569047Y-104254819D01*
X94569047Y-104254819D02*
X94283333Y-104254819D01*
X94283333Y-104254819D02*
X94188095Y-104207200D01*
X94188095Y-104207200D02*
X94140476Y-104159580D01*
%TO.C,TP2*%
X107138095Y-96554819D02*
X107709523Y-96554819D01*
X107423809Y-97554819D02*
X107423809Y-96554819D01*
X108042857Y-97554819D02*
X108042857Y-96554819D01*
X108042857Y-96554819D02*
X108423809Y-96554819D01*
X108423809Y-96554819D02*
X108519047Y-96602438D01*
X108519047Y-96602438D02*
X108566666Y-96650057D01*
X108566666Y-96650057D02*
X108614285Y-96745295D01*
X108614285Y-96745295D02*
X108614285Y-96888152D01*
X108614285Y-96888152D02*
X108566666Y-96983390D01*
X108566666Y-96983390D02*
X108519047Y-97031009D01*
X108519047Y-97031009D02*
X108423809Y-97078628D01*
X108423809Y-97078628D02*
X108042857Y-97078628D01*
X108995238Y-96650057D02*
X109042857Y-96602438D01*
X109042857Y-96602438D02*
X109138095Y-96554819D01*
X109138095Y-96554819D02*
X109376190Y-96554819D01*
X109376190Y-96554819D02*
X109471428Y-96602438D01*
X109471428Y-96602438D02*
X109519047Y-96650057D01*
X109519047Y-96650057D02*
X109566666Y-96745295D01*
X109566666Y-96745295D02*
X109566666Y-96840533D01*
X109566666Y-96840533D02*
X109519047Y-96983390D01*
X109519047Y-96983390D02*
X108947619Y-97554819D01*
X108947619Y-97554819D02*
X109566666Y-97554819D01*
%TO.C,C25*%
X170207080Y-101242857D02*
X170254700Y-101290476D01*
X170254700Y-101290476D02*
X170302319Y-101433333D01*
X170302319Y-101433333D02*
X170302319Y-101528571D01*
X170302319Y-101528571D02*
X170254700Y-101671428D01*
X170254700Y-101671428D02*
X170159461Y-101766666D01*
X170159461Y-101766666D02*
X170064223Y-101814285D01*
X170064223Y-101814285D02*
X169873747Y-101861904D01*
X169873747Y-101861904D02*
X169730890Y-101861904D01*
X169730890Y-101861904D02*
X169540414Y-101814285D01*
X169540414Y-101814285D02*
X169445176Y-101766666D01*
X169445176Y-101766666D02*
X169349938Y-101671428D01*
X169349938Y-101671428D02*
X169302319Y-101528571D01*
X169302319Y-101528571D02*
X169302319Y-101433333D01*
X169302319Y-101433333D02*
X169349938Y-101290476D01*
X169349938Y-101290476D02*
X169397557Y-101242857D01*
X169397557Y-100861904D02*
X169349938Y-100814285D01*
X169349938Y-100814285D02*
X169302319Y-100719047D01*
X169302319Y-100719047D02*
X169302319Y-100480952D01*
X169302319Y-100480952D02*
X169349938Y-100385714D01*
X169349938Y-100385714D02*
X169397557Y-100338095D01*
X169397557Y-100338095D02*
X169492795Y-100290476D01*
X169492795Y-100290476D02*
X169588033Y-100290476D01*
X169588033Y-100290476D02*
X169730890Y-100338095D01*
X169730890Y-100338095D02*
X170302319Y-100909523D01*
X170302319Y-100909523D02*
X170302319Y-100290476D01*
X169302319Y-99385714D02*
X169302319Y-99861904D01*
X169302319Y-99861904D02*
X169778509Y-99909523D01*
X169778509Y-99909523D02*
X169730890Y-99861904D01*
X169730890Y-99861904D02*
X169683271Y-99766666D01*
X169683271Y-99766666D02*
X169683271Y-99528571D01*
X169683271Y-99528571D02*
X169730890Y-99433333D01*
X169730890Y-99433333D02*
X169778509Y-99385714D01*
X169778509Y-99385714D02*
X169873747Y-99338095D01*
X169873747Y-99338095D02*
X170111842Y-99338095D01*
X170111842Y-99338095D02*
X170207080Y-99385714D01*
X170207080Y-99385714D02*
X170254700Y-99433333D01*
X170254700Y-99433333D02*
X170302319Y-99528571D01*
X170302319Y-99528571D02*
X170302319Y-99766666D01*
X170302319Y-99766666D02*
X170254700Y-99861904D01*
X170254700Y-99861904D02*
X170207080Y-99909523D01*
%TO.C,D15*%
X174585714Y-97554819D02*
X174585714Y-96554819D01*
X174585714Y-96554819D02*
X174823809Y-96554819D01*
X174823809Y-96554819D02*
X174966666Y-96602438D01*
X174966666Y-96602438D02*
X175061904Y-96697676D01*
X175061904Y-96697676D02*
X175109523Y-96792914D01*
X175109523Y-96792914D02*
X175157142Y-96983390D01*
X175157142Y-96983390D02*
X175157142Y-97126247D01*
X175157142Y-97126247D02*
X175109523Y-97316723D01*
X175109523Y-97316723D02*
X175061904Y-97411961D01*
X175061904Y-97411961D02*
X174966666Y-97507200D01*
X174966666Y-97507200D02*
X174823809Y-97554819D01*
X174823809Y-97554819D02*
X174585714Y-97554819D01*
X176109523Y-97554819D02*
X175538095Y-97554819D01*
X175823809Y-97554819D02*
X175823809Y-96554819D01*
X175823809Y-96554819D02*
X175728571Y-96697676D01*
X175728571Y-96697676D02*
X175633333Y-96792914D01*
X175633333Y-96792914D02*
X175538095Y-96840533D01*
X177014285Y-96554819D02*
X176538095Y-96554819D01*
X176538095Y-96554819D02*
X176490476Y-97031009D01*
X176490476Y-97031009D02*
X176538095Y-96983390D01*
X176538095Y-96983390D02*
X176633333Y-96935771D01*
X176633333Y-96935771D02*
X176871428Y-96935771D01*
X176871428Y-96935771D02*
X176966666Y-96983390D01*
X176966666Y-96983390D02*
X177014285Y-97031009D01*
X177014285Y-97031009D02*
X177061904Y-97126247D01*
X177061904Y-97126247D02*
X177061904Y-97364342D01*
X177061904Y-97364342D02*
X177014285Y-97459580D01*
X177014285Y-97459580D02*
X176966666Y-97507200D01*
X176966666Y-97507200D02*
X176871428Y-97554819D01*
X176871428Y-97554819D02*
X176633333Y-97554819D01*
X176633333Y-97554819D02*
X176538095Y-97507200D01*
X176538095Y-97507200D02*
X176490476Y-97459580D01*
%TO.C,D17*%
X184585714Y-97554819D02*
X184585714Y-96554819D01*
X184585714Y-96554819D02*
X184823809Y-96554819D01*
X184823809Y-96554819D02*
X184966666Y-96602438D01*
X184966666Y-96602438D02*
X185061904Y-96697676D01*
X185061904Y-96697676D02*
X185109523Y-96792914D01*
X185109523Y-96792914D02*
X185157142Y-96983390D01*
X185157142Y-96983390D02*
X185157142Y-97126247D01*
X185157142Y-97126247D02*
X185109523Y-97316723D01*
X185109523Y-97316723D02*
X185061904Y-97411961D01*
X185061904Y-97411961D02*
X184966666Y-97507200D01*
X184966666Y-97507200D02*
X184823809Y-97554819D01*
X184823809Y-97554819D02*
X184585714Y-97554819D01*
X186109523Y-97554819D02*
X185538095Y-97554819D01*
X185823809Y-97554819D02*
X185823809Y-96554819D01*
X185823809Y-96554819D02*
X185728571Y-96697676D01*
X185728571Y-96697676D02*
X185633333Y-96792914D01*
X185633333Y-96792914D02*
X185538095Y-96840533D01*
X186442857Y-96554819D02*
X187109523Y-96554819D01*
X187109523Y-96554819D02*
X186680952Y-97554819D01*
%TO.C,D21*%
X204585714Y-97554819D02*
X204585714Y-96554819D01*
X204585714Y-96554819D02*
X204823809Y-96554819D01*
X204823809Y-96554819D02*
X204966666Y-96602438D01*
X204966666Y-96602438D02*
X205061904Y-96697676D01*
X205061904Y-96697676D02*
X205109523Y-96792914D01*
X205109523Y-96792914D02*
X205157142Y-96983390D01*
X205157142Y-96983390D02*
X205157142Y-97126247D01*
X205157142Y-97126247D02*
X205109523Y-97316723D01*
X205109523Y-97316723D02*
X205061904Y-97411961D01*
X205061904Y-97411961D02*
X204966666Y-97507200D01*
X204966666Y-97507200D02*
X204823809Y-97554819D01*
X204823809Y-97554819D02*
X204585714Y-97554819D01*
X205538095Y-96650057D02*
X205585714Y-96602438D01*
X205585714Y-96602438D02*
X205680952Y-96554819D01*
X205680952Y-96554819D02*
X205919047Y-96554819D01*
X205919047Y-96554819D02*
X206014285Y-96602438D01*
X206014285Y-96602438D02*
X206061904Y-96650057D01*
X206061904Y-96650057D02*
X206109523Y-96745295D01*
X206109523Y-96745295D02*
X206109523Y-96840533D01*
X206109523Y-96840533D02*
X206061904Y-96983390D01*
X206061904Y-96983390D02*
X205490476Y-97554819D01*
X205490476Y-97554819D02*
X206109523Y-97554819D01*
X207061904Y-97554819D02*
X206490476Y-97554819D01*
X206776190Y-97554819D02*
X206776190Y-96554819D01*
X206776190Y-96554819D02*
X206680952Y-96697676D01*
X206680952Y-96697676D02*
X206585714Y-96792914D01*
X206585714Y-96792914D02*
X206490476Y-96840533D01*
%TO.C,MK1*%
X90642680Y-77790476D02*
X91642680Y-77790476D01*
X91642680Y-77790476D02*
X90928395Y-78123809D01*
X90928395Y-78123809D02*
X91642680Y-78457142D01*
X91642680Y-78457142D02*
X90642680Y-78457142D01*
X90642680Y-78933333D02*
X91642680Y-78933333D01*
X90642680Y-79504761D02*
X91214109Y-79076190D01*
X91642680Y-79504761D02*
X91071252Y-78933333D01*
X90642680Y-80457142D02*
X90642680Y-79885714D01*
X90642680Y-80171428D02*
X91642680Y-80171428D01*
X91642680Y-80171428D02*
X91499823Y-80076190D01*
X91499823Y-80076190D02*
X91404585Y-79980952D01*
X91404585Y-79980952D02*
X91356966Y-79885714D01*
%TO.C,R9*%
X89302319Y-94966666D02*
X88826128Y-95299999D01*
X89302319Y-95538094D02*
X88302319Y-95538094D01*
X88302319Y-95538094D02*
X88302319Y-95157142D01*
X88302319Y-95157142D02*
X88349938Y-95061904D01*
X88349938Y-95061904D02*
X88397557Y-95014285D01*
X88397557Y-95014285D02*
X88492795Y-94966666D01*
X88492795Y-94966666D02*
X88635652Y-94966666D01*
X88635652Y-94966666D02*
X88730890Y-95014285D01*
X88730890Y-95014285D02*
X88778509Y-95061904D01*
X88778509Y-95061904D02*
X88826128Y-95157142D01*
X88826128Y-95157142D02*
X88826128Y-95538094D01*
X89302319Y-94490475D02*
X89302319Y-94299999D01*
X89302319Y-94299999D02*
X89254700Y-94204761D01*
X89254700Y-94204761D02*
X89207080Y-94157142D01*
X89207080Y-94157142D02*
X89064223Y-94061904D01*
X89064223Y-94061904D02*
X88873747Y-94014285D01*
X88873747Y-94014285D02*
X88492795Y-94014285D01*
X88492795Y-94014285D02*
X88397557Y-94061904D01*
X88397557Y-94061904D02*
X88349938Y-94109523D01*
X88349938Y-94109523D02*
X88302319Y-94204761D01*
X88302319Y-94204761D02*
X88302319Y-94395237D01*
X88302319Y-94395237D02*
X88349938Y-94490475D01*
X88349938Y-94490475D02*
X88397557Y-94538094D01*
X88397557Y-94538094D02*
X88492795Y-94585713D01*
X88492795Y-94585713D02*
X88730890Y-94585713D01*
X88730890Y-94585713D02*
X88826128Y-94538094D01*
X88826128Y-94538094D02*
X88873747Y-94490475D01*
X88873747Y-94490475D02*
X88921366Y-94395237D01*
X88921366Y-94395237D02*
X88921366Y-94204761D01*
X88921366Y-94204761D02*
X88873747Y-94109523D01*
X88873747Y-94109523D02*
X88826128Y-94061904D01*
X88826128Y-94061904D02*
X88730890Y-94014285D01*
%TO.C,D19*%
X194585714Y-97554819D02*
X194585714Y-96554819D01*
X194585714Y-96554819D02*
X194823809Y-96554819D01*
X194823809Y-96554819D02*
X194966666Y-96602438D01*
X194966666Y-96602438D02*
X195061904Y-96697676D01*
X195061904Y-96697676D02*
X195109523Y-96792914D01*
X195109523Y-96792914D02*
X195157142Y-96983390D01*
X195157142Y-96983390D02*
X195157142Y-97126247D01*
X195157142Y-97126247D02*
X195109523Y-97316723D01*
X195109523Y-97316723D02*
X195061904Y-97411961D01*
X195061904Y-97411961D02*
X194966666Y-97507200D01*
X194966666Y-97507200D02*
X194823809Y-97554819D01*
X194823809Y-97554819D02*
X194585714Y-97554819D01*
X196109523Y-97554819D02*
X195538095Y-97554819D01*
X195823809Y-97554819D02*
X195823809Y-96554819D01*
X195823809Y-96554819D02*
X195728571Y-96697676D01*
X195728571Y-96697676D02*
X195633333Y-96792914D01*
X195633333Y-96792914D02*
X195538095Y-96840533D01*
X196585714Y-97554819D02*
X196776190Y-97554819D01*
X196776190Y-97554819D02*
X196871428Y-97507200D01*
X196871428Y-97507200D02*
X196919047Y-97459580D01*
X196919047Y-97459580D02*
X197014285Y-97316723D01*
X197014285Y-97316723D02*
X197061904Y-97126247D01*
X197061904Y-97126247D02*
X197061904Y-96745295D01*
X197061904Y-96745295D02*
X197014285Y-96650057D01*
X197014285Y-96650057D02*
X196966666Y-96602438D01*
X196966666Y-96602438D02*
X196871428Y-96554819D01*
X196871428Y-96554819D02*
X196680952Y-96554819D01*
X196680952Y-96554819D02*
X196585714Y-96602438D01*
X196585714Y-96602438D02*
X196538095Y-96650057D01*
X196538095Y-96650057D02*
X196490476Y-96745295D01*
X196490476Y-96745295D02*
X196490476Y-96983390D01*
X196490476Y-96983390D02*
X196538095Y-97078628D01*
X196538095Y-97078628D02*
X196585714Y-97126247D01*
X196585714Y-97126247D02*
X196680952Y-97173866D01*
X196680952Y-97173866D02*
X196871428Y-97173866D01*
X196871428Y-97173866D02*
X196966666Y-97126247D01*
X196966666Y-97126247D02*
X197014285Y-97078628D01*
X197014285Y-97078628D02*
X197061904Y-96983390D01*
%TO.C,D3*%
X115061905Y-97554819D02*
X115061905Y-96554819D01*
X115061905Y-96554819D02*
X115300000Y-96554819D01*
X115300000Y-96554819D02*
X115442857Y-96602438D01*
X115442857Y-96602438D02*
X115538095Y-96697676D01*
X115538095Y-96697676D02*
X115585714Y-96792914D01*
X115585714Y-96792914D02*
X115633333Y-96983390D01*
X115633333Y-96983390D02*
X115633333Y-97126247D01*
X115633333Y-97126247D02*
X115585714Y-97316723D01*
X115585714Y-97316723D02*
X115538095Y-97411961D01*
X115538095Y-97411961D02*
X115442857Y-97507200D01*
X115442857Y-97507200D02*
X115300000Y-97554819D01*
X115300000Y-97554819D02*
X115061905Y-97554819D01*
X115966667Y-96554819D02*
X116585714Y-96554819D01*
X116585714Y-96554819D02*
X116252381Y-96935771D01*
X116252381Y-96935771D02*
X116395238Y-96935771D01*
X116395238Y-96935771D02*
X116490476Y-96983390D01*
X116490476Y-96983390D02*
X116538095Y-97031009D01*
X116538095Y-97031009D02*
X116585714Y-97126247D01*
X116585714Y-97126247D02*
X116585714Y-97364342D01*
X116585714Y-97364342D02*
X116538095Y-97459580D01*
X116538095Y-97459580D02*
X116490476Y-97507200D01*
X116490476Y-97507200D02*
X116395238Y-97554819D01*
X116395238Y-97554819D02*
X116109524Y-97554819D01*
X116109524Y-97554819D02*
X116014286Y-97507200D01*
X116014286Y-97507200D02*
X115966667Y-97459580D01*
%TO.C,C11*%
X101007080Y-101767857D02*
X101054700Y-101815476D01*
X101054700Y-101815476D02*
X101102319Y-101958333D01*
X101102319Y-101958333D02*
X101102319Y-102053571D01*
X101102319Y-102053571D02*
X101054700Y-102196428D01*
X101054700Y-102196428D02*
X100959461Y-102291666D01*
X100959461Y-102291666D02*
X100864223Y-102339285D01*
X100864223Y-102339285D02*
X100673747Y-102386904D01*
X100673747Y-102386904D02*
X100530890Y-102386904D01*
X100530890Y-102386904D02*
X100340414Y-102339285D01*
X100340414Y-102339285D02*
X100245176Y-102291666D01*
X100245176Y-102291666D02*
X100149938Y-102196428D01*
X100149938Y-102196428D02*
X100102319Y-102053571D01*
X100102319Y-102053571D02*
X100102319Y-101958333D01*
X100102319Y-101958333D02*
X100149938Y-101815476D01*
X100149938Y-101815476D02*
X100197557Y-101767857D01*
X101102319Y-100815476D02*
X101102319Y-101386904D01*
X101102319Y-101101190D02*
X100102319Y-101101190D01*
X100102319Y-101101190D02*
X100245176Y-101196428D01*
X100245176Y-101196428D02*
X100340414Y-101291666D01*
X100340414Y-101291666D02*
X100388033Y-101386904D01*
X101102319Y-99863095D02*
X101102319Y-100434523D01*
X101102319Y-100148809D02*
X100102319Y-100148809D01*
X100102319Y-100148809D02*
X100245176Y-100244047D01*
X100245176Y-100244047D02*
X100340414Y-100339285D01*
X100340414Y-100339285D02*
X100388033Y-100434523D01*
%TO.C,R4*%
X101242680Y-78083333D02*
X101718871Y-77750000D01*
X101242680Y-77511905D02*
X102242680Y-77511905D01*
X102242680Y-77511905D02*
X102242680Y-77892857D01*
X102242680Y-77892857D02*
X102195061Y-77988095D01*
X102195061Y-77988095D02*
X102147442Y-78035714D01*
X102147442Y-78035714D02*
X102052204Y-78083333D01*
X102052204Y-78083333D02*
X101909347Y-78083333D01*
X101909347Y-78083333D02*
X101814109Y-78035714D01*
X101814109Y-78035714D02*
X101766490Y-77988095D01*
X101766490Y-77988095D02*
X101718871Y-77892857D01*
X101718871Y-77892857D02*
X101718871Y-77511905D01*
X101909347Y-78940476D02*
X101242680Y-78940476D01*
X102290300Y-78702381D02*
X101576014Y-78464286D01*
X101576014Y-78464286D02*
X101576014Y-79083333D01*
%TO.C,R6*%
X96692680Y-89658333D02*
X97168871Y-89325000D01*
X96692680Y-89086905D02*
X97692680Y-89086905D01*
X97692680Y-89086905D02*
X97692680Y-89467857D01*
X97692680Y-89467857D02*
X97645061Y-89563095D01*
X97645061Y-89563095D02*
X97597442Y-89610714D01*
X97597442Y-89610714D02*
X97502204Y-89658333D01*
X97502204Y-89658333D02*
X97359347Y-89658333D01*
X97359347Y-89658333D02*
X97264109Y-89610714D01*
X97264109Y-89610714D02*
X97216490Y-89563095D01*
X97216490Y-89563095D02*
X97168871Y-89467857D01*
X97168871Y-89467857D02*
X97168871Y-89086905D01*
X97692680Y-90515476D02*
X97692680Y-90325000D01*
X97692680Y-90325000D02*
X97645061Y-90229762D01*
X97645061Y-90229762D02*
X97597442Y-90182143D01*
X97597442Y-90182143D02*
X97454585Y-90086905D01*
X97454585Y-90086905D02*
X97264109Y-90039286D01*
X97264109Y-90039286D02*
X96883157Y-90039286D01*
X96883157Y-90039286D02*
X96787919Y-90086905D01*
X96787919Y-90086905D02*
X96740300Y-90134524D01*
X96740300Y-90134524D02*
X96692680Y-90229762D01*
X96692680Y-90229762D02*
X96692680Y-90420238D01*
X96692680Y-90420238D02*
X96740300Y-90515476D01*
X96740300Y-90515476D02*
X96787919Y-90563095D01*
X96787919Y-90563095D02*
X96883157Y-90610714D01*
X96883157Y-90610714D02*
X97121252Y-90610714D01*
X97121252Y-90610714D02*
X97216490Y-90563095D01*
X97216490Y-90563095D02*
X97264109Y-90515476D01*
X97264109Y-90515476D02*
X97311728Y-90420238D01*
X97311728Y-90420238D02*
X97311728Y-90229762D01*
X97311728Y-90229762D02*
X97264109Y-90134524D01*
X97264109Y-90134524D02*
X97216490Y-90086905D01*
X97216490Y-90086905D02*
X97121252Y-90039286D01*
%TO.C,C27*%
X180207080Y-101242857D02*
X180254700Y-101290476D01*
X180254700Y-101290476D02*
X180302319Y-101433333D01*
X180302319Y-101433333D02*
X180302319Y-101528571D01*
X180302319Y-101528571D02*
X180254700Y-101671428D01*
X180254700Y-101671428D02*
X180159461Y-101766666D01*
X180159461Y-101766666D02*
X180064223Y-101814285D01*
X180064223Y-101814285D02*
X179873747Y-101861904D01*
X179873747Y-101861904D02*
X179730890Y-101861904D01*
X179730890Y-101861904D02*
X179540414Y-101814285D01*
X179540414Y-101814285D02*
X179445176Y-101766666D01*
X179445176Y-101766666D02*
X179349938Y-101671428D01*
X179349938Y-101671428D02*
X179302319Y-101528571D01*
X179302319Y-101528571D02*
X179302319Y-101433333D01*
X179302319Y-101433333D02*
X179349938Y-101290476D01*
X179349938Y-101290476D02*
X179397557Y-101242857D01*
X179397557Y-100861904D02*
X179349938Y-100814285D01*
X179349938Y-100814285D02*
X179302319Y-100719047D01*
X179302319Y-100719047D02*
X179302319Y-100480952D01*
X179302319Y-100480952D02*
X179349938Y-100385714D01*
X179349938Y-100385714D02*
X179397557Y-100338095D01*
X179397557Y-100338095D02*
X179492795Y-100290476D01*
X179492795Y-100290476D02*
X179588033Y-100290476D01*
X179588033Y-100290476D02*
X179730890Y-100338095D01*
X179730890Y-100338095D02*
X180302319Y-100909523D01*
X180302319Y-100909523D02*
X180302319Y-100290476D01*
X179302319Y-99957142D02*
X179302319Y-99290476D01*
X179302319Y-99290476D02*
X180302319Y-99719047D01*
%TO.C,C9*%
X94557080Y-83516666D02*
X94604700Y-83564285D01*
X94604700Y-83564285D02*
X94652319Y-83707142D01*
X94652319Y-83707142D02*
X94652319Y-83802380D01*
X94652319Y-83802380D02*
X94604700Y-83945237D01*
X94604700Y-83945237D02*
X94509461Y-84040475D01*
X94509461Y-84040475D02*
X94414223Y-84088094D01*
X94414223Y-84088094D02*
X94223747Y-84135713D01*
X94223747Y-84135713D02*
X94080890Y-84135713D01*
X94080890Y-84135713D02*
X93890414Y-84088094D01*
X93890414Y-84088094D02*
X93795176Y-84040475D01*
X93795176Y-84040475D02*
X93699938Y-83945237D01*
X93699938Y-83945237D02*
X93652319Y-83802380D01*
X93652319Y-83802380D02*
X93652319Y-83707142D01*
X93652319Y-83707142D02*
X93699938Y-83564285D01*
X93699938Y-83564285D02*
X93747557Y-83516666D01*
X94652319Y-83040475D02*
X94652319Y-82849999D01*
X94652319Y-82849999D02*
X94604700Y-82754761D01*
X94604700Y-82754761D02*
X94557080Y-82707142D01*
X94557080Y-82707142D02*
X94414223Y-82611904D01*
X94414223Y-82611904D02*
X94223747Y-82564285D01*
X94223747Y-82564285D02*
X93842795Y-82564285D01*
X93842795Y-82564285D02*
X93747557Y-82611904D01*
X93747557Y-82611904D02*
X93699938Y-82659523D01*
X93699938Y-82659523D02*
X93652319Y-82754761D01*
X93652319Y-82754761D02*
X93652319Y-82945237D01*
X93652319Y-82945237D02*
X93699938Y-83040475D01*
X93699938Y-83040475D02*
X93747557Y-83088094D01*
X93747557Y-83088094D02*
X93842795Y-83135713D01*
X93842795Y-83135713D02*
X94080890Y-83135713D01*
X94080890Y-83135713D02*
X94176128Y-83088094D01*
X94176128Y-83088094D02*
X94223747Y-83040475D01*
X94223747Y-83040475D02*
X94271366Y-82945237D01*
X94271366Y-82945237D02*
X94271366Y-82754761D01*
X94271366Y-82754761D02*
X94223747Y-82659523D01*
X94223747Y-82659523D02*
X94176128Y-82611904D01*
X94176128Y-82611904D02*
X94080890Y-82564285D01*
%TO.C,H1*%
X96792680Y-79388095D02*
X97792680Y-79388095D01*
X97316490Y-79388095D02*
X97316490Y-79959523D01*
X96792680Y-79959523D02*
X97792680Y-79959523D01*
X96792680Y-80959523D02*
X96792680Y-80388095D01*
X96792680Y-80673809D02*
X97792680Y-80673809D01*
X97792680Y-80673809D02*
X97649823Y-80578571D01*
X97649823Y-80578571D02*
X97554585Y-80483333D01*
X97554585Y-80483333D02*
X97506966Y-80388095D01*
%TO.C,C31*%
X200209580Y-101242857D02*
X200257200Y-101290476D01*
X200257200Y-101290476D02*
X200304819Y-101433333D01*
X200304819Y-101433333D02*
X200304819Y-101528571D01*
X200304819Y-101528571D02*
X200257200Y-101671428D01*
X200257200Y-101671428D02*
X200161961Y-101766666D01*
X200161961Y-101766666D02*
X200066723Y-101814285D01*
X200066723Y-101814285D02*
X199876247Y-101861904D01*
X199876247Y-101861904D02*
X199733390Y-101861904D01*
X199733390Y-101861904D02*
X199542914Y-101814285D01*
X199542914Y-101814285D02*
X199447676Y-101766666D01*
X199447676Y-101766666D02*
X199352438Y-101671428D01*
X199352438Y-101671428D02*
X199304819Y-101528571D01*
X199304819Y-101528571D02*
X199304819Y-101433333D01*
X199304819Y-101433333D02*
X199352438Y-101290476D01*
X199352438Y-101290476D02*
X199400057Y-101242857D01*
X199304819Y-100909523D02*
X199304819Y-100290476D01*
X199304819Y-100290476D02*
X199685771Y-100623809D01*
X199685771Y-100623809D02*
X199685771Y-100480952D01*
X199685771Y-100480952D02*
X199733390Y-100385714D01*
X199733390Y-100385714D02*
X199781009Y-100338095D01*
X199781009Y-100338095D02*
X199876247Y-100290476D01*
X199876247Y-100290476D02*
X200114342Y-100290476D01*
X200114342Y-100290476D02*
X200209580Y-100338095D01*
X200209580Y-100338095D02*
X200257200Y-100385714D01*
X200257200Y-100385714D02*
X200304819Y-100480952D01*
X200304819Y-100480952D02*
X200304819Y-100766666D01*
X200304819Y-100766666D02*
X200257200Y-100861904D01*
X200257200Y-100861904D02*
X200209580Y-100909523D01*
X200304819Y-99338095D02*
X200304819Y-99909523D01*
X200304819Y-99623809D02*
X199304819Y-99623809D01*
X199304819Y-99623809D02*
X199447676Y-99719047D01*
X199447676Y-99719047D02*
X199542914Y-99814285D01*
X199542914Y-99814285D02*
X199590533Y-99909523D01*
%TO.C,U2*%
X90335595Y-92654819D02*
X90335595Y-93464342D01*
X90335595Y-93464342D02*
X90383214Y-93559580D01*
X90383214Y-93559580D02*
X90430833Y-93607200D01*
X90430833Y-93607200D02*
X90526071Y-93654819D01*
X90526071Y-93654819D02*
X90716547Y-93654819D01*
X90716547Y-93654819D02*
X90811785Y-93607200D01*
X90811785Y-93607200D02*
X90859404Y-93559580D01*
X90859404Y-93559580D02*
X90907023Y-93464342D01*
X90907023Y-93464342D02*
X90907023Y-92654819D01*
X91335595Y-92750057D02*
X91383214Y-92702438D01*
X91383214Y-92702438D02*
X91478452Y-92654819D01*
X91478452Y-92654819D02*
X91716547Y-92654819D01*
X91716547Y-92654819D02*
X91811785Y-92702438D01*
X91811785Y-92702438D02*
X91859404Y-92750057D01*
X91859404Y-92750057D02*
X91907023Y-92845295D01*
X91907023Y-92845295D02*
X91907023Y-92940533D01*
X91907023Y-92940533D02*
X91859404Y-93083390D01*
X91859404Y-93083390D02*
X91287976Y-93654819D01*
X91287976Y-93654819D02*
X91907023Y-93654819D01*
%TO.C,D9*%
X145061905Y-97554819D02*
X145061905Y-96554819D01*
X145061905Y-96554819D02*
X145300000Y-96554819D01*
X145300000Y-96554819D02*
X145442857Y-96602438D01*
X145442857Y-96602438D02*
X145538095Y-96697676D01*
X145538095Y-96697676D02*
X145585714Y-96792914D01*
X145585714Y-96792914D02*
X145633333Y-96983390D01*
X145633333Y-96983390D02*
X145633333Y-97126247D01*
X145633333Y-97126247D02*
X145585714Y-97316723D01*
X145585714Y-97316723D02*
X145538095Y-97411961D01*
X145538095Y-97411961D02*
X145442857Y-97507200D01*
X145442857Y-97507200D02*
X145300000Y-97554819D01*
X145300000Y-97554819D02*
X145061905Y-97554819D01*
X146109524Y-97554819D02*
X146300000Y-97554819D01*
X146300000Y-97554819D02*
X146395238Y-97507200D01*
X146395238Y-97507200D02*
X146442857Y-97459580D01*
X146442857Y-97459580D02*
X146538095Y-97316723D01*
X146538095Y-97316723D02*
X146585714Y-97126247D01*
X146585714Y-97126247D02*
X146585714Y-96745295D01*
X146585714Y-96745295D02*
X146538095Y-96650057D01*
X146538095Y-96650057D02*
X146490476Y-96602438D01*
X146490476Y-96602438D02*
X146395238Y-96554819D01*
X146395238Y-96554819D02*
X146204762Y-96554819D01*
X146204762Y-96554819D02*
X146109524Y-96602438D01*
X146109524Y-96602438D02*
X146061905Y-96650057D01*
X146061905Y-96650057D02*
X146014286Y-96745295D01*
X146014286Y-96745295D02*
X146014286Y-96983390D01*
X146014286Y-96983390D02*
X146061905Y-97078628D01*
X146061905Y-97078628D02*
X146109524Y-97126247D01*
X146109524Y-97126247D02*
X146204762Y-97173866D01*
X146204762Y-97173866D02*
X146395238Y-97173866D01*
X146395238Y-97173866D02*
X146490476Y-97126247D01*
X146490476Y-97126247D02*
X146538095Y-97078628D01*
X146538095Y-97078628D02*
X146585714Y-96983390D01*
%TO.C,C33*%
X210209580Y-101242857D02*
X210257200Y-101290476D01*
X210257200Y-101290476D02*
X210304819Y-101433333D01*
X210304819Y-101433333D02*
X210304819Y-101528571D01*
X210304819Y-101528571D02*
X210257200Y-101671428D01*
X210257200Y-101671428D02*
X210161961Y-101766666D01*
X210161961Y-101766666D02*
X210066723Y-101814285D01*
X210066723Y-101814285D02*
X209876247Y-101861904D01*
X209876247Y-101861904D02*
X209733390Y-101861904D01*
X209733390Y-101861904D02*
X209542914Y-101814285D01*
X209542914Y-101814285D02*
X209447676Y-101766666D01*
X209447676Y-101766666D02*
X209352438Y-101671428D01*
X209352438Y-101671428D02*
X209304819Y-101528571D01*
X209304819Y-101528571D02*
X209304819Y-101433333D01*
X209304819Y-101433333D02*
X209352438Y-101290476D01*
X209352438Y-101290476D02*
X209400057Y-101242857D01*
X209304819Y-100909523D02*
X209304819Y-100290476D01*
X209304819Y-100290476D02*
X209685771Y-100623809D01*
X209685771Y-100623809D02*
X209685771Y-100480952D01*
X209685771Y-100480952D02*
X209733390Y-100385714D01*
X209733390Y-100385714D02*
X209781009Y-100338095D01*
X209781009Y-100338095D02*
X209876247Y-100290476D01*
X209876247Y-100290476D02*
X210114342Y-100290476D01*
X210114342Y-100290476D02*
X210209580Y-100338095D01*
X210209580Y-100338095D02*
X210257200Y-100385714D01*
X210257200Y-100385714D02*
X210304819Y-100480952D01*
X210304819Y-100480952D02*
X210304819Y-100766666D01*
X210304819Y-100766666D02*
X210257200Y-100861904D01*
X210257200Y-100861904D02*
X210209580Y-100909523D01*
X209304819Y-99957142D02*
X209304819Y-99338095D01*
X209304819Y-99338095D02*
X209685771Y-99671428D01*
X209685771Y-99671428D02*
X209685771Y-99528571D01*
X209685771Y-99528571D02*
X209733390Y-99433333D01*
X209733390Y-99433333D02*
X209781009Y-99385714D01*
X209781009Y-99385714D02*
X209876247Y-99338095D01*
X209876247Y-99338095D02*
X210114342Y-99338095D01*
X210114342Y-99338095D02*
X210209580Y-99385714D01*
X210209580Y-99385714D02*
X210257200Y-99433333D01*
X210257200Y-99433333D02*
X210304819Y-99528571D01*
X210304819Y-99528571D02*
X210304819Y-99814285D01*
X210304819Y-99814285D02*
X210257200Y-99909523D01*
X210257200Y-99909523D02*
X210209580Y-99957142D01*
%TO.C,C6*%
X96792919Y-91608333D02*
X96745300Y-91560714D01*
X96745300Y-91560714D02*
X96697680Y-91417857D01*
X96697680Y-91417857D02*
X96697680Y-91322619D01*
X96697680Y-91322619D02*
X96745300Y-91179762D01*
X96745300Y-91179762D02*
X96840538Y-91084524D01*
X96840538Y-91084524D02*
X96935776Y-91036905D01*
X96935776Y-91036905D02*
X97126252Y-90989286D01*
X97126252Y-90989286D02*
X97269109Y-90989286D01*
X97269109Y-90989286D02*
X97459585Y-91036905D01*
X97459585Y-91036905D02*
X97554823Y-91084524D01*
X97554823Y-91084524D02*
X97650061Y-91179762D01*
X97650061Y-91179762D02*
X97697680Y-91322619D01*
X97697680Y-91322619D02*
X97697680Y-91417857D01*
X97697680Y-91417857D02*
X97650061Y-91560714D01*
X97650061Y-91560714D02*
X97602442Y-91608333D01*
X97697680Y-92465476D02*
X97697680Y-92275000D01*
X97697680Y-92275000D02*
X97650061Y-92179762D01*
X97650061Y-92179762D02*
X97602442Y-92132143D01*
X97602442Y-92132143D02*
X97459585Y-92036905D01*
X97459585Y-92036905D02*
X97269109Y-91989286D01*
X97269109Y-91989286D02*
X96888157Y-91989286D01*
X96888157Y-91989286D02*
X96792919Y-92036905D01*
X96792919Y-92036905D02*
X96745300Y-92084524D01*
X96745300Y-92084524D02*
X96697680Y-92179762D01*
X96697680Y-92179762D02*
X96697680Y-92370238D01*
X96697680Y-92370238D02*
X96745300Y-92465476D01*
X96745300Y-92465476D02*
X96792919Y-92513095D01*
X96792919Y-92513095D02*
X96888157Y-92560714D01*
X96888157Y-92560714D02*
X97126252Y-92560714D01*
X97126252Y-92560714D02*
X97221490Y-92513095D01*
X97221490Y-92513095D02*
X97269109Y-92465476D01*
X97269109Y-92465476D02*
X97316728Y-92370238D01*
X97316728Y-92370238D02*
X97316728Y-92179762D01*
X97316728Y-92179762D02*
X97269109Y-92084524D01*
X97269109Y-92084524D02*
X97221490Y-92036905D01*
X97221490Y-92036905D02*
X97126252Y-91989286D01*
%TO.C,U1*%
X104285595Y-78054819D02*
X104285595Y-78864342D01*
X104285595Y-78864342D02*
X104333214Y-78959580D01*
X104333214Y-78959580D02*
X104380833Y-79007200D01*
X104380833Y-79007200D02*
X104476071Y-79054819D01*
X104476071Y-79054819D02*
X104666547Y-79054819D01*
X104666547Y-79054819D02*
X104761785Y-79007200D01*
X104761785Y-79007200D02*
X104809404Y-78959580D01*
X104809404Y-78959580D02*
X104857023Y-78864342D01*
X104857023Y-78864342D02*
X104857023Y-78054819D01*
X105857023Y-79054819D02*
X105285595Y-79054819D01*
X105571309Y-79054819D02*
X105571309Y-78054819D01*
X105571309Y-78054819D02*
X105476071Y-78197676D01*
X105476071Y-78197676D02*
X105380833Y-78292914D01*
X105380833Y-78292914D02*
X105285595Y-78340533D01*
X106038094Y-82119104D02*
X106514284Y-82119104D01*
X105942856Y-82404819D02*
X106276189Y-81404819D01*
X106276189Y-81404819D02*
X106609522Y-82404819D01*
X106942856Y-81738152D02*
X106942856Y-82404819D01*
X106942856Y-81833390D02*
X106990475Y-81785771D01*
X106990475Y-81785771D02*
X107085713Y-81738152D01*
X107085713Y-81738152D02*
X107228570Y-81738152D01*
X107228570Y-81738152D02*
X107323808Y-81785771D01*
X107323808Y-81785771D02*
X107371427Y-81881009D01*
X107371427Y-81881009D02*
X107371427Y-82404819D01*
X107704761Y-81738152D02*
X108085713Y-81738152D01*
X107847618Y-81404819D02*
X107847618Y-82261961D01*
X107847618Y-82261961D02*
X107895237Y-82357200D01*
X107895237Y-82357200D02*
X107990475Y-82404819D01*
X107990475Y-82404819D02*
X108085713Y-82404819D01*
X108799999Y-82357200D02*
X108704761Y-82404819D01*
X108704761Y-82404819D02*
X108514285Y-82404819D01*
X108514285Y-82404819D02*
X108419047Y-82357200D01*
X108419047Y-82357200D02*
X108371428Y-82261961D01*
X108371428Y-82261961D02*
X108371428Y-81881009D01*
X108371428Y-81881009D02*
X108419047Y-81785771D01*
X108419047Y-81785771D02*
X108514285Y-81738152D01*
X108514285Y-81738152D02*
X108704761Y-81738152D01*
X108704761Y-81738152D02*
X108799999Y-81785771D01*
X108799999Y-81785771D02*
X108847618Y-81881009D01*
X108847618Y-81881009D02*
X108847618Y-81976247D01*
X108847618Y-81976247D02*
X108371428Y-82071485D01*
X109276190Y-81738152D02*
X109276190Y-82404819D01*
X109276190Y-81833390D02*
X109323809Y-81785771D01*
X109323809Y-81785771D02*
X109419047Y-81738152D01*
X109419047Y-81738152D02*
X109561904Y-81738152D01*
X109561904Y-81738152D02*
X109657142Y-81785771D01*
X109657142Y-81785771D02*
X109704761Y-81881009D01*
X109704761Y-81881009D02*
X109704761Y-82404819D01*
X110180952Y-81738152D02*
X110180952Y-82404819D01*
X110180952Y-81833390D02*
X110228571Y-81785771D01*
X110228571Y-81785771D02*
X110323809Y-81738152D01*
X110323809Y-81738152D02*
X110466666Y-81738152D01*
X110466666Y-81738152D02*
X110561904Y-81785771D01*
X110561904Y-81785771D02*
X110609523Y-81881009D01*
X110609523Y-81881009D02*
X110609523Y-82404819D01*
X111514285Y-82404819D02*
X111514285Y-81881009D01*
X111514285Y-81881009D02*
X111466666Y-81785771D01*
X111466666Y-81785771D02*
X111371428Y-81738152D01*
X111371428Y-81738152D02*
X111180952Y-81738152D01*
X111180952Y-81738152D02*
X111085714Y-81785771D01*
X111514285Y-82357200D02*
X111419047Y-82404819D01*
X111419047Y-82404819D02*
X111180952Y-82404819D01*
X111180952Y-82404819D02*
X111085714Y-82357200D01*
X111085714Y-82357200D02*
X111038095Y-82261961D01*
X111038095Y-82261961D02*
X111038095Y-82166723D01*
X111038095Y-82166723D02*
X111085714Y-82071485D01*
X111085714Y-82071485D02*
X111180952Y-82023866D01*
X111180952Y-82023866D02*
X111419047Y-82023866D01*
X111419047Y-82023866D02*
X111514285Y-81976247D01*
X112704762Y-82119104D02*
X113180952Y-82119104D01*
X112609524Y-82404819D02*
X112942857Y-81404819D01*
X112942857Y-81404819D02*
X113276190Y-82404819D01*
X113609524Y-82404819D02*
X113609524Y-81738152D01*
X113609524Y-81928628D02*
X113657143Y-81833390D01*
X113657143Y-81833390D02*
X113704762Y-81785771D01*
X113704762Y-81785771D02*
X113800000Y-81738152D01*
X113800000Y-81738152D02*
X113895238Y-81738152D01*
X114609524Y-82357200D02*
X114514286Y-82404819D01*
X114514286Y-82404819D02*
X114323810Y-82404819D01*
X114323810Y-82404819D02*
X114228572Y-82357200D01*
X114228572Y-82357200D02*
X114180953Y-82261961D01*
X114180953Y-82261961D02*
X114180953Y-81881009D01*
X114180953Y-81881009D02*
X114228572Y-81785771D01*
X114228572Y-81785771D02*
X114323810Y-81738152D01*
X114323810Y-81738152D02*
X114514286Y-81738152D01*
X114514286Y-81738152D02*
X114609524Y-81785771D01*
X114609524Y-81785771D02*
X114657143Y-81881009D01*
X114657143Y-81881009D02*
X114657143Y-81976247D01*
X114657143Y-81976247D02*
X114180953Y-82071485D01*
X115514286Y-82404819D02*
X115514286Y-81881009D01*
X115514286Y-81881009D02*
X115466667Y-81785771D01*
X115466667Y-81785771D02*
X115371429Y-81738152D01*
X115371429Y-81738152D02*
X115180953Y-81738152D01*
X115180953Y-81738152D02*
X115085715Y-81785771D01*
X115514286Y-82357200D02*
X115419048Y-82404819D01*
X115419048Y-82404819D02*
X115180953Y-82404819D01*
X115180953Y-82404819D02*
X115085715Y-82357200D01*
X115085715Y-82357200D02*
X115038096Y-82261961D01*
X115038096Y-82261961D02*
X115038096Y-82166723D01*
X115038096Y-82166723D02*
X115085715Y-82071485D01*
X115085715Y-82071485D02*
X115180953Y-82023866D01*
X115180953Y-82023866D02*
X115419048Y-82023866D01*
X115419048Y-82023866D02*
X115514286Y-81976247D01*
%TO.C,C29*%
X190207080Y-101242857D02*
X190254700Y-101290476D01*
X190254700Y-101290476D02*
X190302319Y-101433333D01*
X190302319Y-101433333D02*
X190302319Y-101528571D01*
X190302319Y-101528571D02*
X190254700Y-101671428D01*
X190254700Y-101671428D02*
X190159461Y-101766666D01*
X190159461Y-101766666D02*
X190064223Y-101814285D01*
X190064223Y-101814285D02*
X189873747Y-101861904D01*
X189873747Y-101861904D02*
X189730890Y-101861904D01*
X189730890Y-101861904D02*
X189540414Y-101814285D01*
X189540414Y-101814285D02*
X189445176Y-101766666D01*
X189445176Y-101766666D02*
X189349938Y-101671428D01*
X189349938Y-101671428D02*
X189302319Y-101528571D01*
X189302319Y-101528571D02*
X189302319Y-101433333D01*
X189302319Y-101433333D02*
X189349938Y-101290476D01*
X189349938Y-101290476D02*
X189397557Y-101242857D01*
X189397557Y-100861904D02*
X189349938Y-100814285D01*
X189349938Y-100814285D02*
X189302319Y-100719047D01*
X189302319Y-100719047D02*
X189302319Y-100480952D01*
X189302319Y-100480952D02*
X189349938Y-100385714D01*
X189349938Y-100385714D02*
X189397557Y-100338095D01*
X189397557Y-100338095D02*
X189492795Y-100290476D01*
X189492795Y-100290476D02*
X189588033Y-100290476D01*
X189588033Y-100290476D02*
X189730890Y-100338095D01*
X189730890Y-100338095D02*
X190302319Y-100909523D01*
X190302319Y-100909523D02*
X190302319Y-100290476D01*
X190302319Y-99814285D02*
X190302319Y-99623809D01*
X190302319Y-99623809D02*
X190254700Y-99528571D01*
X190254700Y-99528571D02*
X190207080Y-99480952D01*
X190207080Y-99480952D02*
X190064223Y-99385714D01*
X190064223Y-99385714D02*
X189873747Y-99338095D01*
X189873747Y-99338095D02*
X189492795Y-99338095D01*
X189492795Y-99338095D02*
X189397557Y-99385714D01*
X189397557Y-99385714D02*
X189349938Y-99433333D01*
X189349938Y-99433333D02*
X189302319Y-99528571D01*
X189302319Y-99528571D02*
X189302319Y-99719047D01*
X189302319Y-99719047D02*
X189349938Y-99814285D01*
X189349938Y-99814285D02*
X189397557Y-99861904D01*
X189397557Y-99861904D02*
X189492795Y-99909523D01*
X189492795Y-99909523D02*
X189730890Y-99909523D01*
X189730890Y-99909523D02*
X189826128Y-99861904D01*
X189826128Y-99861904D02*
X189873747Y-99814285D01*
X189873747Y-99814285D02*
X189921366Y-99719047D01*
X189921366Y-99719047D02*
X189921366Y-99528571D01*
X189921366Y-99528571D02*
X189873747Y-99433333D01*
X189873747Y-99433333D02*
X189826128Y-99385714D01*
X189826128Y-99385714D02*
X189730890Y-99338095D01*
%TO.C,C15*%
X120777080Y-101242857D02*
X120824700Y-101290476D01*
X120824700Y-101290476D02*
X120872319Y-101433333D01*
X120872319Y-101433333D02*
X120872319Y-101528571D01*
X120872319Y-101528571D02*
X120824700Y-101671428D01*
X120824700Y-101671428D02*
X120729461Y-101766666D01*
X120729461Y-101766666D02*
X120634223Y-101814285D01*
X120634223Y-101814285D02*
X120443747Y-101861904D01*
X120443747Y-101861904D02*
X120300890Y-101861904D01*
X120300890Y-101861904D02*
X120110414Y-101814285D01*
X120110414Y-101814285D02*
X120015176Y-101766666D01*
X120015176Y-101766666D02*
X119919938Y-101671428D01*
X119919938Y-101671428D02*
X119872319Y-101528571D01*
X119872319Y-101528571D02*
X119872319Y-101433333D01*
X119872319Y-101433333D02*
X119919938Y-101290476D01*
X119919938Y-101290476D02*
X119967557Y-101242857D01*
X120872319Y-100290476D02*
X120872319Y-100861904D01*
X120872319Y-100576190D02*
X119872319Y-100576190D01*
X119872319Y-100576190D02*
X120015176Y-100671428D01*
X120015176Y-100671428D02*
X120110414Y-100766666D01*
X120110414Y-100766666D02*
X120158033Y-100861904D01*
X119872319Y-99385714D02*
X119872319Y-99861904D01*
X119872319Y-99861904D02*
X120348509Y-99909523D01*
X120348509Y-99909523D02*
X120300890Y-99861904D01*
X120300890Y-99861904D02*
X120253271Y-99766666D01*
X120253271Y-99766666D02*
X120253271Y-99528571D01*
X120253271Y-99528571D02*
X120300890Y-99433333D01*
X120300890Y-99433333D02*
X120348509Y-99385714D01*
X120348509Y-99385714D02*
X120443747Y-99338095D01*
X120443747Y-99338095D02*
X120681842Y-99338095D01*
X120681842Y-99338095D02*
X120777080Y-99385714D01*
X120777080Y-99385714D02*
X120824700Y-99433333D01*
X120824700Y-99433333D02*
X120872319Y-99528571D01*
X120872319Y-99528571D02*
X120872319Y-99766666D01*
X120872319Y-99766666D02*
X120824700Y-99861904D01*
X120824700Y-99861904D02*
X120777080Y-99909523D01*
%TO.C,H2*%
X119302319Y-80861904D02*
X118302319Y-80861904D01*
X118778509Y-80861904D02*
X118778509Y-80290476D01*
X119302319Y-80290476D02*
X118302319Y-80290476D01*
X118397557Y-79861904D02*
X118349938Y-79814285D01*
X118349938Y-79814285D02*
X118302319Y-79719047D01*
X118302319Y-79719047D02*
X118302319Y-79480952D01*
X118302319Y-79480952D02*
X118349938Y-79385714D01*
X118349938Y-79385714D02*
X118397557Y-79338095D01*
X118397557Y-79338095D02*
X118492795Y-79290476D01*
X118492795Y-79290476D02*
X118588033Y-79290476D01*
X118588033Y-79290476D02*
X118730890Y-79338095D01*
X118730890Y-79338095D02*
X119302319Y-79909523D01*
X119302319Y-79909523D02*
X119302319Y-79290476D01*
%TO.C,R2*%
X100452319Y-91966666D02*
X99976128Y-92299999D01*
X100452319Y-92538094D02*
X99452319Y-92538094D01*
X99452319Y-92538094D02*
X99452319Y-92157142D01*
X99452319Y-92157142D02*
X99499938Y-92061904D01*
X99499938Y-92061904D02*
X99547557Y-92014285D01*
X99547557Y-92014285D02*
X99642795Y-91966666D01*
X99642795Y-91966666D02*
X99785652Y-91966666D01*
X99785652Y-91966666D02*
X99880890Y-92014285D01*
X99880890Y-92014285D02*
X99928509Y-92061904D01*
X99928509Y-92061904D02*
X99976128Y-92157142D01*
X99976128Y-92157142D02*
X99976128Y-92538094D01*
X99547557Y-91585713D02*
X99499938Y-91538094D01*
X99499938Y-91538094D02*
X99452319Y-91442856D01*
X99452319Y-91442856D02*
X99452319Y-91204761D01*
X99452319Y-91204761D02*
X99499938Y-91109523D01*
X99499938Y-91109523D02*
X99547557Y-91061904D01*
X99547557Y-91061904D02*
X99642795Y-91014285D01*
X99642795Y-91014285D02*
X99738033Y-91014285D01*
X99738033Y-91014285D02*
X99880890Y-91061904D01*
X99880890Y-91061904D02*
X100452319Y-91633332D01*
X100452319Y-91633332D02*
X100452319Y-91014285D01*
%TO.C,J1*%
X86404166Y-94704819D02*
X86404166Y-95419104D01*
X86404166Y-95419104D02*
X86356547Y-95561961D01*
X86356547Y-95561961D02*
X86261309Y-95657200D01*
X86261309Y-95657200D02*
X86118452Y-95704819D01*
X86118452Y-95704819D02*
X86023214Y-95704819D01*
X87404166Y-95704819D02*
X86832738Y-95704819D01*
X87118452Y-95704819D02*
X87118452Y-94704819D01*
X87118452Y-94704819D02*
X87023214Y-94847676D01*
X87023214Y-94847676D02*
X86927976Y-94942914D01*
X86927976Y-94942914D02*
X86832738Y-94990533D01*
%TO.C,R5*%
X93660833Y-85354819D02*
X93327500Y-84878628D01*
X93089405Y-85354819D02*
X93089405Y-84354819D01*
X93089405Y-84354819D02*
X93470357Y-84354819D01*
X93470357Y-84354819D02*
X93565595Y-84402438D01*
X93565595Y-84402438D02*
X93613214Y-84450057D01*
X93613214Y-84450057D02*
X93660833Y-84545295D01*
X93660833Y-84545295D02*
X93660833Y-84688152D01*
X93660833Y-84688152D02*
X93613214Y-84783390D01*
X93613214Y-84783390D02*
X93565595Y-84831009D01*
X93565595Y-84831009D02*
X93470357Y-84878628D01*
X93470357Y-84878628D02*
X93089405Y-84878628D01*
X94565595Y-84354819D02*
X94089405Y-84354819D01*
X94089405Y-84354819D02*
X94041786Y-84831009D01*
X94041786Y-84831009D02*
X94089405Y-84783390D01*
X94089405Y-84783390D02*
X94184643Y-84735771D01*
X94184643Y-84735771D02*
X94422738Y-84735771D01*
X94422738Y-84735771D02*
X94517976Y-84783390D01*
X94517976Y-84783390D02*
X94565595Y-84831009D01*
X94565595Y-84831009D02*
X94613214Y-84926247D01*
X94613214Y-84926247D02*
X94613214Y-85164342D01*
X94613214Y-85164342D02*
X94565595Y-85259580D01*
X94565595Y-85259580D02*
X94517976Y-85307200D01*
X94517976Y-85307200D02*
X94422738Y-85354819D01*
X94422738Y-85354819D02*
X94184643Y-85354819D01*
X94184643Y-85354819D02*
X94089405Y-85307200D01*
X94089405Y-85307200D02*
X94041786Y-85259580D01*
%TO.C,C4*%
X102130833Y-84809580D02*
X102083214Y-84857200D01*
X102083214Y-84857200D02*
X101940357Y-84904819D01*
X101940357Y-84904819D02*
X101845119Y-84904819D01*
X101845119Y-84904819D02*
X101702262Y-84857200D01*
X101702262Y-84857200D02*
X101607024Y-84761961D01*
X101607024Y-84761961D02*
X101559405Y-84666723D01*
X101559405Y-84666723D02*
X101511786Y-84476247D01*
X101511786Y-84476247D02*
X101511786Y-84333390D01*
X101511786Y-84333390D02*
X101559405Y-84142914D01*
X101559405Y-84142914D02*
X101607024Y-84047676D01*
X101607024Y-84047676D02*
X101702262Y-83952438D01*
X101702262Y-83952438D02*
X101845119Y-83904819D01*
X101845119Y-83904819D02*
X101940357Y-83904819D01*
X101940357Y-83904819D02*
X102083214Y-83952438D01*
X102083214Y-83952438D02*
X102130833Y-84000057D01*
X102987976Y-84238152D02*
X102987976Y-84904819D01*
X102749881Y-83857200D02*
X102511786Y-84571485D01*
X102511786Y-84571485D02*
X103130833Y-84571485D01*
%TO.C,C5*%
X89830833Y-85259580D02*
X89783214Y-85307200D01*
X89783214Y-85307200D02*
X89640357Y-85354819D01*
X89640357Y-85354819D02*
X89545119Y-85354819D01*
X89545119Y-85354819D02*
X89402262Y-85307200D01*
X89402262Y-85307200D02*
X89307024Y-85211961D01*
X89307024Y-85211961D02*
X89259405Y-85116723D01*
X89259405Y-85116723D02*
X89211786Y-84926247D01*
X89211786Y-84926247D02*
X89211786Y-84783390D01*
X89211786Y-84783390D02*
X89259405Y-84592914D01*
X89259405Y-84592914D02*
X89307024Y-84497676D01*
X89307024Y-84497676D02*
X89402262Y-84402438D01*
X89402262Y-84402438D02*
X89545119Y-84354819D01*
X89545119Y-84354819D02*
X89640357Y-84354819D01*
X89640357Y-84354819D02*
X89783214Y-84402438D01*
X89783214Y-84402438D02*
X89830833Y-84450057D01*
X90735595Y-84354819D02*
X90259405Y-84354819D01*
X90259405Y-84354819D02*
X90211786Y-84831009D01*
X90211786Y-84831009D02*
X90259405Y-84783390D01*
X90259405Y-84783390D02*
X90354643Y-84735771D01*
X90354643Y-84735771D02*
X90592738Y-84735771D01*
X90592738Y-84735771D02*
X90687976Y-84783390D01*
X90687976Y-84783390D02*
X90735595Y-84831009D01*
X90735595Y-84831009D02*
X90783214Y-84926247D01*
X90783214Y-84926247D02*
X90783214Y-85164342D01*
X90783214Y-85164342D02*
X90735595Y-85259580D01*
X90735595Y-85259580D02*
X90687976Y-85307200D01*
X90687976Y-85307200D02*
X90592738Y-85354819D01*
X90592738Y-85354819D02*
X90354643Y-85354819D01*
X90354643Y-85354819D02*
X90259405Y-85307200D01*
X90259405Y-85307200D02*
X90211786Y-85259580D01*
%TO.C,R8*%
X91180833Y-82054819D02*
X90847500Y-81578628D01*
X90609405Y-82054819D02*
X90609405Y-81054819D01*
X90609405Y-81054819D02*
X90990357Y-81054819D01*
X90990357Y-81054819D02*
X91085595Y-81102438D01*
X91085595Y-81102438D02*
X91133214Y-81150057D01*
X91133214Y-81150057D02*
X91180833Y-81245295D01*
X91180833Y-81245295D02*
X91180833Y-81388152D01*
X91180833Y-81388152D02*
X91133214Y-81483390D01*
X91133214Y-81483390D02*
X91085595Y-81531009D01*
X91085595Y-81531009D02*
X90990357Y-81578628D01*
X90990357Y-81578628D02*
X90609405Y-81578628D01*
X91752262Y-81483390D02*
X91657024Y-81435771D01*
X91657024Y-81435771D02*
X91609405Y-81388152D01*
X91609405Y-81388152D02*
X91561786Y-81292914D01*
X91561786Y-81292914D02*
X91561786Y-81245295D01*
X91561786Y-81245295D02*
X91609405Y-81150057D01*
X91609405Y-81150057D02*
X91657024Y-81102438D01*
X91657024Y-81102438D02*
X91752262Y-81054819D01*
X91752262Y-81054819D02*
X91942738Y-81054819D01*
X91942738Y-81054819D02*
X92037976Y-81102438D01*
X92037976Y-81102438D02*
X92085595Y-81150057D01*
X92085595Y-81150057D02*
X92133214Y-81245295D01*
X92133214Y-81245295D02*
X92133214Y-81292914D01*
X92133214Y-81292914D02*
X92085595Y-81388152D01*
X92085595Y-81388152D02*
X92037976Y-81435771D01*
X92037976Y-81435771D02*
X91942738Y-81483390D01*
X91942738Y-81483390D02*
X91752262Y-81483390D01*
X91752262Y-81483390D02*
X91657024Y-81531009D01*
X91657024Y-81531009D02*
X91609405Y-81578628D01*
X91609405Y-81578628D02*
X91561786Y-81673866D01*
X91561786Y-81673866D02*
X91561786Y-81864342D01*
X91561786Y-81864342D02*
X91609405Y-81959580D01*
X91609405Y-81959580D02*
X91657024Y-82007200D01*
X91657024Y-82007200D02*
X91752262Y-82054819D01*
X91752262Y-82054819D02*
X91942738Y-82054819D01*
X91942738Y-82054819D02*
X92037976Y-82007200D01*
X92037976Y-82007200D02*
X92085595Y-81959580D01*
X92085595Y-81959580D02*
X92133214Y-81864342D01*
X92133214Y-81864342D02*
X92133214Y-81673866D01*
X92133214Y-81673866D02*
X92085595Y-81578628D01*
X92085595Y-81578628D02*
X92037976Y-81531009D01*
X92037976Y-81531009D02*
X91942738Y-81483390D01*
D12*
%TO.C,C19*%
X141337500Y-100740580D02*
X141337500Y-100459420D01*
X142357500Y-100740580D02*
X142357500Y-100459420D01*
%TO.C,D5*%
X122150000Y-97850000D02*
X129450000Y-97850000D01*
X122150000Y-103350000D02*
X129450000Y-103350000D01*
X129450000Y-103350000D02*
X129450000Y-102200000D01*
%TO.C,D1*%
X102150000Y-97850000D02*
X109450000Y-97850000D01*
X102150000Y-103350000D02*
X109450000Y-103350000D01*
X109450000Y-103350000D02*
X109450000Y-102200000D01*
%TO.C,C8*%
X96412500Y-101661252D02*
X96412500Y-101138748D01*
X97882500Y-101661252D02*
X97882500Y-101138748D01*
%TO.C,D13*%
X162150000Y-97850000D02*
X169450000Y-97850000D01*
X162150000Y-103350000D02*
X169450000Y-103350000D01*
X169450000Y-103350000D02*
X169450000Y-102200000D01*
%TO.C,C3*%
X102036248Y-85255000D02*
X102558752Y-85255000D01*
X102036248Y-86725000D02*
X102558752Y-86725000D01*
D11*
%TO.C,SW1*%
X88617500Y-84790000D02*
X88617500Y-93390000D01*
X84017500Y-84790000D02*
X84017500Y-86990000D01*
X84017500Y-91090000D02*
X84017500Y-93390000D01*
D12*
%TO.C,D7*%
X132150000Y-97850000D02*
X139450000Y-97850000D01*
X132150000Y-103350000D02*
X139450000Y-103350000D01*
X139450000Y-103350000D02*
X139450000Y-102200000D01*
%TO.C,D11*%
X152150000Y-97850000D02*
X159450000Y-97850000D01*
X152150000Y-103350000D02*
X159450000Y-103350000D01*
X159450000Y-103350000D02*
X159450000Y-102200000D01*
%TO.C,R3*%
X99674564Y-80885000D02*
X99220436Y-80885000D01*
X99674564Y-79415000D02*
X99220436Y-79415000D01*
%TO.C,R1*%
X102070436Y-89165000D02*
X102524564Y-89165000D01*
X102070436Y-90635000D02*
X102524564Y-90635000D01*
%TO.C,C21*%
X151337500Y-100640580D02*
X151337500Y-100359420D01*
X152357500Y-100640580D02*
X152357500Y-100359420D01*
%TO.C,C1*%
X100142500Y-94711252D02*
X100142500Y-94188748D01*
X101612500Y-94711252D02*
X101612500Y-94188748D01*
%TO.C,C10*%
X99472500Y-98150000D02*
X98847500Y-98150000D01*
X99160000Y-98462500D02*
X99160000Y-97837500D01*
X98607500Y-98495563D02*
X98607500Y-97860000D01*
X98607500Y-98495563D02*
X97543063Y-99560000D01*
X98607500Y-95104437D02*
X98607500Y-95740000D01*
X98607500Y-95104437D02*
X97543063Y-94040000D01*
X97543063Y-99560000D02*
X93087500Y-99560000D01*
X97543063Y-94040000D02*
X93087500Y-94040000D01*
X93087500Y-99560000D02*
X93087500Y-97860000D01*
X93087500Y-94040000D02*
X93087500Y-95740000D01*
%TO.C,C17*%
X131337500Y-100740580D02*
X131337500Y-100459420D01*
X132357500Y-100740580D02*
X132357500Y-100459420D01*
%TO.C,C13*%
X111337500Y-100740580D02*
X111337500Y-100459420D01*
X112357500Y-100740580D02*
X112357500Y-100459420D01*
%TO.C,J2*%
X123905000Y-95955000D02*
X122575000Y-95955000D01*
X123905000Y-94625000D02*
X123905000Y-95955000D01*
X123905000Y-93355000D02*
X123905000Y-88215000D01*
X123905000Y-93355000D02*
X121305000Y-93355000D01*
X123905000Y-88215000D02*
X118705000Y-88215000D01*
X121305000Y-95955000D02*
X118705000Y-95955000D01*
X121305000Y-93355000D02*
X121305000Y-95955000D01*
X118705000Y-95955000D02*
X118705000Y-88215000D01*
%TO.C,TP1*%
X89597500Y-97450000D02*
X91497500Y-97450000D01*
X89597500Y-99350000D02*
X89597500Y-97450000D01*
X91497500Y-97450000D02*
X91497500Y-99350000D01*
X91497500Y-99350000D02*
X89597500Y-99350000D01*
%TO.C,R7*%
X92662500Y-86952936D02*
X92662500Y-87407064D01*
X91192500Y-86952936D02*
X91192500Y-87407064D01*
%TO.C,C23*%
X161337500Y-100740580D02*
X161337500Y-100459420D01*
X162357500Y-100740580D02*
X162357500Y-100459420D01*
%TO.C,C7*%
X90012500Y-101661252D02*
X90012500Y-101138748D01*
X91482500Y-101661252D02*
X91482500Y-101138748D01*
%TO.C,C2*%
X102112500Y-94711252D02*
X102112500Y-94188748D01*
X103582500Y-94711252D02*
X103582500Y-94188748D01*
%TO.C,D23*%
X212150000Y-97850000D02*
X219450000Y-97850000D01*
X212150000Y-103350000D02*
X219450000Y-103350000D01*
X219450000Y-103350000D02*
X219450000Y-102200000D01*
%TO.C,TP3*%
X111750000Y-102650000D02*
X111750000Y-104550000D01*
X109850000Y-102650000D02*
X111750000Y-102650000D01*
X111750000Y-104550000D02*
X109850000Y-104550000D01*
X109850000Y-104550000D02*
X109850000Y-102650000D01*
%TO.C,U3*%
X93947500Y-99840000D02*
X92147500Y-99840000D01*
X93947500Y-99840000D02*
X94747500Y-99840000D01*
X93947500Y-102960000D02*
X93147500Y-102960000D01*
X93947500Y-102960000D02*
X94747500Y-102960000D01*
%TO.C,TP2*%
X109850000Y-96650000D02*
X111750000Y-96650000D01*
X109850000Y-98550000D02*
X109850000Y-96650000D01*
X111750000Y-96650000D02*
X111750000Y-98550000D01*
X111750000Y-98550000D02*
X109850000Y-98550000D01*
%TO.C,C25*%
X171337500Y-100740580D02*
X171337500Y-100459420D01*
X172357500Y-100740580D02*
X172357500Y-100459420D01*
%TO.C,D15*%
X172150000Y-97850000D02*
X179450000Y-97850000D01*
X172150000Y-103350000D02*
X179450000Y-103350000D01*
X179450000Y-103350000D02*
X179450000Y-102200000D01*
%TO.C,D17*%
X182150000Y-97850000D02*
X189450000Y-97850000D01*
X182150000Y-103350000D02*
X189450000Y-103350000D01*
X189450000Y-103350000D02*
X189450000Y-102200000D01*
%TO.C,D21*%
X202150000Y-97850000D02*
X209450000Y-97850000D01*
X202150000Y-103350000D02*
X209450000Y-103350000D01*
X209450000Y-103350000D02*
X209450000Y-102200000D01*
%TO.C,MK1*%
X87617500Y-75270000D02*
X88947500Y-75270000D01*
X87617500Y-76600000D02*
X87617500Y-75270000D01*
X87617500Y-77870000D02*
X87617500Y-80470000D01*
X87617500Y-77870000D02*
X90277500Y-77870000D01*
X87617500Y-80470000D02*
X90277500Y-80470000D01*
X90277500Y-77870000D02*
X90277500Y-80470000D01*
%TO.C,R9*%
X90720436Y-94065000D02*
X91174564Y-94065000D01*
X90720436Y-95535000D02*
X91174564Y-95535000D01*
%TO.C,D19*%
X192150000Y-97850000D02*
X199450000Y-97850000D01*
X192150000Y-103350000D02*
X199450000Y-103350000D01*
X199450000Y-103350000D02*
X199450000Y-102200000D01*
%TO.C,D3*%
X112150000Y-97850000D02*
X119450000Y-97850000D01*
X112150000Y-103350000D02*
X119450000Y-103350000D01*
X119450000Y-103350000D02*
X119450000Y-102200000D01*
%TO.C,C11*%
X101337500Y-100740580D02*
X101337500Y-100459420D01*
X102357500Y-100740580D02*
X102357500Y-100459420D01*
%TO.C,R4*%
X99674564Y-78985000D02*
X99220436Y-78985000D01*
X99674564Y-77515000D02*
X99220436Y-77515000D01*
%TO.C,R6*%
X95074564Y-90560000D02*
X94620436Y-90560000D01*
X95074564Y-89090000D02*
X94620436Y-89090000D01*
%TO.C,C27*%
X181337500Y-100740580D02*
X181337500Y-100459420D01*
X182357500Y-100740580D02*
X182357500Y-100459420D01*
%TO.C,C9*%
X96012500Y-88815000D02*
X96012500Y-88190000D01*
X95700000Y-88502500D02*
X96325000Y-88502500D01*
X96001937Y-87950000D02*
X96637500Y-87950000D01*
X96001937Y-87950000D02*
X94937500Y-86885563D01*
X99393063Y-87950000D02*
X98757500Y-87950000D01*
X99393063Y-87950000D02*
X100457500Y-86885563D01*
X94937500Y-86885563D02*
X94937500Y-82430000D01*
X100457500Y-86885563D02*
X100457500Y-82430000D01*
X94937500Y-82430000D02*
X96637500Y-82430000D01*
X100457500Y-82430000D02*
X98757500Y-82430000D01*
%TO.C,C31*%
X201315000Y-100740580D02*
X201315000Y-100459420D01*
X202335000Y-100740580D02*
X202335000Y-100459420D01*
%TO.C,U2*%
X91100000Y-92447500D02*
X92900000Y-92447500D01*
X91100000Y-92447500D02*
X90300000Y-92447500D01*
X91100000Y-89327500D02*
X91900000Y-89327500D01*
X91100000Y-89327500D02*
X90300000Y-89327500D01*
%TO.C,D9*%
X142150000Y-97850000D02*
X149450000Y-97850000D01*
X142150000Y-103350000D02*
X149450000Y-103350000D01*
X149450000Y-103350000D02*
X149450000Y-102200000D01*
%TO.C,C33*%
X211340000Y-100740580D02*
X211340000Y-100459420D01*
X212360000Y-100740580D02*
X212360000Y-100459420D01*
%TO.C,C6*%
X95133752Y-92510000D02*
X94611248Y-92510000D01*
X95133752Y-91040000D02*
X94611248Y-91040000D01*
%TO.C,U1*%
X104000000Y-95500000D02*
X104000000Y-96300000D01*
X104000000Y-96300000D02*
X104800000Y-96300000D01*
X104200000Y-79500000D02*
X117400000Y-79500000D01*
X104200000Y-84900000D02*
X117400000Y-84900000D01*
X104200000Y-96100000D02*
X104200000Y-79500000D01*
X104875000Y-79300000D02*
X104025000Y-79300000D01*
X116850000Y-79300000D02*
X117600000Y-79300000D01*
X117400000Y-79500000D02*
X117400000Y-96100000D01*
X117400000Y-96100000D02*
X104200000Y-96100000D01*
X117600000Y-79300000D02*
X117600000Y-79900000D01*
X117600000Y-95500000D02*
X117600000Y-96300000D01*
X117600000Y-96300000D02*
X116800000Y-96300000D01*
%TO.C,C29*%
X191337500Y-100740580D02*
X191337500Y-100459420D01*
X192357500Y-100740580D02*
X192357500Y-100459420D01*
%TO.C,C15*%
X121337500Y-100740580D02*
X121337500Y-100459420D01*
X122357500Y-100740580D02*
X122357500Y-100459420D01*
%TO.C,R2*%
X102070436Y-91065000D02*
X102524564Y-91065000D01*
X102070436Y-92535000D02*
X102524564Y-92535000D01*
%TO.C,J1*%
X88500000Y-96125000D02*
X88500000Y-96575000D01*
X86650000Y-96125000D02*
X88500000Y-96125000D01*
X84100000Y-96125000D02*
X84350000Y-96125000D01*
X89050000Y-98325000D02*
X88600000Y-98325000D01*
X89050000Y-98325000D02*
X89050000Y-98775000D01*
X88500000Y-103925000D02*
X88500000Y-103475000D01*
X86650000Y-103925000D02*
X88500000Y-103925000D01*
X84100000Y-103925000D02*
X84350000Y-103925000D01*
%TO.C,R5*%
X93092500Y-87407064D02*
X93092500Y-86952936D01*
X94562500Y-87407064D02*
X94562500Y-86952936D01*
%TO.C,C4*%
X102036248Y-87215000D02*
X102558752Y-87215000D01*
X102036248Y-88685000D02*
X102558752Y-88685000D01*
%TO.C,C5*%
X90732500Y-86918748D02*
X90732500Y-87441252D01*
X89262500Y-86918748D02*
X89262500Y-87441252D01*
%TO.C,R8*%
X91774564Y-83885000D02*
X91320436Y-83885000D01*
X91774564Y-82415000D02*
X91320436Y-82415000D01*
%TD*%
M02*
