%TF.GenerationSoftware,KiCad,Pcbnew,7.0.5-0*%
%TF.CreationDate,2024-05-11T15:05:49-06:00*%
%TF.ProjectId,rainbow-music-pegasus,7261696e-626f-4772-9d6d-757369632d70,rev?*%
%TF.SameCoordinates,Original*%
%TF.FileFunction,Copper,L1,Top*%
%TF.FilePolarity,Positive*%
%FSLAX46Y46*%
G04 Gerber Fmt 4.6, Leading zero omitted, Abs format (unit mm)*
G04 Created by KiCad (PCBNEW 7.0.5-0) date 2024-05-11 15:05:49*
%MOMM*%
%LPD*%
G01*
G04 APERTURE LIST*
G04 Aperture macros list*
%AMRoundRect*
0 Rectangle with rounded corners*
0 $1 Rounding radius*
0 $2 $3 $4 $5 $6 $7 $8 $9 X,Y pos of 4 corners*
0 Add a 4 corners polygon primitive as box body*
4,1,4,$2,$3,$4,$5,$6,$7,$8,$9,$2,$3,0*
0 Add four circle primitives for the rounded corners*
1,1,$1+$1,$2,$3*
1,1,$1+$1,$4,$5*
1,1,$1+$1,$6,$7*
1,1,$1+$1,$8,$9*
0 Add four rect primitives between the rounded corners*
20,1,$1+$1,$2,$3,$4,$5,0*
20,1,$1+$1,$4,$5,$6,$7,0*
20,1,$1+$1,$6,$7,$8,$9,0*
20,1,$1+$1,$8,$9,$2,$3,0*%
%AMFreePoly0*
4,1,6,0.725000,-0.725000,-0.725000,-0.725000,-0.725000,0.125000,-0.125000,0.725000,0.725000,0.725000,0.725000,-0.725000,0.725000,-0.725000,$1*%
G04 Aperture macros list end*
%TA.AperFunction,SMDPad,CuDef*%
%ADD10RoundRect,0.225000X0.250000X-0.225000X0.250000X0.225000X-0.250000X0.225000X-0.250000X-0.225000X0*%
%TD*%
%TA.AperFunction,SMDPad,CuDef*%
%ADD11R,1.500000X0.900000*%
%TD*%
%TA.AperFunction,ComponentPad*%
%ADD12R,1.700000X1.700000*%
%TD*%
%TA.AperFunction,SMDPad,CuDef*%
%ADD13RoundRect,0.250000X0.475000X-0.250000X0.475000X0.250000X-0.475000X0.250000X-0.475000X-0.250000X0*%
%TD*%
%TA.AperFunction,SMDPad,CuDef*%
%ADD14RoundRect,0.250000X-0.450000X0.262500X-0.450000X-0.262500X0.450000X-0.262500X0.450000X0.262500X0*%
%TD*%
%TA.AperFunction,SMDPad,CuDef*%
%ADD15RoundRect,0.250000X-0.250000X-0.475000X0.250000X-0.475000X0.250000X0.475000X-0.250000X0.475000X0*%
%TD*%
%TA.AperFunction,ComponentPad*%
%ADD16R,2.500000X1.500000*%
%TD*%
%TA.AperFunction,ComponentPad*%
%ADD17O,2.500000X1.500000*%
%TD*%
%TA.AperFunction,ComponentPad*%
%ADD18O,3.500000X2.200000*%
%TD*%
%TA.AperFunction,SMDPad,CuDef*%
%ADD19RoundRect,0.218750X0.218750X0.256250X-0.218750X0.256250X-0.218750X-0.256250X0.218750X-0.256250X0*%
%TD*%
%TA.AperFunction,SMDPad,CuDef*%
%ADD20RoundRect,0.250000X0.450000X-0.262500X0.450000X0.262500X-0.450000X0.262500X-0.450000X-0.262500X0*%
%TD*%
%TA.AperFunction,SMDPad,CuDef*%
%ADD21RoundRect,0.250000X0.262500X0.450000X-0.262500X0.450000X-0.262500X-0.450000X0.262500X-0.450000X0*%
%TD*%
%TA.AperFunction,SMDPad,CuDef*%
%ADD22RoundRect,0.150000X-0.587500X-0.150000X0.587500X-0.150000X0.587500X0.150000X-0.587500X0.150000X0*%
%TD*%
%TA.AperFunction,SMDPad,CuDef*%
%ADD23RoundRect,0.250000X-0.262500X-0.450000X0.262500X-0.450000X0.262500X0.450000X-0.262500X0.450000X0*%
%TD*%
%TA.AperFunction,SMDPad,CuDef*%
%ADD24RoundRect,0.150000X-0.150000X0.512500X-0.150000X-0.512500X0.150000X-0.512500X0.150000X0.512500X0*%
%TD*%
%TA.AperFunction,SMDPad,CuDef*%
%ADD25RoundRect,0.250000X1.250000X0.550000X-1.250000X0.550000X-1.250000X-0.550000X1.250000X-0.550000X0*%
%TD*%
%TA.AperFunction,SMDPad,CuDef*%
%ADD26RoundRect,0.250000X0.650000X-1.000000X0.650000X1.000000X-0.650000X1.000000X-0.650000X-1.000000X0*%
%TD*%
%TA.AperFunction,ComponentPad*%
%ADD27RoundRect,0.250000X0.350000X0.625000X-0.350000X0.625000X-0.350000X-0.625000X0.350000X-0.625000X0*%
%TD*%
%TA.AperFunction,ComponentPad*%
%ADD28O,1.200000X1.750000*%
%TD*%
%TA.AperFunction,ComponentPad*%
%ADD29O,1.700000X1.700000*%
%TD*%
%TA.AperFunction,SMDPad,CuDef*%
%ADD30RoundRect,0.200000X-0.275000X0.200000X-0.275000X-0.200000X0.275000X-0.200000X0.275000X0.200000X0*%
%TD*%
%TA.AperFunction,SMDPad,CuDef*%
%ADD31RoundRect,0.150000X-0.150000X0.825000X-0.150000X-0.825000X0.150000X-0.825000X0.150000X0.825000X0*%
%TD*%
%TA.AperFunction,SMDPad,CuDef*%
%ADD32RoundRect,0.150000X-0.512500X-0.150000X0.512500X-0.150000X0.512500X0.150000X-0.512500X0.150000X0*%
%TD*%
%TA.AperFunction,SMDPad,CuDef*%
%ADD33RoundRect,0.250000X-0.475000X0.250000X-0.475000X-0.250000X0.475000X-0.250000X0.475000X0.250000X0*%
%TD*%
%TA.AperFunction,SMDPad,CuDef*%
%ADD34RoundRect,0.218750X-0.218750X-0.256250X0.218750X-0.256250X0.218750X0.256250X-0.218750X0.256250X0*%
%TD*%
%TA.AperFunction,SMDPad,CuDef*%
%ADD35RoundRect,0.250000X0.250000X0.475000X-0.250000X0.475000X-0.250000X-0.475000X0.250000X-0.475000X0*%
%TD*%
%TA.AperFunction,SMDPad,CuDef*%
%ADD36RoundRect,0.250000X0.550000X-1.250000X0.550000X1.250000X-0.550000X1.250000X-0.550000X-1.250000X0*%
%TD*%
%TA.AperFunction,SMDPad,CuDef*%
%ADD37RoundRect,0.150000X0.825000X0.150000X-0.825000X0.150000X-0.825000X-0.150000X0.825000X-0.150000X0*%
%TD*%
%TA.AperFunction,SMDPad,CuDef*%
%ADD38R,0.800000X0.400000*%
%TD*%
%TA.AperFunction,SMDPad,CuDef*%
%ADD39R,0.400000X0.800000*%
%TD*%
%TA.AperFunction,SMDPad,CuDef*%
%ADD40FreePoly0,0.000000*%
%TD*%
%TA.AperFunction,SMDPad,CuDef*%
%ADD41R,1.450000X1.450000*%
%TD*%
%TA.AperFunction,SMDPad,CuDef*%
%ADD42R,0.700000X0.700000*%
%TD*%
%TA.AperFunction,SMDPad,CuDef*%
%ADD43R,1.350000X0.400000*%
%TD*%
%TA.AperFunction,ComponentPad*%
%ADD44O,1.550000X1.000000*%
%TD*%
%TA.AperFunction,SMDPad,CuDef*%
%ADD45R,1.500000X1.200000*%
%TD*%
%TA.AperFunction,ComponentPad*%
%ADD46O,0.950000X1.250000*%
%TD*%
%TA.AperFunction,SMDPad,CuDef*%
%ADD47R,1.500000X1.500000*%
%TD*%
%TA.AperFunction,ViaPad*%
%ADD48C,0.800000*%
%TD*%
%TA.AperFunction,Conductor*%
%ADD49C,0.250000*%
%TD*%
%TA.AperFunction,Conductor*%
%ADD50C,0.500000*%
%TD*%
%TA.AperFunction,Conductor*%
%ADD51C,2.000000*%
%TD*%
%TA.AperFunction,Conductor*%
%ADD52C,0.400000*%
%TD*%
%TA.AperFunction,Conductor*%
%ADD53C,1.550000*%
%TD*%
G04 APERTURE END LIST*
D10*
%TO.P,C19,1*%
%TO.N,GND*%
X151847500Y-101375000D03*
%TO.P,C19,2*%
%TO.N,+3.3V*%
X151847500Y-99825000D03*
%TD*%
D11*
%TO.P,D5,1,VDD*%
%TO.N,+3.3V*%
X133350000Y-98950000D03*
%TO.P,D5,2,DOUT*%
%TO.N,Net-(D5-DOUT)*%
X133350000Y-102250000D03*
%TO.P,D5,3,VSS*%
%TO.N,GND*%
X138250000Y-102250000D03*
%TO.P,D5,4,DIN*%
%TO.N,Net-(D4-DOUT)*%
X138250000Y-98950000D03*
%TD*%
%TO.P,D1,1,VDD*%
%TO.N,+3.3V*%
X113350000Y-98950000D03*
%TO.P,D1,2,DOUT*%
%TO.N,Net-(D1-DOUT)*%
X113350000Y-102250000D03*
%TO.P,D1,3,VSS*%
%TO.N,GND*%
X118250000Y-102250000D03*
%TO.P,D1,4,DIN*%
%TO.N,/RGB_Data*%
X118250000Y-98950000D03*
%TD*%
D12*
%TO.P,TP5,1,1*%
%TO.N,/Batt_Level*%
X128008884Y-87901000D03*
%TD*%
D13*
%TO.P,C8,1*%
%TO.N,GND*%
X97147500Y-102350000D03*
%TO.P,C8,2*%
%TO.N,+3.3V*%
X97147500Y-100450000D03*
%TD*%
D11*
%TO.P,D13,1,VDD*%
%TO.N,+3.3V*%
X173350000Y-98950000D03*
%TO.P,D13,2,DOUT*%
%TO.N,Net-(D13-DOUT)*%
X173350000Y-102250000D03*
%TO.P,D13,3,VSS*%
%TO.N,GND*%
X178250000Y-102250000D03*
%TO.P,D13,4,DIN*%
%TO.N,Net-(D12-DOUT)*%
X178250000Y-98950000D03*
%TD*%
D14*
%TO.P,R17,1*%
%TO.N,/DP_A*%
X95247500Y-91117500D03*
%TO.P,R17,2*%
%TO.N,Net-(C41-Pad2)*%
X95247500Y-92942500D03*
%TD*%
D15*
%TO.P,C3,1*%
%TO.N,GND*%
X103897500Y-82700000D03*
%TO.P,C3,2*%
%TO.N,+3.3V*%
X105797500Y-82700000D03*
%TD*%
D16*
%TO.P,SW1,1,A*%
%TO.N,Net-(D25-K)*%
X86397500Y-87090000D03*
D17*
%TO.P,SW1,2,B*%
%TO.N,Net-(SW1-B)*%
X86397500Y-89090000D03*
D18*
%TO.P,SW1,3,C*%
%TO.N,GND*%
X86397500Y-84990000D03*
D17*
X86397500Y-91090000D03*
D18*
X86397500Y-93190000D03*
%TD*%
D19*
%TO.P,D27,1,K*%
%TO.N,GND*%
X88675000Y-95240000D03*
%TO.P,D27,2,A*%
%TO.N,Net-(D27-A)*%
X87100000Y-95240000D03*
%TD*%
D11*
%TO.P,D7,1,VDD*%
%TO.N,+3.3V*%
X143350000Y-98950000D03*
%TO.P,D7,2,DOUT*%
%TO.N,Net-(D7-DOUT)*%
X143350000Y-102250000D03*
%TO.P,D7,3,VSS*%
%TO.N,GND*%
X148250000Y-102250000D03*
%TO.P,D7,4,DIN*%
%TO.N,Net-(D6-DOUT)*%
X148250000Y-98950000D03*
%TD*%
D20*
%TO.P,R14,1*%
%TO.N,GND*%
X104725000Y-100012500D03*
%TO.P,R14,2*%
%TO.N,VBUS*%
X104725000Y-98187500D03*
%TD*%
D11*
%TO.P,D11,1,VDD*%
%TO.N,+3.3V*%
X163350000Y-98950000D03*
%TO.P,D11,2,DOUT*%
%TO.N,Net-(D11-DOUT)*%
X163350000Y-102250000D03*
%TO.P,D11,3,VSS*%
%TO.N,GND*%
X168250000Y-102250000D03*
%TO.P,D11,4,DIN*%
%TO.N,Net-(D10-DOUT)*%
X168250000Y-98950000D03*
%TD*%
D10*
%TO.P,C35,1*%
%TO.N,GND*%
X92257500Y-91875000D03*
%TO.P,C35,2*%
%TO.N,+3.3V*%
X92257500Y-90325000D03*
%TD*%
D21*
%TO.P,R3,1*%
%TO.N,Net-(U1-GPIO2{slash}ADC1_CH2)*%
X105760000Y-86700000D03*
%TO.P,R3,2*%
%TO.N,+3.3V*%
X103935000Y-86700000D03*
%TD*%
D20*
%TO.P,R1,1*%
%TO.N,+3.3V*%
X111777500Y-95412500D03*
%TO.P,R1,2*%
%TO.N,/Reset*%
X111777500Y-93587500D03*
%TD*%
%TO.P,R10,1*%
%TO.N,GND*%
X137498000Y-94703500D03*
%TO.P,R10,2*%
%TO.N,Net-(U4-PROG)*%
X137498000Y-92878500D03*
%TD*%
D22*
%TO.P,Q1,1,G*%
%TO.N,VBUS*%
X100900884Y-98150000D03*
%TO.P,Q1,2,S*%
%TO.N,Net-(D25-K)*%
X100900884Y-100050000D03*
%TO.P,Q1,3,D*%
%TO.N,+BATT*%
X102775884Y-99100000D03*
%TD*%
D23*
%TO.P,R12,1*%
%TO.N,/Batt_Level*%
X129015500Y-85701000D03*
%TO.P,R12,2*%
%TO.N,+BATT*%
X130840500Y-85701000D03*
%TD*%
D24*
%TO.P,U4,1,STAT*%
%TO.N,Net-(U4-STAT)*%
X133148000Y-90901000D03*
%TO.P,U4,2,V_{SS}*%
%TO.N,GND*%
X132198000Y-90901000D03*
%TO.P,U4,3,V_{BAT}*%
%TO.N,+BATT*%
X131248000Y-90901000D03*
%TO.P,U4,4,V_{DD}*%
%TO.N,VBUS*%
X131248000Y-93176000D03*
%TO.P,U4,5,PROG*%
%TO.N,Net-(U4-PROG)*%
X133148000Y-93176000D03*
%TD*%
D10*
%TO.P,C21,1*%
%TO.N,GND*%
X161847500Y-101375000D03*
%TO.P,C21,2*%
%TO.N,+3.3V*%
X161847500Y-99825000D03*
%TD*%
D13*
%TO.P,C1,1*%
%TO.N,GND*%
X113707500Y-95450000D03*
%TO.P,C1,2*%
%TO.N,/Reset*%
X113707500Y-93550000D03*
%TD*%
D25*
%TO.P,C10,1*%
%TO.N,+3.3V*%
X98047500Y-96800000D03*
%TO.P,C10,2*%
%TO.N,GND*%
X93647500Y-96800000D03*
%TD*%
D26*
%TO.P,D25,1,K*%
%TO.N,Net-(D25-K)*%
X88008384Y-103050000D03*
%TO.P,D25,2,A*%
%TO.N,VBUS*%
X88008384Y-99050000D03*
%TD*%
D10*
%TO.P,C17,1*%
%TO.N,GND*%
X141847500Y-101375000D03*
%TO.P,C17,2*%
%TO.N,+3.3V*%
X141847500Y-99825000D03*
%TD*%
D27*
%TO.P,J3,1,+*%
%TO.N,+BATT*%
X131237500Y-81200000D03*
D28*
%TO.P,J3,2,-*%
%TO.N,GND*%
X129237500Y-81200000D03*
%TD*%
D10*
%TO.P,C13,1*%
%TO.N,GND*%
X121847500Y-101375000D03*
%TO.P,C13,2*%
%TO.N,+3.3V*%
X121847500Y-99825000D03*
%TD*%
D12*
%TO.P,J2,1,Pin_1*%
%TO.N,/Boot*%
X124948000Y-87851000D03*
D29*
%TO.P,J2,2,Pin_2*%
%TO.N,/RXD*%
X122408000Y-87851000D03*
%TO.P,J2,3,Pin_3*%
%TO.N,GND*%
X124948000Y-85311000D03*
%TO.P,J2,4,Pin_4*%
%TO.N,/TXD*%
X122408000Y-85311000D03*
%TO.P,J2,5,Pin_5*%
%TO.N,unconnected-(J2-Pin_5-Pad5)*%
X124948000Y-82771000D03*
%TO.P,J2,6,Pin_6*%
%TO.N,/Reset*%
X122408000Y-82771000D03*
%TD*%
D10*
%TO.P,C42,1*%
%TO.N,+3.3V*%
X101427500Y-95675000D03*
%TO.P,C42,2*%
%TO.N,GND*%
X101427500Y-94125000D03*
%TD*%
D12*
%TO.P,TP1,1,1*%
%TO.N,VBUS*%
X128008884Y-94176000D03*
%TD*%
D30*
%TO.P,R7,1*%
%TO.N,Net-(C38-Pad2)*%
X99472500Y-83275000D03*
%TO.P,R7,2*%
%TO.N,Net-(C39-Pad1)*%
X99472500Y-84925000D03*
%TD*%
D10*
%TO.P,C23,1*%
%TO.N,GND*%
X171847500Y-101375000D03*
%TO.P,C23,2*%
%TO.N,+3.3V*%
X171847500Y-99825000D03*
%TD*%
D15*
%TO.P,C38,1*%
%TO.N,Net-(U2A--)*%
X95847500Y-79950000D03*
%TO.P,C38,2*%
%TO.N,Net-(C38-Pad2)*%
X97747500Y-79950000D03*
%TD*%
D13*
%TO.P,C7,1*%
%TO.N,GND*%
X90747500Y-102350000D03*
%TO.P,C7,2*%
%TO.N,Net-(D25-K)*%
X90747500Y-100450000D03*
%TD*%
D31*
%TO.P,U2,1*%
%TO.N,Net-(C38-Pad2)*%
X97682500Y-84145000D03*
%TO.P,U2,2,-*%
%TO.N,Net-(U2A--)*%
X96412500Y-84145000D03*
%TO.P,U2,3,+*%
%TO.N,Net-(U2A-+)*%
X95142500Y-84145000D03*
%TO.P,U2,4,V-*%
%TO.N,GND*%
X93872500Y-84145000D03*
%TO.P,U2,5,+*%
%TO.N,Net-(U2A-+)*%
X93872500Y-89095000D03*
%TO.P,U2,6,-*%
%TO.N,/DP_W*%
X95142500Y-89095000D03*
%TO.P,U2,7*%
%TO.N,/DP_A*%
X96412500Y-89095000D03*
%TO.P,U2,8,V+*%
%TO.N,+3.3V*%
X97682500Y-89095000D03*
%TD*%
D13*
%TO.P,C2,1*%
%TO.N,GND*%
X117567500Y-95450000D03*
%TO.P,C2,2*%
%TO.N,/Boot*%
X117567500Y-93550000D03*
%TD*%
D21*
%TO.P,R13,1*%
%TO.N,GND*%
X134210500Y-85701000D03*
%TO.P,R13,2*%
%TO.N,/Batt_Level*%
X132385500Y-85701000D03*
%TD*%
D11*
%TO.P,D23,1,VDD*%
%TO.N,+3.3V*%
X223350000Y-98950000D03*
%TO.P,D23,2,DOUT*%
%TO.N,Net-(D23-DOUT)*%
X223350000Y-102250000D03*
%TO.P,D23,3,VSS*%
%TO.N,GND*%
X228250000Y-102250000D03*
%TO.P,D23,4,DIN*%
%TO.N,Net-(D22-DOUT)*%
X228250000Y-98950000D03*
%TD*%
D12*
%TO.P,TP3,1,1*%
%TO.N,GND*%
X108357500Y-102910000D03*
%TD*%
D32*
%TO.P,U3,1,IN*%
%TO.N,Net-(D25-K)*%
X92810000Y-100450000D03*
%TO.P,U3,2,GND*%
%TO.N,GND*%
X92810000Y-101400000D03*
%TO.P,U3,3,EN*%
%TO.N,Net-(SW1-B)*%
X92810000Y-102350000D03*
%TO.P,U3,4,NC*%
%TO.N,unconnected-(U3-NC-Pad4)*%
X95085000Y-102350000D03*
%TO.P,U3,5,OUT*%
%TO.N,+3.3V*%
X95085000Y-100450000D03*
%TD*%
D33*
%TO.P,C41,1*%
%TO.N,/Mic_Signal*%
X97247500Y-91080000D03*
%TO.P,C41,2*%
%TO.N,Net-(C41-Pad2)*%
X97247500Y-92980000D03*
%TD*%
D12*
%TO.P,TP2,1,1*%
%TO.N,+3.3V*%
X108347500Y-100370000D03*
%TD*%
D10*
%TO.P,C25,1*%
%TO.N,GND*%
X181847500Y-101375000D03*
%TO.P,C25,2*%
%TO.N,+3.3V*%
X181847500Y-99825000D03*
%TD*%
D12*
%TO.P,TP4,1,1*%
%TO.N,+BATT*%
X128008884Y-90401000D03*
%TD*%
D11*
%TO.P,D15,1,VDD*%
%TO.N,+3.3V*%
X183350000Y-98950000D03*
%TO.P,D15,2,DOUT*%
%TO.N,Net-(D15-DOUT)*%
X183350000Y-102250000D03*
%TO.P,D15,3,VSS*%
%TO.N,GND*%
X188250000Y-102250000D03*
%TO.P,D15,4,DIN*%
%TO.N,Net-(D14-DOUT)*%
X188250000Y-98950000D03*
%TD*%
D34*
%TO.P,D26,1,K*%
%TO.N,Net-(D26-K)*%
X87100000Y-96710000D03*
%TO.P,D26,2,A*%
%TO.N,VBUS*%
X88675000Y-96710000D03*
%TD*%
D11*
%TO.P,D17,1,VDD*%
%TO.N,+3.3V*%
X193350000Y-98950000D03*
%TO.P,D17,2,DOUT*%
%TO.N,Net-(D17-DOUT)*%
X193350000Y-102250000D03*
%TO.P,D17,3,VSS*%
%TO.N,GND*%
X198250000Y-102250000D03*
%TO.P,D17,4,DIN*%
%TO.N,Net-(D16-DOUT)*%
X198250000Y-98950000D03*
%TD*%
%TO.P,D21,1,VDD*%
%TO.N,+3.3V*%
X213350000Y-98950000D03*
%TO.P,D21,2,DOUT*%
%TO.N,Net-(D21-DOUT)*%
X213350000Y-102250000D03*
%TO.P,D21,3,VSS*%
%TO.N,GND*%
X218250000Y-102250000D03*
%TO.P,D21,4,DIN*%
%TO.N,Net-(D20-DOUT)*%
X218250000Y-98950000D03*
%TD*%
D12*
%TO.P,MK1,1,-*%
%TO.N,GND*%
X88947500Y-76600000D03*
D29*
%TO.P,MK1,2,+*%
%TO.N,Net-(MK1-+)*%
X88947500Y-79140000D03*
%TD*%
D21*
%TO.P,R9,1*%
%TO.N,Net-(C38-Pad2)*%
X97710000Y-81900000D03*
%TO.P,R9,2*%
%TO.N,Net-(U2A--)*%
X95885000Y-81900000D03*
%TD*%
D11*
%TO.P,D19,1,VDD*%
%TO.N,+3.3V*%
X203350000Y-98950000D03*
%TO.P,D19,2,DOUT*%
%TO.N,Net-(D19-DOUT)*%
X203350000Y-102250000D03*
%TO.P,D19,3,VSS*%
%TO.N,GND*%
X208250000Y-102250000D03*
%TO.P,D19,4,DIN*%
%TO.N,Net-(D18-DOUT)*%
X208250000Y-98950000D03*
%TD*%
%TO.P,D3,1,VDD*%
%TO.N,+3.3V*%
X123350000Y-98950000D03*
%TO.P,D3,2,DOUT*%
%TO.N,Net-(D3-DOUT)*%
X123350000Y-102250000D03*
%TO.P,D3,3,VSS*%
%TO.N,GND*%
X128250000Y-102250000D03*
%TO.P,D3,4,DIN*%
%TO.N,Net-(D2-DOUT)*%
X128250000Y-98950000D03*
%TD*%
D10*
%TO.P,C11,1*%
%TO.N,GND*%
X111847500Y-101375000D03*
%TO.P,C11,2*%
%TO.N,+3.3V*%
X111847500Y-99825000D03*
%TD*%
D14*
%TO.P,R4,1*%
%TO.N,Net-(U1-GPIO8)*%
X115637500Y-93587500D03*
%TO.P,R4,2*%
%TO.N,+3.3V*%
X115637500Y-95412500D03*
%TD*%
%TO.P,R6,1*%
%TO.N,GND*%
X92107500Y-83447500D03*
%TO.P,R6,2*%
%TO.N,Net-(U2A-+)*%
X92107500Y-85272500D03*
%TD*%
D35*
%TO.P,C36,1*%
%TO.N,GND*%
X133148000Y-88951000D03*
%TO.P,C36,2*%
%TO.N,+BATT*%
X131248000Y-88951000D03*
%TD*%
D10*
%TO.P,C27,1*%
%TO.N,GND*%
X191847500Y-101375000D03*
%TO.P,C27,2*%
%TO.N,+3.3V*%
X191847500Y-99825000D03*
%TD*%
D36*
%TO.P,C9,1*%
%TO.N,+3.3V*%
X101607500Y-81000000D03*
%TO.P,C9,2*%
%TO.N,GND*%
X101607500Y-76600000D03*
%TD*%
D10*
%TO.P,C31,1*%
%TO.N,GND*%
X211825000Y-101375000D03*
%TO.P,C31,2*%
%TO.N,+3.3V*%
X211825000Y-99825000D03*
%TD*%
D11*
%TO.P,D9,1,VDD*%
%TO.N,+3.3V*%
X153350000Y-98950000D03*
%TO.P,D9,2,DOUT*%
%TO.N,Net-(D10-DIN)*%
X153350000Y-102250000D03*
%TO.P,D9,3,VSS*%
%TO.N,GND*%
X158250000Y-102250000D03*
%TO.P,D9,4,DIN*%
%TO.N,Net-(D8-DOUT)*%
X158250000Y-98950000D03*
%TD*%
D37*
%TO.P,U5,1,~{CS}*%
%TO.N,/CS*%
X108372500Y-96520000D03*
%TO.P,U5,2,SCK*%
%TO.N,/CLK*%
X108372500Y-95250000D03*
%TO.P,U5,3,SI*%
%TO.N,/MOSI*%
X108372500Y-93980000D03*
%TO.P,U5,4,VSS*%
%TO.N,GND*%
X108372500Y-92710000D03*
%TO.P,U5,5,PA0*%
%TO.N,/DP_A*%
X103422500Y-92710000D03*
%TO.P,U5,6,PW0*%
%TO.N,/DP_W*%
X103422500Y-93980000D03*
%TO.P,U5,7,PB0*%
%TO.N,unconnected-(U5-PB0-Pad7)*%
X103422500Y-95250000D03*
%TO.P,U5,8,VDD*%
%TO.N,+3.3V*%
X103422500Y-96520000D03*
%TD*%
D10*
%TO.P,C33,1*%
%TO.N,GND*%
X221850000Y-101375000D03*
%TO.P,C33,2*%
%TO.N,+3.3V*%
X221850000Y-99825000D03*
%TD*%
D33*
%TO.P,C6,1*%
%TO.N,GND*%
X90077500Y-84500000D03*
%TO.P,C6,2*%
%TO.N,Net-(U2A-+)*%
X90077500Y-86400000D03*
%TD*%
D38*
%TO.P,U1,1,GND*%
%TO.N,GND*%
X107755500Y-82010000D03*
%TO.P,U1,2,GND*%
X107755500Y-82810000D03*
%TO.P,U1,3,3V3*%
%TO.N,+3.3V*%
X107755500Y-83610000D03*
%TO.P,U1,4,NC*%
%TO.N,unconnected-(U1-NC-Pad4)*%
X107755500Y-84410000D03*
%TO.P,U1,5,GPIO2/ADC1_CH2*%
%TO.N,Net-(U1-GPIO2{slash}ADC1_CH2)*%
X107755500Y-85210000D03*
%TO.P,U1,6,GPIO3/ADC1_CH3*%
%TO.N,/RGB_Data*%
X107755500Y-86010000D03*
%TO.P,U1,7,NC*%
%TO.N,unconnected-(U1-NC-Pad7)*%
X107755500Y-86810000D03*
%TO.P,U1,8,EN/CHIP_PU*%
%TO.N,/Reset*%
X107755500Y-87610000D03*
%TO.P,U1,9,NC*%
%TO.N,unconnected-(U1-NC-Pad9)*%
X107755500Y-88410000D03*
%TO.P,U1,10,NC*%
%TO.N,unconnected-(U1-NC-Pad10)*%
X107755500Y-89210000D03*
%TO.P,U1,11,GND*%
%TO.N,GND*%
X107755500Y-90010000D03*
D39*
%TO.P,U1,12,GPIO0/ADC1_CH0/XTAL_32K_P*%
%TO.N,/Batt_Level*%
X108855500Y-90910000D03*
%TO.P,U1,13,GPIO1/ADC1_CH1/XTAL_32K_N*%
%TO.N,/DP_A*%
X109655500Y-90910000D03*
%TO.P,U1,14,GND*%
%TO.N,GND*%
X110455500Y-90910000D03*
%TO.P,U1,15,NC*%
%TO.N,unconnected-(U1-NC-Pad15)*%
X111255500Y-90910000D03*
%TO.P,U1,16,GPIO10*%
%TO.N,/MOSI*%
X112055500Y-90910000D03*
%TO.P,U1,17,NC*%
%TO.N,unconnected-(U1-NC-Pad17)*%
X112855500Y-90910000D03*
%TO.P,U1,18,GPIO4/ADC1_CH4*%
%TO.N,/Mic_Signal*%
X113655500Y-90910000D03*
%TO.P,U1,19,GPIO5/ADC2_CH0*%
%TO.N,/LEDs+8*%
X114455500Y-90910000D03*
%TO.P,U1,20,GPIO6*%
%TO.N,/LEDs+4*%
X115255500Y-90910000D03*
%TO.P,U1,21,GPIO7*%
%TO.N,/LEDs+2*%
X116055500Y-90910000D03*
%TO.P,U1,22,GPIO8*%
%TO.N,Net-(U1-GPIO8)*%
X116855500Y-90910000D03*
%TO.P,U1,23,GPIO9*%
%TO.N,/Boot*%
X117655500Y-90910000D03*
%TO.P,U1,24,NC*%
%TO.N,unconnected-(U1-NC-Pad24)*%
X118455500Y-90910000D03*
D38*
%TO.P,U1,25,NC*%
%TO.N,unconnected-(U1-NC-Pad25)*%
X119555500Y-90010000D03*
%TO.P,U1,26,GPIO18/USB_D-*%
%TO.N,/CS*%
X119555500Y-89210000D03*
%TO.P,U1,27,GPIO19/USB_D+*%
%TO.N,/CLK*%
X119555500Y-88410000D03*
%TO.P,U1,28,NC*%
%TO.N,unconnected-(U1-NC-Pad28)*%
X119555500Y-87610000D03*
%TO.P,U1,29,NC*%
%TO.N,unconnected-(U1-NC-Pad29)*%
X119555500Y-86810000D03*
%TO.P,U1,30,GPIO20/U0RXD*%
%TO.N,/RXD*%
X119555500Y-86010000D03*
%TO.P,U1,31,GPIO21/U0TXD*%
%TO.N,/TXD*%
X119555500Y-85210000D03*
%TO.P,U1,32,NC*%
%TO.N,unconnected-(U1-NC-Pad32)*%
X119555500Y-84410000D03*
%TO.P,U1,33,NC*%
%TO.N,unconnected-(U1-NC-Pad33)*%
X119555500Y-83610000D03*
%TO.P,U1,34,NC*%
%TO.N,unconnected-(U1-NC-Pad34)*%
X119555500Y-82810000D03*
%TO.P,U1,35,NC*%
%TO.N,unconnected-(U1-NC-Pad35)*%
X119555500Y-82010000D03*
D39*
%TO.P,U1,36,GND*%
%TO.N,GND*%
X118455500Y-81110000D03*
%TO.P,U1,37,GND*%
X117655500Y-81110000D03*
%TO.P,U1,38,GND*%
X116855500Y-81110000D03*
%TO.P,U1,39,GND*%
X116055500Y-81110000D03*
%TO.P,U1,40,GND*%
X115255500Y-81110000D03*
%TO.P,U1,41,GND*%
X114455500Y-81110000D03*
%TO.P,U1,42,GND*%
X113655500Y-81110000D03*
%TO.P,U1,43,GND*%
X112855500Y-81110000D03*
%TO.P,U1,44,GND*%
X112055500Y-81110000D03*
%TO.P,U1,45,GND*%
X111255500Y-81110000D03*
%TO.P,U1,46,GND*%
X110455500Y-81110000D03*
%TO.P,U1,47,GND*%
X109655500Y-81110000D03*
%TO.P,U1,48,GND*%
X108855500Y-81110000D03*
D40*
%TO.P,U1,49,GND*%
X111680500Y-84035000D03*
D41*
X111680500Y-86010000D03*
X111680500Y-87985000D03*
X113655500Y-84035000D03*
X113655500Y-86010000D03*
X113655500Y-87985000D03*
X115630500Y-84035000D03*
X115630500Y-86010000D03*
X115630500Y-87985000D03*
D42*
%TO.P,U1,50,GND*%
X119605500Y-81060000D03*
%TO.P,U1,51,GND*%
X119605500Y-90960000D03*
%TO.P,U1,52,GND*%
X107705500Y-90960000D03*
%TO.P,U1,53,GND*%
X107705500Y-81060000D03*
%TD*%
D35*
%TO.P,C37,1*%
%TO.N,GND*%
X133148000Y-95071000D03*
%TO.P,C37,2*%
%TO.N,VBUS*%
X131248000Y-95071000D03*
%TD*%
D10*
%TO.P,C29,1*%
%TO.N,GND*%
X201847500Y-101375000D03*
%TO.P,C29,2*%
%TO.N,+3.3V*%
X201847500Y-99825000D03*
%TD*%
%TO.P,C15,1*%
%TO.N,GND*%
X131847500Y-101375000D03*
%TO.P,C15,2*%
%TO.N,+3.3V*%
X131847500Y-99825000D03*
%TD*%
D12*
%TO.P,TP6,1,1*%
%TO.N,Net-(U4-STAT)*%
X135158000Y-92521000D03*
%TD*%
D20*
%TO.P,R2,1*%
%TO.N,+3.3V*%
X119497500Y-95412500D03*
%TO.P,R2,2*%
%TO.N,/Boot*%
X119497500Y-93587500D03*
%TD*%
D43*
%TO.P,J1,1,VBUS*%
%TO.N,VBUS*%
X85410000Y-98800000D03*
%TO.P,J1,2,D-*%
%TO.N,unconnected-(J1-D--Pad2)*%
X85410000Y-99450000D03*
%TO.P,J1,3,D+*%
%TO.N,unconnected-(J1-D+-Pad3)*%
X85410000Y-100100000D03*
%TO.P,J1,4,ID*%
%TO.N,unconnected-(J1-ID-Pad4)*%
X85410000Y-100750000D03*
%TO.P,J1,5,GND*%
%TO.N,GND*%
X85410000Y-101400000D03*
D44*
%TO.P,J1,6,Shield*%
X82710000Y-96600000D03*
D45*
X82710000Y-97200000D03*
D46*
X85410000Y-97600000D03*
D47*
X82710000Y-99100000D03*
X82710000Y-101100000D03*
D46*
X85410000Y-102600000D03*
D45*
X82710000Y-103000000D03*
D44*
X82710000Y-103600000D03*
%TD*%
D14*
%TO.P,R5,1*%
%TO.N,Net-(U2A-+)*%
X92107500Y-86827500D03*
%TO.P,R5,2*%
%TO.N,+3.3V*%
X92107500Y-88652500D03*
%TD*%
D35*
%TO.P,C40,1*%
%TO.N,/DP_W*%
X104847500Y-90880000D03*
%TO.P,C40,2*%
%TO.N,/DP_A*%
X102947500Y-90880000D03*
%TD*%
D15*
%TO.P,C4,1*%
%TO.N,GND*%
X103897500Y-84700000D03*
%TO.P,C4,2*%
%TO.N,+3.3V*%
X105797500Y-84700000D03*
%TD*%
D33*
%TO.P,C39,1*%
%TO.N,Net-(C39-Pad1)*%
X99467500Y-87675000D03*
%TO.P,C39,2*%
%TO.N,/DP_W*%
X99467500Y-89575000D03*
%TD*%
%TO.P,C5,1*%
%TO.N,Net-(MK1-+)*%
X94107500Y-79950000D03*
%TO.P,C5,2*%
%TO.N,Net-(U2A--)*%
X94107500Y-81850000D03*
%TD*%
D20*
%TO.P,R8,1*%
%TO.N,+3.3V*%
X92097500Y-81812500D03*
%TO.P,R8,2*%
%TO.N,Net-(MK1-+)*%
X92097500Y-79987500D03*
%TD*%
%TO.P,R11,1*%
%TO.N,GND*%
X139498000Y-94703500D03*
%TO.P,R11,2*%
%TO.N,Net-(U4-PROG)*%
X139498000Y-92878500D03*
%TD*%
D48*
%TO.N,GND*%
X93947500Y-101400000D03*
X165800000Y-103200000D03*
X118272500Y-101200000D03*
X93947500Y-95100000D03*
X195800000Y-103200000D03*
X121247500Y-94500000D03*
X134450500Y-89251000D03*
X99547500Y-95000000D03*
X138262299Y-101200498D03*
X106027500Y-90460000D03*
X103477500Y-78470000D03*
X134148000Y-95351000D03*
X134148000Y-94451000D03*
X88637500Y-84250000D03*
X90697500Y-103800000D03*
X135800000Y-103200000D03*
X133850500Y-87451000D03*
X134450500Y-88251000D03*
X155800000Y-103200000D03*
X185800000Y-103200000D03*
X120547500Y-90920500D03*
X215800000Y-103200000D03*
X109881500Y-91934000D03*
X106027500Y-92680000D03*
X148250000Y-101200498D03*
X132850500Y-87451000D03*
X205800000Y-103200000D03*
X175600000Y-103200000D03*
X145800000Y-103200000D03*
X225800000Y-103200000D03*
X128262299Y-101200498D03*
X109997500Y-87375000D03*
X135050500Y-94451000D03*
X135050500Y-95351000D03*
X103190000Y-100030000D03*
%TO.N,/Reset*%
X111974799Y-92327299D03*
X109027500Y-88420000D03*
%TO.N,/Boot*%
X127198000Y-84700000D03*
X118369189Y-89849500D03*
X120697500Y-93450000D03*
%TO.N,+3.3V*%
X185297500Y-97900000D03*
X135497500Y-97900000D03*
X165447500Y-97900000D03*
X155397500Y-97900000D03*
X225347500Y-97900000D03*
X90647500Y-82800000D03*
X118297500Y-100075000D03*
X215347500Y-97900000D03*
X100262500Y-92415000D03*
X104097500Y-88000000D03*
X93968704Y-90669500D03*
X175297500Y-97900000D03*
X195347500Y-97900000D03*
X101607500Y-83900000D03*
X145472500Y-97900000D03*
X125147500Y-98024500D03*
X93990000Y-86770000D03*
X205347500Y-97900000D03*
%TO.N,Net-(D1-DOUT)*%
X113408384Y-100400000D03*
%TO.N,/RGB_Data*%
X115075000Y-98825000D03*
X106752500Y-96191992D03*
%TO.N,Net-(D2-DOUT)*%
X126308384Y-99100000D03*
%TO.N,Net-(D3-DOUT)*%
X123350000Y-100350000D03*
%TO.N,Net-(D5-DOUT)*%
X133300000Y-100350000D03*
%TO.N,Net-(D4-DOUT)*%
X136347500Y-99100000D03*
%TO.N,Net-(D7-DOUT)*%
X143300000Y-100350000D03*
%TO.N,Net-(D10-DIN)*%
X153300000Y-100350000D03*
%TO.N,Net-(D10-DOUT)*%
X166347500Y-99100000D03*
%TO.N,Net-(D11-DOUT)*%
X163300000Y-100350000D03*
%TO.N,+BATT*%
X129798000Y-90251000D03*
X129798000Y-91251000D03*
X129798000Y-89251000D03*
X129798000Y-88251000D03*
X131348000Y-87451000D03*
X119747000Y-96575500D03*
X130348000Y-87451000D03*
%TO.N,/Mic_Signal*%
X113001607Y-91950492D03*
X98777500Y-91350000D03*
%TO.N,VBUS*%
X111561466Y-98077582D03*
X129798000Y-94301000D03*
X129798000Y-93401000D03*
X129798000Y-95201000D03*
X99599571Y-98200000D03*
X92772500Y-98200000D03*
%TO.N,/LEDs+2*%
X121827047Y-91371691D03*
%TO.N,/LEDs+4*%
X122546673Y-92096191D03*
%TO.N,Net-(U1-GPIO8)*%
X116881143Y-89880799D03*
X114900678Y-92514173D03*
%TO.N,/DP_W*%
X97629877Y-86457779D03*
X95792098Y-87494500D03*
%TO.N,/DP_A*%
X99867500Y-90740000D03*
X96778615Y-87655089D03*
X109676049Y-89924500D03*
X101717500Y-92830000D03*
%TO.N,Net-(D13-DOUT)*%
X173300000Y-100350000D03*
%TO.N,Net-(D14-DOUT)*%
X186297500Y-99100000D03*
%TO.N,Net-(D15-DOUT)*%
X183300000Y-100350000D03*
%TO.N,Net-(D17-DOUT)*%
X193300000Y-100350000D03*
%TO.N,Net-(D18-DOUT)*%
X206347500Y-99100000D03*
%TO.N,Net-(D19-DOUT)*%
X203300000Y-100350000D03*
%TO.N,Net-(D6-DOUT)*%
X146347500Y-99100000D03*
%TO.N,Net-(D8-DOUT)*%
X156397500Y-99100000D03*
%TO.N,Net-(D12-DOUT)*%
X176347500Y-99100000D03*
%TO.N,Net-(D16-DOUT)*%
X196347500Y-99100000D03*
%TO.N,Net-(D20-DOUT)*%
X216347500Y-99100000D03*
%TO.N,Net-(SW1-B)*%
X92810000Y-103400000D03*
%TO.N,Net-(D21-DOUT)*%
X213300000Y-100350000D03*
%TO.N,Net-(D22-DOUT)*%
X226347500Y-99100000D03*
%TO.N,Net-(D23-DOUT)*%
X223300000Y-100350000D03*
%TO.N,/LEDs+8*%
X122582170Y-93156287D03*
%TO.N,/Batt_Level*%
X118198120Y-87419103D03*
%TO.N,Net-(D26-K)*%
X86193185Y-95974500D03*
%TO.N,Net-(U4-STAT)*%
X89648500Y-97376223D03*
X91547500Y-97380000D03*
%TO.N,Net-(D25-K)*%
X98807500Y-99560000D03*
X92808384Y-99500000D03*
%TO.N,Net-(D27-A)*%
X85778384Y-95040000D03*
%TO.N,/CS*%
X110227500Y-95390000D03*
X117583799Y-89156299D03*
%TO.N,/CLK*%
X110137500Y-94374500D03*
X118387500Y-88400500D03*
%TD*%
D49*
%TO.N,GND*%
X207300000Y-103200000D02*
X205800000Y-103200000D01*
X141847500Y-102597500D02*
X142450000Y-103200000D01*
X109881500Y-91934000D02*
X110455500Y-91360000D01*
X189200000Y-103200000D02*
X195800000Y-103200000D01*
X100552500Y-95000000D02*
X101427500Y-94125000D01*
D50*
X93394251Y-101400000D02*
X93394251Y-101400000D01*
D51*
X82710000Y-96600000D02*
X84410000Y-96600000D01*
D49*
X211847500Y-101375000D02*
X211847500Y-102597500D01*
X124948000Y-85311000D02*
X129059000Y-81200000D01*
X133515500Y-94703500D02*
X133148000Y-95071000D01*
X129550000Y-103200000D02*
X135800000Y-103200000D01*
X212450000Y-103200000D02*
X215800000Y-103200000D01*
X122450000Y-103200000D02*
X125800000Y-103200000D01*
X117547500Y-95430000D02*
X117567500Y-95450000D01*
X114657500Y-94500000D02*
X117547500Y-94500000D01*
X228250000Y-102250000D02*
X227300000Y-103200000D01*
X115630500Y-87985000D02*
X111680500Y-87985000D01*
X111847500Y-102597500D02*
X112450000Y-103200000D01*
X168550000Y-102250000D02*
X169500000Y-103200000D01*
X221847500Y-101375000D02*
X221847500Y-102597500D01*
X162450000Y-103200000D02*
X165600000Y-103200000D01*
X202450000Y-103200000D02*
X205800000Y-103200000D01*
X181847500Y-101375000D02*
X181847500Y-102597500D01*
X208250000Y-102250000D02*
X207300000Y-103200000D01*
X113707500Y-95450000D02*
X114657500Y-94500000D01*
X139498000Y-94703500D02*
X137498000Y-94703500D01*
X122682500Y-81060000D02*
X123672500Y-82050000D01*
D52*
X93947500Y-101400000D02*
X93947500Y-97100000D01*
X93947500Y-97100000D02*
X93647500Y-96800000D01*
D49*
X178250000Y-102250000D02*
X178550000Y-102250000D01*
X148250000Y-102250000D02*
X149200000Y-103200000D01*
X134725500Y-94703500D02*
X133515500Y-94703500D01*
X137300000Y-103200000D02*
X138250000Y-102250000D01*
X118262299Y-101200498D02*
X118197500Y-101265297D01*
X107705500Y-92043000D02*
X108372500Y-92710000D01*
D52*
X93947500Y-101400000D02*
X93947500Y-103020000D01*
D49*
X115630500Y-84035000D02*
X115630500Y-87985000D01*
X215800000Y-103200000D02*
X217300000Y-103200000D01*
X128600000Y-102250000D02*
X129550000Y-103200000D01*
X113655500Y-84035000D02*
X113655500Y-81110000D01*
X123672500Y-84035500D02*
X124948000Y-85311000D01*
X192450000Y-103200000D02*
X195800000Y-103200000D01*
X151847500Y-102597500D02*
X152450000Y-103200000D01*
D52*
X93047500Y-96200000D02*
X93647500Y-96800000D01*
D49*
X106027500Y-90460000D02*
X106027500Y-92680000D01*
X155800000Y-103200000D02*
X157300000Y-103200000D01*
X195800000Y-103200000D02*
X197300000Y-103200000D01*
X221847500Y-102597500D02*
X222450000Y-103200000D01*
X201847500Y-101375000D02*
X201847500Y-102597500D01*
X129059000Y-81200000D02*
X129237500Y-81200000D01*
X93947500Y-95100000D02*
X92257500Y-93410000D01*
X120547500Y-90920500D02*
X120508000Y-90960000D01*
X171847500Y-102597500D02*
X172450000Y-103200000D01*
X112450000Y-103200000D02*
X115800000Y-103200000D01*
D52*
X105537500Y-81060000D02*
X107705500Y-81060000D01*
X88675000Y-95240000D02*
X89635000Y-96200000D01*
D49*
X121847500Y-101375000D02*
X121847500Y-102597500D01*
X181847500Y-102597500D02*
X182450000Y-103200000D01*
X172450000Y-103200000D02*
X175800000Y-103200000D01*
X191847500Y-102597500D02*
X192450000Y-103200000D01*
D52*
X93947500Y-95100000D02*
X93947500Y-96500000D01*
D49*
X145800000Y-103200000D02*
X147300000Y-103200000D01*
X201847500Y-102597500D02*
X202450000Y-103200000D01*
X205800000Y-103200000D02*
X199200000Y-103200000D01*
X157300000Y-103200000D02*
X158250000Y-102250000D01*
X113655500Y-87985000D02*
X113655500Y-84035000D01*
X125800000Y-103200000D02*
X127350000Y-103200000D01*
X168250000Y-102250000D02*
X168550000Y-102250000D01*
X179500000Y-103200000D02*
X185800000Y-103200000D01*
X128300000Y-102250000D02*
X128600000Y-102250000D01*
X111680500Y-86010000D02*
X115630500Y-86010000D01*
X211847500Y-102597500D02*
X212450000Y-103200000D01*
D52*
X133148000Y-88951000D02*
X133148000Y-89460683D01*
D49*
X148250000Y-101200498D02*
X148250000Y-102250000D01*
X118362797Y-101100000D02*
X118250000Y-101212797D01*
X141847500Y-101375000D02*
X141847500Y-102597500D01*
X205800000Y-103200000D02*
X215800000Y-103200000D01*
X142450000Y-103200000D02*
X145800000Y-103200000D01*
X110455500Y-91360000D02*
X110455500Y-90910000D01*
X182450000Y-103200000D02*
X185800000Y-103200000D01*
X187300000Y-103200000D02*
X188250000Y-102250000D01*
D53*
X84410000Y-96600000D02*
X85410000Y-97600000D01*
D49*
X161847500Y-101275000D02*
X161847500Y-102597500D01*
X103190000Y-100030000D02*
X104707500Y-100030000D01*
X149200000Y-103200000D02*
X150800000Y-103200000D01*
X107705500Y-90960000D02*
X107705500Y-90060000D01*
X138250000Y-102250000D02*
X139200000Y-103200000D01*
X107755500Y-81110000D02*
X107705500Y-81060000D01*
X159200000Y-103200000D02*
X165600000Y-103200000D01*
X138250000Y-101200498D02*
X138250000Y-102250000D01*
X123672500Y-82050000D02*
X123672500Y-84035500D01*
X110607500Y-87985000D02*
X111680500Y-87985000D01*
X119200000Y-103200000D02*
X125800000Y-103200000D01*
X118197500Y-101265297D02*
X118197500Y-101100000D01*
D52*
X103897500Y-78890000D02*
X103897500Y-82700000D01*
D49*
X169500000Y-103200000D02*
X175800000Y-103200000D01*
X88637500Y-84250000D02*
X91122500Y-84250000D01*
D50*
X93394251Y-101400000D02*
X93947500Y-101400000D01*
D49*
X91925000Y-83447500D02*
X92107500Y-83447500D01*
X107705500Y-90960000D02*
X107705500Y-92043000D01*
X93947500Y-96500000D02*
X93647500Y-96800000D01*
X117300000Y-103200000D02*
X118250000Y-102250000D01*
X177300000Y-103200000D02*
X178250000Y-102250000D01*
X225800000Y-103200000D02*
X227300000Y-103200000D01*
X117547500Y-94500000D02*
X117547500Y-95430000D01*
X128250000Y-101212797D02*
X128250000Y-102250000D01*
X92942500Y-84145000D02*
X93872500Y-84145000D01*
D52*
X132198000Y-90901000D02*
X132198000Y-94121000D01*
D49*
X107705500Y-90060000D02*
X107755500Y-90010000D01*
X161847500Y-102597500D02*
X162450000Y-103200000D01*
X165600000Y-103200000D02*
X167300000Y-103200000D01*
X127350000Y-103200000D02*
X128300000Y-102250000D01*
X147300000Y-103200000D02*
X148250000Y-102250000D01*
X128262299Y-101200498D02*
X128250000Y-101212797D01*
X121247500Y-94500000D02*
X117547500Y-94500000D01*
X120508000Y-90960000D02*
X119605500Y-90960000D01*
X111680500Y-87985000D02*
X111680500Y-84035000D01*
X178550000Y-102250000D02*
X179500000Y-103200000D01*
X191847500Y-101375000D02*
X191847500Y-102597500D01*
X131847500Y-101375000D02*
X131847500Y-102597500D01*
X92245000Y-83447500D02*
X92942500Y-84145000D01*
X107705500Y-81060000D02*
X119605500Y-81060000D01*
D52*
X103477500Y-78470000D02*
X101607500Y-76600000D01*
D49*
X175800000Y-103200000D02*
X177300000Y-103200000D01*
X118250000Y-102250000D02*
X119200000Y-103200000D01*
D52*
X133148000Y-89460683D02*
X132198000Y-90410683D01*
D49*
X131847500Y-102597500D02*
X132450000Y-103200000D01*
X150800000Y-103200000D02*
X155800000Y-103200000D01*
X217300000Y-103200000D02*
X218250000Y-102250000D01*
X111847500Y-101375000D02*
X111847500Y-102597500D01*
X119605500Y-81060000D02*
X122682500Y-81060000D01*
X99547500Y-95000000D02*
X100552500Y-95000000D01*
X91122500Y-84250000D02*
X91925000Y-83447500D01*
X185800000Y-103200000D02*
X187300000Y-103200000D01*
X108372500Y-92710000D02*
X109105500Y-92710000D01*
X158250000Y-102250000D02*
X159200000Y-103200000D01*
X115800000Y-103200000D02*
X117300000Y-103200000D01*
X139200000Y-103200000D02*
X145800000Y-103200000D01*
X109105500Y-92710000D02*
X109881500Y-91934000D01*
X167300000Y-103200000D02*
X168250000Y-102250000D01*
D52*
X132198000Y-90410683D02*
X132198000Y-90901000D01*
D49*
X134210500Y-87888500D02*
X133148000Y-88951000D01*
X171847500Y-101375000D02*
X171847500Y-102597500D01*
X121847500Y-102597500D02*
X122450000Y-103200000D01*
D52*
X103897500Y-82700000D02*
X103897500Y-84700000D01*
D49*
X90747500Y-102350000D02*
X90747500Y-103750000D01*
X118250000Y-101212797D02*
X118250000Y-102250000D01*
X86805000Y-93190000D02*
X86397500Y-93190000D01*
D52*
X88855000Y-95240000D02*
X86805000Y-93190000D01*
D49*
X109997500Y-87375000D02*
X110607500Y-87985000D01*
X199200000Y-103200000D02*
X198250000Y-102250000D01*
X111680500Y-84035000D02*
X115630500Y-84035000D01*
D50*
X92810000Y-101400000D02*
X93394251Y-101400000D01*
D49*
X132450000Y-103200000D02*
X135800000Y-103200000D01*
D52*
X89635000Y-96200000D02*
X93047500Y-96200000D01*
D51*
X82710000Y-96600000D02*
X82710000Y-103000000D01*
D52*
X103897500Y-82700000D02*
X105537500Y-81060000D01*
D49*
X152450000Y-103200000D02*
X155800000Y-103200000D01*
D52*
X132198000Y-94121000D02*
X133148000Y-95071000D01*
D49*
X137498000Y-94703500D02*
X134770500Y-94703500D01*
D52*
X103477500Y-78470000D02*
X103897500Y-78890000D01*
D49*
X225800000Y-103200000D02*
X219200000Y-103200000D01*
X90747500Y-103750000D02*
X90697500Y-103800000D01*
X188250000Y-102250000D02*
X189200000Y-103200000D01*
X107755500Y-82810000D02*
X107755500Y-81110000D01*
X197300000Y-103200000D02*
X198250000Y-102250000D01*
X92107500Y-83447500D02*
X92245000Y-83447500D01*
X92257500Y-93410000D02*
X92257500Y-91875000D01*
X151847500Y-101375000D02*
X151847500Y-102597500D01*
X219200000Y-103200000D02*
X218250000Y-102250000D01*
X134210500Y-85701000D02*
X134210500Y-87888500D01*
X118197500Y-101100000D02*
X118362797Y-101100000D01*
X135800000Y-103200000D02*
X137300000Y-103200000D01*
X104707500Y-100030000D02*
X104725000Y-100012500D01*
%TO.N,/Reset*%
X111974799Y-92327299D02*
X111777500Y-92524598D01*
X111777500Y-92524598D02*
X111777500Y-93587500D01*
X108205500Y-87610000D02*
X107755500Y-87610000D01*
X113670000Y-93587500D02*
X113707500Y-93550000D01*
X109015500Y-88420000D02*
X108205500Y-87610000D01*
X111777500Y-93587500D02*
X113670000Y-93587500D01*
X109027500Y-88420000D02*
X109015500Y-88420000D01*
%TO.N,/Boot*%
X118369189Y-89849500D02*
X117655500Y-90563189D01*
X127198000Y-85191884D02*
X124948000Y-87441884D01*
X117655500Y-90563189D02*
X117655500Y-90910000D01*
X120597500Y-93550000D02*
X117567500Y-93550000D01*
X120697500Y-93450000D02*
X120597500Y-93550000D01*
X127198000Y-84700000D02*
X127198000Y-85191884D01*
X124948000Y-87441884D02*
X124948000Y-87851000D01*
D52*
%TO.N,+3.3V*%
X165297500Y-97900000D02*
X164400000Y-97900000D01*
X212300000Y-97900000D02*
X213350000Y-98950000D01*
X100262500Y-92455000D02*
X98867500Y-93850000D01*
X194400000Y-97900000D02*
X193350000Y-98950000D01*
X180883805Y-97900000D02*
X182300000Y-97900000D01*
X141950000Y-99825000D02*
X142825000Y-98950000D01*
X143350000Y-98950000D02*
X142300000Y-97900000D01*
X162025000Y-99725000D02*
X162800000Y-98950000D01*
X111522500Y-99825000D02*
X110297500Y-101050000D01*
X200776699Y-97913350D02*
X200883805Y-97900000D01*
X201925000Y-99825000D02*
X202800000Y-98950000D01*
X100262500Y-92415000D02*
X100262500Y-92445000D01*
X104097500Y-86862500D02*
X103935000Y-86700000D01*
X132300000Y-97900000D02*
X133350000Y-98950000D01*
X121747500Y-99825000D02*
X122000000Y-99825000D01*
X97867500Y-94850000D02*
X97867500Y-96620000D01*
X171925000Y-99825000D02*
X172800000Y-98950000D01*
X122000000Y-99825000D02*
X122875000Y-98950000D01*
X224400000Y-97900000D02*
X223350000Y-98950000D01*
X185347500Y-97900000D02*
X190713030Y-97900000D01*
X114508384Y-100100000D02*
X113358384Y-98950000D01*
D49*
X102272500Y-96520000D02*
X103422500Y-96520000D01*
D52*
X222300000Y-97900000D02*
X223350000Y-98950000D01*
X161847500Y-99725000D02*
X162025000Y-99725000D01*
X104097500Y-88000000D02*
X104097500Y-86862500D01*
X125497500Y-97900000D02*
X132300000Y-97900000D01*
X98867500Y-93840000D02*
X98867500Y-93850000D01*
D49*
X103422500Y-96520000D02*
X103442500Y-96540000D01*
D52*
X110297500Y-101050000D02*
X97747500Y-101050000D01*
X175297500Y-97900000D02*
X174400000Y-97900000D01*
X105797500Y-84840000D02*
X105797500Y-84700000D01*
D49*
X112765000Y-96400000D02*
X114650000Y-96400000D01*
D52*
X101607500Y-84600000D02*
X103707500Y-86700000D01*
X142825000Y-98950000D02*
X143350000Y-98950000D01*
D49*
X92107500Y-88652500D02*
X93990000Y-86770000D01*
D52*
X200713030Y-97900000D02*
X200776699Y-97913350D01*
X202300000Y-97900000D02*
X203350000Y-98950000D01*
D49*
X118510000Y-96400000D02*
X119497500Y-95412500D01*
D52*
X174400000Y-97900000D02*
X173350000Y-98950000D01*
X155447500Y-97900000D02*
X154400000Y-97900000D01*
X215347500Y-97900000D02*
X220713030Y-97900000D01*
X134400000Y-97900000D02*
X133350000Y-98950000D01*
X172300000Y-97900000D02*
X173350000Y-98950000D01*
X212625000Y-99075000D02*
X213225000Y-99075000D01*
D49*
X90647500Y-82600000D02*
X91435000Y-81812500D01*
X106467500Y-97500000D02*
X109690000Y-97500000D01*
D52*
X97147500Y-97700000D02*
X98047500Y-96800000D01*
X98867500Y-93850000D02*
X97867500Y-94850000D01*
X192300000Y-97900000D02*
X193350000Y-98950000D01*
X191847500Y-99825000D02*
X191900000Y-99825000D01*
X195347500Y-97900000D02*
X200713030Y-97900000D01*
X190883805Y-97900000D02*
X192300000Y-97900000D01*
X215347500Y-97900000D02*
X214400000Y-97900000D01*
X118197500Y-100100000D02*
X114508384Y-100100000D01*
X165297500Y-97900000D02*
X170713030Y-97900000D01*
X200883805Y-97900000D02*
X202300000Y-97900000D01*
X221875000Y-99825000D02*
X222750000Y-98950000D01*
X190713030Y-97900000D02*
X190776699Y-97913350D01*
X151847500Y-99825000D02*
X151950000Y-99825000D01*
X205347500Y-97900000D02*
X210713030Y-97900000D01*
X202800000Y-98950000D02*
X203350000Y-98950000D01*
X125497500Y-97900000D02*
X124400000Y-97900000D01*
X210776699Y-97913350D02*
X210883805Y-97900000D01*
D49*
X90647500Y-82800000D02*
X90647500Y-82600000D01*
D52*
X145397500Y-97900000D02*
X150847500Y-97900000D01*
X100262500Y-92415000D02*
X100262500Y-92455000D01*
X155447500Y-97900000D02*
X160713030Y-97900000D01*
X181847500Y-99825000D02*
X181900000Y-99825000D01*
X184400000Y-97900000D02*
X183350000Y-98950000D01*
X222750000Y-98950000D02*
X223350000Y-98950000D01*
X112500000Y-99800000D02*
X113350000Y-98950000D01*
X111847500Y-99825000D02*
X111522500Y-99825000D01*
X105797500Y-84700000D02*
X106887500Y-83610000D01*
X185347500Y-97900000D02*
X184400000Y-97900000D01*
D49*
X97682500Y-87535000D02*
X97682500Y-89095000D01*
D52*
X131847500Y-99825000D02*
X132025000Y-99825000D01*
X132025000Y-99825000D02*
X132900000Y-98950000D01*
X152300000Y-97900000D02*
X153350000Y-98950000D01*
D49*
X101427500Y-95675000D02*
X100302500Y-96800000D01*
D52*
X190776699Y-97913350D02*
X190883805Y-97900000D01*
X191900000Y-99825000D02*
X192775000Y-98950000D01*
X162800000Y-98950000D02*
X163350000Y-98950000D01*
D49*
X103422500Y-96520000D02*
X103372500Y-96570000D01*
D52*
X121725000Y-100100000D02*
X118197500Y-100100000D01*
X160776699Y-97913350D02*
X160883805Y-97900000D01*
X170776699Y-97913350D02*
X170883805Y-97900000D01*
D49*
X105507500Y-96540000D02*
X106467500Y-97500000D01*
D52*
X103935000Y-86700000D02*
X103937500Y-86700000D01*
X111847500Y-99825000D02*
X112475000Y-99825000D01*
X180713030Y-97900000D02*
X180776699Y-97913350D01*
X154400000Y-97900000D02*
X153350000Y-98950000D01*
D49*
X93949204Y-90650000D02*
X92582500Y-90650000D01*
D52*
X213225000Y-99075000D02*
X213350000Y-98950000D01*
X101607500Y-83900000D02*
X101607500Y-81000000D01*
X106887500Y-83610000D02*
X107755500Y-83610000D01*
X211875000Y-99825000D02*
X212625000Y-99075000D01*
X97747500Y-101050000D02*
X97147500Y-100450000D01*
X103707500Y-86700000D02*
X103935000Y-86700000D01*
D49*
X116625000Y-96400000D02*
X118510000Y-96400000D01*
D52*
X145397500Y-97900000D02*
X144400000Y-97900000D01*
X221847500Y-99825000D02*
X221875000Y-99825000D01*
X175297500Y-97900000D02*
X180713030Y-97900000D01*
X201847500Y-99825000D02*
X201925000Y-99825000D01*
X214400000Y-97900000D02*
X213350000Y-98950000D01*
X98277500Y-96570000D02*
X98047500Y-96800000D01*
D49*
X92582500Y-90650000D02*
X92257500Y-90325000D01*
X101427500Y-95675000D02*
X102272500Y-96520000D01*
D52*
X141847500Y-99825000D02*
X141950000Y-99825000D01*
X182775000Y-98950000D02*
X183350000Y-98950000D01*
D49*
X103442500Y-96540000D02*
X105507500Y-96540000D01*
D52*
X101607500Y-83900000D02*
X101607500Y-84600000D01*
X210883805Y-97900000D02*
X212300000Y-97900000D01*
D49*
X100302500Y-96800000D02*
X98047500Y-96800000D01*
D52*
X132900000Y-98950000D02*
X133350000Y-98950000D01*
X181900000Y-99825000D02*
X182775000Y-98950000D01*
X170883805Y-97900000D02*
X172300000Y-97900000D01*
X162300000Y-97900000D02*
X163350000Y-98950000D01*
X160883805Y-97900000D02*
X162300000Y-97900000D01*
X150847500Y-97900000D02*
X152300000Y-97900000D01*
D49*
X109690000Y-97500000D02*
X111777500Y-95412500D01*
D52*
X124400000Y-97900000D02*
X123350000Y-98950000D01*
X160713030Y-97900000D02*
X160776699Y-97913350D01*
X171847500Y-99825000D02*
X171925000Y-99825000D01*
X195347500Y-97900000D02*
X194400000Y-97900000D01*
X122875000Y-98950000D02*
X123350000Y-98950000D01*
X220713030Y-97900000D02*
X220776699Y-97913350D01*
X220883805Y-97900000D02*
X222300000Y-97900000D01*
X113358384Y-98950000D02*
X113350000Y-98950000D01*
D49*
X96917500Y-86770000D02*
X97682500Y-87535000D01*
D52*
X112475000Y-99825000D02*
X113350000Y-98950000D01*
X142300000Y-97900000D02*
X134400000Y-97900000D01*
X170713030Y-97900000D02*
X170776699Y-97913350D01*
X103937500Y-86700000D02*
X105797500Y-84840000D01*
X205347500Y-97900000D02*
X204400000Y-97900000D01*
X121900000Y-99925000D02*
X121725000Y-100100000D01*
X164400000Y-97900000D02*
X163350000Y-98950000D01*
X180776699Y-97913350D02*
X180883805Y-97900000D01*
X105797500Y-82700000D02*
X105797500Y-84700000D01*
X152825000Y-98950000D02*
X153350000Y-98950000D01*
X192775000Y-98950000D02*
X193350000Y-98950000D01*
X100262500Y-92445000D02*
X98867500Y-93840000D01*
D49*
X93990000Y-86770000D02*
X96917500Y-86770000D01*
D52*
X211847500Y-99825000D02*
X211875000Y-99825000D01*
X97867500Y-96620000D02*
X98047500Y-96800000D01*
D49*
X93968704Y-90669500D02*
X93949204Y-90650000D01*
X111777500Y-95412500D02*
X112765000Y-96400000D01*
D52*
X210713030Y-97900000D02*
X210776699Y-97913350D01*
D49*
X115637500Y-95412500D02*
X116625000Y-96400000D01*
D52*
X225347500Y-97900000D02*
X224400000Y-97900000D01*
D49*
X114650000Y-96400000D02*
X115637500Y-95412500D01*
D52*
X97147500Y-100450000D02*
X97147500Y-97700000D01*
X204400000Y-97900000D02*
X203350000Y-98950000D01*
X95085000Y-100450000D02*
X97147500Y-100450000D01*
X151950000Y-99825000D02*
X152825000Y-98950000D01*
X172800000Y-98950000D02*
X173350000Y-98950000D01*
X182300000Y-97900000D02*
X183350000Y-98950000D01*
D49*
X91435000Y-81812500D02*
X92097500Y-81812500D01*
D52*
X144400000Y-97900000D02*
X143350000Y-98950000D01*
D49*
%TO.N,Net-(MK1-+)*%
X91250000Y-79140000D02*
X92097500Y-79987500D01*
X92097500Y-79987500D02*
X94070000Y-79987500D01*
X88947500Y-79140000D02*
X91250000Y-79140000D01*
X94070000Y-79987500D02*
X94107500Y-79950000D01*
%TO.N,Net-(U2A--)*%
X94107500Y-81850000D02*
X94157500Y-81900000D01*
X96272500Y-84005000D02*
X96412500Y-84145000D01*
X94157500Y-81900000D02*
X95885000Y-81900000D01*
X95847500Y-81862500D02*
X95885000Y-81900000D01*
X95885000Y-81900000D02*
X96272500Y-82287500D01*
X96272500Y-82287500D02*
X96272500Y-84005000D01*
X95847500Y-79950000D02*
X95847500Y-81862500D01*
%TO.N,Net-(U2A-+)*%
X95142500Y-84780000D02*
X93872500Y-86050000D01*
X93872500Y-86050000D02*
X92107500Y-86050000D01*
X92107500Y-86827500D02*
X92107500Y-86050000D01*
X95142500Y-84145000D02*
X95142500Y-84780000D01*
X93477500Y-89490000D02*
X91419327Y-89490000D01*
X91047500Y-87887500D02*
X92107500Y-86827500D01*
X92107500Y-86050000D02*
X90427500Y-86050000D01*
X90427500Y-86050000D02*
X90077500Y-86400000D01*
X91419327Y-89490000D02*
X91047500Y-89118173D01*
X91047500Y-89118173D02*
X91047500Y-87887500D01*
X92107500Y-85272500D02*
X92107500Y-86827500D01*
X93872500Y-89095000D02*
X93477500Y-89490000D01*
%TO.N,Net-(D1-DOUT)*%
X113408384Y-100400000D02*
X113350000Y-102250000D01*
%TO.N,/RGB_Data*%
X107105500Y-86010000D02*
X107755500Y-86010000D01*
X118250000Y-98950000D02*
X118100000Y-98800000D01*
X106752500Y-86363000D02*
X107105500Y-86010000D01*
X106752500Y-96191992D02*
X106752500Y-86363000D01*
X115100000Y-98800000D02*
X115075000Y-98825000D01*
X118100000Y-98800000D02*
X115100000Y-98800000D01*
%TO.N,Net-(D2-DOUT)*%
X128100000Y-99100000D02*
X128250000Y-98950000D01*
X126347500Y-99100000D02*
X128100000Y-99100000D01*
%TO.N,Net-(D3-DOUT)*%
X123350000Y-100400000D02*
X123350000Y-102250000D01*
%TO.N,Net-(D5-DOUT)*%
X133350000Y-100400000D02*
X133350000Y-102250000D01*
X133300000Y-100350000D02*
X133350000Y-100400000D01*
%TO.N,Net-(D4-DOUT)*%
X138100000Y-99100000D02*
X138250000Y-98950000D01*
X136347500Y-99100000D02*
X138100000Y-99100000D01*
%TO.N,Net-(D7-DOUT)*%
X143350000Y-100400000D02*
X143350000Y-102250000D01*
X143300000Y-100350000D02*
X143350000Y-100400000D01*
%TO.N,Net-(D10-DIN)*%
X153300000Y-100350000D02*
X153350000Y-100400000D01*
X153350000Y-100400000D02*
X153350000Y-102250000D01*
%TO.N,Net-(D10-DOUT)*%
X168100000Y-99100000D02*
X168250000Y-98950000D01*
X166347500Y-99100000D02*
X168100000Y-99100000D01*
%TO.N,Net-(D11-DOUT)*%
X163300000Y-100350000D02*
X163350000Y-100400000D01*
X163350000Y-100400000D02*
X163350000Y-102250000D01*
%TO.N,/RXD*%
X122408000Y-87851000D02*
X120567000Y-86010000D01*
X120567000Y-86010000D02*
X119555500Y-86010000D01*
%TO.N,/TXD*%
X122297000Y-85200000D02*
X119565500Y-85200000D01*
X119565500Y-85200000D02*
X119555500Y-85210000D01*
X122408000Y-85311000D02*
X122297000Y-85200000D01*
D52*
%TO.N,+BATT*%
X131248000Y-90901000D02*
X130748000Y-90401000D01*
X119197500Y-97125000D02*
X110822500Y-97125000D01*
D49*
X130898000Y-85758500D02*
X130898000Y-88601000D01*
D52*
X106514239Y-98030000D02*
X105444239Y-99100000D01*
D49*
X130898000Y-88601000D02*
X131248000Y-88951000D01*
X130840500Y-85701000D02*
X130898000Y-85758500D01*
D52*
X119747000Y-96575500D02*
X119197500Y-97125000D01*
X105444239Y-99100000D02*
X102775884Y-99100000D01*
X109917500Y-98030000D02*
X106514239Y-98030000D01*
X130748000Y-90401000D02*
X128008884Y-90401000D01*
X110822500Y-97125000D02*
X109917500Y-98030000D01*
D49*
%TO.N,Net-(C38-Pad2)*%
X97682500Y-84145000D02*
X97682500Y-83475000D01*
X97682500Y-83475000D02*
X97867500Y-83290000D01*
X99457500Y-83290000D02*
X99472500Y-83275000D01*
X97867500Y-83290000D02*
X99457500Y-83290000D01*
X97682500Y-80015000D02*
X97747500Y-79950000D01*
X97682500Y-84145000D02*
X97682500Y-80015000D01*
%TO.N,/Mic_Signal*%
X113655500Y-91296599D02*
X113655500Y-90910000D01*
X113001607Y-91950492D02*
X113655500Y-91296599D01*
X97517500Y-91350000D02*
X97247500Y-91080000D01*
X98777500Y-91350000D02*
X97517500Y-91350000D01*
%TO.N,VBUS*%
X99612071Y-98187500D02*
X104725000Y-98187500D01*
D52*
X87883384Y-99150000D02*
X88063384Y-98970000D01*
X129673000Y-94176000D02*
X129798000Y-94301000D01*
X86600000Y-98800000D02*
X85410000Y-98800000D01*
X92772500Y-98200000D02*
X88750000Y-98200000D01*
X88150000Y-98800000D02*
X88630000Y-98320000D01*
D49*
X88855000Y-96710000D02*
X88458384Y-97106616D01*
D52*
X128008884Y-94176000D02*
X129673000Y-94176000D01*
X87883384Y-99150000D02*
X87533384Y-98800000D01*
X111561466Y-98077582D02*
X111914048Y-97725000D01*
X87533384Y-98800000D02*
X86600000Y-98800000D01*
X88750000Y-98200000D02*
X87900000Y-99050000D01*
X86600000Y-98800000D02*
X88150000Y-98800000D01*
D49*
X87883384Y-99150000D02*
X87883384Y-99045000D01*
X99599571Y-98200000D02*
X99612071Y-98187500D01*
D52*
X111914048Y-97725000D02*
X120042500Y-97725000D01*
X120042500Y-97725000D02*
X123591500Y-94176000D01*
D49*
X88458384Y-97106616D02*
X88458384Y-98491616D01*
D52*
X131248000Y-95071000D02*
X131248000Y-93176000D01*
X123591500Y-94176000D02*
X128008884Y-94176000D01*
D49*
X87883384Y-99150000D02*
X87883384Y-99025000D01*
%TO.N,Net-(C39-Pad1)*%
X99472500Y-87670000D02*
X99467500Y-87675000D01*
X99472500Y-85012500D02*
X99472500Y-87670000D01*
%TO.N,Net-(U4-PROG)*%
X137498000Y-92878500D02*
X139498000Y-92878500D01*
X133148000Y-93176000D02*
X133683000Y-93711000D01*
X136665500Y-93711000D02*
X137498000Y-92878500D01*
X133683000Y-93711000D02*
X136665500Y-93711000D01*
%TO.N,/LEDs+2*%
X116055500Y-91208000D02*
X116055500Y-90910000D01*
X121553738Y-91645000D02*
X116492500Y-91645000D01*
X121827047Y-91371691D02*
X121553738Y-91645000D01*
X116492500Y-91645000D02*
X116055500Y-91208000D01*
%TO.N,/LEDs+4*%
X122546673Y-92096191D02*
X116143691Y-92096191D01*
X115255500Y-91208000D02*
X115255500Y-90910000D01*
X116143691Y-92096191D02*
X115255500Y-91208000D01*
%TO.N,Net-(U1-GPIO8)*%
X114900678Y-92514173D02*
X114900678Y-92850678D01*
X114900678Y-92850678D02*
X115637500Y-93587500D01*
X116881143Y-89880799D02*
X116881143Y-90884357D01*
X116881143Y-90884357D02*
X116855500Y-90910000D01*
%TO.N,/DP_W*%
X99502500Y-89610000D02*
X99467500Y-89575000D01*
X97629877Y-86457779D02*
X98075279Y-86457779D01*
X95792098Y-87494500D02*
X95142500Y-88144098D01*
X104847500Y-90880000D02*
X103577500Y-89610000D01*
X105087500Y-91120000D02*
X105087500Y-92691751D01*
X103577500Y-89610000D02*
X99502500Y-89610000D01*
X98417500Y-86800000D02*
X98417500Y-88525000D01*
X98417500Y-88525000D02*
X99467500Y-89575000D01*
X95142500Y-88144098D02*
X95142500Y-89095000D01*
X104847500Y-90880000D02*
X105087500Y-91120000D01*
X98075279Y-86457779D02*
X98417500Y-86800000D01*
X105087500Y-92691751D02*
X103799251Y-93980000D01*
X103799251Y-93980000D02*
X103422500Y-93980000D01*
%TO.N,/DP_A*%
X96412500Y-88021204D02*
X96412500Y-89952500D01*
X96412500Y-89952500D02*
X95247500Y-91117500D01*
X96778615Y-87655089D02*
X96412500Y-88021204D01*
X101717500Y-92830000D02*
X101757500Y-92790000D01*
X102947500Y-90880000D02*
X102947500Y-92235000D01*
X102947500Y-92235000D02*
X103422500Y-92710000D01*
X109676049Y-90889451D02*
X109655500Y-90910000D01*
X102807500Y-90740000D02*
X102947500Y-90880000D01*
X99867500Y-90740000D02*
X102807500Y-90740000D01*
X109676049Y-89924500D02*
X109676049Y-90889451D01*
X101757500Y-92790000D02*
X103342500Y-92790000D01*
X103342500Y-92790000D02*
X103422500Y-92710000D01*
%TO.N,Net-(D13-DOUT)*%
X173350000Y-100400000D02*
X173350000Y-102250000D01*
X173300000Y-100350000D02*
X173350000Y-100400000D01*
%TO.N,Net-(D14-DOUT)*%
X186347500Y-99100000D02*
X188100000Y-99100000D01*
X188100000Y-99100000D02*
X188250000Y-98950000D01*
%TO.N,Net-(D15-DOUT)*%
X183350000Y-100400000D02*
X183350000Y-102250000D01*
X183300000Y-100350000D02*
X183350000Y-100400000D01*
%TO.N,Net-(D17-DOUT)*%
X193350000Y-100400000D02*
X193350000Y-102250000D01*
X193300000Y-100350000D02*
X193350000Y-100400000D01*
%TO.N,Net-(D18-DOUT)*%
X206347500Y-99100000D02*
X208100000Y-99100000D01*
X208100000Y-99100000D02*
X208250000Y-98950000D01*
%TO.N,Net-(D19-DOUT)*%
X203350000Y-100400000D02*
X203350000Y-102250000D01*
X203300000Y-100350000D02*
X203350000Y-100400000D01*
%TO.N,Net-(D6-DOUT)*%
X146397500Y-99100000D02*
X148100000Y-99100000D01*
X148100000Y-99100000D02*
X148250000Y-98950000D01*
%TO.N,Net-(D8-DOUT)*%
X156347500Y-99100000D02*
X158100000Y-99100000D01*
X158100000Y-99100000D02*
X158250000Y-98950000D01*
%TO.N,Net-(D12-DOUT)*%
X176297500Y-99100000D02*
X178100000Y-99100000D01*
X178100000Y-99100000D02*
X178250000Y-98950000D01*
%TO.N,Net-(D16-DOUT)*%
X198100000Y-99100000D02*
X198250000Y-98950000D01*
X196347500Y-99100000D02*
X198100000Y-99100000D01*
%TO.N,Net-(D20-DOUT)*%
X218100000Y-99100000D02*
X218250000Y-98950000D01*
X216297500Y-99100000D02*
X218100000Y-99100000D01*
%TO.N,Net-(SW1-B)*%
X92810000Y-103400000D02*
X92810000Y-102350000D01*
%TO.N,Net-(U1-GPIO2{slash}ADC1_CH2)*%
X107755500Y-85210000D02*
X107250000Y-85210000D01*
X107250000Y-85210000D02*
X105760000Y-86700000D01*
%TO.N,Net-(D21-DOUT)*%
X213300000Y-100350000D02*
X213350000Y-100400000D01*
X213350000Y-100400000D02*
X213350000Y-102250000D01*
%TO.N,Net-(D22-DOUT)*%
X228100000Y-99100000D02*
X228250000Y-98950000D01*
X226347500Y-99100000D02*
X228100000Y-99100000D01*
%TO.N,Net-(D23-DOUT)*%
X223300000Y-100350000D02*
X223350000Y-100400000D01*
X223350000Y-100400000D02*
X223350000Y-102250000D01*
%TO.N,/LEDs+8*%
X114847500Y-91700000D02*
X114455500Y-91308000D01*
X122582170Y-93156287D02*
X121972074Y-92546191D01*
X121972074Y-92546191D02*
X115957295Y-92546191D01*
X115957295Y-92546191D02*
X115111104Y-91700000D01*
X114455500Y-91308000D02*
X114455500Y-90910000D01*
X115111104Y-91700000D02*
X114847500Y-91700000D01*
%TO.N,/Batt_Level*%
X118198120Y-87419103D02*
X118198120Y-87517380D01*
X129866750Y-84651000D02*
X131623000Y-84651000D01*
X116515500Y-89200000D02*
X109247500Y-89200000D01*
X108855500Y-89592000D02*
X108855500Y-90910000D01*
X128608884Y-85908866D02*
X129866750Y-84651000D01*
X131623000Y-84651000D02*
X132410500Y-85438500D01*
X128608884Y-87470969D02*
X128608884Y-85908866D01*
X132410500Y-85438500D02*
X132410500Y-85701000D01*
X118198120Y-87517380D02*
X116515500Y-89200000D01*
X109247500Y-89200000D02*
X108855500Y-89592000D01*
%TO.N,Net-(D26-K)*%
X86193185Y-95974500D02*
X86928685Y-96710000D01*
X86928685Y-96710000D02*
X87280000Y-96710000D01*
%TO.N,Net-(U4-STAT)*%
X89648500Y-97376223D02*
X91543723Y-97376223D01*
X135198000Y-92701000D02*
X133398000Y-90901000D01*
X91543723Y-97376223D02*
X91547500Y-97380000D01*
X133398000Y-90901000D02*
X133148000Y-90901000D01*
%TO.N,Net-(C41-Pad2)*%
X97210000Y-92942500D02*
X97247500Y-92980000D01*
X95247500Y-92942500D02*
X97210000Y-92942500D01*
D52*
%TO.N,Net-(D25-K)*%
X89350000Y-100450000D02*
X90747500Y-100450000D01*
X92810000Y-100450000D02*
X90747500Y-100450000D01*
X87883384Y-102450000D02*
X87883384Y-101916616D01*
D49*
X92808384Y-99500000D02*
X92810000Y-99501616D01*
D52*
X98807500Y-99560000D02*
X99297500Y-100050000D01*
X92810000Y-99501616D02*
X92810000Y-100450000D01*
X99297500Y-100050000D02*
X100900884Y-100050000D01*
X87883384Y-101916616D02*
X89350000Y-100450000D01*
D49*
%TO.N,Net-(D27-A)*%
X85778384Y-95040000D02*
X85988384Y-95250000D01*
X85988384Y-95250000D02*
X87090000Y-95250000D01*
X87090000Y-95250000D02*
X87100000Y-95240000D01*
%TO.N,/MOSI*%
X112055500Y-91192000D02*
X109267500Y-93980000D01*
X112055500Y-90910000D02*
X112055500Y-91192000D01*
X109267500Y-93980000D02*
X108372500Y-93980000D01*
%TO.N,/CS*%
X110227500Y-95390000D02*
X109097500Y-96520000D01*
X117583799Y-89156299D02*
X117615098Y-89125000D01*
X119470500Y-89125000D02*
X119555500Y-89210000D01*
X117615098Y-89125000D02*
X119470500Y-89125000D01*
X109097500Y-96520000D02*
X108372500Y-96520000D01*
%TO.N,/CLK*%
X118387500Y-88400500D02*
X118397000Y-88410000D01*
X109262000Y-95250000D02*
X108372500Y-95250000D01*
X110137500Y-94374500D02*
X109262000Y-95250000D01*
X118397000Y-88410000D02*
X119555500Y-88410000D01*
%TD*%
%TA.AperFunction,Conductor*%
%TO.N,GND*%
G36*
X132478770Y-93927359D02*
G01*
X132510535Y-93956749D01*
X132605077Y-94081422D01*
X132725656Y-94172860D01*
X132725657Y-94172860D01*
X132725658Y-94172861D01*
X132866436Y-94228377D01*
X132954898Y-94239000D01*
X132954903Y-94239000D01*
X133341097Y-94239000D01*
X133341102Y-94239000D01*
X133429564Y-94228377D01*
X133450555Y-94220098D01*
X133520141Y-94213816D01*
X133541537Y-94220099D01*
X133557411Y-94226359D01*
X133563067Y-94226940D01*
X133573968Y-94228061D01*
X133594746Y-94232009D01*
X133610772Y-94236500D01*
X133652880Y-94236500D01*
X133659221Y-94236824D01*
X133701110Y-94241131D01*
X133717514Y-94238302D01*
X133738580Y-94236500D01*
X135429215Y-94236500D01*
X135496254Y-94256185D01*
X135542009Y-94308989D01*
X135553215Y-94360500D01*
X135553215Y-95683210D01*
X135533530Y-95750249D01*
X135480726Y-95796004D01*
X135428752Y-95807209D01*
X132326752Y-95795634D01*
X132259787Y-95775700D01*
X132214229Y-95722725D01*
X132203215Y-95671635D01*
X132203215Y-94031674D01*
X132222900Y-93964635D01*
X132275704Y-93918880D01*
X132327215Y-93907674D01*
X132411731Y-93907674D01*
X132478770Y-93927359D01*
G37*
%TD.AperFunction*%
%TD*%
%TA.AperFunction,Conductor*%
%TO.N,GND*%
G36*
X134891039Y-87020685D02*
G01*
X134936794Y-87073489D01*
X134948000Y-87125000D01*
X134948000Y-89626390D01*
X134928315Y-89693429D01*
X134875511Y-89739184D01*
X134823392Y-89750389D01*
X132521392Y-89739104D01*
X132454450Y-89719091D01*
X132408954Y-89666063D01*
X132398000Y-89615105D01*
X132398000Y-87125000D01*
X132417685Y-87057961D01*
X132470489Y-87012206D01*
X132522000Y-87001000D01*
X134824000Y-87001000D01*
X134891039Y-87020685D01*
G37*
%TD.AperFunction*%
%TD*%
%TA.AperFunction,Conductor*%
%TO.N,+3.3V*%
G36*
X229951109Y-96600944D02*
G01*
X229989828Y-96606012D01*
X230060378Y-96615246D01*
X230091664Y-96623605D01*
X230182163Y-96661024D01*
X230210221Y-96677203D01*
X230287944Y-96736782D01*
X230310855Y-96759674D01*
X230370495Y-96837343D01*
X230386695Y-96865384D01*
X230424192Y-96955854D01*
X230432578Y-96987134D01*
X230446968Y-97096382D01*
X230447500Y-97104488D01*
X230447500Y-99896353D01*
X230446970Y-99904440D01*
X230443902Y-99927762D01*
X230432609Y-100013582D01*
X230424240Y-100044834D01*
X230386822Y-100135222D01*
X230370653Y-100163245D01*
X230311128Y-100240875D01*
X230288261Y-100263762D01*
X230274146Y-100274604D01*
X230234583Y-100304993D01*
X230210681Y-100323352D01*
X230182670Y-100339544D01*
X230092316Y-100377036D01*
X230061072Y-100385432D01*
X229951947Y-100399883D01*
X229943860Y-100400420D01*
X224222701Y-100405203D01*
X224155646Y-100385575D01*
X224109847Y-100332810D01*
X224099378Y-100295087D01*
X224085369Y-100170750D01*
X224085368Y-100170745D01*
X224080740Y-100157519D01*
X224025789Y-100000478D01*
X223929816Y-99847738D01*
X223802262Y-99720184D01*
X223802262Y-99720183D01*
X223649523Y-99624211D01*
X223479254Y-99564631D01*
X223479249Y-99564630D01*
X223300004Y-99544435D01*
X223299996Y-99544435D01*
X223120750Y-99564630D01*
X223120745Y-99564631D01*
X222950476Y-99624211D01*
X222797737Y-99720184D01*
X222670184Y-99847737D01*
X222574211Y-100000476D01*
X222514631Y-100170745D01*
X222514630Y-100170749D01*
X222500447Y-100296631D01*
X222473380Y-100361045D01*
X222415785Y-100400600D01*
X222377331Y-100406746D01*
X222225255Y-100406874D01*
X221142393Y-100407779D01*
X221075337Y-100388150D01*
X221029538Y-100335385D01*
X221019536Y-100266235D01*
X221048508Y-100202655D01*
X221054609Y-100196097D01*
X221090001Y-100160705D01*
X221090005Y-100160701D01*
X221127485Y-100087141D01*
X221139087Y-100074856D01*
X221139965Y-100070501D01*
X221139395Y-100070411D01*
X221154944Y-99972238D01*
X221164965Y-99951096D01*
X221156565Y-99936128D01*
X221154949Y-99927795D01*
X221140921Y-99839228D01*
X221140920Y-99839227D01*
X221139394Y-99829588D01*
X221139964Y-99829497D01*
X221139666Y-99828017D01*
X221132142Y-99821190D01*
X221127482Y-99812853D01*
X221121188Y-99800500D01*
X221090005Y-99739299D01*
X221090002Y-99739296D01*
X221090000Y-99739293D01*
X221010706Y-99659999D01*
X221010702Y-99659996D01*
X221010701Y-99659995D01*
X220968214Y-99638347D01*
X220910769Y-99609077D01*
X220800002Y-99591534D01*
X220799998Y-99591534D01*
X220689230Y-99609077D01*
X220589300Y-99659994D01*
X220589293Y-99659999D01*
X220509999Y-99739293D01*
X220509996Y-99739298D01*
X220509995Y-99739299D01*
X220486381Y-99785645D01*
X220472516Y-99812856D01*
X220460913Y-99825140D01*
X220460038Y-99829500D01*
X220460605Y-99829590D01*
X220445055Y-99927762D01*
X220435033Y-99948901D01*
X220443433Y-99963868D01*
X220445055Y-99972235D01*
X220460605Y-100070410D01*
X220460036Y-100070499D01*
X220460333Y-100071978D01*
X220467853Y-100078801D01*
X220472511Y-100087134D01*
X220485624Y-100112869D01*
X220509994Y-100160699D01*
X220509999Y-100160706D01*
X220545963Y-100196670D01*
X220579448Y-100257993D01*
X220574464Y-100327685D01*
X220532592Y-100383618D01*
X220467128Y-100408035D01*
X220458386Y-100408351D01*
X217948084Y-100410450D01*
X214223641Y-100413564D01*
X214156588Y-100393936D01*
X214110789Y-100341171D01*
X214100320Y-100303448D01*
X214085369Y-100170750D01*
X214085368Y-100170745D01*
X214080740Y-100157519D01*
X214025789Y-100000478D01*
X213929816Y-99847738D01*
X213802262Y-99720184D01*
X213802262Y-99720183D01*
X213649523Y-99624211D01*
X213479254Y-99564631D01*
X213479249Y-99564630D01*
X213300004Y-99544435D01*
X213299996Y-99544435D01*
X213120750Y-99564630D01*
X213120745Y-99564631D01*
X212950476Y-99624211D01*
X212797737Y-99720184D01*
X212670184Y-99847737D01*
X212574211Y-100000476D01*
X212514631Y-100170745D01*
X212514630Y-100170749D01*
X212499505Y-100304993D01*
X212472438Y-100369407D01*
X212414843Y-100408962D01*
X212376389Y-100415108D01*
X211134022Y-100416147D01*
X211066968Y-100396519D01*
X211021169Y-100343754D01*
X211011167Y-100274604D01*
X211040139Y-100211024D01*
X211046240Y-100204466D01*
X211090001Y-100160705D01*
X211090005Y-100160701D01*
X211127485Y-100087141D01*
X211139087Y-100074856D01*
X211139965Y-100070501D01*
X211139395Y-100070411D01*
X211154944Y-99972238D01*
X211164965Y-99951096D01*
X211156565Y-99936128D01*
X211154949Y-99927795D01*
X211140921Y-99839228D01*
X211140920Y-99839227D01*
X211139394Y-99829588D01*
X211139964Y-99829497D01*
X211139666Y-99828017D01*
X211132142Y-99821190D01*
X211127482Y-99812853D01*
X211121188Y-99800500D01*
X211090005Y-99739299D01*
X211090002Y-99739296D01*
X211090000Y-99739293D01*
X211010706Y-99659999D01*
X211010702Y-99659996D01*
X211010701Y-99659995D01*
X210968214Y-99638347D01*
X210910769Y-99609077D01*
X210800002Y-99591534D01*
X210799998Y-99591534D01*
X210689230Y-99609077D01*
X210589300Y-99659994D01*
X210589293Y-99659999D01*
X210509999Y-99739293D01*
X210509996Y-99739298D01*
X210509995Y-99739299D01*
X210486381Y-99785645D01*
X210472516Y-99812856D01*
X210460913Y-99825140D01*
X210460038Y-99829500D01*
X210460605Y-99829590D01*
X210445055Y-99927762D01*
X210435033Y-99948901D01*
X210443433Y-99963868D01*
X210445055Y-99972235D01*
X210460605Y-100070410D01*
X210460036Y-100070499D01*
X210460333Y-100071978D01*
X210467853Y-100078801D01*
X210472511Y-100087134D01*
X210485624Y-100112869D01*
X210509994Y-100160699D01*
X210509999Y-100160706D01*
X210554318Y-100205025D01*
X210587803Y-100266348D01*
X210582819Y-100336040D01*
X210540947Y-100391973D01*
X210475483Y-100416390D01*
X210466751Y-100416705D01*
X204224585Y-100421924D01*
X204157530Y-100402296D01*
X204111731Y-100349531D01*
X204101262Y-100311808D01*
X204085369Y-100170750D01*
X204085368Y-100170745D01*
X204080740Y-100157519D01*
X204025789Y-100000478D01*
X203929816Y-99847738D01*
X203802262Y-99720184D01*
X203802262Y-99720183D01*
X203649523Y-99624211D01*
X203479254Y-99564631D01*
X203479249Y-99564630D01*
X203300004Y-99544435D01*
X203299996Y-99544435D01*
X203120750Y-99564630D01*
X203120745Y-99564631D01*
X202950476Y-99624211D01*
X202797737Y-99720184D01*
X202670184Y-99847737D01*
X202574211Y-100000476D01*
X202514631Y-100170745D01*
X202514630Y-100170749D01*
X202498563Y-100313355D01*
X202471496Y-100377769D01*
X202413902Y-100417324D01*
X202375447Y-100423470D01*
X201125655Y-100424515D01*
X201058600Y-100404887D01*
X201012801Y-100352122D01*
X201002799Y-100282972D01*
X201031771Y-100219392D01*
X201037872Y-100212834D01*
X201054609Y-100196097D01*
X201090005Y-100160701D01*
X201127485Y-100087141D01*
X201139087Y-100074856D01*
X201139965Y-100070501D01*
X201139395Y-100070411D01*
X201154944Y-99972238D01*
X201164965Y-99951096D01*
X201156565Y-99936128D01*
X201154949Y-99927795D01*
X201140921Y-99839228D01*
X201140920Y-99839227D01*
X201139394Y-99829588D01*
X201139964Y-99829497D01*
X201139666Y-99828017D01*
X201132142Y-99821190D01*
X201127482Y-99812853D01*
X201121188Y-99800500D01*
X201090005Y-99739299D01*
X201090002Y-99739296D01*
X201090000Y-99739293D01*
X201010706Y-99659999D01*
X201010702Y-99659996D01*
X201010701Y-99659995D01*
X200968214Y-99638347D01*
X200910769Y-99609077D01*
X200800002Y-99591534D01*
X200799998Y-99591534D01*
X200689230Y-99609077D01*
X200589300Y-99659994D01*
X200589293Y-99659999D01*
X200509999Y-99739293D01*
X200509996Y-99739298D01*
X200509995Y-99739299D01*
X200486381Y-99785645D01*
X200472516Y-99812856D01*
X200460913Y-99825140D01*
X200460038Y-99829500D01*
X200460605Y-99829590D01*
X200445055Y-99927762D01*
X200435033Y-99948901D01*
X200443433Y-99963868D01*
X200445055Y-99972235D01*
X200460605Y-100070410D01*
X200460036Y-100070499D01*
X200460333Y-100071978D01*
X200467853Y-100078801D01*
X200472511Y-100087134D01*
X200485624Y-100112869D01*
X200509994Y-100160699D01*
X200509999Y-100160706D01*
X200562672Y-100213379D01*
X200596157Y-100274702D01*
X200591173Y-100344394D01*
X200549301Y-100400327D01*
X200483837Y-100424744D01*
X200475098Y-100425059D01*
X194225525Y-100430285D01*
X194158472Y-100410657D01*
X194112673Y-100357892D01*
X194102204Y-100320169D01*
X194085369Y-100170750D01*
X194085368Y-100170745D01*
X194080740Y-100157519D01*
X194025789Y-100000478D01*
X193929816Y-99847738D01*
X193802262Y-99720184D01*
X193802261Y-99720183D01*
X193649523Y-99624211D01*
X193479254Y-99564631D01*
X193479249Y-99564630D01*
X193300004Y-99544435D01*
X193299996Y-99544435D01*
X193120750Y-99564630D01*
X193120745Y-99564631D01*
X192950476Y-99624211D01*
X192797737Y-99720184D01*
X192670184Y-99847737D01*
X192574211Y-100000476D01*
X192514631Y-100170745D01*
X192514630Y-100170749D01*
X192497621Y-100321716D01*
X192470554Y-100386130D01*
X192412960Y-100425685D01*
X192374505Y-100431832D01*
X191117288Y-100432884D01*
X191050232Y-100413255D01*
X191004433Y-100360490D01*
X190994431Y-100291340D01*
X191023403Y-100227760D01*
X191029489Y-100221216D01*
X191090005Y-100160701D01*
X191127485Y-100087141D01*
X191139087Y-100074856D01*
X191139965Y-100070501D01*
X191139395Y-100070411D01*
X191154944Y-99972238D01*
X191164965Y-99951096D01*
X191156565Y-99936128D01*
X191154949Y-99927795D01*
X191140921Y-99839228D01*
X191140920Y-99839227D01*
X191139394Y-99829588D01*
X191139964Y-99829497D01*
X191139666Y-99828017D01*
X191132142Y-99821190D01*
X191127482Y-99812853D01*
X191121188Y-99800500D01*
X191090005Y-99739299D01*
X191090002Y-99739296D01*
X191090000Y-99739293D01*
X191010706Y-99659999D01*
X191010702Y-99659996D01*
X191010701Y-99659995D01*
X190968214Y-99638347D01*
X190910769Y-99609077D01*
X190800002Y-99591534D01*
X190799998Y-99591534D01*
X190689230Y-99609077D01*
X190589300Y-99659994D01*
X190589293Y-99659999D01*
X190509999Y-99739293D01*
X190509996Y-99739298D01*
X190509995Y-99739299D01*
X190486381Y-99785645D01*
X190472516Y-99812856D01*
X190460913Y-99825140D01*
X190460038Y-99829500D01*
X190460605Y-99829590D01*
X190445055Y-99927762D01*
X190435033Y-99948901D01*
X190443433Y-99963868D01*
X190445055Y-99972235D01*
X190460605Y-100070410D01*
X190460036Y-100070499D01*
X190460333Y-100071978D01*
X190467853Y-100078801D01*
X190472511Y-100087134D01*
X190485624Y-100112869D01*
X190509994Y-100160699D01*
X190509999Y-100160706D01*
X190571026Y-100221733D01*
X190604511Y-100283056D01*
X190599527Y-100352748D01*
X190557655Y-100408681D01*
X190492191Y-100433098D01*
X190483449Y-100433414D01*
X189131884Y-100434544D01*
X184226468Y-100438645D01*
X184159414Y-100419017D01*
X184113615Y-100366252D01*
X184103146Y-100328529D01*
X184085369Y-100170750D01*
X184085368Y-100170745D01*
X184080740Y-100157519D01*
X184025789Y-100000478D01*
X183929816Y-99847738D01*
X183802262Y-99720184D01*
X183802261Y-99720184D01*
X183649523Y-99624211D01*
X183479254Y-99564631D01*
X183479249Y-99564630D01*
X183300004Y-99544435D01*
X183299996Y-99544435D01*
X183120750Y-99564630D01*
X183120745Y-99564631D01*
X182950476Y-99624211D01*
X182797737Y-99720184D01*
X182670184Y-99847737D01*
X182574211Y-100000476D01*
X182514631Y-100170745D01*
X182514630Y-100170750D01*
X182496679Y-100330078D01*
X182469613Y-100394492D01*
X182412018Y-100434048D01*
X182373563Y-100440194D01*
X182171091Y-100440364D01*
X181108920Y-100441252D01*
X181041864Y-100421623D01*
X180996065Y-100368858D01*
X180986063Y-100299708D01*
X181015035Y-100236128D01*
X181021121Y-100229584D01*
X181090005Y-100160701D01*
X181127485Y-100087141D01*
X181139087Y-100074856D01*
X181139965Y-100070501D01*
X181139395Y-100070411D01*
X181154944Y-99972238D01*
X181164965Y-99951096D01*
X181156565Y-99936128D01*
X181154949Y-99927795D01*
X181140921Y-99839228D01*
X181140920Y-99839227D01*
X181139394Y-99829588D01*
X181139964Y-99829497D01*
X181139666Y-99828017D01*
X181132142Y-99821190D01*
X181127482Y-99812853D01*
X181121188Y-99800500D01*
X181090005Y-99739299D01*
X181090002Y-99739296D01*
X181090000Y-99739293D01*
X181010706Y-99659999D01*
X181010702Y-99659996D01*
X181010701Y-99659995D01*
X180968214Y-99638347D01*
X180910769Y-99609077D01*
X180800002Y-99591534D01*
X180799998Y-99591534D01*
X180689230Y-99609077D01*
X180589300Y-99659994D01*
X180589293Y-99659999D01*
X180509999Y-99739293D01*
X180509996Y-99739298D01*
X180509995Y-99739299D01*
X180486381Y-99785645D01*
X180472516Y-99812856D01*
X180460913Y-99825140D01*
X180460038Y-99829500D01*
X180460605Y-99829590D01*
X180445055Y-99927762D01*
X180435033Y-99948901D01*
X180443433Y-99963868D01*
X180445055Y-99972235D01*
X180460605Y-100070410D01*
X180460036Y-100070499D01*
X180460333Y-100071978D01*
X180467853Y-100078801D01*
X180472511Y-100087134D01*
X180485624Y-100112869D01*
X180509994Y-100160699D01*
X180509999Y-100160706D01*
X180579380Y-100230087D01*
X180612865Y-100291410D01*
X180607881Y-100361102D01*
X180566009Y-100417035D01*
X180500545Y-100441452D01*
X180491803Y-100441768D01*
X174227412Y-100447006D01*
X174160356Y-100427377D01*
X174114557Y-100374612D01*
X174104088Y-100336889D01*
X174085369Y-100170750D01*
X174085368Y-100170745D01*
X174080740Y-100157519D01*
X174025789Y-100000478D01*
X173929816Y-99847738D01*
X173802262Y-99720184D01*
X173649523Y-99624211D01*
X173479254Y-99564631D01*
X173479249Y-99564630D01*
X173300004Y-99544435D01*
X173299996Y-99544435D01*
X173120750Y-99564630D01*
X173120745Y-99564631D01*
X172950476Y-99624211D01*
X172797737Y-99720184D01*
X172670184Y-99847737D01*
X172574211Y-100000476D01*
X172514631Y-100170745D01*
X172514630Y-100170750D01*
X172495737Y-100338440D01*
X172468671Y-100402854D01*
X172411076Y-100442410D01*
X172372621Y-100448556D01*
X172242317Y-100448665D01*
X171100552Y-100449620D01*
X171033496Y-100429991D01*
X170987697Y-100377226D01*
X170977695Y-100308076D01*
X171006667Y-100244496D01*
X171012753Y-100237952D01*
X171090005Y-100160701D01*
X171127485Y-100087141D01*
X171139087Y-100074856D01*
X171139965Y-100070501D01*
X171139395Y-100070411D01*
X171154944Y-99972238D01*
X171164965Y-99951096D01*
X171156565Y-99936128D01*
X171154949Y-99927795D01*
X171140921Y-99839228D01*
X171140920Y-99839227D01*
X171139394Y-99829588D01*
X171139964Y-99829497D01*
X171139666Y-99828017D01*
X171132142Y-99821190D01*
X171127482Y-99812853D01*
X171121188Y-99800500D01*
X171090005Y-99739299D01*
X171090002Y-99739296D01*
X171090000Y-99739293D01*
X171010706Y-99659999D01*
X171010702Y-99659996D01*
X171010701Y-99659995D01*
X170968214Y-99638347D01*
X170910769Y-99609077D01*
X170800002Y-99591534D01*
X170799998Y-99591534D01*
X170689230Y-99609077D01*
X170589300Y-99659994D01*
X170589293Y-99659999D01*
X170509999Y-99739293D01*
X170509996Y-99739298D01*
X170509995Y-99739299D01*
X170486381Y-99785645D01*
X170472516Y-99812856D01*
X170460913Y-99825140D01*
X170460038Y-99829500D01*
X170460605Y-99829590D01*
X170445055Y-99927762D01*
X170435033Y-99948901D01*
X170443433Y-99963868D01*
X170445055Y-99972235D01*
X170460605Y-100070410D01*
X170460036Y-100070499D01*
X170460333Y-100071978D01*
X170467853Y-100078801D01*
X170472511Y-100087134D01*
X170485624Y-100112869D01*
X170509994Y-100160699D01*
X170509999Y-100160706D01*
X170587734Y-100238441D01*
X170621219Y-100299764D01*
X170616235Y-100369456D01*
X170574363Y-100425389D01*
X170508899Y-100449806D01*
X170500157Y-100450122D01*
X167118916Y-100452949D01*
X164228352Y-100455366D01*
X164161298Y-100435738D01*
X164115499Y-100382973D01*
X164105030Y-100345250D01*
X164085369Y-100170750D01*
X164085368Y-100170745D01*
X164080740Y-100157519D01*
X164025789Y-100000478D01*
X163929816Y-99847738D01*
X163802262Y-99720184D01*
X163649523Y-99624211D01*
X163479254Y-99564631D01*
X163479249Y-99564630D01*
X163300004Y-99544435D01*
X163299996Y-99544435D01*
X163120750Y-99564630D01*
X163120745Y-99564631D01*
X162950476Y-99624211D01*
X162797737Y-99720184D01*
X162670184Y-99847737D01*
X162574211Y-100000476D01*
X162514631Y-100170745D01*
X162514630Y-100170749D01*
X162494794Y-100346803D01*
X162467727Y-100411217D01*
X162410132Y-100450772D01*
X162371678Y-100456918D01*
X161092181Y-100457988D01*
X161025126Y-100438360D01*
X160979327Y-100385595D01*
X160969325Y-100316445D01*
X160998297Y-100252865D01*
X161004397Y-100246307D01*
X161010697Y-100240006D01*
X161010700Y-100240005D01*
X161090004Y-100160701D01*
X161127484Y-100087141D01*
X161139086Y-100074856D01*
X161139964Y-100070501D01*
X161139394Y-100070411D01*
X161154943Y-99972238D01*
X161164964Y-99951096D01*
X161156564Y-99936128D01*
X161154948Y-99927795D01*
X161140920Y-99839228D01*
X161140919Y-99839227D01*
X161139393Y-99829588D01*
X161139963Y-99829497D01*
X161139665Y-99828017D01*
X161132141Y-99821190D01*
X161127481Y-99812853D01*
X161121187Y-99800500D01*
X161090004Y-99739299D01*
X161090001Y-99739296D01*
X161089999Y-99739293D01*
X161010705Y-99659999D01*
X161010701Y-99659996D01*
X161010700Y-99659995D01*
X160968213Y-99638347D01*
X160910768Y-99609077D01*
X160800001Y-99591534D01*
X160799997Y-99591534D01*
X160689229Y-99609077D01*
X160589299Y-99659994D01*
X160589292Y-99659999D01*
X160509998Y-99739293D01*
X160509995Y-99739298D01*
X160509994Y-99739299D01*
X160486380Y-99785645D01*
X160472515Y-99812856D01*
X160460912Y-99825140D01*
X160460037Y-99829500D01*
X160460604Y-99829590D01*
X160445054Y-99927762D01*
X160435032Y-99948901D01*
X160443432Y-99963868D01*
X160445054Y-99972235D01*
X160460604Y-100070410D01*
X160460035Y-100070499D01*
X160460332Y-100071978D01*
X160467852Y-100078801D01*
X160472510Y-100087134D01*
X160485623Y-100112869D01*
X160509993Y-100160699D01*
X160509998Y-100160706D01*
X160596088Y-100246796D01*
X160629573Y-100308119D01*
X160624589Y-100377811D01*
X160582717Y-100433744D01*
X160517253Y-100458161D01*
X160508517Y-100458476D01*
X154229295Y-100463726D01*
X154162240Y-100444098D01*
X154116441Y-100391333D01*
X154105972Y-100353610D01*
X154085369Y-100170750D01*
X154085368Y-100170745D01*
X154080740Y-100157519D01*
X154025789Y-100000478D01*
X153929816Y-99847738D01*
X153802262Y-99720184D01*
X153649523Y-99624211D01*
X153479254Y-99564631D01*
X153479249Y-99564630D01*
X153300004Y-99544435D01*
X153299996Y-99544435D01*
X153120750Y-99564630D01*
X153120745Y-99564631D01*
X152950476Y-99624211D01*
X152797737Y-99720184D01*
X152670184Y-99847737D01*
X152574211Y-100000476D01*
X152514631Y-100170745D01*
X152514630Y-100170749D01*
X152493852Y-100355165D01*
X152466785Y-100419579D01*
X152409190Y-100459134D01*
X152370736Y-100465280D01*
X148602754Y-100468431D01*
X148561700Y-100461474D01*
X148429257Y-100415130D01*
X148429249Y-100415128D01*
X148250004Y-100394933D01*
X148249996Y-100394933D01*
X148070746Y-100415129D01*
X148070745Y-100415129D01*
X147936609Y-100462064D01*
X147895760Y-100469022D01*
X144950300Y-100471485D01*
X144229668Y-100472087D01*
X144162613Y-100452459D01*
X144116814Y-100399694D01*
X144107462Y-100356793D01*
X144106345Y-100356919D01*
X144085369Y-100170750D01*
X144085368Y-100170745D01*
X144080740Y-100157519D01*
X144025789Y-100000478D01*
X143929816Y-99847738D01*
X143802262Y-99720184D01*
X143649523Y-99624211D01*
X143479254Y-99564631D01*
X143479249Y-99564630D01*
X143300004Y-99544435D01*
X143299996Y-99544435D01*
X143120750Y-99564630D01*
X143120745Y-99564631D01*
X142950476Y-99624211D01*
X142797737Y-99720184D01*
X142670184Y-99847737D01*
X142574211Y-100000476D01*
X142514631Y-100170745D01*
X142514630Y-100170750D01*
X142493655Y-100356919D01*
X142492341Y-100356771D01*
X142474750Y-100416682D01*
X142421946Y-100462437D01*
X142370542Y-100473642D01*
X138638860Y-100476762D01*
X138597805Y-100469804D01*
X138441561Y-100415131D01*
X138441548Y-100415128D01*
X138262303Y-100394933D01*
X138262295Y-100394933D01*
X138083049Y-100415128D01*
X138083036Y-100415131D01*
X137924990Y-100470435D01*
X137884141Y-100477393D01*
X134705395Y-100480051D01*
X134229669Y-100480449D01*
X134162613Y-100460820D01*
X134116814Y-100408055D01*
X134105565Y-100356449D01*
X134105565Y-100349997D01*
X134085369Y-100170750D01*
X134085368Y-100170745D01*
X134080740Y-100157519D01*
X134025789Y-100000478D01*
X133929816Y-99847738D01*
X133802262Y-99720184D01*
X133802261Y-99720184D01*
X133649523Y-99624211D01*
X133479254Y-99564631D01*
X133479249Y-99564630D01*
X133300004Y-99544435D01*
X133299996Y-99544435D01*
X133120750Y-99564630D01*
X133120745Y-99564631D01*
X132950476Y-99624211D01*
X132797737Y-99720184D01*
X132670184Y-99847737D01*
X132574211Y-100000476D01*
X132514631Y-100170745D01*
X132514630Y-100170750D01*
X132494435Y-100349996D01*
X132494435Y-100356964D01*
X132491524Y-100356964D01*
X132481714Y-100412948D01*
X132434362Y-100464325D01*
X132370656Y-100482003D01*
X130683789Y-100483413D01*
X128661812Y-100485104D01*
X128618974Y-100475345D01*
X128618393Y-100477008D01*
X128441561Y-100415131D01*
X128441548Y-100415128D01*
X128262303Y-100394933D01*
X128262295Y-100394933D01*
X128083049Y-100415128D01*
X128083036Y-100415131D01*
X127906205Y-100477008D01*
X127905740Y-100475681D01*
X127861602Y-100485773D01*
X125457598Y-100487783D01*
X124278789Y-100488769D01*
X124211733Y-100469140D01*
X124165934Y-100416375D01*
X124156439Y-100356964D01*
X124155565Y-100356964D01*
X124155565Y-100351495D01*
X124155466Y-100350876D01*
X124155565Y-100350000D01*
X124155512Y-100349531D01*
X124135369Y-100170750D01*
X124135368Y-100170745D01*
X124130740Y-100157519D01*
X124075789Y-100000478D01*
X123979816Y-99847738D01*
X123852262Y-99720184D01*
X123699523Y-99624211D01*
X123529254Y-99564631D01*
X123529249Y-99564630D01*
X123350004Y-99544435D01*
X123349996Y-99544435D01*
X123170750Y-99564630D01*
X123170745Y-99564631D01*
X123000476Y-99624211D01*
X122847737Y-99720184D01*
X122720184Y-99847737D01*
X122624211Y-100000476D01*
X122564631Y-100170745D01*
X122564630Y-100170750D01*
X122544435Y-100349996D01*
X122544435Y-100350003D01*
X122544710Y-100352445D01*
X122544434Y-100354014D01*
X122544435Y-100356963D01*
X122543918Y-100356963D01*
X122532652Y-100421266D01*
X122485300Y-100472643D01*
X122421593Y-100490322D01*
X122073615Y-100490613D01*
X118688456Y-100493443D01*
X118628761Y-100476270D01*
X118628298Y-100477233D01*
X118622646Y-100474511D01*
X118622377Y-100474434D01*
X118622021Y-100474210D01*
X118622018Y-100474209D01*
X118451762Y-100414633D01*
X118451749Y-100414630D01*
X118272504Y-100394435D01*
X118272496Y-100394435D01*
X118093250Y-100414630D01*
X118093237Y-100414633D01*
X117922986Y-100474207D01*
X117922965Y-100474217D01*
X117921492Y-100475143D01*
X117920373Y-100475465D01*
X117916708Y-100477231D01*
X117916408Y-100476609D01*
X117855641Y-100494139D01*
X114335804Y-100497082D01*
X114268748Y-100477453D01*
X114222949Y-100424688D01*
X114212480Y-100386965D01*
X114212323Y-100385575D01*
X114200763Y-100282972D01*
X114193753Y-100220750D01*
X114193752Y-100220745D01*
X114163826Y-100135222D01*
X114134173Y-100050478D01*
X114038200Y-99897738D01*
X113910646Y-99770184D01*
X113866557Y-99742481D01*
X113757907Y-99674211D01*
X113587638Y-99614631D01*
X113587633Y-99614630D01*
X113408388Y-99594435D01*
X113408380Y-99594435D01*
X113229134Y-99614630D01*
X113229129Y-99614631D01*
X113058860Y-99674211D01*
X112906121Y-99770184D01*
X112778568Y-99897737D01*
X112682595Y-100050476D01*
X112623015Y-100220745D01*
X112623014Y-100220749D01*
X112604112Y-100388518D01*
X112577046Y-100452932D01*
X112519451Y-100492487D01*
X112480998Y-100498633D01*
X111351984Y-100499577D01*
X111343889Y-100499054D01*
X111324889Y-100496567D01*
X111234621Y-100484753D01*
X111203331Y-100476393D01*
X111112836Y-100438975D01*
X111084778Y-100422796D01*
X111007055Y-100363217D01*
X110984144Y-100340325D01*
X110924504Y-100262656D01*
X110908305Y-100234617D01*
X110870805Y-100144140D01*
X110862422Y-100112869D01*
X110848030Y-100003610D01*
X110847500Y-99995511D01*
X110847500Y-98795056D01*
X110867185Y-98728017D01*
X110919989Y-98682262D01*
X110989147Y-98672318D01*
X111052703Y-98701343D01*
X111059181Y-98707375D01*
X111059204Y-98707398D01*
X111141486Y-98759099D01*
X111198710Y-98795056D01*
X111211944Y-98803371D01*
X111273765Y-98825003D01*
X111382211Y-98862950D01*
X111382216Y-98862951D01*
X111561462Y-98883147D01*
X111561466Y-98883147D01*
X111561470Y-98883147D01*
X111740715Y-98862951D01*
X111740718Y-98862950D01*
X111740721Y-98862950D01*
X111910988Y-98803371D01*
X112063728Y-98707398D01*
X112191282Y-98579844D01*
X112287255Y-98427104D01*
X112293749Y-98408543D01*
X112334470Y-98351770D01*
X112399423Y-98326022D01*
X112410790Y-98325500D01*
X114226928Y-98325500D01*
X114293967Y-98345185D01*
X114339722Y-98397989D01*
X114349666Y-98467147D01*
X114343970Y-98490454D01*
X114289632Y-98645742D01*
X114289630Y-98645750D01*
X114269435Y-98824996D01*
X114269435Y-98825003D01*
X114289630Y-99004249D01*
X114289631Y-99004254D01*
X114349211Y-99174523D01*
X114415019Y-99279255D01*
X114445184Y-99327262D01*
X114572738Y-99454816D01*
X114663080Y-99511581D01*
X114715365Y-99544435D01*
X114725478Y-99550789D01*
X114841921Y-99591534D01*
X114895745Y-99610368D01*
X114895750Y-99610369D01*
X115074996Y-99630565D01*
X115075000Y-99630565D01*
X115075004Y-99630565D01*
X115254249Y-99610369D01*
X115254252Y-99610368D01*
X115254255Y-99610368D01*
X115424522Y-99550789D01*
X115577262Y-99454816D01*
X115670260Y-99361817D01*
X115731584Y-99328334D01*
X115757941Y-99325500D01*
X116976803Y-99325500D01*
X117043842Y-99345185D01*
X117089597Y-99397989D01*
X117099277Y-99430103D01*
X117099501Y-99431517D01*
X117099501Y-99431518D01*
X117114354Y-99525304D01*
X117171950Y-99638342D01*
X117171952Y-99638344D01*
X117171954Y-99638347D01*
X117261652Y-99728045D01*
X117261654Y-99728046D01*
X117261658Y-99728050D01*
X117374694Y-99785645D01*
X117374698Y-99785647D01*
X117468475Y-99800499D01*
X117468481Y-99800500D01*
X119031518Y-99800499D01*
X119125304Y-99785646D01*
X119238342Y-99728050D01*
X119328050Y-99638342D01*
X119385646Y-99525304D01*
X119385646Y-99525302D01*
X119385647Y-99525301D01*
X119400499Y-99431524D01*
X119400500Y-99431519D01*
X119400500Y-99100003D01*
X125502819Y-99100003D01*
X125523014Y-99279249D01*
X125523015Y-99279254D01*
X125582595Y-99449523D01*
X125646225Y-99550789D01*
X125678568Y-99602262D01*
X125806122Y-99729816D01*
X125870367Y-99770184D01*
X125951542Y-99821190D01*
X125958862Y-99825789D01*
X126002050Y-99840901D01*
X126129129Y-99885368D01*
X126129134Y-99885369D01*
X126308380Y-99905565D01*
X126308384Y-99905565D01*
X126308388Y-99905565D01*
X126487633Y-99885369D01*
X126487636Y-99885368D01*
X126487639Y-99885368D01*
X126657906Y-99825789D01*
X126810646Y-99729816D01*
X126878642Y-99661819D01*
X126939966Y-99628334D01*
X126966324Y-99625500D01*
X127107746Y-99625500D01*
X127174785Y-99645185D01*
X127195422Y-99661814D01*
X127261658Y-99728050D01*
X127374694Y-99785645D01*
X127374698Y-99785647D01*
X127468475Y-99800499D01*
X127468481Y-99800500D01*
X129031518Y-99800499D01*
X129125304Y-99785646D01*
X129238342Y-99728050D01*
X129328050Y-99638342D01*
X129385646Y-99525304D01*
X129385646Y-99525302D01*
X129385647Y-99525301D01*
X129400499Y-99431524D01*
X129400500Y-99431519D01*
X129400500Y-99100003D01*
X135541935Y-99100003D01*
X135562130Y-99279249D01*
X135562131Y-99279254D01*
X135621711Y-99449523D01*
X135685341Y-99550789D01*
X135717684Y-99602262D01*
X135845238Y-99729816D01*
X135909483Y-99770184D01*
X135990658Y-99821190D01*
X135997978Y-99825789D01*
X136041166Y-99840901D01*
X136168245Y-99885368D01*
X136168250Y-99885369D01*
X136347496Y-99905565D01*
X136347500Y-99905565D01*
X136347504Y-99905565D01*
X136526749Y-99885369D01*
X136526752Y-99885368D01*
X136526755Y-99885368D01*
X136697022Y-99825789D01*
X136849762Y-99729816D01*
X136917759Y-99661819D01*
X136979082Y-99628334D01*
X137005440Y-99625500D01*
X137107746Y-99625500D01*
X137174785Y-99645185D01*
X137195422Y-99661814D01*
X137261658Y-99728050D01*
X137374694Y-99785645D01*
X137374698Y-99785647D01*
X137468475Y-99800499D01*
X137468481Y-99800500D01*
X139031518Y-99800499D01*
X139125304Y-99785646D01*
X139238342Y-99728050D01*
X139328050Y-99638342D01*
X139385646Y-99525304D01*
X139385646Y-99525302D01*
X139385647Y-99525301D01*
X139400499Y-99431524D01*
X139400500Y-99431519D01*
X139400500Y-99100003D01*
X145541935Y-99100003D01*
X145562130Y-99279249D01*
X145562131Y-99279254D01*
X145621711Y-99449523D01*
X145685341Y-99550789D01*
X145717684Y-99602262D01*
X145845238Y-99729816D01*
X145909483Y-99770184D01*
X145990658Y-99821190D01*
X145997978Y-99825789D01*
X146041166Y-99840901D01*
X146168245Y-99885368D01*
X146168250Y-99885369D01*
X146347496Y-99905565D01*
X146347500Y-99905565D01*
X146347504Y-99905565D01*
X146526749Y-99885369D01*
X146526752Y-99885368D01*
X146526755Y-99885368D01*
X146697022Y-99825789D01*
X146849762Y-99729816D01*
X146917759Y-99661819D01*
X146979082Y-99628334D01*
X147005440Y-99625500D01*
X147107746Y-99625500D01*
X147174785Y-99645185D01*
X147195422Y-99661814D01*
X147261658Y-99728050D01*
X147374694Y-99785645D01*
X147374698Y-99785647D01*
X147468475Y-99800499D01*
X147468481Y-99800500D01*
X149031518Y-99800499D01*
X149125304Y-99785646D01*
X149238342Y-99728050D01*
X149328050Y-99638342D01*
X149385646Y-99525304D01*
X149385646Y-99525302D01*
X149385647Y-99525301D01*
X149400499Y-99431524D01*
X149400500Y-99431519D01*
X149400500Y-99100003D01*
X155591935Y-99100003D01*
X155612130Y-99279249D01*
X155612131Y-99279254D01*
X155671711Y-99449523D01*
X155735341Y-99550789D01*
X155767684Y-99602262D01*
X155895238Y-99729816D01*
X155959483Y-99770184D01*
X156040658Y-99821190D01*
X156047978Y-99825789D01*
X156091166Y-99840901D01*
X156218245Y-99885368D01*
X156218250Y-99885369D01*
X156397496Y-99905565D01*
X156397500Y-99905565D01*
X156397504Y-99905565D01*
X156576749Y-99885369D01*
X156576752Y-99885368D01*
X156576755Y-99885368D01*
X156747022Y-99825789D01*
X156899762Y-99729816D01*
X156967758Y-99661819D01*
X157029082Y-99628334D01*
X157055440Y-99625500D01*
X157107746Y-99625500D01*
X157174785Y-99645185D01*
X157195422Y-99661814D01*
X157261658Y-99728050D01*
X157374694Y-99785645D01*
X157374698Y-99785647D01*
X157468475Y-99800499D01*
X157468481Y-99800500D01*
X159031518Y-99800499D01*
X159125304Y-99785646D01*
X159238342Y-99728050D01*
X159328050Y-99638342D01*
X159385646Y-99525304D01*
X159385646Y-99525302D01*
X159385647Y-99525301D01*
X159400499Y-99431524D01*
X159400500Y-99431519D01*
X159400500Y-99100003D01*
X165541935Y-99100003D01*
X165562130Y-99279249D01*
X165562131Y-99279254D01*
X165621711Y-99449523D01*
X165685341Y-99550789D01*
X165717684Y-99602262D01*
X165845238Y-99729816D01*
X165909483Y-99770184D01*
X165990658Y-99821190D01*
X165997978Y-99825789D01*
X166041166Y-99840901D01*
X166168245Y-99885368D01*
X166168250Y-99885369D01*
X166347496Y-99905565D01*
X166347500Y-99905565D01*
X166347504Y-99905565D01*
X166526749Y-99885369D01*
X166526752Y-99885368D01*
X166526755Y-99885368D01*
X166697022Y-99825789D01*
X166849762Y-99729816D01*
X166917759Y-99661819D01*
X166979082Y-99628334D01*
X167005440Y-99625500D01*
X167107746Y-99625500D01*
X167174785Y-99645185D01*
X167195422Y-99661814D01*
X167261658Y-99728050D01*
X167374694Y-99785645D01*
X167374698Y-99785647D01*
X167468475Y-99800499D01*
X167468481Y-99800500D01*
X169031518Y-99800499D01*
X169125304Y-99785646D01*
X169238342Y-99728050D01*
X169328050Y-99638342D01*
X169385646Y-99525304D01*
X169385646Y-99525302D01*
X169385647Y-99525301D01*
X169400499Y-99431524D01*
X169400500Y-99431519D01*
X169400500Y-99100003D01*
X175541935Y-99100003D01*
X175562130Y-99279249D01*
X175562131Y-99279254D01*
X175621711Y-99449523D01*
X175685341Y-99550789D01*
X175717684Y-99602262D01*
X175845238Y-99729816D01*
X175909483Y-99770184D01*
X175990658Y-99821190D01*
X175997978Y-99825789D01*
X176041166Y-99840901D01*
X176168245Y-99885368D01*
X176168250Y-99885369D01*
X176347496Y-99905565D01*
X176347500Y-99905565D01*
X176347504Y-99905565D01*
X176526749Y-99885369D01*
X176526752Y-99885368D01*
X176526755Y-99885368D01*
X176697022Y-99825789D01*
X176849762Y-99729816D01*
X176917759Y-99661819D01*
X176979082Y-99628334D01*
X177005440Y-99625500D01*
X177107746Y-99625500D01*
X177174785Y-99645185D01*
X177195422Y-99661814D01*
X177261658Y-99728050D01*
X177374694Y-99785645D01*
X177374698Y-99785647D01*
X177468475Y-99800499D01*
X177468481Y-99800500D01*
X179031518Y-99800499D01*
X179125304Y-99785646D01*
X179238342Y-99728050D01*
X179328050Y-99638342D01*
X179385646Y-99525304D01*
X179385646Y-99525302D01*
X179385647Y-99525301D01*
X179400499Y-99431524D01*
X179400500Y-99431519D01*
X179400500Y-99100003D01*
X185491935Y-99100003D01*
X185512130Y-99279249D01*
X185512131Y-99279254D01*
X185571711Y-99449523D01*
X185635341Y-99550789D01*
X185667684Y-99602262D01*
X185795238Y-99729816D01*
X185859483Y-99770184D01*
X185940658Y-99821190D01*
X185947978Y-99825789D01*
X185991166Y-99840901D01*
X186118245Y-99885368D01*
X186118250Y-99885369D01*
X186297496Y-99905565D01*
X186297500Y-99905565D01*
X186297504Y-99905565D01*
X186476749Y-99885369D01*
X186476752Y-99885368D01*
X186476755Y-99885368D01*
X186647022Y-99825789D01*
X186799762Y-99729816D01*
X186867759Y-99661818D01*
X186929082Y-99628334D01*
X186955440Y-99625500D01*
X187107746Y-99625500D01*
X187174785Y-99645185D01*
X187195422Y-99661814D01*
X187261658Y-99728050D01*
X187374694Y-99785645D01*
X187374698Y-99785647D01*
X187468475Y-99800499D01*
X187468481Y-99800500D01*
X189031518Y-99800499D01*
X189125304Y-99785646D01*
X189238342Y-99728050D01*
X189328050Y-99638342D01*
X189385646Y-99525304D01*
X189385646Y-99525302D01*
X189385647Y-99525301D01*
X189400499Y-99431524D01*
X189400500Y-99431519D01*
X189400500Y-99100003D01*
X195541935Y-99100003D01*
X195562130Y-99279249D01*
X195562131Y-99279254D01*
X195621711Y-99449523D01*
X195685341Y-99550789D01*
X195717684Y-99602262D01*
X195845238Y-99729816D01*
X195909483Y-99770184D01*
X195990658Y-99821190D01*
X195997978Y-99825789D01*
X196041166Y-99840901D01*
X196168245Y-99885368D01*
X196168250Y-99885369D01*
X196347496Y-99905565D01*
X196347500Y-99905565D01*
X196347504Y-99905565D01*
X196526749Y-99885369D01*
X196526752Y-99885368D01*
X196526755Y-99885368D01*
X196697022Y-99825789D01*
X196849762Y-99729816D01*
X196917759Y-99661819D01*
X196979082Y-99628334D01*
X197005440Y-99625500D01*
X197107746Y-99625500D01*
X197174785Y-99645185D01*
X197195422Y-99661814D01*
X197261658Y-99728050D01*
X197374694Y-99785645D01*
X197374698Y-99785647D01*
X197468475Y-99800499D01*
X197468481Y-99800500D01*
X199031518Y-99800499D01*
X199125304Y-99785646D01*
X199238342Y-99728050D01*
X199328050Y-99638342D01*
X199385646Y-99525304D01*
X199385646Y-99525302D01*
X199385647Y-99525301D01*
X199400499Y-99431524D01*
X199400500Y-99431519D01*
X199400500Y-99100003D01*
X205541935Y-99100003D01*
X205562130Y-99279249D01*
X205562131Y-99279254D01*
X205621711Y-99449523D01*
X205685341Y-99550789D01*
X205717684Y-99602262D01*
X205845238Y-99729816D01*
X205909483Y-99770184D01*
X205990658Y-99821190D01*
X205997978Y-99825789D01*
X206041166Y-99840901D01*
X206168245Y-99885368D01*
X206168250Y-99885369D01*
X206347496Y-99905565D01*
X206347500Y-99905565D01*
X206347504Y-99905565D01*
X206526749Y-99885369D01*
X206526752Y-99885368D01*
X206526755Y-99885368D01*
X206697022Y-99825789D01*
X206849762Y-99729816D01*
X206917759Y-99661819D01*
X206979082Y-99628334D01*
X207005440Y-99625500D01*
X207107746Y-99625500D01*
X207174785Y-99645185D01*
X207195422Y-99661814D01*
X207261658Y-99728050D01*
X207374694Y-99785645D01*
X207374698Y-99785647D01*
X207468475Y-99800499D01*
X207468481Y-99800500D01*
X209031518Y-99800499D01*
X209125304Y-99785646D01*
X209238342Y-99728050D01*
X209328050Y-99638342D01*
X209385646Y-99525304D01*
X209385646Y-99525302D01*
X209385647Y-99525301D01*
X209400499Y-99431524D01*
X209400500Y-99431519D01*
X209400500Y-99100003D01*
X215541935Y-99100003D01*
X215562130Y-99279249D01*
X215562131Y-99279254D01*
X215621711Y-99449523D01*
X215685341Y-99550789D01*
X215717684Y-99602262D01*
X215845238Y-99729816D01*
X215909483Y-99770184D01*
X215990658Y-99821190D01*
X215997978Y-99825789D01*
X216041166Y-99840901D01*
X216168245Y-99885368D01*
X216168250Y-99885369D01*
X216347496Y-99905565D01*
X216347500Y-99905565D01*
X216347504Y-99905565D01*
X216526749Y-99885369D01*
X216526752Y-99885368D01*
X216526755Y-99885368D01*
X216697022Y-99825789D01*
X216849762Y-99729816D01*
X216917759Y-99661819D01*
X216979082Y-99628334D01*
X217005440Y-99625500D01*
X217107746Y-99625500D01*
X217174785Y-99645185D01*
X217195422Y-99661814D01*
X217261658Y-99728050D01*
X217374694Y-99785645D01*
X217374698Y-99785647D01*
X217468475Y-99800499D01*
X217468481Y-99800500D01*
X219031518Y-99800499D01*
X219125304Y-99785646D01*
X219238342Y-99728050D01*
X219328050Y-99638342D01*
X219385646Y-99525304D01*
X219385646Y-99525302D01*
X219385647Y-99525301D01*
X219400499Y-99431524D01*
X219400500Y-99431519D01*
X219400500Y-99100003D01*
X225541935Y-99100003D01*
X225562130Y-99279249D01*
X225562131Y-99279254D01*
X225621711Y-99449523D01*
X225685341Y-99550789D01*
X225717684Y-99602262D01*
X225845238Y-99729816D01*
X225909483Y-99770184D01*
X225990658Y-99821190D01*
X225997978Y-99825789D01*
X226041166Y-99840901D01*
X226168245Y-99885368D01*
X226168250Y-99885369D01*
X226347496Y-99905565D01*
X226347500Y-99905565D01*
X226347504Y-99905565D01*
X226526749Y-99885369D01*
X226526752Y-99885368D01*
X226526755Y-99885368D01*
X226697022Y-99825789D01*
X226849762Y-99729816D01*
X226917759Y-99661819D01*
X226979082Y-99628334D01*
X227005440Y-99625500D01*
X227107746Y-99625500D01*
X227174785Y-99645185D01*
X227195422Y-99661814D01*
X227261658Y-99728050D01*
X227374694Y-99785645D01*
X227374698Y-99785647D01*
X227468475Y-99800499D01*
X227468481Y-99800500D01*
X229031518Y-99800499D01*
X229125304Y-99785646D01*
X229238342Y-99728050D01*
X229328050Y-99638342D01*
X229385646Y-99525304D01*
X229385646Y-99525302D01*
X229385647Y-99525301D01*
X229400499Y-99431524D01*
X229400500Y-99431519D01*
X229400499Y-98468482D01*
X229385646Y-98374696D01*
X229328050Y-98261658D01*
X229328046Y-98261654D01*
X229328045Y-98261652D01*
X229238347Y-98171954D01*
X229238344Y-98171952D01*
X229238342Y-98171950D01*
X229161517Y-98132805D01*
X229125301Y-98114352D01*
X229031524Y-98099500D01*
X227468482Y-98099500D01*
X227387519Y-98112323D01*
X227374696Y-98114354D01*
X227261658Y-98171950D01*
X227261656Y-98171951D01*
X227261657Y-98171951D01*
X227261652Y-98171954D01*
X227171954Y-98261652D01*
X227171951Y-98261657D01*
X227114352Y-98374698D01*
X227103190Y-98445176D01*
X227073260Y-98508310D01*
X227013949Y-98545241D01*
X226944086Y-98544243D01*
X226893036Y-98513458D01*
X226849762Y-98470184D01*
X226697023Y-98374211D01*
X226526754Y-98314631D01*
X226526749Y-98314630D01*
X226347504Y-98294435D01*
X226347496Y-98294435D01*
X226168250Y-98314630D01*
X226168245Y-98314631D01*
X225997976Y-98374211D01*
X225845237Y-98470184D01*
X225717684Y-98597737D01*
X225621711Y-98750476D01*
X225562131Y-98920745D01*
X225562130Y-98920750D01*
X225541935Y-99099996D01*
X225541935Y-99100003D01*
X219400500Y-99100003D01*
X219400499Y-98648901D01*
X220435033Y-98648901D01*
X220443433Y-98663868D01*
X220445055Y-98672235D01*
X220460605Y-98770410D01*
X220460036Y-98770499D01*
X220460333Y-98771978D01*
X220467853Y-98778801D01*
X220472511Y-98787134D01*
X220480784Y-98803370D01*
X220509994Y-98860699D01*
X220509999Y-98860706D01*
X220589293Y-98940000D01*
X220589296Y-98940002D01*
X220589299Y-98940005D01*
X220689228Y-98990921D01*
X220689230Y-98990922D01*
X220799998Y-99008466D01*
X220800000Y-99008466D01*
X220800002Y-99008466D01*
X220910769Y-98990922D01*
X220910770Y-98990921D01*
X220910772Y-98990921D01*
X221010701Y-98940005D01*
X221090005Y-98860701D01*
X221127485Y-98787141D01*
X221139087Y-98774856D01*
X221139965Y-98770501D01*
X221139395Y-98770411D01*
X221154944Y-98672238D01*
X221164965Y-98651096D01*
X221156565Y-98636128D01*
X221154949Y-98627795D01*
X221140921Y-98539228D01*
X221140920Y-98539227D01*
X221139394Y-98529588D01*
X221139964Y-98529497D01*
X221139666Y-98528017D01*
X221132142Y-98521190D01*
X221127482Y-98512853D01*
X221090005Y-98439299D01*
X221090002Y-98439296D01*
X221090000Y-98439293D01*
X221010706Y-98359999D01*
X221010702Y-98359996D01*
X221010701Y-98359995D01*
X221006819Y-98358017D01*
X220910769Y-98309077D01*
X220800002Y-98291534D01*
X220799998Y-98291534D01*
X220689230Y-98309077D01*
X220589300Y-98359994D01*
X220589293Y-98359999D01*
X220509999Y-98439293D01*
X220509996Y-98439298D01*
X220509995Y-98439299D01*
X220494168Y-98470362D01*
X220472516Y-98512856D01*
X220460913Y-98525140D01*
X220460038Y-98529500D01*
X220460605Y-98529590D01*
X220445055Y-98627762D01*
X220435033Y-98648901D01*
X219400499Y-98648901D01*
X219400499Y-98468482D01*
X219385646Y-98374696D01*
X219328050Y-98261658D01*
X219328046Y-98261654D01*
X219328045Y-98261652D01*
X219238347Y-98171954D01*
X219238344Y-98171952D01*
X219238342Y-98171950D01*
X219161517Y-98132805D01*
X219125301Y-98114352D01*
X219031524Y-98099500D01*
X217468482Y-98099500D01*
X217387519Y-98112323D01*
X217374696Y-98114354D01*
X217261658Y-98171950D01*
X217261656Y-98171951D01*
X217261657Y-98171951D01*
X217261652Y-98171954D01*
X217171954Y-98261652D01*
X217171951Y-98261657D01*
X217114352Y-98374698D01*
X217103190Y-98445176D01*
X217073260Y-98508310D01*
X217013949Y-98545241D01*
X216944086Y-98544243D01*
X216893036Y-98513458D01*
X216849762Y-98470184D01*
X216697023Y-98374211D01*
X216526754Y-98314631D01*
X216526749Y-98314630D01*
X216347504Y-98294435D01*
X216347496Y-98294435D01*
X216168250Y-98314630D01*
X216168245Y-98314631D01*
X215997976Y-98374211D01*
X215845237Y-98470184D01*
X215717684Y-98597737D01*
X215621711Y-98750476D01*
X215562131Y-98920745D01*
X215562130Y-98920750D01*
X215541935Y-99099996D01*
X215541935Y-99100003D01*
X209400500Y-99100003D01*
X209400499Y-98648901D01*
X210435033Y-98648901D01*
X210443433Y-98663868D01*
X210445055Y-98672235D01*
X210460605Y-98770410D01*
X210460036Y-98770499D01*
X210460333Y-98771978D01*
X210467853Y-98778801D01*
X210472511Y-98787134D01*
X210480784Y-98803370D01*
X210509994Y-98860699D01*
X210509999Y-98860706D01*
X210589293Y-98940000D01*
X210589296Y-98940002D01*
X210589299Y-98940005D01*
X210689228Y-98990921D01*
X210689230Y-98990922D01*
X210799998Y-99008466D01*
X210800000Y-99008466D01*
X210800002Y-99008466D01*
X210910769Y-98990922D01*
X210910770Y-98990921D01*
X210910772Y-98990921D01*
X211010701Y-98940005D01*
X211090005Y-98860701D01*
X211127485Y-98787141D01*
X211139087Y-98774856D01*
X211139965Y-98770501D01*
X211139395Y-98770411D01*
X211154944Y-98672238D01*
X211164965Y-98651096D01*
X211156565Y-98636128D01*
X211154949Y-98627795D01*
X211140921Y-98539228D01*
X211140920Y-98539227D01*
X211139394Y-98529588D01*
X211139964Y-98529497D01*
X211139666Y-98528017D01*
X211132142Y-98521190D01*
X211127482Y-98512853D01*
X211090005Y-98439299D01*
X211090002Y-98439296D01*
X211090000Y-98439293D01*
X211010706Y-98359999D01*
X211010702Y-98359996D01*
X211010701Y-98359995D01*
X211006819Y-98358017D01*
X210910769Y-98309077D01*
X210800002Y-98291534D01*
X210799998Y-98291534D01*
X210689230Y-98309077D01*
X210589300Y-98359994D01*
X210589293Y-98359999D01*
X210509999Y-98439293D01*
X210509996Y-98439298D01*
X210509995Y-98439299D01*
X210494168Y-98470362D01*
X210472516Y-98512856D01*
X210460913Y-98525140D01*
X210460038Y-98529500D01*
X210460605Y-98529590D01*
X210445055Y-98627762D01*
X210435033Y-98648901D01*
X209400499Y-98648901D01*
X209400499Y-98468482D01*
X209385646Y-98374696D01*
X209328050Y-98261658D01*
X209328046Y-98261654D01*
X209328045Y-98261652D01*
X209238347Y-98171954D01*
X209238344Y-98171952D01*
X209238342Y-98171950D01*
X209161517Y-98132805D01*
X209125301Y-98114352D01*
X209031524Y-98099500D01*
X207468482Y-98099500D01*
X207387519Y-98112323D01*
X207374696Y-98114354D01*
X207261658Y-98171950D01*
X207261656Y-98171951D01*
X207261657Y-98171951D01*
X207261652Y-98171954D01*
X207171954Y-98261652D01*
X207171951Y-98261657D01*
X207114352Y-98374698D01*
X207103190Y-98445176D01*
X207073260Y-98508310D01*
X207013949Y-98545241D01*
X206944086Y-98544243D01*
X206893036Y-98513458D01*
X206849762Y-98470184D01*
X206697023Y-98374211D01*
X206526754Y-98314631D01*
X206526749Y-98314630D01*
X206347504Y-98294435D01*
X206347496Y-98294435D01*
X206168250Y-98314630D01*
X206168245Y-98314631D01*
X205997976Y-98374211D01*
X205845237Y-98470184D01*
X205717684Y-98597737D01*
X205621711Y-98750476D01*
X205562131Y-98920745D01*
X205562130Y-98920750D01*
X205541935Y-99099996D01*
X205541935Y-99100003D01*
X199400500Y-99100003D01*
X199400499Y-98648901D01*
X200435033Y-98648901D01*
X200443433Y-98663868D01*
X200445055Y-98672235D01*
X200460605Y-98770410D01*
X200460036Y-98770499D01*
X200460333Y-98771978D01*
X200467853Y-98778801D01*
X200472511Y-98787134D01*
X200480784Y-98803370D01*
X200509994Y-98860699D01*
X200509999Y-98860706D01*
X200589293Y-98940000D01*
X200589296Y-98940002D01*
X200589299Y-98940005D01*
X200689228Y-98990921D01*
X200689230Y-98990922D01*
X200799998Y-99008466D01*
X200800000Y-99008466D01*
X200800002Y-99008466D01*
X200910769Y-98990922D01*
X200910770Y-98990921D01*
X200910772Y-98990921D01*
X201010701Y-98940005D01*
X201090005Y-98860701D01*
X201127485Y-98787141D01*
X201139087Y-98774856D01*
X201139965Y-98770501D01*
X201139395Y-98770411D01*
X201154944Y-98672238D01*
X201164965Y-98651096D01*
X201156565Y-98636128D01*
X201154949Y-98627795D01*
X201140921Y-98539228D01*
X201140920Y-98539227D01*
X201139394Y-98529588D01*
X201139964Y-98529497D01*
X201139666Y-98528017D01*
X201132142Y-98521190D01*
X201127482Y-98512853D01*
X201090005Y-98439299D01*
X201090002Y-98439296D01*
X201090000Y-98439293D01*
X201010706Y-98359999D01*
X201010702Y-98359996D01*
X201010701Y-98359995D01*
X201006819Y-98358017D01*
X200910769Y-98309077D01*
X200800002Y-98291534D01*
X200799998Y-98291534D01*
X200689230Y-98309077D01*
X200589300Y-98359994D01*
X200589293Y-98359999D01*
X200509999Y-98439293D01*
X200509996Y-98439298D01*
X200509995Y-98439299D01*
X200494168Y-98470362D01*
X200472516Y-98512856D01*
X200460913Y-98525140D01*
X200460038Y-98529500D01*
X200460605Y-98529590D01*
X200445055Y-98627762D01*
X200435033Y-98648901D01*
X199400499Y-98648901D01*
X199400499Y-98468482D01*
X199385646Y-98374696D01*
X199328050Y-98261658D01*
X199328046Y-98261654D01*
X199328045Y-98261652D01*
X199238347Y-98171954D01*
X199238344Y-98171952D01*
X199238342Y-98171950D01*
X199161517Y-98132805D01*
X199125301Y-98114352D01*
X199031524Y-98099500D01*
X197468482Y-98099500D01*
X197387519Y-98112323D01*
X197374696Y-98114354D01*
X197261658Y-98171950D01*
X197261656Y-98171951D01*
X197261657Y-98171951D01*
X197261652Y-98171954D01*
X197171954Y-98261652D01*
X197171951Y-98261657D01*
X197114352Y-98374698D01*
X197103190Y-98445176D01*
X197073260Y-98508310D01*
X197013949Y-98545241D01*
X196944086Y-98544243D01*
X196893036Y-98513458D01*
X196849762Y-98470184D01*
X196697023Y-98374211D01*
X196526754Y-98314631D01*
X196526749Y-98314630D01*
X196347504Y-98294435D01*
X196347496Y-98294435D01*
X196168250Y-98314630D01*
X196168245Y-98314631D01*
X195997976Y-98374211D01*
X195845237Y-98470184D01*
X195717684Y-98597737D01*
X195621711Y-98750476D01*
X195562131Y-98920745D01*
X195562130Y-98920750D01*
X195541935Y-99099996D01*
X195541935Y-99100003D01*
X189400500Y-99100003D01*
X189400499Y-98648901D01*
X190435033Y-98648901D01*
X190443433Y-98663868D01*
X190445055Y-98672235D01*
X190460605Y-98770410D01*
X190460036Y-98770499D01*
X190460333Y-98771978D01*
X190467853Y-98778801D01*
X190472511Y-98787134D01*
X190480784Y-98803370D01*
X190509994Y-98860699D01*
X190509999Y-98860706D01*
X190589293Y-98940000D01*
X190589296Y-98940002D01*
X190589299Y-98940005D01*
X190689228Y-98990921D01*
X190689230Y-98990922D01*
X190799998Y-99008466D01*
X190800000Y-99008466D01*
X190800002Y-99008466D01*
X190910769Y-98990922D01*
X190910770Y-98990921D01*
X190910772Y-98990921D01*
X191010701Y-98940005D01*
X191090005Y-98860701D01*
X191127485Y-98787141D01*
X191139087Y-98774856D01*
X191139965Y-98770501D01*
X191139395Y-98770411D01*
X191154944Y-98672238D01*
X191164965Y-98651096D01*
X191156565Y-98636128D01*
X191154949Y-98627795D01*
X191140921Y-98539228D01*
X191140920Y-98539227D01*
X191139394Y-98529588D01*
X191139964Y-98529497D01*
X191139666Y-98528017D01*
X191132142Y-98521190D01*
X191127482Y-98512853D01*
X191090005Y-98439299D01*
X191090002Y-98439296D01*
X191090000Y-98439293D01*
X191010706Y-98359999D01*
X191010702Y-98359996D01*
X191010701Y-98359995D01*
X191006819Y-98358017D01*
X190910769Y-98309077D01*
X190800002Y-98291534D01*
X190799998Y-98291534D01*
X190689230Y-98309077D01*
X190589300Y-98359994D01*
X190589293Y-98359999D01*
X190509999Y-98439293D01*
X190509996Y-98439298D01*
X190509995Y-98439299D01*
X190494168Y-98470362D01*
X190472516Y-98512856D01*
X190460913Y-98525140D01*
X190460038Y-98529500D01*
X190460605Y-98529590D01*
X190445055Y-98627762D01*
X190435033Y-98648901D01*
X189400499Y-98648901D01*
X189400499Y-98468482D01*
X189385646Y-98374696D01*
X189328050Y-98261658D01*
X189328046Y-98261654D01*
X189328045Y-98261652D01*
X189238347Y-98171954D01*
X189238344Y-98171952D01*
X189238342Y-98171950D01*
X189161517Y-98132805D01*
X189125301Y-98114352D01*
X189031524Y-98099500D01*
X187468482Y-98099500D01*
X187387519Y-98112323D01*
X187374696Y-98114354D01*
X187261658Y-98171950D01*
X187261656Y-98171951D01*
X187261657Y-98171951D01*
X187261652Y-98171954D01*
X187171954Y-98261652D01*
X187171951Y-98261657D01*
X187114352Y-98374698D01*
X187099275Y-98469898D01*
X187069346Y-98533032D01*
X187010035Y-98569964D01*
X186976802Y-98574500D01*
X186955440Y-98574500D01*
X186888401Y-98554815D01*
X186867759Y-98538181D01*
X186799762Y-98470184D01*
X186647023Y-98374211D01*
X186476754Y-98314631D01*
X186476749Y-98314630D01*
X186297504Y-98294435D01*
X186297496Y-98294435D01*
X186118250Y-98314630D01*
X186118245Y-98314631D01*
X185947976Y-98374211D01*
X185795237Y-98470184D01*
X185667684Y-98597737D01*
X185571711Y-98750476D01*
X185512131Y-98920745D01*
X185512130Y-98920750D01*
X185491935Y-99099996D01*
X185491935Y-99100003D01*
X179400500Y-99100003D01*
X179400499Y-98648901D01*
X180435033Y-98648901D01*
X180443433Y-98663868D01*
X180445055Y-98672235D01*
X180460605Y-98770410D01*
X180460036Y-98770499D01*
X180460333Y-98771978D01*
X180467853Y-98778801D01*
X180472511Y-98787134D01*
X180480784Y-98803370D01*
X180509994Y-98860699D01*
X180509999Y-98860706D01*
X180589293Y-98940000D01*
X180589296Y-98940002D01*
X180589299Y-98940005D01*
X180689228Y-98990921D01*
X180689230Y-98990922D01*
X180799998Y-99008466D01*
X180800000Y-99008466D01*
X180800002Y-99008466D01*
X180910769Y-98990922D01*
X180910770Y-98990921D01*
X180910772Y-98990921D01*
X181010701Y-98940005D01*
X181090005Y-98860701D01*
X181127485Y-98787141D01*
X181139087Y-98774856D01*
X181139965Y-98770501D01*
X181139395Y-98770411D01*
X181154944Y-98672238D01*
X181164965Y-98651096D01*
X181156565Y-98636128D01*
X181154949Y-98627795D01*
X181140921Y-98539228D01*
X181140920Y-98539227D01*
X181139394Y-98529588D01*
X181139964Y-98529497D01*
X181139666Y-98528017D01*
X181132142Y-98521190D01*
X181127482Y-98512853D01*
X181090005Y-98439299D01*
X181090002Y-98439296D01*
X181090000Y-98439293D01*
X181010706Y-98359999D01*
X181010702Y-98359996D01*
X181010701Y-98359995D01*
X181006819Y-98358017D01*
X180910769Y-98309077D01*
X180800002Y-98291534D01*
X180799998Y-98291534D01*
X180689230Y-98309077D01*
X180589300Y-98359994D01*
X180589293Y-98359999D01*
X180509999Y-98439293D01*
X180509996Y-98439298D01*
X180509995Y-98439299D01*
X180494168Y-98470362D01*
X180472516Y-98512856D01*
X180460913Y-98525140D01*
X180460038Y-98529500D01*
X180460605Y-98529590D01*
X180445055Y-98627762D01*
X180435033Y-98648901D01*
X179400499Y-98648901D01*
X179400499Y-98468482D01*
X179385646Y-98374696D01*
X179328050Y-98261658D01*
X179328046Y-98261654D01*
X179328045Y-98261652D01*
X179238347Y-98171954D01*
X179238344Y-98171952D01*
X179238342Y-98171950D01*
X179161517Y-98132805D01*
X179125301Y-98114352D01*
X179031524Y-98099500D01*
X177468482Y-98099500D01*
X177387519Y-98112323D01*
X177374696Y-98114354D01*
X177261658Y-98171950D01*
X177261656Y-98171951D01*
X177261657Y-98171951D01*
X177261652Y-98171954D01*
X177171954Y-98261652D01*
X177171951Y-98261657D01*
X177114352Y-98374698D01*
X177103190Y-98445176D01*
X177073260Y-98508310D01*
X177013949Y-98545241D01*
X176944086Y-98544243D01*
X176893036Y-98513458D01*
X176849762Y-98470184D01*
X176697023Y-98374211D01*
X176526754Y-98314631D01*
X176526749Y-98314630D01*
X176347504Y-98294435D01*
X176347496Y-98294435D01*
X176168250Y-98314630D01*
X176168245Y-98314631D01*
X175997976Y-98374211D01*
X175845237Y-98470184D01*
X175717684Y-98597737D01*
X175621711Y-98750476D01*
X175562131Y-98920745D01*
X175562130Y-98920750D01*
X175541935Y-99099996D01*
X175541935Y-99100003D01*
X169400500Y-99100003D01*
X169400499Y-98648901D01*
X170435033Y-98648901D01*
X170443433Y-98663868D01*
X170445055Y-98672235D01*
X170460605Y-98770410D01*
X170460036Y-98770499D01*
X170460333Y-98771978D01*
X170467853Y-98778801D01*
X170472511Y-98787134D01*
X170480784Y-98803370D01*
X170509994Y-98860699D01*
X170509999Y-98860706D01*
X170589293Y-98940000D01*
X170589296Y-98940002D01*
X170589299Y-98940005D01*
X170689228Y-98990921D01*
X170689230Y-98990922D01*
X170799998Y-99008466D01*
X170800000Y-99008466D01*
X170800002Y-99008466D01*
X170910769Y-98990922D01*
X170910770Y-98990921D01*
X170910772Y-98990921D01*
X171010701Y-98940005D01*
X171090005Y-98860701D01*
X171127485Y-98787141D01*
X171139087Y-98774856D01*
X171139965Y-98770501D01*
X171139395Y-98770411D01*
X171154944Y-98672238D01*
X171164965Y-98651096D01*
X171156565Y-98636128D01*
X171154949Y-98627795D01*
X171140921Y-98539228D01*
X171140920Y-98539227D01*
X171139394Y-98529588D01*
X171139964Y-98529497D01*
X171139666Y-98528017D01*
X171132142Y-98521190D01*
X171127482Y-98512853D01*
X171090005Y-98439299D01*
X171090002Y-98439296D01*
X171090000Y-98439293D01*
X171010706Y-98359999D01*
X171010702Y-98359996D01*
X171010701Y-98359995D01*
X171006819Y-98358017D01*
X170910769Y-98309077D01*
X170800002Y-98291534D01*
X170799998Y-98291534D01*
X170689230Y-98309077D01*
X170589300Y-98359994D01*
X170589293Y-98359999D01*
X170509999Y-98439293D01*
X170509996Y-98439298D01*
X170509995Y-98439299D01*
X170494168Y-98470362D01*
X170472516Y-98512856D01*
X170460913Y-98525140D01*
X170460038Y-98529500D01*
X170460605Y-98529590D01*
X170445055Y-98627762D01*
X170435033Y-98648901D01*
X169400499Y-98648901D01*
X169400499Y-98468482D01*
X169385646Y-98374696D01*
X169328050Y-98261658D01*
X169328046Y-98261654D01*
X169328045Y-98261652D01*
X169238347Y-98171954D01*
X169238344Y-98171952D01*
X169238342Y-98171950D01*
X169161517Y-98132805D01*
X169125301Y-98114352D01*
X169031524Y-98099500D01*
X167468482Y-98099500D01*
X167387519Y-98112323D01*
X167374696Y-98114354D01*
X167261658Y-98171950D01*
X167261656Y-98171951D01*
X167261657Y-98171951D01*
X167261652Y-98171954D01*
X167171954Y-98261652D01*
X167171951Y-98261657D01*
X167114352Y-98374698D01*
X167103190Y-98445176D01*
X167073260Y-98508310D01*
X167013949Y-98545241D01*
X166944086Y-98544243D01*
X166893036Y-98513458D01*
X166849762Y-98470184D01*
X166697023Y-98374211D01*
X166526754Y-98314631D01*
X166526749Y-98314630D01*
X166347504Y-98294435D01*
X166347496Y-98294435D01*
X166168250Y-98314630D01*
X166168245Y-98314631D01*
X165997976Y-98374211D01*
X165845237Y-98470184D01*
X165717684Y-98597737D01*
X165621711Y-98750476D01*
X165562131Y-98920745D01*
X165562130Y-98920750D01*
X165541935Y-99099996D01*
X165541935Y-99100003D01*
X159400500Y-99100003D01*
X159400499Y-98648901D01*
X160435032Y-98648901D01*
X160443432Y-98663868D01*
X160445054Y-98672235D01*
X160460604Y-98770410D01*
X160460035Y-98770499D01*
X160460332Y-98771978D01*
X160467852Y-98778801D01*
X160472510Y-98787134D01*
X160480783Y-98803370D01*
X160509993Y-98860699D01*
X160509998Y-98860706D01*
X160589292Y-98940000D01*
X160589295Y-98940002D01*
X160589298Y-98940005D01*
X160689227Y-98990921D01*
X160689229Y-98990922D01*
X160799997Y-99008466D01*
X160799999Y-99008466D01*
X160800001Y-99008466D01*
X160910768Y-98990922D01*
X160910769Y-98990921D01*
X160910771Y-98990921D01*
X161010700Y-98940005D01*
X161090004Y-98860701D01*
X161127484Y-98787141D01*
X161139086Y-98774856D01*
X161139964Y-98770501D01*
X161139394Y-98770411D01*
X161154943Y-98672238D01*
X161164964Y-98651096D01*
X161156564Y-98636128D01*
X161154948Y-98627795D01*
X161140920Y-98539228D01*
X161140919Y-98539227D01*
X161139393Y-98529588D01*
X161139963Y-98529497D01*
X161139665Y-98528017D01*
X161132141Y-98521190D01*
X161127481Y-98512853D01*
X161090004Y-98439299D01*
X161090001Y-98439296D01*
X161089999Y-98439293D01*
X161010705Y-98359999D01*
X161010701Y-98359996D01*
X161010700Y-98359995D01*
X161006818Y-98358017D01*
X160910768Y-98309077D01*
X160800001Y-98291534D01*
X160799997Y-98291534D01*
X160689229Y-98309077D01*
X160589299Y-98359994D01*
X160589292Y-98359999D01*
X160509998Y-98439293D01*
X160509995Y-98439298D01*
X160509994Y-98439299D01*
X160494167Y-98470362D01*
X160472515Y-98512856D01*
X160460912Y-98525140D01*
X160460037Y-98529500D01*
X160460604Y-98529590D01*
X160445054Y-98627762D01*
X160435032Y-98648901D01*
X159400499Y-98648901D01*
X159400499Y-98468482D01*
X159385646Y-98374696D01*
X159328050Y-98261658D01*
X159328046Y-98261654D01*
X159328045Y-98261652D01*
X159238347Y-98171954D01*
X159238344Y-98171952D01*
X159238342Y-98171950D01*
X159161517Y-98132805D01*
X159125301Y-98114352D01*
X159031524Y-98099500D01*
X157468482Y-98099500D01*
X157387519Y-98112323D01*
X157374696Y-98114354D01*
X157261658Y-98171950D01*
X157261656Y-98171951D01*
X157261657Y-98171951D01*
X157261652Y-98171954D01*
X157171954Y-98261652D01*
X157171951Y-98261657D01*
X157171950Y-98261658D01*
X157121845Y-98359994D01*
X157114353Y-98374698D01*
X157110026Y-98402014D01*
X157080095Y-98465148D01*
X157020782Y-98502078D01*
X156950919Y-98501078D01*
X156905751Y-98473839D01*
X156905205Y-98474525D01*
X156899985Y-98470362D01*
X156899872Y-98470294D01*
X156899762Y-98470184D01*
X156747023Y-98374211D01*
X156576754Y-98314631D01*
X156576749Y-98314630D01*
X156397504Y-98294435D01*
X156397496Y-98294435D01*
X156218250Y-98314630D01*
X156218245Y-98314631D01*
X156047976Y-98374211D01*
X155895237Y-98470184D01*
X155767684Y-98597737D01*
X155671711Y-98750476D01*
X155612131Y-98920745D01*
X155612130Y-98920750D01*
X155591935Y-99099996D01*
X155591935Y-99100003D01*
X149400500Y-99100003D01*
X149400499Y-98468482D01*
X149385646Y-98374696D01*
X149328050Y-98261658D01*
X149328046Y-98261654D01*
X149328045Y-98261652D01*
X149238347Y-98171954D01*
X149238344Y-98171952D01*
X149238342Y-98171950D01*
X149161517Y-98132805D01*
X149125301Y-98114352D01*
X149031524Y-98099500D01*
X147468482Y-98099500D01*
X147387519Y-98112323D01*
X147374696Y-98114354D01*
X147261658Y-98171950D01*
X147261656Y-98171951D01*
X147261657Y-98171951D01*
X147261652Y-98171954D01*
X147171954Y-98261652D01*
X147171951Y-98261657D01*
X147114352Y-98374698D01*
X147103190Y-98445176D01*
X147073260Y-98508310D01*
X147013949Y-98545241D01*
X146944086Y-98544243D01*
X146893036Y-98513458D01*
X146849762Y-98470184D01*
X146697023Y-98374211D01*
X146526754Y-98314631D01*
X146526749Y-98314630D01*
X146347504Y-98294435D01*
X146347496Y-98294435D01*
X146168250Y-98314630D01*
X146168245Y-98314631D01*
X145997976Y-98374211D01*
X145845237Y-98470184D01*
X145717684Y-98597737D01*
X145621711Y-98750476D01*
X145562131Y-98920745D01*
X145562130Y-98920750D01*
X145541935Y-99099996D01*
X145541935Y-99100003D01*
X139400500Y-99100003D01*
X139400499Y-98468482D01*
X139385646Y-98374696D01*
X139328050Y-98261658D01*
X139328046Y-98261654D01*
X139328045Y-98261652D01*
X139238347Y-98171954D01*
X139238344Y-98171952D01*
X139238342Y-98171950D01*
X139161517Y-98132805D01*
X139125301Y-98114352D01*
X139031524Y-98099500D01*
X137468482Y-98099500D01*
X137387519Y-98112323D01*
X137374696Y-98114354D01*
X137261658Y-98171950D01*
X137261656Y-98171951D01*
X137261657Y-98171951D01*
X137261652Y-98171954D01*
X137171954Y-98261652D01*
X137171951Y-98261657D01*
X137114352Y-98374698D01*
X137103190Y-98445176D01*
X137073260Y-98508310D01*
X137013949Y-98545241D01*
X136944086Y-98544243D01*
X136893036Y-98513458D01*
X136849762Y-98470184D01*
X136697023Y-98374211D01*
X136526754Y-98314631D01*
X136526749Y-98314630D01*
X136347504Y-98294435D01*
X136347496Y-98294435D01*
X136168250Y-98314630D01*
X136168245Y-98314631D01*
X135997976Y-98374211D01*
X135845237Y-98470184D01*
X135717684Y-98597737D01*
X135621711Y-98750476D01*
X135562131Y-98920745D01*
X135562130Y-98920750D01*
X135541935Y-99099996D01*
X135541935Y-99100003D01*
X129400500Y-99100003D01*
X129400499Y-98468482D01*
X129385646Y-98374696D01*
X129328050Y-98261658D01*
X129328046Y-98261654D01*
X129328045Y-98261652D01*
X129238347Y-98171954D01*
X129238344Y-98171952D01*
X129238342Y-98171950D01*
X129161517Y-98132805D01*
X129125301Y-98114352D01*
X129031524Y-98099500D01*
X127468482Y-98099500D01*
X127387519Y-98112323D01*
X127374696Y-98114354D01*
X127261658Y-98171950D01*
X127261656Y-98171951D01*
X127261657Y-98171951D01*
X127261652Y-98171954D01*
X127171954Y-98261652D01*
X127171951Y-98261657D01*
X127114352Y-98374698D01*
X127099275Y-98469898D01*
X127069346Y-98533032D01*
X127010035Y-98569964D01*
X126976802Y-98574500D01*
X126966324Y-98574500D01*
X126899285Y-98554815D01*
X126878643Y-98538181D01*
X126810646Y-98470184D01*
X126657907Y-98374211D01*
X126487638Y-98314631D01*
X126487633Y-98314630D01*
X126308388Y-98294435D01*
X126308380Y-98294435D01*
X126129134Y-98314630D01*
X126129129Y-98314631D01*
X125958860Y-98374211D01*
X125806121Y-98470184D01*
X125678568Y-98597737D01*
X125582595Y-98750476D01*
X125523015Y-98920745D01*
X125523014Y-98920750D01*
X125502819Y-99099996D01*
X125502819Y-99100003D01*
X119400500Y-99100003D01*
X119400499Y-98468482D01*
X119400499Y-98468481D01*
X119400499Y-98468476D01*
X119400117Y-98463620D01*
X119401256Y-98463530D01*
X119409525Y-98399594D01*
X119454526Y-98346146D01*
X119521280Y-98325512D01*
X119523039Y-98325500D01*
X119999072Y-98325500D01*
X120007170Y-98326030D01*
X120042500Y-98330682D01*
X120042501Y-98330682D01*
X120094754Y-98323802D01*
X120199262Y-98310044D01*
X120345341Y-98249536D01*
X120416174Y-98195184D01*
X120470782Y-98153282D01*
X120492483Y-98124999D01*
X120497811Y-98118922D01*
X121267833Y-97348901D01*
X160435032Y-97348901D01*
X160443432Y-97363868D01*
X160445054Y-97372235D01*
X160460604Y-97470410D01*
X160460035Y-97470499D01*
X160460332Y-97471978D01*
X160467852Y-97478801D01*
X160472510Y-97487134D01*
X160508373Y-97557519D01*
X160509993Y-97560699D01*
X160509998Y-97560706D01*
X160589292Y-97640000D01*
X160589295Y-97640002D01*
X160589298Y-97640005D01*
X160689227Y-97690921D01*
X160689229Y-97690922D01*
X160799997Y-97708466D01*
X160799999Y-97708466D01*
X160800001Y-97708466D01*
X160910768Y-97690922D01*
X160910769Y-97690921D01*
X160910771Y-97690921D01*
X161010700Y-97640005D01*
X161090004Y-97560701D01*
X161127484Y-97487141D01*
X161139086Y-97474856D01*
X161139964Y-97470501D01*
X161139394Y-97470411D01*
X161154943Y-97372238D01*
X161164964Y-97351096D01*
X161163732Y-97348901D01*
X170435033Y-97348901D01*
X170443433Y-97363868D01*
X170445055Y-97372235D01*
X170460605Y-97470410D01*
X170460036Y-97470499D01*
X170460333Y-97471978D01*
X170467853Y-97478801D01*
X170472511Y-97487134D01*
X170508374Y-97557519D01*
X170509994Y-97560699D01*
X170509999Y-97560706D01*
X170589293Y-97640000D01*
X170589296Y-97640002D01*
X170589299Y-97640005D01*
X170689228Y-97690921D01*
X170689230Y-97690922D01*
X170799998Y-97708466D01*
X170800000Y-97708466D01*
X170800002Y-97708466D01*
X170910769Y-97690922D01*
X170910770Y-97690921D01*
X170910772Y-97690921D01*
X171010701Y-97640005D01*
X171090005Y-97560701D01*
X171127485Y-97487141D01*
X171139087Y-97474856D01*
X171139965Y-97470501D01*
X171139395Y-97470411D01*
X171154944Y-97372238D01*
X171164965Y-97351096D01*
X171163733Y-97348901D01*
X180435033Y-97348901D01*
X180443433Y-97363868D01*
X180445055Y-97372235D01*
X180460605Y-97470410D01*
X180460036Y-97470499D01*
X180460333Y-97471978D01*
X180467853Y-97478801D01*
X180472511Y-97487134D01*
X180508374Y-97557519D01*
X180509994Y-97560699D01*
X180509999Y-97560706D01*
X180589293Y-97640000D01*
X180589296Y-97640002D01*
X180589299Y-97640005D01*
X180689228Y-97690921D01*
X180689230Y-97690922D01*
X180799998Y-97708466D01*
X180800000Y-97708466D01*
X180800002Y-97708466D01*
X180910769Y-97690922D01*
X180910770Y-97690921D01*
X180910772Y-97690921D01*
X181010701Y-97640005D01*
X181090005Y-97560701D01*
X181127485Y-97487141D01*
X181139087Y-97474856D01*
X181139965Y-97470501D01*
X181139395Y-97470411D01*
X181154944Y-97372238D01*
X181164965Y-97351096D01*
X181163733Y-97348901D01*
X190435033Y-97348901D01*
X190443433Y-97363868D01*
X190445055Y-97372235D01*
X190460605Y-97470410D01*
X190460036Y-97470499D01*
X190460333Y-97471978D01*
X190467853Y-97478801D01*
X190472511Y-97487134D01*
X190508374Y-97557519D01*
X190509994Y-97560699D01*
X190509999Y-97560706D01*
X190589293Y-97640000D01*
X190589296Y-97640002D01*
X190589299Y-97640005D01*
X190689228Y-97690921D01*
X190689230Y-97690922D01*
X190799998Y-97708466D01*
X190800000Y-97708466D01*
X190800002Y-97708466D01*
X190910769Y-97690922D01*
X190910770Y-97690921D01*
X190910772Y-97690921D01*
X191010701Y-97640005D01*
X191090005Y-97560701D01*
X191127485Y-97487141D01*
X191139087Y-97474856D01*
X191139965Y-97470501D01*
X191139395Y-97470411D01*
X191154944Y-97372238D01*
X191164965Y-97351096D01*
X191163733Y-97348901D01*
X200435033Y-97348901D01*
X200443433Y-97363868D01*
X200445055Y-97372235D01*
X200460605Y-97470410D01*
X200460036Y-97470499D01*
X200460333Y-97471978D01*
X200467853Y-97478801D01*
X200472511Y-97487134D01*
X200508374Y-97557519D01*
X200509994Y-97560699D01*
X200509999Y-97560706D01*
X200589293Y-97640000D01*
X200589296Y-97640002D01*
X200589299Y-97640005D01*
X200689228Y-97690921D01*
X200689230Y-97690922D01*
X200799998Y-97708466D01*
X200800000Y-97708466D01*
X200800002Y-97708466D01*
X200910769Y-97690922D01*
X200910770Y-97690921D01*
X200910772Y-97690921D01*
X201010701Y-97640005D01*
X201090005Y-97560701D01*
X201127485Y-97487141D01*
X201139087Y-97474856D01*
X201139965Y-97470501D01*
X201139395Y-97470411D01*
X201154944Y-97372238D01*
X201164965Y-97351096D01*
X201163733Y-97348901D01*
X210435033Y-97348901D01*
X210443433Y-97363868D01*
X210445055Y-97372235D01*
X210460605Y-97470410D01*
X210460036Y-97470499D01*
X210460333Y-97471978D01*
X210467853Y-97478801D01*
X210472511Y-97487134D01*
X210508374Y-97557519D01*
X210509994Y-97560699D01*
X210509999Y-97560706D01*
X210589293Y-97640000D01*
X210589296Y-97640002D01*
X210589299Y-97640005D01*
X210689228Y-97690921D01*
X210689230Y-97690922D01*
X210799998Y-97708466D01*
X210800000Y-97708466D01*
X210800002Y-97708466D01*
X210910769Y-97690922D01*
X210910770Y-97690921D01*
X210910772Y-97690921D01*
X211010701Y-97640005D01*
X211090005Y-97560701D01*
X211127485Y-97487141D01*
X211139087Y-97474856D01*
X211139965Y-97470501D01*
X211139395Y-97470411D01*
X211154944Y-97372238D01*
X211164965Y-97351096D01*
X211163733Y-97348901D01*
X220435033Y-97348901D01*
X220443433Y-97363868D01*
X220445055Y-97372235D01*
X220460605Y-97470410D01*
X220460036Y-97470499D01*
X220460333Y-97471978D01*
X220467853Y-97478801D01*
X220472511Y-97487134D01*
X220508374Y-97557519D01*
X220509994Y-97560699D01*
X220509999Y-97560706D01*
X220589293Y-97640000D01*
X220589296Y-97640002D01*
X220589299Y-97640005D01*
X220689228Y-97690921D01*
X220689230Y-97690922D01*
X220799998Y-97708466D01*
X220800000Y-97708466D01*
X220800002Y-97708466D01*
X220910769Y-97690922D01*
X220910770Y-97690921D01*
X220910772Y-97690921D01*
X221010701Y-97640005D01*
X221090005Y-97560701D01*
X221127485Y-97487141D01*
X221139087Y-97474856D01*
X221139965Y-97470501D01*
X221139395Y-97470411D01*
X221154944Y-97372238D01*
X221164965Y-97351096D01*
X221156565Y-97336128D01*
X221154949Y-97327795D01*
X221140921Y-97239228D01*
X221140920Y-97239227D01*
X221139394Y-97229588D01*
X221139964Y-97229497D01*
X221139666Y-97228017D01*
X221132142Y-97221190D01*
X221127482Y-97212853D01*
X221091626Y-97142481D01*
X221090005Y-97139299D01*
X221090002Y-97139296D01*
X221090000Y-97139293D01*
X221010706Y-97059999D01*
X221010702Y-97059996D01*
X221010701Y-97059995D01*
X220920876Y-97014227D01*
X220910769Y-97009077D01*
X220800002Y-96991534D01*
X220799998Y-96991534D01*
X220689230Y-97009077D01*
X220589300Y-97059994D01*
X220589293Y-97059999D01*
X220509999Y-97139293D01*
X220509996Y-97139298D01*
X220509995Y-97139299D01*
X220508374Y-97142481D01*
X220472516Y-97212856D01*
X220460913Y-97225140D01*
X220460038Y-97229500D01*
X220460605Y-97229590D01*
X220445055Y-97327762D01*
X220435033Y-97348901D01*
X211163733Y-97348901D01*
X211156565Y-97336128D01*
X211154949Y-97327795D01*
X211140921Y-97239228D01*
X211140920Y-97239227D01*
X211139394Y-97229588D01*
X211139964Y-97229497D01*
X211139666Y-97228017D01*
X211132142Y-97221190D01*
X211127482Y-97212853D01*
X211091626Y-97142481D01*
X211090005Y-97139299D01*
X211090002Y-97139296D01*
X211090000Y-97139293D01*
X211010706Y-97059999D01*
X211010702Y-97059996D01*
X211010701Y-97059995D01*
X210920876Y-97014227D01*
X210910769Y-97009077D01*
X210800002Y-96991534D01*
X210799998Y-96991534D01*
X210689230Y-97009077D01*
X210589300Y-97059994D01*
X210589293Y-97059999D01*
X210509999Y-97139293D01*
X210509996Y-97139298D01*
X210509995Y-97139299D01*
X210508374Y-97142481D01*
X210472516Y-97212856D01*
X210460913Y-97225140D01*
X210460038Y-97229500D01*
X210460605Y-97229590D01*
X210445055Y-97327762D01*
X210435033Y-97348901D01*
X201163733Y-97348901D01*
X201156565Y-97336128D01*
X201154949Y-97327795D01*
X201140921Y-97239228D01*
X201140920Y-97239227D01*
X201139394Y-97229588D01*
X201139964Y-97229497D01*
X201139666Y-97228017D01*
X201132142Y-97221190D01*
X201127482Y-97212853D01*
X201091626Y-97142481D01*
X201090005Y-97139299D01*
X201090002Y-97139296D01*
X201090000Y-97139293D01*
X201010706Y-97059999D01*
X201010702Y-97059996D01*
X201010701Y-97059995D01*
X200920876Y-97014227D01*
X200910769Y-97009077D01*
X200800002Y-96991534D01*
X200799998Y-96991534D01*
X200689230Y-97009077D01*
X200589300Y-97059994D01*
X200589293Y-97059999D01*
X200509999Y-97139293D01*
X200509996Y-97139298D01*
X200509995Y-97139299D01*
X200508374Y-97142481D01*
X200472516Y-97212856D01*
X200460913Y-97225140D01*
X200460038Y-97229500D01*
X200460605Y-97229590D01*
X200445055Y-97327762D01*
X200435033Y-97348901D01*
X191163733Y-97348901D01*
X191156565Y-97336128D01*
X191154949Y-97327795D01*
X191140921Y-97239228D01*
X191140920Y-97239227D01*
X191139394Y-97229588D01*
X191139964Y-97229497D01*
X191139666Y-97228017D01*
X191132142Y-97221190D01*
X191127482Y-97212853D01*
X191091626Y-97142481D01*
X191090005Y-97139299D01*
X191090002Y-97139296D01*
X191090000Y-97139293D01*
X191010706Y-97059999D01*
X191010702Y-97059996D01*
X191010701Y-97059995D01*
X190920876Y-97014227D01*
X190910769Y-97009077D01*
X190800002Y-96991534D01*
X190799998Y-96991534D01*
X190689230Y-97009077D01*
X190589300Y-97059994D01*
X190589293Y-97059999D01*
X190509999Y-97139293D01*
X190509996Y-97139298D01*
X190509995Y-97139299D01*
X190508374Y-97142481D01*
X190472516Y-97212856D01*
X190460913Y-97225140D01*
X190460038Y-97229500D01*
X190460605Y-97229590D01*
X190445055Y-97327762D01*
X190435033Y-97348901D01*
X181163733Y-97348901D01*
X181156565Y-97336128D01*
X181154949Y-97327795D01*
X181140921Y-97239228D01*
X181140920Y-97239227D01*
X181139394Y-97229588D01*
X181139964Y-97229497D01*
X181139666Y-97228017D01*
X181132142Y-97221190D01*
X181127482Y-97212853D01*
X181091626Y-97142481D01*
X181090005Y-97139299D01*
X181090002Y-97139296D01*
X181090000Y-97139293D01*
X181010706Y-97059999D01*
X181010702Y-97059996D01*
X181010701Y-97059995D01*
X180920876Y-97014227D01*
X180910769Y-97009077D01*
X180800002Y-96991534D01*
X180799998Y-96991534D01*
X180689230Y-97009077D01*
X180589300Y-97059994D01*
X180589293Y-97059999D01*
X180509999Y-97139293D01*
X180509996Y-97139298D01*
X180509995Y-97139299D01*
X180508374Y-97142481D01*
X180472516Y-97212856D01*
X180460913Y-97225140D01*
X180460038Y-97229500D01*
X180460605Y-97229590D01*
X180445055Y-97327762D01*
X180435033Y-97348901D01*
X171163733Y-97348901D01*
X171156565Y-97336128D01*
X171154949Y-97327795D01*
X171140921Y-97239228D01*
X171140920Y-97239227D01*
X171139394Y-97229588D01*
X171139964Y-97229497D01*
X171139666Y-97228017D01*
X171132142Y-97221190D01*
X171127482Y-97212853D01*
X171091626Y-97142481D01*
X171090005Y-97139299D01*
X171090002Y-97139296D01*
X171090000Y-97139293D01*
X171010706Y-97059999D01*
X171010702Y-97059996D01*
X171010701Y-97059995D01*
X170920876Y-97014227D01*
X170910769Y-97009077D01*
X170800002Y-96991534D01*
X170799998Y-96991534D01*
X170689230Y-97009077D01*
X170589300Y-97059994D01*
X170589293Y-97059999D01*
X170509999Y-97139293D01*
X170509996Y-97139298D01*
X170509995Y-97139299D01*
X170508374Y-97142481D01*
X170472516Y-97212856D01*
X170460913Y-97225140D01*
X170460038Y-97229500D01*
X170460605Y-97229590D01*
X170445055Y-97327762D01*
X170435033Y-97348901D01*
X161163732Y-97348901D01*
X161156564Y-97336128D01*
X161154948Y-97327795D01*
X161140920Y-97239228D01*
X161140919Y-97239227D01*
X161139393Y-97229588D01*
X161139963Y-97229497D01*
X161139665Y-97228017D01*
X161132141Y-97221190D01*
X161127481Y-97212853D01*
X161091625Y-97142481D01*
X161090004Y-97139299D01*
X161090001Y-97139296D01*
X161089999Y-97139293D01*
X161010705Y-97059999D01*
X161010701Y-97059996D01*
X161010700Y-97059995D01*
X160920875Y-97014227D01*
X160910768Y-97009077D01*
X160800001Y-96991534D01*
X160799997Y-96991534D01*
X160689229Y-97009077D01*
X160589299Y-97059994D01*
X160589292Y-97059999D01*
X160509998Y-97139293D01*
X160509995Y-97139298D01*
X160509994Y-97139299D01*
X160508373Y-97142481D01*
X160472515Y-97212856D01*
X160460912Y-97225140D01*
X160460037Y-97229500D01*
X160460604Y-97229590D01*
X160445054Y-97327762D01*
X160435032Y-97348901D01*
X121267833Y-97348901D01*
X121889725Y-96727009D01*
X121951043Y-96693527D01*
X121977289Y-96690693D01*
X229943014Y-96600421D01*
X229951109Y-96600944D01*
G37*
%TD.AperFunction*%
%TD*%
%TA.AperFunction,Conductor*%
%TO.N,+BATT*%
G36*
X131674498Y-87000505D02*
G01*
X131741455Y-87020458D01*
X131786999Y-87073444D01*
X131797999Y-87124504D01*
X131797999Y-89825607D01*
X131778314Y-89892646D01*
X131748925Y-89924410D01*
X131655078Y-89995577D01*
X131563639Y-90116156D01*
X131508122Y-90256938D01*
X131507955Y-90258333D01*
X131497500Y-90345398D01*
X131497500Y-91456602D01*
X131503126Y-91503454D01*
X131508122Y-91545061D01*
X131563639Y-91685842D01*
X131572304Y-91697269D01*
X131597126Y-91762581D01*
X131597499Y-91772193D01*
X131597499Y-91964823D01*
X131577814Y-92031862D01*
X131525010Y-92077617D01*
X131473623Y-92088823D01*
X129422124Y-92090875D01*
X129355065Y-92071257D01*
X129309257Y-92018499D01*
X129298000Y-91966875D01*
X129298000Y-87115496D01*
X129317685Y-87048457D01*
X129370489Y-87002702D01*
X129422491Y-86991497D01*
X131674498Y-87000505D01*
G37*
%TD.AperFunction*%
%TD*%
%TA.AperFunction,Conductor*%
%TO.N,VBUS*%
G36*
X131540539Y-92520685D02*
G01*
X131586294Y-92573489D01*
X131597500Y-92625000D01*
X131597499Y-94077571D01*
X131596968Y-94085670D01*
X131592318Y-94121000D01*
X131597500Y-94160360D01*
X131612955Y-94277760D01*
X131612956Y-94277762D01*
X131673464Y-94423842D01*
X131772376Y-94552746D01*
X131797570Y-94617915D01*
X131798000Y-94628232D01*
X131798000Y-95677000D01*
X131778315Y-95744039D01*
X131725511Y-95789794D01*
X131674000Y-95801000D01*
X129422000Y-95801000D01*
X129354961Y-95781315D01*
X129309206Y-95728511D01*
X129298000Y-95677000D01*
X129298000Y-92625000D01*
X129317685Y-92557961D01*
X129370489Y-92512206D01*
X129422000Y-92501000D01*
X131473500Y-92501000D01*
X131540539Y-92520685D01*
G37*
%TD.AperFunction*%
%TD*%
%TA.AperFunction,Conductor*%
%TO.N,GND*%
G36*
X84277540Y-100869685D02*
G01*
X84323295Y-100922489D01*
X84334500Y-100973999D01*
X84334501Y-100981518D01*
X84349354Y-101075304D01*
X84406950Y-101188342D01*
X84406952Y-101188344D01*
X84406954Y-101188347D01*
X84496652Y-101278045D01*
X84496654Y-101278046D01*
X84496658Y-101278050D01*
X84592749Y-101327011D01*
X84609698Y-101335647D01*
X84703475Y-101350499D01*
X84703481Y-101350500D01*
X86116518Y-101350499D01*
X86210304Y-101335646D01*
X86323342Y-101278050D01*
X86413050Y-101188342D01*
X86470646Y-101075304D01*
X86470646Y-101075302D01*
X86470647Y-101075301D01*
X86485500Y-100981524D01*
X86485500Y-100974000D01*
X86505185Y-100906961D01*
X86557989Y-100861206D01*
X86609500Y-100850000D01*
X87801403Y-100850000D01*
X87868442Y-100869685D01*
X87914197Y-100922489D01*
X87924141Y-100991647D01*
X87895116Y-101055203D01*
X87889084Y-101061681D01*
X87587584Y-101363181D01*
X87526261Y-101396666D01*
X87499903Y-101399500D01*
X87292682Y-101399500D01*
X87255816Y-101402401D01*
X87255810Y-101402402D01*
X87097990Y-101448254D01*
X87097987Y-101448255D01*
X86956521Y-101531917D01*
X86956513Y-101531923D01*
X86840307Y-101648129D01*
X86840301Y-101648137D01*
X86756639Y-101789603D01*
X86756638Y-101789606D01*
X86710786Y-101947426D01*
X86710785Y-101947432D01*
X86707884Y-101984298D01*
X86707884Y-104115701D01*
X86710785Y-104152567D01*
X86710786Y-104152573D01*
X86756638Y-104310393D01*
X86756639Y-104310396D01*
X86817247Y-104412879D01*
X86834430Y-104480603D01*
X86812270Y-104546866D01*
X86757804Y-104590629D01*
X86710515Y-104600000D01*
X82201566Y-104600000D01*
X82193468Y-104599469D01*
X82169957Y-104596374D01*
X82084275Y-104585093D01*
X82053008Y-104576715D01*
X81962581Y-104539259D01*
X81934548Y-104523074D01*
X81856898Y-104463491D01*
X81834008Y-104440601D01*
X81774425Y-104362951D01*
X81758240Y-104334918D01*
X81720784Y-104244491D01*
X81712406Y-104213223D01*
X81704421Y-104152573D01*
X81698030Y-104104031D01*
X81697500Y-104095933D01*
X81697500Y-101354066D01*
X81698031Y-101345964D01*
X81699390Y-101335647D01*
X81712406Y-101236775D01*
X81720784Y-101205508D01*
X81727892Y-101188347D01*
X81758240Y-101115079D01*
X81774423Y-101087050D01*
X81834013Y-101009392D01*
X81856892Y-100986513D01*
X81934550Y-100926923D01*
X81962579Y-100910740D01*
X82053009Y-100873283D01*
X82084275Y-100864906D01*
X82193467Y-100850530D01*
X82201567Y-100850000D01*
X84210501Y-100850000D01*
X84277540Y-100869685D01*
G37*
%TD.AperFunction*%
%TA.AperFunction,Conductor*%
G36*
X94076646Y-100869685D02*
G01*
X94108411Y-100899075D01*
X94179577Y-100992922D01*
X94300156Y-101084360D01*
X94300157Y-101084360D01*
X94300158Y-101084361D01*
X94440936Y-101139877D01*
X94529398Y-101150500D01*
X94529403Y-101150500D01*
X95640597Y-101150500D01*
X95640602Y-101150500D01*
X95729064Y-101139877D01*
X95869842Y-101084361D01*
X95881266Y-101075697D01*
X95946576Y-101050873D01*
X95956193Y-101050500D01*
X96053829Y-101050500D01*
X96120868Y-101070185D01*
X96151809Y-101098501D01*
X96154419Y-101101866D01*
X96270629Y-101218076D01*
X96270633Y-101218079D01*
X96270635Y-101218081D01*
X96412102Y-101301744D01*
X96453724Y-101313836D01*
X96569926Y-101347597D01*
X96569929Y-101347597D01*
X96569931Y-101347598D01*
X96606806Y-101350500D01*
X97147403Y-101350500D01*
X97214442Y-101370185D01*
X97235084Y-101386819D01*
X97292169Y-101443904D01*
X97297520Y-101450005D01*
X97319218Y-101478282D01*
X97399657Y-101540005D01*
X97444657Y-101574535D01*
X97444658Y-101574535D01*
X97444659Y-101574536D01*
X97590738Y-101635044D01*
X97637475Y-101641197D01*
X97747499Y-101655682D01*
X97747500Y-101655682D01*
X97782829Y-101651030D01*
X97790928Y-101650500D01*
X110254072Y-101650500D01*
X110262170Y-101651030D01*
X110297500Y-101655682D01*
X110297501Y-101655682D01*
X110354871Y-101648129D01*
X110454262Y-101635044D01*
X110600341Y-101574536D01*
X110645343Y-101540005D01*
X110725782Y-101478282D01*
X110747483Y-101449999D01*
X110752811Y-101443922D01*
X111255360Y-100941373D01*
X111316681Y-100907890D01*
X111344686Y-100905097D01*
X111344686Y-100905083D01*
X111344831Y-100905082D01*
X111344951Y-100905071D01*
X111345675Y-100905082D01*
X111345696Y-100905081D01*
X111345697Y-100905082D01*
X112481337Y-100904133D01*
X112544997Y-100899051D01*
X112583450Y-100892905D01*
X112634486Y-100881328D01*
X112634489Y-100881326D01*
X112634491Y-100881326D01*
X112634492Y-100881325D01*
X112638804Y-100879271D01*
X112707791Y-100868198D01*
X112771812Y-100896180D01*
X112779833Y-100903527D01*
X112826123Y-100949817D01*
X112859608Y-101011140D01*
X112862380Y-101041410D01*
X112854868Y-101279412D01*
X112833079Y-101345797D01*
X112778857Y-101389863D01*
X112730931Y-101399500D01*
X112568482Y-101399500D01*
X112487519Y-101412323D01*
X112474696Y-101414354D01*
X112361658Y-101471950D01*
X112361657Y-101471950D01*
X112361657Y-101471951D01*
X112361652Y-101471954D01*
X112271954Y-101561652D01*
X112271951Y-101561657D01*
X112271950Y-101561658D01*
X112259663Y-101585773D01*
X112214352Y-101674698D01*
X112199500Y-101768475D01*
X112199500Y-102731517D01*
X112210292Y-102799657D01*
X112214354Y-102825304D01*
X112271950Y-102938342D01*
X112271952Y-102938344D01*
X112271954Y-102938347D01*
X112361652Y-103028045D01*
X112361654Y-103028046D01*
X112361658Y-103028050D01*
X112474694Y-103085645D01*
X112474698Y-103085647D01*
X112568475Y-103100499D01*
X112568481Y-103100500D01*
X114131518Y-103100499D01*
X114225304Y-103085646D01*
X114338342Y-103028050D01*
X114428050Y-102938342D01*
X114485646Y-102825304D01*
X114485646Y-102825302D01*
X114485647Y-102825301D01*
X114500499Y-102731524D01*
X114500500Y-102731519D01*
X114500499Y-101768482D01*
X114485646Y-101674696D01*
X114428050Y-101561658D01*
X114428046Y-101561654D01*
X114428045Y-101561652D01*
X114338347Y-101471954D01*
X114338344Y-101471952D01*
X114338342Y-101471950D01*
X114261517Y-101432805D01*
X114225301Y-101414352D01*
X114131524Y-101399500D01*
X114131519Y-101399500D01*
X114030577Y-101399500D01*
X113963538Y-101379815D01*
X113917783Y-101327011D01*
X113906639Y-101271589D01*
X113911123Y-101129497D01*
X113912838Y-101075133D01*
X113934627Y-101008751D01*
X113949095Y-100991366D01*
X113976087Y-100964374D01*
X114038200Y-100902262D01*
X114038201Y-100902259D01*
X114040204Y-100900257D01*
X114101527Y-100866772D01*
X114162718Y-100868931D01*
X114221884Y-100886251D01*
X114336143Y-100902582D01*
X117855980Y-100899639D01*
X117922756Y-100890171D01*
X117968024Y-100883753D01*
X117968027Y-100883752D01*
X117968036Y-100883751D01*
X118012923Y-100870802D01*
X118017274Y-100870822D01*
X118036404Y-100864127D01*
X118039705Y-100863075D01*
X118049009Y-100860392D01*
X118111033Y-100860691D01*
X118111461Y-100858819D01*
X118118238Y-100860365D01*
X118118245Y-100860368D01*
X118118252Y-100860368D01*
X118118253Y-100860369D01*
X118297496Y-100880565D01*
X118297500Y-100880565D01*
X118297502Y-100880565D01*
X118333037Y-100876561D01*
X118464538Y-100861744D01*
X118511049Y-100867001D01*
X118513356Y-100866621D01*
X118532513Y-100870527D01*
X118576349Y-100883138D01*
X118576354Y-100883138D01*
X118576355Y-100883139D01*
X118580724Y-100883753D01*
X118688795Y-100898943D01*
X118688802Y-100898942D01*
X118688803Y-100898943D01*
X118713625Y-100898922D01*
X122421932Y-100895822D01*
X122530024Y-100881056D01*
X122593731Y-100863377D01*
X122603430Y-100859374D01*
X122650727Y-100850000D01*
X122666560Y-100850000D01*
X122733599Y-100869685D01*
X122754241Y-100886319D01*
X122788180Y-100920258D01*
X122821665Y-100981581D01*
X122824499Y-101007939D01*
X122824499Y-101275500D01*
X122804814Y-101342539D01*
X122752010Y-101388294D01*
X122700500Y-101399500D01*
X122568482Y-101399500D01*
X122487519Y-101412323D01*
X122474696Y-101414354D01*
X122361658Y-101471950D01*
X122361657Y-101471950D01*
X122361657Y-101471951D01*
X122361652Y-101471954D01*
X122271954Y-101561652D01*
X122271951Y-101561657D01*
X122271950Y-101561658D01*
X122259663Y-101585773D01*
X122214352Y-101674698D01*
X122199500Y-101768475D01*
X122199500Y-102731517D01*
X122210292Y-102799657D01*
X122214354Y-102825304D01*
X122271950Y-102938342D01*
X122271952Y-102938344D01*
X122271954Y-102938347D01*
X122361652Y-103028045D01*
X122361654Y-103028046D01*
X122361658Y-103028050D01*
X122474694Y-103085645D01*
X122474698Y-103085647D01*
X122568475Y-103100499D01*
X122568481Y-103100500D01*
X124131518Y-103100499D01*
X124225304Y-103085646D01*
X124338342Y-103028050D01*
X124428050Y-102938342D01*
X124485646Y-102825304D01*
X124485646Y-102825302D01*
X124485647Y-102825301D01*
X124500499Y-102731524D01*
X124500500Y-102731519D01*
X124500499Y-101768482D01*
X124485646Y-101674696D01*
X124428050Y-101561658D01*
X124428046Y-101561654D01*
X124428045Y-101561652D01*
X124338347Y-101471954D01*
X124338344Y-101471952D01*
X124338342Y-101471950D01*
X124261517Y-101432805D01*
X124225301Y-101414352D01*
X124131524Y-101399500D01*
X124131519Y-101399500D01*
X123999500Y-101399500D01*
X123932461Y-101379815D01*
X123886706Y-101327011D01*
X123875500Y-101275500D01*
X123875499Y-101007940D01*
X123895183Y-100940901D01*
X123911813Y-100920263D01*
X123945761Y-100886316D01*
X124007084Y-100852833D01*
X124033440Y-100850000D01*
X124053181Y-100850000D01*
X124093026Y-100857317D01*
X124093137Y-100856940D01*
X124096778Y-100858006D01*
X124097236Y-100858090D01*
X124097807Y-100858307D01*
X124097811Y-100858308D01*
X124097813Y-100858309D01*
X124164869Y-100877938D01*
X124279128Y-100894269D01*
X127861941Y-100891273D01*
X127951986Y-100881072D01*
X127996124Y-100870980D01*
X127996123Y-100870979D01*
X128033764Y-100862373D01*
X128035651Y-100861687D01*
X128035537Y-100861361D01*
X128048117Y-100856959D01*
X128089072Y-100850000D01*
X128435526Y-100850000D01*
X128476465Y-100856953D01*
X128484307Y-100859697D01*
X128484441Y-100859793D01*
X128484457Y-100859750D01*
X128489291Y-100861448D01*
X128489212Y-100861672D01*
X128528904Y-100870714D01*
X128528904Y-100870715D01*
X128571742Y-100880474D01*
X128662151Y-100890604D01*
X128662153Y-100890603D01*
X128662154Y-100890604D01*
X128671441Y-100890596D01*
X132370995Y-100887503D01*
X132479082Y-100872738D01*
X132518701Y-100861744D01*
X132544754Y-100854515D01*
X132577910Y-100850000D01*
X132616560Y-100850000D01*
X132683599Y-100869685D01*
X132704241Y-100886319D01*
X132788181Y-100970259D01*
X132821666Y-101031582D01*
X132824500Y-101057940D01*
X132824500Y-101275500D01*
X132804815Y-101342539D01*
X132752011Y-101388294D01*
X132700501Y-101399500D01*
X132568482Y-101399500D01*
X132487519Y-101412323D01*
X132474696Y-101414354D01*
X132361658Y-101471950D01*
X132361657Y-101471950D01*
X132361657Y-101471951D01*
X132361652Y-101471954D01*
X132271954Y-101561652D01*
X132271951Y-101561657D01*
X132271950Y-101561658D01*
X132259663Y-101585773D01*
X132214352Y-101674698D01*
X132199500Y-101768475D01*
X132199500Y-102731517D01*
X132210292Y-102799657D01*
X132214354Y-102825304D01*
X132271950Y-102938342D01*
X132271952Y-102938344D01*
X132271954Y-102938347D01*
X132361652Y-103028045D01*
X132361654Y-103028046D01*
X132361658Y-103028050D01*
X132474694Y-103085645D01*
X132474698Y-103085647D01*
X132568475Y-103100499D01*
X132568481Y-103100500D01*
X134131518Y-103100499D01*
X134225304Y-103085646D01*
X134338342Y-103028050D01*
X134428050Y-102938342D01*
X134485646Y-102825304D01*
X134485646Y-102825302D01*
X134485647Y-102825301D01*
X134500499Y-102731524D01*
X134500500Y-102731519D01*
X134500499Y-101768482D01*
X134485646Y-101674696D01*
X134428050Y-101561658D01*
X134428046Y-101561654D01*
X134428045Y-101561652D01*
X134338347Y-101471954D01*
X134338344Y-101471952D01*
X134338342Y-101471950D01*
X134261517Y-101432805D01*
X134225301Y-101414352D01*
X134131524Y-101399500D01*
X134131519Y-101399500D01*
X133999500Y-101399500D01*
X133932461Y-101379815D01*
X133886706Y-101327011D01*
X133875500Y-101275500D01*
X133875500Y-100974000D01*
X133895185Y-100906961D01*
X133947989Y-100861206D01*
X133999500Y-100850000D01*
X134030955Y-100850000D01*
X134065790Y-100854993D01*
X134115749Y-100869618D01*
X134230008Y-100885949D01*
X137884480Y-100882893D01*
X137952231Y-100877135D01*
X137993080Y-100870177D01*
X137993095Y-100870173D01*
X137993105Y-100870171D01*
X138055988Y-100853937D01*
X138086984Y-100850000D01*
X138438266Y-100850000D01*
X138469211Y-100853923D01*
X138530047Y-100869603D01*
X138571102Y-100876561D01*
X138639199Y-100882262D01*
X142370881Y-100879142D01*
X142456905Y-100869839D01*
X142486463Y-100863396D01*
X142508287Y-100858639D01*
X142508293Y-100858637D01*
X142508309Y-100858634D01*
X142508316Y-100858631D01*
X142508319Y-100858631D01*
X142517224Y-100855806D01*
X142554722Y-100850000D01*
X142616560Y-100850000D01*
X142683599Y-100869685D01*
X142704241Y-100886319D01*
X142788181Y-100970259D01*
X142821666Y-101031582D01*
X142824500Y-101057940D01*
X142824500Y-101275500D01*
X142804815Y-101342539D01*
X142752011Y-101388294D01*
X142700501Y-101399500D01*
X142568482Y-101399500D01*
X142487519Y-101412323D01*
X142474696Y-101414354D01*
X142361658Y-101471950D01*
X142361657Y-101471950D01*
X142361657Y-101471951D01*
X142361652Y-101471954D01*
X142271954Y-101561652D01*
X142271951Y-101561657D01*
X142271950Y-101561658D01*
X142259663Y-101585773D01*
X142214352Y-101674698D01*
X142199500Y-101768475D01*
X142199500Y-102731517D01*
X142210292Y-102799657D01*
X142214354Y-102825304D01*
X142271950Y-102938342D01*
X142271952Y-102938344D01*
X142271954Y-102938347D01*
X142361652Y-103028045D01*
X142361654Y-103028046D01*
X142361658Y-103028050D01*
X142474694Y-103085645D01*
X142474698Y-103085647D01*
X142568475Y-103100499D01*
X142568481Y-103100500D01*
X144131518Y-103100499D01*
X144225304Y-103085646D01*
X144338342Y-103028050D01*
X144428050Y-102938342D01*
X144485646Y-102825304D01*
X144485646Y-102825302D01*
X144485647Y-102825301D01*
X144500499Y-102731524D01*
X144500500Y-102731519D01*
X144500499Y-101768482D01*
X144485646Y-101674696D01*
X144428050Y-101561658D01*
X144428046Y-101561654D01*
X144428045Y-101561652D01*
X144338347Y-101471954D01*
X144338344Y-101471952D01*
X144338342Y-101471950D01*
X144261517Y-101432805D01*
X144225301Y-101414352D01*
X144131524Y-101399500D01*
X144131519Y-101399500D01*
X143999500Y-101399500D01*
X143932461Y-101379815D01*
X143886706Y-101327011D01*
X143875500Y-101275500D01*
X143875500Y-100974000D01*
X143895185Y-100906961D01*
X143947989Y-100861206D01*
X143999500Y-100850000D01*
X144059521Y-100850000D01*
X144094355Y-100854993D01*
X144115752Y-100861257D01*
X144230007Y-100877587D01*
X147896099Y-100874522D01*
X147963850Y-100868764D01*
X148004699Y-100861806D01*
X148035183Y-100853936D01*
X148066179Y-100850000D01*
X148434485Y-100850000D01*
X148465428Y-100853923D01*
X148493950Y-100861274D01*
X148535004Y-100868231D01*
X148603093Y-100873931D01*
X152371075Y-100870780D01*
X152434734Y-100865698D01*
X152473188Y-100859552D01*
X152501754Y-100853072D01*
X152529186Y-100850000D01*
X152616560Y-100850000D01*
X152683599Y-100869685D01*
X152704241Y-100886319D01*
X152788181Y-100970259D01*
X152821666Y-101031582D01*
X152824500Y-101057940D01*
X152824500Y-101275500D01*
X152804815Y-101342539D01*
X152752011Y-101388294D01*
X152700501Y-101399500D01*
X152568482Y-101399500D01*
X152487519Y-101412323D01*
X152474696Y-101414354D01*
X152361658Y-101471950D01*
X152361657Y-101471950D01*
X152361657Y-101471951D01*
X152361652Y-101471954D01*
X152271954Y-101561652D01*
X152271951Y-101561657D01*
X152271950Y-101561658D01*
X152259663Y-101585773D01*
X152214352Y-101674698D01*
X152199500Y-101768475D01*
X152199500Y-102731517D01*
X152210292Y-102799657D01*
X152214354Y-102825304D01*
X152271950Y-102938342D01*
X152271952Y-102938344D01*
X152271954Y-102938347D01*
X152361652Y-103028045D01*
X152361654Y-103028046D01*
X152361658Y-103028050D01*
X152474694Y-103085645D01*
X152474698Y-103085647D01*
X152568475Y-103100499D01*
X152568481Y-103100500D01*
X154131518Y-103100499D01*
X154225304Y-103085646D01*
X154338342Y-103028050D01*
X154428050Y-102938342D01*
X154485646Y-102825304D01*
X154485646Y-102825302D01*
X154485647Y-102825301D01*
X154500499Y-102731524D01*
X154500500Y-102731519D01*
X154500500Y-102548901D01*
X160435032Y-102548901D01*
X160443432Y-102563868D01*
X160445054Y-102572235D01*
X160460604Y-102670410D01*
X160460035Y-102670499D01*
X160460332Y-102671978D01*
X160467852Y-102678801D01*
X160472510Y-102687134D01*
X160495124Y-102731517D01*
X160509993Y-102760699D01*
X160509998Y-102760706D01*
X160589292Y-102840000D01*
X160589295Y-102840002D01*
X160589298Y-102840005D01*
X160689227Y-102890921D01*
X160689229Y-102890922D01*
X160799997Y-102908466D01*
X160799999Y-102908466D01*
X160800001Y-102908466D01*
X160910768Y-102890922D01*
X160910769Y-102890921D01*
X160910771Y-102890921D01*
X161010700Y-102840005D01*
X161090004Y-102760701D01*
X161127484Y-102687141D01*
X161139086Y-102674856D01*
X161139964Y-102670501D01*
X161139394Y-102670411D01*
X161154943Y-102572238D01*
X161164964Y-102551096D01*
X161156564Y-102536128D01*
X161154948Y-102527795D01*
X161140920Y-102439228D01*
X161140919Y-102439227D01*
X161139393Y-102429588D01*
X161139963Y-102429497D01*
X161139665Y-102428017D01*
X161132141Y-102421190D01*
X161127481Y-102412853D01*
X161091625Y-102342481D01*
X161090004Y-102339299D01*
X161090001Y-102339296D01*
X161089999Y-102339293D01*
X161010705Y-102259999D01*
X161010701Y-102259996D01*
X161010700Y-102259995D01*
X160920875Y-102214227D01*
X160910768Y-102209077D01*
X160800001Y-102191534D01*
X160799997Y-102191534D01*
X160689229Y-102209077D01*
X160589299Y-102259994D01*
X160589292Y-102259999D01*
X160509998Y-102339293D01*
X160509995Y-102339298D01*
X160509994Y-102339299D01*
X160508373Y-102342481D01*
X160472515Y-102412856D01*
X160460912Y-102425140D01*
X160460037Y-102429500D01*
X160460604Y-102429590D01*
X160445054Y-102527762D01*
X160435032Y-102548901D01*
X154500500Y-102548901D01*
X154500499Y-101768482D01*
X154485646Y-101674696D01*
X154428050Y-101561658D01*
X154428046Y-101561654D01*
X154428045Y-101561652D01*
X154338347Y-101471954D01*
X154338344Y-101471952D01*
X154338342Y-101471950D01*
X154261517Y-101432805D01*
X154225301Y-101414352D01*
X154131524Y-101399500D01*
X154131519Y-101399500D01*
X153999500Y-101399500D01*
X153932461Y-101379815D01*
X153886706Y-101327011D01*
X153875500Y-101275500D01*
X153875500Y-100974000D01*
X153895185Y-100906961D01*
X153947989Y-100861206D01*
X153999500Y-100850000D01*
X154088733Y-100850000D01*
X154110978Y-100852382D01*
X154110995Y-100852269D01*
X154114196Y-100852726D01*
X154114985Y-100852811D01*
X154115368Y-100852894D01*
X154115376Y-100852895D01*
X154115379Y-100852896D01*
X154229634Y-100869226D01*
X160396826Y-100864069D01*
X160463880Y-100883698D01*
X160509679Y-100936463D01*
X160519681Y-101005613D01*
X160507413Y-101044363D01*
X160472515Y-101112855D01*
X160460912Y-101125140D01*
X160460037Y-101129500D01*
X160460604Y-101129590D01*
X160445054Y-101227762D01*
X160435032Y-101248901D01*
X160443432Y-101263868D01*
X160445054Y-101272235D01*
X160460604Y-101370410D01*
X160460035Y-101370499D01*
X160460332Y-101371978D01*
X160467852Y-101378801D01*
X160472510Y-101387134D01*
X160503653Y-101448256D01*
X160509993Y-101460699D01*
X160509998Y-101460706D01*
X160589292Y-101540000D01*
X160589295Y-101540002D01*
X160589298Y-101540005D01*
X160681157Y-101586809D01*
X160689229Y-101590922D01*
X160799997Y-101608466D01*
X160799999Y-101608466D01*
X160800001Y-101608466D01*
X160910768Y-101590922D01*
X160910769Y-101590921D01*
X160910771Y-101590921D01*
X161010700Y-101540005D01*
X161090004Y-101460701D01*
X161127484Y-101387141D01*
X161139086Y-101374856D01*
X161139964Y-101370501D01*
X161139394Y-101370411D01*
X161154943Y-101272238D01*
X161164964Y-101251096D01*
X161156564Y-101236128D01*
X161154948Y-101227795D01*
X161140920Y-101139228D01*
X161140919Y-101139227D01*
X161139393Y-101129588D01*
X161139963Y-101129497D01*
X161139665Y-101128017D01*
X161132141Y-101121190D01*
X161127481Y-101112853D01*
X161121882Y-101101865D01*
X161092240Y-101043689D01*
X161079345Y-100975021D01*
X161105622Y-100910281D01*
X161162728Y-100870024D01*
X161202622Y-100863396D01*
X162286896Y-100862489D01*
X162372017Y-100862418D01*
X162435676Y-100857336D01*
X162471853Y-100851553D01*
X162491423Y-100850000D01*
X162616560Y-100850000D01*
X162683599Y-100869685D01*
X162704241Y-100886319D01*
X162788181Y-100970259D01*
X162821666Y-101031582D01*
X162824500Y-101057940D01*
X162824500Y-101275500D01*
X162804815Y-101342539D01*
X162752011Y-101388294D01*
X162700501Y-101399500D01*
X162568482Y-101399500D01*
X162487519Y-101412323D01*
X162474696Y-101414354D01*
X162361658Y-101471950D01*
X162361657Y-101471950D01*
X162361657Y-101471951D01*
X162361652Y-101471954D01*
X162271954Y-101561652D01*
X162271951Y-101561657D01*
X162271950Y-101561658D01*
X162259663Y-101585773D01*
X162214352Y-101674698D01*
X162199500Y-101768475D01*
X162199500Y-102731517D01*
X162210292Y-102799657D01*
X162214354Y-102825304D01*
X162271950Y-102938342D01*
X162271952Y-102938344D01*
X162271954Y-102938347D01*
X162361652Y-103028045D01*
X162361654Y-103028046D01*
X162361658Y-103028050D01*
X162474694Y-103085645D01*
X162474698Y-103085647D01*
X162568475Y-103100499D01*
X162568481Y-103100500D01*
X164131518Y-103100499D01*
X164225304Y-103085646D01*
X164338342Y-103028050D01*
X164428050Y-102938342D01*
X164485646Y-102825304D01*
X164485646Y-102825302D01*
X164485647Y-102825301D01*
X164500499Y-102731524D01*
X164500500Y-102731519D01*
X164500500Y-102548901D01*
X170435033Y-102548901D01*
X170443433Y-102563868D01*
X170445055Y-102572235D01*
X170460605Y-102670410D01*
X170460036Y-102670499D01*
X170460333Y-102671978D01*
X170467853Y-102678801D01*
X170472511Y-102687134D01*
X170495125Y-102731517D01*
X170509994Y-102760699D01*
X170509999Y-102760706D01*
X170589293Y-102840000D01*
X170589296Y-102840002D01*
X170589299Y-102840005D01*
X170689228Y-102890921D01*
X170689230Y-102890922D01*
X170799998Y-102908466D01*
X170800000Y-102908466D01*
X170800002Y-102908466D01*
X170910769Y-102890922D01*
X170910770Y-102890921D01*
X170910772Y-102890921D01*
X171010701Y-102840005D01*
X171090005Y-102760701D01*
X171127485Y-102687141D01*
X171139087Y-102674856D01*
X171139965Y-102670501D01*
X171139395Y-102670411D01*
X171154944Y-102572238D01*
X171164965Y-102551096D01*
X171156565Y-102536128D01*
X171154949Y-102527795D01*
X171140921Y-102439228D01*
X171140920Y-102439227D01*
X171139394Y-102429588D01*
X171139964Y-102429497D01*
X171139666Y-102428017D01*
X171132142Y-102421190D01*
X171127482Y-102412853D01*
X171091626Y-102342481D01*
X171090005Y-102339299D01*
X171090002Y-102339296D01*
X171090000Y-102339293D01*
X171010706Y-102259999D01*
X171010702Y-102259996D01*
X171010701Y-102259995D01*
X170920876Y-102214227D01*
X170910769Y-102209077D01*
X170800002Y-102191534D01*
X170799998Y-102191534D01*
X170689230Y-102209077D01*
X170589300Y-102259994D01*
X170589293Y-102259999D01*
X170509999Y-102339293D01*
X170509996Y-102339298D01*
X170509995Y-102339299D01*
X170508374Y-102342481D01*
X170472516Y-102412856D01*
X170460913Y-102425140D01*
X170460038Y-102429500D01*
X170460605Y-102429590D01*
X170445055Y-102527762D01*
X170435033Y-102548901D01*
X164500500Y-102548901D01*
X164500499Y-101768482D01*
X164485646Y-101674696D01*
X164428050Y-101561658D01*
X164428046Y-101561654D01*
X164428045Y-101561652D01*
X164338347Y-101471954D01*
X164338344Y-101471952D01*
X164338342Y-101471950D01*
X164261517Y-101432805D01*
X164225301Y-101414352D01*
X164131524Y-101399500D01*
X164131519Y-101399500D01*
X163999500Y-101399500D01*
X163932461Y-101379815D01*
X163886706Y-101327011D01*
X163875500Y-101275500D01*
X163875500Y-100974000D01*
X163895185Y-100906961D01*
X163947989Y-100861206D01*
X163999500Y-100850000D01*
X164143846Y-100850000D01*
X164161389Y-100851247D01*
X164165996Y-100851905D01*
X164228691Y-100860866D01*
X170401087Y-100855705D01*
X170468143Y-100875334D01*
X170513942Y-100928099D01*
X170523944Y-100997249D01*
X170511676Y-101036000D01*
X170509995Y-101039298D01*
X170509995Y-101039299D01*
X170498591Y-101061681D01*
X170472516Y-101112856D01*
X170460913Y-101125141D01*
X170460038Y-101129500D01*
X170460605Y-101129590D01*
X170445055Y-101227762D01*
X170435033Y-101248901D01*
X170443433Y-101263868D01*
X170445055Y-101272235D01*
X170460605Y-101370410D01*
X170460036Y-101370499D01*
X170460333Y-101371978D01*
X170467853Y-101378801D01*
X170472511Y-101387134D01*
X170503654Y-101448256D01*
X170509994Y-101460699D01*
X170509999Y-101460706D01*
X170589293Y-101540000D01*
X170589296Y-101540002D01*
X170589299Y-101540005D01*
X170681158Y-101586809D01*
X170689230Y-101590922D01*
X170799998Y-101608466D01*
X170800000Y-101608466D01*
X170800002Y-101608466D01*
X170910769Y-101590922D01*
X170910770Y-101590921D01*
X170910772Y-101590921D01*
X171010701Y-101540005D01*
X171090005Y-101460701D01*
X171127485Y-101387141D01*
X171139087Y-101374856D01*
X171139965Y-101370501D01*
X171139395Y-101370411D01*
X171154944Y-101272238D01*
X171164965Y-101251096D01*
X171156565Y-101236128D01*
X171154949Y-101227795D01*
X171140921Y-101139228D01*
X171140920Y-101139227D01*
X171139394Y-101129588D01*
X171139964Y-101129497D01*
X171139666Y-101128017D01*
X171132142Y-101121190D01*
X171127491Y-101112871D01*
X171090005Y-101039299D01*
X171090002Y-101039296D01*
X171087983Y-101035333D01*
X171075087Y-100966664D01*
X171101363Y-100901923D01*
X171158470Y-100861666D01*
X171198361Y-100855038D01*
X172372960Y-100854056D01*
X172392663Y-100852482D01*
X172421305Y-100850197D01*
X172426240Y-100850000D01*
X172616560Y-100850000D01*
X172683599Y-100869685D01*
X172704241Y-100886319D01*
X172788181Y-100970259D01*
X172821666Y-101031582D01*
X172824500Y-101057940D01*
X172824500Y-101275500D01*
X172804815Y-101342539D01*
X172752011Y-101388294D01*
X172700501Y-101399500D01*
X172568482Y-101399500D01*
X172487519Y-101412323D01*
X172474696Y-101414354D01*
X172361658Y-101471950D01*
X172361657Y-101471950D01*
X172361657Y-101471951D01*
X172361652Y-101471954D01*
X172271954Y-101561652D01*
X172271951Y-101561657D01*
X172271950Y-101561658D01*
X172259663Y-101585773D01*
X172214352Y-101674698D01*
X172199500Y-101768475D01*
X172199500Y-102731517D01*
X172210292Y-102799657D01*
X172214354Y-102825304D01*
X172271950Y-102938342D01*
X172271952Y-102938344D01*
X172271954Y-102938347D01*
X172361652Y-103028045D01*
X172361654Y-103028046D01*
X172361658Y-103028050D01*
X172474694Y-103085645D01*
X172474698Y-103085647D01*
X172568475Y-103100499D01*
X172568481Y-103100500D01*
X174131518Y-103100499D01*
X174225304Y-103085646D01*
X174338342Y-103028050D01*
X174428050Y-102938342D01*
X174485646Y-102825304D01*
X174485646Y-102825302D01*
X174485647Y-102825301D01*
X174500499Y-102731524D01*
X174500500Y-102731519D01*
X174500500Y-102548901D01*
X180435033Y-102548901D01*
X180443433Y-102563868D01*
X180445055Y-102572235D01*
X180460605Y-102670410D01*
X180460036Y-102670499D01*
X180460333Y-102671978D01*
X180467853Y-102678801D01*
X180472511Y-102687134D01*
X180495125Y-102731517D01*
X180509994Y-102760699D01*
X180509999Y-102760706D01*
X180589293Y-102840000D01*
X180589296Y-102840002D01*
X180589299Y-102840005D01*
X180689228Y-102890921D01*
X180689230Y-102890922D01*
X180799998Y-102908466D01*
X180800000Y-102908466D01*
X180800002Y-102908466D01*
X180910769Y-102890922D01*
X180910770Y-102890921D01*
X180910772Y-102890921D01*
X181010701Y-102840005D01*
X181090005Y-102760701D01*
X181127485Y-102687141D01*
X181139087Y-102674856D01*
X181139965Y-102670501D01*
X181139395Y-102670411D01*
X181154944Y-102572238D01*
X181164965Y-102551096D01*
X181156565Y-102536128D01*
X181154949Y-102527795D01*
X181140921Y-102439228D01*
X181140920Y-102439227D01*
X181139394Y-102429588D01*
X181139964Y-102429497D01*
X181139666Y-102428017D01*
X181132142Y-102421190D01*
X181127482Y-102412853D01*
X181091626Y-102342481D01*
X181090005Y-102339299D01*
X181090002Y-102339296D01*
X181090000Y-102339293D01*
X181010706Y-102259999D01*
X181010702Y-102259996D01*
X181010701Y-102259995D01*
X180920876Y-102214227D01*
X180910769Y-102209077D01*
X180800002Y-102191534D01*
X180799998Y-102191534D01*
X180689230Y-102209077D01*
X180589300Y-102259994D01*
X180589293Y-102259999D01*
X180509999Y-102339293D01*
X180509996Y-102339298D01*
X180509995Y-102339299D01*
X180508374Y-102342481D01*
X180472516Y-102412856D01*
X180460913Y-102425140D01*
X180460038Y-102429500D01*
X180460605Y-102429590D01*
X180445055Y-102527762D01*
X180435033Y-102548901D01*
X174500500Y-102548901D01*
X174500499Y-101768482D01*
X174485646Y-101674696D01*
X174428050Y-101561658D01*
X174428046Y-101561654D01*
X174428045Y-101561652D01*
X174338347Y-101471954D01*
X174338344Y-101471952D01*
X174338342Y-101471950D01*
X174261517Y-101432805D01*
X174225301Y-101414352D01*
X174131524Y-101399500D01*
X174131519Y-101399500D01*
X173999500Y-101399500D01*
X173932461Y-101379815D01*
X173886706Y-101327011D01*
X173875500Y-101275500D01*
X173875500Y-100974000D01*
X173895185Y-100906961D01*
X173947989Y-100861206D01*
X173999500Y-100850000D01*
X174201403Y-100850000D01*
X174218948Y-100851247D01*
X174227751Y-100852506D01*
X174227751Y-100852505D01*
X174227752Y-100852506D01*
X177224851Y-100850000D01*
X180404165Y-100850000D01*
X180471204Y-100869685D01*
X180516959Y-100922489D01*
X180526903Y-100991647D01*
X180511682Y-101029206D01*
X180514426Y-101030604D01*
X180509996Y-101039297D01*
X180509995Y-101039299D01*
X180479830Y-101098501D01*
X180472516Y-101112856D01*
X180460913Y-101125140D01*
X180460038Y-101129500D01*
X180460605Y-101129590D01*
X180445055Y-101227762D01*
X180435033Y-101248901D01*
X180443433Y-101263868D01*
X180445055Y-101272235D01*
X180460605Y-101370410D01*
X180460036Y-101370499D01*
X180460333Y-101371978D01*
X180467853Y-101378801D01*
X180472511Y-101387134D01*
X180503654Y-101448256D01*
X180509994Y-101460699D01*
X180509999Y-101460706D01*
X180589293Y-101540000D01*
X180589296Y-101540002D01*
X180589299Y-101540005D01*
X180681158Y-101586809D01*
X180689230Y-101590922D01*
X180799998Y-101608466D01*
X180800000Y-101608466D01*
X180800002Y-101608466D01*
X180910769Y-101590922D01*
X180910770Y-101590921D01*
X180910772Y-101590921D01*
X181010701Y-101540005D01*
X181090005Y-101460701D01*
X181127485Y-101387141D01*
X181139087Y-101374856D01*
X181139965Y-101370501D01*
X181139395Y-101370411D01*
X181154944Y-101272238D01*
X181164965Y-101251096D01*
X181156565Y-101236128D01*
X181154949Y-101227795D01*
X181140921Y-101139228D01*
X181140920Y-101139227D01*
X181139394Y-101129588D01*
X181139964Y-101129497D01*
X181139666Y-101128017D01*
X181132142Y-101121190D01*
X181127482Y-101112853D01*
X181121883Y-101101865D01*
X181090005Y-101039299D01*
X181090004Y-101039298D01*
X181085574Y-101030603D01*
X181089056Y-101028828D01*
X181072030Y-100980947D01*
X181087927Y-100912910D01*
X181138085Y-100864269D01*
X181195835Y-100850000D01*
X182616560Y-100850000D01*
X182683599Y-100869685D01*
X182704241Y-100886319D01*
X182788181Y-100970259D01*
X182821666Y-101031582D01*
X182824500Y-101057940D01*
X182824500Y-101275500D01*
X182804815Y-101342539D01*
X182752011Y-101388294D01*
X182700501Y-101399500D01*
X182568482Y-101399500D01*
X182487519Y-101412323D01*
X182474696Y-101414354D01*
X182361658Y-101471950D01*
X182361657Y-101471950D01*
X182361657Y-101471951D01*
X182361652Y-101471954D01*
X182271954Y-101561652D01*
X182271951Y-101561657D01*
X182271950Y-101561658D01*
X182259663Y-101585773D01*
X182214352Y-101674698D01*
X182199500Y-101768475D01*
X182199500Y-102731517D01*
X182210292Y-102799657D01*
X182214354Y-102825304D01*
X182271950Y-102938342D01*
X182271952Y-102938344D01*
X182271954Y-102938347D01*
X182361652Y-103028045D01*
X182361654Y-103028046D01*
X182361658Y-103028050D01*
X182474694Y-103085645D01*
X182474698Y-103085647D01*
X182568475Y-103100499D01*
X182568481Y-103100500D01*
X184131518Y-103100499D01*
X184225304Y-103085646D01*
X184338342Y-103028050D01*
X184428050Y-102938342D01*
X184485646Y-102825304D01*
X184485646Y-102825302D01*
X184485647Y-102825301D01*
X184500499Y-102731524D01*
X184500500Y-102731519D01*
X184500500Y-102548901D01*
X190435033Y-102548901D01*
X190443433Y-102563868D01*
X190445055Y-102572235D01*
X190460605Y-102670410D01*
X190460036Y-102670499D01*
X190460333Y-102671978D01*
X190467853Y-102678801D01*
X190472511Y-102687134D01*
X190495125Y-102731517D01*
X190509994Y-102760699D01*
X190509999Y-102760706D01*
X190589293Y-102840000D01*
X190589296Y-102840002D01*
X190589299Y-102840005D01*
X190689228Y-102890921D01*
X190689230Y-102890922D01*
X190799998Y-102908466D01*
X190800000Y-102908466D01*
X190800002Y-102908466D01*
X190910769Y-102890922D01*
X190910770Y-102890921D01*
X190910772Y-102890921D01*
X191010701Y-102840005D01*
X191090005Y-102760701D01*
X191127485Y-102687141D01*
X191139087Y-102674856D01*
X191139965Y-102670501D01*
X191139395Y-102670411D01*
X191154944Y-102572238D01*
X191164965Y-102551096D01*
X191156565Y-102536128D01*
X191154949Y-102527795D01*
X191140921Y-102439228D01*
X191140920Y-102439227D01*
X191139394Y-102429588D01*
X191139964Y-102429497D01*
X191139666Y-102428017D01*
X191132142Y-102421190D01*
X191127482Y-102412853D01*
X191091626Y-102342481D01*
X191090005Y-102339299D01*
X191090002Y-102339296D01*
X191090000Y-102339293D01*
X191010706Y-102259999D01*
X191010702Y-102259996D01*
X191010701Y-102259995D01*
X190920876Y-102214227D01*
X190910769Y-102209077D01*
X190800002Y-102191534D01*
X190799998Y-102191534D01*
X190689230Y-102209077D01*
X190589300Y-102259994D01*
X190589293Y-102259999D01*
X190509999Y-102339293D01*
X190509996Y-102339298D01*
X190509995Y-102339299D01*
X190508374Y-102342481D01*
X190472516Y-102412856D01*
X190460913Y-102425140D01*
X190460038Y-102429500D01*
X190460605Y-102429590D01*
X190445055Y-102527762D01*
X190435033Y-102548901D01*
X184500500Y-102548901D01*
X184500499Y-101768482D01*
X184485646Y-101674696D01*
X184428050Y-101561658D01*
X184428046Y-101561654D01*
X184428045Y-101561652D01*
X184338347Y-101471954D01*
X184338344Y-101471952D01*
X184338342Y-101471950D01*
X184261517Y-101432805D01*
X184225301Y-101414352D01*
X184131524Y-101399500D01*
X184131519Y-101399500D01*
X183999500Y-101399500D01*
X183932461Y-101379815D01*
X183886706Y-101327011D01*
X183875500Y-101275500D01*
X183875500Y-100974000D01*
X183895185Y-100906961D01*
X183947989Y-100861206D01*
X183999500Y-100850000D01*
X190404165Y-100850000D01*
X190471204Y-100869685D01*
X190516959Y-100922489D01*
X190526903Y-100991647D01*
X190511682Y-101029206D01*
X190514426Y-101030604D01*
X190509996Y-101039297D01*
X190509995Y-101039299D01*
X190479830Y-101098501D01*
X190472516Y-101112856D01*
X190460913Y-101125140D01*
X190460038Y-101129500D01*
X190460605Y-101129590D01*
X190445055Y-101227762D01*
X190435033Y-101248901D01*
X190443433Y-101263868D01*
X190445055Y-101272235D01*
X190460605Y-101370410D01*
X190460036Y-101370499D01*
X190460333Y-101371978D01*
X190467853Y-101378801D01*
X190472511Y-101387134D01*
X190503654Y-101448256D01*
X190509994Y-101460699D01*
X190509999Y-101460706D01*
X190589293Y-101540000D01*
X190589296Y-101540002D01*
X190589299Y-101540005D01*
X190681158Y-101586809D01*
X190689230Y-101590922D01*
X190799998Y-101608466D01*
X190800000Y-101608466D01*
X190800002Y-101608466D01*
X190910769Y-101590922D01*
X190910770Y-101590921D01*
X190910772Y-101590921D01*
X191010701Y-101540005D01*
X191090005Y-101460701D01*
X191127485Y-101387141D01*
X191139087Y-101374856D01*
X191139965Y-101370501D01*
X191139395Y-101370411D01*
X191154944Y-101272238D01*
X191164965Y-101251096D01*
X191156565Y-101236128D01*
X191154949Y-101227795D01*
X191140921Y-101139228D01*
X191140920Y-101139227D01*
X191139394Y-101129588D01*
X191139964Y-101129497D01*
X191139666Y-101128017D01*
X191132142Y-101121190D01*
X191127482Y-101112853D01*
X191121883Y-101101865D01*
X191090005Y-101039299D01*
X191090004Y-101039298D01*
X191085574Y-101030603D01*
X191089056Y-101028828D01*
X191072030Y-100980947D01*
X191087927Y-100912910D01*
X191138085Y-100864269D01*
X191195835Y-100850000D01*
X192616560Y-100850000D01*
X192683599Y-100869685D01*
X192704241Y-100886319D01*
X192788181Y-100970259D01*
X192821666Y-101031582D01*
X192824500Y-101057940D01*
X192824500Y-101275500D01*
X192804815Y-101342539D01*
X192752011Y-101388294D01*
X192700501Y-101399500D01*
X192568482Y-101399500D01*
X192487519Y-101412323D01*
X192474696Y-101414354D01*
X192361658Y-101471950D01*
X192361657Y-101471950D01*
X192361657Y-101471951D01*
X192361652Y-101471954D01*
X192271954Y-101561652D01*
X192271951Y-101561657D01*
X192271950Y-101561658D01*
X192259663Y-101585773D01*
X192214352Y-101674698D01*
X192199500Y-101768475D01*
X192199500Y-102731517D01*
X192210292Y-102799657D01*
X192214354Y-102825304D01*
X192271950Y-102938342D01*
X192271952Y-102938344D01*
X192271954Y-102938347D01*
X192361652Y-103028045D01*
X192361654Y-103028046D01*
X192361658Y-103028050D01*
X192474694Y-103085645D01*
X192474698Y-103085647D01*
X192568475Y-103100499D01*
X192568481Y-103100500D01*
X194131518Y-103100499D01*
X194225304Y-103085646D01*
X194338342Y-103028050D01*
X194428050Y-102938342D01*
X194485646Y-102825304D01*
X194485646Y-102825302D01*
X194485647Y-102825301D01*
X194500499Y-102731524D01*
X194500500Y-102731519D01*
X194500500Y-102548901D01*
X200435033Y-102548901D01*
X200443433Y-102563868D01*
X200445055Y-102572235D01*
X200460605Y-102670410D01*
X200460036Y-102670499D01*
X200460333Y-102671978D01*
X200467853Y-102678801D01*
X200472511Y-102687134D01*
X200495125Y-102731517D01*
X200509994Y-102760699D01*
X200509999Y-102760706D01*
X200589293Y-102840000D01*
X200589296Y-102840002D01*
X200589299Y-102840005D01*
X200689228Y-102890921D01*
X200689230Y-102890922D01*
X200799998Y-102908466D01*
X200800000Y-102908466D01*
X200800002Y-102908466D01*
X200910769Y-102890922D01*
X200910770Y-102890921D01*
X200910772Y-102890921D01*
X201010701Y-102840005D01*
X201090005Y-102760701D01*
X201127485Y-102687141D01*
X201139087Y-102674856D01*
X201139965Y-102670501D01*
X201139395Y-102670411D01*
X201154944Y-102572238D01*
X201164965Y-102551096D01*
X201156565Y-102536128D01*
X201154949Y-102527795D01*
X201140921Y-102439228D01*
X201140920Y-102439227D01*
X201139394Y-102429588D01*
X201139964Y-102429497D01*
X201139666Y-102428017D01*
X201132142Y-102421190D01*
X201127482Y-102412853D01*
X201091626Y-102342481D01*
X201090005Y-102339299D01*
X201090002Y-102339296D01*
X201090000Y-102339293D01*
X201010706Y-102259999D01*
X201010702Y-102259996D01*
X201010701Y-102259995D01*
X200920876Y-102214227D01*
X200910769Y-102209077D01*
X200800002Y-102191534D01*
X200799998Y-102191534D01*
X200689230Y-102209077D01*
X200589300Y-102259994D01*
X200589293Y-102259999D01*
X200509999Y-102339293D01*
X200509996Y-102339298D01*
X200509995Y-102339299D01*
X200508374Y-102342481D01*
X200472516Y-102412856D01*
X200460913Y-102425140D01*
X200460038Y-102429500D01*
X200460605Y-102429590D01*
X200445055Y-102527762D01*
X200435033Y-102548901D01*
X194500500Y-102548901D01*
X194500499Y-101768482D01*
X194485646Y-101674696D01*
X194428050Y-101561658D01*
X194428046Y-101561654D01*
X194428045Y-101561652D01*
X194338347Y-101471954D01*
X194338344Y-101471952D01*
X194338342Y-101471950D01*
X194261517Y-101432805D01*
X194225301Y-101414352D01*
X194131524Y-101399500D01*
X194131519Y-101399500D01*
X193999500Y-101399500D01*
X193932461Y-101379815D01*
X193886706Y-101327011D01*
X193875500Y-101275500D01*
X193875500Y-100974000D01*
X193895185Y-100906961D01*
X193947989Y-100861206D01*
X193999500Y-100850000D01*
X200404165Y-100850000D01*
X200471204Y-100869685D01*
X200516959Y-100922489D01*
X200526903Y-100991647D01*
X200511682Y-101029206D01*
X200514426Y-101030604D01*
X200509996Y-101039297D01*
X200509995Y-101039299D01*
X200479830Y-101098501D01*
X200472516Y-101112856D01*
X200460913Y-101125140D01*
X200460038Y-101129500D01*
X200460605Y-101129590D01*
X200445055Y-101227762D01*
X200435033Y-101248901D01*
X200443433Y-101263868D01*
X200445055Y-101272235D01*
X200460605Y-101370410D01*
X200460036Y-101370499D01*
X200460333Y-101371978D01*
X200467853Y-101378801D01*
X200472511Y-101387134D01*
X200503654Y-101448256D01*
X200509994Y-101460699D01*
X200509999Y-101460706D01*
X200589293Y-101540000D01*
X200589296Y-101540002D01*
X200589299Y-101540005D01*
X200681158Y-101586809D01*
X200689230Y-101590922D01*
X200799998Y-101608466D01*
X200800000Y-101608466D01*
X200800002Y-101608466D01*
X200910769Y-101590922D01*
X200910770Y-101590921D01*
X200910772Y-101590921D01*
X201010701Y-101540005D01*
X201090005Y-101460701D01*
X201127485Y-101387141D01*
X201139087Y-101374856D01*
X201139965Y-101370501D01*
X201139395Y-101370411D01*
X201154944Y-101272238D01*
X201164965Y-101251096D01*
X201156565Y-101236128D01*
X201154949Y-101227795D01*
X201140921Y-101139228D01*
X201140920Y-101139227D01*
X201139394Y-101129588D01*
X201139964Y-101129497D01*
X201139666Y-101128017D01*
X201132142Y-101121190D01*
X201127482Y-101112853D01*
X201121883Y-101101865D01*
X201090005Y-101039299D01*
X201090004Y-101039298D01*
X201085574Y-101030603D01*
X201089056Y-101028828D01*
X201072030Y-100980947D01*
X201087927Y-100912910D01*
X201138085Y-100864269D01*
X201195835Y-100850000D01*
X202616560Y-100850000D01*
X202683599Y-100869685D01*
X202704236Y-100886314D01*
X202754385Y-100936463D01*
X202788181Y-100970259D01*
X202821665Y-101031583D01*
X202824499Y-101057939D01*
X202824500Y-101275499D01*
X202804816Y-101342539D01*
X202752012Y-101388294D01*
X202700501Y-101399500D01*
X202568482Y-101399500D01*
X202487519Y-101412323D01*
X202474696Y-101414354D01*
X202361658Y-101471950D01*
X202361657Y-101471950D01*
X202361657Y-101471951D01*
X202361652Y-101471954D01*
X202271954Y-101561652D01*
X202271951Y-101561657D01*
X202271950Y-101561658D01*
X202259663Y-101585773D01*
X202214352Y-101674698D01*
X202199500Y-101768475D01*
X202199500Y-102731517D01*
X202210292Y-102799657D01*
X202214354Y-102825304D01*
X202271950Y-102938342D01*
X202271952Y-102938344D01*
X202271954Y-102938347D01*
X202361652Y-103028045D01*
X202361654Y-103028046D01*
X202361658Y-103028050D01*
X202474694Y-103085645D01*
X202474698Y-103085647D01*
X202568475Y-103100499D01*
X202568481Y-103100500D01*
X204131518Y-103100499D01*
X204225304Y-103085646D01*
X204338342Y-103028050D01*
X204428050Y-102938342D01*
X204485646Y-102825304D01*
X204485646Y-102825302D01*
X204485647Y-102825301D01*
X204500499Y-102731524D01*
X204500500Y-102731519D01*
X204500500Y-102548901D01*
X210435033Y-102548901D01*
X210443433Y-102563868D01*
X210445055Y-102572235D01*
X210460605Y-102670410D01*
X210460036Y-102670499D01*
X210460333Y-102671978D01*
X210467853Y-102678801D01*
X210472511Y-102687134D01*
X210495125Y-102731517D01*
X210509994Y-102760699D01*
X210509999Y-102760706D01*
X210589293Y-102840000D01*
X210589296Y-102840002D01*
X210589299Y-102840005D01*
X210689228Y-102890921D01*
X210689230Y-102890922D01*
X210799998Y-102908466D01*
X210800000Y-102908466D01*
X210800002Y-102908466D01*
X210910769Y-102890922D01*
X210910770Y-102890921D01*
X210910772Y-102890921D01*
X211010701Y-102840005D01*
X211090005Y-102760701D01*
X211127485Y-102687141D01*
X211139087Y-102674856D01*
X211139965Y-102670501D01*
X211139395Y-102670411D01*
X211154944Y-102572238D01*
X211164965Y-102551096D01*
X211156565Y-102536128D01*
X211154949Y-102527795D01*
X211140921Y-102439228D01*
X211140920Y-102439227D01*
X211139394Y-102429588D01*
X211139964Y-102429497D01*
X211139666Y-102428017D01*
X211132142Y-102421190D01*
X211127482Y-102412853D01*
X211091626Y-102342481D01*
X211090005Y-102339299D01*
X211090002Y-102339296D01*
X211090000Y-102339293D01*
X211010706Y-102259999D01*
X211010702Y-102259996D01*
X211010701Y-102259995D01*
X210920876Y-102214227D01*
X210910769Y-102209077D01*
X210800002Y-102191534D01*
X210799998Y-102191534D01*
X210689230Y-102209077D01*
X210589300Y-102259994D01*
X210589293Y-102259999D01*
X210509999Y-102339293D01*
X210509996Y-102339298D01*
X210509995Y-102339299D01*
X210508374Y-102342481D01*
X210472516Y-102412856D01*
X210460913Y-102425140D01*
X210460038Y-102429500D01*
X210460605Y-102429590D01*
X210445055Y-102527762D01*
X210435033Y-102548901D01*
X204500500Y-102548901D01*
X204500499Y-101768482D01*
X204485646Y-101674696D01*
X204428050Y-101561658D01*
X204428046Y-101561654D01*
X204428045Y-101561652D01*
X204338347Y-101471954D01*
X204338344Y-101471952D01*
X204338342Y-101471950D01*
X204261517Y-101432805D01*
X204225301Y-101414352D01*
X204131524Y-101399500D01*
X204131519Y-101399500D01*
X203999500Y-101399500D01*
X203932461Y-101379815D01*
X203886706Y-101327011D01*
X203875500Y-101275500D01*
X203875499Y-100974000D01*
X203895183Y-100906961D01*
X203947987Y-100861206D01*
X203999499Y-100850000D01*
X210404165Y-100850000D01*
X210471204Y-100869685D01*
X210516959Y-100922489D01*
X210526903Y-100991647D01*
X210511682Y-101029206D01*
X210514426Y-101030604D01*
X210509996Y-101039297D01*
X210509995Y-101039299D01*
X210479830Y-101098501D01*
X210472516Y-101112856D01*
X210460913Y-101125140D01*
X210460038Y-101129500D01*
X210460605Y-101129590D01*
X210445055Y-101227762D01*
X210435033Y-101248901D01*
X210443433Y-101263868D01*
X210445055Y-101272235D01*
X210460605Y-101370410D01*
X210460036Y-101370499D01*
X210460333Y-101371978D01*
X210467853Y-101378801D01*
X210472511Y-101387134D01*
X210503654Y-101448256D01*
X210509994Y-101460699D01*
X210509999Y-101460706D01*
X210589293Y-101540000D01*
X210589296Y-101540002D01*
X210589299Y-101540005D01*
X210681158Y-101586809D01*
X210689230Y-101590922D01*
X210799998Y-101608466D01*
X210800000Y-101608466D01*
X210800002Y-101608466D01*
X210910769Y-101590922D01*
X210910770Y-101590921D01*
X210910772Y-101590921D01*
X211010701Y-101540005D01*
X211090005Y-101460701D01*
X211127485Y-101387141D01*
X211139087Y-101374856D01*
X211139965Y-101370501D01*
X211139395Y-101370411D01*
X211154944Y-101272238D01*
X211164965Y-101251096D01*
X211156565Y-101236128D01*
X211154949Y-101227795D01*
X211140921Y-101139228D01*
X211140920Y-101139227D01*
X211139394Y-101129588D01*
X211139964Y-101129497D01*
X211139666Y-101128017D01*
X211132142Y-101121190D01*
X211127482Y-101112853D01*
X211121883Y-101101865D01*
X211090005Y-101039299D01*
X211090004Y-101039298D01*
X211085574Y-101030603D01*
X211089056Y-101028828D01*
X211072030Y-100980947D01*
X211087927Y-100912910D01*
X211138085Y-100864269D01*
X211195835Y-100850000D01*
X212616560Y-100850000D01*
X212683599Y-100869685D01*
X212704241Y-100886319D01*
X212788181Y-100970259D01*
X212821666Y-101031582D01*
X212824500Y-101057941D01*
X212824499Y-101275501D01*
X212804814Y-101342540D01*
X212752010Y-101388295D01*
X212700500Y-101399500D01*
X212568482Y-101399500D01*
X212487519Y-101412323D01*
X212474696Y-101414354D01*
X212361658Y-101471950D01*
X212361657Y-101471950D01*
X212361657Y-101471951D01*
X212361652Y-101471954D01*
X212271954Y-101561652D01*
X212271951Y-101561657D01*
X212271950Y-101561658D01*
X212259663Y-101585773D01*
X212214352Y-101674698D01*
X212199500Y-101768475D01*
X212199500Y-102731517D01*
X212210292Y-102799657D01*
X212214354Y-102825304D01*
X212271950Y-102938342D01*
X212271952Y-102938344D01*
X212271954Y-102938347D01*
X212361652Y-103028045D01*
X212361654Y-103028046D01*
X212361658Y-103028050D01*
X212474694Y-103085645D01*
X212474698Y-103085647D01*
X212568475Y-103100499D01*
X212568481Y-103100500D01*
X214131518Y-103100499D01*
X214225304Y-103085646D01*
X214338342Y-103028050D01*
X214428050Y-102938342D01*
X214485646Y-102825304D01*
X214485646Y-102825302D01*
X214485647Y-102825301D01*
X214500499Y-102731524D01*
X214500500Y-102731519D01*
X214500500Y-102548901D01*
X220435033Y-102548901D01*
X220443433Y-102563868D01*
X220445055Y-102572235D01*
X220460605Y-102670410D01*
X220460036Y-102670499D01*
X220460333Y-102671978D01*
X220467853Y-102678801D01*
X220472511Y-102687134D01*
X220495125Y-102731517D01*
X220509994Y-102760699D01*
X220509999Y-102760706D01*
X220589293Y-102840000D01*
X220589296Y-102840002D01*
X220589299Y-102840005D01*
X220689228Y-102890921D01*
X220689230Y-102890922D01*
X220799998Y-102908466D01*
X220800000Y-102908466D01*
X220800002Y-102908466D01*
X220910769Y-102890922D01*
X220910770Y-102890921D01*
X220910772Y-102890921D01*
X221010701Y-102840005D01*
X221090005Y-102760701D01*
X221127485Y-102687141D01*
X221139087Y-102674856D01*
X221139965Y-102670501D01*
X221139395Y-102670411D01*
X221154944Y-102572238D01*
X221164965Y-102551096D01*
X221156565Y-102536128D01*
X221154949Y-102527795D01*
X221140921Y-102439228D01*
X221140920Y-102439227D01*
X221139394Y-102429588D01*
X221139964Y-102429497D01*
X221139666Y-102428017D01*
X221132142Y-102421190D01*
X221127482Y-102412853D01*
X221091626Y-102342481D01*
X221090005Y-102339299D01*
X221090002Y-102339296D01*
X221090000Y-102339293D01*
X221010706Y-102259999D01*
X221010702Y-102259996D01*
X221010701Y-102259995D01*
X220920876Y-102214227D01*
X220910769Y-102209077D01*
X220800002Y-102191534D01*
X220799998Y-102191534D01*
X220689230Y-102209077D01*
X220589300Y-102259994D01*
X220589293Y-102259999D01*
X220509999Y-102339293D01*
X220509996Y-102339298D01*
X220509995Y-102339299D01*
X220508374Y-102342481D01*
X220472516Y-102412856D01*
X220460913Y-102425140D01*
X220460038Y-102429500D01*
X220460605Y-102429590D01*
X220445055Y-102527762D01*
X220435033Y-102548901D01*
X214500500Y-102548901D01*
X214500499Y-101768482D01*
X214485646Y-101674696D01*
X214428050Y-101561658D01*
X214428046Y-101561654D01*
X214428045Y-101561652D01*
X214338347Y-101471954D01*
X214338344Y-101471952D01*
X214338342Y-101471950D01*
X214261517Y-101432805D01*
X214225301Y-101414352D01*
X214131524Y-101399500D01*
X214131519Y-101399500D01*
X213999500Y-101399500D01*
X213932461Y-101379815D01*
X213886706Y-101327011D01*
X213875500Y-101275500D01*
X213875500Y-100974000D01*
X213895185Y-100906961D01*
X213947989Y-100861206D01*
X213999500Y-100850000D01*
X220404165Y-100850000D01*
X220471204Y-100869685D01*
X220516959Y-100922489D01*
X220526903Y-100991647D01*
X220511682Y-101029206D01*
X220514426Y-101030604D01*
X220509996Y-101039297D01*
X220509995Y-101039299D01*
X220479830Y-101098501D01*
X220472516Y-101112856D01*
X220460913Y-101125140D01*
X220460038Y-101129500D01*
X220460605Y-101129590D01*
X220445055Y-101227762D01*
X220435033Y-101248901D01*
X220443433Y-101263868D01*
X220445055Y-101272235D01*
X220460605Y-101370410D01*
X220460036Y-101370499D01*
X220460333Y-101371978D01*
X220467853Y-101378801D01*
X220472511Y-101387134D01*
X220503654Y-101448256D01*
X220509994Y-101460699D01*
X220509999Y-101460706D01*
X220589293Y-101540000D01*
X220589296Y-101540002D01*
X220589299Y-101540005D01*
X220681158Y-101586809D01*
X220689230Y-101590922D01*
X220799998Y-101608466D01*
X220800000Y-101608466D01*
X220800002Y-101608466D01*
X220910769Y-101590922D01*
X220910770Y-101590921D01*
X220910772Y-101590921D01*
X221010701Y-101540005D01*
X221090005Y-101460701D01*
X221127485Y-101387141D01*
X221139087Y-101374856D01*
X221139965Y-101370501D01*
X221139395Y-101370411D01*
X221154944Y-101272238D01*
X221164965Y-101251096D01*
X221156565Y-101236128D01*
X221154949Y-101227795D01*
X221140921Y-101139228D01*
X221140920Y-101139227D01*
X221139394Y-101129588D01*
X221139964Y-101129497D01*
X221139666Y-101128017D01*
X221132142Y-101121190D01*
X221127482Y-101112853D01*
X221121883Y-101101865D01*
X221090005Y-101039299D01*
X221090004Y-101039298D01*
X221085574Y-101030603D01*
X221089056Y-101028828D01*
X221072030Y-100980947D01*
X221087927Y-100912910D01*
X221138085Y-100864269D01*
X221195835Y-100850000D01*
X222616560Y-100850000D01*
X222683599Y-100869685D01*
X222704241Y-100886319D01*
X222788181Y-100970259D01*
X222821666Y-101031582D01*
X222824500Y-101057940D01*
X222824500Y-101275500D01*
X222804815Y-101342539D01*
X222752011Y-101388294D01*
X222700501Y-101399500D01*
X222568482Y-101399500D01*
X222487519Y-101412323D01*
X222474696Y-101414354D01*
X222361658Y-101471950D01*
X222361657Y-101471950D01*
X222361657Y-101471951D01*
X222361652Y-101471954D01*
X222271954Y-101561652D01*
X222271951Y-101561657D01*
X222271950Y-101561658D01*
X222259663Y-101585773D01*
X222214352Y-101674698D01*
X222199500Y-101768475D01*
X222199500Y-102731517D01*
X222210292Y-102799657D01*
X222214354Y-102825304D01*
X222271950Y-102938342D01*
X222271952Y-102938344D01*
X222271954Y-102938347D01*
X222361652Y-103028045D01*
X222361654Y-103028046D01*
X222361658Y-103028050D01*
X222474694Y-103085645D01*
X222474698Y-103085647D01*
X222568475Y-103100499D01*
X222568481Y-103100500D01*
X224131518Y-103100499D01*
X224225304Y-103085646D01*
X224338342Y-103028050D01*
X224428050Y-102938342D01*
X224485646Y-102825304D01*
X224485646Y-102825302D01*
X224485647Y-102825301D01*
X224500499Y-102731524D01*
X224500500Y-102731519D01*
X224500499Y-101768482D01*
X224485646Y-101674696D01*
X224428050Y-101561658D01*
X224428046Y-101561654D01*
X224428045Y-101561652D01*
X224338347Y-101471954D01*
X224338344Y-101471952D01*
X224338342Y-101471950D01*
X224261517Y-101432805D01*
X224225301Y-101414352D01*
X224131524Y-101399500D01*
X224131519Y-101399500D01*
X223999499Y-101399500D01*
X223932460Y-101379815D01*
X223886705Y-101327011D01*
X223875499Y-101275500D01*
X223875500Y-101150500D01*
X223875499Y-100974000D01*
X223895185Y-100906960D01*
X223947989Y-100861205D01*
X223999500Y-100850000D01*
X229943433Y-100850000D01*
X229951531Y-100850530D01*
X230037184Y-100861807D01*
X230060723Y-100864906D01*
X230091991Y-100873284D01*
X230182418Y-100910740D01*
X230210452Y-100926925D01*
X230288102Y-100986509D01*
X230310990Y-101009397D01*
X230325900Y-101028828D01*
X230370574Y-101087048D01*
X230386759Y-101115081D01*
X230424215Y-101205508D01*
X230432593Y-101236776D01*
X230446968Y-101345964D01*
X230447499Y-101354066D01*
X230447499Y-104095933D01*
X230446968Y-104104035D01*
X230432593Y-104213223D01*
X230424215Y-104244491D01*
X230386759Y-104334918D01*
X230370574Y-104362951D01*
X230310991Y-104440601D01*
X230288101Y-104463491D01*
X230210451Y-104523074D01*
X230182418Y-104539259D01*
X230091991Y-104576715D01*
X230060724Y-104585093D01*
X229972283Y-104596737D01*
X229951531Y-104599469D01*
X229943434Y-104600000D01*
X89306253Y-104600000D01*
X89239214Y-104580315D01*
X89193459Y-104527511D01*
X89183515Y-104458353D01*
X89199521Y-104412879D01*
X89229048Y-104362951D01*
X89260128Y-104310398D01*
X89305982Y-104152569D01*
X89308884Y-104115694D01*
X89308884Y-102543102D01*
X91747000Y-102543102D01*
X91750499Y-102572238D01*
X91757622Y-102631561D01*
X91757622Y-102631563D01*
X91757623Y-102631564D01*
X91769141Y-102660772D01*
X91813139Y-102772343D01*
X91903061Y-102890922D01*
X91904578Y-102892922D01*
X91917938Y-102903053D01*
X92018178Y-102979068D01*
X92059701Y-103035261D01*
X92064252Y-103104982D01*
X92060294Y-103118826D01*
X92024632Y-103220742D01*
X92024630Y-103220750D01*
X92004435Y-103399996D01*
X92004435Y-103400003D01*
X92024630Y-103579249D01*
X92024631Y-103579254D01*
X92084211Y-103749523D01*
X92148034Y-103851096D01*
X92180184Y-103902262D01*
X92307738Y-104029816D01*
X92460478Y-104125789D01*
X92630745Y-104185368D01*
X92630750Y-104185369D01*
X92809996Y-104205565D01*
X92810000Y-104205565D01*
X92810004Y-104205565D01*
X92989249Y-104185369D01*
X92989252Y-104185368D01*
X92989255Y-104185368D01*
X93159522Y-104125789D01*
X93312262Y-104029816D01*
X93439816Y-103902262D01*
X93473345Y-103848901D01*
X160435032Y-103848901D01*
X160443432Y-103863868D01*
X160445054Y-103872235D01*
X160460604Y-103970410D01*
X160460035Y-103970499D01*
X160460332Y-103971978D01*
X160467852Y-103978801D01*
X160472510Y-103987134D01*
X160508373Y-104057519D01*
X160509993Y-104060699D01*
X160509998Y-104060706D01*
X160589292Y-104140000D01*
X160589295Y-104140002D01*
X160589298Y-104140005D01*
X160689227Y-104190921D01*
X160689229Y-104190922D01*
X160799997Y-104208466D01*
X160799999Y-104208466D01*
X160800001Y-104208466D01*
X160910768Y-104190922D01*
X160910769Y-104190921D01*
X160910771Y-104190921D01*
X161010700Y-104140005D01*
X161090004Y-104060701D01*
X161127484Y-103987141D01*
X161139086Y-103974856D01*
X161139964Y-103970501D01*
X161139394Y-103970411D01*
X161154943Y-103872238D01*
X161164964Y-103851096D01*
X161163732Y-103848901D01*
X170435033Y-103848901D01*
X170443433Y-103863868D01*
X170445055Y-103872235D01*
X170460605Y-103970410D01*
X170460036Y-103970499D01*
X170460333Y-103971978D01*
X170467853Y-103978801D01*
X170472511Y-103987134D01*
X170508374Y-104057519D01*
X170509994Y-104060699D01*
X170509999Y-104060706D01*
X170589293Y-104140000D01*
X170589296Y-104140002D01*
X170589299Y-104140005D01*
X170689228Y-104190921D01*
X170689230Y-104190922D01*
X170799998Y-104208466D01*
X170800000Y-104208466D01*
X170800002Y-104208466D01*
X170910769Y-104190922D01*
X170910770Y-104190921D01*
X170910772Y-104190921D01*
X171010701Y-104140005D01*
X171090005Y-104060701D01*
X171127485Y-103987141D01*
X171139087Y-103974856D01*
X171139965Y-103970501D01*
X171139395Y-103970411D01*
X171154944Y-103872238D01*
X171164965Y-103851096D01*
X171163733Y-103848901D01*
X180435033Y-103848901D01*
X180443433Y-103863868D01*
X180445055Y-103872235D01*
X180460605Y-103970410D01*
X180460036Y-103970499D01*
X180460333Y-103971978D01*
X180467853Y-103978801D01*
X180472511Y-103987134D01*
X180508374Y-104057519D01*
X180509994Y-104060699D01*
X180509999Y-104060706D01*
X180589293Y-104140000D01*
X180589296Y-104140002D01*
X180589299Y-104140005D01*
X180689228Y-104190921D01*
X180689230Y-104190922D01*
X180799998Y-104208466D01*
X180800000Y-104208466D01*
X180800002Y-104208466D01*
X180910769Y-104190922D01*
X180910770Y-104190921D01*
X180910772Y-104190921D01*
X181010701Y-104140005D01*
X181090005Y-104060701D01*
X181127485Y-103987141D01*
X181139087Y-103974856D01*
X181139965Y-103970501D01*
X181139395Y-103970411D01*
X181154944Y-103872238D01*
X181164965Y-103851096D01*
X181163733Y-103848901D01*
X190435033Y-103848901D01*
X190443433Y-103863868D01*
X190445055Y-103872235D01*
X190460605Y-103970410D01*
X190460036Y-103970499D01*
X190460333Y-103971978D01*
X190467853Y-103978801D01*
X190472511Y-103987134D01*
X190508374Y-104057519D01*
X190509994Y-104060699D01*
X190509999Y-104060706D01*
X190589293Y-104140000D01*
X190589296Y-104140002D01*
X190589299Y-104140005D01*
X190689228Y-104190921D01*
X190689230Y-104190922D01*
X190799998Y-104208466D01*
X190800000Y-104208466D01*
X190800002Y-104208466D01*
X190910769Y-104190922D01*
X190910770Y-104190921D01*
X190910772Y-104190921D01*
X191010701Y-104140005D01*
X191090005Y-104060701D01*
X191127485Y-103987141D01*
X191139087Y-103974856D01*
X191139965Y-103970501D01*
X191139395Y-103970411D01*
X191154944Y-103872238D01*
X191164965Y-103851096D01*
X191163733Y-103848901D01*
X200435033Y-103848901D01*
X200443433Y-103863868D01*
X200445055Y-103872235D01*
X200460605Y-103970410D01*
X200460036Y-103970499D01*
X200460333Y-103971978D01*
X200467853Y-103978801D01*
X200472511Y-103987134D01*
X200508374Y-104057519D01*
X200509994Y-104060699D01*
X200509999Y-104060706D01*
X200589293Y-104140000D01*
X200589296Y-104140002D01*
X200589299Y-104140005D01*
X200689228Y-104190921D01*
X200689230Y-104190922D01*
X200799998Y-104208466D01*
X200800000Y-104208466D01*
X200800002Y-104208466D01*
X200910769Y-104190922D01*
X200910770Y-104190921D01*
X200910772Y-104190921D01*
X201010701Y-104140005D01*
X201090005Y-104060701D01*
X201127485Y-103987141D01*
X201139087Y-103974856D01*
X201139965Y-103970501D01*
X201139395Y-103970411D01*
X201154944Y-103872238D01*
X201164965Y-103851096D01*
X201163733Y-103848901D01*
X210435033Y-103848901D01*
X210443433Y-103863868D01*
X210445055Y-103872235D01*
X210460605Y-103970410D01*
X210460036Y-103970499D01*
X210460333Y-103971978D01*
X210467853Y-103978801D01*
X210472511Y-103987134D01*
X210508374Y-104057519D01*
X210509994Y-104060699D01*
X210509999Y-104060706D01*
X210589293Y-104140000D01*
X210589296Y-104140002D01*
X210589299Y-104140005D01*
X210689228Y-104190921D01*
X210689230Y-104190922D01*
X210799998Y-104208466D01*
X210800000Y-104208466D01*
X210800002Y-104208466D01*
X210910769Y-104190922D01*
X210910770Y-104190921D01*
X210910772Y-104190921D01*
X211010701Y-104140005D01*
X211090005Y-104060701D01*
X211127485Y-103987141D01*
X211139087Y-103974856D01*
X211139965Y-103970501D01*
X211139395Y-103970411D01*
X211154944Y-103872238D01*
X211164965Y-103851096D01*
X211163733Y-103848901D01*
X220435033Y-103848901D01*
X220443433Y-103863868D01*
X220445055Y-103872235D01*
X220460605Y-103970410D01*
X220460036Y-103970499D01*
X220460333Y-103971978D01*
X220467853Y-103978801D01*
X220472511Y-103987134D01*
X220508374Y-104057519D01*
X220509994Y-104060699D01*
X220509999Y-104060706D01*
X220589293Y-104140000D01*
X220589296Y-104140002D01*
X220589299Y-104140005D01*
X220689228Y-104190921D01*
X220689230Y-104190922D01*
X220799998Y-104208466D01*
X220800000Y-104208466D01*
X220800002Y-104208466D01*
X220910769Y-104190922D01*
X220910770Y-104190921D01*
X220910772Y-104190921D01*
X221010701Y-104140005D01*
X221090005Y-104060701D01*
X221127485Y-103987141D01*
X221139087Y-103974856D01*
X221139965Y-103970501D01*
X221139395Y-103970411D01*
X221154944Y-103872238D01*
X221164965Y-103851096D01*
X221156565Y-103836128D01*
X221154949Y-103827795D01*
X221140921Y-103739228D01*
X221140920Y-103739227D01*
X221139394Y-103729588D01*
X221139964Y-103729497D01*
X221139666Y-103728017D01*
X221132142Y-103721190D01*
X221127482Y-103712853D01*
X221091626Y-103642481D01*
X221090005Y-103639299D01*
X221090002Y-103639296D01*
X221090000Y-103639293D01*
X221010706Y-103559999D01*
X221010702Y-103559996D01*
X221010701Y-103559995D01*
X220920876Y-103514227D01*
X220910769Y-103509077D01*
X220800002Y-103491534D01*
X220799998Y-103491534D01*
X220689230Y-103509077D01*
X220589300Y-103559994D01*
X220589293Y-103559999D01*
X220509999Y-103639293D01*
X220509996Y-103639298D01*
X220509995Y-103639299D01*
X220508374Y-103642481D01*
X220472516Y-103712856D01*
X220460913Y-103725140D01*
X220460038Y-103729500D01*
X220460605Y-103729590D01*
X220445055Y-103827762D01*
X220435033Y-103848901D01*
X211163733Y-103848901D01*
X211156565Y-103836128D01*
X211154949Y-103827795D01*
X211140921Y-103739228D01*
X211140920Y-103739227D01*
X211139394Y-103729588D01*
X211139964Y-103729497D01*
X211139666Y-103728017D01*
X211132142Y-103721190D01*
X211127482Y-103712853D01*
X211091626Y-103642481D01*
X211090005Y-103639299D01*
X211090002Y-103639296D01*
X211090000Y-103639293D01*
X211010706Y-103559999D01*
X211010702Y-103559996D01*
X211010701Y-103559995D01*
X210920876Y-103514227D01*
X210910769Y-103509077D01*
X210800002Y-103491534D01*
X210799998Y-103491534D01*
X210689230Y-103509077D01*
X210589300Y-103559994D01*
X210589293Y-103559999D01*
X210509999Y-103639293D01*
X210509996Y-103639298D01*
X210509995Y-103639299D01*
X210508374Y-103642481D01*
X210472516Y-103712856D01*
X210460913Y-103725140D01*
X210460038Y-103729500D01*
X210460605Y-103729590D01*
X210445055Y-103827762D01*
X210435033Y-103848901D01*
X201163733Y-103848901D01*
X201156565Y-103836128D01*
X201154949Y-103827795D01*
X201140921Y-103739228D01*
X201140920Y-103739227D01*
X201139394Y-103729588D01*
X201139964Y-103729497D01*
X201139666Y-103728017D01*
X201132142Y-103721190D01*
X201127482Y-103712853D01*
X201091626Y-103642481D01*
X201090005Y-103639299D01*
X201090002Y-103639296D01*
X201090000Y-103639293D01*
X201010706Y-103559999D01*
X201010702Y-103559996D01*
X201010701Y-103559995D01*
X200920876Y-103514227D01*
X200910769Y-103509077D01*
X200800002Y-103491534D01*
X200799998Y-103491534D01*
X200689230Y-103509077D01*
X200589300Y-103559994D01*
X200589293Y-103559999D01*
X200509999Y-103639293D01*
X200509996Y-103639298D01*
X200509995Y-103639299D01*
X200508374Y-103642481D01*
X200472516Y-103712856D01*
X200460913Y-103725140D01*
X200460038Y-103729500D01*
X200460605Y-103729590D01*
X200445055Y-103827762D01*
X200435033Y-103848901D01*
X191163733Y-103848901D01*
X191156565Y-103836128D01*
X191154949Y-103827795D01*
X191140921Y-103739228D01*
X191140920Y-103739227D01*
X191139394Y-103729588D01*
X191139964Y-103729497D01*
X191139666Y-103728017D01*
X191132142Y-103721190D01*
X191127482Y-103712853D01*
X191091626Y-103642481D01*
X191090005Y-103639299D01*
X191090002Y-103639296D01*
X191090000Y-103639293D01*
X191010706Y-103559999D01*
X191010702Y-103559996D01*
X191010701Y-103559995D01*
X190920876Y-103514227D01*
X190910769Y-103509077D01*
X190800002Y-103491534D01*
X190799998Y-103491534D01*
X190689230Y-103509077D01*
X190589300Y-103559994D01*
X190589293Y-103559999D01*
X190509999Y-103639293D01*
X190509996Y-103639298D01*
X190509995Y-103639299D01*
X190508374Y-103642481D01*
X190472516Y-103712856D01*
X190460913Y-103725140D01*
X190460038Y-103729500D01*
X190460605Y-103729590D01*
X190445055Y-103827762D01*
X190435033Y-103848901D01*
X181163733Y-103848901D01*
X181156565Y-103836128D01*
X181154949Y-103827795D01*
X181140921Y-103739228D01*
X181140920Y-103739227D01*
X181139394Y-103729588D01*
X181139964Y-103729497D01*
X181139666Y-103728017D01*
X181132142Y-103721190D01*
X181127482Y-103712853D01*
X181091626Y-103642481D01*
X181090005Y-103639299D01*
X181090002Y-103639296D01*
X181090000Y-103639293D01*
X181010706Y-103559999D01*
X181010702Y-103559996D01*
X181010701Y-103559995D01*
X180920876Y-103514227D01*
X180910769Y-103509077D01*
X180800002Y-103491534D01*
X180799998Y-103491534D01*
X180689230Y-103509077D01*
X180589300Y-103559994D01*
X180589293Y-103559999D01*
X180509999Y-103639293D01*
X180509996Y-103639298D01*
X180509995Y-103639299D01*
X180508374Y-103642481D01*
X180472516Y-103712856D01*
X180460913Y-103725140D01*
X180460038Y-103729500D01*
X180460605Y-103729590D01*
X180445055Y-103827762D01*
X180435033Y-103848901D01*
X171163733Y-103848901D01*
X171156565Y-103836128D01*
X171154949Y-103827795D01*
X171140921Y-103739228D01*
X171140920Y-103739227D01*
X171139394Y-103729588D01*
X171139964Y-103729497D01*
X171139666Y-103728017D01*
X171132142Y-103721190D01*
X171127482Y-103712853D01*
X171091626Y-103642481D01*
X171090005Y-103639299D01*
X171090002Y-103639296D01*
X171090000Y-103639293D01*
X171010706Y-103559999D01*
X171010702Y-103559996D01*
X171010701Y-103559995D01*
X170920876Y-103514227D01*
X170910769Y-103509077D01*
X170800002Y-103491534D01*
X170799998Y-103491534D01*
X170689230Y-103509077D01*
X170589300Y-103559994D01*
X170589293Y-103559999D01*
X170509999Y-103639293D01*
X170509996Y-103639298D01*
X170509995Y-103639299D01*
X170508374Y-103642481D01*
X170472516Y-103712856D01*
X170460913Y-103725140D01*
X170460038Y-103729500D01*
X170460605Y-103729590D01*
X170445055Y-103827762D01*
X170435033Y-103848901D01*
X161163732Y-103848901D01*
X161156564Y-103836128D01*
X161154948Y-103827795D01*
X161140920Y-103739228D01*
X161140919Y-103739227D01*
X161139393Y-103729588D01*
X161139963Y-103729497D01*
X161139665Y-103728017D01*
X161132141Y-103721190D01*
X161127481Y-103712853D01*
X161091625Y-103642481D01*
X161090004Y-103639299D01*
X161090001Y-103639296D01*
X161089999Y-103639293D01*
X161010705Y-103559999D01*
X161010701Y-103559996D01*
X161010700Y-103559995D01*
X160920875Y-103514227D01*
X160910768Y-103509077D01*
X160800001Y-103491534D01*
X160799997Y-103491534D01*
X160689229Y-103509077D01*
X160589299Y-103559994D01*
X160589292Y-103559999D01*
X160509998Y-103639293D01*
X160509995Y-103639298D01*
X160509994Y-103639299D01*
X160508373Y-103642481D01*
X160472515Y-103712856D01*
X160460912Y-103725140D01*
X160460037Y-103729500D01*
X160460604Y-103729590D01*
X160445054Y-103827762D01*
X160435032Y-103848901D01*
X93473345Y-103848901D01*
X93535789Y-103749522D01*
X93595368Y-103579255D01*
X93615565Y-103400000D01*
X93595368Y-103220745D01*
X93559705Y-103118826D01*
X93556144Y-103049047D01*
X93590873Y-102988419D01*
X93601812Y-102979074D01*
X93715422Y-102892922D01*
X93806861Y-102772342D01*
X93832146Y-102708223D01*
X93875051Y-102653081D01*
X93940959Y-102629888D01*
X94008943Y-102646008D01*
X94057420Y-102696325D01*
X94062850Y-102708214D01*
X94078386Y-102747612D01*
X94088139Y-102772343D01*
X94179577Y-102892922D01*
X94300156Y-102984360D01*
X94300157Y-102984360D01*
X94300158Y-102984361D01*
X94440936Y-103039877D01*
X94529398Y-103050500D01*
X94529403Y-103050500D01*
X95640597Y-103050500D01*
X95640602Y-103050500D01*
X95729064Y-103039877D01*
X95869842Y-102984361D01*
X95990422Y-102892922D01*
X96081861Y-102772342D01*
X96137377Y-102631564D01*
X96148000Y-102543102D01*
X96148000Y-102156898D01*
X96137377Y-102068436D01*
X96081861Y-101927658D01*
X96081860Y-101927657D01*
X96081860Y-101927656D01*
X95990422Y-101807077D01*
X95869843Y-101715639D01*
X95729061Y-101660122D01*
X95683426Y-101654642D01*
X95640602Y-101649500D01*
X94529398Y-101649500D01*
X94490353Y-101654188D01*
X94440938Y-101660122D01*
X94300156Y-101715639D01*
X94179577Y-101807077D01*
X94088138Y-101927658D01*
X94088137Y-101927660D01*
X94062854Y-101991774D01*
X94019949Y-102046918D01*
X93954041Y-102070111D01*
X93886056Y-102053990D01*
X93837580Y-102003673D01*
X93832146Y-101991774D01*
X93806862Y-101927660D01*
X93806861Y-101927658D01*
X93715422Y-101807077D01*
X93594843Y-101715639D01*
X93454061Y-101660122D01*
X93408426Y-101654642D01*
X93365602Y-101649500D01*
X92254398Y-101649500D01*
X92215353Y-101654188D01*
X92165938Y-101660122D01*
X92025156Y-101715639D01*
X91904577Y-101807077D01*
X91813139Y-101927656D01*
X91757622Y-102068438D01*
X91751688Y-102117853D01*
X91747000Y-102156898D01*
X91747000Y-102543102D01*
X89308884Y-102543102D01*
X89308884Y-101984306D01*
X89305982Y-101947431D01*
X89300237Y-101927658D01*
X89260129Y-101789606D01*
X89260128Y-101789603D01*
X89260128Y-101789602D01*
X89176465Y-101648135D01*
X89176462Y-101648132D01*
X89171682Y-101641969D01*
X89172676Y-101641197D01*
X89142978Y-101586809D01*
X89147962Y-101517117D01*
X89176460Y-101472773D01*
X89562415Y-101086819D01*
X89623739Y-101053334D01*
X89650097Y-101050500D01*
X89653829Y-101050500D01*
X89720868Y-101070185D01*
X89751809Y-101098501D01*
X89754419Y-101101866D01*
X89870629Y-101218076D01*
X89870633Y-101218079D01*
X89870635Y-101218081D01*
X90012102Y-101301744D01*
X90053724Y-101313836D01*
X90169926Y-101347597D01*
X90169929Y-101347597D01*
X90169931Y-101347598D01*
X90206806Y-101350500D01*
X90206814Y-101350500D01*
X91288186Y-101350500D01*
X91288194Y-101350500D01*
X91325069Y-101347598D01*
X91325071Y-101347597D01*
X91325073Y-101347597D01*
X91395929Y-101327011D01*
X91482898Y-101301744D01*
X91624365Y-101218081D01*
X91740581Y-101101865D01*
X91740581Y-101101863D01*
X91743191Y-101098501D01*
X91745908Y-101096538D01*
X91746098Y-101096349D01*
X91746128Y-101096379D01*
X91799833Y-101057593D01*
X91841171Y-101050500D01*
X91938807Y-101050500D01*
X92005846Y-101070185D01*
X92013725Y-101075691D01*
X92025158Y-101084361D01*
X92165936Y-101139877D01*
X92254398Y-101150500D01*
X92254403Y-101150500D01*
X93365597Y-101150500D01*
X93365602Y-101150500D01*
X93454064Y-101139877D01*
X93594842Y-101084361D01*
X93715422Y-100992922D01*
X93737071Y-100964374D01*
X93786589Y-100899075D01*
X93842782Y-100857551D01*
X93885393Y-100850000D01*
X94009607Y-100850000D01*
X94076646Y-100869685D01*
G37*
%TD.AperFunction*%
%TD*%
M02*
