M48
; DRILL file {KiCad 7.0.5-0} date 2024 May 11, Saturday 15:05:46
; FORMAT={-:-/ absolute / inch / decimal}
; #@! TF.CreationDate,2024-05-11T15:05:46-06:00
; #@! TF.GenerationSoftware,Kicad,Pcbnew,7.0.5-0
; #@! TF.FileFunction,Plated,1,2,PTH
FMAT,2
INCH
; #@! TA.AperFunction,Plated,PTH,ViaDrill
T1C0.0157
; #@! TA.AperFunction,Plated,PTH,ComponentDrill
T2C0.0197
; #@! TA.AperFunction,Plated,PTH,ComponentDrill
T3C0.0217
; #@! TA.AperFunction,Plated,PTH,ComponentDrill
T4C0.0295
; #@! TA.AperFunction,Plated,PTH,ComponentDrill
T5C0.0354
; #@! TA.AperFunction,Plated,PTH,ComponentDrill
T6C0.0394
; #@! TA.AperFunction,Plated,PTH,ComponentDrill
T7C0.0591
%
G90
G05
T1
X3.3771Y-3.7417
X3.3934Y-3.7785
X3.4897Y-3.3169
X3.5295Y-3.8337
X3.5688Y-3.2598
X3.5708Y-4.0866
X3.6042Y-3.8339
X3.6525Y-3.8661
X3.6539Y-3.9173
X3.6539Y-4.0709
X3.6987Y-3.7441
X3.6987Y-3.9921
X3.6996Y-3.5697
X3.7004Y-3.4161
X3.7713Y-3.4447
X3.8102Y-3.451
X3.8437Y-3.4038
X3.8889Y-3.5965
X3.8901Y-3.9197
X3.9192Y-3.7402
X3.9212Y-3.8661
X3.9318Y-3.5724
X3.9473Y-3.6384
X4.0003Y-3.3031
X4.0046Y-3.6547
X4.0626Y-3.9382
X4.0739Y-3.0894
X4.0983Y-3.4646
X4.1743Y-3.5614
X4.1743Y-3.6488
X4.2029Y-3.7871
X4.2924Y-3.4811
X4.318Y-3.5403
X4.326Y-3.6194
X4.3306Y-3.44
X4.3361Y-3.7155
X4.3397Y-3.7555
X4.3922Y-3.8613
X4.4085Y-3.6349
X4.4489Y-3.6201
X4.4649Y-3.9528
X4.5236Y-3.6423
X4.5305Y-3.8907
X4.6016Y-3.5386
X4.6293Y-3.5101
X4.6535Y-3.4417
X4.6564Y-3.9843
X4.6574Y-3.94
X4.6602Y-3.5374
X4.6609Y-3.4803
X4.7144Y-3.8022
X4.746Y-3.5795
X4.7519Y-3.6791
X4.7735Y-3.7205
X4.7963Y-3.5973
X4.8247Y-3.6258
X4.8261Y-3.6676
X4.8563Y-3.9508
X4.9271Y-3.8592
X4.9728Y-3.9016
X5.0078Y-3.3346
X5.0497Y-3.9843
X5.1102Y-3.4744
X5.1102Y-3.5138
X5.1102Y-3.5532
X5.1102Y-3.5926
X5.1102Y-3.6772
X5.1102Y-3.7126
X5.1102Y-3.7481
X5.1318Y-3.443
X5.1712Y-3.443
X5.2303Y-3.443
X5.248Y-3.9508
X5.2697Y-3.443
X5.2814Y-3.7185
X5.2814Y-3.754
X5.2933Y-3.4744
X5.2933Y-3.5138
X5.3169Y-3.7185
X5.3169Y-3.754
X5.3345Y-3.8543
X5.3465Y-4.063
X5.368Y-3.9016
X5.4434Y-3.9843
X5.6417Y-3.9508
X5.7273Y-3.8543
X5.7402Y-4.063
X5.7617Y-3.9016
X5.8366Y-3.9843
X6.0354Y-3.9508
X6.118Y-3.8543
X6.1339Y-4.063
X6.1574Y-3.9016
X6.4291Y-3.9508
X6.5137Y-3.8543
X6.5276Y-4.063
X6.5491Y-3.9016
X6.8228Y-3.9508
X6.9015Y-3.8543
X6.9134Y-4.063
X6.9428Y-3.9016
X7.2165Y-3.9508
X7.2952Y-3.8543
X7.315Y-4.063
X7.3345Y-3.9016
X7.6102Y-3.9508
X7.6908Y-3.8543
X7.7087Y-4.063
X7.7302Y-3.9016
X8.0039Y-3.9508
X8.0845Y-3.8543
X8.1024Y-4.063
X8.1239Y-3.9016
X8.3976Y-3.9508
X8.4782Y-3.8543
X8.4961Y-4.063
X8.5176Y-3.9016
X8.7913Y-3.9508
X8.8719Y-3.8543
X8.8898Y-4.063
X8.9113Y-3.9016
T4
X5.0881Y-3.1969
X5.1668Y-3.1969
T5
X3.4015Y-3.4287
X3.4015Y-3.5075
X3.4015Y-3.5862
T6
X3.5019Y-3.0157
X3.5019Y-3.1157
X4.2656Y-3.9516
X4.266Y-4.0516
X4.8192Y-3.2587
X4.8192Y-3.3587
X4.8192Y-3.4587
X4.9192Y-3.2587
X4.9192Y-3.3587
X4.9192Y-3.4587
X5.0397Y-3.4607
X5.0397Y-3.5591
X5.0397Y-3.7077
X5.3212Y-3.6426
T7
X3.4015Y-3.3461
X3.4015Y-3.6689
T2
G00X3.2435Y-3.8031
M15
G01X3.2691Y-3.8031
M16
G05
G00X3.2691Y-4.0787
M15
G01X3.2435Y-4.0787
M16
G05
T3
G00X3.3626Y-3.8366
M15
G01X3.3626Y-3.8484
M16
G05
G00X3.3626Y-4.0335
M15
G01X3.3626Y-4.0453
M16
G05
T0
M30
