%TF.GenerationSoftware,KiCad,Pcbnew,7.0.5-0*%
%TF.CreationDate,2024-04-01T11:26:04-06:00*%
%TF.ProjectId,rainbow-music-pegasus,7261696e-626f-4772-9d6d-757369632d70,rev?*%
%TF.SameCoordinates,Original*%
%TF.FileFunction,Profile,NP*%
%FSLAX46Y46*%
G04 Gerber Fmt 4.6, Leading zero omitted, Abs format (unit mm)*
G04 Created by KiCad (PCBNEW 7.0.5-0) date 2024-04-01 11:26:04*
%MOMM*%
%LPD*%
G01*
G04 APERTURE LIST*
%TA.AperFunction,Profile*%
%ADD10C,0.100000*%
%TD*%
G04 APERTURE END LIST*
D10*
X231947500Y-105100000D02*
X80947500Y-105100000D01*
X171153553Y-103850000D02*
G75*
G03*
X171153553Y-103850000I-353553J0D01*
G01*
X161153552Y-102550000D02*
G75*
G03*
X161153552Y-102550000I-353553J0D01*
G01*
X86947500Y-74600000D02*
X90947500Y-74600000D01*
X161153552Y-97350000D02*
G75*
G03*
X161153552Y-97350000I-353553J0D01*
G01*
X191153553Y-99950000D02*
G75*
G03*
X191153553Y-99950000I-353553J0D01*
G01*
X161153552Y-99950000D02*
G75*
G03*
X161153552Y-99950000I-353553J0D01*
G01*
X221153553Y-97350000D02*
G75*
G03*
X221153553Y-97350000I-353553J0D01*
G01*
X171153553Y-98650000D02*
G75*
G03*
X171153553Y-98650000I-353553J0D01*
G01*
X201153553Y-101250000D02*
G75*
G03*
X201153553Y-101250000I-353553J0D01*
G01*
X221153553Y-102550000D02*
G75*
G03*
X221153553Y-102550000I-353553J0D01*
G01*
X90947500Y-74600000D02*
X90947500Y-74600000D01*
X80947500Y-95100000D02*
X80947500Y-105100000D01*
X181153553Y-101250000D02*
G75*
G03*
X181153553Y-101250000I-353553J0D01*
G01*
X221153553Y-99950000D02*
G75*
G03*
X221153553Y-99950000I-353553J0D01*
G01*
X201153553Y-97350000D02*
G75*
G03*
X201153553Y-97350000I-353553J0D01*
G01*
X171153553Y-102550000D02*
G75*
G03*
X171153553Y-102550000I-353553J0D01*
G01*
X191153553Y-103850000D02*
G75*
G03*
X191153553Y-103850000I-353553J0D01*
G01*
X211153553Y-97350000D02*
G75*
G03*
X211153553Y-97350000I-353553J0D01*
G01*
X83947500Y-95100000D02*
X80947500Y-95100000D01*
X171153553Y-97350000D02*
G75*
G03*
X171153553Y-97350000I-353553J0D01*
G01*
X221153553Y-103850000D02*
G75*
G03*
X221153553Y-103850000I-353553J0D01*
G01*
X90947500Y-77100000D02*
X122447500Y-77100000D01*
X141447500Y-96100000D02*
G75*
G03*
X122447500Y-77100000I-19000000J0D01*
G01*
X211153553Y-99950000D02*
G75*
G03*
X211153553Y-99950000I-353553J0D01*
G01*
X191153553Y-98650000D02*
G75*
G03*
X191153553Y-98650000I-353553J0D01*
G01*
X211153553Y-103850000D02*
G75*
G03*
X211153553Y-103850000I-353553J0D01*
G01*
X201153553Y-103850000D02*
G75*
G03*
X201153553Y-103850000I-353553J0D01*
G01*
X201153553Y-102550000D02*
G75*
G03*
X201153553Y-102550000I-353553J0D01*
G01*
X191153553Y-102550000D02*
G75*
G03*
X191153553Y-102550000I-353553J0D01*
G01*
X211153553Y-101250000D02*
G75*
G03*
X211153553Y-101250000I-353553J0D01*
G01*
X83947500Y-95100000D02*
X83947500Y-83100000D01*
X221153553Y-98650000D02*
G75*
G03*
X221153553Y-98650000I-353553J0D01*
G01*
X161153552Y-103850000D02*
G75*
G03*
X161153552Y-103850000I-353553J0D01*
G01*
X181153553Y-99950000D02*
G75*
G03*
X181153553Y-99950000I-353553J0D01*
G01*
X83947500Y-83100000D02*
X86947500Y-83100000D01*
X181153553Y-97350000D02*
G75*
G03*
X181153553Y-97350000I-353553J0D01*
G01*
X231947500Y-96100000D02*
X231947500Y-105100000D01*
X171153553Y-101250000D02*
G75*
G03*
X171153553Y-101250000I-353553J0D01*
G01*
X221153553Y-101250000D02*
G75*
G03*
X221153553Y-101250000I-353553J0D01*
G01*
X181153553Y-98650000D02*
G75*
G03*
X181153553Y-98650000I-353553J0D01*
G01*
X211153553Y-102550000D02*
G75*
G03*
X211153553Y-102550000I-353553J0D01*
G01*
X161153552Y-101250000D02*
G75*
G03*
X161153552Y-101250000I-353553J0D01*
G01*
X90947500Y-74600000D02*
X90947500Y-77100000D01*
X161153552Y-98650000D02*
G75*
G03*
X161153552Y-98650000I-353553J0D01*
G01*
X191153553Y-97350000D02*
G75*
G03*
X191153553Y-97350000I-353553J0D01*
G01*
X171153553Y-99950000D02*
G75*
G03*
X171153553Y-99950000I-353553J0D01*
G01*
X201153553Y-99950000D02*
G75*
G03*
X201153553Y-99950000I-353553J0D01*
G01*
X181153553Y-103850000D02*
G75*
G03*
X181153553Y-103850000I-353553J0D01*
G01*
X191153553Y-101250000D02*
G75*
G03*
X191153553Y-101250000I-353553J0D01*
G01*
X181153553Y-102550000D02*
G75*
G03*
X181153553Y-102550000I-353553J0D01*
G01*
X201153553Y-98650000D02*
G75*
G03*
X201153553Y-98650000I-353553J0D01*
G01*
X86947500Y-83100000D02*
X86947500Y-74600000D01*
X211153553Y-98650000D02*
G75*
G03*
X211153553Y-98650000I-353553J0D01*
G01*
X141447500Y-96100000D02*
X231947500Y-96100000D01*
M02*
