%TF.GenerationSoftware,KiCad,Pcbnew,7.0.5-0*%
%TF.CreationDate,2024-02-11T15:46:52-07:00*%
%TF.ProjectId,rainbow-music-pegasus,7261696e-626f-4772-9d6d-757369632d70,rev?*%
%TF.SameCoordinates,Original*%
%TF.FileFunction,Paste,Bot*%
%TF.FilePolarity,Positive*%
%FSLAX46Y46*%
G04 Gerber Fmt 4.6, Leading zero omitted, Abs format (unit mm)*
G04 Created by KiCad (PCBNEW 7.0.5-0) date 2024-02-11 15:46:52*
%MOMM*%
%LPD*%
G01*
G04 APERTURE LIST*
G04 Aperture macros list*
%AMRoundRect*
0 Rectangle with rounded corners*
0 $1 Rounding radius*
0 $2 $3 $4 $5 $6 $7 $8 $9 X,Y pos of 4 corners*
0 Add a 4 corners polygon primitive as box body*
4,1,4,$2,$3,$4,$5,$6,$7,$8,$9,$2,$3,0*
0 Add four circle primitives for the rounded corners*
1,1,$1+$1,$2,$3*
1,1,$1+$1,$4,$5*
1,1,$1+$1,$6,$7*
1,1,$1+$1,$8,$9*
0 Add four rect primitives between the rounded corners*
20,1,$1+$1,$2,$3,$4,$5,0*
20,1,$1+$1,$4,$5,$6,$7,0*
20,1,$1+$1,$6,$7,$8,$9,0*
20,1,$1+$1,$8,$9,$2,$3,0*%
G04 Aperture macros list end*
%ADD10R,1.500000X0.900000*%
%ADD11RoundRect,0.225000X0.250000X-0.225000X0.250000X0.225000X-0.250000X0.225000X-0.250000X-0.225000X0*%
G04 APERTURE END LIST*
D10*
%TO.C,D16*%
X178250000Y-98950000D03*
X178250000Y-102250000D03*
X173350000Y-102250000D03*
X173350000Y-98950000D03*
%TD*%
D11*
%TO.C,C28*%
X189747500Y-101375000D03*
X189747500Y-99825000D03*
%TD*%
D10*
%TO.C,D2*%
X108250000Y-98950000D03*
X108250000Y-102250000D03*
X103350000Y-102250000D03*
X103350000Y-98950000D03*
%TD*%
D11*
%TO.C,C12*%
X109847500Y-101375000D03*
X109847500Y-99825000D03*
%TD*%
D10*
%TO.C,D14*%
X168250000Y-98950000D03*
X168250000Y-102250000D03*
X163350000Y-102250000D03*
X163350000Y-98950000D03*
%TD*%
%TO.C,D10*%
X148250000Y-98950000D03*
X148250000Y-102250000D03*
X143350000Y-102250000D03*
X143350000Y-98950000D03*
%TD*%
D11*
%TO.C,C22*%
X159747500Y-101375000D03*
X159747500Y-99825000D03*
%TD*%
D10*
%TO.C,D22*%
X208250000Y-98950000D03*
X208250000Y-102250000D03*
X203350000Y-102250000D03*
X203350000Y-98950000D03*
%TD*%
D11*
%TO.C,C18*%
X139747500Y-101375000D03*
X139747500Y-99825000D03*
%TD*%
%TO.C,C32*%
X209760000Y-101375000D03*
X209760000Y-99825000D03*
%TD*%
D10*
%TO.C,D12*%
X158250000Y-98950000D03*
X158250000Y-102250000D03*
X153350000Y-102250000D03*
X153350000Y-98950000D03*
%TD*%
D11*
%TO.C,C14*%
X119747500Y-101375000D03*
X119747500Y-99825000D03*
%TD*%
D10*
%TO.C,D8*%
X138250000Y-98950000D03*
X138250000Y-102250000D03*
X133350000Y-102250000D03*
X133350000Y-98950000D03*
%TD*%
%TO.C,D4*%
X118250000Y-98950000D03*
X118250000Y-102250000D03*
X113350000Y-102250000D03*
X113350000Y-98950000D03*
%TD*%
D11*
%TO.C,C34*%
X219750000Y-101375000D03*
X219750000Y-99825000D03*
%TD*%
%TO.C,C26*%
X169747500Y-101375000D03*
X169747500Y-99825000D03*
%TD*%
%TO.C,C30*%
X199750000Y-101375000D03*
X199750000Y-99825000D03*
%TD*%
%TO.C,C20*%
X149747500Y-101375000D03*
X149747500Y-99825000D03*
%TD*%
D10*
%TO.C,D18*%
X188250000Y-98950000D03*
X188250000Y-102250000D03*
X183350000Y-102250000D03*
X183350000Y-98950000D03*
%TD*%
D11*
%TO.C,C24*%
X179747500Y-101375000D03*
X179747500Y-99825000D03*
%TD*%
%TO.C,C16*%
X129747500Y-101375000D03*
X129747500Y-99825000D03*
%TD*%
D10*
%TO.C,D6*%
X128250000Y-98950000D03*
X128250000Y-102250000D03*
X123350000Y-102250000D03*
X123350000Y-98950000D03*
%TD*%
%TO.C,D24*%
X218250000Y-98950000D03*
X218250000Y-102250000D03*
X213350000Y-102250000D03*
X213350000Y-98950000D03*
%TD*%
%TO.C,D20*%
X198250000Y-98950000D03*
X198250000Y-102250000D03*
X193350000Y-102250000D03*
X193350000Y-98950000D03*
%TD*%
M02*
