%TF.GenerationSoftware,KiCad,Pcbnew,7.0.5-0*%
%TF.CreationDate,2024-02-12T14:58:35-07:00*%
%TF.ProjectId,rainbow-music-pegasus,7261696e-626f-4772-9d6d-757369632d70,rev?*%
%TF.SameCoordinates,Original*%
%TF.FileFunction,Soldermask,Top*%
%TF.FilePolarity,Negative*%
%FSLAX46Y46*%
G04 Gerber Fmt 4.6, Leading zero omitted, Abs format (unit mm)*
G04 Created by KiCad (PCBNEW 7.0.5-0) date 2024-02-12 14:58:35*
%MOMM*%
%LPD*%
G01*
G04 APERTURE LIST*
G04 Aperture macros list*
%AMRoundRect*
0 Rectangle with rounded corners*
0 $1 Rounding radius*
0 $2 $3 $4 $5 $6 $7 $8 $9 X,Y pos of 4 corners*
0 Add a 4 corners polygon primitive as box body*
4,1,4,$2,$3,$4,$5,$6,$7,$8,$9,$2,$3,0*
0 Add four circle primitives for the rounded corners*
1,1,$1+$1,$2,$3*
1,1,$1+$1,$4,$5*
1,1,$1+$1,$6,$7*
1,1,$1+$1,$8,$9*
0 Add four rect primitives between the rounded corners*
20,1,$1+$1,$2,$3,$4,$5,0*
20,1,$1+$1,$4,$5,$6,$7,0*
20,1,$1+$1,$6,$7,$8,$9,0*
20,1,$1+$1,$8,$9,$2,$3,0*%
%AMFreePoly0*
4,1,6,0.725000,-0.725000,-0.725000,-0.725000,-0.725000,0.125000,-0.125000,0.725000,0.725000,0.725000,0.725000,-0.725000,0.725000,-0.725000,$1*%
G04 Aperture macros list end*
%ADD10RoundRect,0.225000X-0.225000X-0.250000X0.225000X-0.250000X0.225000X0.250000X-0.225000X0.250000X0*%
%ADD11RoundRect,0.225000X0.250000X-0.225000X0.250000X0.225000X-0.250000X0.225000X-0.250000X-0.225000X0*%
%ADD12R,1.500000X0.900000*%
%ADD13RoundRect,0.250000X0.475000X-0.250000X0.475000X0.250000X-0.475000X0.250000X-0.475000X-0.250000X0*%
%ADD14RoundRect,0.250000X-0.250000X-0.475000X0.250000X-0.475000X0.250000X0.475000X-0.250000X0.475000X0*%
%ADD15O,3.500000X2.200000*%
%ADD16R,2.500000X1.500000*%
%ADD17O,2.500000X1.500000*%
%ADD18RoundRect,0.250000X0.262500X0.450000X-0.262500X0.450000X-0.262500X-0.450000X0.262500X-0.450000X0*%
%ADD19RoundRect,0.250000X-0.262500X-0.450000X0.262500X-0.450000X0.262500X0.450000X-0.262500X0.450000X0*%
%ADD20RoundRect,0.250000X1.250000X0.550000X-1.250000X0.550000X-1.250000X-0.550000X1.250000X-0.550000X0*%
%ADD21R,1.700000X1.700000*%
%ADD22O,1.700000X1.700000*%
%ADD23R,1.500000X1.500000*%
%ADD24RoundRect,0.250000X-0.450000X0.262500X-0.450000X-0.262500X0.450000X-0.262500X0.450000X0.262500X0*%
%ADD25RoundRect,0.150000X-0.512500X-0.150000X0.512500X-0.150000X0.512500X0.150000X-0.512500X0.150000X0*%
%ADD26RoundRect,0.250000X0.550000X-1.250000X0.550000X1.250000X-0.550000X1.250000X-0.550000X-1.250000X0*%
%ADD27C,0.700000*%
%ADD28C,4.400000*%
%ADD29RoundRect,0.150000X0.512500X0.150000X-0.512500X0.150000X-0.512500X-0.150000X0.512500X-0.150000X0*%
%ADD30RoundRect,0.250000X0.250000X0.475000X-0.250000X0.475000X-0.250000X-0.475000X0.250000X-0.475000X0*%
%ADD31R,0.800000X0.400000*%
%ADD32R,0.400000X0.800000*%
%ADD33FreePoly0,0.000000*%
%ADD34R,1.450000X1.450000*%
%ADD35R,0.700000X0.700000*%
%ADD36R,1.350000X0.400000*%
%ADD37O,1.550000X1.000000*%
%ADD38R,1.500000X1.200000*%
%ADD39O,0.950000X1.250000*%
%ADD40RoundRect,0.250000X0.450000X-0.262500X0.450000X0.262500X-0.450000X0.262500X-0.450000X-0.262500X0*%
%ADD41RoundRect,0.250000X-0.475000X0.250000X-0.475000X-0.250000X0.475000X-0.250000X0.475000X0.250000X0*%
G04 APERTURE END LIST*
D10*
%TO.C,C35*%
X90325000Y-93387500D03*
X91875000Y-93387500D03*
%TD*%
D11*
%TO.C,C19*%
X141847500Y-101375000D03*
X141847500Y-99825000D03*
%TD*%
D12*
%TO.C,D5*%
X123350000Y-98950000D03*
X123350000Y-102250000D03*
X128250000Y-102250000D03*
X128250000Y-98950000D03*
%TD*%
%TO.C,D1*%
X103350000Y-98950000D03*
X103350000Y-102250000D03*
X108250000Y-102250000D03*
X108250000Y-98950000D03*
%TD*%
D13*
%TO.C,C8*%
X97147500Y-102350000D03*
X97147500Y-100450000D03*
%TD*%
D12*
%TO.C,D13*%
X163350000Y-98950000D03*
X163350000Y-102250000D03*
X168250000Y-102250000D03*
X168250000Y-98950000D03*
%TD*%
D14*
%TO.C,C3*%
X101347500Y-85990000D03*
X103247500Y-85990000D03*
%TD*%
D15*
%TO.C,SW1*%
X86317500Y-84990000D03*
X86317500Y-93190000D03*
D16*
X86317500Y-87090000D03*
D17*
X86317500Y-89090000D03*
X86317500Y-91090000D03*
%TD*%
D12*
%TO.C,D7*%
X133350000Y-98950000D03*
X133350000Y-102250000D03*
X138250000Y-102250000D03*
X138250000Y-98950000D03*
%TD*%
%TO.C,D11*%
X153350000Y-98950000D03*
X153350000Y-102250000D03*
X158250000Y-102250000D03*
X158250000Y-98950000D03*
%TD*%
D18*
%TO.C,R3*%
X100360000Y-80150000D03*
X98535000Y-80150000D03*
%TD*%
D19*
%TO.C,R1*%
X101385000Y-89900000D03*
X103210000Y-89900000D03*
%TD*%
D11*
%TO.C,C21*%
X151847500Y-101275000D03*
X151847500Y-99725000D03*
%TD*%
D13*
%TO.C,C1*%
X100877500Y-95400000D03*
X100877500Y-93500000D03*
%TD*%
D20*
%TO.C,C10*%
X98047500Y-96800000D03*
X93647500Y-96800000D03*
%TD*%
D11*
%TO.C,C17*%
X131847500Y-101375000D03*
X131847500Y-99825000D03*
%TD*%
%TO.C,C13*%
X111847500Y-101375000D03*
X111847500Y-99825000D03*
%TD*%
D21*
%TO.C,J2*%
X123117500Y-89038000D03*
D22*
X120577500Y-89038000D03*
X123117500Y-86498000D03*
X120577500Y-86498000D03*
X123117500Y-83958000D03*
X120577500Y-83958000D03*
%TD*%
D23*
%TO.C,TP1*%
X90547500Y-98400000D03*
%TD*%
D24*
%TO.C,R7*%
X91927500Y-86267500D03*
X91927500Y-88092500D03*
%TD*%
D11*
%TO.C,C23*%
X161847500Y-101375000D03*
X161847500Y-99825000D03*
%TD*%
D13*
%TO.C,C7*%
X90747500Y-102350000D03*
X90747500Y-100450000D03*
%TD*%
%TO.C,C2*%
X102847500Y-95400000D03*
X102847500Y-93500000D03*
%TD*%
D12*
%TO.C,D23*%
X213350000Y-98950000D03*
X213350000Y-102250000D03*
X218250000Y-102250000D03*
X218250000Y-98950000D03*
%TD*%
D23*
%TO.C,TP3*%
X110800000Y-103600000D03*
%TD*%
D25*
%TO.C,U3*%
X92810000Y-100450000D03*
X92810000Y-101400000D03*
X92810000Y-102350000D03*
X95085000Y-102350000D03*
X95085000Y-100450000D03*
%TD*%
D23*
%TO.C,TP2*%
X110800000Y-97600000D03*
%TD*%
D11*
%TO.C,C25*%
X171847500Y-101375000D03*
X171847500Y-99825000D03*
%TD*%
D23*
%TO.C,TP4*%
X101057500Y-97410000D03*
%TD*%
D12*
%TO.C,D15*%
X173350000Y-98950000D03*
X173350000Y-102250000D03*
X178250000Y-102250000D03*
X178250000Y-98950000D03*
%TD*%
%TO.C,D17*%
X183350000Y-98950000D03*
X183350000Y-102250000D03*
X188250000Y-102250000D03*
X188250000Y-98950000D03*
%TD*%
%TO.C,D21*%
X203350000Y-98950000D03*
X203350000Y-102250000D03*
X208250000Y-102250000D03*
X208250000Y-98950000D03*
%TD*%
D21*
%TO.C,MK1*%
X88947500Y-76600000D03*
D22*
X88947500Y-79140000D03*
%TD*%
D19*
%TO.C,R9*%
X92012500Y-94987500D03*
X90187500Y-94987500D03*
%TD*%
D12*
%TO.C,D19*%
X193350000Y-98950000D03*
X193350000Y-102250000D03*
X198250000Y-102250000D03*
X198250000Y-98950000D03*
%TD*%
%TO.C,D3*%
X113350000Y-98950000D03*
X113350000Y-102250000D03*
X118250000Y-102250000D03*
X118250000Y-98950000D03*
%TD*%
D11*
%TO.C,C11*%
X101847500Y-101375000D03*
X101847500Y-99825000D03*
%TD*%
D18*
%TO.C,R4*%
X100360000Y-78250000D03*
X98535000Y-78250000D03*
%TD*%
%TO.C,R6*%
X95760000Y-89825000D03*
X93935000Y-89825000D03*
%TD*%
D11*
%TO.C,C27*%
X181847500Y-101375000D03*
X181847500Y-99825000D03*
%TD*%
D26*
%TO.C,C9*%
X97697500Y-87390000D03*
X97697500Y-82990000D03*
%TD*%
D27*
%TO.C,H1*%
X94280774Y-78450000D03*
X95447500Y-78933274D03*
X93114048Y-78933274D03*
X95930774Y-80100000D03*
D28*
X94280774Y-80100000D03*
D27*
X92630774Y-80100000D03*
X95447500Y-81266726D03*
X93114048Y-81266726D03*
X94280774Y-81750000D03*
%TD*%
D11*
%TO.C,C31*%
X201825000Y-101375000D03*
X201825000Y-99825000D03*
%TD*%
D29*
%TO.C,U2*%
X92237500Y-91837500D03*
X92237500Y-90887500D03*
X92237500Y-89937500D03*
X89962500Y-89937500D03*
X89962500Y-91837500D03*
%TD*%
D12*
%TO.C,D9*%
X143350000Y-98950000D03*
X143350000Y-102250000D03*
X148250000Y-102250000D03*
X148250000Y-98950000D03*
%TD*%
D11*
%TO.C,C33*%
X211850000Y-101375000D03*
X211850000Y-99825000D03*
%TD*%
D30*
%TO.C,C6*%
X95822500Y-91775000D03*
X93922500Y-91775000D03*
%TD*%
D31*
%TO.C,U1*%
X104900000Y-86500000D03*
X104900000Y-87300000D03*
X104900000Y-88100000D03*
X104900000Y-88900000D03*
X104900000Y-89700000D03*
X104900000Y-90500000D03*
X104900000Y-91300000D03*
X104900000Y-92100000D03*
X104900000Y-92900000D03*
X104900000Y-93700000D03*
X104900000Y-94500000D03*
D32*
X106000000Y-95400000D03*
X106800000Y-95400000D03*
X107600000Y-95400000D03*
X108400000Y-95400000D03*
X109200000Y-95400000D03*
X110000000Y-95400000D03*
X110800000Y-95400000D03*
X111600000Y-95400000D03*
X112400000Y-95400000D03*
X113200000Y-95400000D03*
X114000000Y-95400000D03*
X114800000Y-95400000D03*
X115600000Y-95400000D03*
D31*
X116700000Y-94500000D03*
X116700000Y-93700000D03*
X116700000Y-92900000D03*
X116700000Y-92100000D03*
X116700000Y-91300000D03*
X116700000Y-90500000D03*
X116700000Y-89700000D03*
X116700000Y-88900000D03*
X116700000Y-88100000D03*
X116700000Y-87300000D03*
X116700000Y-86500000D03*
D32*
X115600000Y-85600000D03*
X114800000Y-85600000D03*
X114000000Y-85600000D03*
X113200000Y-85600000D03*
X112400000Y-85600000D03*
X111600000Y-85600000D03*
X110800000Y-85600000D03*
X110000000Y-85600000D03*
X109200000Y-85600000D03*
X108400000Y-85600000D03*
X107600000Y-85600000D03*
X106800000Y-85600000D03*
X106000000Y-85600000D03*
D33*
X108825000Y-88525000D03*
D34*
X108825000Y-90500000D03*
X108825000Y-92475000D03*
X110800000Y-88525000D03*
X110800000Y-90500000D03*
X110800000Y-92475000D03*
X112775000Y-88525000D03*
X112775000Y-90500000D03*
X112775000Y-92475000D03*
D35*
X116750000Y-85550000D03*
X116750000Y-95450000D03*
X104850000Y-95450000D03*
X104850000Y-85550000D03*
%TD*%
D11*
%TO.C,C29*%
X191847500Y-101375000D03*
X191847500Y-99825000D03*
%TD*%
%TO.C,C15*%
X121847500Y-101375000D03*
X121847500Y-99825000D03*
%TD*%
D27*
%TO.C,H2*%
X121842500Y-81738000D03*
X120675774Y-81254726D03*
X123009226Y-81254726D03*
X120192500Y-80088000D03*
D28*
X121842500Y-80088000D03*
D27*
X123492500Y-80088000D03*
X120675774Y-78921274D03*
X123009226Y-78921274D03*
X121842500Y-78438000D03*
%TD*%
D19*
%TO.C,R2*%
X101385000Y-91800000D03*
X103210000Y-91800000D03*
%TD*%
D36*
%TO.C,J1*%
X88200000Y-98725000D03*
X88200000Y-99375000D03*
X88200000Y-100025000D03*
X88200000Y-100675000D03*
X88200000Y-101325000D03*
D37*
X85500000Y-96525000D03*
D38*
X85500000Y-97125000D03*
D39*
X88200000Y-97525000D03*
D23*
X85500000Y-99025000D03*
X85500000Y-101025000D03*
D39*
X88200000Y-102525000D03*
D38*
X85500000Y-102925000D03*
D37*
X85500000Y-103525000D03*
%TD*%
D40*
%TO.C,R5*%
X93827500Y-88092500D03*
X93827500Y-86267500D03*
%TD*%
D14*
%TO.C,C4*%
X101347500Y-87950000D03*
X103247500Y-87950000D03*
%TD*%
D41*
%TO.C,C5*%
X89997500Y-86230000D03*
X89997500Y-88130000D03*
%TD*%
D18*
%TO.C,R8*%
X91855000Y-82938000D03*
X90030000Y-82938000D03*
%TD*%
M02*
